<svg width="23" height="23" viewBox="0 0 23 23" fill="none" xmlns="http://www.w3.org/2000/svg">
<path d="M11.4961 0.899414C8.5718 0.899414 8.20511 0.91182 7.05662 0.9642C5.91054 1.01648 5.12782 1.19853 4.4429 1.46467C3.73484 1.73984 3.13435 2.10804 2.53576 2.70663C1.93714 3.30522 1.56894 3.90577 1.2938 4.61383C1.0276 5.29872 0.845618 6.08144 0.79327 7.22752C0.740889 8.37601 0.728516 8.7427 0.728516 11.667C0.728516 14.5913 0.740889 14.958 0.79327 16.1065C0.845618 17.2525 1.0276 18.0353 1.2938 18.7202C1.56897 19.4282 1.93717 20.0287 2.53576 20.6274C3.13439 21.2259 3.73484 21.5941 4.4429 21.8693C5.12782 22.1355 5.91054 22.3175 7.05662 22.3698C8.20511 22.4222 8.5718 22.4346 11.4961 22.4346C14.4204 22.4346 14.7871 22.4222 15.9356 22.3698C17.0816 22.3175 17.8644 22.1355 18.5493 21.8693C19.2573 21.5941 19.8578 21.2259 20.4565 20.6274C21.055 20.0287 21.4232 19.4282 21.6984 18.7202C21.9646 18.0353 22.1466 17.2525 22.1989 16.1065C22.2513 14.958 22.2637 14.5913 22.2637 11.667C22.2637 8.7427 22.2513 8.37601 22.1989 7.22752C22.1466 6.08144 21.9646 5.29872 21.6984 4.61383C21.4232 3.90577 21.055 3.30522 20.4565 2.70663C19.8578 2.10804 19.2573 1.73984 18.5493 1.46467C17.8644 1.19853 17.0816 1.01648 15.9356 0.9642C14.7871 0.91182 14.4204 0.899414 11.4961 0.899414ZM11.4961 2.8395C14.3711 2.8395 14.7117 2.8505 15.8471 2.9023C16.897 2.95016 17.4671 3.12558 17.8465 3.27304C18.3491 3.46839 18.7078 3.70169 19.0846 4.07849C19.4614 4.45528 19.6947 4.81399 19.89 5.31657C20.0375 5.69599 20.2129 6.26615 20.2608 7.31597C20.3126 8.45137 20.3236 8.79194 20.3236 11.667C20.3236 14.542 20.3126 14.8826 20.2608 16.018C20.2129 17.0679 20.0375 17.638 19.89 18.0174C19.6947 18.52 19.4614 18.8787 19.0846 19.2555C18.7078 19.6323 18.3491 19.8656 17.8465 20.0609C17.4671 20.2084 16.8969 20.3838 15.8471 20.4317C14.7119 20.4835 14.3714 20.4945 11.4961 20.4945C8.62082 20.4945 8.28035 20.4835 7.14507 20.4316C6.09522 20.3838 5.52509 20.2084 5.14571 20.0609C4.64306 19.8656 4.28438 19.6323 3.90762 19.2555C3.53083 18.8787 3.29749 18.52 3.10214 18.0174C2.95468 17.638 2.7793 17.0678 2.7314 16.018C2.6796 14.8826 2.66861 14.542 2.66861 11.667C2.66861 8.79194 2.6796 8.45137 2.7314 7.31597C2.7793 6.26612 2.95468 5.69599 3.10214 5.3166C3.29749 4.81396 3.53083 4.45528 3.90759 4.07852C4.28438 3.70169 4.64309 3.46839 5.14567 3.27304C5.52509 3.12558 6.09525 2.95016 7.14507 2.9023C8.28048 2.8505 8.62104 2.8395 11.4961 2.8395" fill="white"/>
<path d="M11.4961 15.256C9.51381 15.256 7.90689 13.6491 7.90689 11.6669C7.90689 9.68457 9.51381 8.07764 11.4961 8.07764C13.4784 8.07764 15.0853 9.68457 15.0853 11.6669C15.0853 13.6491 13.4784 15.256 11.4961 15.256ZM11.4961 6.13755C8.44233 6.13755 5.9668 8.61308 5.9668 11.6669C5.9668 14.7206 8.44233 17.1961 11.4961 17.1961C14.5499 17.1961 17.0254 14.7206 17.0254 11.6669C17.0254 8.61308 14.5499 6.13755 11.4961 6.13755ZM18.536 5.91909C18.536 6.63273 17.9575 7.21118 17.2438 7.21118C16.5303 7.21118 15.9517 6.63273 15.9517 5.91909C15.9517 5.20548 16.5303 4.62695 17.2438 4.62695C17.9575 4.62695 18.536 5.20548 18.536 5.91909Z" fill="white"/>
</svg>
