<svg width="70" height="307" viewBox="0 0 70 307" fill="none" xmlns="http://www.w3.org/2000/svg">
<rect x="70" y="0.666992" width="842" height="3.99996" transform="rotate(90 70 0.666992)" fill="#FFDA46"/>
<rect x="4" y="0.666992" width="842" height="3.99996" transform="rotate(90 4 0.666992)" fill="#FFDA46"/>
<path d="M39.4784 293.128C44.5477 283.059 49.6154 272.991 54.6848 262.92C56.1539 263.962 57.623 265.003 59.0921 266.043C58.8417 262.244 58.5914 258.444 58.341 254.644C56.8505 253.822 55.36 253 53.8695 252.178C47.6819 265.424 41.4943 278.669 35.3066 291.915C36.6967 292.319 38.0884 292.723 39.4784 293.128Z" fill="#FFDA46"/>
<path d="M29.5519 293.133C24.5534 283.03 19.5548 272.925 14.5547 262.821C13.079 263.853 11.6017 264.883 10.126 265.915C10.4027 262.117 10.6794 258.319 10.956 254.521C12.4515 253.708 13.9486 252.896 15.444 252.086C21.5394 265.373 27.6365 278.662 33.7319 291.949C32.3385 292.344 30.9452 292.738 29.5519 293.133Z" fill="#FFDA46"/>
<path d="M43.1563 300.683H43.1448C43.1613 303.251 42.2999 305.608 40.8934 307.346C39.3535 309.248 37.163 310.436 34.6893 310.456L34.6662 310.468V310.456C32.1991 310.469 29.9971 309.319 28.4292 307.447C26.9947 305.734 26.0954 303.383 26.074 300.799L26.0625 300.775H26.074C26.0576 298.207 26.9189 295.85 28.3254 294.112C29.8653 292.21 32.0558 291.022 34.5295 291.002C37.0049 290.981 39.2168 292.133 40.7896 294.011C42.2241 295.725 43.1234 298.075 43.1448 300.66L43.1563 300.683ZM37.1202 300.683H37.1317C37.1169 299.569 36.7513 298.582 36.1683 297.887C35.7203 297.352 35.1537 297.024 34.5756 297.029C33.9959 297.034 33.4343 297.374 32.9929 297.917C32.4231 298.62 32.0756 299.622 32.0854 300.752L32.097 300.775H32.0854C32.1003 301.89 32.4659 302.877 33.0489 303.572C33.4969 304.106 34.0634 304.435 34.6415 304.43L34.6646 304.418V304.43C35.2361 304.417 35.7878 304.078 36.2243 303.542C36.7941 302.839 37.1416 301.837 37.1317 300.706L37.1202 300.683Z" fill="#FFDA46"/>
<path d="M32.5586 276.824L34.6107 275.006L36.6628 276.824L34.6107 280.646L32.5586 276.824Z" fill="#FFDA46"/>
<path d="M60.1096 292.167C60.3434 294.96 60.0651 297.571 59.4228 299.535C58.5812 302.114 57.0364 303.795 54.9875 303.967C52.9437 304.139 51.1452 302.741 49.8885 300.342C48.9267 298.509 48.2152 295.975 47.9814 293.18C47.7475 290.388 48.0258 287.776 48.6681 285.812C49.5097 283.234 51.0546 281.552 53.1034 281.38C55.1473 281.209 56.9458 282.607 58.2024 285.005C59.1642 286.839 59.8757 289.373 60.1096 292.167ZM55.1259 298.136C55.5903 296.714 55.7847 294.737 55.6002 292.54C55.4157 290.346 54.8969 288.433 54.2052 287.115C53.81 286.36 53.5349 285.895 53.474 285.901C53.418 285.906 53.2286 286.408 52.9651 287.215C52.5006 288.636 52.3063 290.614 52.4907 292.811C52.6752 295.004 53.194 296.917 53.8857 298.236C54.281 298.991 54.556 299.456 54.617 299.449C54.673 299.444 54.8624 298.943 55.1259 298.136Z" fill="#FFDA46"/>
<path d="M47.0794 273.773C47.5323 273.872 49.0442 274.222 50.7735 275.151C52.5242 276.092 54.4858 277.622 55.7902 280.077C56.3057 281.047 56.6285 281.98 56.8278 282.823C57.0254 283.655 57.1077 284.426 57.139 285.06L54.1333 285.202C54.1103 284.744 54.0477 284.173 53.8929 283.521C53.7397 282.879 53.5042 282.186 53.1386 281.496C52.1718 279.675 50.6895 278.525 49.3604 277.812C48.0099 277.087 46.806 276.808 46.4453 276.729L47.0827 273.775L47.0794 273.773Z" fill="#FFDA46"/>
<path d="M13.6185 292.54C13.434 294.737 13.6283 296.714 14.0928 298.136C14.3563 298.943 14.5473 299.444 14.6017 299.449C14.6626 299.454 14.9377 298.991 15.3329 298.236C16.0247 296.917 16.5435 295.004 16.7279 292.811C16.9124 290.614 16.718 288.636 16.2536 287.215C15.9901 286.408 15.799 285.906 15.7447 285.901C15.6837 285.896 15.4087 286.36 15.0134 287.115C14.3217 288.433 13.8029 290.346 13.6185 292.54ZM9.79586 299.535C9.15519 297.571 8.87521 294.96 9.10908 292.167C9.34295 289.371 10.0561 286.839 11.0163 285.005C12.2729 282.607 14.073 281.209 16.1153 281.38C18.1641 281.554 19.7089 283.234 20.5505 285.812C21.1912 287.776 21.4712 290.388 21.2373 293.18C21.0034 295.977 20.2903 298.509 19.3301 300.342C18.0735 302.741 16.2734 304.139 14.2311 303.967C12.1823 303.794 10.6375 302.114 9.79586 299.535Z" fill="#FFDA46"/>
<path d="M22.7758 276.728C22.4151 276.807 21.2095 277.084 19.8606 277.81C18.5315 278.524 17.0493 279.674 16.0825 281.495C15.7169 282.185 15.4797 282.878 15.3282 283.52C15.1734 284.172 15.1108 284.743 15.0877 285.2L12.082 285.058C12.1133 284.424 12.1957 283.654 12.3933 282.822C12.5926 281.98 12.9154 281.046 13.4309 280.075C14.7353 277.621 16.6968 276.091 18.4475 275.15C20.1768 274.22 21.6888 273.871 22.1417 273.771L22.779 276.726L22.7758 276.728Z" fill="#FFDA46"/>
<path d="M31.5622 250.749C31.5705 253.905 32.1057 256.732 32.9621 258.749C33.5666 260.171 34.1743 261.05 34.6437 261.049C35.1015 261.047 35.6994 260.164 36.2956 258.738C37.1438 256.709 37.6659 253.877 37.656 250.721C37.6477 247.565 37.1125 244.738 36.2561 242.72C35.6516 241.299 35.0439 240.42 34.5745 240.421C34.1167 240.423 33.5188 241.306 32.9226 242.732C32.0744 244.761 31.5523 247.593 31.5622 250.749ZM28.8069 260.52C27.733 257.992 27.0627 254.535 27.0528 250.749C27.043 246.963 27.6919 243.505 28.7492 240.977C30.0586 237.848 32.1041 235.908 34.5745 235.902C37.0334 235.895 39.0839 237.825 40.4113 240.948C41.4852 243.476 42.1555 246.933 42.1654 250.719C42.1752 254.506 41.5263 257.964 40.469 260.491C39.1597 263.62 37.1141 265.56 34.6437 265.566C32.1848 265.573 30.1343 263.643 28.8069 260.52Z" fill="#FFDA46"/>
<path d="M29.2856 304.469L27.4443 305.004L25.664 321.523L27.3785 323.92L28.9068 322.547L32.797 308.827L36.4219 309.845L32.2354 324.615L26.7543 329.535L21.7656 322.56L23.9726 302.091L28.2398 300.85L29.2856 304.469Z" fill="#FFDA46"/>
<path d="M40.979 300.85L45.2463 302.091L47.4532 322.56L42.4645 329.535L36.9835 324.615L32.7969 309.845L36.4218 308.827L40.312 322.547L41.8403 323.92L43.5548 321.523L41.7745 305.004L39.9332 304.469L40.979 300.85Z" fill="#FFDA46"/>
<path d="M29.7396 208.342C24.6703 218.41 19.6026 228.479 14.5332 238.549C13.0642 237.508 11.5951 236.466 10.126 235.426C10.3763 239.226 10.6267 243.026 10.877 246.825C12.3675 247.647 13.858 248.469 15.3485 249.291C21.5361 236.045 27.7238 222.801 33.9114 209.555C32.5214 209.151 31.1297 208.746 29.7396 208.342Z" fill="#FFDA46"/>
<path d="M39.6663 208.336C44.6648 218.44 49.6634 228.545 54.6635 238.648C56.1392 237.616 57.6165 236.586 59.0922 235.555C58.8155 239.353 58.5388 243.151 58.2621 246.949C56.7667 247.761 55.2696 248.573 53.7742 249.383C47.6788 236.096 41.5817 222.807 35.4863 209.52C36.8797 209.125 38.273 208.731 39.6663 208.336Z" fill="#FFDA46"/>
<path d="M26.0625 200.787H26.074C26.0576 198.218 26.9189 195.861 28.3254 194.123C29.8653 192.222 32.0558 191.033 34.5295 191.014L34.5526 191.002V191.014C37.0181 191 39.2217 192.151 40.7896 194.023C42.2241 195.736 43.1234 198.086 43.1448 200.671L43.1563 200.694H43.1448C43.1613 203.263 42.2999 205.62 40.8934 207.358C39.3535 209.259 37.163 210.448 34.6893 210.467C32.2139 210.489 30.002 209.337 28.4292 207.458C26.9947 205.745 26.0954 203.395 26.074 200.81L26.0625 200.787ZM32.0986 200.787H32.0871C32.1019 201.901 32.4675 202.888 33.0506 203.583C33.4985 204.118 34.0651 204.446 34.6432 204.441C35.2229 204.436 35.7845 204.096 36.2259 203.553C36.7957 202.85 37.1433 201.848 37.1334 200.717L37.1218 200.694H37.1334C37.1186 199.58 36.7529 198.593 36.1699 197.898C35.7219 197.363 35.1554 197.035 34.5773 197.04L34.5542 197.051V197.04C33.9827 197.053 33.431 197.391 32.9946 197.928C32.4247 198.631 32.0772 199.633 32.0871 200.764L32.0986 200.787Z" fill="#FFDA46"/>
<path d="M36.6609 224.645L34.6088 226.462L32.5566 224.645L34.6088 220.822L36.6609 224.645Z" fill="#FFDA46"/>
<path d="M9.10831 209.301C8.87444 206.508 9.15278 203.897 9.79509 201.932C10.6367 199.354 12.1815 197.672 14.2304 197.501C16.2742 197.329 18.0727 198.727 19.3294 201.125C20.2912 202.959 21.0027 205.493 21.2365 208.287C21.4704 211.08 21.1921 213.691 20.5498 215.655C19.7082 218.234 18.1633 219.916 16.1145 220.087C14.0706 220.259 12.2721 218.861 11.0155 216.463C10.0537 214.629 9.34218 212.095 9.10831 209.301ZM14.092 203.332C13.6276 204.753 13.4332 206.731 13.6177 208.928C13.8022 211.121 14.3209 213.034 15.0127 214.353C15.4079 215.107 15.683 215.573 15.7439 215.566C15.7999 215.561 15.9893 215.06 16.2528 214.252C16.7173 212.831 16.9116 210.854 16.7272 208.657C16.5427 206.463 16.0239 204.55 15.3322 203.231C14.9369 202.477 14.6619 202.012 14.6009 202.018C14.5449 202.023 14.3555 202.525 14.092 203.332Z" fill="#FFDA46"/>
<path d="M22.1397 227.695C21.6868 227.596 20.1749 227.246 18.4456 226.317C16.6949 225.376 14.7333 223.846 13.4289 221.392C12.9134 220.421 12.5906 219.489 12.3914 218.645C12.1937 217.813 12.1114 217.042 12.0801 216.409L15.0858 216.267C15.1088 216.724 15.1714 217.295 15.3262 217.947C15.4794 218.589 15.7149 219.282 16.0805 219.972C17.0473 221.793 18.5296 222.943 19.8587 223.656C21.2092 224.381 22.4131 224.66 22.7738 224.739L22.1364 227.694L22.1397 227.695Z" fill="#FFDA46"/>
<path d="M55.601 208.93C55.7854 206.733 55.5911 204.755 55.1266 203.334C54.8631 202.527 54.6721 202.025 54.6177 202.02C54.5568 202.015 54.2818 202.479 53.8865 203.233C53.1948 204.552 52.676 206.465 52.4915 208.659C52.307 210.856 52.5014 212.833 52.9658 214.254C53.2293 215.061 53.4204 215.563 53.4747 215.568C53.5357 215.573 53.8107 215.109 54.206 214.355C54.8977 213.036 55.4165 211.123 55.601 208.93ZM59.4236 201.934C60.0642 203.899 60.3442 206.51 60.1103 209.303C59.8765 212.099 59.1633 214.631 58.2032 216.464C56.9465 218.863 55.1464 220.261 53.1042 220.089C51.0554 219.916 49.5105 218.236 48.6689 215.657C48.0282 213.693 47.7483 211.082 47.9821 208.289C48.216 205.493 48.9291 202.961 49.8893 201.127C51.1459 198.729 52.9461 197.331 54.9883 197.502C57.0371 197.676 58.582 199.356 59.4236 201.934Z" fill="#FFDA46"/>
<path d="M46.4437 224.742C46.8044 224.663 48.01 224.384 49.3588 223.659C50.6879 222.946 52.1702 221.796 53.137 219.975C53.5026 219.285 53.7398 218.592 53.8913 217.95C54.0461 217.298 54.1087 216.727 54.1317 216.27L57.1374 216.411C57.1061 217.045 57.0238 217.816 56.8262 218.648C56.6269 219.49 56.3041 220.424 55.7886 221.395C54.4842 223.849 52.5227 225.379 50.7719 226.32C49.0426 227.249 47.5307 227.599 47.0778 227.698L46.4404 224.744L46.4437 224.742Z" fill="#FFDA46"/>
<path d="M39.9332 197L41.7745 196.464L43.5548 179.945L41.8403 177.548L40.312 178.922L36.4218 192.643L32.7969 191.623L36.9835 176.855L42.4645 171.935L47.4532 178.908L45.2463 199.379L40.979 200.619L39.9332 197Z" fill="#FFDA46"/>
<path d="M28.2398 200.619L23.9726 199.379L21.7656 178.908L26.7543 171.935L32.2354 176.855L36.4219 191.623L32.797 192.643L28.9068 178.922L27.3785 177.548L25.664 179.945L27.4443 196.464L29.2856 197L28.2398 200.619Z" fill="#FFDA46"/>
<path d="M40.2753 121.86C45.3446 111.792 50.4123 101.723 55.4817 91.6527C56.9508 92.6942 58.4198 93.7358 59.8889 94.7756C59.6386 90.976 59.3883 87.1763 59.1379 83.3766C57.6474 82.5546 56.1569 81.7326 54.6664 80.9106C48.4788 94.1567 42.2911 107.401 36.1035 120.647C37.4936 121.051 38.8852 121.456 40.2753 121.86Z" fill="#FFDA46"/>
<path d="M30.3488 121.865C25.3502 111.762 20.3517 101.657 15.3515 91.5533C13.8759 92.585 12.3985 93.6149 10.9229 94.6466C11.1995 90.8485 11.4762 87.0505 11.7529 83.2525C13.2484 82.4404 14.7454 81.6283 16.2409 80.8179C22.3363 94.1052 28.4333 107.394 34.5287 120.681C33.1354 121.076 31.7421 121.47 30.3488 121.865Z" fill="#FFDA46"/>
<path d="M43.9532 129.415H43.9417C43.9581 131.983 43.0968 134.34 41.6903 136.078C40.1504 137.98 37.9599 139.168 35.4862 139.188L35.4631 139.2V139.188C32.996 139.201 30.794 138.051 29.2261 136.179C27.7916 134.466 26.8923 132.115 26.8709 129.53L26.8594 129.507H26.8709C26.8544 126.939 27.7158 124.582 29.1223 122.844C30.6622 120.942 32.8527 119.754 35.3264 119.734C37.8018 119.713 40.0137 120.865 41.5865 122.743C43.021 124.457 43.9202 126.807 43.9417 129.392L43.9532 129.415ZM37.9171 129.415H37.9286C37.9138 128.301 37.5482 127.314 36.9651 126.619C36.5172 126.084 35.9506 125.756 35.3725 125.761C34.7928 125.765 34.2312 126.105 33.7898 126.649C33.2199 127.352 32.8724 128.354 32.8823 129.484L32.8938 129.507H32.8823C32.8971 130.622 33.2628 131.609 33.8458 132.303C34.2938 132.838 34.8603 133.167 35.4384 133.162L35.4615 133.15V133.162C36.0329 133.149 36.5847 132.81 37.0211 132.274C37.591 131.571 37.9385 130.569 37.9286 129.438L37.9171 129.415Z" fill="#FFDA46"/>
<path d="M33.3545 105.556L35.4066 103.738L37.4587 105.556L35.4066 109.378L33.3545 105.556Z" fill="#FFDA46"/>
<path d="M60.9065 120.899C61.1403 123.692 60.862 126.303 60.2197 128.268C59.3781 130.846 57.8332 132.528 55.7844 132.7C53.7405 132.871 51.942 131.473 50.6854 129.075C49.7236 127.241 49.0121 124.707 48.7782 121.913C48.5444 119.12 48.8227 116.509 49.465 114.545C50.3066 111.966 51.8515 110.284 53.9003 110.113C55.9442 109.941 57.7426 111.339 58.9993 113.738C59.9611 115.571 60.6726 118.105 60.9065 120.899ZM55.9228 126.868C56.3872 125.447 56.5815 123.469 56.3971 121.272C56.2126 119.079 55.6938 117.166 55.0021 115.847C54.6068 115.093 54.3318 114.627 54.2709 114.634C54.2149 114.639 54.0255 115.141 53.7619 115.948C53.2975 117.369 53.1032 119.346 53.2876 121.543C53.4721 123.737 53.9909 125.65 54.6826 126.969C55.0779 127.723 55.3529 128.188 55.4138 128.182C55.4698 128.177 55.6592 127.675 55.9228 126.868Z" fill="#FFDA46"/>
<path d="M47.8763 102.505C48.3292 102.604 49.8411 102.954 51.5704 103.884C53.3211 104.824 55.2827 106.355 56.587 108.809C57.1025 109.78 57.4253 110.712 57.6246 111.556C57.8223 112.387 57.9046 113.158 57.9359 113.792L54.9302 113.934C54.9071 113.477 54.8446 112.906 54.6897 112.254C54.5366 111.612 54.3011 110.918 53.9354 110.229C52.9687 108.408 51.4864 107.257 50.1573 106.544C48.8068 105.82 47.6029 105.541 47.2422 105.462L47.8796 102.507L47.8763 102.505Z" fill="#FFDA46"/>
<path d="M14.4144 121.272C14.2299 123.469 14.4242 125.447 14.8887 126.868C15.1522 127.675 15.3432 128.177 15.3976 128.182C15.4585 128.187 15.7336 127.723 16.1288 126.969C16.8206 125.65 17.3394 123.737 17.5238 121.543C17.7083 119.346 17.5139 117.369 17.0495 115.948C16.786 115.141 16.5949 114.639 16.5406 114.634C16.4796 114.629 16.2046 115.093 15.8093 115.847C15.1176 117.166 14.5988 119.079 14.4144 121.272ZM10.5918 128.268C9.95109 126.303 9.67111 123.692 9.90498 120.899C10.1388 118.103 10.852 115.571 11.8122 113.738C13.0688 111.339 14.8689 109.941 16.9111 110.113C18.96 110.286 20.5048 111.966 21.3464 114.545C21.9871 116.509 22.2671 119.12 22.0332 121.913C21.7993 124.709 21.0862 127.241 20.126 129.075C18.8694 131.473 17.0693 132.871 15.027 132.7C12.9782 132.526 11.4334 130.846 10.5918 128.268Z" fill="#FFDA46"/>
<path d="M23.5716 105.46C23.211 105.539 22.0054 105.817 20.6565 106.543C19.3274 107.256 17.8452 108.406 16.8784 110.227C16.5128 110.917 16.2756 111.61 16.1241 112.252C15.9693 112.904 15.9067 113.475 15.8836 113.933L12.8779 113.791C12.9092 113.157 12.9916 112.386 13.1892 111.554C13.3885 110.712 13.7113 109.778 14.2268 108.808C15.5312 106.353 17.4927 104.823 19.2434 103.882C20.9727 102.953 22.4847 102.603 22.9376 102.504L23.5749 105.458L23.5716 105.46Z" fill="#FFDA46"/>
<path d="M32.3581 79.4814C32.3664 82.6373 32.9016 85.4648 33.758 87.4818C34.3625 88.903 34.9702 89.7828 35.4396 89.7811C35.8974 89.7795 36.4953 88.8964 37.0915 87.4703C37.9397 85.4417 38.4618 82.6093 38.4519 79.4533C38.4436 76.2974 37.9084 73.4699 37.052 71.4529C36.4475 70.0317 35.8398 69.152 35.3704 69.1536C34.9126 69.1553 34.3147 70.0383 33.7185 71.4645C32.8703 73.493 32.3482 76.3255 32.3581 79.4814ZM29.6028 89.2529C28.5289 86.7242 27.8586 83.2679 27.8487 79.4814C27.8389 75.6949 28.4878 72.2369 29.5451 69.7099C30.8544 66.5803 32.9 64.6409 35.3704 64.6343C37.8293 64.6277 39.8798 66.5572 41.2072 69.6802C42.2811 72.2089 42.9514 75.6652 42.9613 79.4517C42.9711 83.2381 42.3222 86.6961 41.2649 89.2232C39.9556 92.3527 37.91 94.2922 35.4396 94.2988C32.9807 94.3054 30.9302 92.3758 29.6028 89.2529Z" fill="#FFDA46"/>
<path d="M30.0825 133.202L28.2412 133.737L26.4609 150.256L28.1753 152.652L29.7037 151.279L33.5938 137.559L37.2188 138.578L33.0322 153.347L27.5511 158.268L22.5625 151.292L24.7694 130.823L29.0367 129.582L30.0825 133.202Z" fill="#FFDA46"/>
<path d="M41.7759 129.582L46.0431 130.823L48.2501 151.292L43.2614 158.268L37.7803 153.347L33.5938 138.578L37.2187 137.559L41.1088 151.279L42.6372 152.652L44.3517 150.256L42.5713 133.737L40.73 133.202L41.7759 129.582Z" fill="#FFDA46"/>
<path d="M30.5365 37.0742C25.4672 47.1428 20.3995 57.2115 15.3301 67.2817C13.861 66.2402 12.3919 65.1987 10.9229 64.1588C11.1732 67.9585 11.4235 71.7582 11.6739 75.5578C13.1644 76.3798 14.6549 77.2018 16.1454 78.0238C22.333 64.7778 28.5206 51.5334 34.7083 38.2874C33.3182 37.883 31.9265 37.4786 30.5365 37.0742Z" fill="#FFDA46"/>
<path d="M40.4632 37.0688C45.4617 47.1721 50.4602 57.2771 55.4604 67.3804C56.9361 66.3487 58.4134 65.3188 59.8891 64.2871C59.6124 68.0852 59.3357 71.8832 59.059 75.6812C57.5636 76.4933 56.0665 77.3054 54.5711 78.1158C48.4757 64.8285 42.3786 51.5396 36.2832 38.2523C37.6765 37.8578 39.0699 37.4633 40.4632 37.0688Z" fill="#FFDA46"/>
<path d="M26.8594 29.5191H26.8709C26.8544 26.9508 27.7158 24.5937 29.1223 22.8556C30.6622 20.9542 32.8527 19.7657 35.3264 19.7459L35.3495 19.7344V19.7459C37.815 19.7327 40.0186 20.8832 41.5865 22.755C43.021 24.4683 43.9202 26.8187 43.9417 29.4036L43.9532 29.4267H43.9417C43.9581 31.995 43.0968 34.352 41.6903 36.0901C40.1504 37.9916 37.9599 39.18 35.4862 39.1998C33.0108 39.2213 30.7989 38.0692 29.2261 36.1908C27.7916 34.4775 26.8923 32.127 26.8709 29.5422L26.8594 29.5191ZM32.8955 29.5191H32.884C32.8988 30.6333 33.2644 31.6203 33.8474 32.3152C34.2954 32.85 34.862 33.1785 35.44 33.1735C36.0198 33.1686 36.5814 32.8285 37.0228 32.2855C37.5926 31.5823 37.9401 30.5804 37.9302 29.4498L37.9187 29.4267H37.9302C37.9154 28.3125 37.5498 27.3255 36.9668 26.6306C36.5188 26.0958 35.9522 25.7673 35.3742 25.7723L35.3511 25.7838V25.7723C34.7796 25.7855 34.2279 26.1238 33.7914 26.6603C33.2216 27.3634 32.8741 28.3653 32.884 29.496L32.8955 29.5191Z" fill="#FFDA46"/>
<path d="M37.4568 53.3775L35.4047 55.1948L33.3525 53.3775L35.4047 49.5547L37.4568 53.3775Z" fill="#FFDA46"/>
<path d="M9.90519 38.033C9.67132 35.2402 9.94965 32.629 10.592 30.6648C11.4336 28.0865 12.9784 26.4046 15.0272 26.2329C17.0711 26.0613 18.8696 27.4593 20.1262 29.8576C21.0881 31.6914 21.7995 34.2251 22.0334 37.0196C22.2673 39.8124 21.9889 42.4236 21.3466 44.3878C20.505 46.966 18.9602 48.648 16.9114 48.8197C14.8675 48.9913 13.069 47.5933 11.8124 45.195C10.8505 43.3611 10.1391 40.8275 9.90519 38.033ZM14.8889 32.0645C14.4244 33.4856 14.2301 35.463 14.4146 37.66C14.599 39.8536 15.1178 41.7667 15.8095 43.0855C16.2048 43.8398 16.4799 44.3053 16.5408 44.2987C16.5968 44.2937 16.7862 43.7919 17.0497 42.9848C17.5141 41.5636 17.7085 39.5862 17.524 37.3893C17.3396 35.1957 16.8208 33.2826 16.1291 31.9638C15.7338 31.2095 15.4587 30.744 15.3978 30.7506C15.3418 30.7556 15.1524 31.2573 14.8889 32.0645Z" fill="#FFDA46"/>
<path d="M22.9356 56.4277C22.4827 56.3287 20.9708 55.9788 19.2415 55.0495C17.4908 54.1087 15.5292 52.5786 14.2248 50.1241C13.7093 49.1536 13.3865 48.221 13.1873 47.3775C12.9896 46.5456 12.9073 45.7748 12.876 45.141L15.8817 44.999C15.9047 45.4562 15.9673 46.0273 16.1221 46.6793C16.2753 47.3214 16.5108 48.0147 16.8764 48.7046C17.8432 50.5252 19.3255 51.6757 20.6546 52.3887C22.0051 53.1133 23.209 53.3923 23.5697 53.4715L22.9323 56.4261L22.9356 56.4277Z" fill="#FFDA46"/>
<path d="M56.3969 37.6619C56.5813 35.465 56.387 33.4876 55.9225 32.0664C55.659 31.2593 55.468 30.7575 55.4136 30.7526C55.3527 30.7476 55.0777 31.2114 54.6824 31.9657C53.9907 33.2846 53.4719 35.1976 53.2874 37.3912C53.1029 39.5882 53.2973 41.5656 53.7617 42.9868C54.0252 43.7939 54.2163 44.2957 54.2706 44.3006C54.3316 44.3056 54.6066 43.8418 55.0019 43.0874C55.6936 41.7686 56.2124 39.8556 56.3969 37.6619ZM60.2195 30.6667C60.8601 32.6309 61.1401 35.2422 60.9062 38.035C60.6724 40.8311 59.9592 43.3631 58.9991 45.1969C57.7424 47.5952 55.9423 48.9933 53.9001 48.8216C51.8513 48.6483 50.3064 46.968 49.4648 44.3898C48.8241 42.4256 48.5442 39.8143 48.778 37.0215C49.0119 34.2254 49.725 31.6934 50.6852 29.8596C51.9418 27.4613 53.742 26.0632 55.7842 26.2349C57.833 26.4082 59.3779 28.0885 60.2195 30.6667Z" fill="#FFDA46"/>
<path d="M47.2406 53.474C47.6013 53.3947 48.8069 53.1158 50.1557 52.3912C51.4848 51.6781 52.9671 50.5277 53.9338 48.707C54.2995 48.0171 54.5366 47.3239 54.6882 46.6818C54.843 46.0298 54.9056 45.4587 54.9286 45.0015L57.9343 45.1434C57.903 45.7772 57.8207 46.5481 57.623 47.38C57.4238 48.2218 57.101 49.156 56.5855 50.1266C55.2811 52.581 53.3195 54.1111 51.5688 55.0519C49.8395 55.9812 48.3276 56.3311 47.8747 56.4302L47.2373 53.4756L47.2406 53.474Z" fill="#FFDA46"/>
<path d="M40.73 25.7329L42.5713 25.1965L44.3517 8.67733L42.6372 6.28066L41.1088 7.65396L37.2187 21.3753L33.5938 20.3553L37.7803 5.58741L43.2614 0.666992L48.2501 7.64075L46.0431 28.1114L41.7759 29.351L40.73 25.7329Z" fill="#FFDA46"/>
<path d="M29.0367 29.351L24.7694 28.1114L22.5625 7.64075L27.5511 0.666992L33.0322 5.58741L37.2188 20.3553L33.5938 21.3753L29.7037 7.65396L28.1753 6.28066L26.4609 8.67733L28.2412 25.1965L30.0825 25.7329L29.0367 29.351Z" fill="#FFDA46"/>
<path d="M15.8626 161.633L18.7448 164.903L15.8626 168.173L9.79688 164.903L15.8626 161.633Z" fill="#FFDA46"/>
<path d="M54.9496 161.633L52.0674 164.903L54.9496 168.173L61.0153 164.903L54.9496 161.633Z" fill="#FFDA46"/>
<path d="M39.6363 164.903L35.3633 160.62L31.0903 164.903L35.3633 169.185L39.6363 164.903Z" fill="#FFDA46"/>
</svg>
