<svg width="20" height="23" viewBox="0 0 20 23" fill="none" xmlns="http://www.w3.org/2000/svg">
<path d="M5.5717 17.0985C5.93718 17.579 6.44404 17.9329 7.02105 18.1105C7.59806 18.2881 8.21621 18.2805 8.78865 18.0886C9.36108 17.8968 9.85902 17.5304 10.2125 17.041C10.566 16.5516 10.7572 15.9637 10.7593 15.36V1.72314H14.1955V2.16301C14.2894 3.1773 14.7048 4.13508 15.3812 4.89671C16.0577 5.65835 16.9597 6.18402 17.9558 6.39709C18.2847 6.46647 18.62 6.50124 18.9562 6.50082V9.91502C17.2491 9.91805 15.5841 9.38572 14.1955 8.39294V15.361C14.1954 16.6158 13.8214 17.8422 13.1212 18.8836C12.421 19.9249 11.4263 20.734 10.2642 21.2075C9.10215 21.6811 7.82531 21.7976 6.59671 21.5422C5.36811 21.2867 4.24348 20.671 3.36638 19.7736C2.44665 18.8321 1.84421 17.6266 1.64331 16.3259C1.44242 15.0251 1.65312 13.6941 2.24595 12.519C2.83878 11.3439 3.78409 10.3835 4.94965 9.77205C6.11521 9.16065 7.44272 8.92886 8.74651 9.1091V12.6001C8.16184 12.4141 7.5331 12.4191 6.95149 12.6145C6.36987 12.8099 5.86561 13.1854 5.51182 13.6867C5.15803 14.188 4.97311 14.7889 4.98388 15.4024C4.99464 16.0158 5.20054 16.6099 5.5717 17.0985ZM5.5717 17.0985L5.5697 17.0975" stroke="white" stroke-width="1.5"/>
</svg>
