<svg width="300" height="117" viewBox="0 0 300 117" fill="none" xmlns="http://www.w3.org/2000/svg">
<path d="M123.687 52.5073C123.687 52.4383 123.969 52.259 124.542 51.9728C125.111 51.69 125.683 51.0107 126.256 49.9382C126.825 48.8692 127.111 47.3346 127.111 45.338V10.6673C127.111 8.88446 126.825 7.50853 126.256 6.54641C125.683 5.58429 125.114 4.96012 124.542 4.6739C123.969 4.39113 123.687 4.21181 123.687 4.13939L123.793 3.60489C123.793 3.39108 123.9 3.28418 124.114 3.28418H142.201C155.326 3.28418 161.892 6.88781 161.892 14.0916V14.1985C161.892 18.8367 159.216 22.0817 153.867 23.9369C158.219 24.7921 161.661 26.4336 164.195 28.8579C166.727 31.2856 167.996 34.2788 167.996 37.848V38.1687C167.996 42.8068 165.713 46.5174 161.147 49.2968C156.581 52.0797 150.802 53.4694 143.812 53.4694L124.121 53.3625C123.835 53.3625 123.693 53.2556 123.693 53.0418V52.5073H123.687ZM139.846 21.0471C139.846 21.5472 140.129 21.7954 140.701 21.7954C143.27 21.6541 145.498 21.0126 147.391 19.8678C149.281 18.7263 150.226 17.0504 150.226 14.8399V14.733C150.226 10.6673 147.05 8.56375 140.701 8.41892C140.129 8.41892 139.846 8.70514 139.846 9.27413V21.0471ZM139.846 29.2855V46.7277C139.846 47.1553 140.005 47.5312 140.329 47.8519C140.649 48.1726 141.025 48.3347 141.453 48.3347H141.774C146.198 48.3347 149.567 47.3898 151.888 45.5001C154.205 43.6103 155.367 41.1654 155.367 38.1687V37.9549C155.367 34.8168 154.171 32.3201 151.781 30.4648C149.391 28.6096 145.95 27.6819 141.453 27.6819C140.384 27.6819 139.849 28.2164 139.849 29.2855H139.846ZM169.489 23.1852C169.206 23.1852 169.061 23.0438 169.061 22.7576V21.5816C169.061 21.0816 169.275 20.8333 169.703 20.8333C171.13 20.8333 172.575 20.7092 174.037 20.4574C175.499 20.2092 176.641 19.9747 177.462 19.7609C178.282 19.5471 179.317 19.2091 180.565 18.7436C181.814 18.2815 182.545 18.0125 182.758 17.9401C183.186 17.7987 183.507 17.7263 183.721 17.7263C183.934 17.7263 184.131 17.7642 184.31 17.8332C184.486 17.9056 184.614 18.0297 184.686 18.2091C184.755 18.3884 184.828 18.5677 184.9 18.7436C184.969 18.9229 185.007 19.1539 185.007 19.4402V39.6653C185.007 39.7377 184.99 40.0757 184.952 40.6826C184.914 41.2895 184.914 41.7516 184.952 42.0723C184.986 42.393 185.041 42.8413 185.114 43.4103C185.183 43.9827 185.328 44.4793 185.541 44.9069C185.755 45.3345 186.038 45.7277 186.397 46.0829C187.11 46.7243 187.966 47.045 188.966 47.045C191.535 47.045 195.225 45.4035 200.042 42.1206C204.856 38.8411 209.191 35.5237 213.043 32.1684C213.398 31.8856 213.953 31.4201 214.701 30.7786C215.45 30.1372 216.039 29.6372 216.467 29.282V26.2853C216.467 25.2853 216.164 24.5025 215.557 23.93C214.95 23.361 214.219 23.0748 213.363 23.0748C213.15 23.0748 213.043 22.9679 213.043 22.7541V21.4713C213.043 20.9713 213.257 20.723 213.684 20.723C215.539 20.723 217.322 20.4195 219.036 19.8126C220.747 19.2091 222.336 18.4918 223.798 17.6711C225.261 16.8504 226.205 16.371 226.633 16.2262C227.061 16.0848 227.381 16.0124 227.595 16.0124C227.809 16.0124 228.006 16.0676 228.185 16.1745C228.361 16.2814 228.506 16.4262 228.612 16.6021C228.719 16.7814 228.809 16.9607 228.881 17.1366C228.95 17.3159 228.988 17.547 228.988 17.8332V19.8678C231.84 18.2987 234.409 17.4056 236.692 17.1918C241.399 17.1918 244.934 18.2987 247.286 20.5092C248.213 21.5782 248.889 22.5438 249.32 23.399C251.317 19.4746 254.955 17.4435 260.235 17.2987C263.942 17.2987 266.904 18.4056 269.118 20.6161C271.615 22.9714 272.791 26.075 272.649 29.9269L272.863 45.338C272.863 46.907 273.025 48.2105 273.346 49.2451C273.666 50.2796 274.042 50.9555 274.47 51.2797C274.898 51.6004 275.273 51.8694 275.594 52.0832C275.915 52.297 276.077 52.4763 276.077 52.6177V53.0453C276.077 53.3315 275.97 53.4729 275.756 53.4729H257.135C256.921 53.4729 256.814 53.366 256.814 53.1522V52.6177C256.814 52.4763 256.976 52.297 257.297 52.0832C257.617 51.8694 257.993 51.6211 258.421 51.3348C258.848 51.0486 259.242 50.4451 259.597 49.5141C259.952 48.5864 260.131 47.445 260.131 46.0898V31.858C260.131 28.7199 259.559 26.6129 258.421 25.5439C257.779 24.8301 256.852 24.4749 255.638 24.4749C254.424 24.4749 253.462 24.9025 252.748 25.7577C251.534 26.9716 250.893 28.7923 250.82 31.2166V37.7445C250.82 39.0273 250.838 40.2412 250.876 41.3826C250.91 42.5241 250.931 43.4862 250.931 44.2724V45.3414C250.931 46.9105 251.107 48.214 251.465 49.2485C251.821 50.2831 252.196 50.959 252.59 51.2831C252.979 51.6038 253.355 51.8556 253.714 52.0314C254.069 52.2107 254.248 52.3694 254.248 52.5142V53.0487C254.248 53.2625 254.103 53.3694 253.821 53.3694H235.199C234.985 53.3694 234.878 53.2625 234.878 53.0487V52.5142C234.878 52.4452 235.161 52.2659 235.734 51.9797C236.302 51.6969 236.875 51.0693 237.447 50.1072C238.016 49.1451 238.303 47.7726 238.303 45.9863V31.8615C238.303 28.7234 237.73 26.5819 236.589 25.4405C235.733 24.7266 234.768 24.3714 233.699 24.3714C232.344 24.3714 230.771 25.0508 228.988 26.406C226.919 27.7613 222.743 31.1131 216.467 36.4651C216.181 36.6789 215.77 37.0203 215.236 37.4824C214.701 37.948 214.326 38.2859 214.112 38.4997C213.826 38.7859 213.47 39.0722 213.043 39.3549C209.118 42.4965 207.015 44.169 206.729 44.3828C206.942 47.9519 207.584 49.8761 208.656 50.1624C208.798 50.1624 208.87 50.2693 208.87 50.4831C208.725 51.2693 207.994 51.9659 206.677 52.5694C205.356 53.1763 203.984 53.4798 202.556 53.4798H202.449C200.166 53.4798 198.204 52.659 196.563 51.0176C192.211 53.3005 188.324 54.4419 184.896 54.4419C181.186 54.4419 178.189 53.2487 175.906 50.8555C173.624 48.4657 172.482 45.3794 172.482 41.5999V26.4026C172.482 25.406 172.179 24.6197 171.572 24.0473C170.968 23.4783 170.272 23.1921 169.485 23.1921L169.489 23.1852ZM190.89 20.7264C190.89 20.2298 191.104 19.9781 191.531 19.9781C192.959 19.9781 194.404 19.854 195.866 19.6022C197.328 19.3539 198.47 19.1194 199.29 18.9056C200.111 18.6918 201.146 18.3539 202.394 17.8884C203.642 17.4263 204.373 17.1573 204.587 17.0849C204.801 17.0159 205.087 16.978 205.442 16.978C205.725 16.978 205.96 17.0159 206.139 17.0849C206.315 17.1573 206.46 17.2814 206.567 17.4607C206.673 17.6401 206.763 17.8194 206.835 17.9953C206.904 18.1746 206.942 18.4056 206.942 18.6918V20.7264C206.942 22.0092 206.887 24.1162 206.784 27.0405C206.677 29.9683 206.622 31.8201 206.622 32.6063C206.622 33.3202 206.335 33.8547 205.766 34.2133C203.411 35.9961 201.201 37.5686 199.132 38.9204C198.559 39.2791 197.956 39.4549 197.311 39.4549C196.456 39.4549 195.721 39.1515 195.118 38.5446C194.511 37.9376 194.207 37.2066 194.207 36.3513V25.7577C194.207 24.6887 193.921 23.8507 193.352 23.2438C192.78 22.6403 192.104 22.3334 191.317 22.3334C191.031 22.3334 190.89 22.2265 190.89 22.0127V20.7299V20.7264ZM213.043 53.0418V52.5073C213.043 52.4383 213.325 52.259 213.898 51.9728C214.467 51.69 215.039 51.0624 215.612 50.1003C216.181 49.1382 216.467 47.7657 216.467 45.9794V41.9137C216.467 40.7722 216.857 39.8791 217.643 39.2377C219.926 37.31 221.816 35.7444 223.316 34.5306C223.885 34.034 224.598 33.7822 225.457 33.7822C226.385 33.7822 227.205 34.1029 227.919 34.7444C228.633 35.3858 228.988 36.2065 228.988 37.2066V45.338C228.988 46.907 229.164 48.2105 229.523 49.2451C229.878 50.2796 230.271 50.9555 230.699 51.2797C231.126 51.6004 231.52 51.8521 231.875 52.028C232.23 52.2073 232.409 52.3659 232.409 52.5108V53.0453C232.409 53.2591 232.264 53.366 231.982 53.366H213.36C213.146 53.366 213.039 53.2591 213.039 53.0453L213.043 53.0418ZM296.299 45.338C296.299 46.907 296.474 48.2105 296.833 49.2451C297.188 50.2796 297.581 50.9555 298.009 51.2797C298.437 51.6004 298.83 51.8694 299.185 52.0832C299.54 52.297 299.719 52.4763 299.719 52.6177V53.0453C299.719 53.3315 299.575 53.4729 299.292 53.4729H280.777C280.563 53.4729 280.456 53.366 280.456 53.1522L280.35 52.6177C280.35 52.4763 280.632 52.2797 281.205 52.028C281.774 51.7797 282.346 51.1728 282.919 50.2072C283.488 49.2451 283.774 47.8726 283.774 46.0863V26.3957C283.774 25.3267 283.488 24.5232 282.919 23.9887C282.346 23.4541 281.636 23.1852 280.777 23.1852C280.491 23.1852 280.35 23.0438 280.35 22.7576V21.5816C280.35 21.0816 280.563 20.8333 280.991 20.8333C282.419 20.8333 283.863 20.7092 285.326 20.4574C286.788 20.2092 287.946 19.9574 288.805 19.7091C289.66 19.4608 290.678 19.1022 291.854 18.6401C293.029 18.178 293.761 17.909 294.047 17.8366C294.261 17.7677 294.547 17.7297 294.902 17.7297C295.116 17.7297 295.312 17.7677 295.492 17.8366C295.668 17.909 295.812 18.0332 295.919 18.2125C296.026 18.3918 296.116 18.5711 296.188 18.747C296.257 18.9263 296.295 19.1574 296.295 19.4436V45.3414L296.299 45.338ZM289.343 17.0883C287.488 17.0883 285.881 16.4641 284.529 15.2158C283.174 13.9675 282.494 12.4536 282.494 10.6673C282.494 8.88101 283.17 7.36714 284.529 6.1188C285.884 4.87047 287.488 4.2463 289.343 4.2463C291.198 4.2463 292.909 4.87047 294.267 6.1188C295.623 7.36714 296.302 8.88446 296.302 10.6673C296.302 12.4502 295.623 13.9675 294.267 15.2158C292.912 16.4641 291.271 17.0883 289.343 17.0883ZM123.687 112.693C123.687 112.545 123.98 112.345 124.569 112.086C125.159 111.827 125.745 111.203 126.338 110.207C126.928 109.214 127.221 107.796 127.221 105.955V70.053C127.221 68.4357 127.035 67.0908 126.669 66.0218C126.3 64.9562 125.897 64.2734 125.456 63.9768C125.014 63.6837 124.607 63.4251 124.242 63.2044C123.873 62.9837 123.69 62.8009 123.69 62.6526V62.1009C123.69 61.8802 123.838 61.7698 124.131 61.7698H143.463C143.684 61.7698 143.794 61.8802 143.794 62.1009V62.6526C143.794 62.7285 143.608 62.8733 143.243 63.094C142.874 63.3147 142.487 63.5734 142.084 63.8665C141.677 64.1631 141.291 64.7872 140.925 65.7459C140.556 66.7046 140.374 67.8839 140.374 69.2806V83.3088C140.374 83.8261 140.539 84.2468 140.87 84.5779C141.201 84.9089 141.587 85.0744 142.029 85.0744H151.75C152.191 85.0744 152.578 84.9089 152.909 84.5779C153.24 84.2468 153.405 83.8227 153.405 83.3088V70.053C153.405 68.4357 153.219 67.0908 152.853 66.0218C152.485 64.9562 152.081 64.2734 151.64 63.9768C151.198 63.6837 150.791 63.4251 150.426 63.2044C150.057 62.9837 149.874 62.8009 149.874 62.6526V62.1009C149.874 61.8802 150.022 61.7698 150.315 61.7698H169.758C170.051 61.7698 170.199 61.8802 170.199 62.1009V62.6526C170.199 62.7285 169.903 62.894 169.316 63.1492C168.727 63.4079 168.137 64.032 167.551 65.0286C166.961 66.0218 166.668 67.4425 166.668 69.2806V105.182C166.668 106.803 166.851 108.148 167.22 109.214C167.589 110.283 167.992 110.979 168.434 111.314C168.875 111.645 169.278 111.921 169.647 112.141C170.016 112.362 170.199 112.548 170.199 112.693V113.134C170.199 113.431 170.051 113.576 169.758 113.576H150.315C150.095 113.576 149.984 113.466 149.984 113.245L149.874 112.693C149.874 112.545 150.167 112.345 150.757 112.086C151.347 111.827 151.933 111.203 152.526 110.207C153.116 109.214 153.409 107.796 153.409 105.955V92.8093C153.409 92.2955 153.243 91.8713 152.912 91.5403C152.581 91.2092 152.195 91.0437 151.753 91.0437H142.032C141.591 91.0437 141.205 91.2092 140.874 91.5403C140.543 91.8713 140.377 92.2955 140.377 92.8093V105.182C140.377 106.803 140.56 108.148 140.929 109.214C141.298 110.283 141.701 110.979 142.143 111.314C142.584 111.645 142.987 111.921 143.356 112.141C143.725 112.362 143.908 112.548 143.908 112.693V113.134C143.908 113.431 143.76 113.576 143.467 113.576H124.135C123.914 113.576 123.804 113.466 123.804 113.245L123.693 112.693H123.687ZM190.521 105.293C190.521 106.913 190.704 108.258 191.073 109.324C191.442 110.393 191.845 111.09 192.286 111.424C192.728 111.755 193.131 112.031 193.5 112.252C193.869 112.472 194.052 112.659 194.052 112.803V113.245C194.052 113.541 193.904 113.686 193.611 113.686H174.499C174.279 113.686 174.168 113.576 174.168 113.355L174.058 112.803C174.058 112.655 174.351 112.455 174.941 112.196C175.53 111.938 176.117 111.314 176.71 110.317C177.3 109.324 177.593 107.907 177.593 106.065V85.74C177.593 84.6365 177.296 83.8054 176.71 83.2537C176.12 82.7019 175.386 82.426 174.499 82.426C174.203 82.426 174.058 82.2778 174.058 81.9846V80.7708C174.058 80.257 174.279 79.9983 174.72 79.9983C176.193 79.9983 177.682 79.8707 179.193 79.6121C180.703 79.3535 181.9 79.0983 182.783 78.8397C183.665 78.581 184.717 78.2155 185.931 77.7362C187.145 77.2568 187.9 76.9809 188.197 76.9085C188.417 76.8361 188.71 76.7982 189.079 76.7982C189.3 76.7982 189.504 76.8361 189.686 76.9085C189.869 76.9809 190.017 77.112 190.128 77.2948C190.238 77.481 190.328 77.6637 190.404 77.8465C190.476 78.0327 190.514 78.2707 190.514 78.5638V105.296L190.521 105.293ZM183.338 76.1292C181.42 76.1292 179.765 75.4843 178.365 74.1946C176.965 72.9083 176.265 71.3427 176.265 69.5013C176.265 67.6598 176.965 66.0942 178.365 64.8079C179.762 63.5217 181.42 62.8733 183.338 62.8733C185.255 62.8733 187.021 63.5182 188.421 64.8079C189.817 66.0976 190.521 67.6632 190.521 69.5013C190.521 71.3393 189.821 72.9083 188.421 74.1946C187.021 75.4843 185.328 76.1292 183.338 76.1292ZM198.473 112.917C198.473 112.769 198.656 112.586 199.025 112.365C199.394 112.145 199.797 111.886 200.239 111.593C200.68 111.3 201.083 110.672 201.452 109.714C201.821 108.758 202.004 107.541 202.004 106.069V85.4124C202.004 84.3089 201.708 83.4778 201.121 82.9261C200.532 82.3743 199.797 82.0984 198.911 82.0984C198.614 82.0984 198.47 81.9502 198.47 81.657V80.4432C198.47 79.9294 198.69 79.6707 199.132 79.6707C201.121 79.6707 202.925 79.5052 204.546 79.1742C206.167 78.8431 207.932 78.3086 209.849 77.5741C211.763 76.8396 212.756 76.4706 212.832 76.4706C213.053 76.3982 213.346 76.3602 213.715 76.3602C214.305 76.3602 214.708 76.6189 214.929 77.1327C215.591 74.9981 216.346 73.0083 217.195 71.1669C218.04 69.3288 219.109 67.4494 220.398 65.5321C221.685 63.6182 223.25 62.0905 225.092 60.9491C226.933 59.8077 228.919 59.2387 231.057 59.2387C233.195 59.2387 234.906 59.8111 236.416 60.9491C237.923 62.0905 238.865 63.7286 239.234 65.8631C239.603 67.7046 239.251 69.7116 238.185 71.8841C237.116 74.0567 234.999 75.4016 231.833 75.9154C231.613 75.9912 231.244 76.0257 230.73 76.0257C228.668 76.0257 227.119 75.6947 226.092 75.0326C225.871 74.8119 225.833 74.6291 225.981 74.4808C226.274 73.8911 226.423 73.4877 226.423 73.267C226.423 72.5324 226.016 72.1635 225.209 72.1635C223.367 72.3842 221.233 75.0912 218.802 80.2811C216.37 85.4745 215.157 91.3472 215.157 97.8992V105.3C215.157 107.438 215.47 109.055 216.095 110.158C216.719 111.262 217.326 111.983 217.919 112.314C218.508 112.645 218.802 112.848 218.802 112.921V113.362C218.802 113.659 218.653 113.803 218.36 113.803H198.918C198.697 113.803 198.587 113.693 198.587 113.472L198.476 112.921L198.473 112.917ZM222.443 81.1018C222.443 80.588 222.664 80.3294 223.105 80.3294C229.292 80.3294 233.709 79.3742 236.361 77.4568C236.951 77.1637 237.392 77.0154 237.685 77.0154C237.906 77.0154 238.109 77.0706 238.292 77.181C238.475 77.2913 238.623 77.4396 238.734 77.6224C238.844 77.8086 238.937 77.9913 239.01 78.1741C239.082 78.3603 239.12 78.5983 239.12 78.8914V105.293C239.12 106.913 239.303 108.276 239.672 109.379C240.041 110.483 240.461 111.203 240.941 111.534C241.42 111.865 241.841 112.141 242.21 112.362C242.579 112.583 242.761 112.769 242.761 112.914V113.355C242.761 113.652 242.613 113.797 242.32 113.797H222.878C222.657 113.797 222.547 113.686 222.547 113.466L222.436 112.914C222.436 112.765 222.75 112.565 223.374 112.307C223.998 112.048 224.605 111.407 225.198 110.372C225.788 109.341 226.081 107.907 226.081 106.065V86.0711C226.081 84.9675 225.767 84.1365 225.143 83.5847C224.516 83.033 223.764 82.7571 222.878 82.7571C222.581 82.7571 222.436 82.6088 222.436 82.3157V81.1018H222.443ZM170.454 5.54636H171.523V7.88096H171.548L173.417 5.54636H174.606L172.779 7.7982L174.737 10.6466H173.461L171.999 8.49478L171.523 9.08447V10.6466H170.454V5.54291V5.54636ZM175.186 5.54636H176.255V7.88096H176.279L178.148 5.54636H179.338L177.51 7.7982L179.469 10.6466H178.193L176.734 8.49478L176.258 9.08447V10.6466H175.189V5.54291L175.186 5.54636ZM179.917 5.54636H180.851L183.158 8.86377H183.179V5.54636H184.245V10.6501H183.317L181.003 7.30852H180.982V10.6501H179.917V5.54636ZM185.117 8.1258H187.407V9.02584H185.117V8.1258ZM188.283 5.54636H190.335C191.411 5.54636 192.128 6.2395 192.128 7.29127V7.29817C192.128 8.3465 191.411 9.03964 190.335 9.03964H189.352V10.6501H188.283V5.54636ZM189.348 6.39123V8.20511H190.069C190.68 8.20511 191.042 7.88096 191.042 7.30162V7.29472C191.042 6.71538 190.68 6.39123 190.069 6.39123H189.348ZM192.755 5.54636H194.807C195.883 5.54636 196.601 6.2395 196.601 7.29127V7.29817C196.601 8.3465 195.883 9.03964 194.807 9.03964H193.825V10.6501H192.755V5.54636ZM193.821 6.39123V8.20511H194.542C195.152 8.20511 195.514 7.88096 195.514 7.30162V7.29472C195.514 6.71538 195.156 6.39123 194.542 6.39123H193.821ZM197.228 5.54636H198.463L199.914 9.21206H199.935L201.387 5.54636H202.621V10.6501H201.67V7.19817H201.639L200.263 10.6501H199.59L198.211 7.19817H198.183V10.6501H197.232V5.54636H197.228ZM204.897 8.84652V5.54636H205.966V8.74997C205.966 9.41207 206.353 9.83278 207.039 9.83278C207.725 9.83278 208.108 9.41207 208.108 8.74997V5.54636H209.177V8.84652C209.177 9.97761 208.356 10.7397 207.042 10.7397C205.729 10.7397 204.904 9.98451 204.904 8.84652H204.897ZM209.86 8.08442C209.86 6.44641 210.798 5.46015 212.291 5.46015C213.519 5.46015 214.353 6.17398 214.522 7.13265L214.532 7.18092H213.46L213.446 7.14644C213.277 6.64986 212.87 6.36364 212.294 6.36364C211.453 6.36364 210.946 6.98436 210.946 8.06718C210.946 9.17758 211.484 9.83278 212.332 9.83278C213.029 9.83278 213.505 9.41897 213.536 8.79135V8.71548H212.374V7.91889H214.581V8.50513C214.581 9.89485 213.739 10.7363 212.319 10.7363C210.794 10.7363 209.86 9.74312 209.86 8.08097V8.08442ZM215.288 5.54636H216.522L217.974 9.21206H217.995L219.446 5.54636H220.681V10.6501H219.729V7.19817H219.698L218.322 10.6501H217.65L216.27 7.19817H216.243V10.6501H215.291V5.54636H215.288ZM222.957 5.54636H225.009C226.085 5.54636 226.802 6.2395 226.802 7.29127V7.29817C226.802 8.3465 226.085 9.03964 225.009 9.03964H224.026V10.6501H222.957V5.54636ZM224.023 6.39123V8.20511H224.743C225.354 8.20511 225.716 7.88096 225.716 7.30162V7.29472C225.716 6.71538 225.357 6.39123 224.743 6.39123H224.023ZM227.078 8.76031C227.078 7.54991 227.788 6.7809 228.899 6.7809C230.009 6.7809 230.706 7.53267 230.706 8.681V8.99826H228.095C228.106 9.60173 228.433 9.95692 228.961 9.95692C229.385 9.95692 229.644 9.72243 229.716 9.51207L229.723 9.49138H230.671L230.661 9.52932C230.544 10.088 230.019 10.7294 228.94 10.7294C227.781 10.7294 227.078 9.97761 227.078 8.76376V8.76031ZM228.109 8.3465H229.719C229.657 7.82234 229.347 7.54991 228.919 7.54991C228.492 7.54991 228.178 7.83268 228.109 8.3465ZM231.237 6.86022H232.268V7.52232H232.288C232.402 7.05678 232.709 6.78435 233.151 6.78435C233.264 6.78435 233.371 6.8016 233.447 6.82229V7.73268C233.361 7.69819 233.22 7.6775 233.071 7.6775C232.561 7.6775 232.264 7.98096 232.264 8.53272V10.6535H231.233V6.86367L231.237 6.86022ZM233.858 5.83258C233.858 5.53946 234.099 5.29462 234.409 5.29462C234.72 5.29462 234.961 5.53946 234.961 5.83258C234.961 6.1257 234.72 6.37054 234.409 6.37054C234.099 6.37054 233.858 6.1257 233.858 5.83258ZM233.892 6.86022H234.923V10.6501H233.892V6.86022ZM235.475 8.75342V8.74652C235.475 7.52577 236.216 6.7809 237.347 6.7809C238.478 6.7809 239.23 7.51887 239.23 8.74652V8.75342C239.23 9.99141 238.499 10.7259 237.354 10.7259C236.209 10.7259 235.475 9.98796 235.475 8.75342ZM238.182 8.75342V8.74652C238.182 8.01545 237.854 7.59129 237.351 7.59129C236.847 7.59129 236.527 8.01545 236.527 8.74652V8.75342C236.527 9.49483 236.847 9.91554 237.358 9.91554C237.868 9.91554 238.182 9.49138 238.182 8.75342ZM239.623 8.75342C239.623 7.51542 240.21 6.7809 241.165 6.7809C241.703 6.7809 242.127 7.05678 242.33 7.51542H242.351V5.54636H243.382V10.6501H242.351V10.0018H242.33C242.13 10.4501 241.713 10.7259 241.165 10.7259C240.21 10.7259 239.623 9.98451 239.623 8.75342ZM242.358 8.75342C242.358 8.06718 242.01 7.63612 241.513 7.63612C241.017 7.63612 240.675 8.05683 240.675 8.74997C240.675 9.44311 240.996 9.87071 241.513 9.87071C242.03 9.87071 242.358 9.43966 242.358 8.75342ZM243.937 8.76031C243.937 7.54991 244.648 6.7809 245.758 6.7809C246.869 6.7809 247.565 7.53267 247.565 8.681V8.99826H244.955C244.965 9.60173 245.293 9.95692 245.82 9.95692C246.244 9.95692 246.503 9.72243 246.575 9.51207L246.582 9.49138H247.531L247.52 9.52932C247.403 10.088 246.879 10.7294 245.8 10.7294C244.641 10.7294 243.937 9.97761 243.937 8.76376V8.76031ZM244.968 8.3465H246.579C246.517 7.82234 246.206 7.54991 245.779 7.54991C245.351 7.54991 245.037 7.83268 244.968 8.3465ZM249.617 5.54636H250.686V10.6501H249.617V5.54636ZM251.534 5.54636H252.603V10.6501H251.534V5.54636ZM254.91 8.1258H257.2V9.02584H254.91V8.1258ZM259.445 9.91899L261.249 8.2327C261.907 7.61888 262.045 7.36714 262.045 7.01195V7.00505C262.045 6.58779 261.724 6.29123 261.269 6.29123C260.745 6.29123 260.393 6.63262 260.38 7.09471V7.12575H259.386V7.09816C259.386 6.13605 260.186 5.46015 261.266 5.46015C262.345 5.46015 263.087 6.07397 263.087 6.94643V6.95333C263.087 7.5706 262.793 7.97407 261.914 8.78445L260.845 9.76036V9.80174H263.159V10.6501H259.448V9.91899H259.445ZM263.728 8.10166V8.09476C263.728 6.47055 264.514 5.46015 265.807 5.46015C267.101 5.46015 267.887 6.47055 267.887 8.09476V8.10166C267.887 9.72588 267.101 10.7397 265.807 10.7397C264.514 10.7397 263.728 9.72588 263.728 8.10166ZM266.811 8.10166V8.09476C266.811 6.97402 266.445 6.31536 265.811 6.31536C265.176 6.31536 264.811 6.97402 264.811 8.09476V8.10166C264.811 9.2224 265.176 9.88451 265.811 9.88451C266.445 9.88451 266.811 9.2224 266.811 8.10166ZM268.508 9.91899L270.311 8.2327C270.97 7.61888 271.108 7.36714 271.108 7.01195V7.00505C271.108 6.58779 270.787 6.29123 270.332 6.29123C269.808 6.29123 269.456 6.63262 269.442 7.09471V7.12575H268.449V7.09816C268.449 6.13605 269.249 5.46015 270.328 5.46015C271.408 5.46015 272.149 6.07397 272.149 6.94643V6.95333C272.149 7.5706 271.856 7.97407 270.977 8.78445L269.908 9.76036V9.80174H272.222V10.6501H268.511V9.91899H268.508ZM272.922 9.23965V9.18792H273.904L273.911 9.21206C273.984 9.59829 274.342 9.89485 274.835 9.89485C275.394 9.89485 275.787 9.51207 275.787 8.96722V8.96032C275.784 8.42237 275.391 8.04304 274.839 8.04304C274.577 8.04304 274.353 8.1189 274.18 8.25684C274.077 8.33615 273.997 8.43271 273.935 8.53961H273.004L273.239 5.54291H276.494V6.39123H274.087L273.963 7.82578H273.984C274.197 7.48094 274.618 7.27403 275.132 7.27403C276.101 7.27403 276.801 7.97062 276.801 8.93274V8.93963C276.801 10.0087 275.994 10.7328 274.829 10.7328C273.663 10.7328 272.984 10.0845 272.918 9.23275L272.922 9.23965ZM284.446 113.979C286.239 111.783 286.515 107.869 285.888 105.2C283.536 95.2163 271.152 92.0644 264.273 99.6028C260.883 103.317 259.911 109.638 262.735 113.914C262.804 114.021 262.938 114.066 263.059 114.028C267.632 112.576 270.959 108.648 271.77 103.927C271.842 103.506 271.956 102.213 272.111 102.027C272.132 101.999 272.18 102.013 272.211 102.013L275.098 102.162C275.246 102.168 275.36 102.286 275.367 102.434C275.653 107.796 279.049 112.286 284.129 114.066C284.239 114.103 284.367 114.072 284.443 113.979H284.446ZM248.765 99.4165C257.086 102.865 266.345 96.0991 265.945 87.1366C265.535 77.9637 255.279 72.1048 247.444 76.812C247.331 76.8809 247.279 77.0223 247.32 77.1465C248.844 81.7398 252.631 85.0193 257.417 85.8469C257.983 85.9435 258.721 85.8952 259.162 86.0228C259.345 86.0745 259.38 88.9677 259.335 89.1815C259.252 89.5747 256.928 89.7023 256.4 89.8299C252.972 90.6644 250.238 92.7645 248.441 95.7888C248.234 96.1405 247.248 98.151 247.234 98.3992C247.213 98.8269 248.369 99.2545 248.765 99.42V99.4165ZM262.787 61.3629C262.142 61.8767 261.4 64.6114 261.28 65.2597C259.776 73.1463 266.238 80.3397 274.208 80.0225C283.388 79.6569 289.274 69.3426 284.526 61.5112C284.457 61.3974 284.315 61.3457 284.191 61.3871C278.998 63.1216 275.732 67.6219 275.335 73.0152C275.325 73.167 275.201 73.2808 275.049 73.2808H272.222C272.07 73.2808 271.946 73.1635 271.935 73.0118C271.584 67.5943 268.18 63.1699 263.059 61.3215C262.966 61.2871 262.862 61.3008 262.787 61.3629ZM290.998 75.4843C280.825 77.981 278.008 90.7092 285.908 97.4371C289.547 100.534 295.805 101.348 299.844 98.6096C299.951 98.5372 299.992 98.4027 299.954 98.282C298.575 94.1956 295.43 91.1127 291.254 89.9299C290.24 89.6436 288.06 89.3298 288.053 89.1919C288.053 89.1919 287.991 87.0125 287.94 86.2883C287.936 86.2228 289.429 85.9262 289.853 85.8469C294.747 84.9296 298.261 81.857 299.982 77.2223C300.026 77.1051 299.988 76.9706 299.888 76.8947C297.568 75.1533 293.75 74.8084 290.998 75.4843ZM255.886 62.9078C254.317 61.6802 250.196 61.5595 248.255 61.8181C248.189 61.825 248.124 61.8181 248.055 61.8181C247.896 61.8181 247.772 61.9526 247.775 62.1112C247.851 65.0941 246.989 68.8943 249.779 70.9255C251.407 72.1083 253.234 71.5462 255.121 71.7565C255.91 71.8428 256.941 71.8393 257.766 72.0635C258.004 72.129 258.224 71.9255 258.176 71.6841C257.997 70.8151 257.679 69.1737 257.621 68.2495C257.479 66.0287 257.976 64.5458 255.883 62.9078H255.886ZM297.609 70.8289C298.737 69.9254 299.337 68.5771 299.513 67.1667C299.575 66.6735 299.609 63.0871 299.471 62.0974C299.45 61.9561 299.326 61.8526 299.182 61.8561C296.278 61.9147 292.595 61.1215 290.553 63.732C289.147 65.5287 289.871 66.8287 289.681 68.815C289.584 69.8082 289.36 71.0117 288.991 71.9634C288.94 72.0979 288.998 72.2497 289.122 72.3152C289.195 72.3531 289.281 72.36 289.357 72.329C290.553 71.8876 291.857 71.7772 293.092 71.7117C294.805 71.6221 296.119 72.0152 297.609 70.8255V70.8289ZM289.598 105.71C289.94 108.134 288.943 110.238 290.991 112.207C291.764 112.948 293.009 113.428 294.05 113.572C294.567 113.645 298.247 113.686 299.247 113.545C299.388 113.524 299.492 113.4 299.488 113.259C299.423 109.872 300.399 105.986 296.723 104.11C295.347 103.41 294.364 103.903 292.905 103.803C292.067 103.744 290.44 103.403 289.574 103.206C289.333 103.151 289.122 103.375 289.191 103.613C289.391 104.286 289.515 105.124 289.598 105.707V105.71ZM258.145 103.11C258.069 103.068 257.983 103.065 257.904 103.096C256.831 103.52 255.503 103.744 254.362 103.806C252.917 103.886 251.896 103.427 250.545 104.113C246.886 105.979 247.834 109.834 247.779 113.21C247.779 113.362 247.889 113.49 248.041 113.5C251.479 113.759 256.748 114.238 257.628 109.783C257.776 109.024 257.493 107.555 257.583 106.61C257.683 105.579 257.931 104.455 258.279 103.462C258.328 103.327 258.273 103.182 258.148 103.113L258.145 103.11ZM278.356 82.8778C278.287 82.8399 278.208 82.833 278.136 82.8571C275.232 83.7951 272.101 83.7502 269.18 82.9088C268.983 82.8536 268.794 83.0088 268.814 83.2123C268.88 83.8882 269.29 85.1814 269.352 85.6124C269.673 87.8056 269.404 90.0368 268.825 92.1645C268.773 92.3576 268.925 92.5438 269.125 92.5265C269.825 92.4576 271.221 92.0403 271.663 91.9782C272.628 91.8438 274.766 91.8575 275.732 91.9955C276.201 92.061 278.27 92.6541 278.405 92.6093C278.701 92.5024 278.487 92.3369 278.47 92.2265C278.339 91.4368 278.029 90.6299 277.918 89.8126C277.632 87.7366 277.829 85.2503 278.512 83.2364C278.556 83.1019 278.501 82.9571 278.377 82.8916L278.356 82.8812V82.8778Z" fill="white"/>
<path d="M82.3139 6.04304C46.319 -10.6405 4.32381 13.3503 0.316716 52.5833C-4.40421 98.8373 44.5741 131.832 85.6658 109.59C87.3349 108.686 89.6039 106.862 91.1109 106.2C91.3075 106.114 91.6282 106.172 91.7006 106.114C91.7247 106.093 91.7696 105.776 91.9558 105.576C92.5627 104.927 94.1766 103.972 94.9663 103.31C127.661 75.912 120.961 23.9577 82.3174 6.04304H82.3139ZM38.1945 109.293C35.5323 108.248 33.7391 106.996 31.3148 105.62C28.9319 104.269 27.0284 103.424 24.7973 101.71C21.4592 99.1511 18.428 96.1406 15.7761 92.8853C28.9216 95.5613 40.8532 102.403 49.7606 112.39C45.8086 111.762 41.9153 110.752 38.1979 109.293H38.1945ZM65.5234 112.514C62.6957 112.866 58.4851 113.304 55.7091 113.007C54.8056 112.91 53.3021 111.403 52.5779 110.738C50.2158 108.558 48.1088 106.138 45.6466 104.051C36.4358 96.2544 25.1524 91.4956 13.276 89.4368C12.8035 88.9885 9.51028 83.7917 9.76546 83.5641C23.6868 84.1917 37.4289 88.7437 48.3433 97.4303C54.3022 102.172 58.9369 108.565 65.7062 112.272C65.8855 112.452 65.6924 112.493 65.5234 112.514ZM74.5135 110.465C73.6204 110.748 71.5892 111.438 70.7616 111.51C70.603 111.524 70.5271 111.534 70.365 111.486C69.8857 111.341 68.3374 110.324 67.8028 109.993C60.6473 105.579 56.0471 99.2718 49.5019 94.3095C37.7117 85.3711 23.0006 80.9743 8.2516 80.5019L6.33426 75.3499C6.55151 75.2775 6.76531 75.2327 6.99981 75.2154C20.6936 74.2292 36.8772 78.1639 48.3536 85.6435C56.5919 91.0162 61.9888 98.7511 70.5788 103.779C73.8721 105.707 76.6309 106.627 80.1173 107.983C80.2449 108.031 80.4104 108.031 80.4311 108.221C78.462 108.962 76.524 109.827 74.517 110.465H74.5135ZM84.3175 106.1L80.9483 105.189L79.3241 104.544C81.5242 104.417 83.6761 104.91 85.8244 105.282L84.3175 106.103V106.1ZM89.197 103.065C87.1073 102.679 85.0347 102.127 82.9243 101.858C81.4449 101.672 79.8966 101.517 78.4172 101.734C77.324 101.896 75.5688 102.741 74.6273 102.551C74.1342 102.451 72.0548 101.141 71.4823 100.789C70.2064 100.006 68.9753 99.1408 67.796 98.2235C71.8168 96.4475 76.486 95.9578 80.8621 96.1923C85.7727 96.4613 90.6074 98.6476 95.6422 97.7959C93.649 99.7201 91.5454 101.582 89.197 103.065ZM101.877 90.7162C101.38 91.3956 99.4941 93.9819 98.901 94.244C97.7871 94.7371 94.6352 95.0854 93.3765 95.0992C89.4108 95.1371 85.6313 93.7336 81.7173 93.3784C76.0929 92.868 70.434 93.8336 65.2751 96.0648L60.8025 91.9645C63.8302 89.9782 67.4028 88.6402 70.9789 88.0368C72.0444 87.8574 73.2893 87.6678 74.3583 87.6126C81.5553 87.2264 87.4625 90.292 94.8111 89.0472C98.8872 88.3575 102.636 86.447 105.946 84.0504C106.198 84.3504 102.343 90.0748 101.877 90.7128V90.7162ZM110.771 71.6394C110.502 72.736 110.181 73.9257 109.836 74.9982C109.715 75.3741 109.008 77.7121 108.888 77.7949C108.822 77.8397 108.567 77.6225 108.401 77.7225C108.312 77.7776 108.212 78.0432 108.098 78.1639C102.194 84.3262 95.5353 87.5471 86.7866 86.2229C85.321 86.0022 83.8795 85.5642 82.4174 85.3159C74.117 83.909 65.8338 85.1642 58.7576 89.7955L54.2987 86.2574C54.2504 86.078 54.347 86.0539 54.4194 85.9505C55.3402 84.6228 58.53 82.4261 59.9852 81.5744C66.0821 78.0121 73.0031 76.981 79.969 78.0742C85.0347 78.8708 88.0901 80.0157 93.4628 79.1053C100.949 77.8363 107.353 72.667 111.66 66.6323C111.564 68.2944 111.174 70.0083 110.781 71.6394H110.771ZM111.898 60.7354C107.212 69.7359 98.6837 77.1121 87.9659 76.5741C85.1209 76.4293 82.4139 75.4913 79.6138 75.112C74.3756 74.3982 69.0374 74.8223 64.044 76.5672C59.4611 78.1708 55.247 80.8881 51.9021 84.3918C47.3398 81.264 42.3947 78.6915 37.1806 76.8121C27.0491 73.1602 16.2072 71.8877 5.4618 72.4705C5.28248 72.3463 4.73073 69.6738 4.64452 69.2324C0.668458 48.8693 8.51713 28.0993 24.8662 15.547C45.5466 -0.333137 74.5515 0.749674 94.049 17.9885C106.132 28.6752 112.915 44.5381 112.329 60.7458L111.902 60.7354H111.898Z" fill="white"/>
<path d="M83.7892 66.0044C80.7062 66.0355 79.4889 63.025 77.9061 60.9973C77.2095 60.1041 76.2026 58.8213 74.9335 59.0524L74.2921 60.2524C73.1817 59.6869 73.0093 59.3317 71.923 60.149C69.4022 62.0525 69.4781 65.6527 65.24 64.5802C63.1399 64.0492 60.9846 61.7801 59.1431 64.4181C58.4431 62.8112 57.443 61.7697 55.5912 61.718C54.9877 61.7008 52.7842 62.118 52.5083 61.7284C52.3703 61.1732 52.7635 60.6214 52.8255 60.0662C53.3497 55.2211 50.7082 50.4623 50.2599 45.9448C50.1737 45.0862 50.4116 44.6827 51.3013 44.5585C54.1877 44.1516 56.9913 46.0172 58.7776 48.1035C59.6535 49.1312 60.5432 51.3175 62.0881 51.1796C63.0778 51.0899 65.24 48.9795 66.2814 48.376C69.4022 46.5759 71.8506 47.769 74.4128 49.8243C74.5577 46.0621 73.1162 42.1067 70.7299 39.2169C66.5055 34.0994 59.6811 32.1027 53.2876 33.9097C46.8942 35.7202 41.9491 41.6963 41.5974 48.3518C43.1251 46.9725 44.6424 44.593 47.0011 44.9103C47.3494 44.9586 47.546 45.1275 47.6942 45.4413C48.2839 46.6759 48.9012 50.245 49.2254 51.7623C49.6944 53.9625 50.2461 56.3833 50.4737 58.611C50.553 59.3834 50.991 62.8526 49.9323 62.956C49.5564 62.9905 47.808 61.7008 47.2839 61.4352C44.8286 60.18 41.7077 60.1628 39.2593 61.4766C38.6214 61.818 36.9351 63.2491 36.4316 63.3181C35.2523 63.4767 34.9729 61.4214 33.2142 62.0594C31.4038 62.7146 30.4796 65.1837 28.5519 65.863C27.9071 66.0906 27.1553 66.1251 26.5656 66.3286C24.9966 66.8734 24.3034 69.9322 23.6172 71.2943C23.393 71.4495 22.7413 70.1908 22.5654 69.9563C20.5963 67.3252 19.1514 66.839 16.9306 69.7012C16.6134 68.8977 16.3375 67.9735 15.2754 68.108L20.0205 62.3629C21.224 61.4318 22.7965 61.8284 24.2034 61.3939C27.6381 60.3386 30.6141 54.3935 33.1556 54.0245C34.1246 53.8831 35.0281 54.7763 35.4281 54.7142C36.6868 53.8659 37.7627 52.6314 38.6869 51.452C37.7006 41.417 44.9217 32.1234 54.8601 30.5854C67.8642 28.5681 78.8613 39.4445 77.175 52.4072C79.5269 54.928 82.2856 57.1523 84.6547 59.6386C85.4479 60.4697 87.3824 62.5663 87.4687 63.6698C87.5928 65.2975 85.0513 65.9941 83.7823 66.0079L83.7892 66.0044Z" fill="white"/>
<path d="M56.961 72.0569C56.1127 75.4743 54.7264 78.7606 53.4263 82.0194C53.1953 82.347 51.4469 82.2608 51.0159 82.1194C50.2262 81.8642 48.402 80.478 47.5088 79.9848C40.536 76.1295 32.8494 73.5707 24.9732 72.2776C24.8111 72.0948 25.9939 68.9946 26.2698 68.605C27.0595 67.498 27.4112 68.0877 28.4699 67.9842C30.2735 67.8049 31.9356 64.7737 33.2702 64.6772C35.0392 64.5461 36.0013 69.174 38.7049 67.3014C40.1671 66.2911 41.8947 63.6495 43.681 63.4461C46.5605 63.115 47.8985 65.9841 50.6434 65.6221C52.7711 65.3427 54.9333 62.6219 56.9196 64.8082C58.2645 66.2911 57.4127 70.2361 56.9575 72.0603L56.961 72.0569Z" fill="white"/>
<path d="M100.549 71.7876L100.473 72.0394C97.9762 73.4567 95.2243 74.6326 92.3552 75.0671C86.4308 75.9602 81.8892 73.7912 76.1923 73.5084C70.7334 73.2394 65.04 74.4084 60.1812 76.8775L56.2568 79.1501C57.3534 76.6154 58.4397 74.0705 58.919 71.3221C59.1156 70.1875 59.1328 67.4805 59.8708 66.7529C61.0019 65.6459 63.6331 67.1046 64.9642 67.4322C70.1817 68.7185 69.4609 65.5459 72.4473 63.1355C75.2923 60.8388 77.6269 65.4666 79.1925 67.1874C81.1753 69.3668 83.9927 69.1496 86.5894 68.2012C88.5826 67.4702 88.9274 66.4977 91.3655 66.915C94.6105 67.4667 97.7831 70.1324 100.542 71.7876H100.549Z" fill="white"/>
<path d="M60.5553 15.2295L58.6449 27.0059H57.2413L55.4033 15.2295H60.5553Z" fill="white"/>
<path d="M33.318 51.0008V52.2802L21.5381 54.1182V49.0869L33.318 51.0008Z" fill="white"/>
<path d="M94.4147 49.0869V54.1182L82.6348 52.2802V51.0008L94.4147 49.0869Z" fill="white"/>
<path d="M46.1915 29.9373L45.1363 30.5511L37.6152 21.4231L42.0258 18.9092L46.1846 29.789L46.1915 29.9373Z" fill="white"/>
<path d="M78.2232 21.299L70.9849 30.5098L70.816 30.5511L69.7607 29.9373L73.9265 18.9092L78.2232 21.299Z" fill="white"/>
<path d="M36.2058 39.8761L25.2363 35.5345C25.9881 34.3792 26.5812 33.0137 27.333 31.8757C27.4295 31.7308 27.6468 31.255 27.8537 31.3032L36.8714 38.5484C37.0162 38.7588 36.3714 39.6554 36.2058 39.8761Z" fill="white"/>
<path d="M90.7215 35.5345L79.752 39.8761C79.5865 39.6554 78.9416 38.7588 79.0865 38.5484L88.1042 31.3032C88.3111 31.255 88.5283 31.7308 88.6249 31.8757C89.3766 33.0137 89.9732 34.3792 90.7215 35.5345Z" fill="white"/>
<path d="M21.6625 71.7841L17.3691 71.3565C18.7554 69.5288 20.6141 69.8874 21.6625 71.7841Z" fill="white"/>
<path d="M16.0214 71.2912L13.3213 71.1085C14.38 69.8911 15.4628 69.2739 16.0214 71.2912Z" fill="white"/>
</svg>
