<svg width="529" height="397" viewBox="0 0 529 397" fill="none" xmlns="http://www.w3.org/2000/svg">
<g filter="url(#filter0_d_457_270)">
<mask id="mask0_457_270" style="mask-type:alpha" maskUnits="userSpaceOnUse" x="4" y="0" width="521" height="389">
<rect x="525" width="389" height="521" rx="10" transform="rotate(90 525 0)" fill="#FFDA46"/>
</mask>
<g mask="url(#mask0_457_270)">
<rect x="525" width="389" height="521" rx="10" transform="rotate(90 525 0)" fill="url(#paint0_linear_457_270)"/>
<path d="M249.988 341.591C221.826 355.124 189.466 350.638 166.284 329.806C165.649 329.237 164.692 329.229 164.057 329.798L151.613 341.038C151.465 341.17 151.234 341.311 151.25 341.508C151.374 342.91 156.231 348.691 157.658 350.712C173.706 373.415 176.164 403.202 163.357 427.926C163.018 428.577 162.276 428.94 161.559 428.791C132.415 422.837 110.454 392.91 109.126 363.742C106.421 304.555 170.177 266.67 220.819 297.999C234.361 306.377 249.287 323.58 250.936 339.95C251.002 340.634 250.623 341.294 250.005 341.591H249.988Z" fill="#40A6AA" fill-opacity="0.5"/>
<path d="M34.2208 428.725C33.2559 427.661 29.0418 415.365 28.4563 413.065C23.4176 393.281 26.0235 373.439 36.67 355.94C38.3111 353.235 47.333 343.174 46.0548 341.228C45.3703 340.18 33.3384 328.445 32.3818 328.981C30.0644 330.276 27.2193 333.509 24.5062 335.422C1.47313 351.676 -27.5305 353.754 -52.6417 341.162C-53.3344 340.815 -53.6973 340.024 -53.5076 339.273C-40.6675 287.773 25.4628 269.737 64.8078 305.709C103.246 340.848 92.995 406.624 44.6941 426.622C42.385 427.579 35.8948 430.564 34.2208 428.725Z" fill="#40A6AA" fill-opacity="0.5"/>
<path d="M-53.0043 211.598C-24.38 198.164 7.74091 202.354 31.4172 223.152C32.0769 223.729 33.0748 223.713 33.6933 223.086L45.3046 211.474C45.9231 210.856 45.9478 209.875 45.3788 209.207C24.861 185.456 19.8058 153.583 33.9984 125.14C34.3447 124.447 35.1282 124.084 35.8786 124.266C87.5029 136.916 105.695 203.409 69.5087 242.589C38.097 276.599 -17.9558 273.605 -44.1473 235.06C-46.2997 231.893 -54.4969 217.626 -53.9526 212.876C-53.8867 212.316 -53.5156 211.837 -53.0043 211.598Z" fill="#40A6AA" fill-opacity="0.5"/>
<path d="M162.092 124.356C162.81 124.257 163.519 124.653 163.816 125.313C175.79 151.406 173.976 178.438 157.639 202.288C156.221 204.366 151.306 211.714 151.586 211.953C154.778 214.715 163.981 223.399 163.981 223.399C164.575 223.943 174.809 216.274 180.136 213.297C202.122 201.018 227.687 200.746 250.126 211.862C250.786 212.192 251.157 212.926 251.017 213.652C245.681 241.451 216.653 263.816 189.018 266.035C128.965 270.851 88.2845 207.054 119.803 155.051C128.33 140.982 145.418 126.715 162.084 124.348L162.092 124.356Z" fill="#40A6AA" fill-opacity="0.5"/>
<path d="M112.938 130.962C108.147 136.289 103.248 142.095 100.139 148.816C99.9415 149.245 99.5704 149.574 99.1168 149.715C98.3169 149.954 97.4675 149.574 97.1294 148.808C94.7378 143.406 90.7299 137.534 87.0354 133.065C79.6711 124.142 71.3584 121.783 69.7503 108.63C67.4165 89.5385 85.7902 77.6715 97.4675 65.5159C98.0447 64.9139 98.9766 64.8232 99.6446 65.3262C104.271 68.8146 118.843 83.6669 120.624 85.9512C125.688 92.4496 128.764 100.449 127.84 108.786C126.62 119.771 119.61 123.548 112.938 130.962Z" fill="#40A6AA" fill-opacity="0.5"/>
<path d="M227.861 277.934C226.607 277.25 226.558 275.46 227.762 274.693C232.108 271.931 240.198 266.669 243.876 263.461C250.259 257.895 252.279 251.834 260.806 249.063C283.592 241.657 295.549 261.631 309.709 275.254C310.311 275.831 310.402 276.755 309.899 277.423C306.369 282.107 291.104 297.025 288.68 298.856C283.814 302.543 276.73 305.684 270.512 305.808C254.011 306.13 249.467 293.397 238.128 284.853C235.398 282.792 231.448 279.881 227.869 277.926L227.861 277.934Z" fill="#40A6AA" fill-opacity="0.5"/>
<path d="M98.3812 237.237C99.1646 236.998 99.9893 237.377 100.352 238.111C105.811 249.186 115.221 260.196 124.903 267.544C128.721 270.438 133.306 272.475 137.083 275.188C137.611 275.568 139.169 275.361 138.386 277.019C138.031 277.761 127.104 283.822 124.903 285.472C120.375 288.869 111.535 297.594 108.129 302.114C106.578 304.167 102.554 311.622 99.9563 314.772C99.2223 315.663 97.8204 315.515 97.2514 314.517C90.8932 303.417 82.8362 293.158 72.5195 285.464C70.4991 283.963 63.5224 280.326 60.4629 277.819C59.5475 277.068 59.6794 275.65 60.7185 275.073C76.1563 266.554 89.1944 253.879 97.2596 238.103C97.4658 237.699 97.8204 237.402 98.2492 237.27L98.3729 237.237H98.3812Z" fill="#40A6AA" fill-opacity="0.5"/>
<g filter="url(#filter1_d_457_270)">
<path d="M108.394 184.572V188H97.041V184.572H108.394ZM98.4766 166.672V188H94.082V166.672H98.4766ZM106.914 175.358V178.698H97.041V175.358H106.914ZM108.379 166.672V170.114H97.041V166.672H108.379ZM114.092 172.15L116.714 176.97L119.409 172.15H123.906L119.424 179.899L124.111 188H119.6L116.743 182.902L113.887 188H109.375L114.062 179.899L109.58 172.15H114.092ZM130.176 175.197V194.094H125.957V172.15H129.868L130.176 175.197ZM140.21 179.899V180.207C140.21 181.359 140.073 182.429 139.8 183.415C139.536 184.401 139.146 185.261 138.628 185.993C138.11 186.716 137.466 187.282 136.694 187.692C135.933 188.093 135.054 188.293 134.058 188.293C133.091 188.293 132.251 188.098 131.538 187.707C130.825 187.316 130.225 186.77 129.736 186.066C129.258 185.354 128.872 184.528 128.579 183.591C128.286 182.653 128.062 181.647 127.905 180.573V179.768C128.062 178.615 128.286 177.561 128.579 176.604C128.872 175.637 129.258 174.802 129.736 174.099C130.225 173.386 130.82 172.834 131.523 172.443C132.236 172.053 133.071 171.857 134.028 171.857C135.034 171.857 135.918 172.048 136.68 172.429C137.451 172.81 138.096 173.356 138.613 174.069C139.141 174.782 139.536 175.632 139.8 176.618C140.073 177.604 140.21 178.698 140.21 179.899ZM135.977 180.207V179.899C135.977 179.226 135.918 178.605 135.801 178.039C135.693 177.463 135.518 176.96 135.273 176.53C135.039 176.101 134.727 175.769 134.336 175.534C133.955 175.29 133.491 175.168 132.944 175.168C132.368 175.168 131.875 175.261 131.465 175.446C131.064 175.632 130.737 175.9 130.483 176.252C130.229 176.604 130.039 177.023 129.912 177.512C129.785 178 129.707 178.552 129.678 179.167V181.203C129.727 181.926 129.863 182.575 130.088 183.151C130.312 183.718 130.659 184.167 131.128 184.499C131.597 184.831 132.212 184.997 132.974 184.997C133.53 184.997 133.999 184.875 134.38 184.631C134.761 184.377 135.068 184.03 135.303 183.591C135.547 183.151 135.718 182.644 135.815 182.067C135.923 181.491 135.977 180.871 135.977 180.207ZM142.158 180.236V179.929C142.158 178.767 142.324 177.697 142.656 176.721C142.988 175.734 143.472 174.88 144.106 174.157C144.741 173.435 145.522 172.873 146.45 172.473C147.378 172.062 148.442 171.857 149.644 171.857C150.845 171.857 151.914 172.062 152.852 172.473C153.789 172.873 154.575 173.435 155.21 174.157C155.854 174.88 156.343 175.734 156.675 176.721C157.007 177.697 157.173 178.767 157.173 179.929V180.236C157.173 181.389 157.007 182.458 156.675 183.444C156.343 184.421 155.854 185.275 155.21 186.008C154.575 186.73 153.794 187.292 152.866 187.692C151.938 188.093 150.874 188.293 149.673 188.293C148.472 188.293 147.402 188.093 146.465 187.692C145.537 187.292 144.751 186.73 144.106 186.008C143.472 185.275 142.988 184.421 142.656 183.444C142.324 182.458 142.158 181.389 142.158 180.236ZM146.377 179.929V180.236C146.377 180.9 146.436 181.521 146.553 182.097C146.67 182.673 146.855 183.181 147.109 183.62C147.373 184.05 147.715 184.387 148.135 184.631C148.555 184.875 149.067 184.997 149.673 184.997C150.259 184.997 150.762 184.875 151.182 184.631C151.602 184.387 151.938 184.05 152.192 183.62C152.446 183.181 152.632 182.673 152.749 182.097C152.876 181.521 152.939 180.9 152.939 180.236V179.929C152.939 179.284 152.876 178.679 152.749 178.112C152.632 177.536 152.441 177.028 152.178 176.589C151.924 176.14 151.587 175.788 151.167 175.534C150.747 175.28 150.239 175.153 149.644 175.153C149.048 175.153 148.54 175.28 148.12 175.534C147.71 175.788 147.373 176.14 147.109 176.589C146.855 177.028 146.67 177.536 146.553 178.112C146.436 178.679 146.377 179.284 146.377 179.929ZM171.895 166.672V188H167.5V166.672H171.895ZM184.668 166.672L176.216 177.204L171.338 182.448L170.547 178.288L173.843 173.776L179.277 166.672H184.668ZM179.673 188L173.389 178.142L176.641 175.417L184.873 188H179.673ZM195.332 184.206V172.15H199.551V188H195.581L195.332 184.206ZM195.801 180.954L197.046 180.925C197.046 181.979 196.924 182.961 196.68 183.869C196.436 184.768 196.069 185.549 195.581 186.213C195.093 186.867 194.478 187.38 193.735 187.751C192.993 188.112 192.119 188.293 191.113 188.293C190.342 188.293 189.629 188.186 188.975 187.971C188.33 187.746 187.773 187.399 187.305 186.931C186.846 186.452 186.484 185.842 186.221 185.1C185.967 184.348 185.84 183.444 185.84 182.39V172.15H190.059V182.419C190.059 182.888 190.112 183.283 190.22 183.605C190.337 183.928 190.498 184.191 190.703 184.396C190.908 184.602 191.147 184.748 191.421 184.836C191.704 184.924 192.017 184.968 192.358 184.968C193.228 184.968 193.911 184.792 194.409 184.44C194.917 184.089 195.273 183.61 195.479 183.005C195.693 182.39 195.801 181.706 195.801 180.954ZM207.227 165.5V188H202.993V165.5H207.227ZM215.166 172.15V188H210.933V172.15H215.166ZM210.669 168.02C210.669 167.404 210.884 166.896 211.313 166.496C211.743 166.096 212.319 165.896 213.042 165.896C213.755 165.896 214.326 166.096 214.756 166.496C215.195 166.896 215.415 167.404 215.415 168.02C215.415 168.635 215.195 169.143 214.756 169.543C214.326 169.943 213.755 170.144 213.042 170.144C212.319 170.144 211.743 169.943 211.313 169.543C210.884 169.143 210.669 168.635 210.669 168.02ZM222.783 175.534V188H218.564V172.15H222.52L222.783 175.534ZM222.168 179.519H221.025C221.025 178.347 221.177 177.292 221.479 176.354C221.782 175.407 222.207 174.602 222.754 173.938C223.301 173.264 223.95 172.751 224.702 172.399C225.464 172.038 226.313 171.857 227.251 171.857C227.993 171.857 228.672 171.965 229.287 172.18C229.902 172.395 230.43 172.736 230.869 173.205C231.318 173.674 231.66 174.294 231.895 175.065C232.139 175.837 232.261 176.779 232.261 177.893V188H228.013V177.878C228.013 177.175 227.915 176.628 227.72 176.237C227.524 175.847 227.236 175.573 226.855 175.417C226.484 175.251 226.025 175.168 225.479 175.168C224.912 175.168 224.419 175.28 223.999 175.505C223.589 175.729 223.247 176.042 222.974 176.442C222.71 176.833 222.51 177.292 222.373 177.819C222.236 178.347 222.168 178.913 222.168 179.519ZM242.764 188.293C241.533 188.293 240.43 188.098 239.453 187.707C238.477 187.307 237.646 186.755 236.963 186.052C236.289 185.349 235.771 184.533 235.41 183.605C235.049 182.668 234.868 181.672 234.868 180.617V180.031C234.868 178.83 235.039 177.731 235.381 176.735C235.723 175.739 236.211 174.875 236.846 174.143C237.49 173.41 238.271 172.849 239.189 172.458C240.107 172.058 241.143 171.857 242.295 171.857C243.418 171.857 244.414 172.043 245.283 172.414C246.152 172.785 246.88 173.312 247.466 173.996C248.062 174.68 248.511 175.5 248.813 176.457C249.116 177.404 249.268 178.459 249.268 179.621V181.379H236.67V178.566H245.122V178.244C245.122 177.658 245.015 177.136 244.8 176.677C244.595 176.208 244.282 175.837 243.862 175.563C243.442 175.29 242.905 175.153 242.251 175.153C241.694 175.153 241.216 175.275 240.815 175.52C240.415 175.764 240.088 176.105 239.834 176.545C239.59 176.984 239.404 177.502 239.277 178.098C239.16 178.684 239.102 179.328 239.102 180.031V180.617C239.102 181.252 239.189 181.838 239.365 182.375C239.551 182.912 239.81 183.376 240.142 183.767C240.483 184.157 240.894 184.46 241.372 184.675C241.86 184.89 242.412 184.997 243.027 184.997C243.789 184.997 244.497 184.851 245.151 184.558C245.815 184.255 246.387 183.801 246.865 183.195L248.916 185.422C248.584 185.9 248.13 186.359 247.554 186.799C246.987 187.238 246.304 187.6 245.503 187.883C244.702 188.156 243.789 188.293 242.764 188.293ZM255.889 175.607V188H251.67V172.15H255.64L255.889 175.607ZM260.664 172.048L260.591 175.959C260.386 175.93 260.137 175.905 259.844 175.886C259.561 175.856 259.302 175.842 259.067 175.842C258.472 175.842 257.954 175.92 257.515 176.076C257.085 176.223 256.724 176.442 256.431 176.735C256.147 177.028 255.933 177.385 255.786 177.805C255.649 178.225 255.571 178.703 255.552 179.24L254.702 178.977C254.702 177.951 254.805 177.009 255.01 176.149C255.215 175.28 255.513 174.523 255.903 173.879C256.304 173.234 256.792 172.736 257.368 172.385C257.944 172.033 258.604 171.857 259.346 171.857C259.58 171.857 259.819 171.877 260.063 171.916C260.308 171.945 260.508 171.989 260.664 172.048ZM264.341 184.44L264.326 187.268C264.326 188.352 264.053 189.445 263.506 190.549C262.969 191.652 262.285 192.556 261.455 193.259L259.258 192.131C259.502 191.682 259.741 191.232 259.976 190.783C260.21 190.334 260.405 189.841 260.562 189.304C260.718 188.767 260.796 188.156 260.796 187.473V184.44H264.341ZM283.809 178.64H278.33L278.301 175.622H282.9C283.711 175.622 284.375 175.52 284.893 175.314C285.41 175.1 285.796 174.792 286.05 174.392C286.313 173.981 286.445 173.483 286.445 172.897C286.445 172.233 286.318 171.696 286.064 171.286C285.82 170.876 285.435 170.578 284.907 170.393C284.39 170.207 283.721 170.114 282.9 170.114H279.854V188H275.459V166.672H282.9C284.141 166.672 285.249 166.789 286.226 167.023C287.212 167.258 288.047 167.614 288.73 168.093C289.414 168.571 289.937 169.177 290.298 169.909C290.659 170.632 290.84 171.491 290.84 172.487C290.84 173.366 290.64 174.177 290.239 174.919C289.849 175.661 289.229 176.267 288.379 176.735C287.539 177.204 286.44 177.463 285.083 177.512L283.809 178.64ZM283.618 188H277.129L278.843 184.572H283.618C284.39 184.572 285.02 184.45 285.508 184.206C285.996 183.952 286.357 183.61 286.592 183.181C286.826 182.751 286.943 182.258 286.943 181.701C286.943 181.076 286.836 180.534 286.621 180.075C286.416 179.616 286.084 179.265 285.625 179.021C285.166 178.767 284.561 178.64 283.809 178.64H279.575L279.604 175.622H284.878L285.889 176.809C287.188 176.789 288.232 177.019 289.023 177.497C289.824 177.966 290.405 178.576 290.767 179.328C291.138 180.08 291.323 180.886 291.323 181.745C291.323 183.112 291.025 184.265 290.43 185.202C289.834 186.13 288.96 186.828 287.808 187.297C286.665 187.766 285.269 188 283.618 188ZM303.73 184.206V172.15H307.949V188H303.979L303.73 184.206ZM304.199 180.954L305.444 180.925C305.444 181.979 305.322 182.961 305.078 183.869C304.834 184.768 304.468 185.549 303.979 186.213C303.491 186.867 302.876 187.38 302.134 187.751C301.392 188.112 300.518 188.293 299.512 188.293C298.74 188.293 298.027 188.186 297.373 187.971C296.729 187.746 296.172 187.399 295.703 186.931C295.244 186.452 294.883 185.842 294.619 185.1C294.365 184.348 294.238 183.444 294.238 182.39V172.15H298.457V182.419C298.457 182.888 298.511 183.283 298.618 183.605C298.735 183.928 298.896 184.191 299.102 184.396C299.307 184.602 299.546 184.748 299.819 184.836C300.103 184.924 300.415 184.968 300.757 184.968C301.626 184.968 302.31 184.792 302.808 184.44C303.315 184.089 303.672 183.61 303.877 183.005C304.092 182.39 304.199 181.706 304.199 180.954ZM320.532 184.543V165.5H324.78V188H320.957L320.532 184.543ZM310.513 180.266V179.958C310.513 178.747 310.649 177.648 310.923 176.662C311.196 175.666 311.597 174.812 312.124 174.099C312.651 173.386 313.301 172.834 314.072 172.443C314.844 172.053 315.723 171.857 316.709 171.857C317.637 171.857 318.447 172.053 319.141 172.443C319.844 172.834 320.439 173.391 320.928 174.113C321.426 174.826 321.826 175.671 322.129 176.647C322.432 177.614 322.651 178.674 322.788 179.826V180.5C322.651 181.604 322.432 182.629 322.129 183.576C321.826 184.523 321.426 185.354 320.928 186.066C320.439 186.77 319.844 187.316 319.141 187.707C318.438 188.098 317.617 188.293 316.68 188.293C315.693 188.293 314.814 188.093 314.043 187.692C313.281 187.292 312.637 186.73 312.109 186.008C311.592 185.285 311.196 184.436 310.923 183.459C310.649 182.482 310.513 181.418 310.513 180.266ZM314.731 179.958V180.266C314.731 180.92 314.78 181.53 314.878 182.097C314.985 182.663 315.156 183.166 315.391 183.605C315.635 184.035 315.947 184.372 316.328 184.616C316.719 184.851 317.192 184.968 317.749 184.968C318.472 184.968 319.067 184.807 319.536 184.484C320.005 184.152 320.361 183.698 320.605 183.122C320.859 182.546 321.006 181.882 321.045 181.13V179.211C321.016 178.596 320.928 178.044 320.781 177.556C320.645 177.058 320.439 176.633 320.166 176.281C319.902 175.93 319.57 175.656 319.17 175.461C318.779 175.266 318.315 175.168 317.778 175.168C317.231 175.168 316.763 175.295 316.372 175.549C315.981 175.793 315.664 176.13 315.42 176.56C315.186 176.989 315.01 177.497 314.893 178.083C314.785 178.659 314.731 179.284 314.731 179.958ZM336.631 184.426V177.365C336.631 176.857 336.548 176.423 336.382 176.062C336.216 175.69 335.957 175.402 335.605 175.197C335.264 174.992 334.819 174.89 334.272 174.89C333.804 174.89 333.398 174.973 333.057 175.139C332.715 175.295 332.451 175.524 332.266 175.827C332.08 176.12 331.987 176.467 331.987 176.867H327.769C327.769 176.193 327.925 175.554 328.237 174.948C328.55 174.343 329.004 173.811 329.6 173.352C330.195 172.883 330.903 172.517 331.724 172.253C332.554 171.989 333.481 171.857 334.507 171.857C335.737 171.857 336.831 172.062 337.788 172.473C338.745 172.883 339.497 173.498 340.044 174.318C340.601 175.139 340.879 176.164 340.879 177.395V184.177C340.879 185.046 340.933 185.759 341.04 186.315C341.147 186.862 341.304 187.341 341.509 187.751V188H337.246C337.041 187.57 336.885 187.033 336.777 186.389C336.68 185.734 336.631 185.08 336.631 184.426ZM337.188 178.347L337.217 180.734H334.858C334.302 180.734 333.818 180.798 333.408 180.925C332.998 181.052 332.661 181.232 332.397 181.467C332.134 181.691 331.938 181.955 331.812 182.258C331.694 182.561 331.636 182.893 331.636 183.254C331.636 183.615 331.719 183.942 331.885 184.235C332.051 184.519 332.29 184.743 332.603 184.909C332.915 185.065 333.281 185.144 333.701 185.144C334.336 185.144 334.888 185.017 335.356 184.763C335.825 184.509 336.187 184.196 336.44 183.825C336.704 183.454 336.841 183.103 336.851 182.771L337.964 184.558C337.808 184.958 337.593 185.373 337.319 185.803C337.056 186.232 336.719 186.638 336.309 187.019C335.898 187.39 335.405 187.697 334.829 187.941C334.253 188.176 333.569 188.293 332.778 188.293C331.772 188.293 330.859 188.093 330.039 187.692C329.229 187.282 328.584 186.721 328.105 186.008C327.637 185.285 327.402 184.465 327.402 183.547C327.402 182.717 327.559 181.979 327.871 181.335C328.184 180.69 328.643 180.148 329.248 179.709C329.863 179.26 330.63 178.923 331.548 178.698C332.466 178.464 333.53 178.347 334.741 178.347H337.188ZM348.599 186.213L352.803 172.15H357.329L350.957 190.388C350.82 190.788 350.635 191.218 350.4 191.677C350.176 192.136 349.868 192.57 349.478 192.98C349.097 193.4 348.613 193.742 348.027 194.006C347.451 194.27 346.743 194.401 345.903 194.401C345.503 194.401 345.176 194.377 344.922 194.328C344.668 194.279 344.365 194.211 344.014 194.123V191.032C344.121 191.032 344.233 191.032 344.351 191.032C344.468 191.042 344.58 191.047 344.688 191.047C345.244 191.047 345.698 190.983 346.05 190.856C346.401 190.729 346.685 190.534 346.899 190.271C347.114 190.017 347.285 189.685 347.412 189.274L348.599 186.213ZM346.841 172.15L350.283 183.635L350.884 188.103L348.013 188.41L342.314 172.15H346.841ZM367.334 184.426V177.365C367.334 176.857 367.251 176.423 367.085 176.062C366.919 175.69 366.66 175.402 366.309 175.197C365.967 174.992 365.522 174.89 364.976 174.89C364.507 174.89 364.102 174.973 363.76 175.139C363.418 175.295 363.154 175.524 362.969 175.827C362.783 176.12 362.69 176.467 362.69 176.867H358.472C358.472 176.193 358.628 175.554 358.94 174.948C359.253 174.343 359.707 173.811 360.303 173.352C360.898 172.883 361.606 172.517 362.427 172.253C363.257 171.989 364.185 171.857 365.21 171.857C366.44 171.857 367.534 172.062 368.491 172.473C369.448 172.883 370.2 173.498 370.747 174.318C371.304 175.139 371.582 176.164 371.582 177.395V184.177C371.582 185.046 371.636 185.759 371.743 186.315C371.851 186.862 372.007 187.341 372.212 187.751V188H367.949C367.744 187.57 367.588 187.033 367.48 186.389C367.383 185.734 367.334 185.08 367.334 184.426ZM367.891 178.347L367.92 180.734H365.562C365.005 180.734 364.521 180.798 364.111 180.925C363.701 181.052 363.364 181.232 363.101 181.467C362.837 181.691 362.642 181.955 362.515 182.258C362.397 182.561 362.339 182.893 362.339 183.254C362.339 183.615 362.422 183.942 362.588 184.235C362.754 184.519 362.993 184.743 363.306 184.909C363.618 185.065 363.984 185.144 364.404 185.144C365.039 185.144 365.591 185.017 366.06 184.763C366.528 184.509 366.89 184.196 367.144 183.825C367.407 183.454 367.544 183.103 367.554 182.771L368.667 184.558C368.511 184.958 368.296 185.373 368.022 185.803C367.759 186.232 367.422 186.638 367.012 187.019C366.602 187.39 366.108 187.697 365.532 187.941C364.956 188.176 364.272 188.293 363.481 188.293C362.476 188.293 361.562 188.093 360.742 187.692C359.932 187.282 359.287 186.721 358.809 186.008C358.34 185.285 358.105 184.465 358.105 183.547C358.105 182.717 358.262 181.979 358.574 181.335C358.887 180.69 359.346 180.148 359.951 179.709C360.566 179.26 361.333 178.923 362.251 178.698C363.169 178.464 364.233 178.347 365.444 178.347H367.891ZM378.833 184.44L378.818 187.268C378.818 188.352 378.545 189.445 377.998 190.549C377.461 191.652 376.777 192.556 375.947 193.259L373.75 192.131C373.994 191.682 374.233 191.232 374.468 190.783C374.702 190.334 374.897 189.841 375.054 189.304C375.21 188.767 375.288 188.156 375.288 187.473V184.44H378.833ZM399.048 184.543V165.5H403.296V188H399.473L399.048 184.543ZM389.028 180.266V179.958C389.028 178.747 389.165 177.648 389.438 176.662C389.712 175.666 390.112 174.812 390.64 174.099C391.167 173.386 391.816 172.834 392.588 172.443C393.359 172.053 394.238 171.857 395.225 171.857C396.152 171.857 396.963 172.053 397.656 172.443C398.359 172.834 398.955 173.391 399.443 174.113C399.941 174.826 400.342 175.671 400.645 176.647C400.947 177.614 401.167 178.674 401.304 179.826V180.5C401.167 181.604 400.947 182.629 400.645 183.576C400.342 184.523 399.941 185.354 399.443 186.066C398.955 186.77 398.359 187.316 397.656 187.707C396.953 188.098 396.133 188.293 395.195 188.293C394.209 188.293 393.33 188.093 392.559 187.692C391.797 187.292 391.152 186.73 390.625 186.008C390.107 185.285 389.712 184.436 389.438 183.459C389.165 182.482 389.028 181.418 389.028 180.266ZM393.247 179.958V180.266C393.247 180.92 393.296 181.53 393.394 182.097C393.501 182.663 393.672 183.166 393.906 183.605C394.15 184.035 394.463 184.372 394.844 184.616C395.234 184.851 395.708 184.968 396.265 184.968C396.987 184.968 397.583 184.807 398.052 184.484C398.521 184.152 398.877 183.698 399.121 183.122C399.375 182.546 399.521 181.882 399.561 181.13V179.211C399.531 178.596 399.443 178.044 399.297 177.556C399.16 177.058 398.955 176.633 398.682 176.281C398.418 175.93 398.086 175.656 397.686 175.461C397.295 175.266 396.831 175.168 396.294 175.168C395.747 175.168 395.278 175.295 394.888 175.549C394.497 175.793 394.18 176.13 393.936 176.56C393.701 176.989 393.525 177.497 393.408 178.083C393.301 178.659 393.247 179.284 393.247 179.958ZM415.146 184.426V177.365C415.146 176.857 415.063 176.423 414.897 176.062C414.731 175.69 414.473 175.402 414.121 175.197C413.779 174.992 413.335 174.89 412.788 174.89C412.319 174.89 411.914 174.973 411.572 175.139C411.23 175.295 410.967 175.524 410.781 175.827C410.596 176.12 410.503 176.467 410.503 176.867H406.284C406.284 176.193 406.44 175.554 406.753 174.948C407.065 174.343 407.52 173.811 408.115 173.352C408.711 172.883 409.419 172.517 410.239 172.253C411.069 171.989 411.997 171.857 413.022 171.857C414.253 171.857 415.347 172.062 416.304 172.473C417.261 172.883 418.013 173.498 418.56 174.318C419.116 175.139 419.395 176.164 419.395 177.395V184.177C419.395 185.046 419.448 185.759 419.556 186.315C419.663 186.862 419.819 187.341 420.024 187.751V188H415.762C415.557 187.57 415.4 187.033 415.293 186.389C415.195 185.734 415.146 185.08 415.146 184.426ZM415.703 178.347L415.732 180.734H413.374C412.817 180.734 412.334 180.798 411.924 180.925C411.514 181.052 411.177 181.232 410.913 181.467C410.649 181.691 410.454 181.955 410.327 182.258C410.21 182.561 410.151 182.893 410.151 183.254C410.151 183.615 410.234 183.942 410.4 184.235C410.566 184.519 410.806 184.743 411.118 184.909C411.431 185.065 411.797 185.144 412.217 185.144C412.852 185.144 413.403 185.017 413.872 184.763C414.341 184.509 414.702 184.196 414.956 183.825C415.22 183.454 415.356 183.103 415.366 182.771L416.479 184.558C416.323 184.958 416.108 185.373 415.835 185.803C415.571 186.232 415.234 186.638 414.824 187.019C414.414 187.39 413.921 187.697 413.345 187.941C412.769 188.176 412.085 188.293 411.294 188.293C410.288 188.293 409.375 188.093 408.555 187.692C407.744 187.282 407.1 186.721 406.621 186.008C406.152 185.285 405.918 184.465 405.918 183.547C405.918 182.717 406.074 181.979 406.387 181.335C406.699 180.69 407.158 180.148 407.764 179.709C408.379 179.26 409.146 178.923 410.063 178.698C410.981 178.464 412.046 178.347 413.257 178.347H415.703ZM426.777 175.534V188H422.559V172.15H426.514L426.777 175.534ZM426.162 179.519H425.02C425.02 178.347 425.171 177.292 425.474 176.354C425.776 175.407 426.201 174.602 426.748 173.938C427.295 173.264 427.944 172.751 428.696 172.399C429.458 172.038 430.308 171.857 431.245 171.857C431.987 171.857 432.666 171.965 433.281 172.18C433.896 172.395 434.424 172.736 434.863 173.205C435.312 173.674 435.654 174.294 435.889 175.065C436.133 175.837 436.255 176.779 436.255 177.893V188H432.007V177.878C432.007 177.175 431.909 176.628 431.714 176.237C431.519 175.847 431.23 175.573 430.85 175.417C430.479 175.251 430.02 175.168 429.473 175.168C428.906 175.168 428.413 175.28 427.993 175.505C427.583 175.729 427.241 176.042 426.968 176.442C426.704 176.833 426.504 177.292 426.367 177.819C426.23 178.347 426.162 178.913 426.162 179.519ZM117.944 219.616L122.192 201.672H124.565L125.107 204.66L120.581 223H118.032L117.944 219.616ZM115.762 201.672L119.277 219.616L118.984 223H116.143L111.411 201.672H115.762ZM128.843 219.543L132.314 201.672H136.665L131.948 223H129.106L128.843 219.543ZM125.898 201.672L130.176 219.689L130.059 223H127.51L122.954 204.646L123.54 201.672H125.898ZM143.242 207.15V223H139.009V207.15H143.242ZM138.745 203.02C138.745 202.404 138.96 201.896 139.39 201.496C139.819 201.096 140.396 200.896 141.118 200.896C141.831 200.896 142.402 201.096 142.832 201.496C143.271 201.896 143.491 202.404 143.491 203.02C143.491 203.635 143.271 204.143 142.832 204.543C142.402 204.943 141.831 205.144 141.118 205.144C140.396 205.144 139.819 204.943 139.39 204.543C138.96 204.143 138.745 203.635 138.745 203.02ZM155.298 218.62C155.298 218.317 155.21 218.044 155.034 217.8C154.858 217.556 154.531 217.331 154.053 217.126C153.584 216.911 152.905 216.716 152.017 216.54C151.216 216.364 150.469 216.145 149.775 215.881C149.092 215.607 148.496 215.28 147.988 214.899C147.49 214.519 147.1 214.069 146.816 213.552C146.533 213.024 146.392 212.424 146.392 211.75C146.392 211.086 146.533 210.461 146.816 209.875C147.109 209.289 147.524 208.771 148.062 208.322C148.608 207.863 149.272 207.507 150.054 207.253C150.845 206.989 151.733 206.857 152.72 206.857C154.097 206.857 155.278 207.077 156.265 207.517C157.261 207.956 158.022 208.562 158.55 209.333C159.087 210.095 159.355 210.964 159.355 211.94H155.137C155.137 211.53 155.049 211.164 154.873 210.842C154.707 210.51 154.443 210.251 154.082 210.065C153.73 209.87 153.271 209.772 152.705 209.772C152.236 209.772 151.831 209.855 151.489 210.021C151.147 210.178 150.884 210.393 150.698 210.666C150.522 210.93 150.435 211.223 150.435 211.545C150.435 211.789 150.483 212.009 150.581 212.204C150.688 212.39 150.859 212.561 151.094 212.717C151.328 212.873 151.631 213.02 152.002 213.156C152.383 213.283 152.852 213.4 153.408 213.508C154.551 213.742 155.571 214.05 156.47 214.431C157.368 214.802 158.081 215.31 158.608 215.954C159.136 216.589 159.399 217.424 159.399 218.459C159.399 219.162 159.243 219.807 158.931 220.393C158.618 220.979 158.169 221.491 157.583 221.931C156.997 222.36 156.294 222.697 155.474 222.941C154.663 223.176 153.75 223.293 152.734 223.293C151.26 223.293 150.01 223.029 148.984 222.502C147.969 221.975 147.197 221.306 146.67 220.495C146.152 219.675 145.894 218.835 145.894 217.976H149.893C149.912 218.552 150.059 219.016 150.332 219.367C150.615 219.719 150.972 219.973 151.401 220.129C151.841 220.285 152.314 220.363 152.822 220.363C153.369 220.363 153.823 220.29 154.185 220.144C154.546 219.987 154.819 219.782 155.005 219.528C155.2 219.265 155.298 218.962 155.298 218.62ZM170.693 219.426V212.365C170.693 211.857 170.61 211.423 170.444 211.062C170.278 210.69 170.02 210.402 169.668 210.197C169.326 209.992 168.882 209.89 168.335 209.89C167.866 209.89 167.461 209.973 167.119 210.139C166.777 210.295 166.514 210.524 166.328 210.827C166.143 211.12 166.05 211.467 166.05 211.867H161.831C161.831 211.193 161.987 210.554 162.3 209.948C162.612 209.343 163.066 208.811 163.662 208.352C164.258 207.883 164.966 207.517 165.786 207.253C166.616 206.989 167.544 206.857 168.569 206.857C169.8 206.857 170.894 207.062 171.851 207.473C172.808 207.883 173.56 208.498 174.106 209.318C174.663 210.139 174.941 211.164 174.941 212.395V219.177C174.941 220.046 174.995 220.759 175.103 221.315C175.21 221.862 175.366 222.341 175.571 222.751V223H171.309C171.104 222.57 170.947 222.033 170.84 221.389C170.742 220.734 170.693 220.08 170.693 219.426ZM171.25 213.347L171.279 215.734H168.921C168.364 215.734 167.881 215.798 167.471 215.925C167.061 216.052 166.724 216.232 166.46 216.467C166.196 216.691 166.001 216.955 165.874 217.258C165.757 217.561 165.698 217.893 165.698 218.254C165.698 218.615 165.781 218.942 165.947 219.235C166.113 219.519 166.353 219.743 166.665 219.909C166.978 220.065 167.344 220.144 167.764 220.144C168.398 220.144 168.95 220.017 169.419 219.763C169.888 219.509 170.249 219.196 170.503 218.825C170.767 218.454 170.903 218.103 170.913 217.771L172.026 219.558C171.87 219.958 171.655 220.373 171.382 220.803C171.118 221.232 170.781 221.638 170.371 222.019C169.961 222.39 169.468 222.697 168.892 222.941C168.315 223.176 167.632 223.293 166.841 223.293C165.835 223.293 164.922 223.093 164.102 222.692C163.291 222.282 162.646 221.721 162.168 221.008C161.699 220.285 161.465 219.465 161.465 218.547C161.465 217.717 161.621 216.979 161.934 216.335C162.246 215.69 162.705 215.148 163.311 214.709C163.926 214.26 164.692 213.923 165.61 213.698C166.528 213.464 167.593 213.347 168.804 213.347H171.25ZM185.957 207.15V210.139H176.729V207.15H185.957ZM179.014 203.239H183.232V218.225C183.232 218.684 183.291 219.035 183.408 219.279C183.535 219.523 183.721 219.694 183.965 219.792C184.209 219.88 184.517 219.924 184.888 219.924C185.151 219.924 185.386 219.914 185.591 219.895C185.806 219.865 185.986 219.836 186.133 219.807L186.147 222.912C185.786 223.029 185.396 223.122 184.976 223.19C184.556 223.259 184.092 223.293 183.584 223.293C182.656 223.293 181.846 223.142 181.152 222.839C180.469 222.526 179.941 222.028 179.57 221.345C179.199 220.661 179.014 219.763 179.014 218.649V203.239ZM196.914 219.426V212.365C196.914 211.857 196.831 211.423 196.665 211.062C196.499 210.69 196.24 210.402 195.889 210.197C195.547 209.992 195.103 209.89 194.556 209.89C194.087 209.89 193.682 209.973 193.34 210.139C192.998 210.295 192.734 210.524 192.549 210.827C192.363 211.12 192.271 211.467 192.271 211.867H188.052C188.052 211.193 188.208 210.554 188.521 209.948C188.833 209.343 189.287 208.811 189.883 208.352C190.479 207.883 191.187 207.517 192.007 207.253C192.837 206.989 193.765 206.857 194.79 206.857C196.021 206.857 197.114 207.062 198.071 207.473C199.028 207.883 199.78 208.498 200.327 209.318C200.884 210.139 201.162 211.164 201.162 212.395V219.177C201.162 220.046 201.216 220.759 201.323 221.315C201.431 221.862 201.587 222.341 201.792 222.751V223H197.529C197.324 222.57 197.168 222.033 197.061 221.389C196.963 220.734 196.914 220.08 196.914 219.426ZM197.471 213.347L197.5 215.734H195.142C194.585 215.734 194.102 215.798 193.691 215.925C193.281 216.052 192.944 216.232 192.681 216.467C192.417 216.691 192.222 216.955 192.095 217.258C191.978 217.561 191.919 217.893 191.919 218.254C191.919 218.615 192.002 218.942 192.168 219.235C192.334 219.519 192.573 219.743 192.886 219.909C193.198 220.065 193.564 220.144 193.984 220.144C194.619 220.144 195.171 220.017 195.64 219.763C196.108 219.509 196.47 219.196 196.724 218.825C196.987 218.454 197.124 218.103 197.134 217.771L198.247 219.558C198.091 219.958 197.876 220.373 197.603 220.803C197.339 221.232 197.002 221.638 196.592 222.019C196.182 222.39 195.688 222.697 195.112 222.941C194.536 223.176 193.853 223.293 193.062 223.293C192.056 223.293 191.143 223.093 190.322 222.692C189.512 222.282 188.867 221.721 188.389 221.008C187.92 220.285 187.686 219.465 187.686 218.547C187.686 217.717 187.842 216.979 188.154 216.335C188.467 215.69 188.926 215.148 189.531 214.709C190.146 214.26 190.913 213.923 191.831 213.698C192.749 213.464 193.813 213.347 195.024 213.347H197.471ZM220.454 215.397H215.02V211.97H220.454C221.294 211.97 221.978 211.833 222.505 211.56C223.032 211.276 223.418 210.886 223.662 210.388C223.906 209.89 224.028 209.328 224.028 208.703C224.028 208.068 223.906 207.478 223.662 206.931C223.418 206.384 223.032 205.944 222.505 205.612C221.978 205.28 221.294 205.114 220.454 205.114H216.543V223H212.148V201.672H220.454C222.124 201.672 223.555 201.975 224.746 202.58C225.947 203.176 226.865 204.001 227.5 205.056C228.135 206.11 228.452 207.316 228.452 208.674C228.452 210.051 228.135 211.242 227.5 212.248C226.865 213.254 225.947 214.03 224.746 214.577C223.555 215.124 222.124 215.397 220.454 215.397ZM240.596 219.206V207.15H244.814V223H240.845L240.596 219.206ZM241.064 215.954L242.31 215.925C242.31 216.979 242.188 217.961 241.943 218.869C241.699 219.768 241.333 220.549 240.845 221.213C240.356 221.867 239.741 222.38 238.999 222.751C238.257 223.112 237.383 223.293 236.377 223.293C235.605 223.293 234.893 223.186 234.238 222.971C233.594 222.746 233.037 222.399 232.568 221.931C232.109 221.452 231.748 220.842 231.484 220.1C231.23 219.348 231.104 218.444 231.104 217.39V207.15H235.322V217.419C235.322 217.888 235.376 218.283 235.483 218.605C235.601 218.928 235.762 219.191 235.967 219.396C236.172 219.602 236.411 219.748 236.685 219.836C236.968 219.924 237.28 219.968 237.622 219.968C238.491 219.968 239.175 219.792 239.673 219.44C240.181 219.089 240.537 218.61 240.742 218.005C240.957 217.39 241.064 216.706 241.064 215.954ZM252.49 200.5V223H248.257V200.5H252.49ZM264.531 219.426V212.365C264.531 211.857 264.448 211.423 264.282 211.062C264.116 210.69 263.857 210.402 263.506 210.197C263.164 209.992 262.72 209.89 262.173 209.89C261.704 209.89 261.299 209.973 260.957 210.139C260.615 210.295 260.352 210.524 260.166 210.827C259.98 211.12 259.888 211.467 259.888 211.867H255.669C255.669 211.193 255.825 210.554 256.138 209.948C256.45 209.343 256.904 208.811 257.5 208.352C258.096 207.883 258.804 207.517 259.624 207.253C260.454 206.989 261.382 206.857 262.407 206.857C263.638 206.857 264.731 207.062 265.688 207.473C266.646 207.883 267.397 208.498 267.944 209.318C268.501 210.139 268.779 211.164 268.779 212.395V219.177C268.779 220.046 268.833 220.759 268.94 221.315C269.048 221.862 269.204 222.341 269.409 222.751V223H265.146C264.941 222.57 264.785 222.033 264.678 221.389C264.58 220.734 264.531 220.08 264.531 219.426ZM265.088 213.347L265.117 215.734H262.759C262.202 215.734 261.719 215.798 261.309 215.925C260.898 216.052 260.562 216.232 260.298 216.467C260.034 216.691 259.839 216.955 259.712 217.258C259.595 217.561 259.536 217.893 259.536 218.254C259.536 218.615 259.619 218.942 259.785 219.235C259.951 219.519 260.19 219.743 260.503 219.909C260.815 220.065 261.182 220.144 261.602 220.144C262.236 220.144 262.788 220.017 263.257 219.763C263.726 219.509 264.087 219.196 264.341 218.825C264.604 218.454 264.741 218.103 264.751 217.771L265.864 219.558C265.708 219.958 265.493 220.373 265.22 220.803C264.956 221.232 264.619 221.638 264.209 222.019C263.799 222.39 263.306 222.697 262.729 222.941C262.153 223.176 261.47 223.293 260.679 223.293C259.673 223.293 258.76 223.093 257.939 222.692C257.129 222.282 256.484 221.721 256.006 221.008C255.537 220.285 255.303 219.465 255.303 218.547C255.303 217.717 255.459 216.979 255.771 216.335C256.084 215.69 256.543 215.148 257.148 214.709C257.764 214.26 258.53 213.923 259.448 213.698C260.366 213.464 261.431 213.347 262.642 213.347H265.088ZM281.406 219.206V207.15H285.625V223H281.655L281.406 219.206ZM281.875 215.954L283.12 215.925C283.12 216.979 282.998 217.961 282.754 218.869C282.51 219.768 282.144 220.549 281.655 221.213C281.167 221.867 280.552 222.38 279.81 222.751C279.067 223.112 278.193 223.293 277.188 223.293C276.416 223.293 275.703 223.186 275.049 222.971C274.404 222.746 273.848 222.399 273.379 221.931C272.92 221.452 272.559 220.842 272.295 220.1C272.041 219.348 271.914 218.444 271.914 217.39V207.15H276.133V217.419C276.133 217.888 276.187 218.283 276.294 218.605C276.411 218.928 276.572 219.191 276.777 219.396C276.982 219.602 277.222 219.748 277.495 219.836C277.778 219.924 278.091 219.968 278.433 219.968C279.302 219.968 279.985 219.792 280.483 219.44C280.991 219.089 281.348 218.61 281.553 218.005C281.768 217.39 281.875 216.706 281.875 215.954ZM310.806 210.358V213.786H299.673V210.358H310.806ZM300.977 201.672V223H296.582V201.672H300.977ZM313.94 201.672V223H309.561V201.672H313.94ZM321.953 207.15V223H317.72V207.15H321.953ZM317.456 203.02C317.456 202.404 317.671 201.896 318.101 201.496C318.53 201.096 319.106 200.896 319.829 200.896C320.542 200.896 321.113 201.096 321.543 201.496C321.982 201.896 322.202 202.404 322.202 203.02C322.202 203.635 321.982 204.143 321.543 204.543C321.113 204.943 320.542 205.144 319.829 205.144C319.106 205.144 318.53 204.943 318.101 204.543C317.671 204.143 317.456 203.635 317.456 203.02ZM329.658 210.607V223H325.439V207.15H329.409L329.658 210.607ZM334.434 207.048L334.36 210.959C334.155 210.93 333.906 210.905 333.613 210.886C333.33 210.856 333.071 210.842 332.837 210.842C332.241 210.842 331.724 210.92 331.284 211.076C330.854 211.223 330.493 211.442 330.2 211.735C329.917 212.028 329.702 212.385 329.556 212.805C329.419 213.225 329.341 213.703 329.321 214.24L328.472 213.977C328.472 212.951 328.574 212.009 328.779 211.149C328.984 210.28 329.282 209.523 329.673 208.879C330.073 208.234 330.562 207.736 331.138 207.385C331.714 207.033 332.373 206.857 333.115 206.857C333.35 206.857 333.589 206.877 333.833 206.916C334.077 206.945 334.277 206.989 334.434 207.048ZM340.879 207.15V223H336.646V207.15H340.879ZM336.382 203.02C336.382 202.404 336.597 201.896 337.026 201.496C337.456 201.096 338.032 200.896 338.755 200.896C339.468 200.896 340.039 201.096 340.469 201.496C340.908 201.896 341.128 202.404 341.128 203.02C341.128 203.635 340.908 204.143 340.469 204.543C340.039 204.943 339.468 205.144 338.755 205.144C338.032 205.144 337.456 204.943 337.026 204.543C336.597 204.143 336.382 203.635 336.382 203.02ZM366.25 219.704V223H351.66V220.188L358.56 212.79C359.253 212.019 359.8 211.34 360.2 210.754C360.601 210.158 360.889 209.626 361.064 209.157C361.25 208.679 361.343 208.225 361.343 207.795C361.343 207.15 361.235 206.599 361.021 206.14C360.806 205.671 360.488 205.31 360.068 205.056C359.658 204.802 359.15 204.675 358.545 204.675C357.9 204.675 357.344 204.831 356.875 205.144C356.416 205.456 356.064 205.891 355.82 206.447C355.586 207.004 355.469 207.634 355.469 208.337H351.235C351.235 207.067 351.538 205.905 352.144 204.851C352.749 203.786 353.604 202.941 354.707 202.316C355.811 201.682 357.119 201.364 358.633 201.364C360.127 201.364 361.387 201.608 362.412 202.097C363.447 202.575 364.229 203.269 364.756 204.177C365.293 205.075 365.562 206.149 365.562 207.399C365.562 208.103 365.449 208.791 365.225 209.465C365 210.129 364.678 210.793 364.258 211.457C363.848 212.111 363.35 212.775 362.764 213.449C362.178 214.123 361.528 214.821 360.815 215.544L357.109 219.704H366.25ZM383.242 210.461V214.152C383.242 215.754 383.071 217.136 382.729 218.298C382.388 219.45 381.895 220.397 381.25 221.14C380.615 221.872 379.858 222.414 378.979 222.766C378.101 223.117 377.124 223.293 376.05 223.293C375.19 223.293 374.39 223.186 373.647 222.971C372.905 222.746 372.236 222.399 371.641 221.931C371.055 221.462 370.547 220.871 370.117 220.158C369.697 219.436 369.375 218.576 369.15 217.58C368.926 216.584 368.813 215.441 368.813 214.152V210.461C368.813 208.859 368.984 207.487 369.326 206.345C369.678 205.192 370.171 204.25 370.806 203.518C371.45 202.785 372.212 202.248 373.091 201.906C373.97 201.555 374.946 201.379 376.021 201.379C376.88 201.379 377.676 201.491 378.408 201.716C379.15 201.931 379.819 202.268 380.415 202.727C381.011 203.186 381.519 203.776 381.938 204.499C382.358 205.212 382.681 206.066 382.905 207.062C383.13 208.049 383.242 209.182 383.242 210.461ZM379.009 214.709V209.89C379.009 209.118 378.965 208.444 378.877 207.868C378.799 207.292 378.677 206.804 378.511 206.403C378.345 205.993 378.14 205.661 377.896 205.407C377.651 205.153 377.373 204.968 377.061 204.851C376.748 204.733 376.401 204.675 376.021 204.675C375.542 204.675 375.117 204.768 374.746 204.953C374.385 205.139 374.077 205.437 373.823 205.847C373.569 206.247 373.374 206.784 373.237 207.458C373.11 208.122 373.047 208.933 373.047 209.89V214.709C373.047 215.48 373.086 216.159 373.164 216.745C373.252 217.331 373.379 217.834 373.545 218.254C373.721 218.664 373.926 219.001 374.16 219.265C374.404 219.519 374.683 219.704 374.995 219.821C375.317 219.938 375.669 219.997 376.05 219.997C376.519 219.997 376.934 219.904 377.295 219.719C377.666 219.523 377.979 219.221 378.232 218.811C378.496 218.391 378.691 217.844 378.818 217.17C378.945 216.496 379.009 215.676 379.009 214.709ZM400.703 219.704V223H386.113V220.188L393.013 212.79C393.706 212.019 394.253 211.34 394.653 210.754C395.054 210.158 395.342 209.626 395.518 209.157C395.703 208.679 395.796 208.225 395.796 207.795C395.796 207.15 395.688 206.599 395.474 206.14C395.259 205.671 394.941 205.31 394.521 205.056C394.111 204.802 393.604 204.675 392.998 204.675C392.354 204.675 391.797 204.831 391.328 205.144C390.869 205.456 390.518 205.891 390.273 206.447C390.039 207.004 389.922 207.634 389.922 208.337H385.688C385.688 207.067 385.991 205.905 386.597 204.851C387.202 203.786 388.057 202.941 389.16 202.316C390.264 201.682 391.572 201.364 393.086 201.364C394.58 201.364 395.84 201.608 396.865 202.097C397.9 202.575 398.682 203.269 399.209 204.177C399.746 205.075 400.015 206.149 400.015 207.399C400.015 208.103 399.902 208.791 399.678 209.465C399.453 210.129 399.131 210.793 398.711 211.457C398.301 212.111 397.803 212.775 397.217 213.449C396.631 214.123 395.981 214.821 395.269 215.544L391.562 219.704H400.703ZM407.31 213.288L403.94 212.482L405.156 201.672H417.139V205.085H408.628L408.101 209.816C408.384 209.65 408.813 209.475 409.39 209.289C409.966 209.094 410.61 208.996 411.323 208.996C412.358 208.996 413.276 209.157 414.077 209.479C414.878 209.802 415.557 210.271 416.113 210.886C416.68 211.501 417.109 212.253 417.402 213.142C417.695 214.03 417.842 215.036 417.842 216.159C417.842 217.106 417.695 218.01 417.402 218.869C417.109 219.719 416.665 220.48 416.069 221.154C415.474 221.818 414.727 222.341 413.828 222.722C412.93 223.103 411.865 223.293 410.635 223.293C409.717 223.293 408.828 223.156 407.969 222.883C407.119 222.609 406.353 222.204 405.669 221.667C404.995 221.13 404.453 220.48 404.043 219.719C403.643 218.947 403.433 218.068 403.413 217.082H407.603C407.661 217.688 407.817 218.21 408.071 218.649C408.335 219.079 408.682 219.411 409.111 219.646C409.541 219.88 410.044 219.997 410.62 219.997C411.157 219.997 411.616 219.895 411.997 219.689C412.378 219.484 412.686 219.201 412.92 218.84C413.154 218.469 413.325 218.039 413.433 217.551C413.55 217.053 413.608 216.516 413.608 215.939C413.608 215.363 413.54 214.841 413.403 214.372C413.267 213.903 413.057 213.498 412.773 213.156C412.49 212.814 412.129 212.551 411.689 212.365C411.26 212.18 410.757 212.087 410.181 212.087C409.399 212.087 408.794 212.209 408.364 212.453C407.944 212.697 407.593 212.976 407.31 213.288Z" fill="white"/>
</g>
</g>
</g>
<defs>
<filter id="filter0_d_457_270" x="0" y="0" width="529" height="397" filterUnits="userSpaceOnUse" color-interpolation-filters="sRGB">
<feFlood flood-opacity="0" result="BackgroundImageFix"/>
<feColorMatrix in="SourceAlpha" type="matrix" values="0 0 0 0 0 0 0 0 0 0 0 0 0 0 0 0 0 0 127 0" result="hardAlpha"/>
<feOffset dy="4"/>
<feGaussianBlur stdDeviation="2"/>
<feComposite in2="hardAlpha" operator="out"/>
<feColorMatrix type="matrix" values="0 0 0 0 0 0 0 0 0 0 0 0 0 0 0 0 0 0 0.25 0"/>
<feBlend mode="normal" in2="BackgroundImageFix" result="effect1_dropShadow_457_270"/>
<feBlend mode="normal" in="SourceGraphic" in2="effect1_dropShadow_457_270" result="shape"/>
</filter>
<filter id="filter1_d_457_270" x="90.082" y="165.5" width="350.173" height="65.793" filterUnits="userSpaceOnUse" color-interpolation-filters="sRGB">
<feFlood flood-opacity="0" result="BackgroundImageFix"/>
<feColorMatrix in="SourceAlpha" type="matrix" values="0 0 0 0 0 0 0 0 0 0 0 0 0 0 0 0 0 0 127 0" result="hardAlpha"/>
<feOffset dy="4"/>
<feGaussianBlur stdDeviation="2"/>
<feComposite in2="hardAlpha" operator="out"/>
<feColorMatrix type="matrix" values="0 0 0 0 0 0 0 0 0 0 0 0 0 0 0 0 0 0 0.25 0"/>
<feBlend mode="normal" in2="BackgroundImageFix" result="effect1_dropShadow_457_270"/>
<feBlend mode="normal" in="SourceGraphic" in2="effect1_dropShadow_457_270" result="shape"/>
</filter>
<linearGradient id="paint0_linear_457_270" x1="525" y1="260.5" x2="914" y2="260.5" gradientUnits="userSpaceOnUse">
<stop stop-color="#0E96A0"/>
<stop offset="1" stop-color="#05373A"/>
</linearGradient>
</defs>
</svg>
