<svg width="521" height="389" viewBox="0 0 521 389" fill="none" xmlns="http://www.w3.org/2000/svg">
<mask id="mask0_457_299" style="mask-type:alpha" maskUnits="userSpaceOnUse" x="0" y="0" width="521" height="389">
<rect x="521" width="389" height="521" rx="10" transform="rotate(90 521 0)" fill="#FFDA46"/>
</mask>
<g mask="url(#mask0_457_299)">
<rect x="521" width="389" height="521" rx="10" transform="rotate(90 521 0)" fill="url(#paint0_linear_457_299)"/>
<path d="M245.988 341.591C217.826 355.124 185.466 350.638 162.284 329.806C161.649 329.237 160.692 329.229 160.057 329.798L147.613 341.038C147.465 341.17 147.234 341.311 147.25 341.508C147.374 342.91 152.231 348.691 153.658 350.712C169.706 373.415 172.164 403.202 159.357 427.926C159.018 428.577 158.276 428.94 157.559 428.791C128.415 422.837 106.454 392.91 105.126 363.742C102.421 304.555 166.177 266.67 216.819 297.999C230.361 306.377 245.287 323.58 246.936 339.95C247.002 340.634 246.623 341.294 246.005 341.591H245.988Z" fill="#40A6AA" fill-opacity="0.5"/>
<path d="M30.2208 428.725C29.2559 427.661 25.0418 415.365 24.4563 413.065C19.4176 393.281 22.0235 373.439 32.67 355.94C34.3111 353.235 43.333 343.174 42.0548 341.228C41.3703 340.18 29.3384 328.445 28.3818 328.981C26.0644 330.276 23.2193 333.509 20.5062 335.422C-2.52687 351.676 -31.5305 353.754 -56.6417 341.162C-57.3344 340.815 -57.6973 340.024 -57.5076 339.273C-44.6675 287.773 21.4628 269.737 60.8078 305.709C99.2456 340.848 88.995 406.624 40.6941 426.622C38.385 427.579 31.8948 430.564 30.2208 428.725Z" fill="#40A6AA" fill-opacity="0.5"/>
<path d="M-57.0043 211.598C-28.38 198.164 3.74091 202.354 27.4172 223.152C28.0769 223.729 29.0748 223.713 29.6933 223.086L41.3046 211.474C41.9231 210.856 41.9478 209.875 41.3788 209.207C20.861 185.456 15.8058 153.583 29.9984 125.14C30.3447 124.447 31.1282 124.084 31.8786 124.266C83.5029 136.916 101.695 203.409 65.5087 242.589C34.097 276.599 -21.9558 273.605 -48.1473 235.06C-50.2997 231.893 -58.4969 217.626 -57.9526 212.876C-57.8867 212.316 -57.5156 211.837 -57.0043 211.598Z" fill="#40A6AA" fill-opacity="0.5"/>
<path d="M158.092 124.356C158.81 124.257 159.519 124.653 159.816 125.313C171.79 151.406 169.976 178.438 153.639 202.288C152.221 204.366 147.306 211.714 147.586 211.953C150.778 214.715 159.981 223.399 159.981 223.399C160.575 223.943 170.809 216.274 176.136 213.297C198.122 201.018 223.687 200.746 246.126 211.862C246.786 212.192 247.157 212.926 247.017 213.652C241.681 241.451 212.653 263.816 185.018 266.035C124.965 270.851 84.2845 207.054 115.803 155.051C124.33 140.982 141.418 126.715 158.084 124.348L158.092 124.356Z" fill="#40A6AA" fill-opacity="0.5"/>
<path d="M108.938 130.962C104.147 136.289 99.2484 142.095 96.1394 148.816C95.9415 149.245 95.5704 149.574 95.1168 149.715C94.3169 149.954 93.4675 149.574 93.1294 148.808C90.7378 143.406 86.7299 137.534 83.0354 133.065C75.6711 124.142 67.3584 121.783 65.7503 108.63C63.4165 89.5385 81.7902 77.6715 93.4675 65.5159C94.0447 64.9139 94.9766 64.8232 95.6446 65.3262C100.271 68.8146 114.843 83.6669 116.624 85.9512C121.688 92.4496 124.764 100.449 123.84 108.786C122.62 119.771 115.61 123.548 108.938 130.962Z" fill="#40A6AA" fill-opacity="0.5"/>
<path d="M223.861 277.934C222.607 277.25 222.558 275.46 223.762 274.693C228.108 271.931 236.198 266.669 239.876 263.461C246.259 257.895 248.279 251.834 256.806 249.063C279.592 241.657 291.549 261.631 305.709 275.254C306.311 275.831 306.402 276.755 305.899 277.423C302.369 282.107 287.104 297.025 284.68 298.856C279.814 302.543 272.73 305.684 266.512 305.808C250.011 306.13 245.467 293.397 234.128 284.853C231.398 282.792 227.448 279.881 223.869 277.926L223.861 277.934Z" fill="#40A6AA" fill-opacity="0.5"/>
<path d="M94.3812 237.237C95.1646 236.998 95.9893 237.377 96.3521 238.111C101.811 249.186 111.221 260.196 120.903 267.544C124.721 270.438 129.306 272.475 133.083 275.188C133.611 275.568 135.169 275.361 134.386 277.019C134.031 277.761 123.104 283.822 120.903 285.472C116.375 288.869 107.535 297.594 104.129 302.114C102.578 304.167 98.554 311.622 95.9563 314.772C95.2223 315.663 93.8204 315.515 93.2514 314.517C86.8932 303.417 78.8362 293.158 68.5195 285.464C66.4991 283.963 59.5224 280.326 56.4629 277.819C55.5475 277.068 55.6794 275.65 56.7185 275.073C72.1563 266.554 85.1944 253.879 93.2596 238.103C93.4658 237.699 93.8204 237.402 94.2492 237.27L94.3729 237.237H94.3812Z" fill="#40A6AA" fill-opacity="0.5"/>
<g filter="url(#filter0_d_457_299)">
<path d="M109.22 152V130.182H117.828C119.482 130.182 120.892 130.498 122.057 131.13C123.222 131.755 124.109 132.625 124.72 133.74C125.338 134.848 125.647 136.126 125.647 137.575C125.647 139.024 125.335 140.303 124.71 141.411C124.085 142.518 123.179 143.381 121.993 143.999C120.814 144.617 119.386 144.926 117.71 144.926H112.224V141.229H116.965C117.852 141.229 118.584 141.077 119.159 140.771C119.742 140.459 120.175 140.029 120.459 139.482C120.75 138.928 120.896 138.293 120.896 137.575C120.896 136.851 120.75 136.219 120.459 135.679C120.175 135.132 119.742 134.71 119.159 134.411C118.577 134.106 117.838 133.953 116.943 133.953H113.832V152H109.22ZM135.752 152.32C134.069 152.32 132.62 151.979 131.405 151.297C130.198 150.608 129.267 149.635 128.614 148.378C127.961 147.114 127.634 145.619 127.634 143.893C127.634 142.21 127.961 140.732 128.614 139.461C129.267 138.19 130.187 137.199 131.373 136.489C132.566 135.778 133.966 135.423 135.571 135.423C136.65 135.423 137.655 135.597 138.586 135.945C139.523 136.286 140.34 136.801 141.036 137.49C141.739 138.179 142.286 139.045 142.677 140.089C143.067 141.126 143.263 142.341 143.263 143.733V144.979H129.445V142.167H138.991C138.991 141.513 138.848 140.935 138.564 140.43C138.28 139.926 137.886 139.532 137.382 139.248C136.885 138.957 136.306 138.811 135.645 138.811C134.956 138.811 134.346 138.971 133.813 139.29C133.287 139.603 132.875 140.026 132.577 140.558C132.279 141.084 132.126 141.67 132.119 142.316V144.99C132.119 145.8 132.268 146.499 132.566 147.089C132.872 147.678 133.302 148.133 133.856 148.452C134.41 148.772 135.066 148.932 135.826 148.932C136.331 148.932 136.792 148.861 137.211 148.719C137.63 148.577 137.989 148.364 138.287 148.08C138.586 147.795 138.813 147.447 138.969 147.036L143.167 147.312C142.954 148.321 142.517 149.202 141.856 149.955C141.203 150.7 140.358 151.283 139.321 151.702C138.291 152.114 137.101 152.32 135.752 152.32ZM150.763 142.54V152H146.224V135.636H150.549V138.523H150.741C151.103 137.572 151.711 136.819 152.563 136.265C153.415 135.704 154.449 135.423 155.663 135.423C156.799 135.423 157.79 135.672 158.635 136.169C159.481 136.666 160.138 137.376 160.606 138.3C161.075 139.216 161.309 140.31 161.309 141.581V152H156.771V142.391C156.778 141.389 156.522 140.608 156.004 140.047C155.486 139.479 154.772 139.195 153.863 139.195C153.252 139.195 152.712 139.326 152.243 139.589C151.782 139.852 151.419 140.235 151.157 140.739C150.901 141.237 150.77 141.837 150.763 142.54ZM172.258 158.477C170.788 158.477 169.528 158.275 168.476 157.87C167.432 157.472 166.601 156.929 165.984 156.24C165.366 155.551 164.964 154.777 164.78 153.918L168.977 153.353C169.105 153.68 169.307 153.985 169.584 154.269C169.861 154.553 170.227 154.781 170.682 154.951C171.143 155.129 171.704 155.217 172.365 155.217C173.352 155.217 174.165 154.976 174.805 154.493C175.451 154.017 175.774 153.218 175.774 152.096V149.102H175.582C175.383 149.557 175.085 149.987 174.687 150.391C174.29 150.796 173.778 151.126 173.153 151.382C172.528 151.638 171.783 151.766 170.916 151.766C169.687 151.766 168.569 151.482 167.56 150.913C166.559 150.338 165.76 149.461 165.163 148.282C164.574 147.096 164.279 145.597 164.279 143.786C164.279 141.933 164.581 140.384 165.185 139.141C165.788 137.898 166.591 136.968 167.592 136.35C168.601 135.732 169.705 135.423 170.905 135.423C171.822 135.423 172.589 135.58 173.207 135.892C173.824 136.197 174.322 136.581 174.698 137.043C175.082 137.497 175.376 137.945 175.582 138.385H175.753V135.636H180.259V152.16C180.259 153.552 179.918 154.717 179.236 155.654C178.555 156.592 177.61 157.295 176.403 157.763C175.202 158.239 173.821 158.477 172.258 158.477ZM172.354 148.357C173.086 148.357 173.704 148.175 174.208 147.813C174.719 147.444 175.11 146.918 175.38 146.237C175.657 145.548 175.795 144.724 175.795 143.765C175.795 142.806 175.66 141.975 175.391 141.272C175.121 140.562 174.73 140.011 174.219 139.621C173.707 139.23 173.086 139.035 172.354 139.035C171.609 139.035 170.98 139.237 170.469 139.642C169.957 140.04 169.57 140.594 169.307 141.304C169.045 142.014 168.913 142.835 168.913 143.765C168.913 144.71 169.045 145.526 169.307 146.215C169.577 146.897 169.964 147.426 170.469 147.803C170.98 148.172 171.609 148.357 172.354 148.357ZM191.328 152.32C189.645 152.32 188.196 151.979 186.981 151.297C185.774 150.608 184.844 149.635 184.19 148.378C183.537 147.114 183.21 145.619 183.21 143.893C183.21 142.21 183.537 140.732 184.19 139.461C184.844 138.19 185.763 137.199 186.949 136.489C188.143 135.778 189.542 135.423 191.147 135.423C192.226 135.423 193.231 135.597 194.162 135.945C195.099 136.286 195.916 136.801 196.612 137.49C197.315 138.179 197.862 139.045 198.253 140.089C198.643 141.126 198.839 142.341 198.839 143.733V144.979H185.021V142.167H194.567C194.567 141.513 194.425 140.935 194.141 140.43C193.856 139.926 193.462 139.532 192.958 139.248C192.461 138.957 191.882 138.811 191.222 138.811C190.533 138.811 189.922 138.971 189.389 139.29C188.864 139.603 188.452 140.026 188.153 140.558C187.855 141.084 187.702 141.67 187.695 142.316V144.99C187.695 145.8 187.844 146.499 188.143 147.089C188.448 147.678 188.878 148.133 189.432 148.452C189.986 148.772 190.643 148.932 191.403 148.932C191.907 148.932 192.369 148.861 192.788 148.719C193.207 148.577 193.565 148.364 193.864 148.08C194.162 147.795 194.389 147.447 194.545 147.036L198.743 147.312C198.53 148.321 198.093 149.202 197.432 149.955C196.779 150.7 195.934 151.283 194.897 151.702C193.867 152.114 192.677 152.32 191.328 152.32ZM206.339 130.182V152H201.8V130.182H206.339ZM217.368 152.32C215.713 152.32 214.282 151.968 213.074 151.265C211.874 150.555 210.947 149.567 210.294 148.303C209.64 147.032 209.314 145.558 209.314 143.882C209.314 142.192 209.64 140.714 210.294 139.45C210.947 138.179 211.874 137.192 213.074 136.489C214.282 135.778 215.713 135.423 217.368 135.423C219.022 135.423 220.45 135.778 221.65 136.489C222.858 137.192 223.788 138.179 224.441 139.45C225.095 140.714 225.422 142.192 225.422 143.882C225.422 145.558 225.095 147.032 224.441 148.303C223.788 149.567 222.858 150.555 221.65 151.265C220.45 151.968 219.022 152.32 217.368 152.32ZM217.389 148.804C218.142 148.804 218.77 148.591 219.275 148.165C219.779 147.732 220.159 147.142 220.415 146.396C220.677 145.651 220.809 144.802 220.809 143.85C220.809 142.898 220.677 142.05 220.415 141.304C220.159 140.558 219.779 139.969 219.275 139.536C218.77 139.102 218.142 138.886 217.389 138.886C216.629 138.886 215.99 139.102 215.471 139.536C214.96 139.969 214.573 140.558 214.31 141.304C214.054 142.05 213.927 142.898 213.927 143.85C213.927 144.802 214.054 145.651 214.31 146.396C214.573 147.142 214.96 147.732 215.471 148.165C215.99 148.591 216.629 148.804 217.389 148.804ZM232.911 130.182V152H228.373V130.182H232.911ZM241.213 152.309C240.169 152.309 239.238 152.128 238.421 151.766C237.605 151.396 236.958 150.853 236.483 150.136C236.014 149.411 235.779 148.509 235.779 147.43C235.779 146.521 235.946 145.757 236.28 145.139C236.614 144.521 237.068 144.024 237.644 143.648C238.219 143.271 238.872 142.987 239.604 142.795C240.343 142.604 241.117 142.469 241.926 142.391C242.878 142.291 243.645 142.199 244.228 142.114C244.81 142.021 245.233 141.886 245.495 141.709C245.758 141.531 245.889 141.268 245.889 140.92V140.857C245.889 140.182 245.676 139.66 245.25 139.29C244.831 138.921 244.235 138.737 243.46 138.737C242.644 138.737 241.994 138.918 241.511 139.28C241.028 139.635 240.708 140.082 240.552 140.622L236.355 140.281C236.568 139.287 236.987 138.428 237.612 137.703C238.237 136.972 239.043 136.411 240.03 136.02C241.024 135.622 242.175 135.423 243.482 135.423C244.391 135.423 245.261 135.53 246.092 135.743C246.93 135.956 247.672 136.286 248.318 136.734C248.972 137.181 249.487 137.756 249.863 138.46C250.24 139.156 250.428 139.99 250.428 140.963V152H246.124V149.731H245.996C245.733 150.242 245.382 150.693 244.941 151.084C244.501 151.467 243.972 151.769 243.354 151.989C242.736 152.202 242.022 152.309 241.213 152.309ZM242.512 149.177C243.18 149.177 243.769 149.045 244.281 148.783C244.792 148.513 245.193 148.151 245.485 147.696C245.776 147.241 245.921 146.727 245.921 146.151V144.415C245.779 144.507 245.584 144.592 245.335 144.67C245.094 144.741 244.821 144.809 244.515 144.873C244.21 144.93 243.904 144.983 243.599 145.033C243.294 145.075 243.017 145.114 242.768 145.15C242.235 145.228 241.77 145.352 241.372 145.523C240.975 145.693 240.666 145.924 240.446 146.215C240.225 146.499 240.115 146.854 240.115 147.281C240.115 147.898 240.339 148.371 240.786 148.697C241.241 149.017 241.816 149.177 242.512 149.177ZM258.615 152.309C257.571 152.309 256.641 152.128 255.824 151.766C255.007 151.396 254.361 150.853 253.885 150.136C253.416 149.411 253.182 148.509 253.182 147.43C253.182 146.521 253.349 145.757 253.682 145.139C254.016 144.521 254.471 144.024 255.046 143.648C255.621 143.271 256.275 142.987 257.006 142.795C257.745 142.604 258.519 142.469 259.329 142.391C260.28 142.291 261.047 142.199 261.63 142.114C262.212 142.021 262.635 141.886 262.898 141.709C263.16 141.531 263.292 141.268 263.292 140.92V140.857C263.292 140.182 263.079 139.66 262.653 139.29C262.234 138.921 261.637 138.737 260.863 138.737C260.046 138.737 259.396 138.918 258.913 139.28C258.43 139.635 258.111 140.082 257.954 140.622L253.757 140.281C253.97 139.287 254.389 138.428 255.014 137.703C255.639 136.972 256.445 136.411 257.432 136.02C258.427 135.622 259.577 135.423 260.884 135.423C261.793 135.423 262.663 135.53 263.494 135.743C264.332 135.956 265.074 136.286 265.721 136.734C266.374 137.181 266.889 137.756 267.266 138.46C267.642 139.156 267.83 139.99 267.83 140.963V152H263.526V149.731H263.398C263.136 150.242 262.784 150.693 262.344 151.084C261.903 151.467 261.374 151.769 260.756 151.989C260.138 152.202 259.425 152.309 258.615 152.309ZM259.915 149.177C260.582 149.177 261.172 149.045 261.683 148.783C262.195 148.513 262.596 148.151 262.887 147.696C263.178 147.241 263.324 146.727 263.324 146.151V144.415C263.182 144.507 262.986 144.592 262.738 144.67C262.496 144.741 262.223 144.809 261.918 144.873C261.612 144.93 261.307 144.983 261.001 145.033C260.696 145.075 260.419 145.114 260.17 145.15C259.638 145.228 259.172 145.352 258.775 145.523C258.377 145.693 258.068 145.924 257.848 146.215C257.628 146.499 257.518 146.854 257.518 147.281C257.518 147.898 257.741 148.371 258.189 148.697C258.643 149.017 259.219 149.177 259.915 149.177ZM275.889 142.54V152H271.351V135.636H275.676V138.523H275.868C276.23 137.572 276.838 136.819 277.69 136.265C278.542 135.704 279.576 135.423 280.79 135.423C281.926 135.423 282.917 135.672 283.762 136.169C284.608 136.666 285.264 137.376 285.733 138.3C286.202 139.216 286.436 140.31 286.436 141.581V152H281.898V142.391C281.905 141.389 281.649 140.608 281.131 140.047C280.612 139.479 279.899 139.195 278.99 139.195C278.379 139.195 277.839 139.326 277.37 139.589C276.909 139.852 276.546 140.235 276.284 140.739C276.028 141.237 275.897 141.837 275.889 142.54ZM308.878 136.457C308.793 135.597 308.427 134.93 307.78 134.454C307.134 133.978 306.257 133.74 305.149 133.74C304.396 133.74 303.761 133.847 303.242 134.06C302.724 134.266 302.326 134.553 302.049 134.923C301.779 135.292 301.644 135.711 301.644 136.18C301.63 136.57 301.712 136.911 301.889 137.202C302.074 137.494 302.326 137.746 302.646 137.959C302.965 138.165 303.334 138.346 303.753 138.502C304.172 138.651 304.62 138.779 305.096 138.886L307.056 139.354C308.008 139.567 308.881 139.852 309.677 140.207C310.472 140.562 311.161 140.999 311.744 141.517C312.326 142.036 312.777 142.646 313.097 143.349C313.423 144.053 313.59 144.859 313.597 145.768C313.59 147.103 313.249 148.261 312.574 149.241C311.907 150.214 310.941 150.97 309.677 151.51C308.42 152.043 306.903 152.309 305.128 152.309C303.366 152.309 301.832 152.039 300.525 151.499C299.226 150.96 298.21 150.161 297.479 149.102C296.754 148.037 296.374 146.719 296.339 145.15H300.802C300.852 145.881 301.062 146.492 301.431 146.982C301.807 147.465 302.308 147.831 302.933 148.08C303.565 148.321 304.279 148.442 305.074 148.442C305.856 148.442 306.534 148.328 307.109 148.101C307.692 147.874 308.143 147.558 308.462 147.153C308.782 146.748 308.942 146.283 308.942 145.757C308.942 145.267 308.796 144.855 308.505 144.521C308.221 144.187 307.802 143.903 307.248 143.669C306.701 143.435 306.03 143.222 305.234 143.03L302.859 142.433C301.019 141.986 299.567 141.286 298.501 140.335C297.436 139.383 296.907 138.101 296.914 136.489C296.907 135.168 297.258 134.013 297.969 133.026C298.686 132.039 299.67 131.268 300.92 130.714C302.17 130.161 303.59 129.884 305.181 129.884C306.8 129.884 308.214 130.161 309.421 130.714C310.636 131.268 311.58 132.039 312.255 133.026C312.93 134.013 313.278 135.157 313.299 136.457H308.878ZM321.281 152.309C320.237 152.309 319.307 152.128 318.49 151.766C317.673 151.396 317.027 150.853 316.551 150.136C316.082 149.411 315.848 148.509 315.848 147.43C315.848 146.521 316.015 145.757 316.348 145.139C316.682 144.521 317.137 144.024 317.712 143.648C318.287 143.271 318.941 142.987 319.672 142.795C320.411 142.604 321.185 142.469 321.995 142.391C322.946 142.291 323.714 142.199 324.296 142.114C324.878 142.021 325.301 141.886 325.564 141.709C325.826 141.531 325.958 141.268 325.958 140.92V140.857C325.958 140.182 325.745 139.66 325.319 139.29C324.9 138.921 324.303 138.737 323.529 138.737C322.712 138.737 322.062 138.918 321.579 139.28C321.096 139.635 320.777 140.082 320.62 140.622L316.423 140.281C316.636 139.287 317.055 138.428 317.68 137.703C318.305 136.972 319.111 136.411 320.098 136.02C321.093 135.622 322.243 135.423 323.55 135.423C324.459 135.423 325.329 135.53 326.16 135.743C326.998 135.956 327.741 136.286 328.387 136.734C329.04 137.181 329.555 137.756 329.932 138.46C330.308 139.156 330.496 139.99 330.496 140.963V152H326.192V149.731H326.064C325.802 150.242 325.45 150.693 325.01 151.084C324.569 151.467 324.04 151.769 323.422 151.989C322.804 152.202 322.091 152.309 321.281 152.309ZM322.581 149.177C323.248 149.177 323.838 149.045 324.349 148.783C324.861 148.513 325.262 148.151 325.553 147.696C325.844 147.241 325.99 146.727 325.99 146.151V144.415C325.848 144.507 325.652 144.592 325.404 144.67C325.162 144.741 324.889 144.809 324.584 144.873C324.278 144.93 323.973 144.983 323.667 145.033C323.362 145.075 323.085 145.114 322.836 145.15C322.304 145.228 321.839 145.352 321.441 145.523C321.043 145.693 320.734 145.924 320.514 146.215C320.294 146.499 320.184 146.854 320.184 147.281C320.184 147.898 320.407 148.371 320.855 148.697C321.309 149.017 321.885 149.177 322.581 149.177ZM334.017 152V135.636H338.342V138.523H338.534C338.875 137.565 339.443 136.808 340.239 136.254C341.034 135.7 341.986 135.423 343.094 135.423C344.216 135.423 345.171 135.704 345.96 136.265C346.748 136.819 347.274 137.572 347.536 138.523H347.707C348.041 137.586 348.644 136.837 349.518 136.276C350.399 135.707 351.439 135.423 352.639 135.423C354.166 135.423 355.406 135.91 356.357 136.883C357.316 137.849 357.796 139.219 357.796 140.995V152H353.268V141.89C353.268 140.981 353.026 140.299 352.543 139.844C352.06 139.39 351.457 139.163 350.732 139.163C349.908 139.163 349.266 139.425 348.804 139.951C348.342 140.469 348.112 141.155 348.112 142.007V152H343.712V141.794C343.712 140.991 343.481 140.352 343.019 139.876C342.565 139.401 341.965 139.163 341.219 139.163C340.715 139.163 340.26 139.29 339.855 139.546C339.457 139.795 339.141 140.146 338.907 140.601C338.673 141.048 338.555 141.574 338.555 142.178V152H334.017ZM361.38 158.136V135.636H365.855V138.385H366.057C366.256 137.945 366.544 137.497 366.92 137.043C367.304 136.581 367.801 136.197 368.412 135.892C369.03 135.58 369.797 135.423 370.713 135.423C371.906 135.423 373.007 135.736 374.015 136.361C375.024 136.979 375.83 137.913 376.434 139.163C377.037 140.406 377.339 141.964 377.339 143.839C377.339 145.665 377.044 147.206 376.455 148.463C375.873 149.713 375.077 150.661 374.069 151.308C373.067 151.947 371.945 152.266 370.702 152.266C369.821 152.266 369.072 152.121 368.454 151.83C367.843 151.538 367.343 151.173 366.952 150.732C366.562 150.285 366.263 149.834 366.057 149.379H365.919V158.136H361.38ZM365.823 143.818C365.823 144.791 365.958 145.64 366.228 146.364C366.498 147.089 366.888 147.653 367.4 148.058C367.911 148.456 368.532 148.655 369.264 148.655C370.003 148.655 370.628 148.452 371.139 148.048C371.65 147.636 372.037 147.067 372.3 146.343C372.57 145.612 372.705 144.77 372.705 143.818C372.705 142.874 372.574 142.043 372.311 141.325C372.048 140.608 371.661 140.047 371.15 139.642C370.638 139.237 370.01 139.035 369.264 139.035C368.525 139.035 367.9 139.23 367.389 139.621C366.885 140.011 366.498 140.565 366.228 141.283C365.958 142 365.823 142.845 365.823 143.818ZM385.031 152.309C383.987 152.309 383.057 152.128 382.24 151.766C381.423 151.396 380.777 150.853 380.301 150.136C379.832 149.411 379.598 148.509 379.598 147.43C379.598 146.521 379.765 145.757 380.098 145.139C380.432 144.521 380.887 144.024 381.462 143.648C382.037 143.271 382.691 142.987 383.422 142.795C384.161 142.604 384.935 142.469 385.745 142.391C386.696 142.291 387.464 142.199 388.046 142.114C388.628 142.021 389.051 141.886 389.314 141.709C389.576 141.531 389.708 141.268 389.708 140.92V140.857C389.708 140.182 389.495 139.66 389.069 139.29C388.65 138.921 388.053 138.737 387.279 138.737C386.462 138.737 385.812 138.918 385.329 139.28C384.846 139.635 384.527 140.082 384.37 140.622L380.173 140.281C380.386 139.287 380.805 138.428 381.43 137.703C382.055 136.972 382.861 136.411 383.848 136.02C384.843 135.622 385.993 135.423 387.3 135.423C388.209 135.423 389.079 135.53 389.91 135.743C390.748 135.956 391.491 136.286 392.137 136.734C392.79 137.181 393.305 137.756 393.682 138.46C394.058 139.156 394.246 139.99 394.246 140.963V152H389.942V149.731H389.814C389.552 150.242 389.2 150.693 388.76 151.084C388.319 151.467 387.79 151.769 387.172 151.989C386.554 152.202 385.841 152.309 385.031 152.309ZM386.331 149.177C386.998 149.177 387.588 149.045 388.099 148.783C388.611 148.513 389.012 148.151 389.303 147.696C389.594 147.241 389.74 146.727 389.74 146.151V144.415C389.598 144.507 389.402 144.592 389.154 144.67C388.912 144.741 388.639 144.809 388.334 144.873C388.028 144.93 387.723 144.983 387.417 145.033C387.112 145.075 386.835 145.114 386.586 145.15C386.054 145.228 385.589 145.352 385.191 145.523C384.793 145.693 384.484 145.924 384.264 146.215C384.044 146.499 383.934 146.854 383.934 147.281C383.934 147.898 384.157 148.371 384.605 148.697C385.059 149.017 385.635 149.177 386.331 149.177ZM402.305 142.54V152H397.767V130.182H402.178V138.523H402.369C402.739 137.558 403.335 136.801 404.159 136.254C404.983 135.7 406.016 135.423 407.259 135.423C408.396 135.423 409.386 135.672 410.232 136.169C411.084 136.659 411.744 137.366 412.213 138.289C412.689 139.205 412.923 140.303 412.916 141.581V152H408.378V142.391C408.385 141.382 408.129 140.597 407.611 140.036C407.1 139.475 406.382 139.195 405.459 139.195C404.841 139.195 404.294 139.326 403.818 139.589C403.35 139.852 402.98 140.235 402.71 140.739C402.448 141.237 402.313 141.837 402.305 142.54ZM130.079 188V166.182H138.815C140.42 166.182 141.759 166.42 142.831 166.896C143.903 167.371 144.71 168.032 145.249 168.877C145.789 169.715 146.059 170.681 146.059 171.775C146.059 172.627 145.889 173.376 145.548 174.023C145.207 174.662 144.738 175.187 144.141 175.599C143.552 176.004 142.877 176.292 142.117 176.462V176.675C142.948 176.711 143.726 176.945 144.45 177.379C145.182 177.812 145.775 178.419 146.229 179.2C146.684 179.974 146.911 180.898 146.911 181.97C146.911 183.128 146.624 184.161 146.048 185.07C145.48 185.972 144.639 186.686 143.524 187.212C142.408 187.737 141.034 188 139.401 188H130.079ZM134.692 184.229H138.453C139.738 184.229 140.676 183.984 141.265 183.494C141.854 182.996 142.149 182.336 142.149 181.512C142.149 180.908 142.004 180.376 141.712 179.914C141.421 179.452 141.006 179.09 140.466 178.827C139.933 178.565 139.298 178.433 138.559 178.433H134.692V184.229ZM134.692 175.312H138.112C138.744 175.312 139.305 175.202 139.795 174.982C140.292 174.754 140.683 174.435 140.967 174.023C141.258 173.611 141.403 173.117 141.403 172.542C141.403 171.754 141.123 171.118 140.562 170.635C140.008 170.152 139.22 169.911 138.197 169.911H134.692V175.312ZM157.285 188.32C155.602 188.32 154.153 187.979 152.938 187.297C151.731 186.608 150.801 185.635 150.147 184.378C149.494 183.114 149.167 181.619 149.167 179.893C149.167 178.21 149.494 176.732 150.147 175.461C150.801 174.19 151.72 173.199 152.907 172.489C154.1 171.778 155.499 171.423 157.104 171.423C158.184 171.423 159.188 171.597 160.119 171.945C161.056 172.286 161.873 172.801 162.569 173.49C163.272 174.179 163.819 175.045 164.21 176.089C164.6 177.126 164.796 178.341 164.796 179.733V180.979H150.978V178.167H160.524C160.524 177.513 160.382 176.935 160.098 176.43C159.813 175.926 159.419 175.532 158.915 175.248C158.418 174.957 157.839 174.811 157.179 174.811C156.49 174.811 155.879 174.971 155.346 175.29C154.821 175.603 154.409 176.026 154.11 176.558C153.812 177.084 153.659 177.67 153.652 178.316V180.99C153.652 181.8 153.801 182.499 154.1 183.089C154.405 183.678 154.835 184.133 155.389 184.452C155.943 184.772 156.6 184.932 157.36 184.932C157.864 184.932 158.326 184.861 158.745 184.719C159.164 184.577 159.522 184.364 159.821 184.08C160.119 183.795 160.346 183.447 160.502 183.036L164.7 183.312C164.487 184.321 164.05 185.202 163.389 185.955C162.736 186.7 161.891 187.283 160.854 187.702C159.824 188.114 158.634 188.32 157.285 188.32ZM167.757 188V171.636H172.157V174.491H172.328C172.626 173.476 173.127 172.709 173.83 172.19C174.533 171.665 175.343 171.402 176.259 171.402C176.486 171.402 176.731 171.416 176.994 171.445C177.257 171.473 177.487 171.512 177.686 171.562V175.589C177.473 175.525 177.179 175.468 176.802 175.418C176.426 175.369 176.081 175.344 175.769 175.344C175.101 175.344 174.505 175.489 173.979 175.781C173.46 176.065 173.049 176.462 172.743 176.974C172.445 177.485 172.296 178.075 172.296 178.742V188H167.757ZM184.145 183.291L184.156 177.847H184.816L190.058 171.636H195.267L188.225 179.861H187.149L184.145 183.291ZM180.033 188V166.182H184.571V188H180.033ZM190.26 188L185.445 180.873L188.47 177.666L195.576 188H190.26ZM204.277 188.32C202.594 188.32 201.145 187.979 199.931 187.297C198.723 186.608 197.793 185.635 197.139 184.378C196.486 183.114 196.159 181.619 196.159 179.893C196.159 178.21 196.486 176.732 197.139 175.461C197.793 174.19 198.713 173.199 199.899 172.489C201.092 171.778 202.491 171.423 204.096 171.423C205.176 171.423 206.181 171.597 207.111 171.945C208.049 172.286 208.865 172.801 209.561 173.49C210.264 174.179 210.811 175.045 211.202 176.089C211.593 177.126 211.788 178.341 211.788 179.733V180.979H197.97V178.167H207.516C207.516 177.513 207.374 176.935 207.09 176.43C206.806 175.926 206.411 175.532 205.907 175.248C205.41 174.957 204.831 174.811 204.171 174.811C203.482 174.811 202.871 174.971 202.338 175.29C201.813 175.603 201.401 176.026 201.103 176.558C200.804 177.084 200.652 177.67 200.644 178.316V180.99C200.644 181.8 200.794 182.499 201.092 183.089C201.397 183.678 201.827 184.133 202.381 184.452C202.935 184.772 203.592 184.932 204.352 184.932C204.856 184.932 205.318 184.861 205.737 184.719C206.156 184.577 206.514 184.364 206.813 184.08C207.111 183.795 207.338 183.447 207.495 183.036L211.692 183.312C211.479 184.321 211.042 185.202 210.382 185.955C209.728 186.7 208.883 187.283 207.846 187.702C206.816 188.114 205.627 188.32 204.277 188.32ZM219.288 166.182V188H214.75V166.182H219.288ZM227.59 188.309C226.546 188.309 225.615 188.128 224.798 187.766C223.982 187.396 223.335 186.853 222.859 186.136C222.391 185.411 222.156 184.509 222.156 183.43C222.156 182.521 222.323 181.757 222.657 181.139C222.991 180.521 223.445 180.024 224.021 179.648C224.596 179.271 225.249 178.987 225.981 178.795C226.72 178.604 227.494 178.469 228.303 178.391C229.255 178.291 230.022 178.199 230.604 178.114C231.187 178.021 231.609 177.886 231.872 177.709C232.135 177.531 232.266 177.268 232.266 176.92V176.857C232.266 176.182 232.053 175.66 231.627 175.29C231.208 174.921 230.612 174.737 229.837 174.737C229.021 174.737 228.371 174.918 227.888 175.28C227.405 175.635 227.085 176.082 226.929 176.622L222.732 176.281C222.945 175.287 223.364 174.428 223.989 173.703C224.614 172.972 225.42 172.411 226.407 172.02C227.401 171.622 228.552 171.423 229.859 171.423C230.768 171.423 231.638 171.53 232.469 171.743C233.307 171.956 234.049 172.286 234.695 172.734C235.349 173.181 235.864 173.756 236.24 174.46C236.617 175.156 236.805 175.99 236.805 176.963V188H232.501V185.731H232.373C232.11 186.242 231.759 186.693 231.318 187.084C230.878 187.467 230.349 187.769 229.731 187.989C229.113 188.202 228.399 188.309 227.59 188.309ZM228.889 185.177C229.557 185.177 230.146 185.045 230.658 184.783C231.169 184.513 231.57 184.151 231.862 183.696C232.153 183.241 232.298 182.727 232.298 182.151V180.415C232.156 180.507 231.961 180.592 231.712 180.67C231.471 180.741 231.198 180.809 230.892 180.873C230.587 180.93 230.281 180.983 229.976 181.033C229.671 181.075 229.394 181.114 229.145 181.15C228.612 181.228 228.147 181.352 227.749 181.523C227.352 181.693 227.043 181.924 226.823 182.215C226.602 182.499 226.492 182.854 226.492 183.281C226.492 183.898 226.716 184.371 227.163 184.697C227.618 185.017 228.193 185.177 228.889 185.177ZM244.864 178.54V188H240.326V171.636H244.651V174.523H244.843C245.205 173.572 245.812 172.819 246.665 172.265C247.517 171.704 248.55 171.423 249.765 171.423C250.901 171.423 251.892 171.672 252.737 172.169C253.582 172.666 254.239 173.376 254.708 174.3C255.177 175.216 255.411 176.31 255.411 177.581V188H250.873V178.391C250.88 177.389 250.624 176.608 250.106 176.047C249.587 175.479 248.873 175.195 247.964 175.195C247.353 175.195 246.814 175.326 246.345 175.589C245.883 175.852 245.521 176.235 245.258 176.739C245.003 177.237 244.871 177.837 244.864 178.54ZM258.988 171.636H263.526V188.81C263.526 190.074 263.278 191.097 262.78 191.878C262.283 192.659 261.57 193.231 260.639 193.593C259.716 193.955 258.611 194.136 257.326 194.136C257.17 194.136 257.021 194.133 256.878 194.126C256.729 194.126 256.573 194.122 256.41 194.115V190.567C256.53 190.575 256.637 190.578 256.729 190.578C256.815 190.585 256.907 190.589 257.006 190.589C257.738 190.589 258.249 190.433 258.54 190.12C258.839 189.815 258.988 189.353 258.988 188.735V171.636ZM261.246 169.527C260.579 169.527 260.003 169.303 259.521 168.856C259.038 168.401 258.796 167.858 258.796 167.226C258.796 166.601 259.038 166.065 259.521 165.617C260.003 165.163 260.579 164.935 261.246 164.935C261.928 164.935 262.507 165.163 262.983 165.617C263.466 166.065 263.707 166.601 263.707 167.226C263.707 167.858 263.466 168.401 262.983 168.856C262.507 169.303 261.928 169.527 261.246 169.527ZM277.655 181.033V171.636H282.194V188H277.836V185.028H277.666C277.297 185.987 276.682 186.757 275.823 187.339C274.971 187.922 273.93 188.213 272.701 188.213C271.608 188.213 270.645 187.964 269.814 187.467C268.983 186.97 268.334 186.263 267.865 185.347C267.403 184.431 267.169 183.334 267.162 182.055V171.636H271.7V181.246C271.707 182.212 271.966 182.975 272.478 183.536C272.989 184.097 273.674 184.378 274.534 184.378C275.081 184.378 275.592 184.254 276.068 184.005C276.544 183.749 276.927 183.373 277.218 182.876C277.517 182.379 277.662 181.764 277.655 181.033ZM294.528 171.636V175.045H284.673V171.636H294.528ZM286.91 167.716H291.449V182.972C291.449 183.391 291.513 183.717 291.641 183.952C291.768 184.179 291.946 184.339 292.173 184.431C292.408 184.523 292.677 184.57 292.983 184.57C293.196 184.57 293.409 184.552 293.622 184.516C293.835 184.474 293.998 184.442 294.112 184.42L294.826 187.798C294.599 187.869 294.279 187.95 293.867 188.043C293.455 188.142 292.954 188.202 292.365 188.224C291.271 188.266 290.312 188.121 289.489 187.787C288.672 187.453 288.036 186.935 287.582 186.232C287.127 185.528 286.903 184.641 286.91 183.568V167.716ZM302.15 188.309C301.106 188.309 300.176 188.128 299.359 187.766C298.542 187.396 297.896 186.853 297.42 186.136C296.951 185.411 296.717 184.509 296.717 183.43C296.717 182.521 296.884 181.757 297.218 181.139C297.551 180.521 298.006 180.024 298.581 179.648C299.157 179.271 299.81 178.987 300.541 178.795C301.28 178.604 302.054 178.469 302.864 178.391C303.816 178.291 304.583 178.199 305.165 178.114C305.747 178.021 306.17 177.886 306.433 177.709C306.696 177.531 306.827 177.268 306.827 176.92V176.857C306.827 176.182 306.614 175.66 306.188 175.29C305.769 174.921 305.172 174.737 304.398 174.737C303.581 174.737 302.931 174.918 302.448 175.28C301.965 175.635 301.646 176.082 301.49 176.622L297.292 176.281C297.505 175.287 297.924 174.428 298.549 173.703C299.174 172.972 299.98 172.411 300.968 172.02C301.962 171.622 303.112 171.423 304.419 171.423C305.328 171.423 306.198 171.53 307.029 171.743C307.867 171.956 308.61 172.286 309.256 172.734C309.909 173.181 310.424 173.756 310.801 174.46C311.177 175.156 311.365 175.99 311.365 176.963V188H307.061V185.731H306.934C306.671 186.242 306.319 186.693 305.879 187.084C305.438 187.467 304.909 187.769 304.291 187.989C303.674 188.202 302.96 188.309 302.15 188.309ZM303.45 185.177C304.117 185.177 304.707 185.045 305.218 184.783C305.73 184.513 306.131 184.151 306.422 183.696C306.713 183.241 306.859 182.727 306.859 182.151V180.415C306.717 180.507 306.522 180.592 306.273 180.67C306.032 180.741 305.758 180.809 305.453 180.873C305.147 180.93 304.842 180.983 304.536 181.033C304.231 181.075 303.954 181.114 303.706 181.15C303.173 181.228 302.708 181.352 302.31 181.523C301.912 181.693 301.603 181.924 301.383 182.215C301.163 182.499 301.053 182.854 301.053 183.281C301.053 183.898 301.277 184.371 301.724 184.697C302.179 185.017 302.754 185.177 303.45 185.177ZM319.425 178.54V188H314.886V171.636H319.212V174.523H319.403C319.766 173.572 320.373 172.819 321.225 172.265C322.077 171.704 323.111 171.423 324.325 171.423C325.462 171.423 326.452 171.672 327.297 172.169C328.143 172.666 328.8 173.376 329.268 174.3C329.737 175.216 329.972 176.31 329.972 177.581V188H325.433V178.391C325.44 177.389 325.185 176.608 324.666 176.047C324.148 175.479 323.434 175.195 322.525 175.195C321.914 175.195 321.374 175.326 320.905 175.589C320.444 175.852 320.082 176.235 319.819 176.739C319.563 177.237 319.432 177.837 319.425 178.54ZM346.522 188.266C345.279 188.266 344.153 187.947 343.144 187.308C342.143 186.661 341.348 185.713 340.758 184.463C340.176 183.206 339.884 181.665 339.884 179.839C339.884 177.964 340.186 176.406 340.79 175.163C341.394 173.913 342.196 172.979 343.198 172.361C344.206 171.736 345.311 171.423 346.511 171.423C347.427 171.423 348.191 171.58 348.801 171.892C349.419 172.197 349.916 172.581 350.293 173.043C350.676 173.497 350.968 173.945 351.166 174.385H351.305V166.182H355.833V188H351.358V185.379H351.166C350.953 185.834 350.652 186.285 350.261 186.732C349.877 187.173 349.377 187.538 348.759 187.83C348.148 188.121 347.402 188.266 346.522 188.266ZM347.96 184.655C348.691 184.655 349.309 184.456 349.813 184.058C350.325 183.653 350.715 183.089 350.985 182.364C351.262 181.64 351.401 180.791 351.401 179.818C351.401 178.845 351.266 178 350.996 177.283C350.726 176.565 350.335 176.011 349.824 175.621C349.313 175.23 348.691 175.035 347.96 175.035C347.214 175.035 346.585 175.237 346.074 175.642C345.563 176.047 345.176 176.608 344.913 177.325C344.65 178.043 344.519 178.874 344.519 179.818C344.519 180.77 344.65 181.612 344.913 182.343C345.183 183.067 345.57 183.636 346.074 184.048C346.585 184.452 347.214 184.655 347.96 184.655ZM364.23 188.309C363.186 188.309 362.256 188.128 361.439 187.766C360.622 187.396 359.976 186.853 359.5 186.136C359.031 185.411 358.797 184.509 358.797 183.43C358.797 182.521 358.964 181.757 359.298 181.139C359.631 180.521 360.086 180.024 360.661 179.648C361.237 179.271 361.89 178.987 362.622 178.795C363.36 178.604 364.134 178.469 364.944 178.391C365.896 178.291 366.663 178.199 367.245 178.114C367.828 178.021 368.25 177.886 368.513 177.709C368.776 177.531 368.907 177.268 368.907 176.92V176.857C368.907 176.182 368.694 175.66 368.268 175.29C367.849 174.921 367.252 174.737 366.478 174.737C365.661 174.737 365.011 174.918 364.528 175.28C364.046 175.635 363.726 176.082 363.57 176.622L359.372 176.281C359.585 175.287 360.004 174.428 360.629 173.703C361.254 172.972 362.06 172.411 363.048 172.02C364.042 171.622 365.193 171.423 366.499 171.423C367.408 171.423 368.278 171.53 369.109 171.743C369.948 171.956 370.69 172.286 371.336 172.734C371.989 173.181 372.504 173.756 372.881 174.46C373.257 175.156 373.445 175.99 373.445 176.963V188H369.141V185.731H369.014C368.751 186.242 368.399 186.693 367.959 187.084C367.519 187.467 366.989 187.769 366.372 187.989C365.754 188.202 365.04 188.309 364.23 188.309ZM365.53 185.177C366.198 185.177 366.787 185.045 367.298 184.783C367.81 184.513 368.211 184.151 368.502 183.696C368.793 183.241 368.939 182.727 368.939 182.151V180.415C368.797 180.507 368.602 180.592 368.353 180.67C368.112 180.741 367.838 180.809 367.533 180.873C367.227 180.93 366.922 180.983 366.617 181.033C366.311 181.075 366.034 181.114 365.786 181.15C365.253 181.228 364.788 181.352 364.39 181.523C363.992 181.693 363.683 181.924 363.463 182.215C363.243 182.499 363.133 182.854 363.133 183.281C363.133 183.898 363.357 184.371 363.804 184.697C364.259 185.017 364.834 185.177 365.53 185.177ZM381.505 178.54V188H376.966V171.636H381.292V174.523H381.483C381.846 173.572 382.453 172.819 383.305 172.265C384.157 171.704 385.191 171.423 386.405 171.423C387.542 171.423 388.532 171.672 389.378 172.169C390.223 172.666 390.88 173.376 391.348 174.3C391.817 175.216 392.052 176.31 392.052 177.581V188H387.513V178.391C387.52 177.389 387.265 176.608 386.746 176.047C386.228 175.479 385.514 175.195 384.605 175.195C383.994 175.195 383.454 175.326 382.986 175.589C382.524 175.852 382.162 176.235 381.899 176.739C381.643 177.237 381.512 177.837 381.505 178.54ZM120.073 202.182V224H115.46V202.182H120.073ZM128.321 214.54V224H123.783V207.636H128.108V210.523H128.3C128.662 209.572 129.269 208.819 130.122 208.265C130.974 207.704 132.007 207.423 133.222 207.423C134.358 207.423 135.349 207.672 136.194 208.169C137.039 208.666 137.696 209.376 138.165 210.3C138.634 211.216 138.868 212.31 138.868 213.581V224H134.33V214.391C134.337 213.389 134.081 212.608 133.563 212.047C133.044 211.479 132.33 211.195 131.421 211.195C130.81 211.195 130.271 211.326 129.802 211.589C129.34 211.852 128.978 212.235 128.715 212.739C128.46 213.237 128.328 213.837 128.321 214.54ZM151.245 207.636V211.045H141.145V207.636H151.245ZM143.457 224V206.454C143.457 205.268 143.688 204.284 144.149 203.503C144.618 202.722 145.257 202.136 146.067 201.745C146.877 201.354 147.796 201.159 148.826 201.159C149.522 201.159 150.158 201.212 150.733 201.319C151.316 201.425 151.749 201.521 152.033 201.607L151.223 205.016C151.046 204.959 150.826 204.906 150.563 204.856C150.307 204.806 150.044 204.781 149.774 204.781C149.107 204.781 148.642 204.938 148.379 205.25C148.116 205.555 147.985 205.985 147.985 206.539V224H143.457ZM154.017 224V207.636H158.417V210.491H158.587C158.886 209.476 159.386 208.709 160.09 208.19C160.793 207.665 161.602 207.402 162.519 207.402C162.746 207.402 162.991 207.416 163.254 207.445C163.516 207.473 163.747 207.512 163.946 207.562V211.589C163.733 211.525 163.438 211.468 163.062 211.418C162.685 211.369 162.341 211.344 162.028 211.344C161.361 211.344 160.764 211.489 160.239 211.781C159.72 212.065 159.308 212.462 159.003 212.974C158.705 213.485 158.555 214.075 158.555 214.742V224H154.017ZM170.49 224.309C169.446 224.309 168.516 224.128 167.699 223.766C166.882 223.396 166.236 222.853 165.76 222.136C165.291 221.411 165.057 220.509 165.057 219.43C165.057 218.521 165.224 217.757 165.557 217.139C165.891 216.521 166.346 216.024 166.921 215.648C167.496 215.271 168.15 214.987 168.881 214.795C169.62 214.604 170.394 214.469 171.204 214.391C172.155 214.291 172.922 214.199 173.505 214.114C174.087 214.021 174.51 213.886 174.773 213.709C175.035 213.531 175.167 213.268 175.167 212.92V212.857C175.167 212.182 174.954 211.66 174.528 211.29C174.109 210.921 173.512 210.737 172.738 210.737C171.921 210.737 171.271 210.918 170.788 211.28C170.305 211.635 169.986 212.082 169.829 212.622L165.632 212.281C165.845 211.287 166.264 210.428 166.889 209.703C167.514 208.972 168.32 208.411 169.307 208.02C170.302 207.622 171.452 207.423 172.759 207.423C173.668 207.423 174.538 207.53 175.369 207.743C176.207 207.956 176.949 208.286 177.596 208.734C178.249 209.181 178.764 209.756 179.141 210.46C179.517 211.156 179.705 211.99 179.705 212.963V224H175.401V221.731H175.273C175.011 222.242 174.659 222.693 174.219 223.084C173.778 223.467 173.249 223.769 172.631 223.989C172.013 224.202 171.3 224.309 170.49 224.309ZM171.79 221.177C172.457 221.177 173.047 221.045 173.558 220.783C174.07 220.513 174.471 220.151 174.762 219.696C175.053 219.241 175.199 218.727 175.199 218.151V216.415C175.057 216.507 174.861 216.592 174.613 216.67C174.371 216.741 174.098 216.809 173.793 216.873C173.487 216.93 173.182 216.983 172.876 217.033C172.571 217.075 172.294 217.114 172.045 217.15C171.513 217.228 171.047 217.352 170.65 217.523C170.252 217.693 169.943 217.924 169.723 218.215C169.503 218.499 169.393 218.854 169.393 219.281C169.393 219.898 169.616 220.371 170.064 220.697C170.518 221.017 171.094 221.177 171.79 221.177ZM196.841 212.303L192.686 212.558C192.615 212.203 192.463 211.884 192.228 211.599C191.994 211.308 191.685 211.077 191.301 210.907C190.925 210.729 190.474 210.641 189.948 210.641C189.245 210.641 188.652 210.79 188.169 211.088C187.686 211.379 187.445 211.77 187.445 212.26C187.445 212.651 187.601 212.981 187.914 213.251C188.226 213.521 188.762 213.737 189.522 213.901L192.484 214.497C194.075 214.824 195.261 215.349 196.042 216.074C196.823 216.798 197.214 217.75 197.214 218.929C197.214 220.001 196.898 220.942 196.266 221.752C195.641 222.562 194.782 223.194 193.688 223.648C192.601 224.096 191.348 224.32 189.927 224.32C187.761 224.32 186.035 223.869 184.75 222.967C183.471 222.058 182.722 220.822 182.502 219.259L186.965 219.025C187.1 219.685 187.427 220.19 187.946 220.538C188.464 220.879 189.128 221.049 189.938 221.049C190.733 221.049 191.372 220.896 191.855 220.591C192.345 220.278 192.594 219.877 192.601 219.387C192.594 218.975 192.42 218.638 192.079 218.375C191.738 218.105 191.213 217.899 190.502 217.757L187.669 217.192C186.071 216.873 184.881 216.319 184.1 215.531C183.326 214.742 182.938 213.737 182.938 212.516C182.938 211.464 183.223 210.559 183.791 209.799C184.366 209.039 185.172 208.453 186.209 208.041C187.253 207.629 188.475 207.423 189.874 207.423C191.941 207.423 193.567 207.86 194.753 208.734C195.946 209.607 196.642 210.797 196.841 212.303ZM208.776 207.636V211.045H198.921V207.636H208.776ZM201.158 203.716H205.697V218.972C205.697 219.391 205.761 219.717 205.889 219.952C206.016 220.179 206.194 220.339 206.421 220.431C206.656 220.523 206.926 220.57 207.231 220.57C207.444 220.57 207.657 220.552 207.87 220.516C208.083 220.474 208.247 220.442 208.36 220.42L209.074 223.798C208.847 223.869 208.527 223.95 208.115 224.043C207.703 224.142 207.203 224.202 206.613 224.224C205.519 224.266 204.56 224.121 203.737 223.787C202.92 223.453 202.284 222.935 201.83 222.232C201.375 221.528 201.151 220.641 201.158 219.568V203.716ZM211.732 224V207.636H216.132V210.491H216.302C216.601 209.476 217.101 208.709 217.804 208.19C218.508 207.665 219.317 207.402 220.233 207.402C220.461 207.402 220.706 207.416 220.968 207.445C221.231 207.473 221.462 207.512 221.661 207.562V211.589C221.448 211.525 221.153 211.468 220.777 211.418C220.4 211.369 220.056 211.344 219.743 211.344C219.076 211.344 218.479 211.489 217.954 211.781C217.435 212.065 217.023 212.462 216.718 212.974C216.419 213.485 216.27 214.075 216.27 214.742V224H211.732ZM234.501 217.033V207.636H239.039V224H234.682V221.028H234.512C234.142 221.987 233.528 222.757 232.669 223.339C231.816 223.922 230.776 224.213 229.547 224.213C228.453 224.213 227.491 223.964 226.66 223.467C225.829 222.97 225.179 222.263 224.71 221.347C224.249 220.431 224.014 219.334 224.007 218.055V207.636H228.546V217.246C228.553 218.212 228.812 218.975 229.323 219.536C229.835 220.097 230.52 220.378 231.38 220.378C231.926 220.378 232.438 220.254 232.914 220.005C233.389 219.749 233.773 219.373 234.064 218.876C234.362 218.379 234.508 217.764 234.501 217.033ZM246.782 219.291L246.792 213.847H247.453L252.694 207.636H257.904L250.862 215.861H249.786L246.782 219.291ZM242.669 224V202.182H247.208V224H242.669ZM252.897 224L248.081 216.873L251.107 213.666L258.213 224H252.897ZM268.834 207.636V211.045H258.98V207.636H268.834ZM261.217 203.716H265.755V218.972C265.755 219.391 265.819 219.717 265.947 219.952C266.075 220.179 266.253 220.339 266.48 220.431C266.714 220.523 266.984 220.57 267.29 220.57C267.503 220.57 267.716 220.552 267.929 220.516C268.142 220.474 268.305 220.442 268.419 220.42L269.133 223.798C268.905 223.869 268.586 223.95 268.174 224.043C267.762 224.142 267.261 224.202 266.672 224.224C265.578 224.266 264.619 224.121 263.795 223.787C262.978 223.453 262.343 222.935 261.888 222.232C261.434 221.528 261.21 220.641 261.217 219.568V203.716ZM282.284 217.033V207.636H286.823V224H282.465V221.028H282.295C281.926 221.987 281.311 222.757 280.452 223.339C279.6 223.922 278.559 224.213 277.33 224.213C276.237 224.213 275.274 223.964 274.443 223.467C273.612 222.97 272.962 222.263 272.494 221.347C272.032 220.431 271.798 219.334 271.791 218.055V207.636H276.329V217.246C276.336 218.212 276.595 218.975 277.107 219.536C277.618 220.097 278.303 220.378 279.163 220.378C279.71 220.378 280.221 220.254 280.697 220.005C281.173 219.749 281.556 219.373 281.847 218.876C282.146 218.379 282.291 217.764 282.284 217.033ZM290.453 224V207.636H294.853V210.491H295.023C295.321 209.476 295.822 208.709 296.525 208.19C297.228 207.665 298.038 207.402 298.954 207.402C299.181 207.402 299.426 207.416 299.689 207.445C299.952 207.473 300.183 207.512 300.382 207.562V211.589C300.169 211.525 299.874 211.468 299.497 211.418C299.121 211.369 298.777 211.344 298.464 211.344C297.796 211.344 297.2 211.489 296.674 211.781C296.156 212.065 295.744 212.462 295.438 212.974C295.14 213.485 294.991 214.075 294.991 214.742V224H290.453ZM309.757 224V202.182H318.365C320.012 202.182 321.419 202.477 322.583 203.066C323.755 203.648 324.647 204.476 325.257 205.548C325.875 206.614 326.184 207.867 326.184 209.309C326.184 210.758 325.872 212.004 325.247 213.048C324.622 214.085 323.716 214.881 322.53 215.435C321.351 215.989 319.924 216.266 318.247 216.266H312.484V212.558H317.502C318.382 212.558 319.114 212.437 319.696 212.196C320.279 211.955 320.712 211.592 320.996 211.109C321.287 210.626 321.433 210.026 321.433 209.309C321.433 208.585 321.287 207.974 320.996 207.477C320.712 206.979 320.275 206.603 319.686 206.347C319.103 206.085 318.368 205.953 317.48 205.953H314.37V224H309.757ZM321.539 214.071L326.962 224H321.87L316.564 214.071H321.539ZM334.025 224.309C332.981 224.309 332.051 224.128 331.234 223.766C330.417 223.396 329.771 222.853 329.295 222.136C328.826 221.411 328.592 220.509 328.592 219.43C328.592 218.521 328.759 217.757 329.093 217.139C329.426 216.521 329.881 216.024 330.456 215.648C331.032 215.271 331.685 214.987 332.416 214.795C333.155 214.604 333.929 214.469 334.739 214.391C335.691 214.291 336.458 214.199 337.04 214.114C337.622 214.021 338.045 213.886 338.308 213.709C338.571 213.531 338.702 213.268 338.702 212.92V212.857C338.702 212.182 338.489 211.66 338.063 211.29C337.644 210.921 337.047 210.737 336.273 210.737C335.456 210.737 334.806 210.918 334.323 211.28C333.84 211.635 333.521 212.082 333.365 212.622L329.167 212.281C329.38 211.287 329.799 210.428 330.424 209.703C331.049 208.972 331.855 208.411 332.843 208.02C333.837 207.622 334.987 207.423 336.294 207.423C337.203 207.423 338.073 207.53 338.904 207.743C339.742 207.956 340.485 208.286 341.131 208.734C341.784 209.181 342.299 209.756 342.676 210.46C343.052 211.156 343.24 211.99 343.24 212.963V224H338.936V221.731H338.809C338.546 222.242 338.194 222.693 337.754 223.084C337.313 223.467 336.784 223.769 336.166 223.989C335.549 224.202 334.835 224.309 334.025 224.309ZM335.325 221.177C335.992 221.177 336.582 221.045 337.093 220.783C337.605 220.513 338.006 220.151 338.297 219.696C338.588 219.241 338.734 218.727 338.734 218.151V216.415C338.592 216.507 338.397 216.592 338.148 216.67C337.907 216.741 337.633 216.809 337.328 216.873C337.022 216.93 336.717 216.983 336.411 217.033C336.106 217.075 335.829 217.114 335.581 217.15C335.048 217.228 334.583 217.352 334.185 217.523C333.787 217.693 333.478 217.924 333.258 218.215C333.038 218.499 332.928 218.854 332.928 219.281C332.928 219.898 333.152 220.371 333.599 220.697C334.054 221.017 334.629 221.177 335.325 221.177ZM346.761 224V207.636H351.087V210.523H351.278C351.619 209.565 352.187 208.808 352.983 208.254C353.778 207.7 354.73 207.423 355.838 207.423C356.96 207.423 357.915 207.704 358.704 208.265C359.492 208.819 360.018 209.572 360.28 210.523H360.451C360.785 209.586 361.388 208.837 362.262 208.276C363.143 207.707 364.183 207.423 365.383 207.423C366.91 207.423 368.15 207.91 369.101 208.883C370.06 209.849 370.54 211.219 370.54 212.995V224H366.012V213.89C366.012 212.981 365.771 212.299 365.288 211.844C364.805 211.39 364.201 211.163 363.476 211.163C362.653 211.163 362.01 211.425 361.548 211.951C361.087 212.469 360.856 213.155 360.856 214.007V224H356.456V213.794C356.456 212.991 356.225 212.352 355.763 211.876C355.309 211.401 354.709 211.163 353.963 211.163C353.459 211.163 353.004 211.29 352.599 211.546C352.202 211.795 351.886 212.146 351.651 212.601C351.417 213.048 351.3 213.574 351.3 214.178V224H346.761ZM378.791 224.309C377.747 224.309 376.816 224.128 376 223.766C375.183 223.396 374.536 222.853 374.061 222.136C373.592 221.411 373.358 220.509 373.358 219.43C373.358 218.521 373.524 217.757 373.858 217.139C374.192 216.521 374.647 216.024 375.222 215.648C375.797 215.271 376.451 214.987 377.182 214.795C377.921 214.604 378.695 214.469 379.505 214.391C380.456 214.291 381.223 214.199 381.806 214.114C382.388 214.021 382.811 213.886 383.073 213.709C383.336 213.531 383.468 213.268 383.468 212.92V212.857C383.468 212.182 383.255 211.66 382.828 211.29C382.409 210.921 381.813 210.737 381.039 210.737C380.222 210.737 379.572 210.918 379.089 211.28C378.606 211.635 378.286 212.082 378.13 212.622L373.933 212.281C374.146 211.287 374.565 210.428 375.19 209.703C375.815 208.972 376.621 208.411 377.608 208.02C378.603 207.622 379.753 207.423 381.06 207.423C381.969 207.423 382.839 207.53 383.67 207.743C384.508 207.956 385.25 208.286 385.897 208.734C386.55 209.181 387.065 209.756 387.441 210.46C387.818 211.156 388.006 211.99 388.006 212.963V224H383.702V221.731H383.574C383.311 222.242 382.96 222.693 382.519 223.084C382.079 223.467 381.55 223.769 380.932 223.989C380.314 224.202 379.6 224.309 378.791 224.309ZM380.09 221.177C380.758 221.177 381.348 221.045 381.859 220.783C382.37 220.513 382.772 220.151 383.063 219.696C383.354 219.241 383.5 218.727 383.5 218.151V216.415C383.358 216.507 383.162 216.592 382.914 216.67C382.672 216.741 382.399 216.809 382.093 216.873C381.788 216.93 381.483 216.983 381.177 217.033C380.872 217.075 380.595 217.114 380.346 217.15C379.813 217.228 379.348 217.352 378.951 217.523C378.553 217.693 378.244 217.924 378.024 218.215C377.804 218.499 377.693 218.854 377.693 219.281C377.693 219.898 377.917 220.371 378.365 220.697C378.819 221.017 379.394 221.177 380.09 221.177ZM396.065 214.54V224H391.527V202.182H395.937V210.523H396.129C396.498 209.558 397.095 208.801 397.919 208.254C398.743 207.7 399.776 207.423 401.019 207.423C402.155 207.423 403.146 207.672 403.991 208.169C404.844 208.659 405.504 209.366 405.973 210.289C406.449 211.205 406.683 212.303 406.676 213.581V224H402.138V214.391C402.145 213.382 401.889 212.597 401.371 212.036C400.859 211.475 400.142 211.195 399.219 211.195C398.601 211.195 398.054 211.326 397.578 211.589C397.109 211.852 396.74 212.235 396.47 212.739C396.207 213.237 396.072 213.837 396.065 214.54ZM176.558 260V238.182H181.171V256.197H190.525V260H176.558ZM193.495 260V243.636H198.033V260H193.495ZM195.775 241.527C195.1 241.527 194.521 241.303 194.038 240.856C193.562 240.401 193.324 239.858 193.324 239.226C193.324 238.601 193.562 238.065 194.038 237.617C194.521 237.163 195.1 236.935 195.775 236.935C196.449 236.935 197.025 237.163 197.5 237.617C197.983 238.065 198.225 238.601 198.225 239.226C198.225 239.858 197.983 240.401 197.5 240.856C197.025 241.303 196.449 241.527 195.775 241.527ZM206.207 250.54V260H201.669V243.636H205.994V246.523H206.186C206.548 245.572 207.155 244.819 208.007 244.265C208.86 243.704 209.893 243.423 211.107 243.423C212.244 243.423 213.235 243.672 214.08 244.169C214.925 244.666 215.582 245.376 216.051 246.3C216.519 247.216 216.754 248.31 216.754 249.581V260H212.215V250.391C212.222 249.389 211.967 248.608 211.448 248.047C210.93 247.479 210.216 247.195 209.307 247.195C208.696 247.195 208.156 247.326 207.688 247.589C207.226 247.852 206.864 248.235 206.601 248.739C206.345 249.237 206.214 249.837 206.207 250.54ZM227.703 266.477C226.233 266.477 224.972 266.275 223.921 265.87C222.877 265.472 222.046 264.929 221.428 264.24C220.81 263.551 220.409 262.777 220.224 261.918L224.422 261.353C224.549 261.68 224.752 261.985 225.029 262.269C225.306 262.553 225.672 262.781 226.126 262.951C226.588 263.129 227.149 263.217 227.809 263.217C228.797 263.217 229.61 262.976 230.249 262.493C230.895 262.017 231.218 261.218 231.218 260.096V257.102H231.027C230.828 257.557 230.529 257.987 230.132 258.391C229.734 258.796 229.223 259.126 228.598 259.382C227.973 259.638 227.227 259.766 226.36 259.766C225.132 259.766 224.013 259.482 223.005 258.913C222.003 258.338 221.204 257.461 220.608 256.282C220.018 255.096 219.723 253.597 219.723 251.786C219.723 249.933 220.025 248.384 220.629 247.141C221.233 245.898 222.035 244.968 223.037 244.35C224.045 243.732 225.15 243.423 226.35 243.423C227.266 243.423 228.033 243.58 228.651 243.892C229.269 244.197 229.766 244.581 230.142 245.043C230.526 245.497 230.821 245.945 231.027 246.385H231.197V243.636H235.703V260.16C235.703 261.552 235.363 262.717 234.681 263.654C233.999 264.592 233.054 265.295 231.847 265.763C230.647 266.239 229.265 266.477 227.703 266.477ZM227.799 256.357C228.53 256.357 229.148 256.175 229.652 255.813C230.164 255.444 230.554 254.918 230.824 254.237C231.101 253.548 231.24 252.724 231.24 251.765C231.24 250.806 231.105 249.975 230.835 249.272C230.565 248.562 230.174 248.011 229.663 247.621C229.152 247.23 228.53 247.035 227.799 247.035C227.053 247.035 226.424 247.237 225.913 247.642C225.402 248.04 225.015 248.594 224.752 249.304C224.489 250.014 224.358 250.835 224.358 251.765C224.358 252.71 224.489 253.526 224.752 254.215C225.022 254.897 225.409 255.426 225.913 255.803C226.424 256.172 227.053 256.357 227.799 256.357ZM243.427 255.291L243.438 249.847H244.098L249.34 243.636H254.549L247.507 251.861H246.431L243.427 255.291ZM239.315 260V238.182H243.853V260H239.315ZM249.542 260L244.727 252.873L247.752 249.666L254.858 260H249.542ZM267.27 253.033V243.636H271.808V260H267.451V257.028H267.28C266.911 257.987 266.297 258.757 265.437 259.339C264.585 259.922 263.544 260.213 262.316 260.213C261.222 260.213 260.26 259.964 259.429 259.467C258.598 258.97 257.948 258.263 257.479 257.347C257.017 256.431 256.783 255.334 256.776 254.055V243.636H261.314V253.246C261.321 254.212 261.581 254.975 262.092 255.536C262.603 256.097 263.289 256.378 264.148 256.378C264.695 256.378 265.206 256.254 265.682 256.005C266.158 255.749 266.542 255.373 266.833 254.876C267.131 254.379 267.277 253.764 267.27 253.033ZM279.976 250.54V260H275.438V243.636H279.763V246.523H279.955C280.317 245.572 280.925 244.819 281.777 244.265C282.629 243.704 283.662 243.423 284.877 243.423C286.013 243.423 287.004 243.672 287.849 244.169C288.694 244.666 289.351 245.376 289.82 246.3C290.289 247.216 290.523 248.31 290.523 249.581V260H285.985V250.391C285.992 249.389 285.736 248.608 285.218 248.047C284.699 247.479 283.986 247.195 283.077 247.195C282.466 247.195 281.926 247.326 281.457 247.589C280.996 247.852 280.633 248.235 280.371 248.739C280.115 249.237 279.983 249.837 279.976 250.54ZM301.472 266.477C300.002 266.477 298.741 266.275 297.69 265.87C296.646 265.472 295.815 264.929 295.197 264.24C294.58 263.551 294.178 262.777 293.994 261.918L298.191 261.353C298.319 261.68 298.521 261.985 298.798 262.269C299.075 262.553 299.441 262.781 299.896 262.951C300.357 263.129 300.918 263.217 301.579 263.217C302.566 263.217 303.379 262.976 304.018 262.493C304.665 262.017 304.988 261.218 304.988 260.096V257.102H304.796C304.597 257.557 304.299 257.987 303.901 258.391C303.504 258.796 302.992 259.126 302.367 259.382C301.742 259.638 300.996 259.766 300.13 259.766C298.901 259.766 297.783 259.482 296.774 258.913C295.773 258.338 294.974 257.461 294.377 256.282C293.788 255.096 293.493 253.597 293.493 251.786C293.493 249.933 293.795 248.384 294.398 247.141C295.002 245.898 295.805 244.968 296.806 244.35C297.815 243.732 298.919 243.423 300.119 243.423C301.036 243.423 301.803 243.58 302.42 243.892C303.038 244.197 303.536 244.581 303.912 245.043C304.295 245.497 304.59 245.945 304.796 246.385H304.967V243.636H309.473V260.16C309.473 261.552 309.132 262.717 308.45 263.654C307.768 264.592 306.824 265.295 305.616 265.763C304.416 266.239 303.035 266.477 301.472 266.477ZM301.568 256.357C302.3 256.357 302.918 256.175 303.422 255.813C303.933 255.444 304.324 254.918 304.594 254.237C304.871 253.548 305.009 252.724 305.009 251.765C305.009 250.806 304.874 249.975 304.604 249.272C304.335 248.562 303.944 248.011 303.433 247.621C302.921 247.23 302.3 247.035 301.568 247.035C300.822 247.035 300.194 247.237 299.683 247.642C299.171 248.04 298.784 248.594 298.521 249.304C298.259 250.014 298.127 250.835 298.127 251.765C298.127 252.71 298.259 253.526 298.521 254.215C298.791 254.897 299.178 255.426 299.683 255.803C300.194 256.172 300.822 256.357 301.568 256.357ZM317.751 260.309C316.707 260.309 315.776 260.128 314.96 259.766C314.143 259.396 313.496 258.853 313.021 258.136C312.552 257.411 312.317 256.509 312.317 255.43C312.317 254.521 312.484 253.757 312.818 253.139C313.152 252.521 313.607 252.024 314.182 251.648C314.757 251.271 315.411 250.987 316.142 250.795C316.881 250.604 317.655 250.469 318.464 250.391C319.416 250.291 320.183 250.199 320.766 250.114C321.348 250.021 321.771 249.886 322.033 249.709C322.296 249.531 322.428 249.268 322.428 248.92V248.857C322.428 248.182 322.214 247.66 321.788 247.29C321.369 246.921 320.773 246.737 319.999 246.737C319.182 246.737 318.532 246.918 318.049 247.28C317.566 247.635 317.246 248.082 317.09 248.622L312.893 248.281C313.106 247.287 313.525 246.428 314.15 245.703C314.775 244.972 315.581 244.411 316.568 244.02C317.563 243.622 318.713 243.423 320.02 243.423C320.929 243.423 321.799 243.53 322.63 243.743C323.468 243.956 324.21 244.286 324.857 244.734C325.51 245.181 326.025 245.756 326.401 246.46C326.778 247.156 326.966 247.99 326.966 248.963V260H322.662V257.731H322.534C322.271 258.242 321.92 258.693 321.479 259.084C321.039 259.467 320.51 259.769 319.892 259.989C319.274 260.202 318.56 260.309 317.751 260.309ZM319.05 257.177C319.718 257.177 320.308 257.045 320.819 256.783C321.33 256.513 321.732 256.151 322.023 255.696C322.314 255.241 322.46 254.727 322.46 254.151V252.415C322.317 252.507 322.122 252.592 321.874 252.67C321.632 252.741 321.359 252.809 321.053 252.873C320.748 252.93 320.442 252.983 320.137 253.033C319.832 253.075 319.555 253.114 319.306 253.15C318.773 253.228 318.308 253.352 317.911 253.523C317.513 253.693 317.204 253.924 316.984 254.215C316.763 254.499 316.653 254.854 316.653 255.281C316.653 255.898 316.877 256.371 317.325 256.697C317.779 257.017 318.354 257.177 319.05 257.177ZM335.025 250.54V260H330.487V243.636H334.812V246.523H335.004C335.366 245.572 335.973 244.819 336.826 244.265C337.678 243.704 338.711 243.423 339.926 243.423C341.062 243.423 342.053 243.672 342.898 244.169C343.743 244.666 344.4 245.376 344.869 246.3C345.338 247.216 345.572 248.31 345.572 249.581V260H341.034V250.391C341.041 249.389 340.785 248.608 340.267 248.047C339.748 247.479 339.034 247.195 338.125 247.195C337.515 247.195 336.975 247.326 336.506 247.589C336.044 247.852 335.682 248.235 335.419 248.739C335.164 249.237 335.032 249.837 335.025 250.54Z" fill="white"/>
</g>
</g>
<defs>
<filter id="filter0_d_457_299" x="105.22" y="129.883" width="311.707" height="144.594" filterUnits="userSpaceOnUse" color-interpolation-filters="sRGB">
<feFlood flood-opacity="0" result="BackgroundImageFix"/>
<feColorMatrix in="SourceAlpha" type="matrix" values="0 0 0 0 0 0 0 0 0 0 0 0 0 0 0 0 0 0 127 0" result="hardAlpha"/>
<feOffset dy="4"/>
<feGaussianBlur stdDeviation="2"/>
<feComposite in2="hardAlpha" operator="out"/>
<feColorMatrix type="matrix" values="0 0 0 0 0 0 0 0 0 0 0 0 0 0 0 0 0 0 0.25 0"/>
<feBlend mode="normal" in2="BackgroundImageFix" result="effect1_dropShadow_457_299"/>
<feBlend mode="normal" in="SourceGraphic" in2="effect1_dropShadow_457_299" result="shape"/>
</filter>
<linearGradient id="paint0_linear_457_299" x1="521" y1="260.5" x2="910" y2="260.5" gradientUnits="userSpaceOnUse">
<stop stop-color="#0E96A0"/>
<stop offset="1" stop-color="#05373A"/>
</linearGradient>
</defs>
</svg>
