<svg width="521" height="389" viewBox="0 0 521 389" fill="none" xmlns="http://www.w3.org/2000/svg">
<mask id="mask0_457_314" style="mask-type:alpha" maskUnits="userSpaceOnUse" x="0" y="0" width="521" height="389">
<rect x="521" width="389" height="521" rx="10" transform="rotate(90 521 0)" fill="#FFDA46"/>
</mask>
<g mask="url(#mask0_457_314)">
<rect x="521" width="389" height="521" rx="10" transform="rotate(90 521 0)" fill="#FFDA46"/>
<rect x="521" width="389" height="521" rx="10" transform="rotate(90 521 0)" fill="url(#paint0_linear_457_314)"/>
<path d="M245.988 341.591C217.826 355.124 185.466 350.638 162.284 329.806C161.649 329.237 160.692 329.229 160.057 329.798L147.613 341.038C147.465 341.17 147.234 341.311 147.25 341.508C147.374 342.91 152.231 348.691 153.658 350.712C169.706 373.415 172.164 403.202 159.357 427.926C159.018 428.577 158.276 428.94 157.559 428.791C128.415 422.837 106.454 392.91 105.126 363.742C102.421 304.555 166.177 266.67 216.819 297.999C230.361 306.377 245.287 323.58 246.936 339.95C247.002 340.634 246.623 341.294 246.005 341.591H245.988Z" fill="#40A6AA" fill-opacity="0.5"/>
<path d="M30.2208 428.725C29.2559 427.661 25.0418 415.365 24.4563 413.065C19.4176 393.281 22.0235 373.439 32.67 355.94C34.3111 353.235 43.333 343.174 42.0548 341.228C41.3703 340.18 29.3384 328.445 28.3818 328.981C26.0644 330.276 23.2193 333.509 20.5062 335.422C-2.52687 351.676 -31.5305 353.754 -56.6417 341.162C-57.3344 340.815 -57.6973 340.024 -57.5076 339.273C-44.6675 287.773 21.4628 269.737 60.8078 305.709C99.2456 340.848 88.995 406.624 40.6941 426.622C38.385 427.579 31.8948 430.564 30.2208 428.725Z" fill="#40A6AA" fill-opacity="0.5"/>
<path d="M-57.0043 211.598C-28.38 198.164 3.74091 202.354 27.4172 223.152C28.0769 223.729 29.0748 223.713 29.6933 223.086L41.3046 211.474C41.9231 210.856 41.9478 209.875 41.3788 209.207C20.861 185.456 15.8058 153.583 29.9984 125.14C30.3447 124.447 31.1282 124.084 31.8786 124.266C83.5029 136.916 101.695 203.409 65.5087 242.589C34.097 276.599 -21.9558 273.605 -48.1473 235.06C-50.2997 231.893 -58.4969 217.626 -57.9526 212.876C-57.8867 212.316 -57.5156 211.837 -57.0043 211.598Z" fill="#40A6AA" fill-opacity="0.5"/>
<path d="M158.092 124.356C158.81 124.257 159.519 124.653 159.816 125.313C171.79 151.406 169.976 178.438 153.639 202.288C152.221 204.366 147.306 211.714 147.586 211.953C150.778 214.715 159.981 223.399 159.981 223.399C160.575 223.943 170.809 216.274 176.136 213.297C198.122 201.018 223.687 200.746 246.126 211.862C246.786 212.192 247.157 212.926 247.017 213.652C241.681 241.451 212.653 263.816 185.018 266.035C124.965 270.851 84.2845 207.054 115.803 155.051C124.33 140.982 141.418 126.715 158.084 124.348L158.092 124.356Z" fill="#40A6AA" fill-opacity="0.5"/>
<path d="M108.938 130.962C104.147 136.289 99.2484 142.095 96.1394 148.816C95.9415 149.245 95.5704 149.574 95.1168 149.715C94.3169 149.954 93.4675 149.574 93.1294 148.808C90.7378 143.406 86.7299 137.534 83.0354 133.065C75.6711 124.142 67.3584 121.783 65.7503 108.63C63.4165 89.5385 81.7902 77.6715 93.4675 65.5159C94.0447 64.9139 94.9766 64.8232 95.6446 65.3262C100.271 68.8146 114.843 83.6669 116.624 85.9512C121.688 92.4496 124.764 100.449 123.84 108.786C122.62 119.771 115.61 123.548 108.938 130.962Z" fill="#40A6AA" fill-opacity="0.5"/>
<path d="M223.861 277.934C222.607 277.25 222.558 275.46 223.762 274.693C228.108 271.931 236.198 266.669 239.876 263.461C246.259 257.895 248.279 251.834 256.806 249.063C279.592 241.657 291.549 261.631 305.709 275.254C306.311 275.831 306.402 276.755 305.899 277.423C302.369 282.107 287.104 297.025 284.68 298.856C279.814 302.543 272.73 305.684 266.512 305.808C250.011 306.13 245.467 293.397 234.128 284.853C231.398 282.792 227.448 279.881 223.869 277.926L223.861 277.934Z" fill="#40A6AA" fill-opacity="0.5"/>
<path d="M94.3812 237.237C95.1646 236.998 95.9893 237.377 96.3521 238.111C101.811 249.186 111.221 260.196 120.903 267.544C124.721 270.438 129.306 272.475 133.083 275.188C133.611 275.568 135.169 275.361 134.386 277.019C134.031 277.761 123.104 283.822 120.903 285.472C116.375 288.869 107.535 297.594 104.129 302.114C102.578 304.167 98.554 311.622 95.9563 314.772C95.2223 315.663 93.8204 315.515 93.2514 314.517C86.8932 303.417 78.8362 293.158 68.5195 285.464C66.4991 283.963 59.5224 280.326 56.4629 277.819C55.5475 277.068 55.6794 275.65 56.7185 275.073C72.1563 266.554 85.1944 253.879 93.2596 238.103C93.4658 237.699 93.8204 237.402 94.2492 237.27L94.3729 237.237H94.3812Z" fill="#40A6AA" fill-opacity="0.5"/>
<g filter="url(#filter0_d_457_314)">
<path d="M76.6414 130.182H82.3303L88.3389 144.841H88.5945L94.6031 130.182H100.292V152H95.8176V137.799H95.6365L89.9901 151.893H86.9433L81.297 137.746H81.1159V152H76.6414V130.182ZM108.674 152.309C107.63 152.309 106.699 152.128 105.882 151.766C105.066 151.396 104.419 150.853 103.943 150.136C103.475 149.411 103.24 148.509 103.24 147.43C103.24 146.521 103.407 145.757 103.741 145.139C104.075 144.521 104.529 144.024 105.105 143.648C105.68 143.271 106.333 142.987 107.065 142.795C107.804 142.604 108.578 142.469 109.387 142.391C110.339 142.291 111.106 142.199 111.688 142.114C112.271 142.021 112.693 141.886 112.956 141.709C113.219 141.531 113.35 141.268 113.35 140.92V140.857C113.35 140.182 113.137 139.66 112.711 139.29C112.292 138.921 111.696 138.737 110.921 138.737C110.105 138.737 109.455 138.918 108.972 139.28C108.489 139.635 108.169 140.082 108.013 140.622L103.816 140.281C104.029 139.287 104.448 138.428 105.073 137.703C105.698 136.972 106.504 136.411 107.491 136.02C108.485 135.622 109.636 135.423 110.943 135.423C111.852 135.423 112.722 135.53 113.553 135.743C114.391 135.956 115.133 136.286 115.779 136.734C116.433 137.181 116.948 137.756 117.324 138.46C117.701 139.156 117.889 139.99 117.889 140.963V152H113.585V149.731H113.457C113.194 150.242 112.843 150.693 112.402 151.084C111.962 151.467 111.433 151.769 110.815 151.989C110.197 152.202 109.483 152.309 108.674 152.309ZM109.973 149.177C110.641 149.177 111.23 149.045 111.742 148.783C112.253 148.513 112.654 148.151 112.946 147.696C113.237 147.241 113.382 146.727 113.382 146.151V144.415C113.24 144.507 113.045 144.592 112.796 144.67C112.555 144.741 112.282 144.809 111.976 144.873C111.671 144.93 111.365 144.983 111.06 145.033C110.755 145.075 110.478 145.114 110.229 145.15C109.696 145.228 109.231 145.352 108.833 145.523C108.436 145.693 108.127 145.924 107.907 146.215C107.686 146.499 107.576 146.854 107.576 147.281C107.576 147.898 107.8 148.371 108.247 148.697C108.702 149.017 109.277 149.177 109.973 149.177ZM125.948 142.54V152H121.41V135.636H125.735V138.523H125.927C126.289 137.572 126.896 136.819 127.748 136.265C128.601 135.704 129.634 135.423 130.849 135.423C131.985 135.423 132.976 135.672 133.821 136.169C134.666 136.666 135.323 137.376 135.792 138.3C136.261 139.216 136.495 140.31 136.495 141.581V152H131.957V142.391C131.964 141.389 131.708 140.608 131.19 140.047C130.671 139.479 129.957 139.195 129.048 139.195C128.437 139.195 127.898 139.326 127.429 139.589C126.967 139.852 126.605 140.235 126.342 140.739C126.087 141.237 125.955 141.837 125.948 142.54ZM144.738 152.309C143.694 152.309 142.764 152.128 141.947 151.766C141.13 151.396 140.484 150.853 140.008 150.136C139.539 149.411 139.305 148.509 139.305 147.43C139.305 146.521 139.472 145.757 139.805 145.139C140.139 144.521 140.594 144.024 141.169 143.648C141.744 143.271 142.398 142.987 143.129 142.795C143.868 142.604 144.642 142.469 145.452 142.391C146.403 142.291 147.171 142.199 147.753 142.114C148.335 142.021 148.758 141.886 149.021 141.709C149.283 141.531 149.415 141.268 149.415 140.92V140.857C149.415 140.182 149.202 139.66 148.776 139.29C148.357 138.921 147.76 138.737 146.986 138.737C146.169 138.737 145.519 138.918 145.036 139.28C144.553 139.635 144.234 140.082 144.078 140.622L139.88 140.281C140.093 139.287 140.512 138.428 141.137 137.703C141.762 136.972 142.568 136.411 143.555 136.02C144.55 135.622 145.7 135.423 147.007 135.423C147.916 135.423 148.786 135.53 149.617 135.743C150.455 135.956 151.198 136.286 151.844 136.734C152.497 137.181 153.012 137.756 153.389 138.46C153.765 139.156 153.953 139.99 153.953 140.963V152H149.649V149.731H149.521C149.259 150.242 148.907 150.693 148.467 151.084C148.026 151.467 147.497 151.769 146.879 151.989C146.261 152.202 145.548 152.309 144.738 152.309ZM146.038 149.177C146.705 149.177 147.295 149.045 147.806 148.783C148.318 148.513 148.719 148.151 149.01 147.696C149.301 147.241 149.447 146.727 149.447 146.151V144.415C149.305 144.507 149.109 144.592 148.861 144.67C148.619 144.741 148.346 144.809 148.041 144.873C147.735 144.93 147.43 144.983 147.124 145.033C146.819 145.075 146.542 145.114 146.293 145.15C145.761 145.228 145.296 145.352 144.898 145.523C144.5 145.693 144.191 145.924 143.971 146.215C143.751 146.499 143.641 146.854 143.641 147.281C143.641 147.898 143.864 148.371 144.312 148.697C144.766 149.017 145.342 149.177 146.038 149.177ZM157.474 135.636H162.013V152.81C162.013 154.074 161.764 155.097 161.267 155.878C160.77 156.659 160.056 157.231 159.125 157.593C158.202 157.955 157.098 158.136 155.812 158.136C155.656 158.136 155.507 158.133 155.365 158.126C155.216 158.126 155.059 158.122 154.896 158.115V154.567C155.017 154.575 155.123 154.578 155.216 154.578C155.301 154.585 155.393 154.589 155.493 154.589C156.224 154.589 156.736 154.433 157.027 154.12C157.325 153.815 157.474 153.353 157.474 152.735V135.636ZM159.733 133.527C159.065 133.527 158.49 133.303 158.007 132.856C157.524 132.401 157.282 131.858 157.282 131.226C157.282 130.601 157.524 130.065 158.007 129.617C158.49 129.163 159.065 128.935 159.733 128.935C160.415 128.935 160.993 129.163 161.469 129.617C161.952 130.065 162.194 130.601 162.194 131.226C162.194 131.858 161.952 132.401 161.469 132.856C160.993 133.303 160.415 133.527 159.733 133.527ZM173.105 152.32C171.422 152.32 169.973 151.979 168.759 151.297C167.551 150.608 166.621 149.635 165.968 148.378C165.314 147.114 164.987 145.619 164.987 143.893C164.987 142.21 165.314 140.732 165.968 139.461C166.621 138.19 167.541 137.199 168.727 136.489C169.92 135.778 171.319 135.423 172.924 135.423C174.004 135.423 175.009 135.597 175.939 135.945C176.877 136.286 177.693 136.801 178.389 137.49C179.093 138.179 179.639 139.045 180.03 140.089C180.421 141.126 180.616 142.341 180.616 143.733V144.979H166.799V142.167H176.344C176.344 141.513 176.202 140.935 175.918 140.43C175.634 139.926 175.24 139.532 174.735 139.248C174.238 138.957 173.659 138.811 172.999 138.811C172.31 138.811 171.699 138.971 171.166 139.29C170.641 139.603 170.229 140.026 169.931 140.558C169.632 141.084 169.48 141.67 169.473 142.316V144.99C169.473 145.8 169.622 146.499 169.92 147.089C170.225 147.678 170.655 148.133 171.209 148.452C171.763 148.772 172.42 148.932 173.18 148.932C173.684 148.932 174.146 148.861 174.565 148.719C174.984 148.577 175.343 148.364 175.641 148.08C175.939 147.795 176.166 147.447 176.323 147.036L180.52 147.312C180.307 148.321 179.87 149.202 179.21 149.955C178.556 150.7 177.711 151.283 176.674 151.702C175.644 152.114 174.455 152.32 173.105 152.32ZM183.578 152V135.636H187.903V138.523H188.095C188.436 137.565 189.004 136.808 189.799 136.254C190.595 135.7 191.546 135.423 192.654 135.423C193.777 135.423 194.732 135.704 195.52 136.265C196.309 136.819 196.834 137.572 197.097 138.523H197.267C197.601 137.586 198.205 136.837 199.078 136.276C199.959 135.707 201 135.423 202.2 135.423C203.727 135.423 204.966 135.91 205.918 136.883C206.877 137.849 207.356 139.219 207.356 140.995V152H202.828V141.89C202.828 140.981 202.587 140.299 202.104 139.844C201.621 139.39 201.017 139.163 200.293 139.163C199.469 139.163 198.826 139.425 198.365 139.951C197.903 140.469 197.672 141.155 197.672 142.007V152H193.272V141.794C193.272 140.991 193.041 140.352 192.58 139.876C192.125 139.401 191.525 139.163 190.779 139.163C190.275 139.163 189.821 139.29 189.416 139.546C189.018 139.795 188.702 140.146 188.468 140.601C188.233 141.048 188.116 141.574 188.116 142.178V152H183.578ZM218.398 152.32C216.715 152.32 215.266 151.979 214.052 151.297C212.844 150.608 211.914 149.635 211.261 148.378C210.607 147.114 210.28 145.619 210.28 143.893C210.28 142.21 210.607 140.732 211.261 139.461C211.914 138.19 212.834 137.199 214.02 136.489C215.213 135.778 216.612 135.423 218.217 135.423C219.297 135.423 220.302 135.597 221.232 135.945C222.17 136.286 222.986 136.801 223.682 137.49C224.386 138.179 224.932 139.045 225.323 140.089C225.714 141.126 225.909 142.341 225.909 143.733V144.979H212.092V142.167H221.637C221.637 141.513 221.495 140.935 221.211 140.43C220.927 139.926 220.533 139.532 220.028 139.248C219.531 138.957 218.952 138.811 218.292 138.811C217.603 138.811 216.992 138.971 216.459 139.29C215.934 139.603 215.522 140.026 215.224 140.558C214.925 141.084 214.773 141.67 214.766 142.316V144.99C214.766 145.8 214.915 146.499 215.213 147.089C215.518 147.678 215.948 148.133 216.502 148.452C217.056 148.772 217.713 148.932 218.473 148.932C218.977 148.932 219.439 148.861 219.858 148.719C220.277 148.577 220.636 148.364 220.934 148.08C221.232 147.795 221.459 147.447 221.616 147.036L225.813 147.312C225.6 148.321 225.163 149.202 224.503 149.955C223.849 150.7 223.004 151.283 221.967 151.702C220.937 152.114 219.748 152.32 218.398 152.32ZM233.409 142.54V152H228.871V135.636H233.196V138.523H233.388C233.75 137.572 234.357 136.819 235.209 136.265C236.062 135.704 237.095 135.423 238.31 135.423C239.446 135.423 240.437 135.672 241.282 136.169C242.127 136.666 242.784 137.376 243.253 138.3C243.722 139.216 243.956 140.31 243.956 141.581V152H239.418V142.391C239.425 141.389 239.169 140.608 238.65 140.047C238.132 139.479 237.418 139.195 236.509 139.195C235.898 139.195 235.359 139.326 234.89 139.589C234.428 139.852 234.066 140.235 233.803 140.739C233.547 141.237 233.416 141.837 233.409 142.54ZM254.561 152V130.182H259.174V139.802H259.462L267.313 130.182H272.843L264.746 139.951L272.938 152H267.42L261.443 143.03L259.174 145.8V152H254.561ZM281.416 152.32C279.733 152.32 278.284 151.979 277.069 151.297C275.862 150.608 274.932 149.635 274.278 148.378C273.625 147.114 273.298 145.619 273.298 143.893C273.298 142.21 273.625 140.732 274.278 139.461C274.932 138.19 275.851 137.199 277.037 136.489C278.231 135.778 279.63 135.423 281.235 135.423C282.314 135.423 283.319 135.597 284.25 135.945C285.187 136.286 286.004 136.801 286.7 137.49C287.403 138.179 287.95 139.045 288.341 140.089C288.731 141.126 288.927 142.341 288.927 143.733V144.979H275.109V142.167H284.655C284.655 141.513 284.513 140.935 284.228 140.43C283.944 139.926 283.55 139.532 283.046 139.248C282.549 138.957 281.97 138.811 281.309 138.811C280.62 138.811 280.01 138.971 279.477 139.29C278.951 139.603 278.54 140.026 278.241 140.558C277.943 141.084 277.79 141.67 277.783 142.316V144.99C277.783 145.8 277.932 146.499 278.231 147.089C278.536 147.678 278.966 148.133 279.52 148.452C280.074 148.772 280.731 148.932 281.491 148.932C281.995 148.932 282.456 148.861 282.875 148.719C283.294 148.577 283.653 148.364 283.951 148.08C284.25 147.795 284.477 147.447 284.633 147.036L288.831 147.312C288.618 148.321 288.181 149.202 287.52 149.955C286.867 150.7 286.022 151.283 284.985 151.702C283.955 152.114 282.765 152.32 281.416 152.32ZM300.592 135.636V139.045H290.738V135.636H300.592ZM292.975 131.716H297.513V146.972C297.513 147.391 297.577 147.717 297.705 147.952C297.833 148.179 298.01 148.339 298.238 148.431C298.472 148.523 298.742 148.57 299.047 148.57C299.26 148.57 299.473 148.552 299.687 148.516C299.9 148.474 300.063 148.442 300.177 148.42L300.89 151.798C300.663 151.869 300.343 151.95 299.932 152.043C299.52 152.142 299.019 152.202 298.429 152.224C297.336 152.266 296.377 152.121 295.553 151.787C294.736 151.453 294.101 150.935 293.646 150.232C293.191 149.528 292.968 148.641 292.975 147.568V131.716ZM310.83 152.32C309.147 152.32 307.698 151.979 306.483 151.297C305.276 150.608 304.346 149.635 303.692 148.378C303.039 147.114 302.712 145.619 302.712 143.893C302.712 142.21 303.039 140.732 303.692 139.461C304.346 138.19 305.265 137.199 306.451 136.489C307.645 135.778 309.044 135.423 310.649 135.423C311.728 135.423 312.733 135.597 313.664 135.945C314.601 136.286 315.418 136.801 316.114 137.49C316.817 138.179 317.364 139.045 317.755 140.089C318.145 141.126 318.341 142.341 318.341 143.733V144.979H304.523V142.167H314.069C314.069 141.513 313.927 140.935 313.642 140.43C313.358 139.926 312.964 139.532 312.46 139.248C311.963 138.957 311.384 138.811 310.723 138.811C310.035 138.811 309.424 138.971 308.891 139.29C308.366 139.603 307.954 140.026 307.655 140.558C307.357 141.084 307.204 141.67 307.197 142.316V144.99C307.197 145.8 307.346 146.499 307.645 147.089C307.95 147.678 308.38 148.133 308.934 148.452C309.488 148.772 310.145 148.932 310.905 148.932C311.409 148.932 311.87 148.861 312.29 148.719C312.709 148.577 313.067 148.364 313.366 148.08C313.664 147.795 313.891 147.447 314.047 147.036L318.245 147.312C318.032 148.321 317.595 149.202 316.934 149.955C316.281 150.7 315.436 151.283 314.399 151.702C313.369 152.114 312.179 152.32 310.83 152.32ZM321.302 152V135.636H325.702V138.491H325.873C326.171 137.476 326.672 136.709 327.375 136.19C328.078 135.665 328.888 135.402 329.804 135.402C330.031 135.402 330.276 135.416 330.539 135.445C330.802 135.473 331.032 135.512 331.231 135.562V139.589C331.018 139.525 330.723 139.468 330.347 139.418C329.971 139.369 329.626 139.344 329.314 139.344C328.646 139.344 328.049 139.489 327.524 139.781C327.005 140.065 326.593 140.462 326.288 140.974C325.99 141.485 325.841 142.075 325.841 142.742V152H321.302ZM347.193 140.303L343.038 140.558C342.967 140.203 342.814 139.884 342.58 139.599C342.345 139.308 342.036 139.077 341.653 138.907C341.277 138.729 340.826 138.641 340.3 138.641C339.597 138.641 339.004 138.79 338.521 139.088C338.038 139.379 337.796 139.77 337.796 140.26C337.796 140.651 337.953 140.981 338.265 141.251C338.578 141.521 339.114 141.737 339.874 141.901L342.835 142.497C344.426 142.824 345.612 143.349 346.394 144.074C347.175 144.798 347.566 145.75 347.566 146.929C347.566 148.001 347.25 148.942 346.617 149.752C345.992 150.562 345.133 151.194 344.039 151.648C342.953 152.096 341.699 152.32 340.279 152.32C338.112 152.32 336.387 151.869 335.101 150.967C333.823 150.058 333.073 148.822 332.853 147.259L337.317 147.025C337.452 147.685 337.779 148.19 338.297 148.538C338.816 148.879 339.48 149.049 340.289 149.049C341.085 149.049 341.724 148.896 342.207 148.591C342.697 148.278 342.946 147.877 342.953 147.387C342.946 146.975 342.772 146.638 342.431 146.375C342.09 146.105 341.564 145.899 340.854 145.757L338.02 145.192C336.422 144.873 335.233 144.319 334.451 143.531C333.677 142.742 333.29 141.737 333.29 140.516C333.29 139.464 333.574 138.559 334.142 137.799C334.718 137.039 335.524 136.453 336.561 136.041C337.605 135.629 338.826 135.423 340.225 135.423C342.292 135.423 343.919 135.86 345.105 136.734C346.298 137.607 346.994 138.797 347.193 140.303ZM357.881 152.32C356.198 152.32 354.749 151.979 353.534 151.297C352.327 150.608 351.396 149.635 350.743 148.378C350.09 147.114 349.763 145.619 349.763 143.893C349.763 142.21 350.09 140.732 350.743 139.461C351.396 138.19 352.316 137.199 353.502 136.489C354.695 135.778 356.095 135.423 357.7 135.423C358.779 135.423 359.784 135.597 360.715 135.945C361.652 136.286 362.469 136.801 363.165 137.49C363.868 138.179 364.415 139.045 364.805 140.089C365.196 141.126 365.391 142.341 365.391 143.733V144.979H351.574V142.167H361.119C361.119 141.513 360.977 140.935 360.693 140.43C360.409 139.926 360.015 139.532 359.511 139.248C359.014 138.957 358.435 138.811 357.774 138.811C357.085 138.811 356.475 138.971 355.942 139.29C355.416 139.603 355.004 140.026 354.706 140.558C354.408 141.084 354.255 141.67 354.248 142.316V144.99C354.248 145.8 354.397 146.499 354.695 147.089C355.001 147.678 355.43 148.133 355.984 148.452C356.538 148.772 357.195 148.932 357.955 148.932C358.46 148.932 358.921 148.861 359.34 148.719C359.759 148.577 360.118 148.364 360.416 148.08C360.715 147.795 360.942 147.447 361.098 147.036L365.296 147.312C365.082 148.321 364.646 149.202 363.985 149.955C363.332 150.7 362.487 151.283 361.45 151.702C360.42 152.114 359.23 152.32 357.881 152.32ZM374.383 152.266C373.14 152.266 372.014 151.947 371.006 151.308C370.004 150.661 369.209 149.713 368.619 148.463C368.037 147.206 367.746 145.665 367.746 143.839C367.746 141.964 368.048 140.406 368.651 139.163C369.255 137.913 370.058 136.979 371.059 136.361C372.068 135.736 373.172 135.423 374.372 135.423C375.288 135.423 376.052 135.58 376.663 135.892C377.281 136.197 377.778 136.581 378.154 137.043C378.538 137.497 378.829 137.945 379.028 138.385H379.166V130.182H383.694V152H379.22V149.379H379.028C378.815 149.834 378.513 150.285 378.122 150.732C377.739 151.173 377.238 151.538 376.62 151.83C376.009 152.121 375.264 152.266 374.383 152.266ZM375.821 148.655C376.553 148.655 377.171 148.456 377.675 148.058C378.186 147.653 378.577 147.089 378.847 146.364C379.124 145.64 379.262 144.791 379.262 143.818C379.262 142.845 379.127 142 378.857 141.283C378.587 140.565 378.197 140.011 377.685 139.621C377.174 139.23 376.553 139.035 375.821 139.035C375.075 139.035 374.447 139.237 373.935 139.642C373.424 140.047 373.037 140.608 372.774 141.325C372.511 142.043 372.38 142.874 372.38 143.818C372.38 144.77 372.511 145.612 372.774 146.343C373.044 147.067 373.431 147.636 373.935 148.048C374.447 148.452 375.075 148.655 375.821 148.655ZM387.425 152V135.636H391.964V152H387.425ZM389.705 133.527C389.03 133.527 388.452 133.303 387.969 132.856C387.493 132.401 387.255 131.858 387.255 131.226C387.255 130.601 387.493 130.065 387.969 129.617C388.452 129.163 389.03 128.935 389.705 128.935C390.38 128.935 390.955 129.163 391.431 129.617C391.914 130.065 392.155 130.601 392.155 131.226C392.155 131.858 391.914 132.401 391.431 132.856C390.955 133.303 390.38 133.527 389.705 133.527ZM400.265 152.309C399.221 152.309 398.291 152.128 397.474 151.766C396.657 151.396 396.011 150.853 395.535 150.136C395.066 149.411 394.832 148.509 394.832 147.43C394.832 146.521 394.999 145.757 395.333 145.139C395.667 144.521 396.121 144.024 396.696 143.648C397.272 143.271 397.925 142.987 398.657 142.795C399.395 142.604 400.169 142.469 400.979 142.391C401.931 142.291 402.698 142.199 403.28 142.114C403.863 142.021 404.285 141.886 404.548 141.709C404.811 141.531 404.942 141.268 404.942 140.92V140.857C404.942 140.182 404.729 139.66 404.303 139.29C403.884 138.921 403.287 138.737 402.513 138.737C401.696 138.737 401.047 138.918 400.564 139.28C400.081 139.635 399.761 140.082 399.605 140.622L395.407 140.281C395.62 139.287 396.04 138.428 396.665 137.703C397.29 136.972 398.096 136.411 399.083 136.02C400.077 135.622 401.228 135.423 402.535 135.423C403.444 135.423 404.314 135.53 405.145 135.743C405.983 135.956 406.725 136.286 407.371 136.734C408.025 137.181 408.54 137.756 408.916 138.46C409.292 139.156 409.481 139.99 409.481 140.963V152H405.177V149.731H405.049C404.786 150.242 404.434 150.693 403.994 151.084C403.554 151.467 403.025 151.769 402.407 151.989C401.789 152.202 401.075 152.309 400.265 152.309ZM401.565 149.177C402.233 149.177 402.822 149.045 403.334 148.783C403.845 148.513 404.246 148.151 404.537 147.696C404.829 147.241 404.974 146.727 404.974 146.151V144.415C404.832 144.507 404.637 144.592 404.388 144.67C404.147 144.741 403.873 144.809 403.568 144.873C403.263 144.93 402.957 144.983 402.652 145.033C402.346 145.075 402.069 145.114 401.821 145.15C401.288 145.228 400.823 145.352 400.425 145.523C400.027 145.693 399.718 145.924 399.498 146.215C399.278 146.499 399.168 146.854 399.168 147.281C399.168 147.898 399.392 148.371 399.839 148.697C400.294 149.017 400.869 149.177 401.565 149.177ZM417.668 152.309C416.624 152.309 415.693 152.128 414.877 151.766C414.06 151.396 413.413 150.853 412.938 150.136C412.469 149.411 412.234 148.509 412.234 147.43C412.234 146.521 412.401 145.757 412.735 145.139C413.069 144.521 413.524 144.024 414.099 143.648C414.674 143.271 415.328 142.987 416.059 142.795C416.798 142.604 417.572 142.469 418.381 142.391C419.333 142.291 420.1 142.199 420.683 142.114C421.265 142.021 421.688 141.886 421.95 141.709C422.213 141.531 422.345 141.268 422.345 140.92V140.857C422.345 140.182 422.131 139.66 421.705 139.29C421.286 138.921 420.69 138.737 419.916 138.737C419.099 138.737 418.449 138.918 417.966 139.28C417.483 139.635 417.163 140.082 417.007 140.622L412.81 140.281C413.023 139.287 413.442 138.428 414.067 137.703C414.692 136.972 415.498 136.411 416.485 136.02C417.479 135.622 418.63 135.423 419.937 135.423C420.846 135.423 421.716 135.53 422.547 135.743C423.385 135.956 424.127 136.286 424.774 136.734C425.427 137.181 425.942 137.756 426.318 138.46C426.695 139.156 426.883 139.99 426.883 140.963V152H422.579V149.731H422.451C422.188 150.242 421.837 150.693 421.396 151.084C420.956 151.467 420.427 151.769 419.809 151.989C419.191 152.202 418.477 152.309 417.668 152.309ZM418.967 149.177C419.635 149.177 420.225 149.045 420.736 148.783C421.247 148.513 421.649 148.151 421.94 147.696C422.231 147.241 422.377 146.727 422.377 146.151V144.415C422.234 144.507 422.039 144.592 421.791 144.67C421.549 144.741 421.276 144.809 420.97 144.873C420.665 144.93 420.359 144.983 420.054 145.033C419.749 145.075 419.472 145.114 419.223 145.15C418.69 145.228 418.225 145.352 417.828 145.523C417.43 145.693 417.121 145.924 416.901 146.215C416.68 146.499 416.57 146.854 416.57 147.281C416.57 147.898 416.794 148.371 417.242 148.697C417.696 149.017 418.271 149.177 418.967 149.177ZM434.942 142.54V152H430.404V135.636H434.729V138.523H434.921C435.283 137.572 435.89 136.819 436.743 136.265C437.595 135.704 438.628 135.423 439.843 135.423C440.979 135.423 441.97 135.672 442.815 136.169C443.66 136.666 444.317 137.376 444.786 138.3C445.255 139.216 445.489 140.31 445.489 141.581V152H440.951V142.391C440.958 141.389 440.702 140.608 440.184 140.047C439.665 139.479 438.951 139.195 438.042 139.195C437.432 139.195 436.892 139.326 436.423 139.589C435.961 139.852 435.599 140.235 435.336 140.739C435.081 141.237 434.949 141.837 434.942 142.54ZM99.8552 188H94.912L102.444 166.182H108.389L115.91 188H110.967L105.502 171.168H105.331L99.8552 188ZM99.5463 179.424H111.222V183.025H99.5463V179.424ZM118.539 188V171.636H123.077V188H118.539ZM120.818 169.527C120.144 169.527 119.565 169.303 119.082 168.856C118.606 168.401 118.368 167.858 118.368 167.226C118.368 166.601 118.606 166.065 119.082 165.617C119.565 165.163 120.144 164.935 120.818 164.935C121.493 164.935 122.068 165.163 122.544 165.617C123.027 166.065 123.269 166.601 123.269 167.226C123.269 167.858 123.027 168.401 122.544 168.856C122.068 169.303 121.493 169.527 120.818 169.527ZM126.712 188V171.636H131.112V174.491H131.283C131.581 173.476 132.082 172.709 132.785 172.19C133.488 171.665 134.298 171.402 135.214 171.402C135.441 171.402 135.686 171.416 135.949 171.445C136.212 171.473 136.443 171.512 136.641 171.562V175.589C136.428 175.525 136.134 175.468 135.757 175.418C135.381 175.369 135.036 175.344 134.724 175.344C134.056 175.344 133.46 175.489 132.934 175.781C132.416 176.065 132.004 176.462 131.698 176.974C131.4 177.485 131.251 178.075 131.251 178.742V188H126.712ZM146.016 188V166.182H154.752C156.357 166.182 157.696 166.42 158.769 166.896C159.841 167.371 160.647 168.032 161.187 168.877C161.727 169.715 161.997 170.681 161.997 171.775C161.997 172.627 161.826 173.376 161.485 174.023C161.144 174.662 160.676 175.187 160.079 175.599C159.489 176.004 158.815 176.292 158.055 176.462V176.675C158.886 176.711 159.663 176.945 160.388 177.379C161.119 177.812 161.712 178.419 162.167 179.2C162.622 179.974 162.849 180.898 162.849 181.97C162.849 183.128 162.561 184.161 161.986 185.07C161.418 185.972 160.576 186.686 159.461 187.212C158.346 187.737 156.972 188 155.338 188H146.016ZM150.629 184.229H154.39C155.676 184.229 156.613 183.984 157.203 183.494C157.792 182.996 158.087 182.336 158.087 181.512C158.087 180.908 157.941 180.376 157.65 179.914C157.359 179.452 156.943 179.09 156.403 178.827C155.871 178.565 155.235 178.433 154.497 178.433H150.629V184.229ZM150.629 175.312H154.049C154.681 175.312 155.242 175.202 155.732 174.982C156.229 174.754 156.62 174.435 156.904 174.023C157.195 173.611 157.341 173.117 157.341 172.542C157.341 171.754 157.06 171.118 156.499 170.635C155.945 170.152 155.157 169.911 154.134 169.911H150.629V175.312ZM173.223 188.32C171.539 188.32 170.09 187.979 168.876 187.297C167.669 186.608 166.738 185.635 166.085 184.378C165.431 183.114 165.105 181.619 165.105 179.893C165.105 178.21 165.431 176.732 166.085 175.461C166.738 174.19 167.658 173.199 168.844 172.489C170.037 171.778 171.436 171.423 173.041 171.423C174.121 171.423 175.126 171.597 176.056 171.945C176.994 172.286 177.811 172.801 178.507 173.49C179.21 174.179 179.757 175.045 180.147 176.089C180.538 177.126 180.733 178.341 180.733 179.733V180.979H166.916V178.167H176.461C176.461 177.513 176.319 176.935 176.035 176.43C175.751 175.926 175.357 175.532 174.853 175.248C174.355 174.957 173.777 174.811 173.116 174.811C172.427 174.811 171.816 174.971 171.284 175.29C170.758 175.603 170.346 176.026 170.048 176.558C169.75 177.084 169.597 177.67 169.59 178.316V180.99C169.59 181.8 169.739 182.499 170.037 183.089C170.343 183.678 170.772 184.133 171.326 184.452C171.88 184.772 172.537 184.932 173.297 184.932C173.801 184.932 174.263 184.861 174.682 184.719C175.101 184.577 175.46 184.364 175.758 184.08C176.056 183.795 176.284 183.447 176.44 183.036L180.637 183.312C180.424 184.321 179.987 185.202 179.327 185.955C178.674 186.7 177.828 187.283 176.791 187.702C175.762 188.114 174.572 188.32 173.223 188.32ZM183.695 188V171.636H188.095V174.491H188.265C188.563 173.476 189.064 172.709 189.767 172.19C190.47 171.665 191.28 171.402 192.196 171.402C192.424 171.402 192.669 171.416 192.931 171.445C193.194 171.473 193.425 171.512 193.624 171.562V175.589C193.411 175.525 193.116 175.468 192.74 175.418C192.363 175.369 192.019 175.344 191.706 175.344C191.039 175.344 190.442 175.489 189.916 175.781C189.398 176.065 188.986 176.462 188.681 176.974C188.382 177.485 188.233 178.075 188.233 178.742V188H183.695ZM209.585 176.303L205.43 176.558C205.359 176.203 205.207 175.884 204.972 175.599C204.738 175.308 204.429 175.077 204.046 174.907C203.669 174.729 203.218 174.641 202.693 174.641C201.989 174.641 201.396 174.79 200.913 175.088C200.43 175.379 200.189 175.77 200.189 176.26C200.189 176.651 200.345 176.981 200.658 177.251C200.97 177.521 201.506 177.737 202.266 177.901L205.228 178.497C206.819 178.824 208.005 179.349 208.786 180.074C209.568 180.798 209.958 181.75 209.958 182.929C209.958 184.001 209.642 184.942 209.01 185.752C208.385 186.562 207.526 187.194 206.432 187.648C205.345 188.096 204.092 188.32 202.671 188.32C200.505 188.32 198.779 187.869 197.494 186.967C196.215 186.058 195.466 184.822 195.246 183.259L199.71 183.025C199.845 183.685 200.171 184.19 200.69 184.538C201.208 184.879 201.872 185.049 202.682 185.049C203.477 185.049 204.117 184.896 204.6 184.591C205.09 184.278 205.338 183.877 205.345 183.387C205.338 182.975 205.164 182.638 204.823 182.375C204.482 182.105 203.957 181.899 203.247 181.757L200.413 181.192C198.815 180.873 197.625 180.319 196.844 179.531C196.07 178.742 195.683 177.737 195.683 176.516C195.683 175.464 195.967 174.559 196.535 173.799C197.11 173.039 197.916 172.453 198.953 172.041C199.997 171.629 201.219 171.423 202.618 171.423C204.685 171.423 206.311 171.86 207.497 172.734C208.69 173.607 209.386 174.797 209.585 176.303ZM212.816 188V171.636H217.354V188H212.816ZM215.096 169.527C214.421 169.527 213.842 169.303 213.359 168.856C212.883 168.401 212.646 167.858 212.646 167.226C212.646 166.601 212.883 166.065 213.359 165.617C213.842 165.163 214.421 164.935 215.096 164.935C215.771 164.935 216.346 165.163 216.822 165.617C217.305 166.065 217.546 166.601 217.546 167.226C217.546 167.858 217.305 168.401 216.822 168.856C216.346 169.303 215.771 169.527 215.096 169.527ZM225.528 178.54V188H220.99V166.182H225.4V174.523H225.592C225.961 173.558 226.558 172.801 227.382 172.254C228.206 171.7 229.239 171.423 230.482 171.423C231.618 171.423 232.609 171.672 233.454 172.169C234.307 172.659 234.967 173.366 235.436 174.289C235.912 175.205 236.146 176.303 236.139 177.581V188H231.601V178.391C231.608 177.382 231.352 176.597 230.834 176.036C230.322 175.475 229.605 175.195 228.682 175.195C228.064 175.195 227.517 175.326 227.041 175.589C226.572 175.852 226.203 176.235 225.933 176.739C225.67 177.237 225.535 177.837 225.528 178.54ZM246.654 188V171.636H250.979V174.523H251.171C251.512 173.565 252.08 172.808 252.875 172.254C253.671 171.7 254.623 171.423 255.731 171.423C256.853 171.423 257.808 171.704 258.596 172.265C259.385 172.819 259.91 173.572 260.173 174.523H260.343C260.677 173.586 261.281 172.837 262.155 172.276C263.035 171.707 264.076 171.423 265.276 171.423C266.803 171.423 268.042 171.91 268.994 172.883C269.953 173.849 270.432 175.219 270.432 176.995V188H265.905V177.89C265.905 176.981 265.663 176.299 265.18 175.844C264.697 175.39 264.093 175.163 263.369 175.163C262.545 175.163 261.902 175.425 261.441 175.951C260.979 176.469 260.748 177.155 260.748 178.007V188H256.348V177.794C256.348 176.991 256.118 176.352 255.656 175.876C255.201 175.401 254.601 175.163 253.856 175.163C253.351 175.163 252.897 175.29 252.492 175.546C252.094 175.795 251.778 176.146 251.544 176.601C251.309 177.048 251.192 177.574 251.192 178.178V188H246.654ZM281.475 188.32C279.791 188.32 278.342 187.979 277.128 187.297C275.921 186.608 274.99 185.635 274.337 184.378C273.683 183.114 273.357 181.619 273.357 179.893C273.357 178.21 273.683 176.732 274.337 175.461C274.99 174.19 275.91 173.199 277.096 172.489C278.289 171.778 279.688 171.423 281.293 171.423C282.373 171.423 283.378 171.597 284.308 171.945C285.246 172.286 286.063 172.801 286.759 173.49C287.462 174.179 288.009 175.045 288.399 176.089C288.79 177.126 288.985 178.341 288.985 179.733V180.979H275.168V178.167H284.713C284.713 177.513 284.571 176.935 284.287 176.43C284.003 175.926 283.609 175.532 283.104 175.248C282.607 174.957 282.028 174.811 281.368 174.811C280.679 174.811 280.068 174.971 279.536 175.29C279.01 175.603 278.598 176.026 278.3 176.558C278.002 177.084 277.849 177.67 277.842 178.316V180.99C277.842 181.8 277.991 182.499 278.289 183.089C278.595 183.678 279.024 184.133 279.578 184.452C280.132 184.772 280.789 184.932 281.549 184.932C282.053 184.932 282.515 184.861 282.934 184.719C283.353 184.577 283.712 184.364 284.01 184.08C284.308 183.795 284.536 183.447 284.692 183.036L288.889 183.312C288.676 184.321 288.239 185.202 287.579 185.955C286.926 186.7 286.08 187.283 285.043 187.702C284.014 188.114 282.824 188.32 281.475 188.32ZM296.485 166.182V188H291.947V166.182H296.485ZM304.787 188.309C303.743 188.309 302.812 188.128 301.996 187.766C301.179 187.396 300.533 186.853 300.057 186.136C299.588 185.411 299.354 184.509 299.354 183.43C299.354 182.521 299.521 181.757 299.854 181.139C300.188 180.521 300.643 180.024 301.218 179.648C301.793 179.271 302.447 178.987 303.178 178.795C303.917 178.604 304.691 178.469 305.501 178.391C306.452 178.291 307.219 178.199 307.802 178.114C308.384 178.021 308.807 177.886 309.07 177.709C309.332 177.531 309.464 177.268 309.464 176.92V176.857C309.464 176.182 309.251 175.66 308.824 175.29C308.405 174.921 307.809 174.737 307.035 174.737C306.218 174.737 305.568 174.918 305.085 175.28C304.602 175.635 304.283 176.082 304.126 176.622L299.929 176.281C300.142 175.287 300.561 174.428 301.186 173.703C301.811 172.972 302.617 172.411 303.604 172.02C304.599 171.622 305.749 171.423 307.056 171.423C307.965 171.423 308.835 171.53 309.666 171.743C310.504 171.956 311.246 172.286 311.893 172.734C312.546 173.181 313.061 173.756 313.437 174.46C313.814 175.156 314.002 175.99 314.002 176.963V188H309.698V185.731H309.57C309.307 186.242 308.956 186.693 308.516 187.084C308.075 187.467 307.546 187.769 306.928 187.989C306.31 188.202 305.597 188.309 304.787 188.309ZM306.087 185.177C306.754 185.177 307.344 185.045 307.855 184.783C308.366 184.513 308.768 184.151 309.059 183.696C309.35 183.241 309.496 182.727 309.496 182.151V180.415C309.354 180.507 309.158 180.592 308.91 180.67C308.668 180.741 308.395 180.809 308.089 180.873C307.784 180.93 307.479 180.983 307.173 181.033C306.868 181.075 306.591 181.114 306.342 181.15C305.81 181.228 305.344 181.352 304.947 181.523C304.549 181.693 304.24 181.924 304.02 182.215C303.8 182.499 303.69 182.854 303.69 183.281C303.69 183.898 303.913 184.371 304.361 184.697C304.815 185.017 305.391 185.177 306.087 185.177ZM322.061 166.182V188H317.523V166.182H322.061ZM336.19 181.033V171.636H340.729V188H336.372V185.028H336.201C335.832 185.987 335.217 186.757 334.358 187.339C333.506 187.922 332.465 188.213 331.237 188.213C330.143 188.213 329.18 187.964 328.35 187.467C327.519 186.97 326.869 186.263 326.4 185.347C325.938 184.431 325.704 183.334 325.697 182.055V171.636H330.235V181.246C330.242 182.212 330.502 182.975 331.013 183.536C331.524 184.097 332.21 184.378 333.069 184.378C333.616 184.378 334.127 184.254 334.603 184.005C335.079 183.749 335.462 183.373 335.754 182.876C336.052 182.379 336.198 181.764 336.19 181.033ZM344.359 188V171.636H348.897V188H344.359ZM346.639 169.527C345.964 169.527 345.385 169.303 344.902 168.856C344.426 168.401 344.188 167.858 344.188 167.226C344.188 166.601 344.426 166.065 344.902 165.617C345.385 165.163 345.964 164.935 346.639 164.935C347.313 164.935 347.889 165.163 348.365 165.617C348.848 166.065 349.089 166.601 349.089 167.226C349.089 167.858 348.848 168.401 348.365 168.856C347.889 169.303 347.313 169.527 346.639 169.527ZM364.174 166.182V188H359.561V166.182H364.174ZM367.97 188V166.182H376.578C378.232 166.182 379.642 166.498 380.807 167.13C381.972 167.755 382.859 168.625 383.47 169.74C384.088 170.848 384.397 172.126 384.397 173.575C384.397 175.024 384.085 176.303 383.46 177.411C382.835 178.518 381.929 179.381 380.743 179.999C379.564 180.617 378.136 180.926 376.46 180.926H370.974V177.229H375.715C376.602 177.229 377.334 177.077 377.909 176.771C378.492 176.459 378.925 176.029 379.209 175.482C379.5 174.928 379.646 174.293 379.646 173.575C379.646 172.851 379.5 172.219 379.209 171.679C378.925 171.132 378.492 170.71 377.909 170.411C377.327 170.106 376.588 169.953 375.693 169.953H372.582V188H367.97ZM388.634 188H383.691L391.223 166.182H397.168L404.689 188H399.746L394.281 171.168H394.11L388.634 188ZM388.326 179.424H400.002V183.025H388.326V179.424ZM407.315 188V166.182H411.928V175.184H421.293V166.182H425.895V188H421.293V178.987H411.928V188H407.315ZM98.9004 213.091C98.9004 210.449 99.252 208.016 99.9551 205.793C100.665 203.57 101.748 201.511 103.204 199.614H107.54C106.986 200.317 106.471 201.177 105.996 202.192C105.52 203.201 105.104 204.309 104.749 205.516C104.394 206.724 104.117 207.974 103.918 209.266C103.719 210.552 103.62 211.827 103.62 213.091C103.62 214.774 103.79 216.475 104.131 218.194C104.479 219.906 104.948 221.496 105.537 222.967C106.134 224.437 106.802 225.641 107.54 226.578H103.204C101.748 224.682 100.665 222.622 99.9551 220.399C99.252 218.176 98.9004 215.74 98.9004 213.091ZM114.873 202.182V224H110.26V202.182H114.873ZM123.121 214.54V224H118.583V207.636H122.908V210.523H123.1C123.462 209.572 124.069 208.819 124.921 208.265C125.774 207.704 126.807 207.423 128.021 207.423C129.158 207.423 130.149 207.672 130.994 208.169C131.839 208.666 132.496 209.376 132.965 210.3C133.433 211.216 133.668 212.31 133.668 213.581V224H129.129V214.391C129.137 213.389 128.881 212.608 128.362 212.047C127.844 211.479 127.13 211.195 126.221 211.195C125.61 211.195 125.07 211.326 124.602 211.589C124.14 211.852 123.778 212.235 123.515 212.739C123.259 213.237 123.128 213.837 123.121 214.54ZM150.86 212.303L146.705 212.558C146.634 212.203 146.481 211.884 146.247 211.599C146.012 211.308 145.703 211.077 145.32 210.907C144.944 210.729 144.493 210.641 143.967 210.641C143.264 210.641 142.671 210.79 142.188 211.088C141.705 211.379 141.463 211.77 141.463 212.26C141.463 212.651 141.62 212.981 141.932 213.251C142.245 213.521 142.781 213.737 143.541 213.901L146.502 214.497C148.093 214.824 149.279 215.349 150.061 216.074C150.842 216.798 151.233 217.75 151.233 218.929C151.233 220.001 150.917 220.942 150.284 221.752C149.659 222.562 148.8 223.194 147.706 223.648C146.62 224.096 145.366 224.32 143.946 224.32C141.779 224.32 140.054 223.869 138.768 222.967C137.49 222.058 136.74 220.822 136.52 219.259L140.984 219.025C141.119 219.685 141.446 220.19 141.964 220.538C142.483 220.879 143.147 221.049 143.956 221.049C144.752 221.049 145.391 220.896 145.874 220.591C146.364 220.278 146.613 219.877 146.62 219.387C146.613 218.975 146.439 218.638 146.098 218.375C145.757 218.105 145.231 217.899 144.521 217.757L141.687 217.192C140.089 216.873 138.9 216.319 138.118 215.531C137.344 214.742 136.957 213.737 136.957 212.516C136.957 211.464 137.241 210.559 137.809 209.799C138.385 209.039 139.191 208.453 140.228 208.041C141.272 207.629 142.493 207.423 143.892 207.423C145.959 207.423 147.586 207.86 148.772 208.734C149.965 209.607 150.661 210.797 150.86 212.303ZM162.794 207.636V211.045H152.94V207.636H162.794ZM155.177 203.716H159.715V218.972C159.715 219.391 159.779 219.717 159.907 219.952C160.035 220.179 160.213 220.339 160.44 220.431C160.674 220.523 160.944 220.57 161.249 220.57C161.463 220.57 161.676 220.552 161.889 220.516C162.102 220.474 162.265 220.442 162.379 220.42L163.093 223.798C162.865 223.869 162.546 223.95 162.134 224.043C161.722 224.142 161.221 224.202 160.632 224.224C159.538 224.266 158.579 224.121 157.755 223.787C156.938 223.453 156.303 222.935 155.848 222.232C155.394 221.528 155.17 220.641 155.177 219.568V203.716ZM170.417 224.309C169.373 224.309 168.442 224.128 167.626 223.766C166.809 223.396 166.162 222.853 165.687 222.136C165.218 221.411 164.983 220.509 164.983 219.43C164.983 218.521 165.15 217.757 165.484 217.139C165.818 216.521 166.273 216.024 166.848 215.648C167.423 215.271 168.077 214.987 168.808 214.795C169.547 214.604 170.321 214.469 171.131 214.391C172.082 214.291 172.849 214.199 173.432 214.114C174.014 214.021 174.437 213.886 174.699 213.709C174.962 213.531 175.094 213.268 175.094 212.92V212.857C175.094 212.182 174.881 211.66 174.454 211.29C174.035 210.921 173.439 210.737 172.665 210.737C171.848 210.737 171.198 210.918 170.715 211.28C170.232 211.635 169.912 212.082 169.756 212.622L165.559 212.281C165.772 211.287 166.191 210.428 166.816 209.703C167.441 208.972 168.247 208.411 169.234 208.02C170.229 207.622 171.379 207.423 172.686 207.423C173.595 207.423 174.465 207.53 175.296 207.743C176.134 207.956 176.876 208.286 177.523 208.734C178.176 209.181 178.691 209.756 179.067 210.46C179.444 211.156 179.632 211.99 179.632 212.963V224H175.328V221.731H175.2C174.937 222.242 174.586 222.693 174.145 223.084C173.705 223.467 173.176 223.769 172.558 223.989C171.94 224.202 171.226 224.309 170.417 224.309ZM171.716 221.177C172.384 221.177 172.974 221.045 173.485 220.783C173.996 220.513 174.398 220.151 174.689 219.696C174.98 219.241 175.126 218.727 175.126 218.151V216.415C174.983 216.507 174.788 216.592 174.54 216.67C174.298 216.741 174.025 216.809 173.719 216.873C173.414 216.93 173.108 216.983 172.803 217.033C172.498 217.075 172.221 217.114 171.972 217.15C171.439 217.228 170.974 217.352 170.577 217.523C170.179 217.693 169.87 217.924 169.65 218.215C169.43 218.499 169.319 218.854 169.319 219.281C169.319 219.898 169.543 220.371 169.991 220.697C170.445 221.017 171.02 221.177 171.716 221.177ZM187.691 202.182V224H183.153V202.182H187.691ZM195.993 224.309C194.949 224.309 194.018 224.128 193.202 223.766C192.385 223.396 191.739 222.853 191.263 222.136C190.794 221.411 190.56 220.509 190.56 219.43C190.56 218.521 190.727 217.757 191.06 217.139C191.394 216.521 191.849 216.024 192.424 215.648C192.999 215.271 193.653 214.987 194.384 214.795C195.123 214.604 195.897 214.469 196.707 214.391C197.658 214.291 198.425 214.199 199.008 214.114C199.59 214.021 200.013 213.886 200.276 213.709C200.538 213.531 200.67 213.268 200.67 212.92V212.857C200.67 212.182 200.457 211.66 200.031 211.29C199.612 210.921 199.015 210.737 198.241 210.737C197.424 210.737 196.774 210.918 196.291 211.28C195.808 211.635 195.489 212.082 195.332 212.622L191.135 212.281C191.348 211.287 191.767 210.428 192.392 209.703C193.017 208.972 193.823 208.411 194.81 208.02C195.805 207.622 196.955 207.423 198.262 207.423C199.171 207.423 200.041 207.53 200.872 207.743C201.71 207.956 202.452 208.286 203.099 208.734C203.752 209.181 204.267 209.756 204.643 210.46C205.02 211.156 205.208 211.99 205.208 212.963V224H200.904V221.731H200.776C200.513 222.242 200.162 222.693 199.722 223.084C199.281 223.467 198.752 223.769 198.134 223.989C197.516 224.202 196.803 224.309 195.993 224.309ZM197.293 221.177C197.96 221.177 198.55 221.045 199.061 220.783C199.572 220.513 199.974 220.151 200.265 219.696C200.556 219.241 200.702 218.727 200.702 218.151V216.415C200.56 216.507 200.364 216.592 200.116 216.67C199.874 216.741 199.601 216.809 199.295 216.873C198.99 216.93 198.685 216.983 198.379 217.033C198.074 217.075 197.797 217.114 197.548 217.15C197.016 217.228 196.55 217.352 196.153 217.523C195.755 217.693 195.446 217.924 195.226 218.215C195.006 218.499 194.896 218.854 194.896 219.281C194.896 219.898 195.119 220.371 195.567 220.697C196.021 221.017 196.597 221.177 197.293 221.177ZM222.344 212.303L218.189 212.558C218.118 212.203 217.966 211.884 217.731 211.599C217.497 211.308 217.188 211.077 216.804 210.907C216.428 210.729 215.977 210.641 215.451 210.641C214.748 210.641 214.155 210.79 213.672 211.088C213.189 211.379 212.948 211.77 212.948 212.26C212.948 212.651 213.104 212.981 213.417 213.251C213.729 213.521 214.265 213.737 215.025 213.901L217.987 214.497C219.578 214.824 220.764 215.349 221.545 216.074C222.326 216.798 222.717 217.75 222.717 218.929C222.717 220.001 222.401 220.942 221.769 221.752C221.144 222.562 220.284 223.194 219.191 223.648C218.104 224.096 216.85 224.32 215.43 224.32C213.264 224.32 211.538 223.869 210.252 222.967C208.974 222.058 208.225 220.822 208.005 219.259L212.468 219.025C212.603 219.685 212.93 220.19 213.449 220.538C213.967 220.879 214.631 221.049 215.441 221.049C216.236 221.049 216.875 220.896 217.358 220.591C217.848 220.278 218.097 219.877 218.104 219.387C218.097 218.975 217.923 218.638 217.582 218.375C217.241 218.105 216.716 217.899 216.005 217.757L213.172 217.192C211.574 216.873 210.384 216.319 209.603 215.531C208.828 214.742 208.441 213.737 208.441 212.516C208.441 211.464 208.725 210.559 209.294 209.799C209.869 209.039 210.675 208.453 211.712 208.041C212.756 207.629 213.978 207.423 215.377 207.423C217.444 207.423 219.07 207.86 220.256 208.734C221.449 209.607 222.145 210.797 222.344 212.303ZM225.575 224V207.636H230.113V224H225.575ZM227.855 205.527C227.18 205.527 226.601 205.303 226.118 204.856C225.642 204.401 225.404 203.858 225.404 203.226C225.404 202.601 225.642 202.065 226.118 201.617C226.601 201.163 227.18 200.935 227.855 200.935C228.529 200.935 229.105 201.163 229.58 201.617C230.063 202.065 230.305 202.601 230.305 203.226C230.305 203.858 230.063 204.401 229.58 204.856C229.105 205.303 228.529 205.527 227.855 205.527ZM240.777 224V202.182H249.385C251.04 202.182 252.45 202.498 253.615 203.13C254.779 203.755 255.667 204.625 256.278 205.74C256.896 206.848 257.205 208.126 257.205 209.575C257.205 211.024 256.892 212.303 256.267 213.411C255.642 214.518 254.737 215.381 253.551 215.999C252.372 216.617 250.944 216.926 249.268 216.926H243.781V213.229H248.522C249.41 213.229 250.142 213.077 250.717 212.771C251.299 212.459 251.732 212.029 252.017 211.482C252.308 210.928 252.453 210.293 252.453 209.575C252.453 208.851 252.308 208.219 252.017 207.679C251.732 207.132 251.299 206.71 250.717 206.411C250.134 206.106 249.396 205.953 248.501 205.953H245.39V224H240.777ZM267.309 224.32C265.626 224.32 264.177 223.979 262.963 223.297C261.756 222.608 260.825 221.635 260.172 220.378C259.518 219.114 259.192 217.619 259.192 215.893C259.192 214.21 259.518 212.732 260.172 211.461C260.825 210.19 261.745 209.199 262.931 208.489C264.124 207.778 265.523 207.423 267.128 207.423C268.208 207.423 269.213 207.597 270.143 207.945C271.081 208.286 271.898 208.801 272.594 209.49C273.297 210.179 273.844 211.045 274.234 212.089C274.625 213.126 274.82 214.341 274.82 215.733V216.979H261.003V214.167H270.548C270.548 213.513 270.406 212.935 270.122 212.43C269.838 211.926 269.444 211.532 268.939 211.248C268.442 210.957 267.863 210.811 267.203 210.811C266.514 210.811 265.903 210.971 265.371 211.29C264.845 211.603 264.433 212.026 264.135 212.558C263.836 213.084 263.684 213.67 263.677 214.316V216.99C263.677 217.8 263.826 218.499 264.124 219.089C264.43 219.678 264.859 220.133 265.413 220.452C265.967 220.772 266.624 220.932 267.384 220.932C267.888 220.932 268.35 220.861 268.769 220.719C269.188 220.577 269.547 220.364 269.845 220.08C270.143 219.795 270.371 219.447 270.527 219.036L274.724 219.312C274.511 220.321 274.074 221.202 273.414 221.955C272.76 222.7 271.915 223.283 270.878 223.702C269.849 224.114 268.659 224.32 267.309 224.32ZM277.782 224V207.636H282.107V210.523H282.299C282.64 209.565 283.208 208.808 284.003 208.254C284.799 207.7 285.751 207.423 286.858 207.423C287.981 207.423 288.936 207.704 289.724 208.265C290.513 208.819 291.038 209.572 291.301 210.523H291.471C291.805 209.586 292.409 208.837 293.282 208.276C294.163 207.707 295.204 207.423 296.404 207.423C297.931 207.423 299.17 207.91 300.122 208.883C301.081 209.849 301.56 211.219 301.56 212.995V224H297.032V213.89C297.032 212.981 296.791 212.299 296.308 211.844C295.825 211.39 295.221 211.163 294.497 211.163C293.673 211.163 293.03 211.425 292.569 211.951C292.107 212.469 291.876 213.155 291.876 214.007V224H287.476V213.794C287.476 212.991 287.246 212.352 286.784 211.876C286.329 211.401 285.729 211.163 284.983 211.163C284.479 211.163 284.025 211.29 283.62 211.546C283.222 211.795 282.906 212.146 282.672 212.601C282.437 213.048 282.32 213.574 282.32 214.178V224H277.782ZM309.811 224.309C308.767 224.309 307.837 224.128 307.02 223.766C306.203 223.396 305.557 222.853 305.081 222.136C304.612 221.411 304.378 220.509 304.378 219.43C304.378 218.521 304.545 217.757 304.879 217.139C305.213 216.521 305.667 216.024 306.242 215.648C306.818 215.271 307.471 214.987 308.203 214.795C308.941 214.604 309.715 214.469 310.525 214.391C311.477 214.291 312.244 214.199 312.826 214.114C313.409 214.021 313.831 213.886 314.094 213.709C314.357 213.531 314.488 213.268 314.488 212.92V212.857C314.488 212.182 314.275 211.66 313.849 211.29C313.43 210.921 312.833 210.737 312.059 210.737C311.242 210.737 310.593 210.918 310.11 211.28C309.627 211.635 309.307 212.082 309.151 212.622L304.953 212.281C305.166 211.287 305.585 210.428 306.21 209.703C306.835 208.972 307.642 208.411 308.629 208.02C309.623 207.622 310.774 207.423 312.08 207.423C312.99 207.423 313.86 207.53 314.691 207.743C315.529 207.956 316.271 208.286 316.917 208.734C317.57 209.181 318.085 209.756 318.462 210.46C318.838 211.156 319.026 211.99 319.026 212.963V224H314.722V221.731H314.595C314.332 222.242 313.98 222.693 313.54 223.084C313.1 223.467 312.57 223.769 311.953 223.989C311.335 224.202 310.621 224.309 309.811 224.309ZM311.111 221.177C311.779 221.177 312.368 221.045 312.879 220.783C313.391 220.513 313.792 220.151 314.083 219.696C314.374 219.241 314.52 218.727 314.52 218.151V216.415C314.378 216.507 314.183 216.592 313.934 216.67C313.693 216.741 313.419 216.809 313.114 216.873C312.808 216.93 312.503 216.983 312.198 217.033C311.892 217.075 311.615 217.114 311.367 217.15C310.834 217.228 310.369 217.352 309.971 217.523C309.573 217.693 309.264 217.924 309.044 218.215C308.824 218.499 308.714 218.854 308.714 219.281C308.714 219.898 308.938 220.371 309.385 220.697C309.84 221.017 310.415 221.177 311.111 221.177ZM327.086 214.54V224H322.547V207.636H326.873V210.523H327.064C327.427 209.572 328.034 208.819 328.886 208.265C329.738 207.704 330.772 207.423 331.986 207.423C333.123 207.423 334.113 207.672 334.959 208.169C335.804 208.666 336.461 209.376 336.93 210.3C337.398 211.216 337.633 212.31 337.633 213.581V224H333.094V214.391C333.101 213.389 332.846 212.608 332.327 212.047C331.809 211.479 331.095 211.195 330.186 211.195C329.575 211.195 329.035 211.326 328.567 211.589C328.105 211.852 327.743 212.235 327.48 212.739C327.224 213.237 327.093 213.837 327.086 214.54ZM348.667 224.32C346.984 224.32 345.535 223.979 344.32 223.297C343.113 222.608 342.183 221.635 341.529 220.378C340.876 219.114 340.549 217.619 340.549 215.893C340.549 214.21 340.876 212.732 341.529 211.461C342.183 210.19 343.102 209.199 344.288 208.489C345.482 207.778 346.881 207.423 348.486 207.423C349.565 207.423 350.57 207.597 351.501 207.945C352.438 208.286 353.255 208.801 353.951 209.49C354.654 210.179 355.201 211.045 355.592 212.089C355.982 213.126 356.178 214.341 356.178 215.733V216.979H342.36V214.167H351.906C351.906 213.513 351.763 212.935 351.479 212.43C351.195 211.926 350.801 211.532 350.297 211.248C349.8 210.957 349.221 210.811 348.56 210.811C347.871 210.811 347.261 210.971 346.728 211.29C346.202 211.603 345.79 212.026 345.492 212.558C345.194 213.084 345.041 213.67 345.034 214.316V216.99C345.034 217.8 345.183 218.499 345.482 219.089C345.787 219.678 346.217 220.133 346.771 220.452C347.325 220.772 347.982 220.932 348.741 220.932C349.246 220.932 349.707 220.861 350.126 220.719C350.545 220.577 350.904 220.364 351.202 220.08C351.501 219.795 351.728 219.447 351.884 219.036L356.082 219.312C355.869 220.321 355.432 221.202 354.771 221.955C354.118 222.7 353.273 223.283 352.236 223.702C351.206 224.114 350.016 224.32 348.667 224.32ZM363.678 214.54V224H359.139V207.636H363.464V210.523H363.656C364.018 209.572 364.626 208.819 365.478 208.265C366.33 207.704 367.364 207.423 368.578 207.423C369.714 207.423 370.705 207.672 371.55 208.169C372.396 208.666 373.053 209.376 373.521 210.3C373.99 211.216 374.224 212.31 374.224 213.581V224H369.686V214.391C369.693 213.389 369.438 212.608 368.919 212.047C368.401 211.479 367.687 211.195 366.778 211.195C366.167 211.195 365.627 211.326 365.158 211.589C364.697 211.852 364.335 212.235 364.072 212.739C363.816 213.237 363.685 213.837 363.678 214.54ZM388.591 224H383.647L391.179 202.182H397.124L404.645 224H399.702L394.237 207.168H394.066L388.591 224ZM388.282 215.424H399.958V219.025H388.282V215.424ZM407.274 224V207.636H411.812V224H407.274ZM409.554 205.527C408.879 205.527 408.3 205.303 407.817 204.856C407.341 204.401 407.104 203.858 407.104 203.226C407.104 202.601 407.341 202.065 407.817 201.617C408.3 201.163 408.879 200.935 409.554 200.935C410.229 200.935 410.804 201.163 411.28 201.617C411.763 202.065 412.004 202.601 412.004 203.226C412.004 203.858 411.763 204.401 411.28 204.856C410.804 205.303 410.229 205.527 409.554 205.527ZM415.448 224V207.636H419.848V210.491H420.018C420.316 209.476 420.817 208.709 421.52 208.19C422.223 207.665 423.033 207.402 423.949 207.402C424.176 207.402 424.422 207.416 424.684 207.445C424.947 207.473 425.178 207.512 425.377 207.562V211.589C425.164 211.525 424.869 211.468 424.493 211.418C424.116 211.369 423.772 211.344 423.459 211.344C422.792 211.344 422.195 211.489 421.669 211.781C421.151 212.065 420.739 212.462 420.434 212.974C420.135 213.485 419.986 214.075 419.986 214.742V224H415.448ZM214.117 260V238.182H218.73V247.184H228.094V238.182H232.697V260H228.094V250.987H218.73V260H214.117ZM246.908 253.033V243.636H251.447V260H247.089V257.028H246.919C246.55 257.987 245.935 258.757 245.076 259.339C244.224 259.922 243.183 260.213 241.954 260.213C240.861 260.213 239.898 259.964 239.067 259.467C238.236 258.97 237.586 258.263 237.118 257.347C236.656 256.431 236.422 255.334 236.415 254.055V243.636H240.953V253.246C240.96 254.212 241.219 254.975 241.731 255.536C242.242 256.097 242.927 256.378 243.787 256.378C244.334 256.378 244.845 256.254 245.321 256.005C245.797 255.749 246.18 255.373 246.471 254.876C246.77 254.379 246.915 253.764 246.908 253.033ZM255.077 243.636H259.615V260.81C259.615 262.074 259.366 263.097 258.869 263.878C258.372 264.659 257.658 265.231 256.728 265.593C255.805 265.955 254.7 266.136 253.415 266.136C253.259 266.136 253.109 266.133 252.967 266.126C252.818 266.126 252.662 266.122 252.499 266.115V262.567C252.619 262.575 252.726 262.578 252.818 262.578C252.903 262.585 252.996 262.589 253.095 262.589C253.827 262.589 254.338 262.433 254.629 262.12C254.928 261.815 255.077 261.353 255.077 260.735V243.636ZM257.335 241.527C256.668 241.527 256.092 241.303 255.609 240.856C255.126 240.401 254.885 239.858 254.885 239.226C254.885 238.601 255.126 238.065 255.609 237.617C256.092 237.163 256.668 236.935 257.335 236.935C258.017 236.935 258.596 237.163 259.072 237.617C259.555 238.065 259.796 238.601 259.796 239.226C259.796 239.858 259.555 240.401 259.072 240.856C258.596 241.303 258.017 241.527 257.335 241.527ZM267.917 260.309C266.873 260.309 265.942 260.128 265.126 259.766C264.309 259.396 263.662 258.853 263.187 258.136C262.718 257.411 262.483 256.509 262.483 255.43C262.483 254.521 262.65 253.757 262.984 253.139C263.318 252.521 263.773 252.024 264.348 251.648C264.923 251.271 265.577 250.987 266.308 250.795C267.047 250.604 267.821 250.469 268.631 250.391C269.582 250.291 270.349 250.199 270.932 250.114C271.514 250.021 271.937 249.886 272.199 249.709C272.462 249.531 272.594 249.268 272.594 248.92V248.857C272.594 248.182 272.381 247.66 271.954 247.29C271.535 246.921 270.939 246.737 270.165 246.737C269.348 246.737 268.698 246.918 268.215 247.28C267.732 247.635 267.412 248.082 267.256 248.622L263.059 248.281C263.272 247.287 263.691 246.428 264.316 245.703C264.941 244.972 265.747 244.411 266.734 244.02C267.729 243.622 268.879 243.423 270.186 243.423C271.095 243.423 271.965 243.53 272.796 243.743C273.634 243.956 274.376 244.286 275.023 244.734C275.676 245.181 276.191 245.756 276.567 246.46C276.944 247.156 277.132 247.99 277.132 248.963V260H272.828V257.731H272.7C272.437 258.242 272.086 258.693 271.645 259.084C271.205 259.467 270.676 259.769 270.058 259.989C269.44 260.202 268.726 260.309 267.917 260.309ZM269.216 257.177C269.884 257.177 270.474 257.045 270.985 256.783C271.496 256.513 271.898 256.151 272.189 255.696C272.48 255.241 272.626 254.727 272.626 254.151V252.415C272.483 252.507 272.288 252.592 272.04 252.67C271.798 252.741 271.525 252.809 271.219 252.873C270.914 252.93 270.608 252.983 270.303 253.033C269.998 253.075 269.721 253.114 269.472 253.15C268.939 253.228 268.474 253.352 268.077 253.523C267.679 253.693 267.37 253.924 267.15 254.215C266.93 254.499 266.819 254.854 266.819 255.281C266.819 255.898 267.043 256.371 267.491 256.697C267.945 257.017 268.52 257.177 269.216 257.177ZM285.191 250.54V260H280.653V243.636H284.978V246.523H285.17C285.532 245.572 286.139 244.819 286.992 244.265C287.844 243.704 288.877 243.423 290.092 243.423C291.228 243.423 292.219 243.672 293.064 244.169C293.909 244.666 294.566 245.376 295.035 246.3C295.504 247.216 295.738 248.31 295.738 249.581V260H291.2V250.391C291.207 249.389 290.951 248.608 290.433 248.047C289.914 247.479 289.2 247.195 288.291 247.195C287.681 247.195 287.141 247.326 286.672 247.589C286.21 247.852 285.848 248.235 285.585 248.739C285.33 249.237 285.198 249.837 285.191 250.54ZM306.964 251.254C306.964 253.903 306.609 256.339 305.899 258.562C305.196 260.785 304.116 262.844 302.66 264.741H298.324C298.878 264.038 299.393 263.178 299.869 262.163C300.345 261.147 300.76 260.039 301.115 258.839C301.471 257.631 301.748 256.381 301.946 255.089C302.145 253.796 302.245 252.518 302.245 251.254C302.245 249.57 302.071 247.873 301.723 246.161C301.382 244.442 300.913 242.852 300.316 241.388C299.727 239.918 299.063 238.714 298.324 237.777H302.66C304.116 239.673 305.196 241.733 305.899 243.956C306.609 246.179 306.964 248.612 306.964 251.254Z" fill="white"/>
</g>
</g>
<defs>
<filter id="filter0_d_457_314" x="72.6416" y="128.936" width="376.847" height="145.201" filterUnits="userSpaceOnUse" color-interpolation-filters="sRGB">
<feFlood flood-opacity="0" result="BackgroundImageFix"/>
<feColorMatrix in="SourceAlpha" type="matrix" values="0 0 0 0 0 0 0 0 0 0 0 0 0 0 0 0 0 0 127 0" result="hardAlpha"/>
<feOffset dy="4"/>
<feGaussianBlur stdDeviation="2"/>
<feComposite in2="hardAlpha" operator="out"/>
<feColorMatrix type="matrix" values="0 0 0 0 0 0 0 0 0 0 0 0 0 0 0 0 0 0 0.25 0"/>
<feBlend mode="normal" in2="BackgroundImageFix" result="effect1_dropShadow_457_314"/>
<feBlend mode="normal" in="SourceGraphic" in2="effect1_dropShadow_457_314" result="shape"/>
</filter>
<linearGradient id="paint0_linear_457_314" x1="521" y1="260.5" x2="910" y2="260.5" gradientUnits="userSpaceOnUse">
<stop stop-color="#0E96A0"/>
<stop offset="1" stop-color="#05373A"/>
</linearGradient>
</defs>
</svg>
