<svg width="521" height="389" viewBox="0 0 521 389" fill="none" xmlns="http://www.w3.org/2000/svg">
<mask id="mask0_457_330" style="mask-type:alpha" maskUnits="userSpaceOnUse" x="0" y="0" width="521" height="389">
<rect x="521" width="389" height="521" rx="10" transform="rotate(90 521 0)" fill="#FFDA46"/>
</mask>
<g mask="url(#mask0_457_330)">
<rect x="521" width="389" height="521" rx="10" transform="rotate(90 521 0)" fill="#FFDA46"/>
<rect x="521" width="389" height="521" rx="10" transform="rotate(90 521 0)" fill="url(#paint0_linear_457_330)"/>
<path d="M245.988 341.591C217.826 355.124 185.466 350.638 162.284 329.806C161.649 329.237 160.692 329.229 160.057 329.798L147.613 341.038C147.465 341.17 147.234 341.311 147.25 341.508C147.374 342.91 152.231 348.691 153.658 350.712C169.706 373.415 172.164 403.202 159.357 427.926C159.018 428.577 158.276 428.94 157.559 428.791C128.415 422.837 106.454 392.91 105.126 363.742C102.421 304.555 166.177 266.67 216.819 297.999C230.361 306.377 245.287 323.58 246.936 339.95C247.002 340.634 246.623 341.294 246.005 341.591H245.988Z" fill="#40A6AA" fill-opacity="0.5"/>
<path d="M30.2198 428.725C29.2549 427.661 25.0409 415.365 24.4553 413.065C19.4166 393.281 22.0226 373.439 32.6691 355.94C34.3102 353.235 43.332 343.174 42.0538 341.228C41.3693 340.18 29.3374 328.445 28.3808 328.981C26.0635 330.276 23.2183 333.509 20.5052 335.422C-2.52784 351.676 -31.5315 353.754 -56.6427 341.162C-57.3354 340.815 -57.6982 340.024 -57.5086 339.273C-44.6685 287.773 21.4618 269.737 60.8068 305.709C99.2446 340.848 88.994 406.624 40.6931 426.622C38.384 427.579 31.8939 430.564 30.2198 428.725Z" fill="#40A6AA" fill-opacity="0.5"/>
<path d="M-57.0043 211.598C-28.38 198.164 3.74091 202.354 27.4172 223.152C28.0769 223.729 29.0748 223.713 29.6933 223.086L41.3046 211.474C41.9231 210.856 41.9478 209.875 41.3788 209.207C20.861 185.456 15.8058 153.583 29.9984 125.14C30.3447 124.447 31.1282 124.084 31.8786 124.266C83.5029 136.916 101.695 203.409 65.5087 242.589C34.097 276.599 -21.9558 273.605 -48.1473 235.06C-50.2997 231.893 -58.4969 217.626 -57.9526 212.876C-57.8867 212.316 -57.5156 211.837 -57.0043 211.598Z" fill="#40A6AA" fill-opacity="0.5"/>
<path d="M158.092 124.356C158.81 124.257 159.519 124.653 159.816 125.313C171.79 151.406 169.976 178.438 153.639 202.288C152.221 204.366 147.306 211.714 147.586 211.953C150.778 214.715 159.981 223.399 159.981 223.399C160.575 223.943 170.809 216.274 176.136 213.297C198.122 201.018 223.687 200.746 246.126 211.862C246.786 212.192 247.157 212.926 247.017 213.652C241.681 241.451 212.653 263.816 185.018 266.035C124.965 270.851 84.2845 207.054 115.803 155.051C124.33 140.982 141.418 126.715 158.084 124.348L158.092 124.356Z" fill="#40A6AA" fill-opacity="0.5"/>
<path d="M108.937 130.962C104.146 136.289 99.2474 142.095 96.1384 148.816C95.9405 149.245 95.5694 149.574 95.1158 149.715C94.3159 149.954 93.4665 149.574 93.1284 148.808C90.7368 143.406 86.729 137.534 83.0344 133.065C75.6701 124.142 67.3575 121.783 65.7493 108.63C63.4155 89.5385 81.7892 77.6715 93.4665 65.5159C94.0438 64.9139 94.9756 64.8232 95.6436 65.3262C100.27 68.8146 114.842 83.6669 116.623 85.9512C121.687 92.4496 124.763 100.449 123.839 108.786C122.619 119.771 115.609 123.548 108.937 130.962Z" fill="#40A6AA" fill-opacity="0.5"/>
<path d="M223.861 277.934C222.607 277.25 222.558 275.46 223.762 274.693C228.108 271.931 236.198 266.669 239.876 263.461C246.259 257.895 248.279 251.834 256.806 249.063C279.592 241.657 291.549 261.631 305.709 275.254C306.311 275.831 306.402 276.755 305.899 277.423C302.369 282.107 287.104 297.025 284.68 298.856C279.814 302.543 272.73 305.684 266.512 305.808C250.011 306.13 245.467 293.397 234.128 284.853C231.398 282.792 227.448 279.881 223.869 277.926L223.861 277.934Z" fill="#40A6AA" fill-opacity="0.5"/>
<path d="M94.3802 237.237C95.1636 236.998 95.9883 237.377 96.3512 238.111C101.81 249.186 111.22 260.196 120.902 267.544C124.72 270.438 129.305 272.475 133.082 275.188C133.61 275.568 135.168 275.361 134.385 277.019C134.03 277.761 123.103 283.822 120.902 285.472C116.374 288.869 107.534 297.594 104.128 302.114C102.577 304.167 98.553 311.622 95.9553 314.772C95.2214 315.663 93.8194 315.515 93.2504 314.517C86.8922 303.417 78.8352 293.158 68.5186 285.464C66.4981 283.963 59.5214 280.326 56.4619 277.819C55.5465 277.068 55.6785 275.65 56.7175 275.073C72.1554 266.554 85.1934 253.879 93.2587 238.103C93.4648 237.699 93.8194 237.402 94.2483 237.27L94.372 237.237H94.3802Z" fill="#40A6AA" fill-opacity="0.5"/>
<g filter="url(#filter0_d_457_330)">
<path d="M121.7 134V112.182H126.313V121.184H135.677V112.182H140.28V134H135.677V124.987H126.313V134H121.7ZM143.998 134V117.636H148.536V134H143.998ZM146.277 115.527C145.603 115.527 145.024 115.303 144.541 114.856C144.065 114.401 143.827 113.858 143.827 113.226C143.827 112.601 144.065 112.065 144.541 111.617C145.024 111.163 145.603 110.935 146.277 110.935C146.952 110.935 147.527 111.163 148.003 111.617C148.486 112.065 148.728 112.601 148.728 113.226C148.728 113.858 148.486 114.401 148.003 114.856C147.527 115.303 146.952 115.527 146.277 115.527ZM152.171 134V117.636H156.571V120.491H156.742C157.04 119.476 157.541 118.709 158.244 118.19C158.947 117.665 159.757 117.402 160.673 117.402C160.9 117.402 161.145 117.416 161.408 117.445C161.671 117.473 161.902 117.512 162.1 117.562V121.589C161.887 121.525 161.593 121.468 161.216 121.418C160.84 121.369 160.495 121.344 160.183 121.344C159.515 121.344 158.919 121.489 158.393 121.781C157.875 122.065 157.463 122.462 157.157 122.974C156.859 123.485 156.71 124.075 156.71 124.742V134H152.171ZM164.447 134V117.636H168.985V134H164.447ZM166.727 115.527C166.052 115.527 165.473 115.303 164.99 114.856C164.514 114.401 164.276 113.858 164.276 113.226C164.276 112.601 164.514 112.065 164.99 111.617C165.473 111.163 166.052 110.935 166.727 110.935C167.401 110.935 167.977 111.163 168.453 111.617C168.935 112.065 169.177 112.601 169.177 113.226C169.177 113.858 168.935 114.401 168.453 114.856C167.977 115.303 167.401 115.527 166.727 115.527ZM191.485 118.457C191.4 117.597 191.034 116.93 190.388 116.454C189.742 115.978 188.864 115.74 187.756 115.74C187.004 115.74 186.368 115.847 185.85 116.06C185.331 116.266 184.933 116.553 184.656 116.923C184.386 117.292 184.252 117.711 184.252 118.18C184.237 118.57 184.319 118.911 184.497 119.202C184.681 119.494 184.933 119.746 185.253 119.959C185.573 120.165 185.942 120.346 186.361 120.502C186.78 120.651 187.227 120.779 187.703 120.886L189.663 121.354C190.615 121.567 191.489 121.852 192.284 122.207C193.08 122.562 193.769 122.999 194.351 123.517C194.933 124.036 195.384 124.646 195.704 125.349C196.031 126.053 196.198 126.859 196.205 127.768C196.198 129.103 195.857 130.261 195.182 131.241C194.514 132.214 193.548 132.97 192.284 133.51C191.027 134.043 189.511 134.309 187.735 134.309C185.974 134.309 184.44 134.039 183.133 133.499C181.833 132.96 180.818 132.161 180.086 131.102C179.362 130.037 178.982 128.719 178.946 127.15H183.41C183.46 127.881 183.669 128.492 184.038 128.982C184.415 129.465 184.916 129.831 185.541 130.08C186.173 130.321 186.886 130.442 187.682 130.442C188.463 130.442 189.141 130.328 189.717 130.101C190.299 129.874 190.75 129.558 191.07 129.153C191.389 128.748 191.549 128.283 191.549 127.757C191.549 127.267 191.403 126.855 191.112 126.521C190.828 126.187 190.409 125.903 189.855 125.669C189.308 125.435 188.637 125.222 187.842 125.03L185.466 124.433C183.627 123.986 182.174 123.286 181.109 122.335C180.043 121.383 179.514 120.101 179.521 118.489C179.514 117.168 179.866 116.013 180.576 115.026C181.293 114.039 182.277 113.268 183.527 112.714C184.777 112.161 186.198 111.884 187.788 111.884C189.408 111.884 190.821 112.161 192.028 112.714C193.243 113.268 194.188 114.039 194.862 115.026C195.537 116.013 195.885 117.157 195.906 118.457H191.485ZM199.222 134V117.636H203.547V120.523H203.739C204.08 119.565 204.648 118.808 205.444 118.254C206.239 117.7 207.191 117.423 208.299 117.423C209.421 117.423 210.376 117.704 211.165 118.265C211.953 118.819 212.479 119.572 212.741 120.523H212.912C213.246 119.586 213.849 118.837 214.723 118.276C215.604 117.707 216.644 117.423 217.844 117.423C219.371 117.423 220.611 117.91 221.562 118.883C222.521 119.849 223.001 121.219 223.001 122.995V134H218.473V123.89C218.473 122.981 218.231 122.299 217.748 121.844C217.266 121.39 216.662 121.163 215.937 121.163C215.114 121.163 214.471 121.425 214.009 121.951C213.547 122.469 213.317 123.155 213.317 124.007V134H208.917V123.794C208.917 122.991 208.686 122.352 208.224 121.876C207.77 121.401 207.17 121.163 206.424 121.163C205.92 121.163 205.465 121.29 205.06 121.546C204.663 121.795 204.347 122.146 204.112 122.601C203.878 123.048 203.761 123.574 203.761 124.178V134H199.222ZM231.252 134.309C230.208 134.309 229.277 134.128 228.46 133.766C227.644 133.396 226.997 132.853 226.522 132.136C226.053 131.411 225.818 130.509 225.818 129.43C225.818 128.521 225.985 127.757 226.319 127.139C226.653 126.521 227.108 126.024 227.683 125.648C228.258 125.271 228.911 124.987 229.643 124.795C230.382 124.604 231.156 124.469 231.965 124.391C232.917 124.291 233.684 124.199 234.267 124.114C234.849 124.021 235.272 123.886 235.534 123.709C235.797 123.531 235.929 123.268 235.929 122.92V122.857C235.929 122.182 235.715 121.66 235.289 121.29C234.87 120.921 234.274 120.737 233.5 120.737C232.683 120.737 232.033 120.918 231.55 121.28C231.067 121.635 230.747 122.082 230.591 122.622L226.394 122.281C226.607 121.287 227.026 120.428 227.651 119.703C228.276 118.972 229.082 118.411 230.069 118.02C231.063 117.622 232.214 117.423 233.521 117.423C234.43 117.423 235.3 117.53 236.131 117.743C236.969 117.956 237.711 118.286 238.358 118.734C239.011 119.181 239.526 119.756 239.902 120.46C240.279 121.156 240.467 121.99 240.467 122.963V134H236.163V131.731H236.035C235.772 132.242 235.421 132.693 234.98 133.084C234.54 133.467 234.011 133.769 233.393 133.989C232.775 134.202 232.061 134.309 231.252 134.309ZM232.551 131.177C233.219 131.177 233.809 131.045 234.32 130.783C234.831 130.513 235.233 130.151 235.524 129.696C235.815 129.241 235.96 128.727 235.96 128.151V126.415C235.818 126.507 235.623 126.592 235.375 126.67C235.133 126.741 234.86 126.809 234.554 126.873C234.249 126.93 233.943 126.983 233.638 127.033C233.333 127.075 233.056 127.114 232.807 127.15C232.274 127.228 231.809 127.352 231.411 127.523C231.014 127.693 230.705 127.924 230.485 128.215C230.264 128.499 230.154 128.854 230.154 129.281C230.154 129.898 230.378 130.371 230.826 130.697C231.28 131.017 231.855 131.177 232.551 131.177ZM243.988 134V117.636H248.388V120.491H248.558C248.856 119.476 249.357 118.709 250.06 118.19C250.763 117.665 251.573 117.402 252.489 117.402C252.717 117.402 252.962 117.416 253.224 117.445C253.487 117.473 253.718 117.512 253.917 117.562V121.589C253.704 121.525 253.409 121.468 253.033 121.418C252.656 121.369 252.312 121.344 251.999 121.344C251.332 121.344 250.735 121.489 250.209 121.781C249.691 122.065 249.279 122.462 248.974 122.974C248.675 123.485 248.526 124.075 248.526 124.742V134H243.988ZM265.787 117.636V121.045H255.933V117.636H265.787ZM258.17 113.716H262.709V128.972C262.709 129.391 262.772 129.717 262.9 129.952C263.028 130.179 263.206 130.339 263.433 130.431C263.667 130.523 263.937 130.57 264.243 130.57C264.456 130.57 264.669 130.552 264.882 130.516C265.095 130.474 265.258 130.442 265.372 130.42L266.086 133.798C265.858 133.869 265.539 133.95 265.127 134.043C264.715 134.142 264.214 134.202 263.625 134.224C262.531 134.266 261.572 134.121 260.748 133.787C259.932 133.453 259.296 132.935 258.841 132.232C258.387 131.528 258.163 130.641 258.17 129.568V113.716ZM274.941 115.985V112.182H292.86V115.985H286.181V134H281.621V115.985H274.941ZM300.747 134.32C299.092 134.32 297.661 133.968 296.453 133.265C295.253 132.555 294.326 131.567 293.673 130.303C293.019 129.032 292.693 127.558 292.693 125.882C292.693 124.192 293.019 122.714 293.673 121.45C294.326 120.179 295.253 119.192 296.453 118.489C297.661 117.778 299.092 117.423 300.747 117.423C302.401 117.423 303.829 117.778 305.029 118.489C306.237 119.192 307.167 120.179 307.82 121.45C308.474 122.714 308.801 124.192 308.801 125.882C308.801 127.558 308.474 129.032 307.82 130.303C307.167 131.567 306.237 132.555 305.029 133.265C303.829 133.968 302.401 134.32 300.747 134.32ZM300.768 130.804C301.521 130.804 302.149 130.591 302.653 130.165C303.158 129.732 303.538 129.142 303.793 128.396C304.056 127.651 304.188 126.802 304.188 125.85C304.188 124.898 304.056 124.05 303.793 123.304C303.538 122.558 303.158 121.969 302.653 121.536C302.149 121.102 301.521 120.886 300.768 120.886C300.008 120.886 299.369 121.102 298.85 121.536C298.339 121.969 297.952 122.558 297.689 123.304C297.433 124.05 297.305 124.898 297.305 125.85C297.305 126.802 297.433 127.651 297.689 128.396C297.952 129.142 298.339 129.732 298.85 130.165C299.369 130.591 300.008 130.804 300.768 130.804ZM322.245 127.033V117.636H326.783V134H322.426V131.028H322.256C321.886 131.987 321.272 132.757 320.413 133.339C319.56 133.922 318.52 134.213 317.291 134.213C316.198 134.213 315.235 133.964 314.404 133.467C313.573 132.97 312.923 132.263 312.455 131.347C311.993 130.431 311.759 129.334 311.752 128.055V117.636H316.29V127.246C316.297 128.212 316.556 128.975 317.068 129.536C317.579 130.097 318.264 130.378 319.124 130.378C319.671 130.378 320.182 130.254 320.658 130.005C321.134 129.749 321.517 129.373 321.808 128.876C322.107 128.379 322.252 127.764 322.245 127.033ZM330.414 134V117.636H334.813V120.491H334.984C335.282 119.476 335.783 118.709 336.486 118.19C337.189 117.665 337.999 117.402 338.915 117.402C339.142 117.402 339.387 117.416 339.65 117.445C339.913 117.473 340.144 117.512 340.343 117.562V121.589C340.13 121.525 339.835 121.468 339.458 121.418C339.082 121.369 338.737 121.344 338.425 121.344C337.757 121.344 337.161 121.489 336.635 121.781C336.117 122.065 335.705 122.462 335.399 122.974C335.101 123.485 334.952 124.075 334.952 124.742V134H330.414ZM342.689 134V117.636H347.227V134H342.689ZM344.969 115.527C344.294 115.527 343.715 115.303 343.232 114.856C342.756 114.401 342.519 113.858 342.519 113.226C342.519 112.601 342.756 112.065 343.232 111.617C343.715 111.163 344.294 110.935 344.969 110.935C345.644 110.935 346.219 111.163 346.695 111.617C347.178 112.065 347.419 112.601 347.419 113.226C347.419 113.858 347.178 114.401 346.695 114.856C346.219 115.303 345.644 115.527 344.969 115.527ZM364.478 122.303L360.323 122.558C360.252 122.203 360.099 121.884 359.865 121.599C359.631 121.308 359.322 121.077 358.938 120.907C358.562 120.729 358.111 120.641 357.585 120.641C356.882 120.641 356.289 120.79 355.806 121.088C355.323 121.379 355.082 121.77 355.082 122.26C355.082 122.651 355.238 122.981 355.55 123.251C355.863 123.521 356.399 123.737 357.159 123.901L360.121 124.497C361.712 124.824 362.898 125.349 363.679 126.074C364.46 126.798 364.851 127.75 364.851 128.929C364.851 130.001 364.535 130.942 363.903 131.752C363.278 132.562 362.418 133.194 361.324 133.648C360.238 134.096 358.984 134.32 357.564 134.32C355.398 134.32 353.672 133.869 352.386 132.967C351.108 132.058 350.359 130.822 350.138 129.259L354.602 129.025C354.737 129.685 355.064 130.19 355.582 130.538C356.101 130.879 356.765 131.049 357.574 131.049C358.37 131.049 359.009 130.896 359.492 130.591C359.982 130.278 360.231 129.877 360.238 129.387C360.231 128.975 360.057 128.638 359.716 128.375C359.375 128.105 358.849 127.899 358.139 127.757L355.305 127.192C353.707 126.873 352.518 126.319 351.736 125.531C350.962 124.742 350.575 123.737 350.575 122.516C350.575 121.464 350.859 120.559 351.427 119.799C352.003 119.039 352.809 118.453 353.846 118.041C354.89 117.629 356.111 117.423 357.511 117.423C359.577 117.423 361.204 117.86 362.39 118.734C363.583 119.607 364.279 120.797 364.478 122.303ZM367.709 134V117.636H372.034V120.523H372.226C372.566 119.565 373.135 118.808 373.93 118.254C374.726 117.7 375.677 117.423 376.785 117.423C377.907 117.423 378.863 117.704 379.651 118.265C380.439 118.819 380.965 119.572 381.228 120.523H381.398C381.732 119.586 382.336 118.837 383.209 118.276C384.09 117.707 385.13 117.423 386.331 117.423C387.858 117.423 389.097 117.91 390.049 118.883C391.008 119.849 391.487 121.219 391.487 122.995V134H386.959V123.89C386.959 122.981 386.718 122.299 386.235 121.844C385.752 121.39 385.148 121.163 384.424 121.163C383.6 121.163 382.957 121.425 382.495 121.951C382.034 122.469 381.803 123.155 381.803 124.007V134H377.403V123.794C377.403 122.991 377.172 122.352 376.711 121.876C376.256 121.401 375.656 121.163 374.91 121.163C374.406 121.163 373.951 121.29 373.547 121.546C373.149 121.795 372.833 122.146 372.598 122.601C372.364 123.048 372.247 123.574 372.247 124.178V134H367.709ZM397.725 134.277C397.021 134.277 396.418 134.028 395.913 133.531C395.416 133.027 395.168 132.423 395.168 131.72C395.168 131.024 395.416 130.428 395.913 129.93C396.418 129.433 397.021 129.185 397.725 129.185C398.406 129.185 399.003 129.433 399.514 129.93C400.026 130.428 400.281 131.024 400.281 131.72C400.281 132.189 400.161 132.619 399.919 133.009C399.685 133.393 399.376 133.702 398.992 133.936C398.609 134.163 398.186 134.277 397.725 134.277ZM397.725 122.814C397.021 122.814 396.418 122.565 395.913 122.068C395.416 121.571 395.168 120.967 395.168 120.257C395.168 119.561 395.416 118.968 395.913 118.478C396.418 117.981 397.021 117.732 397.725 117.732C398.406 117.732 399.003 117.981 399.514 118.478C400.026 118.968 400.281 119.561 400.281 120.257C400.281 120.733 400.161 121.166 399.919 121.557C399.685 121.94 399.376 122.246 398.992 122.473C398.609 122.7 398.186 122.814 397.725 122.814ZM145.661 159.091C145.661 161.47 145.21 163.494 144.308 165.163C143.413 166.832 142.191 168.107 140.643 168.988C139.102 169.862 137.369 170.298 135.444 170.298C133.505 170.298 131.765 169.858 130.224 168.977C128.683 168.097 127.465 166.822 126.57 165.153C125.675 163.484 125.228 161.463 125.228 159.091C125.228 156.712 125.675 154.688 126.57 153.018C127.465 151.349 128.683 150.078 130.224 149.205C131.765 148.324 133.505 147.884 135.444 147.884C137.369 147.884 139.102 148.324 140.643 149.205C142.191 150.078 143.413 151.349 144.308 153.018C145.21 154.688 145.661 156.712 145.661 159.091ZM140.984 159.091C140.984 157.55 140.753 156.25 140.292 155.192C139.837 154.134 139.194 153.331 138.363 152.784C137.532 152.237 136.559 151.964 135.444 151.964C134.329 151.964 133.356 152.237 132.525 152.784C131.694 153.331 131.048 154.134 130.586 155.192C130.132 156.25 129.904 157.55 129.904 159.091C129.904 160.632 130.132 161.932 130.586 162.99C131.048 164.048 131.694 164.851 132.525 165.398C133.356 165.945 134.329 166.218 135.444 166.218C136.559 166.218 137.532 165.945 138.363 165.398C139.194 164.851 139.837 164.048 140.292 162.99C140.753 161.932 140.984 160.632 140.984 159.091ZM148.993 176.136V153.636H153.467V156.385H153.67C153.868 155.945 154.156 155.497 154.532 155.043C154.916 154.581 155.413 154.197 156.024 153.892C156.642 153.58 157.409 153.423 158.325 153.423C159.518 153.423 160.619 153.736 161.628 154.361C162.636 154.979 163.442 155.913 164.046 157.163C164.65 158.406 164.952 159.964 164.952 161.839C164.952 163.665 164.657 165.206 164.067 166.463C163.485 167.713 162.689 168.661 161.681 169.308C160.68 169.947 159.557 170.266 158.314 170.266C157.434 170.266 156.684 170.121 156.067 169.83C155.456 169.538 154.955 169.173 154.564 168.732C154.174 168.285 153.876 167.834 153.67 167.379H153.531V176.136H148.993ZM153.435 161.818C153.435 162.791 153.57 163.64 153.84 164.364C154.11 165.089 154.501 165.653 155.012 166.058C155.523 166.456 156.145 166.655 156.876 166.655C157.615 166.655 158.24 166.452 158.751 166.048C159.263 165.636 159.65 165.067 159.912 164.343C160.182 163.612 160.317 162.77 160.317 161.818C160.317 160.874 160.186 160.043 159.923 159.325C159.66 158.608 159.273 158.047 158.762 157.642C158.251 157.237 157.622 157.035 156.876 157.035C156.138 157.035 155.513 157.23 155.001 157.621C154.497 158.011 154.11 158.565 153.84 159.283C153.57 160 153.435 160.845 153.435 161.818ZM176.681 153.636V157.045H166.827V153.636H176.681ZM169.064 149.716H173.602V164.972C173.602 165.391 173.666 165.717 173.794 165.952C173.922 166.179 174.099 166.339 174.327 166.431C174.561 166.523 174.831 166.57 175.136 166.57C175.349 166.57 175.562 166.552 175.775 166.516C175.988 166.474 176.152 166.442 176.265 166.42L176.979 169.798C176.752 169.869 176.432 169.95 176.02 170.043C175.608 170.142 175.108 170.202 174.518 170.224C173.425 170.266 172.466 170.121 171.642 169.787C170.825 169.453 170.189 168.935 169.735 168.232C169.28 167.528 169.057 166.641 169.064 165.568V149.716ZM179.637 170V153.636H184.176V170H179.637ZM181.917 151.527C181.242 151.527 180.664 151.303 180.181 150.856C179.705 150.401 179.467 149.858 179.467 149.226C179.467 148.601 179.705 148.065 180.181 147.617C180.664 147.163 181.242 146.935 181.917 146.935C182.592 146.935 183.167 147.163 183.643 147.617C184.126 148.065 184.367 148.601 184.367 149.226C184.367 149.858 184.126 150.401 183.643 150.856C183.167 151.303 182.592 151.527 181.917 151.527ZM187.811 170V153.636H192.136V156.523H192.328C192.669 155.565 193.237 154.808 194.033 154.254C194.828 153.7 195.78 153.423 196.888 153.423C198.01 153.423 198.965 153.704 199.754 154.265C200.542 154.819 201.067 155.572 201.33 156.523H201.501C201.835 155.586 202.438 154.837 203.312 154.276C204.192 153.707 205.233 153.423 206.433 153.423C207.96 153.423 209.2 153.91 210.151 154.883C211.11 155.849 211.589 157.219 211.589 158.995V170H207.062V159.89C207.062 158.981 206.82 158.299 206.337 157.844C205.854 157.39 205.251 157.163 204.526 157.163C203.702 157.163 203.06 157.425 202.598 157.951C202.136 158.469 201.906 159.155 201.906 160.007V170H197.506V159.794C197.506 158.991 197.275 158.352 196.813 157.876C196.359 157.401 195.759 157.163 195.013 157.163C194.509 157.163 194.054 157.29 193.649 157.546C193.251 157.795 192.935 158.146 192.701 158.601C192.467 159.048 192.349 159.574 192.349 160.178V170H187.811ZM219.841 170.309C218.797 170.309 217.866 170.128 217.049 169.766C216.233 169.396 215.586 168.853 215.11 168.136C214.642 167.411 214.407 166.509 214.407 165.43C214.407 164.521 214.574 163.757 214.908 163.139C215.242 162.521 215.696 162.024 216.272 161.648C216.847 161.271 217.5 160.987 218.232 160.795C218.971 160.604 219.745 160.469 220.554 160.391C221.506 160.291 222.273 160.199 222.855 160.114C223.438 160.021 223.86 159.886 224.123 159.709C224.386 159.531 224.517 159.268 224.517 158.92V158.857C224.517 158.182 224.304 157.66 223.878 157.29C223.459 156.921 222.863 156.737 222.088 156.737C221.272 156.737 220.622 156.918 220.139 157.28C219.656 157.635 219.336 158.082 219.18 158.622L214.983 158.281C215.196 157.287 215.615 156.428 216.24 155.703C216.865 154.972 217.671 154.411 218.658 154.02C219.652 153.622 220.803 153.423 222.11 153.423C223.019 153.423 223.889 153.53 224.72 153.743C225.558 153.956 226.3 154.286 226.946 154.734C227.6 155.181 228.115 155.756 228.491 156.46C228.868 157.156 229.056 157.99 229.056 158.963V170H224.752V167.731H224.624C224.361 168.242 224.01 168.693 223.569 169.084C223.129 169.467 222.6 169.769 221.982 169.989C221.364 170.202 220.65 170.309 219.841 170.309ZM221.14 167.177C221.808 167.177 222.397 167.045 222.909 166.783C223.42 166.513 223.821 166.151 224.113 165.696C224.404 165.241 224.549 164.727 224.549 164.151V162.415C224.407 162.507 224.212 162.592 223.963 162.67C223.722 162.741 223.449 162.809 223.143 162.873C222.838 162.93 222.532 162.983 222.227 163.033C221.922 163.075 221.645 163.114 221.396 163.15C220.863 163.228 220.398 163.352 220 163.523C219.603 163.693 219.294 163.924 219.074 164.215C218.853 164.499 218.743 164.854 218.743 165.281C218.743 165.898 218.967 166.371 219.414 166.697C219.869 167.017 220.444 167.177 221.14 167.177ZM237.115 148.182V170H232.577V148.182H237.115ZM240.751 170V153.636H245.289V170H240.751ZM243.03 151.527C242.356 151.527 241.777 151.303 241.294 150.856C240.818 150.401 240.58 149.858 240.58 149.226C240.58 148.601 240.818 148.065 241.294 147.617C241.777 147.163 242.356 146.935 243.03 146.935C243.705 146.935 244.28 147.163 244.756 147.617C245.239 148.065 245.481 148.601 245.481 149.226C245.481 149.858 245.239 150.401 244.756 150.856C244.28 151.303 243.705 151.527 243.03 151.527ZM262.539 158.303L258.385 158.558C258.314 158.203 258.161 157.884 257.926 157.599C257.692 157.308 257.383 157.077 257 156.907C256.623 156.729 256.172 156.641 255.647 156.641C254.944 156.641 254.35 156.79 253.868 157.088C253.385 157.379 253.143 157.77 253.143 158.26C253.143 158.651 253.299 158.981 253.612 159.251C253.924 159.521 254.461 159.737 255.221 159.901L258.182 160.497C259.773 160.824 260.959 161.349 261.74 162.074C262.522 162.798 262.912 163.75 262.912 164.929C262.912 166.001 262.596 166.942 261.964 167.752C261.339 168.562 260.48 169.194 259.386 169.648C258.299 170.096 257.046 170.32 255.625 170.32C253.459 170.32 251.733 169.869 250.448 168.967C249.169 168.058 248.42 166.822 248.2 165.259L252.664 165.025C252.799 165.685 253.125 166.19 253.644 166.538C254.162 166.879 254.826 167.049 255.636 167.049C256.431 167.049 257.071 166.896 257.554 166.591C258.044 166.278 258.292 165.877 258.299 165.387C258.292 164.975 258.118 164.638 257.777 164.375C257.436 164.105 256.911 163.899 256.201 163.757L253.367 163.192C251.769 162.873 250.579 162.319 249.798 161.531C249.024 160.742 248.637 159.737 248.637 158.516C248.637 157.464 248.921 156.559 249.489 155.799C250.064 155.039 250.87 154.453 251.907 154.041C252.951 153.629 254.173 153.423 255.572 153.423C257.639 153.423 259.265 153.86 260.451 154.734C261.645 155.607 262.341 156.797 262.539 158.303ZM270.436 170.309C269.392 170.309 268.462 170.128 267.645 169.766C266.828 169.396 266.182 168.853 265.706 168.136C265.237 167.411 265.003 166.509 265.003 165.43C265.003 164.521 265.17 163.757 265.504 163.139C265.838 162.521 266.292 162.024 266.867 161.648C267.443 161.271 268.096 160.987 268.828 160.795C269.566 160.604 270.34 160.469 271.15 160.391C272.102 160.291 272.869 160.199 273.451 160.114C274.034 160.021 274.456 159.886 274.719 159.709C274.982 159.531 275.113 159.268 275.113 158.92V158.857C275.113 158.182 274.9 157.66 274.474 157.29C274.055 156.921 273.458 156.737 272.684 156.737C271.867 156.737 271.218 156.918 270.735 157.28C270.252 157.635 269.932 158.082 269.776 158.622L265.578 158.281C265.791 157.287 266.21 156.428 266.835 155.703C267.46 154.972 268.267 154.411 269.254 154.02C270.248 153.622 271.399 153.423 272.705 153.423C273.615 153.423 274.485 153.53 275.316 153.743C276.154 153.956 276.896 154.286 277.542 154.734C278.195 155.181 278.71 155.756 279.087 156.46C279.463 157.156 279.651 157.99 279.651 158.963V170H275.347V167.731H275.22C274.957 168.242 274.605 168.693 274.165 169.084C273.725 169.467 273.195 169.769 272.578 169.989C271.96 170.202 271.246 170.309 270.436 170.309ZM271.736 167.177C272.404 167.177 272.993 167.045 273.504 166.783C274.016 166.513 274.417 166.151 274.708 165.696C274.999 165.241 275.145 164.727 275.145 164.151V162.415C275.003 162.507 274.808 162.592 274.559 162.67C274.318 162.741 274.044 162.809 273.739 162.873C273.433 162.93 273.128 162.983 272.823 163.033C272.517 163.075 272.24 163.114 271.992 163.15C271.459 163.228 270.994 163.352 270.596 163.523C270.198 163.693 269.889 163.924 269.669 164.215C269.449 164.499 269.339 164.854 269.339 165.281C269.339 165.898 269.563 166.371 270.01 166.697C270.465 167.017 271.04 167.177 271.736 167.177ZM296.787 158.303L292.633 158.558C292.562 158.203 292.409 157.884 292.175 157.599C291.94 157.308 291.631 157.077 291.248 156.907C290.871 156.729 290.42 156.641 289.895 156.641C289.192 156.641 288.599 156.79 288.116 157.088C287.633 157.379 287.391 157.77 287.391 158.26C287.391 158.651 287.547 158.981 287.86 159.251C288.172 159.521 288.709 159.737 289.469 159.901L292.43 160.497C294.021 160.824 295.207 161.349 295.988 162.074C296.77 162.798 297.16 163.75 297.16 164.929C297.16 166.001 296.844 166.942 296.212 167.752C295.587 168.562 294.728 169.194 293.634 169.648C292.547 170.096 291.294 170.32 289.873 170.32C287.707 170.32 285.981 169.869 284.696 168.967C283.417 168.058 282.668 166.822 282.448 165.259L286.912 165.025C287.047 165.685 287.373 166.19 287.892 166.538C288.41 166.879 289.074 167.049 289.884 167.049C290.68 167.049 291.319 166.896 291.802 166.591C292.292 166.278 292.54 165.877 292.547 165.387C292.54 164.975 292.366 164.638 292.025 164.375C291.684 164.105 291.159 163.899 290.449 163.757L287.615 163.192C286.017 162.873 284.827 162.319 284.046 161.531C283.272 160.742 282.885 159.737 282.885 158.516C282.885 157.464 283.169 156.559 283.737 155.799C284.312 155.039 285.118 154.453 286.155 154.041C287.199 153.629 288.421 153.423 289.82 153.423C291.887 153.423 293.513 153.86 294.699 154.734C295.893 155.607 296.589 156.797 296.787 158.303ZM300.018 170V153.636H304.556V170H300.018ZM302.298 151.527C301.623 151.527 301.044 151.303 300.561 150.856C300.086 150.401 299.848 149.858 299.848 149.226C299.848 148.601 300.086 148.065 300.561 147.617C301.044 147.163 301.623 146.935 302.298 146.935C302.973 146.935 303.548 147.163 304.024 147.617C304.507 148.065 304.748 148.601 304.748 149.226C304.748 149.858 304.507 150.401 304.024 150.856C303.548 151.303 302.973 151.527 302.298 151.527ZM315.221 170V148.182H323.828C325.483 148.182 326.893 148.498 328.058 149.13C329.223 149.755 330.11 150.625 330.721 151.74C331.339 152.848 331.648 154.126 331.648 155.575C331.648 157.024 331.336 158.303 330.711 159.411C330.086 160.518 329.18 161.381 327.994 161.999C326.815 162.617 325.387 162.926 323.711 162.926H318.225V159.229H322.966C323.853 159.229 324.585 159.077 325.16 158.771C325.743 158.459 326.176 158.029 326.46 157.482C326.751 156.928 326.897 156.293 326.897 155.575C326.897 154.851 326.751 154.219 326.46 153.679C326.176 153.132 325.743 152.71 325.16 152.411C324.578 152.106 323.839 151.953 322.944 151.953H319.833V170H315.221ZM341.753 170.32C340.07 170.32 338.621 169.979 337.406 169.297C336.199 168.608 335.268 167.635 334.615 166.378C333.962 165.114 333.635 163.619 333.635 161.893C333.635 160.21 333.962 158.732 334.615 157.461C335.268 156.19 336.188 155.199 337.374 154.489C338.567 153.778 339.967 153.423 341.572 153.423C342.651 153.423 343.656 153.597 344.587 153.945C345.524 154.286 346.341 154.801 347.037 155.49C347.74 156.179 348.287 157.045 348.678 158.089C349.068 159.126 349.263 160.341 349.263 161.733V162.979H335.446V160.167H344.991C344.991 159.513 344.849 158.935 344.565 158.43C344.281 157.926 343.887 157.532 343.383 157.248C342.886 156.957 342.307 156.811 341.646 156.811C340.957 156.811 340.347 156.971 339.814 157.29C339.288 157.603 338.876 158.026 338.578 158.558C338.28 159.084 338.127 159.67 338.12 160.316V162.99C338.12 163.8 338.269 164.499 338.567 165.089C338.873 165.678 339.303 166.133 339.857 166.452C340.411 166.772 341.067 166.932 341.827 166.932C342.332 166.932 342.793 166.861 343.212 166.719C343.631 166.577 343.99 166.364 344.288 166.08C344.587 165.795 344.814 165.447 344.97 165.036L349.168 165.312C348.955 166.321 348.518 167.202 347.857 167.955C347.204 168.7 346.359 169.283 345.322 169.702C344.292 170.114 343.102 170.32 341.753 170.32ZM352.225 170V153.636H356.625V156.491H356.795C357.094 155.476 357.594 154.709 358.298 154.19C359.001 153.665 359.81 153.402 360.727 153.402C360.954 153.402 361.199 153.416 361.462 153.445C361.724 153.473 361.955 153.512 362.154 153.562V157.589C361.941 157.525 361.646 157.468 361.27 157.418C360.893 157.369 360.549 157.344 360.237 157.344C359.569 157.344 358.972 157.489 358.447 157.781C357.928 158.065 357.516 158.462 357.211 158.974C356.913 159.485 356.763 160.075 356.763 160.742V170H352.225ZM368.698 170.309C367.654 170.309 366.724 170.128 365.907 169.766C365.09 169.396 364.444 168.853 363.968 168.136C363.499 167.411 363.265 166.509 363.265 165.43C363.265 164.521 363.432 163.757 363.765 163.139C364.099 162.521 364.554 162.024 365.129 161.648C365.704 161.271 366.358 160.987 367.089 160.795C367.828 160.604 368.602 160.469 369.412 160.391C370.363 160.291 371.131 160.199 371.713 160.114C372.295 160.021 372.718 159.886 372.981 159.709C373.243 159.531 373.375 159.268 373.375 158.92V158.857C373.375 158.182 373.162 157.66 372.736 157.29C372.317 156.921 371.72 156.737 370.946 156.737C370.129 156.737 369.479 156.918 368.996 157.28C368.513 157.635 368.194 158.082 368.037 158.622L363.84 158.281C364.053 157.287 364.472 156.428 365.097 155.703C365.722 154.972 366.528 154.411 367.515 154.02C368.51 153.622 369.66 153.423 370.967 153.423C371.876 153.423 372.746 153.53 373.577 153.743C374.415 153.956 375.157 154.286 375.804 154.734C376.457 155.181 376.972 155.756 377.349 156.46C377.725 157.156 377.913 157.99 377.913 158.963V170H373.609V167.731H373.481C373.219 168.242 372.867 168.693 372.427 169.084C371.986 169.467 371.457 169.769 370.839 169.989C370.221 170.202 369.508 170.309 368.698 170.309ZM369.998 167.177C370.665 167.177 371.255 167.045 371.766 166.783C372.278 166.513 372.679 166.151 372.97 165.696C373.261 165.241 373.407 164.727 373.407 164.151V162.415C373.265 162.507 373.069 162.592 372.821 162.67C372.579 162.741 372.306 162.809 372.001 162.873C371.695 162.93 371.39 162.983 371.084 163.033C370.779 163.075 370.502 163.114 370.253 163.15C369.721 163.228 369.256 163.352 368.858 163.523C368.46 163.693 368.151 163.924 367.931 164.215C367.711 164.499 367.601 164.854 367.601 165.281C367.601 165.898 367.824 166.371 368.272 166.697C368.726 167.017 369.302 167.177 369.998 167.177ZM385.972 160.54V170H381.434V153.636H385.759V156.523H385.951C386.313 155.572 386.921 154.819 387.773 154.265C388.625 153.704 389.659 153.423 390.873 153.423C392.009 153.423 393 153.672 393.845 154.169C394.691 154.666 395.347 155.376 395.816 156.3C396.285 157.216 396.519 158.31 396.519 159.581V170H391.981V160.391C391.988 159.389 391.732 158.608 391.214 158.047C390.695 157.479 389.982 157.195 389.073 157.195C388.462 157.195 387.922 157.326 387.453 157.589C386.992 157.852 386.629 158.235 386.367 158.739C386.111 159.237 385.98 159.837 385.972 160.54ZM57.1883 206V184.182H65.7963C67.4511 184.182 68.8609 184.498 70.0257 185.13C71.1904 185.755 72.0782 186.625 72.689 187.74C73.3069 188.848 73.6159 190.126 73.6159 191.575C73.6159 193.024 73.3034 194.303 72.6784 195.411C72.0534 196.518 71.1478 197.381 69.9617 197.999C68.7828 198.617 67.3552 198.926 65.6791 198.926H60.1926V195.229H64.9333C65.8211 195.229 66.5526 195.077 67.1279 194.771C67.7103 194.459 68.1436 194.029 68.4276 193.482C68.7188 192.928 68.8644 192.293 68.8644 191.575C68.8644 190.851 68.7188 190.219 68.4276 189.679C68.1436 189.132 67.7103 188.71 67.1279 188.411C66.5455 188.106 65.8069 187.953 64.912 187.953H61.8012V206H57.1883ZM83.6567 206.32C82.0019 206.32 80.5708 205.968 79.3634 205.265C78.1631 204.555 77.2362 203.567 76.5828 202.303C75.9294 201.032 75.6027 199.558 75.6027 197.882C75.6027 196.192 75.9294 194.714 76.5828 193.45C77.2362 192.179 78.1631 191.192 79.3634 190.489C80.5708 189.778 82.0019 189.423 83.6567 189.423C85.3115 189.423 86.7391 189.778 87.9394 190.489C89.1468 191.192 90.0771 192.179 90.7306 193.45C91.384 194.714 91.7107 196.192 91.7107 197.882C91.7107 199.558 91.384 201.032 90.7306 202.303C90.0771 203.567 89.1468 204.555 87.9394 205.265C86.7391 205.968 85.3115 206.32 83.6567 206.32ZM83.678 202.804C84.4308 202.804 85.0594 202.591 85.5637 202.165C86.0679 201.732 86.4479 201.142 86.7036 200.396C86.9664 199.651 87.0977 198.802 87.0977 197.85C87.0977 196.898 86.9664 196.05 86.7036 195.304C86.4479 194.558 86.0679 193.969 85.5637 193.536C85.0594 193.102 84.4308 192.886 83.678 192.886C82.9181 192.886 82.2789 193.102 81.7604 193.536C81.249 193.969 80.8619 194.558 80.5992 195.304C80.3435 196.05 80.2156 196.898 80.2156 197.85C80.2156 198.802 80.3435 199.651 80.5992 200.396C80.8619 201.142 81.249 201.732 81.7604 202.165C82.2789 202.591 82.9181 202.804 83.678 202.804ZM98.7739 201.291L98.7845 195.847H99.445L104.687 189.636H109.896L102.854 197.861H101.778L98.7739 201.291ZM94.6617 206V184.182H99.2V206H94.6617ZM104.889 206L100.074 198.873L103.099 195.666L110.205 206H104.889ZM117.479 206.266C116.236 206.266 115.11 205.947 114.101 205.308C113.1 204.661 112.305 203.713 111.715 202.463C111.133 201.206 110.842 199.665 110.842 197.839C110.842 195.964 111.143 194.406 111.747 193.163C112.351 191.913 113.153 190.979 114.155 190.361C115.163 189.736 116.268 189.423 117.468 189.423C118.384 189.423 119.148 189.58 119.758 189.892C120.376 190.197 120.873 190.581 121.25 191.043C121.633 191.497 121.925 191.945 122.123 192.385H122.262V184.182H126.79V206H122.315V203.379H122.123C121.91 203.834 121.609 204.285 121.218 204.732C120.834 205.173 120.334 205.538 119.716 205.83C119.105 206.121 118.359 206.266 117.479 206.266ZM118.917 202.655C119.648 202.655 120.266 202.456 120.771 202.058C121.282 201.653 121.672 201.089 121.942 200.364C122.219 199.64 122.358 198.791 122.358 197.818C122.358 196.845 122.223 196 121.953 195.283C121.683 194.565 121.293 194.011 120.781 193.621C120.27 193.23 119.648 193.035 118.917 193.035C118.171 193.035 117.543 193.237 117.031 193.642C116.52 194.047 116.133 194.608 115.87 195.325C115.607 196.043 115.476 196.874 115.476 197.818C115.476 198.77 115.607 199.612 115.87 200.343C116.14 201.067 116.527 201.636 117.031 202.048C117.543 202.452 118.171 202.655 118.917 202.655ZM135.187 206.309C134.143 206.309 133.213 206.128 132.396 205.766C131.579 205.396 130.933 204.853 130.457 204.136C129.988 203.411 129.754 202.509 129.754 201.43C129.754 200.521 129.921 199.757 130.255 199.139C130.589 198.521 131.043 198.024 131.618 197.648C132.194 197.271 132.847 196.987 133.579 196.795C134.317 196.604 135.091 196.469 135.901 196.391C136.853 196.291 137.62 196.199 138.202 196.114C138.785 196.021 139.207 195.886 139.47 195.709C139.733 195.531 139.864 195.268 139.864 194.92V194.857C139.864 194.182 139.651 193.66 139.225 193.29C138.806 192.921 138.209 192.737 137.435 192.737C136.618 192.737 135.968 192.918 135.486 193.28C135.003 193.635 134.683 194.082 134.527 194.622L130.329 194.281C130.542 193.287 130.961 192.428 131.586 191.703C132.211 190.972 133.017 190.411 134.005 190.02C134.999 189.622 136.15 189.423 137.456 189.423C138.366 189.423 139.236 189.53 140.066 189.743C140.905 189.956 141.647 190.286 142.293 190.734C142.946 191.181 143.461 191.756 143.838 192.46C144.214 193.156 144.402 193.99 144.402 194.963V206H140.098V203.731H139.971C139.708 204.242 139.356 204.693 138.916 205.084C138.476 205.467 137.946 205.769 137.329 205.989C136.711 206.202 135.997 206.309 135.187 206.309ZM136.487 203.177C137.155 203.177 137.744 203.045 138.255 202.783C138.767 202.513 139.168 202.151 139.459 201.696C139.75 201.241 139.896 200.727 139.896 200.151V198.415C139.754 198.507 139.559 198.592 139.31 198.67C139.069 198.741 138.795 198.809 138.49 198.873C138.184 198.93 137.879 198.983 137.574 199.033C137.268 199.075 136.991 199.114 136.743 199.15C136.21 199.228 135.745 199.352 135.347 199.523C134.949 199.693 134.64 199.924 134.42 200.215C134.2 200.499 134.09 200.854 134.09 201.281C134.09 201.898 134.314 202.371 134.761 202.697C135.216 203.017 135.791 203.177 136.487 203.177ZM147.923 206V189.636H152.323V192.491H152.494C152.792 191.476 153.293 190.709 153.996 190.19C154.699 189.665 155.509 189.402 156.425 189.402C156.652 189.402 156.897 189.416 157.16 189.445C157.423 189.473 157.653 189.512 157.852 189.562V193.589C157.639 193.525 157.345 193.468 156.968 193.418C156.592 193.369 156.247 193.344 155.935 193.344C155.267 193.344 154.671 193.489 154.145 193.781C153.627 194.065 153.215 194.462 152.909 194.974C152.611 195.485 152.462 196.075 152.462 196.742V206H147.923ZM163.69 206L159.237 189.636H163.829L166.364 200.631H166.514L169.156 189.636H173.662L176.347 200.567H176.485L178.978 189.636H183.559L179.117 206H174.312L171.499 195.709H171.297L168.484 206H163.69ZM185.98 206V189.636H190.518V206H185.98ZM188.26 187.527C187.585 187.527 187.006 187.303 186.523 186.856C186.047 186.401 185.81 185.858 185.81 185.226C185.81 184.601 186.047 184.065 186.523 183.617C187.006 183.163 187.585 182.935 188.26 182.935C188.935 182.935 189.51 183.163 189.986 183.617C190.469 184.065 190.71 184.601 190.71 185.226C190.71 185.858 190.469 186.401 189.986 186.856C189.51 187.303 188.935 187.527 188.26 187.527ZM207.769 194.303L203.614 194.558C203.543 194.203 203.39 193.884 203.156 193.599C202.922 193.308 202.613 193.077 202.229 192.907C201.853 192.729 201.402 192.641 200.876 192.641C200.173 192.641 199.58 192.79 199.097 193.088C198.614 193.379 198.373 193.77 198.373 194.26C198.373 194.651 198.529 194.981 198.841 195.251C199.154 195.521 199.69 195.737 200.45 195.901L203.412 196.497C205.003 196.824 206.189 197.349 206.97 198.074C207.751 198.798 208.142 199.75 208.142 200.929C208.142 202.001 207.826 202.942 207.194 203.752C206.569 204.562 205.709 205.194 204.616 205.648C203.529 206.096 202.275 206.32 200.855 206.32C198.689 206.32 196.963 205.869 195.677 204.967C194.399 204.058 193.65 202.822 193.429 201.259L197.893 201.025C198.028 201.685 198.355 202.19 198.873 202.538C199.392 202.879 200.056 203.049 200.866 203.049C201.661 203.049 202.3 202.896 202.783 202.591C203.273 202.278 203.522 201.877 203.529 201.387C203.522 200.975 203.348 200.638 203.007 200.375C202.666 200.105 202.14 199.899 201.43 199.757L198.596 199.192C196.998 198.873 195.809 198.319 195.027 197.531C194.253 196.742 193.866 195.737 193.866 194.516C193.866 193.464 194.15 192.559 194.718 191.799C195.294 191.039 196.1 190.453 197.137 190.041C198.181 189.629 199.402 189.423 200.802 189.423C202.868 189.423 204.495 189.86 205.681 190.734C206.874 191.607 207.57 192.797 207.769 194.303ZM228.437 199.033V189.636H232.975V206H228.618V203.028H228.447C228.078 203.987 227.464 204.757 226.604 205.339C225.752 205.922 224.711 206.213 223.483 206.213C222.389 206.213 221.427 205.964 220.596 205.467C219.765 204.97 219.115 204.263 218.646 203.347C218.184 202.431 217.95 201.334 217.943 200.055V189.636H222.481V199.246C222.488 200.212 222.748 200.975 223.259 201.536C223.77 202.097 224.456 202.378 225.315 202.378C225.862 202.378 226.373 202.254 226.849 202.005C227.325 201.749 227.709 201.373 228 200.876C228.298 200.379 228.444 199.764 228.437 199.033ZM241.143 196.54V206H236.605V189.636H240.93V192.523H241.122C241.484 191.572 242.092 190.819 242.944 190.265C243.796 189.704 244.829 189.423 246.044 189.423C247.18 189.423 248.171 189.672 249.016 190.169C249.861 190.666 250.518 191.376 250.987 192.3C251.456 193.216 251.69 194.31 251.69 195.581V206H247.152V196.391C247.159 195.389 246.903 194.608 246.385 194.047C245.866 193.479 245.153 193.195 244.244 193.195C243.633 193.195 243.093 193.326 242.624 193.589C242.163 193.852 241.8 194.235 241.538 194.739C241.282 195.237 241.15 195.837 241.143 196.54ZM263.971 189.636V193.045H254.117V189.636H263.971ZM256.354 185.716H260.892V200.972C260.892 201.391 260.956 201.717 261.084 201.952C261.212 202.179 261.389 202.339 261.617 202.431C261.851 202.523 262.121 202.57 262.426 202.57C262.639 202.57 262.852 202.552 263.065 202.516C263.278 202.474 263.442 202.442 263.555 202.42L264.269 205.798C264.042 205.869 263.722 205.95 263.31 206.043C262.899 206.142 262.398 206.202 261.808 206.224C260.715 206.266 259.756 206.121 258.932 205.787C258.115 205.453 257.479 204.935 257.025 204.232C256.57 203.528 256.347 202.641 256.354 201.568V185.716ZM277.421 199.033V189.636H281.959V206H277.602V203.028H277.432C277.062 203.987 276.448 204.757 275.589 205.339C274.736 205.922 273.696 206.213 272.467 206.213C271.373 206.213 270.411 205.964 269.58 205.467C268.749 204.97 268.099 204.263 267.63 203.347C267.169 202.431 266.934 201.334 266.927 200.055V189.636H271.466V199.246C271.473 200.212 271.732 200.975 272.243 201.536C272.755 202.097 273.44 202.378 274.299 202.378C274.846 202.378 275.358 202.254 275.834 202.005C276.309 201.749 276.693 201.373 276.984 200.876C277.282 200.379 277.428 199.764 277.421 199.033ZM289.702 201.291L289.712 195.847H290.373L295.614 189.636H300.824L293.782 197.861H292.706L289.702 201.291ZM285.589 206V184.182H290.128V206H285.589ZM295.817 206L291.001 198.873L294.027 195.666L301.133 206H295.817ZM310.079 206V184.182H318.687C320.342 184.182 321.752 184.498 322.916 185.13C324.081 185.755 324.969 186.625 325.58 187.74C326.198 188.848 326.506 190.126 326.506 191.575C326.506 193.024 326.194 194.303 325.569 195.411C324.944 196.518 324.038 197.381 322.852 197.999C321.673 198.617 320.246 198.926 318.57 198.926H313.083V195.229H317.824C318.712 195.229 319.443 195.077 320.019 194.771C320.601 194.459 321.034 194.029 321.318 193.482C321.609 192.928 321.755 192.293 321.755 191.575C321.755 190.851 321.609 190.219 321.318 189.679C321.034 189.132 320.601 188.71 320.019 188.411C319.436 188.106 318.698 187.953 317.803 187.953H314.692V206H310.079ZM336.611 206.32C334.928 206.32 333.479 205.979 332.265 205.297C331.057 204.608 330.127 203.635 329.473 202.378C328.82 201.114 328.493 199.619 328.493 197.893C328.493 196.21 328.82 194.732 329.473 193.461C330.127 192.19 331.047 191.199 332.233 190.489C333.426 189.778 334.825 189.423 336.43 189.423C337.51 189.423 338.515 189.597 339.445 189.945C340.383 190.286 341.199 190.801 341.895 191.49C342.598 192.179 343.145 193.045 343.536 194.089C343.927 195.126 344.122 196.341 344.122 197.733V198.979H330.304V196.167H339.85C339.85 195.513 339.708 194.935 339.424 194.43C339.14 193.926 338.745 193.532 338.241 193.248C337.744 192.957 337.165 192.811 336.505 192.811C335.816 192.811 335.205 192.971 334.672 193.29C334.147 193.603 333.735 194.026 333.437 194.558C333.138 195.084 332.986 195.67 332.978 196.316V198.99C332.978 199.8 333.128 200.499 333.426 201.089C333.731 201.678 334.161 202.133 334.715 202.452C335.269 202.772 335.926 202.932 336.686 202.932C337.19 202.932 337.652 202.861 338.071 202.719C338.49 202.577 338.848 202.364 339.147 202.08C339.445 201.795 339.672 201.447 339.829 201.036L344.026 201.312C343.813 202.321 343.376 203.202 342.716 203.955C342.062 204.7 341.217 205.283 340.18 205.702C339.15 206.114 337.961 206.32 336.611 206.32ZM351.622 196.54V206H347.084V189.636H351.409V192.523H351.601C351.963 191.572 352.57 190.819 353.422 190.265C354.275 189.704 355.308 189.423 356.522 189.423C357.659 189.423 358.65 189.672 359.495 190.169C360.34 190.666 360.997 191.376 361.466 192.3C361.934 193.216 362.169 194.31 362.169 195.581V206H357.63V196.391C357.638 195.389 357.382 194.608 356.863 194.047C356.345 193.479 355.631 193.195 354.722 193.195C354.111 193.195 353.571 193.326 353.103 193.589C352.641 193.852 352.279 194.235 352.016 194.739C351.76 195.237 351.629 195.837 351.622 196.54ZM373.118 212.477C371.648 212.477 370.387 212.275 369.336 211.87C368.292 211.472 367.461 210.929 366.843 210.24C366.225 209.551 365.824 208.777 365.639 207.918L369.837 207.353C369.964 207.68 370.167 207.985 370.444 208.269C370.721 208.553 371.087 208.781 371.541 208.951C372.003 209.129 372.564 209.217 373.224 209.217C374.212 209.217 375.025 208.976 375.664 208.493C376.31 208.017 376.633 207.218 376.633 206.096V203.102H376.442C376.243 203.557 375.945 203.987 375.547 204.391C375.149 204.796 374.638 205.126 374.013 205.382C373.388 205.638 372.642 205.766 371.775 205.766C370.547 205.766 369.428 205.482 368.42 204.913C367.418 204.338 366.619 203.461 366.023 202.282C365.433 201.096 365.138 199.597 365.138 197.786C365.138 195.933 365.44 194.384 366.044 193.141C366.648 191.898 367.45 190.968 368.452 190.35C369.46 189.732 370.565 189.423 371.765 189.423C372.681 189.423 373.448 189.58 374.066 189.892C374.684 190.197 375.181 190.581 375.557 191.043C375.941 191.497 376.236 191.945 376.442 192.385H376.612V189.636H381.119V206.16C381.119 207.552 380.778 208.717 380.096 209.654C379.414 210.592 378.469 211.295 377.262 211.763C376.062 212.239 374.68 212.477 373.118 212.477ZM373.214 202.357C373.945 202.357 374.563 202.175 375.067 201.813C375.579 201.444 375.969 200.918 376.239 200.237C376.516 199.548 376.655 198.724 376.655 197.765C376.655 196.806 376.52 195.975 376.25 195.272C375.98 194.562 375.589 194.011 375.078 193.621C374.567 193.23 373.945 193.035 373.214 193.035C372.468 193.035 371.839 193.237 371.328 193.642C370.817 194.04 370.43 194.594 370.167 195.304C369.904 196.014 369.773 196.835 369.773 197.765C369.773 198.71 369.904 199.526 370.167 200.215C370.437 200.897 370.824 201.426 371.328 201.803C371.839 202.172 372.468 202.357 373.214 202.357ZM395.224 199.033V189.636H399.762V206H395.405V203.028H395.234C394.865 203.987 394.251 204.757 393.391 205.339C392.539 205.922 391.498 206.213 390.27 206.213C389.176 206.213 388.214 205.964 387.383 205.467C386.552 204.97 385.902 204.263 385.433 203.347C384.972 202.431 384.737 201.334 384.73 200.055V189.636H389.268V199.246C389.275 200.212 389.535 200.975 390.046 201.536C390.557 202.097 391.243 202.378 392.102 202.378C392.649 202.378 393.16 202.254 393.636 202.005C394.112 201.749 394.496 201.373 394.787 200.876C395.085 200.379 395.231 199.764 395.224 199.033ZM408.058 206.309C407.014 206.309 406.084 206.128 405.267 205.766C404.45 205.396 403.804 204.853 403.328 204.136C402.859 203.411 402.625 202.509 402.625 201.43C402.625 200.521 402.792 199.757 403.126 199.139C403.46 198.521 403.914 198.024 404.489 197.648C405.065 197.271 405.718 196.987 406.45 196.795C407.188 196.604 407.962 196.469 408.772 196.391C409.724 196.291 410.491 196.199 411.073 196.114C411.656 196.021 412.078 195.886 412.341 195.709C412.604 195.531 412.735 195.268 412.735 194.92V194.857C412.735 194.182 412.522 193.66 412.096 193.29C411.677 192.921 411.08 192.737 410.306 192.737C409.489 192.737 408.84 192.918 408.357 193.28C407.874 193.635 407.554 194.082 407.398 194.622L403.2 194.281C403.413 193.287 403.832 192.428 404.457 191.703C405.082 190.972 405.889 190.411 406.876 190.02C407.87 189.622 409.021 189.423 410.328 189.423C411.237 189.423 412.107 189.53 412.938 189.743C413.776 189.956 414.518 190.286 415.164 190.734C415.818 191.181 416.332 191.756 416.709 192.46C417.085 193.156 417.274 193.99 417.274 194.963V206H412.97V203.731H412.842C412.579 204.242 412.227 204.693 411.787 205.084C411.347 205.467 410.818 205.769 410.2 205.989C409.582 206.202 408.868 206.309 408.058 206.309ZM409.358 203.177C410.026 203.177 410.615 203.045 411.127 202.783C411.638 202.513 412.039 202.151 412.33 201.696C412.622 201.241 412.767 200.727 412.767 200.151V198.415C412.625 198.507 412.43 198.592 412.181 198.67C411.94 198.741 411.666 198.809 411.361 198.873C411.055 198.93 410.75 198.983 410.445 199.033C410.139 199.075 409.862 199.114 409.614 199.15C409.081 199.228 408.616 199.352 408.218 199.523C407.82 199.693 407.511 199.924 407.291 200.215C407.071 200.499 406.961 200.854 406.961 201.281C406.961 201.898 407.185 202.371 407.632 202.697C408.087 203.017 408.662 203.177 409.358 203.177ZM429.498 189.636V193.045H419.644V189.636H429.498ZM421.881 185.716H426.419V200.972C426.419 201.391 426.483 201.717 426.611 201.952C426.739 202.179 426.917 202.339 427.144 202.431C427.378 202.523 427.648 202.57 427.954 202.57C428.167 202.57 428.38 202.552 428.593 202.516C428.806 202.474 428.969 202.442 429.083 202.42L429.797 205.798C429.569 205.869 429.25 205.95 428.838 206.043C428.426 206.142 427.925 206.202 427.336 206.224C426.242 206.266 425.283 206.121 424.459 205.787C423.642 205.453 423.007 204.935 422.552 204.232C422.098 203.528 421.874 202.641 421.881 201.568V185.716ZM437.121 206.309C436.077 206.309 435.146 206.128 434.33 205.766C433.513 205.396 432.867 204.853 432.391 204.136C431.922 203.411 431.688 202.509 431.688 201.43C431.688 200.521 431.854 199.757 432.188 199.139C432.522 198.521 432.977 198.024 433.552 197.648C434.127 197.271 434.781 196.987 435.512 196.795C436.251 196.604 437.025 196.469 437.835 196.391C438.786 196.291 439.553 196.199 440.136 196.114C440.718 196.021 441.141 195.886 441.403 195.709C441.666 195.531 441.798 195.268 441.798 194.92V194.857C441.798 194.182 441.585 193.66 441.158 193.29C440.739 192.921 440.143 192.737 439.369 192.737C438.552 192.737 437.902 192.918 437.419 193.28C436.936 193.635 436.617 194.082 436.46 194.622L432.263 194.281C432.476 193.287 432.895 192.428 433.52 191.703C434.145 190.972 434.951 190.411 435.938 190.02C436.933 189.622 438.083 189.423 439.39 189.423C440.299 189.423 441.169 189.53 442 189.743C442.838 189.956 443.58 190.286 444.227 190.734C444.88 191.181 445.395 191.756 445.771 192.46C446.148 193.156 446.336 193.99 446.336 194.963V206H442.032V203.731H441.904C441.641 204.242 441.29 204.693 440.85 205.084C440.409 205.467 439.88 205.769 439.262 205.989C438.644 206.202 437.93 206.309 437.121 206.309ZM438.421 203.177C439.088 203.177 439.678 203.045 440.189 202.783C440.7 202.513 441.102 202.151 441.393 201.696C441.684 201.241 441.83 200.727 441.83 200.151V198.415C441.688 198.507 441.492 198.592 441.244 198.67C441.002 198.741 440.729 198.809 440.423 198.873C440.118 198.93 439.813 198.983 439.507 199.033C439.202 199.075 438.925 199.114 438.676 199.15C438.144 199.228 437.678 199.352 437.281 199.523C436.883 199.693 436.574 199.924 436.354 200.215C436.134 200.499 436.024 200.854 436.024 201.281C436.024 201.898 436.247 202.371 436.695 202.697C437.149 203.017 437.725 203.177 438.421 203.177ZM454.395 196.54V206H449.857V189.636H454.182V192.523H454.374C454.736 191.572 455.343 190.819 456.196 190.265C457.048 189.704 458.081 189.423 459.296 189.423C460.432 189.423 461.423 189.672 462.268 190.169C463.113 190.666 463.77 191.376 464.239 192.3C464.708 193.216 464.942 194.31 464.942 195.581V206H460.404V196.391C460.411 195.389 460.155 194.608 459.637 194.047C459.118 193.479 458.405 193.195 457.495 193.195C456.885 193.195 456.345 193.326 455.876 193.589C455.415 193.852 455.052 194.235 454.79 194.739C454.534 195.237 454.402 195.837 454.395 196.54ZM118.316 242V220.182H126.924C128.579 220.182 129.989 220.498 131.154 221.13C132.318 221.755 133.206 222.625 133.817 223.74C134.435 224.848 134.744 226.126 134.744 227.575C134.744 229.024 134.431 230.303 133.806 231.411C133.181 232.518 132.276 233.381 131.09 233.999C129.911 234.617 128.483 234.926 126.807 234.926H121.32V231.229H126.061C126.949 231.229 127.681 231.077 128.256 230.771C128.838 230.459 129.271 230.029 129.556 229.482C129.847 228.928 129.992 228.293 129.992 227.575C129.992 226.851 129.847 226.219 129.556 225.679C129.271 225.132 128.838 224.71 128.256 224.411C127.673 224.106 126.935 223.953 126.04 223.953H122.929V242H118.316ZM141.882 242.309C140.838 242.309 139.907 242.128 139.09 241.766C138.274 241.396 137.627 240.853 137.151 240.136C136.683 239.411 136.448 238.509 136.448 237.43C136.448 236.521 136.615 235.757 136.949 235.139C137.283 234.521 137.737 234.024 138.313 233.648C138.888 233.271 139.541 232.987 140.273 232.795C141.012 232.604 141.786 232.469 142.595 232.391C143.547 232.291 144.314 232.199 144.896 232.114C145.479 232.021 145.901 231.886 146.164 231.709C146.427 231.531 146.558 231.268 146.558 230.92V230.857C146.558 230.182 146.345 229.66 145.919 229.29C145.5 228.921 144.904 228.737 144.129 228.737C143.313 228.737 142.663 228.918 142.18 229.28C141.697 229.635 141.377 230.082 141.221 230.622L137.024 230.281C137.237 229.287 137.656 228.428 138.281 227.703C138.906 226.972 139.712 226.411 140.699 226.02C141.693 225.622 142.844 225.423 144.151 225.423C145.06 225.423 145.93 225.53 146.761 225.743C147.599 225.956 148.341 226.286 148.987 226.734C149.641 227.181 150.156 227.756 150.532 228.46C150.909 229.156 151.097 229.99 151.097 230.963V242H146.793V239.731H146.665C146.402 240.242 146.051 240.693 145.61 241.084C145.17 241.467 144.641 241.769 144.023 241.989C143.405 242.202 142.691 242.309 141.882 242.309ZM143.181 239.177C143.849 239.177 144.438 239.045 144.95 238.783C145.461 238.513 145.862 238.151 146.154 237.696C146.445 237.241 146.59 236.727 146.59 236.151V234.415C146.448 234.507 146.253 234.592 146.004 234.67C145.763 234.741 145.49 234.809 145.184 234.873C144.879 234.93 144.573 234.983 144.268 235.033C143.963 235.075 143.686 235.114 143.437 235.15C142.904 235.228 142.439 235.352 142.041 235.523C141.644 235.693 141.335 235.924 141.115 236.215C140.894 236.499 140.784 236.854 140.784 237.281C140.784 237.898 141.008 238.371 141.455 238.697C141.91 239.017 142.485 239.177 143.181 239.177ZM154.618 242V225.636H159.018V228.491H159.188C159.486 227.476 159.987 226.709 160.69 226.19C161.393 225.665 162.203 225.402 163.119 225.402C163.346 225.402 163.591 225.416 163.854 225.445C164.117 225.473 164.348 225.512 164.547 225.562V229.589C164.334 229.525 164.039 229.468 163.662 229.418C163.286 229.369 162.942 229.344 162.629 229.344C161.961 229.344 161.365 229.489 160.839 229.781C160.321 230.065 159.909 230.462 159.604 230.974C159.305 231.485 159.156 232.075 159.156 232.742V242H154.618ZM166.893 242V225.636H171.431V242H166.893ZM169.173 223.527C168.498 223.527 167.919 223.303 167.436 222.856C166.961 222.401 166.723 221.858 166.723 221.226C166.723 220.601 166.961 220.065 167.436 219.617C167.919 219.163 168.498 218.935 169.173 218.935C169.848 218.935 170.423 219.163 170.899 219.617C171.382 220.065 171.623 220.601 171.623 221.226C171.623 221.858 171.382 222.401 170.899 222.856C170.423 223.303 169.848 223.527 169.173 223.527ZM178.295 242L173.842 225.636H178.433L180.969 236.631H181.118L183.76 225.636H188.267L190.951 236.567H191.09L193.583 225.636H198.164L193.721 242H188.916L186.104 231.709H185.901L183.089 242H178.295ZM200.585 242V225.636H205.123V242H200.585ZM202.864 223.527C202.19 223.527 201.611 223.303 201.128 222.856C200.652 222.401 200.414 221.858 200.414 221.226C200.414 220.601 200.652 220.065 201.128 219.617C201.611 219.163 202.19 218.935 202.864 218.935C203.539 218.935 204.114 219.163 204.59 219.617C205.073 220.065 205.315 220.601 205.315 221.226C205.315 221.858 205.073 222.401 204.59 222.856C204.114 223.303 203.539 223.527 202.864 223.527ZM222.373 230.303L218.219 230.558C218.148 230.203 217.995 229.884 217.76 229.599C217.526 229.308 217.217 229.077 216.834 228.907C216.457 228.729 216.006 228.641 215.481 228.641C214.778 228.641 214.184 228.79 213.702 229.088C213.219 229.379 212.977 229.77 212.977 230.26C212.977 230.651 213.133 230.981 213.446 231.251C213.758 231.521 214.295 231.737 215.055 231.901L218.016 232.497C219.607 232.824 220.793 233.349 221.574 234.074C222.356 234.798 222.746 235.75 222.746 236.929C222.746 238.001 222.43 238.942 221.798 239.752C221.173 240.562 220.314 241.194 219.22 241.648C218.133 242.096 216.88 242.32 215.459 242.32C213.293 242.32 211.567 241.869 210.282 240.967C209.003 240.058 208.254 238.822 208.034 237.259L212.498 237.025C212.633 237.685 212.959 238.19 213.478 238.538C213.996 238.879 214.66 239.049 215.47 239.049C216.265 239.049 216.905 238.896 217.388 238.591C217.878 238.278 218.126 237.877 218.133 237.387C218.126 236.975 217.952 236.638 217.611 236.375C217.27 236.105 216.745 235.899 216.035 235.757L213.201 235.192C211.603 234.873 210.413 234.319 209.632 233.531C208.858 232.742 208.471 231.737 208.471 230.516C208.471 229.464 208.755 228.559 209.323 227.799C209.898 227.039 210.704 226.453 211.741 226.041C212.785 225.629 214.007 225.423 215.406 225.423C217.473 225.423 219.099 225.86 220.285 226.734C221.479 227.607 222.175 228.797 222.373 230.303ZM230.27 242.309C229.226 242.309 228.296 242.128 227.479 241.766C226.662 241.396 226.016 240.853 225.54 240.136C225.071 239.411 224.837 238.509 224.837 237.43C224.837 236.521 225.004 235.757 225.338 235.139C225.672 234.521 226.126 234.024 226.701 233.648C227.277 233.271 227.93 232.987 228.662 232.795C229.4 232.604 230.174 232.469 230.984 232.391C231.936 232.291 232.703 232.199 233.285 232.114C233.868 232.021 234.29 231.886 234.553 231.709C234.816 231.531 234.947 231.268 234.947 230.92V230.857C234.947 230.182 234.734 229.66 234.308 229.29C233.889 228.921 233.292 228.737 232.518 228.737C231.701 228.737 231.051 228.918 230.569 229.28C230.086 229.635 229.766 230.082 229.61 230.622L225.412 230.281C225.625 229.287 226.044 228.428 226.669 227.703C227.294 226.972 228.1 226.411 229.088 226.02C230.082 225.622 231.233 225.423 232.539 225.423C233.449 225.423 234.319 225.53 235.15 225.743C235.988 225.956 236.73 226.286 237.376 226.734C238.029 227.181 238.544 227.756 238.921 228.46C239.297 229.156 239.485 229.99 239.485 230.963V242H235.181V239.731H235.054C234.791 240.242 234.439 240.693 233.999 241.084C233.559 241.467 233.029 241.769 232.412 241.989C231.794 242.202 231.08 242.309 230.27 242.309ZM231.57 239.177C232.238 239.177 232.827 239.045 233.338 238.783C233.85 238.513 234.251 238.151 234.542 237.696C234.833 237.241 234.979 236.727 234.979 236.151V234.415C234.837 234.507 234.642 234.592 234.393 234.67C234.152 234.741 233.878 234.809 233.573 234.873C233.267 234.93 232.962 234.983 232.657 235.033C232.351 235.075 232.074 235.114 231.826 235.15C231.293 235.228 230.828 235.352 230.43 235.523C230.032 235.693 229.723 235.924 229.503 236.215C229.283 236.499 229.173 236.854 229.173 237.281C229.173 237.898 229.397 238.371 229.844 238.697C230.299 239.017 230.874 239.177 231.57 239.177ZM251.71 225.636V229.045H241.856V225.636H251.71ZM244.093 221.716H248.631V236.972C248.631 237.391 248.695 237.717 248.823 237.952C248.951 238.179 249.129 238.339 249.356 238.431C249.59 238.523 249.86 238.57 250.165 238.57C250.379 238.57 250.592 238.552 250.805 238.516C251.018 238.474 251.181 238.442 251.295 238.42L252.009 241.798C251.781 241.869 251.462 241.95 251.05 242.043C250.638 242.142 250.137 242.202 249.548 242.224C248.454 242.266 247.495 242.121 246.671 241.787C245.854 241.453 245.219 240.935 244.764 240.232C244.31 239.528 244.086 238.641 244.093 237.568V221.716ZM259.333 242.309C258.289 242.309 257.358 242.128 256.542 241.766C255.725 241.396 255.078 240.853 254.603 240.136C254.134 239.411 253.9 238.509 253.9 237.43C253.9 236.521 254.066 235.757 254.4 235.139C254.734 234.521 255.189 234.024 255.764 233.648C256.339 233.271 256.993 232.987 257.724 232.795C258.463 232.604 259.237 232.469 260.047 232.391C260.998 232.291 261.765 232.199 262.348 232.114C262.93 232.021 263.353 231.886 263.615 231.709C263.878 231.531 264.01 231.268 264.01 230.92V230.857C264.01 230.182 263.797 229.66 263.37 229.29C262.951 228.921 262.355 228.737 261.581 228.737C260.764 228.737 260.114 228.918 259.631 229.28C259.148 229.635 258.828 230.082 258.672 230.622L254.475 230.281C254.688 229.287 255.107 228.428 255.732 227.703C256.357 226.972 257.163 226.411 258.15 226.02C259.145 225.622 260.295 225.423 261.602 225.423C262.511 225.423 263.381 225.53 264.212 225.743C265.05 225.956 265.792 226.286 266.439 226.734C267.092 227.181 267.607 227.756 267.983 228.46C268.36 229.156 268.548 229.99 268.548 230.963V242H264.244V239.731H264.116C263.853 240.242 263.502 240.693 263.061 241.084C262.621 241.467 262.092 241.769 261.474 241.989C260.856 242.202 260.142 242.309 259.333 242.309ZM260.632 239.177C261.3 239.177 261.89 239.045 262.401 238.783C262.912 238.513 263.314 238.151 263.605 237.696C263.896 237.241 264.042 236.727 264.042 236.151V234.415C263.9 234.507 263.704 234.592 263.456 234.67C263.214 234.741 262.941 234.809 262.635 234.873C262.33 234.93 262.025 234.983 261.719 235.033C261.414 235.075 261.137 235.114 260.888 235.15C260.355 235.228 259.89 235.352 259.493 235.523C259.095 235.693 258.786 235.924 258.566 236.215C258.346 236.499 258.235 236.854 258.235 237.281C258.235 237.898 258.459 238.371 258.907 238.697C259.361 239.017 259.936 239.177 260.632 239.177ZM279.097 242V220.182H287.833C289.438 220.182 290.777 220.42 291.85 220.896C292.922 221.371 293.728 222.032 294.268 222.877C294.808 223.715 295.078 224.681 295.078 225.775C295.078 226.627 294.907 227.376 294.566 228.023C294.225 228.662 293.757 229.187 293.16 229.599C292.57 230.004 291.896 230.292 291.136 230.462V230.675C291.967 230.711 292.744 230.945 293.469 231.379C294.2 231.812 294.794 232.419 295.248 233.2C295.703 233.974 295.93 234.898 295.93 235.97C295.93 237.128 295.642 238.161 295.067 239.07C294.499 239.972 293.657 240.686 292.542 241.212C291.427 241.737 290.053 242 288.419 242H279.097ZM283.71 238.229H287.471C288.757 238.229 289.694 237.984 290.284 237.494C290.873 236.996 291.168 236.336 291.168 235.512C291.168 234.908 291.022 234.376 290.731 233.914C290.44 233.452 290.024 233.09 289.485 232.827C288.952 232.565 288.316 232.433 287.578 232.433H283.71V238.229ZM283.71 229.312H287.13C287.762 229.312 288.323 229.202 288.813 228.982C289.311 228.754 289.701 228.435 289.985 228.023C290.276 227.611 290.422 227.117 290.422 226.542C290.422 225.754 290.142 225.118 289.58 224.635C289.026 224.152 288.238 223.911 287.215 223.911H283.71V229.312ZM306.304 242.32C304.62 242.32 303.172 241.979 301.957 241.297C300.75 240.608 299.819 239.635 299.166 238.378C298.512 237.114 298.186 235.619 298.186 233.893C298.186 232.21 298.512 230.732 299.166 229.461C299.819 228.19 300.739 227.199 301.925 226.489C303.118 225.778 304.517 225.423 306.123 225.423C307.202 225.423 308.207 225.597 309.137 225.945C310.075 226.286 310.892 226.801 311.588 227.49C312.291 228.179 312.838 229.045 313.228 230.089C313.619 231.126 313.814 232.341 313.814 233.733V234.979H299.997V232.167H309.542C309.542 231.513 309.4 230.935 309.116 230.43C308.832 229.926 308.438 229.532 307.934 229.248C307.436 228.957 306.858 228.811 306.197 228.811C305.508 228.811 304.897 228.971 304.365 229.29C303.839 229.603 303.427 230.026 303.129 230.558C302.831 231.084 302.678 231.67 302.671 232.316V234.99C302.671 235.8 302.82 236.499 303.118 237.089C303.424 237.678 303.853 238.133 304.407 238.452C304.961 238.772 305.618 238.932 306.378 238.932C306.882 238.932 307.344 238.861 307.763 238.719C308.182 238.577 308.541 238.364 308.839 238.08C309.137 237.795 309.365 237.447 309.521 237.036L313.718 237.312C313.505 238.321 313.069 239.202 312.408 239.955C311.755 240.7 310.909 241.283 309.873 241.702C308.843 242.114 307.653 242.32 306.304 242.32ZM316.776 242V225.636H321.176V228.491H321.346C321.645 227.476 322.145 226.709 322.848 226.19C323.551 225.665 324.361 225.402 325.277 225.402C325.505 225.402 325.75 225.416 326.012 225.445C326.275 225.473 326.506 225.512 326.705 225.562V229.589C326.492 229.525 326.197 229.468 325.821 229.418C325.444 229.369 325.1 229.344 324.787 229.344C324.12 229.344 323.523 229.489 322.998 229.781C322.479 230.065 322.067 230.462 321.762 230.974C321.463 231.485 321.314 232.075 321.314 232.742V242H316.776ZM329.137 242V220.182H333.675V228.385H333.813C334.012 227.945 334.3 227.497 334.676 227.043C335.06 226.581 335.557 226.197 336.168 225.892C336.786 225.58 337.553 225.423 338.469 225.423C339.662 225.423 340.763 225.736 341.771 226.361C342.78 226.979 343.586 227.913 344.19 229.163C344.794 230.406 345.095 231.964 345.095 233.839C345.095 235.665 344.801 237.206 344.211 238.463C343.629 239.713 342.833 240.661 341.825 241.308C340.823 241.947 339.701 242.266 338.458 242.266C337.578 242.266 336.828 242.121 336.21 241.83C335.6 241.538 335.099 241.173 334.708 240.732C334.318 240.285 334.019 239.834 333.813 239.379H333.611V242H329.137ZM333.579 233.818C333.579 234.791 333.714 235.64 333.984 236.364C334.254 237.089 334.644 237.653 335.156 238.058C335.667 238.456 336.289 238.655 337.02 238.655C337.759 238.655 338.384 238.452 338.895 238.048C339.406 237.636 339.794 237.067 340.056 236.343C340.326 235.612 340.461 234.77 340.461 233.818C340.461 232.874 340.33 232.043 340.067 231.325C339.804 230.608 339.417 230.047 338.906 229.642C338.394 229.237 337.766 229.035 337.02 229.035C336.281 229.035 335.656 229.23 335.145 229.621C334.641 230.011 334.254 230.565 333.984 231.283C333.714 232 333.579 232.845 333.579 233.818ZM352.79 242.309C351.746 242.309 350.815 242.128 349.999 241.766C349.182 241.396 348.536 240.853 348.06 240.136C347.591 239.411 347.357 238.509 347.357 237.43C347.357 236.521 347.523 235.757 347.857 235.139C348.191 234.521 348.646 234.024 349.221 233.648C349.796 233.271 350.45 232.987 351.181 232.795C351.92 232.604 352.694 232.469 353.504 232.391C354.455 232.291 355.222 232.199 355.805 232.114C356.387 232.021 356.81 231.886 357.072 231.709C357.335 231.531 357.467 231.268 357.467 230.92V230.857C357.467 230.182 357.254 229.66 356.827 229.29C356.408 228.921 355.812 228.737 355.038 228.737C354.221 228.737 353.571 228.918 353.088 229.28C352.605 229.635 352.286 230.082 352.129 230.622L347.932 230.281C348.145 229.287 348.564 228.428 349.189 227.703C349.814 226.972 350.62 226.411 351.607 226.02C352.602 225.622 353.752 225.423 355.059 225.423C355.968 225.423 356.838 225.53 357.669 225.743C358.507 225.956 359.249 226.286 359.896 226.734C360.549 227.181 361.064 227.756 361.44 228.46C361.817 229.156 362.005 229.99 362.005 230.963V242H357.701V239.731H357.573C357.31 240.242 356.959 240.693 356.518 241.084C356.078 241.467 355.549 241.769 354.931 241.989C354.313 242.202 353.599 242.309 352.79 242.309ZM354.089 239.177C354.757 239.177 355.347 239.045 355.858 238.783C356.369 238.513 356.771 238.151 357.062 237.696C357.353 237.241 357.499 236.727 357.499 236.151V234.415C357.357 234.507 357.161 234.592 356.913 234.67C356.671 234.741 356.398 234.809 356.092 234.873C355.787 234.93 355.482 234.983 355.176 235.033C354.871 235.075 354.594 235.114 354.345 235.15C353.813 235.228 353.347 235.352 352.95 235.523C352.552 235.693 352.243 235.924 352.023 236.215C351.803 236.499 351.692 236.854 351.692 237.281C351.692 237.898 351.916 238.371 352.364 238.697C352.818 239.017 353.393 239.177 354.089 239.177ZM379.141 230.303L374.986 230.558C374.915 230.203 374.762 229.884 374.528 229.599C374.294 229.308 373.985 229.077 373.601 228.907C373.225 228.729 372.774 228.641 372.248 228.641C371.545 228.641 370.952 228.79 370.469 229.088C369.986 229.379 369.745 229.77 369.745 230.26C369.745 230.651 369.901 230.981 370.213 231.251C370.526 231.521 371.062 231.737 371.822 231.901L374.784 232.497C376.375 232.824 377.561 233.349 378.342 234.074C379.123 234.798 379.514 235.75 379.514 236.929C379.514 238.001 379.198 238.942 378.566 239.752C377.941 240.562 377.081 241.194 375.988 241.648C374.901 242.096 373.647 242.32 372.227 242.32C370.061 242.32 368.335 241.869 367.049 240.967C365.771 240.058 365.022 238.822 364.801 237.259L369.265 237.025C369.4 237.685 369.727 238.19 370.245 238.538C370.764 238.879 371.428 239.049 372.238 239.049C373.033 239.049 373.672 238.896 374.155 238.591C374.645 238.278 374.894 237.877 374.901 237.387C374.894 236.975 374.72 236.638 374.379 236.375C374.038 236.105 373.512 235.899 372.802 235.757L369.968 235.192C368.37 234.873 367.181 234.319 366.4 233.531C365.625 232.742 365.238 231.737 365.238 230.516C365.238 229.464 365.522 228.559 366.091 227.799C366.666 227.039 367.472 226.453 368.509 226.041C369.553 225.629 370.775 225.423 372.174 225.423C374.24 225.423 375.867 225.86 377.053 226.734C378.246 227.607 378.942 228.797 379.141 230.303ZM382.372 242V225.636H386.91V242H382.372ZM384.651 223.527C383.977 223.527 383.398 223.303 382.915 222.856C382.439 222.401 382.201 221.858 382.201 221.226C382.201 220.601 382.439 220.065 382.915 219.617C383.398 219.163 383.977 218.935 384.651 218.935C385.326 218.935 385.901 219.163 386.377 219.617C386.86 220.065 387.102 220.601 387.102 221.226C387.102 221.858 386.86 222.401 386.377 222.856C385.901 223.303 385.326 223.527 384.651 223.527ZM404.161 230.303L400.006 230.558C399.935 230.203 399.782 229.884 399.548 229.599C399.313 229.308 399.004 229.077 398.621 228.907C398.244 228.729 397.793 228.641 397.268 228.641C396.565 228.641 395.972 228.79 395.489 229.088C395.006 229.379 394.764 229.77 394.764 230.26C394.764 230.651 394.92 230.981 395.233 231.251C395.545 231.521 396.082 231.737 396.842 231.901L399.803 232.497C401.394 232.824 402.58 233.349 403.362 234.074C404.143 234.798 404.533 235.75 404.533 236.929C404.533 238.001 404.217 238.942 403.585 239.752C402.96 240.562 402.101 241.194 401.007 241.648C399.92 242.096 398.667 242.32 397.246 242.32C395.08 242.32 393.354 241.869 392.069 240.967C390.79 240.058 390.041 238.822 389.821 237.259L394.285 237.025C394.42 237.685 394.746 238.19 395.265 238.538C395.783 238.879 396.447 239.049 397.257 239.049C398.053 239.049 398.692 238.896 399.175 238.591C399.665 238.278 399.913 237.877 399.92 237.387C399.913 236.975 399.739 236.638 399.398 236.375C399.058 236.105 398.532 235.899 397.822 235.757L394.988 235.192C393.39 234.873 392.2 234.319 391.419 233.531C390.645 232.742 390.258 231.737 390.258 230.516C390.258 229.464 390.542 228.559 391.11 227.799C391.685 227.039 392.491 226.453 393.528 226.041C394.572 225.629 395.794 225.423 397.193 225.423C399.26 225.423 400.886 225.86 402.072 226.734C403.266 227.607 403.962 228.797 404.161 230.303ZM176.91 256.182H182.599L188.607 270.841H188.863L194.872 256.182H200.561V278H196.086V263.799H195.905L190.259 277.893H187.212L181.566 263.746H181.384V278H176.91V256.182ZM208.942 278.309C207.898 278.309 206.968 278.128 206.151 277.766C205.334 277.396 204.688 276.853 204.212 276.136C203.743 275.411 203.509 274.509 203.509 273.43C203.509 272.521 203.676 271.757 204.01 271.139C204.343 270.521 204.798 270.024 205.373 269.648C205.949 269.271 206.602 268.987 207.333 268.795C208.072 268.604 208.846 268.469 209.656 268.391C210.608 268.291 211.375 268.199 211.957 268.114C212.539 268.021 212.962 267.886 213.225 267.709C213.488 267.531 213.619 267.268 213.619 266.92V266.857C213.619 266.182 213.406 265.66 212.98 265.29C212.561 264.921 211.964 264.737 211.19 264.737C210.373 264.737 209.723 264.918 209.24 265.28C208.757 265.635 208.438 266.082 208.282 266.622L204.084 266.281C204.297 265.287 204.716 264.428 205.341 263.703C205.966 262.972 206.772 262.411 207.76 262.02C208.754 261.622 209.904 261.423 211.211 261.423C212.12 261.423 212.99 261.53 213.821 261.743C214.659 261.956 215.402 262.286 216.048 262.734C216.701 263.181 217.216 263.756 217.593 264.46C217.969 265.156 218.157 265.99 218.157 266.963V278H213.853V275.731H213.725C213.463 276.242 213.111 276.693 212.671 277.084C212.23 277.467 211.701 277.769 211.083 277.989C210.466 278.202 209.752 278.309 208.942 278.309ZM210.242 275.177C210.909 275.177 211.499 275.045 212.01 274.783C212.522 274.513 212.923 274.151 213.214 273.696C213.505 273.241 213.651 272.727 213.651 272.151V270.415C213.509 270.507 213.314 270.592 213.065 270.67C212.824 270.741 212.55 270.809 212.245 270.873C211.939 270.93 211.634 270.983 211.328 271.033C211.023 271.075 210.746 271.114 210.498 271.15C209.965 271.228 209.5 271.352 209.102 271.523C208.704 271.693 208.395 271.924 208.175 272.215C207.955 272.499 207.845 272.854 207.845 273.281C207.845 273.898 208.069 274.371 208.516 274.697C208.971 275.017 209.546 275.177 210.242 275.177ZM235.293 266.303L231.138 266.558C231.067 266.203 230.915 265.884 230.68 265.599C230.446 265.308 230.137 265.077 229.754 264.907C229.377 264.729 228.926 264.641 228.401 264.641C227.697 264.641 227.104 264.79 226.621 265.088C226.138 265.379 225.897 265.77 225.897 266.26C225.897 266.651 226.053 266.981 226.366 267.251C226.678 267.521 227.214 267.737 227.974 267.901L230.936 268.497C232.527 268.824 233.713 269.349 234.494 270.074C235.276 270.798 235.666 271.75 235.666 272.929C235.666 274.001 235.35 274.942 234.718 275.752C234.093 276.562 233.234 277.194 232.14 277.648C231.053 278.096 229.8 278.32 228.379 278.32C226.213 278.32 224.487 277.869 223.202 276.967C221.923 276.058 221.174 274.822 220.954 273.259L225.418 273.025C225.553 273.685 225.879 274.19 226.398 274.538C226.916 274.879 227.58 275.049 228.39 275.049C229.185 275.049 229.825 274.896 230.308 274.591C230.798 274.278 231.046 273.877 231.053 273.387C231.046 272.975 230.872 272.638 230.531 272.375C230.19 272.105 229.665 271.899 228.955 271.757L226.121 271.192C224.523 270.873 223.333 270.319 222.552 269.531C221.778 268.742 221.391 267.737 221.391 266.516C221.391 265.464 221.675 264.559 222.243 263.799C222.818 263.039 223.624 262.453 224.661 262.041C225.705 261.629 226.927 261.423 228.326 261.423C230.393 261.423 232.019 261.86 233.205 262.734C234.398 263.607 235.094 264.797 235.293 266.303ZM241.326 284.136C240.751 284.136 240.211 284.09 239.706 283.998C239.209 283.913 238.797 283.803 238.471 283.668L239.493 280.28C240.026 280.443 240.506 280.532 240.932 280.546C241.365 280.56 241.738 280.461 242.05 280.248C242.37 280.035 242.629 279.673 242.828 279.161L243.094 278.469L237.224 261.636H241.997L245.385 273.653H245.555L248.975 261.636H253.78L247.42 279.768C247.114 280.649 246.699 281.416 246.173 282.07C245.655 282.73 244.998 283.238 244.202 283.593C243.407 283.955 242.448 284.136 241.326 284.136ZM260.329 278.309C259.285 278.309 258.354 278.128 257.538 277.766C256.721 277.396 256.075 276.853 255.599 276.136C255.13 275.411 254.896 274.509 254.896 273.43C254.896 272.521 255.063 271.757 255.396 271.139C255.73 270.521 256.185 270.024 256.76 269.648C257.335 269.271 257.989 268.987 258.72 268.795C259.459 268.604 260.233 268.469 261.043 268.391C261.994 268.291 262.761 268.199 263.344 268.114C263.926 268.021 264.349 267.886 264.612 267.709C264.874 267.531 265.006 267.268 265.006 266.92V266.857C265.006 266.182 264.793 265.66 264.366 265.29C263.947 264.921 263.351 264.737 262.577 264.737C261.76 264.737 261.11 264.918 260.627 265.28C260.144 265.635 259.825 266.082 259.668 266.622L255.471 266.281C255.684 265.287 256.103 264.428 256.728 263.703C257.353 262.972 258.159 262.411 259.146 262.02C260.141 261.622 261.291 261.423 262.598 261.423C263.507 261.423 264.377 261.53 265.208 261.743C266.046 261.956 266.788 262.286 267.435 262.734C268.088 263.181 268.603 263.756 268.979 264.46C269.356 265.156 269.544 265.99 269.544 266.963V278H265.24V275.731H265.112C264.849 276.242 264.498 276.693 264.058 277.084C263.617 277.467 263.088 277.769 262.47 277.989C261.852 278.202 261.138 278.309 260.329 278.309ZM261.629 275.177C262.296 275.177 262.886 275.045 263.397 274.783C263.908 274.513 264.31 274.151 264.601 273.696C264.892 273.241 265.038 272.727 265.038 272.151V270.415C264.896 270.507 264.7 270.592 264.452 270.67C264.21 270.741 263.937 270.809 263.631 270.873C263.326 270.93 263.021 270.983 262.715 271.033C262.41 271.075 262.133 271.114 261.884 271.15C261.352 271.228 260.886 271.352 260.489 271.523C260.091 271.693 259.782 271.924 259.562 272.215C259.342 272.499 259.232 272.854 259.232 273.281C259.232 273.898 259.455 274.371 259.903 274.697C260.357 275.017 260.933 275.177 261.629 275.177ZM273.065 278V261.636H277.465V264.491H277.635C277.934 263.476 278.434 262.709 279.137 262.19C279.841 261.665 280.65 261.402 281.566 261.402C281.794 261.402 282.039 261.416 282.301 261.445C282.564 261.473 282.795 261.512 282.994 261.562V265.589C282.781 265.525 282.486 265.468 282.11 265.418C281.733 265.369 281.389 265.344 281.076 265.344C280.409 265.344 279.812 265.489 279.287 265.781C278.768 266.065 278.356 266.462 278.051 266.974C277.752 267.485 277.603 268.075 277.603 268.742V278H273.065ZM289.538 278.309C288.494 278.309 287.563 278.128 286.747 277.766C285.93 277.396 285.284 276.853 284.808 276.136C284.339 275.411 284.105 274.509 284.105 273.43C284.105 272.521 284.271 271.757 284.605 271.139C284.939 270.521 285.394 270.024 285.969 269.648C286.544 269.271 287.198 268.987 287.929 268.795C288.668 268.604 289.442 268.469 290.252 268.391C291.203 268.291 291.97 268.199 292.553 268.114C293.135 268.021 293.558 267.886 293.82 267.709C294.083 267.531 294.215 267.268 294.215 266.92V266.857C294.215 266.182 294.002 265.66 293.575 265.29C293.156 264.921 292.56 264.737 291.786 264.737C290.969 264.737 290.319 264.918 289.836 265.28C289.353 265.635 289.034 266.082 288.877 266.622L284.68 266.281C284.893 265.287 285.312 264.428 285.937 263.703C286.562 262.972 287.368 262.411 288.355 262.02C289.35 261.622 290.5 261.423 291.807 261.423C292.716 261.423 293.586 261.53 294.417 261.743C295.255 261.956 295.997 262.286 296.644 262.734C297.297 263.181 297.812 263.756 298.188 264.46C298.565 265.156 298.753 265.99 298.753 266.963V278H294.449V275.731H294.321C294.058 276.242 293.707 276.693 293.267 277.084C292.826 277.467 292.297 277.769 291.679 277.989C291.061 278.202 290.347 278.309 289.538 278.309ZM290.838 275.177C291.505 275.177 292.095 275.045 292.606 274.783C293.117 274.513 293.519 274.151 293.81 273.696C294.101 273.241 294.247 272.727 294.247 272.151V270.415C294.105 270.507 293.909 270.592 293.661 270.67C293.419 270.741 293.146 270.809 292.84 270.873C292.535 270.93 292.23 270.983 291.924 271.033C291.619 271.075 291.342 271.114 291.093 271.15C290.561 271.228 290.095 271.352 289.698 271.523C289.3 271.693 288.991 271.924 288.771 272.215C288.551 272.499 288.441 272.854 288.441 273.281C288.441 273.898 288.664 274.371 289.112 274.697C289.566 275.017 290.142 275.177 290.838 275.177ZM306.386 273.291L306.397 267.847H307.057L312.299 261.636H317.508L310.466 269.861H309.39L306.386 273.291ZM302.274 278V256.182H306.812V278H302.274ZM312.501 278L307.686 270.873L310.711 267.666L317.817 278H312.501ZM324.401 278.309C323.357 278.309 322.427 278.128 321.61 277.766C320.793 277.396 320.147 276.853 319.671 276.136C319.202 275.411 318.968 274.509 318.968 273.43C318.968 272.521 319.135 271.757 319.469 271.139C319.802 270.521 320.257 270.024 320.832 269.648C321.407 269.271 322.061 268.987 322.792 268.795C323.531 268.604 324.305 268.469 325.115 268.391C326.067 268.291 326.834 268.199 327.416 268.114C327.998 268.021 328.421 267.886 328.684 267.709C328.947 267.531 329.078 267.268 329.078 266.92V266.857C329.078 266.182 328.865 265.66 328.439 265.29C328.02 264.921 327.423 264.737 326.649 264.737C325.832 264.737 325.182 264.918 324.699 265.28C324.216 265.635 323.897 266.082 323.741 266.622L319.543 266.281C319.756 265.287 320.175 264.428 320.8 263.703C321.425 262.972 322.231 262.411 323.219 262.02C324.213 261.622 325.363 261.423 326.67 261.423C327.579 261.423 328.449 261.53 329.28 261.743C330.118 261.956 330.861 262.286 331.507 262.734C332.16 263.181 332.675 263.756 333.052 264.46C333.428 265.156 333.616 265.99 333.616 266.963V278H329.312V275.731H329.184C328.922 276.242 328.57 276.693 328.13 277.084C327.689 277.467 327.16 277.769 326.542 277.989C325.925 278.202 325.211 278.309 324.401 278.309ZM325.701 275.177C326.368 275.177 326.958 275.045 327.469 274.783C327.981 274.513 328.382 274.151 328.673 273.696C328.964 273.241 329.11 272.727 329.11 272.151V270.415C328.968 270.507 328.773 270.592 328.524 270.67C328.282 270.741 328.009 270.809 327.704 270.873C327.398 270.93 327.093 270.983 326.787 271.033C326.482 271.075 326.205 271.114 325.956 271.15C325.424 271.228 324.959 271.352 324.561 271.523C324.163 271.693 323.854 271.924 323.634 272.215C323.414 272.499 323.304 272.854 323.304 273.281C323.304 273.898 323.528 274.371 323.975 274.697C324.43 275.017 325.005 275.177 325.701 275.177ZM345.841 261.636V265.045H335.987V261.636H345.841ZM338.224 257.716H342.762V272.972C342.762 273.391 342.826 273.717 342.954 273.952C343.082 274.179 343.259 274.339 343.487 274.431C343.721 274.523 343.991 274.57 344.296 274.57C344.509 274.57 344.722 274.552 344.936 274.516C345.149 274.474 345.312 274.442 345.426 274.42L346.139 277.798C345.912 277.869 345.593 277.95 345.181 278.043C344.769 278.142 344.268 278.202 343.678 278.224C342.585 278.266 341.626 278.121 340.802 277.787C339.985 277.453 339.35 276.935 338.895 276.232C338.441 275.528 338.217 274.641 338.224 273.568V257.716Z" fill="white"/>
</g>
</g>
<defs>
<filter id="filter0_d_457_330" x="53.1875" y="110.936" width="415.754" height="181.201" filterUnits="userSpaceOnUse" color-interpolation-filters="sRGB">
<feFlood flood-opacity="0" result="BackgroundImageFix"/>
<feColorMatrix in="SourceAlpha" type="matrix" values="0 0 0 0 0 0 0 0 0 0 0 0 0 0 0 0 0 0 127 0" result="hardAlpha"/>
<feOffset dy="4"/>
<feGaussianBlur stdDeviation="2"/>
<feComposite in2="hardAlpha" operator="out"/>
<feColorMatrix type="matrix" values="0 0 0 0 0 0 0 0 0 0 0 0 0 0 0 0 0 0 0.25 0"/>
<feBlend mode="normal" in2="BackgroundImageFix" result="effect1_dropShadow_457_330"/>
<feBlend mode="normal" in="SourceGraphic" in2="effect1_dropShadow_457_330" result="shape"/>
</filter>
<linearGradient id="paint0_linear_457_330" x1="521" y1="260.5" x2="910" y2="260.5" gradientUnits="userSpaceOnUse">
<stop stop-color="#0E96A0"/>
<stop offset="1" stop-color="#05373A"/>
</linearGradient>
</defs>
</svg>
