<svg width="521" height="389" viewBox="0 0 521 389" fill="none" xmlns="http://www.w3.org/2000/svg">
<mask id="mask0_457_346" style="mask-type:alpha" maskUnits="userSpaceOnUse" x="0" y="0" width="521" height="389">
<rect x="521" width="389" height="521" rx="10" transform="rotate(90 521 0)" fill="#FFDA46"/>
</mask>
<g mask="url(#mask0_457_346)">
<rect x="521" width="389" height="521" rx="10" transform="rotate(90 521 0)" fill="#FFDA46"/>
<rect x="521" width="389" height="521" rx="10" transform="rotate(90 521 0)" fill="url(#paint0_linear_457_346)"/>
<path d="M245.988 341.591C217.826 355.124 185.466 350.638 162.284 329.806C161.649 329.237 160.692 329.229 160.057 329.798L147.613 341.038C147.465 341.17 147.234 341.311 147.25 341.508C147.374 342.91 152.231 348.691 153.658 350.712C169.706 373.415 172.164 403.202 159.357 427.926C159.018 428.577 158.276 428.94 157.559 428.791C128.415 422.837 106.454 392.91 105.126 363.742C102.421 304.555 166.177 266.67 216.819 297.999C230.361 306.377 245.287 323.58 246.936 339.95C247.002 340.634 246.623 341.294 246.005 341.591H245.988Z" fill="#40A6AA" fill-opacity="0.5"/>
<path d="M30.2198 428.725C29.2549 427.661 25.0409 415.365 24.4553 413.065C19.4166 393.281 22.0226 373.439 32.6691 355.94C34.3102 353.235 43.332 343.174 42.0538 341.228C41.3693 340.18 29.3374 328.445 28.3808 328.981C26.0635 330.276 23.2183 333.509 20.5052 335.422C-2.52784 351.676 -31.5315 353.754 -56.6427 341.162C-57.3354 340.815 -57.6982 340.024 -57.5086 339.273C-44.6685 287.773 21.4618 269.737 60.8068 305.709C99.2446 340.848 88.994 406.624 40.6931 426.622C38.384 427.579 31.8939 430.564 30.2198 428.725Z" fill="#40A6AA" fill-opacity="0.5"/>
<path d="M-57.0043 211.598C-28.38 198.164 3.74091 202.354 27.4172 223.152C28.0769 223.729 29.0748 223.713 29.6933 223.086L41.3046 211.474C41.9231 210.856 41.9478 209.875 41.3788 209.207C20.861 185.456 15.8058 153.583 29.9984 125.14C30.3447 124.447 31.1282 124.084 31.8786 124.266C83.5029 136.916 101.695 203.409 65.5087 242.589C34.097 276.599 -21.9558 273.605 -48.1473 235.06C-50.2997 231.893 -58.4969 217.626 -57.9526 212.876C-57.8867 212.316 -57.5156 211.837 -57.0043 211.598Z" fill="#40A6AA" fill-opacity="0.5"/>
<path d="M158.092 124.356C158.81 124.257 159.519 124.653 159.816 125.313C171.79 151.406 169.976 178.438 153.639 202.288C152.221 204.366 147.306 211.714 147.586 211.953C150.778 214.715 159.981 223.399 159.981 223.399C160.575 223.943 170.809 216.274 176.136 213.297C198.122 201.018 223.687 200.746 246.126 211.862C246.786 212.192 247.157 212.926 247.017 213.652C241.681 241.451 212.653 263.816 185.018 266.035C124.965 270.851 84.2845 207.054 115.803 155.051C124.33 140.982 141.418 126.715 158.084 124.348L158.092 124.356Z" fill="#40A6AA" fill-opacity="0.5"/>
<path d="M108.937 130.962C104.146 136.289 99.2474 142.095 96.1384 148.816C95.9405 149.245 95.5694 149.574 95.1158 149.715C94.3159 149.954 93.4665 149.574 93.1284 148.808C90.7368 143.406 86.729 137.534 83.0344 133.065C75.6701 124.142 67.3575 121.783 65.7493 108.63C63.4155 89.5385 81.7892 77.6715 93.4665 65.5159C94.0438 64.9139 94.9756 64.8232 95.6436 65.3262C100.27 68.8146 114.842 83.6669 116.623 85.9512C121.687 92.4496 124.763 100.449 123.839 108.786C122.619 119.771 115.609 123.548 108.937 130.962Z" fill="#40A6AA" fill-opacity="0.5"/>
<path d="M223.861 277.934C222.607 277.25 222.558 275.46 223.762 274.693C228.108 271.931 236.198 266.669 239.876 263.461C246.259 257.895 248.279 251.834 256.806 249.063C279.592 241.657 291.549 261.631 305.709 275.254C306.311 275.831 306.402 276.755 305.899 277.423C302.369 282.107 287.104 297.025 284.68 298.856C279.814 302.543 272.73 305.684 266.512 305.808C250.011 306.13 245.467 293.397 234.128 284.853C231.398 282.792 227.448 279.881 223.869 277.926L223.861 277.934Z" fill="#40A6AA" fill-opacity="0.5"/>
<path d="M94.3802 237.237C95.1636 236.998 95.9883 237.377 96.3512 238.111C101.81 249.186 111.22 260.196 120.902 267.544C124.72 270.438 129.305 272.475 133.082 275.188C133.61 275.568 135.168 275.361 134.385 277.019C134.03 277.761 123.103 283.822 120.902 285.472C116.374 288.869 107.534 297.594 104.128 302.114C102.577 304.167 98.553 311.622 95.9553 314.772C95.2214 315.663 93.8194 315.515 93.2504 314.517C86.8922 303.417 78.8352 293.158 68.5186 285.464C66.4981 283.963 59.5214 280.326 56.4619 277.819C55.5465 277.068 55.6785 275.65 56.7175 275.073C72.1554 266.554 85.1934 253.879 93.2587 238.103C93.4648 237.699 93.8194 237.402 94.2483 237.27L94.372 237.237H94.3802Z" fill="#40A6AA" fill-opacity="0.5"/>
<g filter="url(#filter0_d_457_346)">
<path d="M100.577 116V94.1818H105.19V103.184H114.554V94.1818H119.157V116H114.554V106.987H105.19V116H100.577ZM122.875 116V99.6364H127.413V116H122.875ZM125.154 97.527C124.48 97.527 123.901 97.3033 123.418 96.8558C122.942 96.4013 122.704 95.858 122.704 95.2259C122.704 94.6009 122.942 94.0646 123.418 93.6172C123.901 93.1626 124.48 92.9354 125.154 92.9354C125.829 92.9354 126.404 93.1626 126.88 93.6172C127.363 94.0646 127.605 94.6009 127.605 95.2259C127.605 95.858 127.363 96.4013 126.88 96.8558C126.404 97.3033 125.829 97.527 125.154 97.527ZM131.048 116V99.6364H135.448V102.491H135.619C135.917 101.476 136.418 100.709 137.121 100.19C137.824 99.6648 138.634 99.402 139.55 99.402C139.777 99.402 140.022 99.4162 140.285 99.4446C140.548 99.473 140.778 99.5121 140.977 99.5618V103.589C140.764 103.525 140.47 103.468 140.093 103.418C139.717 103.369 139.372 103.344 139.06 103.344C138.392 103.344 137.796 103.489 137.27 103.781C136.752 104.065 136.34 104.462 136.034 104.974C135.736 105.485 135.587 106.075 135.587 106.742V116H131.048ZM143.324 116V99.6364H147.862V116H143.324ZM145.604 97.527C144.929 97.527 144.35 97.3033 143.867 96.8558C143.391 96.4013 143.153 95.858 143.153 95.2259C143.153 94.6009 143.391 94.0646 143.867 93.6172C144.35 93.1626 144.929 92.9354 145.604 92.9354C146.278 92.9354 146.854 93.1626 147.329 93.6172C147.812 94.0646 148.054 94.6009 148.054 95.2259C148.054 95.858 147.812 96.4013 147.329 96.8558C146.854 97.3033 146.278 97.527 145.604 97.527ZM158.526 116V94.1818H173.228V97.9851H163.139V103.184H172.472V106.987H163.139V112.197H173.271V116H158.526ZM190.425 104.303L186.27 104.558C186.199 104.203 186.047 103.884 185.812 103.599C185.578 103.308 185.269 103.077 184.885 102.907C184.509 102.729 184.058 102.641 183.532 102.641C182.829 102.641 182.236 102.79 181.753 103.088C181.27 103.379 181.029 103.77 181.029 104.26C181.029 104.651 181.185 104.981 181.498 105.251C181.81 105.521 182.346 105.737 183.106 105.901L186.068 106.497C187.659 106.824 188.845 107.349 189.626 108.074C190.407 108.798 190.798 109.75 190.798 110.929C190.798 112.001 190.482 112.942 189.85 113.752C189.225 114.562 188.366 115.194 187.272 115.648C186.185 116.096 184.932 116.32 183.511 116.32C181.345 116.32 179.619 115.869 178.334 114.967C177.055 114.058 176.306 112.822 176.086 111.259L180.549 111.025C180.684 111.685 181.011 112.19 181.53 112.538C182.048 112.879 182.712 113.049 183.522 113.049C184.317 113.049 184.956 112.896 185.439 112.591C185.929 112.278 186.178 111.877 186.185 111.387C186.178 110.975 186.004 110.638 185.663 110.375C185.322 110.105 184.797 109.899 184.086 109.757L181.253 109.192C179.655 108.873 178.465 108.319 177.684 107.531C176.91 106.742 176.522 105.737 176.522 104.516C176.522 103.464 176.807 102.559 177.375 101.799C177.95 101.039 178.756 100.453 179.793 100.041C180.837 99.6293 182.059 99.4233 183.458 99.4233C185.525 99.4233 187.151 99.8601 188.337 100.734C189.53 101.607 190.226 102.797 190.425 104.303ZM207.271 104.303L203.116 104.558C203.045 104.203 202.892 103.884 202.658 103.599C202.424 103.308 202.115 103.077 201.731 102.907C201.355 102.729 200.904 102.641 200.378 102.641C199.675 102.641 199.082 102.79 198.599 103.088C198.116 103.379 197.875 103.77 197.875 104.26C197.875 104.651 198.031 104.981 198.343 105.251C198.656 105.521 199.192 105.737 199.952 105.901L202.914 106.497C204.505 106.824 205.691 107.349 206.472 108.074C207.253 108.798 207.644 109.75 207.644 110.929C207.644 112.001 207.328 112.942 206.696 113.752C206.071 114.562 205.211 115.194 204.117 115.648C203.031 116.096 201.777 116.32 200.357 116.32C198.191 116.32 196.465 115.869 195.179 114.967C193.901 114.058 193.152 112.822 192.931 111.259L197.395 111.025C197.53 111.685 197.857 112.19 198.375 112.538C198.894 112.879 199.558 113.049 200.367 113.049C201.163 113.049 201.802 112.896 202.285 112.591C202.775 112.278 203.024 111.877 203.031 111.387C203.024 110.975 202.85 110.638 202.509 110.375C202.168 110.105 201.642 109.899 200.932 109.757L198.098 109.192C196.5 108.873 195.311 108.319 194.529 107.531C193.755 106.742 193.368 105.737 193.368 104.516C193.368 103.464 193.652 102.559 194.22 101.799C194.796 101.039 195.602 100.453 196.639 100.041C197.683 99.6293 198.904 99.4233 200.304 99.4233C202.37 99.4233 203.997 99.8601 205.183 100.734C206.376 101.607 207.072 102.797 207.271 104.303ZM217.959 116.32C216.276 116.32 214.827 115.979 213.612 115.297C212.405 114.608 211.475 113.635 210.821 112.378C210.168 111.114 209.841 109.619 209.841 107.893C209.841 106.21 210.168 104.732 210.821 103.461C211.475 102.19 212.394 101.199 213.58 100.489C214.774 99.7784 216.173 99.4233 217.778 99.4233C218.857 99.4233 219.862 99.5973 220.793 99.9453C221.73 100.286 222.547 100.801 223.243 101.49C223.946 102.179 224.493 103.045 224.884 104.089C225.274 105.126 225.47 106.341 225.47 107.733V108.979H211.652V106.167H221.198C221.198 105.513 221.055 104.935 220.771 104.43C220.487 103.926 220.093 103.532 219.589 103.248C219.092 102.957 218.513 102.811 217.852 102.811C217.163 102.811 216.553 102.971 216.02 103.29C215.494 103.603 215.082 104.026 214.784 104.558C214.486 105.084 214.333 105.67 214.326 106.316V108.99C214.326 109.8 214.475 110.499 214.774 111.089C215.079 111.678 215.509 112.133 216.063 112.452C216.617 112.772 217.274 112.932 218.033 112.932C218.538 112.932 218.999 112.861 219.418 112.719C219.837 112.577 220.196 112.364 220.494 112.08C220.793 111.795 221.02 111.447 221.176 111.036L225.374 111.312C225.161 112.321 224.724 113.202 224.063 113.955C223.41 114.7 222.565 115.283 221.528 115.702C220.498 116.114 219.308 116.32 217.959 116.32ZM232.97 106.54V116H228.431V99.6364H232.756V102.523H232.948C233.31 101.572 233.918 100.819 234.77 100.265C235.622 99.7038 236.656 99.4233 237.87 99.4233C239.006 99.4233 239.997 99.6719 240.842 100.169C241.688 100.666 242.345 101.376 242.813 102.3C243.282 103.216 243.516 104.31 243.516 105.581V116H238.978V106.391C238.985 105.389 238.729 104.608 238.211 104.047C237.693 103.479 236.979 103.195 236.07 103.195C235.459 103.195 234.919 103.326 234.45 103.589C233.989 103.852 233.627 104.235 233.364 104.739C233.108 105.237 232.977 105.837 232.97 106.54ZM254.487 116.32C252.811 116.32 251.369 115.964 250.161 115.254C248.961 114.537 248.038 113.543 247.392 112.271C246.752 111 246.433 109.537 246.433 107.882C246.433 106.206 246.756 104.736 247.402 103.472C248.056 102.2 248.983 101.21 250.183 100.499C251.383 99.782 252.811 99.4233 254.465 99.4233C255.893 99.4233 257.143 99.6825 258.215 100.201C259.288 100.719 260.137 101.447 260.762 102.385C261.387 103.322 261.731 104.423 261.795 105.688H257.512C257.392 104.871 257.072 104.214 256.554 103.717C256.042 103.212 255.371 102.96 254.54 102.96C253.837 102.96 253.223 103.152 252.697 103.536C252.179 103.912 251.774 104.462 251.483 105.187C251.191 105.911 251.046 106.788 251.046 107.818C251.046 108.862 251.188 109.75 251.472 110.482C251.763 111.213 252.171 111.771 252.697 112.154C253.223 112.538 253.837 112.729 254.54 112.729C255.059 112.729 255.524 112.623 255.936 112.41C256.355 112.197 256.699 111.888 256.969 111.483C257.246 111.071 257.427 110.577 257.512 110.002H261.795C261.724 111.252 261.383 112.353 260.772 113.305C260.169 114.249 259.334 114.988 258.269 115.521C257.203 116.053 255.943 116.32 254.487 116.32ZM272.158 116.32C270.475 116.32 269.026 115.979 267.812 115.297C266.604 114.608 265.674 113.635 265.02 112.378C264.367 111.114 264.04 109.619 264.04 107.893C264.04 106.21 264.367 104.732 265.02 103.461C265.674 102.19 266.593 101.199 267.78 100.489C268.973 99.7784 270.372 99.4233 271.977 99.4233C273.057 99.4233 274.062 99.5973 274.992 99.9453C275.929 100.286 276.746 100.801 277.442 101.49C278.145 102.179 278.692 103.045 279.083 104.089C279.473 105.126 279.669 106.341 279.669 107.733V108.979H265.851V106.167H275.397C275.397 105.513 275.255 104.935 274.971 104.43C274.687 103.926 274.292 103.532 273.788 103.248C273.291 102.957 272.712 102.811 272.052 102.811C271.363 102.811 270.752 102.971 270.219 103.29C269.694 103.603 269.282 104.026 268.983 104.558C268.685 105.084 268.532 105.67 268.525 106.316V108.99C268.525 109.8 268.674 110.499 268.973 111.089C269.278 111.678 269.708 112.133 270.262 112.452C270.816 112.772 271.473 112.932 272.233 112.932C272.737 112.932 273.199 112.861 273.618 112.719C274.037 112.577 274.395 112.364 274.694 112.08C274.992 111.795 275.219 111.447 275.375 111.036L279.573 111.312C279.36 112.321 278.923 113.202 278.263 113.955C277.609 114.7 276.764 115.283 275.727 115.702C274.697 116.114 273.508 116.32 272.158 116.32ZM285.283 116.277C284.58 116.277 283.976 116.028 283.472 115.531C282.975 115.027 282.726 114.423 282.726 113.72C282.726 113.024 282.975 112.428 283.472 111.93C283.976 111.433 284.58 111.185 285.283 111.185C285.965 111.185 286.562 111.433 287.073 111.93C287.584 112.428 287.84 113.024 287.84 113.72C287.84 114.189 287.719 114.619 287.478 115.009C287.243 115.393 286.934 115.702 286.551 115.936C286.167 116.163 285.745 116.277 285.283 116.277ZM285.283 104.814C284.58 104.814 283.976 104.565 283.472 104.068C282.975 103.571 282.726 102.967 282.726 102.257C282.726 101.561 282.975 100.968 283.472 100.478C283.976 99.9808 284.58 99.7322 285.283 99.7322C285.965 99.7322 286.562 99.9808 287.073 100.478C287.584 100.968 287.84 101.561 287.84 102.257C287.84 102.733 287.719 103.166 287.478 103.557C287.243 103.94 286.934 104.246 286.551 104.473C286.167 104.7 285.745 104.814 285.283 104.814ZM298.595 116V94.1818H303.207V103.184H312.572V94.1818H317.174V116H312.572V106.987H303.207V116H298.595ZM320.892 116V99.6364H325.43V116H320.892ZM323.172 97.527C322.497 97.527 321.918 97.3033 321.435 96.8558C320.96 96.4013 320.722 95.858 320.722 95.2259C320.722 94.6009 320.96 94.0646 321.435 93.6172C321.918 93.1626 322.497 92.9354 323.172 92.9354C323.847 92.9354 324.422 93.1626 324.898 93.6172C325.381 94.0646 325.622 94.6009 325.622 95.2259C325.622 95.858 325.381 96.4013 324.898 96.8558C324.422 97.3033 323.847 97.527 323.172 97.527ZM333.604 94.1818V116H329.066V94.1818H333.604ZM337.24 116V99.6364H341.778V116H337.24ZM339.52 97.527C338.845 97.527 338.266 97.3033 337.783 96.8558C337.307 96.4013 337.069 95.858 337.069 95.2259C337.069 94.6009 337.307 94.0646 337.783 93.6172C338.266 93.1626 338.845 92.9354 339.52 92.9354C340.194 92.9354 340.77 93.1626 341.245 93.6172C341.728 94.0646 341.97 94.6009 341.97 95.2259C341.97 95.858 341.728 96.4013 341.245 96.8558C340.77 97.3033 340.194 97.527 339.52 97.527ZM345.414 116V99.6364H349.813V102.491H349.984C350.282 101.476 350.783 100.709 351.486 100.19C352.189 99.6648 352.999 99.402 353.915 99.402C354.142 99.402 354.387 99.4162 354.65 99.4446C354.913 99.473 355.144 99.5121 355.343 99.5618V103.589C355.13 103.525 354.835 103.468 354.458 103.418C354.082 103.369 353.737 103.344 353.425 103.344C352.757 103.344 352.161 103.489 351.635 103.781C351.117 104.065 350.705 104.462 350.399 104.974C350.101 105.485 349.952 106.075 349.952 106.742V116H345.414ZM357.689 116V99.6364H362.227V116H357.689ZM359.969 97.527C359.294 97.527 358.715 97.3033 358.232 96.8558C357.756 96.4013 357.519 95.858 357.519 95.2259C357.519 94.6009 357.756 94.0646 358.232 93.6172C358.715 93.1626 359.294 92.9354 359.969 92.9354C360.644 92.9354 361.219 93.1626 361.695 93.6172C362.178 94.0646 362.419 94.6009 362.419 95.2259C362.419 95.858 362.178 96.4013 361.695 96.8558C361.219 97.3033 360.644 97.527 359.969 97.527ZM379.478 104.303L375.323 104.558C375.252 104.203 375.099 103.884 374.865 103.599C374.631 103.308 374.322 103.077 373.938 102.907C373.562 102.729 373.111 102.641 372.585 102.641C371.882 102.641 371.289 102.79 370.806 103.088C370.323 103.379 370.082 103.77 370.082 104.26C370.082 104.651 370.238 104.981 370.55 105.251C370.863 105.521 371.399 105.737 372.159 105.901L375.121 106.497C376.712 106.824 377.898 107.349 378.679 108.074C379.46 108.798 379.851 109.75 379.851 110.929C379.851 112.001 379.535 112.942 378.903 113.752C378.278 114.562 377.418 115.194 376.324 115.648C375.238 116.096 373.984 116.32 372.564 116.32C370.398 116.32 368.672 115.869 367.386 114.967C366.108 114.058 365.359 112.822 365.138 111.259L369.602 111.025C369.737 111.685 370.064 112.19 370.582 112.538C371.101 112.879 371.765 113.049 372.574 113.049C373.37 113.049 374.009 112.896 374.492 112.591C374.982 112.278 375.231 111.877 375.238 111.387C375.231 110.975 375.057 110.638 374.716 110.375C374.375 110.105 373.849 109.899 373.139 109.757L370.305 109.192C368.707 108.873 367.518 108.319 366.736 107.531C365.962 106.742 365.575 105.737 365.575 104.516C365.575 103.464 365.859 102.559 366.427 101.799C367.003 101.039 367.809 100.453 368.846 100.041C369.89 99.6293 371.111 99.4233 372.511 99.4233C374.577 99.4233 376.204 99.8601 377.39 100.734C378.583 101.607 379.279 102.797 379.478 104.303ZM387.375 116.309C386.331 116.309 385.4 116.128 384.584 115.766C383.767 115.396 383.12 114.853 382.645 114.136C382.176 113.411 381.941 112.509 381.941 111.43C381.941 110.521 382.108 109.757 382.442 109.139C382.776 108.521 383.231 108.024 383.806 107.648C384.381 107.271 385.035 106.987 385.766 106.795C386.505 106.604 387.279 106.469 388.089 106.391C389.04 106.291 389.807 106.199 390.39 106.114C390.972 106.021 391.395 105.886 391.657 105.709C391.92 105.531 392.052 105.268 392.052 104.92V104.857C392.052 104.182 391.839 103.66 391.412 103.29C390.993 102.921 390.397 102.737 389.623 102.737C388.806 102.737 388.156 102.918 387.673 103.28C387.19 103.635 386.87 104.082 386.714 104.622L382.517 104.281C382.73 103.287 383.149 102.428 383.774 101.703C384.399 100.972 385.205 100.411 386.192 100.02C387.187 99.6222 388.337 99.4233 389.644 99.4233C390.553 99.4233 391.423 99.5298 392.254 99.7429C393.092 99.956 393.834 100.286 394.481 100.734C395.134 101.181 395.649 101.756 396.025 102.46C396.402 103.156 396.59 103.99 396.59 104.963V116H392.286V113.731H392.158C391.895 114.242 391.544 114.693 391.103 115.084C390.663 115.467 390.134 115.769 389.516 115.989C388.898 116.202 388.184 116.309 387.375 116.309ZM388.674 113.177C389.342 113.177 389.932 113.045 390.443 112.783C390.954 112.513 391.356 112.151 391.647 111.696C391.938 111.241 392.084 110.727 392.084 110.151V108.415C391.941 108.507 391.746 108.592 391.498 108.67C391.256 108.741 390.983 108.809 390.677 108.873C390.372 108.93 390.066 108.983 389.761 109.033C389.456 109.075 389.179 109.114 388.93 109.15C388.397 109.228 387.932 109.352 387.535 109.523C387.137 109.693 386.828 109.924 386.608 110.215C386.388 110.499 386.277 110.854 386.277 111.281C386.277 111.898 386.501 112.371 386.949 112.697C387.403 113.017 387.978 113.177 388.674 113.177ZM413.726 104.303L409.571 104.558C409.5 104.203 409.347 103.884 409.113 103.599C408.879 103.308 408.57 103.077 408.186 102.907C407.81 102.729 407.359 102.641 406.833 102.641C406.13 102.641 405.537 102.79 405.054 103.088C404.571 103.379 404.33 103.77 404.33 104.26C404.33 104.651 404.486 104.981 404.798 105.251C405.111 105.521 405.647 105.737 406.407 105.901L409.369 106.497C410.96 106.824 412.146 107.349 412.927 108.074C413.708 108.798 414.099 109.75 414.099 110.929C414.099 112.001 413.783 112.942 413.151 113.752C412.526 114.562 411.666 115.194 410.573 115.648C409.486 116.096 408.232 116.32 406.812 116.32C404.646 116.32 402.92 115.869 401.634 114.967C400.356 114.058 399.607 112.822 399.386 111.259L403.85 111.025C403.985 111.685 404.312 112.19 404.83 112.538C405.349 112.879 406.013 113.049 406.823 113.049C407.618 113.049 408.257 112.896 408.74 112.591C409.23 112.278 409.479 111.877 409.486 111.387C409.479 110.975 409.305 110.638 408.964 110.375C408.623 110.105 408.097 109.899 407.387 109.757L404.553 109.192C402.955 108.873 401.766 108.319 400.984 107.531C400.21 106.742 399.823 105.737 399.823 104.516C399.823 103.464 400.107 102.559 400.676 101.799C401.251 101.039 402.057 100.453 403.094 100.041C404.138 99.6293 405.359 99.4233 406.759 99.4233C408.825 99.4233 410.452 99.8601 411.638 100.734C412.831 101.607 413.527 102.797 413.726 104.303ZM416.957 116V99.6364H421.495V116H416.957ZM419.236 97.527C418.562 97.527 417.983 97.3033 417.5 96.8558C417.024 96.4013 416.786 95.858 416.786 95.2259C416.786 94.6009 417.024 94.0646 417.5 93.6172C417.983 93.1626 418.562 92.9354 419.236 92.9354C419.911 92.9354 420.486 93.1626 420.962 93.6172C421.445 94.0646 421.687 94.6009 421.687 95.2259C421.687 95.858 421.445 96.4013 420.962 96.8558C420.486 97.3033 419.911 97.527 419.236 97.527ZM86.601 130.182V152H81.9881V130.182H86.601ZM94.8494 142.54V152H90.3111V135.636H94.6364V138.523H94.8281C95.1903 137.572 95.7976 136.819 96.6499 136.265C97.5021 135.704 98.5355 135.423 99.75 135.423C100.886 135.423 101.877 135.672 102.722 136.169C103.567 136.666 104.224 137.376 104.693 138.3C105.162 139.216 105.396 140.31 105.396 141.581V152H100.858V142.391C100.865 141.389 100.609 140.608 100.091 140.047C99.5724 139.479 98.8587 139.195 97.9496 139.195C97.3388 139.195 96.799 139.326 96.3303 139.589C95.8686 139.852 95.5064 140.235 95.2436 140.739C94.9879 141.237 94.8565 141.837 94.8494 142.54ZM116.367 152.32C114.712 152.32 113.281 151.968 112.073 151.265C110.873 150.555 109.946 149.567 109.293 148.303C108.639 147.032 108.313 145.558 108.313 143.882C108.313 142.192 108.639 140.714 109.293 139.45C109.946 138.179 110.873 137.192 112.073 136.489C113.281 135.778 114.712 135.423 116.367 135.423C118.021 135.423 119.449 135.778 120.649 136.489C121.857 137.192 122.787 138.179 123.441 139.45C124.094 140.714 124.421 142.192 124.421 143.882C124.421 145.558 124.094 147.032 123.441 148.303C122.787 149.567 121.857 150.555 120.649 151.265C119.449 151.968 118.021 152.32 116.367 152.32ZM116.388 148.804C117.141 148.804 117.769 148.591 118.274 148.165C118.778 147.732 119.158 147.142 119.414 146.396C119.676 145.651 119.808 144.802 119.808 143.85C119.808 142.898 119.676 142.05 119.414 141.304C119.158 140.558 118.778 139.969 118.274 139.536C117.769 139.102 117.141 138.886 116.388 138.886C115.628 138.886 114.989 139.102 114.47 139.536C113.959 139.969 113.572 140.558 113.309 141.304C113.053 142.05 112.926 142.898 112.926 143.85C112.926 144.802 113.053 145.651 113.309 146.396C113.572 147.142 113.959 147.732 114.47 148.165C114.989 148.591 115.628 148.804 116.388 148.804ZM142.1 135.636L136.379 152H131.265L125.545 135.636H130.339L133.737 147.344H133.907L137.295 135.636H142.1ZM148.649 152.309C147.605 152.309 146.675 152.128 145.858 151.766C145.041 151.396 144.395 150.853 143.919 150.136C143.45 149.411 143.216 148.509 143.216 147.43C143.216 146.521 143.383 145.757 143.717 145.139C144.05 144.521 144.505 144.024 145.08 143.648C145.656 143.271 146.309 142.987 147.04 142.795C147.779 142.604 148.553 142.469 149.363 142.391C150.315 142.291 151.082 142.199 151.664 142.114C152.246 142.021 152.669 141.886 152.932 141.709C153.195 141.531 153.326 141.268 153.326 140.92V140.857C153.326 140.182 153.113 139.66 152.687 139.29C152.268 138.921 151.671 138.737 150.897 138.737C150.08 138.737 149.43 138.918 148.947 139.28C148.464 139.635 148.145 140.082 147.989 140.622L143.791 140.281C144.004 139.287 144.423 138.428 145.048 137.703C145.673 136.972 146.479 136.411 147.467 136.02C148.461 135.622 149.612 135.423 150.918 135.423C151.827 135.423 152.697 135.53 153.528 135.743C154.366 135.956 155.109 136.286 155.755 136.734C156.408 137.181 156.923 137.756 157.3 138.46C157.676 139.156 157.864 139.99 157.864 140.963V152H153.56V149.731H153.433C153.17 150.242 152.818 150.693 152.378 151.084C151.938 151.467 151.408 151.769 150.79 151.989C150.173 152.202 149.459 152.309 148.649 152.309ZM149.949 149.177C150.616 149.177 151.206 149.045 151.717 148.783C152.229 148.513 152.63 148.151 152.921 147.696C153.212 147.241 153.358 146.727 153.358 146.151V144.415C153.216 144.507 153.021 144.592 152.772 144.67C152.531 144.741 152.257 144.809 151.952 144.873C151.646 144.93 151.341 144.983 151.036 145.033C150.73 145.075 150.453 145.114 150.205 145.15C149.672 145.228 149.207 145.352 148.809 145.523C148.411 145.693 148.102 145.924 147.882 146.215C147.662 146.499 147.552 146.854 147.552 147.281C147.552 147.898 147.776 148.371 148.223 148.697C148.678 149.017 149.253 149.177 149.949 149.177ZM170.089 135.636V139.045H160.235V135.636H170.089ZM162.472 131.716H167.01V146.972C167.01 147.391 167.074 147.717 167.202 147.952C167.33 148.179 167.507 148.339 167.735 148.431C167.969 148.523 168.239 148.57 168.544 148.57C168.757 148.57 168.971 148.552 169.184 148.516C169.397 148.474 169.56 148.442 169.674 148.42L170.387 151.798C170.16 151.869 169.841 151.95 169.429 152.043C169.017 152.142 168.516 152.202 167.926 152.224C166.833 152.266 165.874 152.121 165.05 151.787C164.233 151.453 163.598 150.935 163.143 150.232C162.689 149.528 162.465 148.641 162.472 147.568V131.716ZM173.045 152V135.636H177.584V152H173.045ZM175.325 133.527C174.651 133.527 174.072 133.303 173.589 132.856C173.113 132.401 172.875 131.858 172.875 131.226C172.875 130.601 173.113 130.065 173.589 129.617C174.072 129.163 174.651 128.935 175.325 128.935C176 128.935 176.575 129.163 177.051 129.617C177.534 130.065 177.776 130.601 177.776 131.226C177.776 131.858 177.534 132.401 177.051 132.856C176.575 133.303 176 133.527 175.325 133.527ZM190.019 135.636V139.045H179.92V135.636H190.019ZM182.231 152V134.454C182.231 133.268 182.462 132.284 182.924 131.503C183.393 130.722 184.032 130.136 184.841 129.745C185.651 129.354 186.571 129.159 187.601 129.159C188.297 129.159 188.932 129.212 189.508 129.319C190.09 129.425 190.523 129.521 190.807 129.607L189.998 133.016C189.82 132.959 189.6 132.906 189.337 132.856C189.081 132.806 188.819 132.781 188.549 132.781C187.881 132.781 187.416 132.938 187.153 133.25C186.89 133.555 186.759 133.985 186.759 134.539V152H182.231ZM205.765 152.266C204.522 152.266 203.396 151.947 202.388 151.308C201.386 150.661 200.591 149.713 200.001 148.463C199.419 147.206 199.128 145.665 199.128 143.839C199.128 141.964 199.43 140.406 200.033 139.163C200.637 137.913 201.439 136.979 202.441 136.361C203.449 135.736 204.554 135.423 205.754 135.423C206.67 135.423 207.434 135.58 208.045 135.892C208.662 136.197 209.16 136.581 209.536 137.043C209.92 137.497 210.211 137.945 210.41 138.385H210.548V130.182H215.076V152H210.601V149.379H210.41C210.197 149.834 209.895 150.285 209.504 150.732C209.121 151.173 208.62 151.538 208.002 151.83C207.391 152.121 206.645 152.266 205.765 152.266ZM207.203 148.655C207.934 148.655 208.552 148.456 209.057 148.058C209.568 147.653 209.959 147.089 210.229 146.364C210.506 145.64 210.644 144.791 210.644 143.818C210.644 142.845 210.509 142 210.239 141.283C209.969 140.565 209.579 140.011 209.067 139.621C208.556 139.23 207.934 139.035 207.203 139.035C206.457 139.035 205.829 139.237 205.317 139.642C204.806 140.047 204.419 140.608 204.156 141.325C203.893 142.043 203.762 142.874 203.762 143.818C203.762 144.77 203.893 145.612 204.156 146.343C204.426 147.067 204.813 147.636 205.317 148.048C205.829 148.452 206.457 148.655 207.203 148.655ZM223.473 152.309C222.429 152.309 221.499 152.128 220.682 151.766C219.865 151.396 219.219 150.853 218.743 150.136C218.275 149.411 218.04 148.509 218.04 147.43C218.04 146.521 218.207 145.757 218.541 145.139C218.875 144.521 219.329 144.024 219.904 143.648C220.48 143.271 221.133 142.987 221.865 142.795C222.603 142.604 223.377 142.469 224.187 142.391C225.139 142.291 225.906 142.199 226.488 142.114C227.071 142.021 227.493 141.886 227.756 141.709C228.019 141.531 228.15 141.268 228.15 140.92V140.857C228.15 140.182 227.937 139.66 227.511 139.29C227.092 138.921 226.495 138.737 225.721 138.737C224.904 138.737 224.255 138.918 223.772 139.28C223.289 139.635 222.969 140.082 222.813 140.622L218.615 140.281C218.828 139.287 219.248 138.428 219.873 137.703C220.498 136.972 221.304 136.411 222.291 136.02C223.285 135.622 224.436 135.423 225.743 135.423C226.652 135.423 227.522 135.53 228.353 135.743C229.191 135.956 229.933 136.286 230.579 136.734C231.233 137.181 231.748 137.756 232.124 138.46C232.5 139.156 232.689 139.99 232.689 140.963V152H228.385V149.731H228.257C227.994 150.242 227.642 150.693 227.202 151.084C226.762 151.467 226.233 151.769 225.615 151.989C224.997 152.202 224.283 152.309 223.473 152.309ZM224.773 149.177C225.441 149.177 226.03 149.045 226.542 148.783C227.053 148.513 227.454 148.151 227.745 147.696C228.037 147.241 228.182 146.727 228.182 146.151V144.415C228.04 144.507 227.845 144.592 227.596 144.67C227.355 144.741 227.081 144.809 226.776 144.873C226.471 144.93 226.165 144.983 225.86 145.033C225.554 145.075 225.277 145.114 225.029 145.15C224.496 145.228 224.031 145.352 223.633 145.523C223.235 145.693 222.926 145.924 222.706 146.215C222.486 146.499 222.376 146.854 222.376 147.281C222.376 147.898 222.6 148.371 223.047 148.697C223.502 149.017 224.077 149.177 224.773 149.177ZM240.748 142.54V152H236.21V135.636H240.535V138.523H240.727C241.089 137.572 241.696 136.819 242.548 136.265C243.401 135.704 244.434 135.423 245.648 135.423C246.785 135.423 247.776 135.672 248.621 136.169C249.466 136.666 250.123 137.376 250.592 138.3C251.06 139.216 251.295 140.31 251.295 141.581V152H246.756V142.391C246.763 141.389 246.508 140.608 245.989 140.047C245.471 139.479 244.757 139.195 243.848 139.195C243.237 139.195 242.697 139.326 242.229 139.589C241.767 139.852 241.405 140.235 241.142 140.739C240.886 141.237 240.755 141.837 240.748 142.54ZM269.635 152H261.9V130.182H269.699C271.893 130.182 273.782 130.619 275.366 131.492C276.95 132.359 278.168 133.605 279.02 135.232C279.88 136.858 280.309 138.804 280.309 141.07C280.309 143.342 279.88 145.295 279.02 146.929C278.168 148.562 276.943 149.816 275.345 150.69C273.754 151.563 271.85 152 269.635 152ZM266.513 148.048H269.443C270.806 148.048 271.953 147.806 272.884 147.323C273.821 146.833 274.525 146.077 274.993 145.054C275.469 144.024 275.707 142.696 275.707 141.07C275.707 139.457 275.469 138.14 274.993 137.117C274.525 136.094 273.825 135.342 272.895 134.859C271.964 134.376 270.817 134.134 269.453 134.134H266.513V148.048ZM283.641 152V135.636H288.18V152H283.641ZM285.921 133.527C285.246 133.527 284.667 133.303 284.184 132.856C283.709 132.401 283.471 131.858 283.471 131.226C283.471 130.601 283.709 130.065 284.184 129.617C284.667 129.163 285.246 128.935 285.921 128.935C286.596 128.935 287.171 129.163 287.647 129.617C288.13 130.065 288.371 130.601 288.371 131.226C288.371 131.858 288.13 132.401 287.647 132.856C287.171 133.303 286.596 133.527 285.921 133.527ZM307.071 135.636L301.35 152H296.236L290.515 135.636H295.309L298.708 147.344H298.878L302.266 135.636H307.071ZM316.323 152.32C314.64 152.32 313.191 151.979 311.977 151.297C310.769 150.608 309.839 149.635 309.185 148.378C308.532 147.114 308.205 145.619 308.205 143.893C308.205 142.21 308.532 140.732 309.185 139.461C309.839 138.19 310.759 137.199 311.945 136.489C313.138 135.778 314.537 135.423 316.142 135.423C317.222 135.423 318.227 135.597 319.157 135.945C320.094 136.286 320.911 136.801 321.607 137.49C322.31 138.179 322.857 139.045 323.248 140.089C323.638 141.126 323.834 142.341 323.834 143.733V144.979H310.016V142.167H319.562C319.562 141.513 319.42 140.935 319.136 140.43C318.852 139.926 318.457 139.532 317.953 139.248C317.456 138.957 316.877 138.811 316.217 138.811C315.528 138.811 314.917 138.971 314.384 139.29C313.859 139.603 313.447 140.026 313.148 140.558C312.85 141.084 312.697 141.67 312.69 142.316V144.99C312.69 145.8 312.839 146.499 313.138 147.089C313.443 147.678 313.873 148.133 314.427 148.452C314.981 148.772 315.638 148.932 316.398 148.932C316.902 148.932 317.364 148.861 317.783 148.719C318.202 148.577 318.56 148.364 318.859 148.08C319.157 147.795 319.384 147.447 319.54 147.036L323.738 147.312C323.525 148.321 323.088 149.202 322.428 149.955C321.774 150.7 320.929 151.283 319.892 151.702C318.862 152.114 317.673 152.32 316.323 152.32ZM326.795 152V135.636H331.195V138.491H331.366C331.664 137.476 332.165 136.709 332.868 136.19C333.571 135.665 334.381 135.402 335.297 135.402C335.524 135.402 335.769 135.416 336.032 135.445C336.295 135.473 336.526 135.512 336.724 135.562V139.589C336.511 139.525 336.217 139.468 335.84 139.418C335.464 139.369 335.119 139.344 334.807 139.344C334.139 139.344 333.543 139.489 333.017 139.781C332.499 140.065 332.087 140.462 331.781 140.974C331.483 141.485 331.334 142.075 331.334 142.742V152H326.795ZM352.686 140.303L348.531 140.558C348.46 140.203 348.307 139.884 348.073 139.599C347.839 139.308 347.53 139.077 347.146 138.907C346.77 138.729 346.319 138.641 345.793 138.641C345.09 138.641 344.497 138.79 344.014 139.088C343.531 139.379 343.29 139.77 343.29 140.26C343.29 140.651 343.446 140.981 343.758 141.251C344.071 141.521 344.607 141.737 345.367 141.901L348.329 142.497C349.92 142.824 351.106 143.349 351.887 144.074C352.668 144.798 353.059 145.75 353.059 146.929C353.059 148.001 352.743 148.942 352.111 149.752C351.486 150.562 350.626 151.194 349.532 151.648C348.446 152.096 347.192 152.32 345.772 152.32C343.606 152.32 341.88 151.869 340.594 150.967C339.316 150.058 338.567 148.822 338.346 147.259L342.81 147.025C342.945 147.685 343.272 148.19 343.79 148.538C344.309 148.879 344.973 149.049 345.782 149.049C346.578 149.049 347.217 148.896 347.7 148.591C348.19 148.278 348.439 147.877 348.446 147.387C348.439 146.975 348.265 146.638 347.924 146.375C347.583 146.105 347.057 145.899 346.347 145.757L343.513 145.192C341.915 144.873 340.726 144.319 339.944 143.531C339.17 142.742 338.783 141.737 338.783 140.516C338.783 139.464 339.067 138.559 339.635 137.799C340.211 137.039 341.017 136.453 342.054 136.041C343.098 135.629 344.319 135.423 345.719 135.423C347.785 135.423 349.412 135.86 350.598 136.734C351.791 137.607 352.487 138.797 352.686 140.303ZM355.917 152V135.636H360.455V152H355.917ZM358.196 133.527C357.522 133.527 356.943 133.303 356.46 132.856C355.984 132.401 355.746 131.858 355.746 131.226C355.746 130.601 355.984 130.065 356.46 129.617C356.943 129.163 357.522 128.935 358.196 128.935C358.871 128.935 359.446 129.163 359.922 129.617C360.405 130.065 360.647 130.601 360.647 131.226C360.647 131.858 360.405 132.401 359.922 132.856C359.446 133.303 358.871 133.527 358.196 133.527ZM372.89 135.636V139.045H362.791V135.636H372.89ZM365.102 152V134.454C365.102 133.268 365.333 132.284 365.795 131.503C366.264 130.722 366.903 130.136 367.713 129.745C368.522 129.354 369.442 129.159 370.472 129.159C371.168 129.159 371.803 129.212 372.379 129.319C372.961 129.425 373.394 129.521 373.678 129.607L372.869 133.016C372.691 132.959 372.471 132.906 372.208 132.856C371.953 132.806 371.69 132.781 371.42 132.781C370.752 132.781 370.287 132.938 370.024 133.25C369.762 133.555 369.63 133.985 369.63 134.539V152H365.102ZM375.663 152V135.636H380.201V152H375.663ZM377.942 133.527C377.268 133.527 376.689 133.303 376.206 132.856C375.73 132.401 375.492 131.858 375.492 131.226C375.492 130.601 375.73 130.065 376.206 129.617C376.689 129.163 377.268 128.935 377.942 128.935C378.617 128.935 379.192 129.163 379.668 129.617C380.151 130.065 380.393 130.601 380.393 131.226C380.393 131.858 380.151 132.401 379.668 132.856C379.192 133.303 378.617 133.527 377.942 133.527ZM387.949 147.291L387.959 141.847H388.62L393.861 135.636H399.071L392.029 143.861H390.953L387.949 147.291ZM383.836 152V130.182H388.375V152H383.836ZM394.064 152L389.248 144.873L392.274 141.666L399.38 152H394.064ZM405.964 152.309C404.92 152.309 403.989 152.128 403.172 151.766C402.356 151.396 401.709 150.853 401.233 150.136C400.765 149.411 400.53 148.509 400.53 147.43C400.53 146.521 400.697 145.757 401.031 145.139C401.365 144.521 401.819 144.024 402.395 143.648C402.97 143.271 403.623 142.987 404.355 142.795C405.094 142.604 405.868 142.469 406.677 142.391C407.629 142.291 408.396 142.199 408.979 142.114C409.561 142.021 409.983 141.886 410.246 141.709C410.509 141.531 410.64 141.268 410.64 140.92V140.857C410.64 140.182 410.427 139.66 410.001 139.29C409.582 138.921 408.986 138.737 408.211 138.737C407.395 138.737 406.745 138.918 406.262 139.28C405.779 139.635 405.459 140.082 405.303 140.622L401.106 140.281C401.319 139.287 401.738 138.428 402.363 137.703C402.988 136.972 403.794 136.411 404.781 136.02C405.775 135.622 406.926 135.423 408.233 135.423C409.142 135.423 410.012 135.53 410.843 135.743C411.681 135.956 412.423 136.286 413.069 136.734C413.723 137.181 414.238 137.756 414.614 138.46C414.991 139.156 415.179 139.99 415.179 140.963V152H410.875V149.731H410.747C410.484 150.242 410.133 150.693 409.692 151.084C409.252 151.467 408.723 151.769 408.105 151.989C407.487 152.202 406.773 152.309 405.964 152.309ZM407.263 149.177C407.931 149.177 408.52 149.045 409.032 148.783C409.543 148.513 409.944 148.151 410.236 147.696C410.527 147.241 410.672 146.727 410.672 146.151V144.415C410.53 144.507 410.335 144.592 410.086 144.67C409.845 144.741 409.572 144.809 409.266 144.873C408.961 144.93 408.655 144.983 408.35 145.033C408.045 145.075 407.768 145.114 407.519 145.15C406.986 145.228 406.521 145.352 406.123 145.523C405.726 145.693 405.417 145.924 405.197 146.215C404.976 146.499 404.866 146.854 404.866 147.281C404.866 147.898 405.09 148.371 405.537 148.697C405.992 149.017 406.567 149.177 407.263 149.177ZM432.315 140.303L428.16 140.558C428.089 140.203 427.936 139.884 427.702 139.599C427.468 139.308 427.159 139.077 426.775 138.907C426.399 138.729 425.948 138.641 425.422 138.641C424.719 138.641 424.126 138.79 423.643 139.088C423.16 139.379 422.919 139.77 422.919 140.26C422.919 140.651 423.075 140.981 423.387 141.251C423.7 141.521 424.236 141.737 424.996 141.901L427.958 142.497C429.548 142.824 430.735 143.349 431.516 144.074C432.297 144.798 432.688 145.75 432.688 146.929C432.688 148.001 432.372 148.942 431.74 149.752C431.115 150.562 430.255 151.194 429.161 151.648C428.075 152.096 426.821 152.32 425.401 152.32C423.235 152.32 421.509 151.869 420.223 150.967C418.945 150.058 418.195 148.822 417.975 147.259L422.439 147.025C422.574 147.685 422.901 148.19 423.419 148.538C423.938 148.879 424.602 149.049 425.411 149.049C426.207 149.049 426.846 148.896 427.329 148.591C427.819 148.278 428.068 147.877 428.075 147.387C428.068 146.975 427.894 146.638 427.553 146.375C427.212 146.105 426.686 145.899 425.976 145.757L423.142 145.192C421.544 144.873 420.355 144.319 419.573 143.531C418.799 142.742 418.412 141.737 418.412 140.516C418.412 139.464 418.696 138.559 419.264 137.799C419.84 137.039 420.646 136.453 421.683 136.041C422.727 135.629 423.948 135.423 425.347 135.423C427.414 135.423 429.041 135.86 430.227 136.734C431.42 137.607 432.116 138.797 432.315 140.303ZM435.545 152V135.636H440.084V152H435.545ZM437.825 133.527C437.151 133.527 436.572 133.303 436.089 132.856C435.613 132.401 435.375 131.858 435.375 131.226C435.375 130.601 435.613 130.065 436.089 129.617C436.572 129.163 437.151 128.935 437.825 128.935C438.5 128.935 439.075 129.163 439.551 129.617C440.034 130.065 440.276 130.601 440.276 131.226C440.276 131.858 440.034 132.401 439.551 132.856C439.075 133.303 438.5 133.527 437.825 133.527ZM105.045 188V166.182H113.653C115.308 166.182 116.717 166.498 117.882 167.13C119.047 167.755 119.935 168.625 120.545 169.74C121.163 170.848 121.472 172.126 121.472 173.575C121.472 175.024 121.16 176.303 120.535 177.411C119.91 178.518 119.004 179.381 117.818 179.999C116.639 180.617 115.212 180.926 113.536 180.926H108.049V177.229H112.79C113.678 177.229 114.409 177.077 114.984 176.771C115.567 176.459 116 176.029 116.284 175.482C116.575 174.928 116.721 174.293 116.721 173.575C116.721 172.851 116.575 172.219 116.284 171.679C116 171.132 115.567 170.71 114.984 170.411C114.402 170.106 113.663 169.953 112.768 169.953H109.658V188H105.045ZM124.383 188V171.636H128.783V174.491H128.954C129.252 173.476 129.753 172.709 130.456 172.19C131.159 171.665 131.969 171.402 132.885 171.402C133.112 171.402 133.357 171.416 133.62 171.445C133.883 171.473 134.113 171.512 134.312 171.562V175.589C134.099 175.525 133.805 175.468 133.428 175.418C133.052 175.369 132.707 175.344 132.395 175.344C131.727 175.344 131.131 175.489 130.605 175.781C130.086 176.065 129.675 176.462 129.369 176.974C129.071 177.485 128.922 178.075 128.922 178.742V188H124.383ZM143.29 188.32C141.636 188.32 140.205 187.968 138.997 187.265C137.797 186.555 136.87 185.567 136.217 184.303C135.563 183.032 135.237 181.558 135.237 179.882C135.237 178.192 135.563 176.714 136.217 175.45C136.87 174.179 137.797 173.192 138.997 172.489C140.205 171.778 141.636 171.423 143.29 171.423C144.945 171.423 146.373 171.778 147.573 172.489C148.781 173.192 149.711 174.179 150.364 175.45C151.018 176.714 151.344 178.192 151.344 179.882C151.344 181.558 151.018 183.032 150.364 184.303C149.711 185.567 148.781 186.555 147.573 187.265C146.373 187.968 144.945 188.32 143.29 188.32ZM143.312 184.804C144.065 184.804 144.693 184.591 145.197 184.165C145.702 183.732 146.082 183.142 146.337 182.396C146.6 181.651 146.732 180.802 146.732 179.85C146.732 178.898 146.6 178.05 146.337 177.304C146.082 176.558 145.702 175.969 145.197 175.536C144.693 175.102 144.065 174.886 143.312 174.886C142.552 174.886 141.913 175.102 141.394 175.536C140.883 175.969 140.496 176.558 140.233 177.304C139.977 178.05 139.849 178.898 139.849 179.85C139.849 180.802 139.977 181.651 140.233 182.396C140.496 183.142 140.883 183.732 141.394 184.165C141.913 184.591 142.552 184.804 143.312 184.804ZM160.325 188.266C159.082 188.266 157.957 187.947 156.948 187.308C155.947 186.661 155.151 185.713 154.562 184.463C153.979 183.206 153.688 181.665 153.688 179.839C153.688 177.964 153.99 176.406 154.594 175.163C155.197 173.913 156 172.979 157.001 172.361C158.01 171.736 159.114 171.423 160.315 171.423C161.231 171.423 161.994 171.58 162.605 171.892C163.223 172.197 163.72 172.581 164.097 173.043C164.48 173.497 164.771 173.945 164.97 174.385H165.109V166.182H169.636V188H165.162V185.379H164.97C164.757 185.834 164.455 186.285 164.065 186.732C163.681 187.173 163.18 187.538 162.562 187.83C161.952 188.121 161.206 188.266 160.325 188.266ZM161.763 184.655C162.495 184.655 163.113 184.456 163.617 184.058C164.129 183.653 164.519 183.089 164.789 182.364C165.066 181.64 165.205 180.791 165.205 179.818C165.205 178.845 165.07 178 164.8 177.283C164.53 176.565 164.139 176.011 163.628 175.621C163.116 175.23 162.495 175.035 161.763 175.035C161.018 175.035 160.389 175.237 159.878 175.642C159.366 176.047 158.979 176.608 158.717 177.325C158.454 178.043 158.322 178.874 158.322 179.818C158.322 180.77 158.454 181.612 158.717 182.343C158.987 183.067 159.374 183.636 159.878 184.048C160.389 184.452 161.018 184.655 161.763 184.655ZM183.861 181.033V171.636H188.4V188H184.042V185.028H183.872C183.503 185.987 182.888 186.757 182.029 187.339C181.177 187.922 180.136 188.213 178.907 188.213C177.814 188.213 176.851 187.964 176.02 187.467C175.189 186.97 174.54 186.263 174.071 185.347C173.609 184.431 173.375 183.334 173.368 182.055V171.636H177.906V181.246C177.913 182.212 178.172 182.975 178.684 183.536C179.195 184.097 179.881 184.378 180.74 184.378C181.287 184.378 181.798 184.254 182.274 184.005C182.75 183.749 183.133 183.373 183.425 182.876C183.723 182.379 183.868 181.764 183.861 181.033ZM196.142 183.291L196.153 177.847H196.813L202.055 171.636H207.264L200.222 179.861H199.146L196.142 183.291ZM192.03 188V166.182H196.568V188H192.03ZM202.257 188L197.442 180.873L200.467 177.666L207.573 188H202.257ZM216.519 188V166.182H225.127C226.782 166.182 228.192 166.498 229.357 167.13C230.521 167.755 231.409 168.625 232.02 169.74C232.638 170.848 232.947 172.126 232.947 173.575C232.947 175.024 232.634 176.303 232.009 177.411C231.384 178.518 230.479 179.381 229.293 179.999C228.114 180.617 226.686 180.926 225.01 180.926H219.524V177.229H224.264C225.152 177.229 225.884 177.077 226.459 176.771C227.041 176.459 227.475 176.029 227.759 175.482C228.05 174.928 228.195 174.293 228.195 173.575C228.195 172.851 228.05 172.219 227.759 171.679C227.475 171.132 227.041 170.71 226.459 170.411C225.877 170.106 225.138 169.953 224.243 169.953H221.132V188H216.519ZM243.052 188.32C241.368 188.32 239.92 187.979 238.705 187.297C237.498 186.608 236.567 185.635 235.914 184.378C235.26 183.114 234.934 181.619 234.934 179.893C234.934 178.21 235.26 176.732 235.914 175.461C236.567 174.19 237.487 173.199 238.673 172.489C239.866 171.778 241.265 171.423 242.871 171.423C243.95 171.423 244.955 171.597 245.885 171.945C246.823 172.286 247.64 172.801 248.336 173.49C249.039 174.179 249.586 175.045 249.976 176.089C250.367 177.126 250.562 178.341 250.562 179.733V180.979H236.745V178.167H246.29C246.29 177.513 246.148 176.935 245.864 176.43C245.58 175.926 245.186 175.532 244.682 175.248C244.184 174.957 243.606 174.811 242.945 174.811C242.256 174.811 241.645 174.971 241.113 175.29C240.587 175.603 240.175 176.026 239.877 176.558C239.579 177.084 239.426 177.67 239.419 178.316V180.99C239.419 181.8 239.568 182.499 239.866 183.089C240.172 183.678 240.601 184.133 241.155 184.452C241.709 184.772 242.366 184.932 243.126 184.932C243.631 184.932 244.092 184.861 244.511 184.719C244.93 184.577 245.289 184.364 245.587 184.08C245.885 183.795 246.113 183.447 246.269 183.036L250.466 183.312C250.253 184.321 249.817 185.202 249.156 185.955C248.503 186.7 247.657 187.283 246.621 187.702C245.591 188.114 244.401 188.32 243.052 188.32ZM253.524 188V171.636H257.924V174.491H258.094C258.393 173.476 258.893 172.709 259.596 172.19C260.3 171.665 261.109 171.402 262.025 171.402C262.253 171.402 262.498 171.416 262.76 171.445C263.023 171.473 263.254 171.512 263.453 171.562V175.589C263.24 175.525 262.945 175.468 262.569 175.418C262.192 175.369 261.848 175.344 261.535 175.344C260.868 175.344 260.271 175.489 259.746 175.781C259.227 176.065 258.815 176.462 258.51 176.974C258.211 177.485 258.062 178.075 258.062 178.742V188H253.524ZM275.324 171.636V175.045H265.469V171.636H275.324ZM267.706 167.716H272.245V182.972C272.245 183.391 272.309 183.717 272.436 183.952C272.564 184.179 272.742 184.339 272.969 184.431C273.203 184.523 273.473 184.57 273.779 184.57C273.992 184.57 274.205 184.552 274.418 184.516C274.631 184.474 274.794 184.442 274.908 184.42L275.622 187.798C275.395 187.869 275.075 187.95 274.663 188.043C274.251 188.142 273.75 188.202 273.161 188.224C272.067 188.266 271.108 188.121 270.284 187.787C269.468 187.453 268.832 186.935 268.377 186.232C267.923 185.528 267.699 184.641 267.706 183.568V167.716ZM282.946 188.309C281.902 188.309 280.972 188.128 280.155 187.766C279.338 187.396 278.692 186.853 278.216 186.136C277.747 185.411 277.513 184.509 277.513 183.43C277.513 182.521 277.68 181.757 278.013 181.139C278.347 180.521 278.802 180.024 279.377 179.648C279.952 179.271 280.606 178.987 281.337 178.795C282.076 178.604 282.85 178.469 283.66 178.391C284.612 178.291 285.379 178.199 285.961 178.114C286.543 178.021 286.966 177.886 287.229 177.709C287.491 177.531 287.623 177.268 287.623 176.92V176.857C287.623 176.182 287.41 175.66 286.984 175.29C286.565 174.921 285.968 174.737 285.194 174.737C284.377 174.737 283.727 174.918 283.244 175.28C282.761 175.635 282.442 176.082 282.286 176.622L278.088 176.281C278.301 175.287 278.72 174.428 279.345 173.703C279.97 172.972 280.776 172.411 281.763 172.02C282.758 171.622 283.908 171.423 285.215 171.423C286.124 171.423 286.994 171.53 287.825 171.743C288.663 171.956 289.406 172.286 290.052 172.734C290.705 173.181 291.22 173.756 291.597 174.46C291.973 175.156 292.161 175.99 292.161 176.963V188H287.857V185.731H287.729C287.467 186.242 287.115 186.693 286.675 187.084C286.234 187.467 285.705 187.769 285.087 187.989C284.469 188.202 283.756 188.309 282.946 188.309ZM284.246 185.177C284.913 185.177 285.503 185.045 286.014 184.783C286.526 184.513 286.927 184.151 287.218 183.696C287.509 183.241 287.655 182.727 287.655 182.151V180.415C287.513 180.507 287.317 180.592 287.069 180.67C286.827 180.741 286.554 180.809 286.249 180.873C285.943 180.93 285.638 180.983 285.332 181.033C285.027 181.075 284.75 181.114 284.501 181.15C283.969 181.228 283.504 181.352 283.106 181.523C282.708 181.693 282.399 181.924 282.179 182.215C281.959 182.499 281.849 182.854 281.849 183.281C281.849 183.898 282.072 184.371 282.52 184.697C282.974 185.017 283.55 185.177 284.246 185.177ZM300.221 178.54V188H295.682V171.636H300.007V174.523H300.199C300.561 173.572 301.169 172.819 302.021 172.265C302.873 171.704 303.907 171.423 305.121 171.423C306.257 171.423 307.248 171.672 308.093 172.169C308.939 172.666 309.596 173.376 310.064 174.3C310.533 175.216 310.767 176.31 310.767 177.581V188H306.229V178.391C306.236 177.389 305.98 176.608 305.462 176.047C304.944 175.479 304.23 175.195 303.321 175.195C302.71 175.195 302.17 175.326 301.701 175.589C301.24 175.852 300.877 176.235 300.615 176.739C300.359 177.237 300.228 177.837 300.221 178.54ZM314.344 188V171.636H318.883V188H314.344ZM316.624 169.527C315.949 169.527 315.371 169.303 314.888 168.856C314.412 168.401 314.174 167.858 314.174 167.226C314.174 166.601 314.412 166.065 314.888 165.617C315.371 165.163 315.949 164.935 316.624 164.935C317.299 164.935 317.874 165.163 318.35 165.617C318.833 166.065 319.074 166.601 319.074 167.226C319.074 167.858 318.833 168.401 318.35 168.856C317.874 169.303 317.299 169.527 316.624 169.527ZM327.184 188.309C326.14 188.309 325.21 188.128 324.393 187.766C323.576 187.396 322.93 186.853 322.454 186.136C321.985 185.411 321.751 184.509 321.751 183.43C321.751 182.521 321.918 181.757 322.252 181.139C322.586 180.521 323.04 180.024 323.615 179.648C324.191 179.271 324.844 178.987 325.576 178.795C326.314 178.604 327.088 178.469 327.898 178.391C328.85 178.291 329.617 178.199 330.199 178.114C330.782 178.021 331.204 177.886 331.467 177.709C331.73 177.531 331.861 177.268 331.861 176.92V176.857C331.861 176.182 331.648 175.66 331.222 175.29C330.803 174.921 330.206 174.737 329.432 174.737C328.615 174.737 327.966 174.918 327.483 175.28C327 175.635 326.68 176.082 326.524 176.622L322.326 176.281C322.539 175.287 322.958 174.428 323.583 173.703C324.208 172.972 325.015 172.411 326.002 172.02C326.996 171.622 328.147 171.423 329.453 171.423C330.363 171.423 331.233 171.53 332.064 171.743C332.902 171.956 333.644 172.286 334.29 172.734C334.944 173.181 335.458 173.756 335.835 174.46C336.211 175.156 336.4 175.99 336.4 176.963V188H332.096V185.731H331.968C331.705 186.242 331.353 186.693 330.913 187.084C330.473 187.467 329.944 187.769 329.326 187.989C328.708 188.202 327.994 188.309 327.184 188.309ZM328.484 185.177C329.152 185.177 329.741 185.045 330.252 184.783C330.764 184.513 331.165 184.151 331.456 183.696C331.748 183.241 331.893 182.727 331.893 182.151V180.415C331.751 180.507 331.556 180.592 331.307 180.67C331.066 180.741 330.792 180.809 330.487 180.873C330.181 180.93 329.876 180.983 329.571 181.033C329.265 181.075 328.988 181.114 328.74 181.15C328.207 181.228 327.742 181.352 327.344 181.523C326.946 181.693 326.637 181.924 326.417 182.215C326.197 182.499 326.087 182.854 326.087 183.281C326.087 183.898 326.311 184.371 326.758 184.697C327.213 185.017 327.788 185.177 328.484 185.177ZM344.459 178.54V188H339.92V171.636H344.246V174.523H344.438C344.8 173.572 345.407 172.819 346.259 172.265C347.112 171.704 348.145 171.423 349.359 171.423C350.496 171.423 351.487 171.672 352.332 172.169C353.177 172.666 353.834 173.376 354.303 174.3C354.771 175.216 355.006 176.31 355.006 177.581V188H350.467V178.391C350.474 177.389 350.219 176.608 349.7 176.047C349.182 175.479 348.468 175.195 347.559 175.195C346.948 175.195 346.408 175.326 345.94 175.589C345.478 175.852 345.116 176.235 344.853 176.739C344.597 177.237 344.466 177.837 344.459 178.54ZM371.556 188.266C370.313 188.266 369.187 187.947 368.179 187.308C367.177 186.661 366.382 185.713 365.792 184.463C365.21 183.206 364.919 181.665 364.919 179.839C364.919 177.964 365.221 176.406 365.824 175.163C366.428 173.913 367.23 172.979 368.232 172.361C369.24 171.736 370.345 171.423 371.545 171.423C372.461 171.423 373.225 171.58 373.836 171.892C374.453 172.197 374.951 172.581 375.327 173.043C375.711 173.497 376.002 173.945 376.201 174.385H376.339V166.182H380.867V188H376.392V185.379H376.201C375.988 185.834 375.686 186.285 375.295 186.732C374.912 187.173 374.411 187.538 373.793 187.83C373.182 188.121 372.436 188.266 371.556 188.266ZM372.994 184.655C373.725 184.655 374.343 184.456 374.848 184.058C375.359 183.653 375.75 183.089 376.02 182.364C376.297 181.64 376.435 180.791 376.435 179.818C376.435 178.845 376.3 178 376.03 177.283C375.76 176.565 375.37 176.011 374.858 175.621C374.347 175.23 373.725 175.035 372.994 175.035C372.248 175.035 371.62 175.237 371.108 175.642C370.597 176.047 370.21 176.608 369.947 177.325C369.684 178.043 369.553 178.874 369.553 179.818C369.553 180.77 369.684 181.612 369.947 182.343C370.217 183.067 370.604 183.636 371.108 184.048C371.62 184.452 372.248 184.655 372.994 184.655ZM389.264 188.309C388.22 188.309 387.29 188.128 386.473 187.766C385.656 187.396 385.01 186.853 384.534 186.136C384.066 185.411 383.831 184.509 383.831 183.43C383.831 182.521 383.998 181.757 384.332 181.139C384.666 180.521 385.12 180.024 385.695 179.648C386.271 179.271 386.924 178.987 387.656 178.795C388.394 178.604 389.169 178.469 389.978 178.391C390.93 178.291 391.697 178.199 392.279 178.114C392.862 178.021 393.284 177.886 393.547 177.709C393.81 177.531 393.941 177.268 393.941 176.92V176.857C393.941 176.182 393.728 175.66 393.302 175.29C392.883 174.921 392.286 174.737 391.512 174.737C390.695 174.737 390.046 174.918 389.563 175.28C389.08 175.635 388.76 176.082 388.604 176.622L384.406 176.281C384.619 175.287 385.039 174.428 385.664 173.703C386.289 172.972 387.095 172.411 388.082 172.02C389.076 171.622 390.227 171.423 391.534 171.423C392.443 171.423 393.313 171.53 394.144 171.743C394.982 171.956 395.724 172.286 396.37 172.734C397.024 173.181 397.539 173.756 397.915 174.46C398.291 175.156 398.48 175.99 398.48 176.963V188H394.176V185.731H394.048C393.785 186.242 393.433 186.693 392.993 187.084C392.553 187.467 392.024 187.769 391.406 187.989C390.788 188.202 390.074 188.309 389.264 188.309ZM390.564 185.177C391.232 185.177 391.821 185.045 392.333 184.783C392.844 184.513 393.245 184.151 393.536 183.696C393.828 183.241 393.973 182.727 393.973 182.151V180.415C393.831 180.507 393.636 180.592 393.387 180.67C393.146 180.741 392.872 180.809 392.567 180.873C392.262 180.93 391.956 180.983 391.651 181.033C391.345 181.075 391.068 181.114 390.82 181.15C390.287 181.228 389.822 181.352 389.424 181.523C389.026 181.693 388.718 181.924 388.497 182.215C388.277 182.499 388.167 182.854 388.167 183.281C388.167 183.898 388.391 184.371 388.838 184.697C389.293 185.017 389.868 185.177 390.564 185.177ZM406.539 178.54V188H402.001V171.636H406.326V174.523H406.518C406.88 173.572 407.487 172.819 408.339 172.265C409.192 171.704 410.225 171.423 411.439 171.423C412.576 171.423 413.567 171.672 414.412 172.169C415.257 172.666 415.914 173.376 416.383 174.3C416.851 175.216 417.086 176.31 417.086 177.581V188H412.547V178.391C412.555 177.389 412.299 176.608 411.78 176.047C411.262 175.479 410.548 175.195 409.639 175.195C409.028 175.195 408.488 175.326 408.02 175.589C407.558 175.852 407.196 176.235 406.933 176.739C406.677 177.237 406.546 177.837 406.539 178.54ZM143.306 224V202.182H151.914C153.569 202.182 154.979 202.498 156.144 203.13C157.309 203.755 158.196 204.625 158.807 205.74C159.425 206.848 159.734 208.126 159.734 209.575C159.734 211.024 159.422 212.303 158.797 213.411C158.172 214.518 157.266 215.381 156.08 215.999C154.901 216.617 153.473 216.926 151.797 216.926H146.311V213.229H151.051C151.939 213.229 152.671 213.077 153.246 212.771C153.828 212.459 154.262 212.029 154.546 211.482C154.837 210.928 154.983 210.293 154.983 209.575C154.983 208.851 154.837 208.219 154.546 207.679C154.262 207.132 153.828 206.71 153.246 206.411C152.664 206.106 151.925 205.953 151.03 205.953H147.919V224H143.306ZM169.839 224.32C168.156 224.32 166.707 223.979 165.492 223.297C164.285 222.608 163.354 221.635 162.701 220.378C162.048 219.114 161.721 217.619 161.721 215.893C161.721 214.21 162.048 212.732 162.701 211.461C163.354 210.19 164.274 209.199 165.46 208.489C166.653 207.778 168.053 207.423 169.658 207.423C170.737 207.423 171.742 207.597 172.673 207.945C173.61 208.286 174.427 208.801 175.123 209.49C175.826 210.179 176.373 211.045 176.763 212.089C177.154 213.126 177.349 214.341 177.349 215.733V216.979H163.532V214.167H173.077C173.077 213.513 172.935 212.935 172.651 212.43C172.367 211.926 171.973 211.532 171.469 211.248C170.972 210.957 170.393 210.811 169.732 210.811C169.043 210.811 168.433 210.971 167.9 211.29C167.374 211.603 166.962 212.026 166.664 212.558C166.366 213.084 166.213 213.67 166.206 214.316V216.99C166.206 217.8 166.355 218.499 166.653 219.089C166.959 219.678 167.388 220.133 167.942 220.452C168.496 220.772 169.153 220.932 169.913 220.932C170.418 220.932 170.879 220.861 171.298 220.719C171.717 220.577 172.076 220.364 172.374 220.08C172.673 219.795 172.9 219.447 173.056 219.036L177.254 219.312C177.04 220.321 176.604 221.202 175.943 221.955C175.29 222.7 174.445 223.283 173.408 223.702C172.378 224.114 171.188 224.32 169.839 224.32ZM180.311 224V207.636H184.711V210.491H184.881C185.18 209.476 185.68 208.709 186.384 208.19C187.087 207.665 187.896 207.402 188.812 207.402C189.04 207.402 189.285 207.416 189.548 207.445C189.81 207.473 190.041 207.512 190.24 207.562V211.589C190.027 211.525 189.732 211.468 189.356 211.418C188.979 211.369 188.635 211.344 188.322 211.344C187.655 211.344 187.058 211.489 186.533 211.781C186.014 212.065 185.602 212.462 185.297 212.974C184.999 213.485 184.849 214.075 184.849 214.742V224H180.311ZM192.586 224V207.636H197.125V224H192.586ZM194.866 205.527C194.192 205.527 193.613 205.303 193.13 204.856C192.654 204.401 192.416 203.858 192.416 203.226C192.416 202.601 192.654 202.065 193.13 201.617C193.613 201.163 194.192 200.935 194.866 200.935C195.541 200.935 196.116 201.163 196.592 201.617C197.075 202.065 197.317 202.601 197.317 203.226C197.317 203.858 197.075 204.401 196.592 204.856C196.116 205.303 195.541 205.527 194.866 205.527ZM204.873 219.291L204.883 213.847H205.544L210.785 207.636H215.995L208.953 215.861H207.877L204.873 219.291ZM200.76 224V202.182H205.299V224H200.76ZM210.988 224L206.172 216.873L209.198 213.666L216.304 224H210.988ZM222.887 224.309C221.843 224.309 220.913 224.128 220.096 223.766C219.279 223.396 218.633 222.853 218.157 222.136C217.689 221.411 217.454 220.509 217.454 219.43C217.454 218.521 217.621 217.757 217.955 217.139C218.289 216.521 218.743 216.024 219.319 215.648C219.894 215.271 220.547 214.987 221.279 214.795C222.017 214.604 222.792 214.469 223.601 214.391C224.553 214.291 225.32 214.199 225.902 214.114C226.485 214.021 226.907 213.886 227.17 213.709C227.433 213.531 227.564 213.268 227.564 212.92V212.857C227.564 212.182 227.351 211.66 226.925 211.29C226.506 210.921 225.909 210.737 225.135 210.737C224.319 210.737 223.669 210.918 223.186 211.28C222.703 211.635 222.383 212.082 222.227 212.622L218.029 212.281C218.243 211.287 218.662 210.428 219.287 209.703C219.912 208.972 220.718 208.411 221.705 208.02C222.699 207.622 223.85 207.423 225.157 207.423C226.066 207.423 226.936 207.53 227.767 207.743C228.605 207.956 229.347 208.286 229.993 208.734C230.647 209.181 231.162 209.756 231.538 210.46C231.914 211.156 232.103 211.99 232.103 212.963V224H227.799V221.731H227.671C227.408 222.242 227.056 222.693 226.616 223.084C226.176 223.467 225.647 223.769 225.029 223.989C224.411 224.202 223.697 224.309 222.887 224.309ZM224.187 221.177C224.855 221.177 225.444 221.045 225.956 220.783C226.467 220.513 226.868 220.151 227.159 219.696C227.451 219.241 227.596 218.727 227.596 218.151V216.415C227.454 216.507 227.259 216.592 227.01 216.67C226.769 216.741 226.495 216.809 226.19 216.873C225.885 216.93 225.579 216.983 225.274 217.033C224.968 217.075 224.691 217.114 224.443 217.15C223.91 217.228 223.445 217.352 223.047 217.523C222.65 217.693 222.341 217.924 222.12 218.215C221.9 218.499 221.79 218.854 221.79 219.281C221.79 219.898 222.014 220.371 222.461 220.697C222.916 221.017 223.491 221.177 224.187 221.177ZM240.162 214.54V224H235.624V207.636H239.949V210.523H240.141C240.503 209.572 241.11 208.819 241.962 208.265C242.815 207.704 243.848 207.423 245.062 207.423C246.199 207.423 247.19 207.672 248.035 208.169C248.88 208.666 249.537 209.376 250.006 210.3C250.474 211.216 250.709 212.31 250.709 213.581V224H246.17V214.391C246.178 213.389 245.922 212.608 245.403 212.047C244.885 211.479 244.171 211.195 243.262 211.195C242.651 211.195 242.112 211.326 241.643 211.589C241.181 211.852 240.819 212.235 240.556 212.739C240.3 213.237 240.169 213.837 240.162 214.54ZM258.952 224.309C257.908 224.309 256.977 224.128 256.161 223.766C255.344 223.396 254.698 222.853 254.222 222.136C253.753 221.411 253.519 220.509 253.519 219.43C253.519 218.521 253.686 217.757 254.019 217.139C254.353 216.521 254.808 216.024 255.383 215.648C255.958 215.271 256.612 214.987 257.343 214.795C258.082 214.604 258.856 214.469 259.666 214.391C260.617 214.291 261.384 214.199 261.967 214.114C262.549 214.021 262.972 213.886 263.235 213.709C263.497 213.531 263.629 213.268 263.629 212.92V212.857C263.629 212.182 263.416 211.66 262.99 211.29C262.57 210.921 261.974 210.737 261.2 210.737C260.383 210.737 259.733 210.918 259.25 211.28C258.767 211.635 258.448 212.082 258.291 212.622L254.094 212.281C254.307 211.287 254.726 210.428 255.351 209.703C255.976 208.972 256.782 208.411 257.769 208.02C258.764 207.622 259.914 207.423 261.221 207.423C262.13 207.423 263 207.53 263.831 207.743C264.669 207.956 265.411 208.286 266.058 208.734C266.711 209.181 267.226 209.756 267.602 210.46C267.979 211.156 268.167 211.99 268.167 212.963V224H263.863V221.731H263.735C263.472 222.242 263.121 222.693 262.681 223.084C262.24 223.467 261.711 223.769 261.093 223.989C260.475 224.202 259.762 224.309 258.952 224.309ZM260.252 221.177C260.919 221.177 261.509 221.045 262.02 220.783C262.531 220.513 262.933 220.151 263.224 219.696C263.515 219.241 263.661 218.727 263.661 218.151V216.415C263.519 216.507 263.323 216.592 263.075 216.67C262.833 216.741 262.56 216.809 262.254 216.873C261.949 216.93 261.644 216.983 261.338 217.033C261.033 217.075 260.756 217.114 260.507 217.15C259.975 217.228 259.509 217.352 259.112 217.523C258.714 217.693 258.405 217.924 258.185 218.215C257.965 218.499 257.855 218.854 257.855 219.281C257.855 219.898 258.078 220.371 258.526 220.697C258.98 221.017 259.556 221.177 260.252 221.177ZM276.226 214.54V224H271.688V207.636H276.013V210.523H276.205C276.567 209.572 277.175 208.819 278.027 208.265C278.879 207.704 279.912 207.423 281.127 207.423C282.263 207.423 283.254 207.672 284.099 208.169C284.944 208.666 285.601 209.376 286.07 210.3C286.539 211.216 286.773 212.31 286.773 213.581V224H282.235V214.391C282.242 213.389 281.986 212.608 281.468 212.047C280.949 211.479 280.236 211.195 279.327 211.195C278.716 211.195 278.176 211.326 277.707 211.589C277.246 211.852 276.883 212.235 276.621 212.739C276.365 213.237 276.233 213.837 276.226 214.54ZM307.787 217.033V207.636H312.325V224H307.968V221.028H307.798C307.428 221.987 306.814 222.757 305.955 223.339C305.102 223.922 304.062 224.213 302.833 224.213C301.74 224.213 300.777 223.964 299.946 223.467C299.115 222.97 298.465 222.263 297.997 221.347C297.535 220.431 297.301 219.334 297.294 218.055V207.636H301.832V217.246C301.839 218.212 302.098 218.975 302.61 219.536C303.121 220.097 303.806 220.378 304.666 220.378C305.213 220.378 305.724 220.254 306.2 220.005C306.676 219.749 307.059 219.373 307.35 218.876C307.649 218.379 307.794 217.764 307.787 217.033ZM320.494 214.54V224H315.956V207.636H320.281V210.523H320.473C320.835 209.572 321.442 208.819 322.294 208.265C323.147 207.704 324.18 207.423 325.395 207.423C326.531 207.423 327.522 207.672 328.367 208.169C329.212 208.666 329.869 209.376 330.338 210.3C330.806 211.216 331.041 212.31 331.041 213.581V224H326.502V214.391C326.51 213.389 326.254 212.608 325.735 212.047C325.217 211.479 324.503 211.195 323.594 211.195C322.983 211.195 322.444 211.326 321.975 211.589C321.513 211.852 321.151 212.235 320.888 212.739C320.632 213.237 320.501 213.837 320.494 214.54ZM343.322 207.636V211.045H333.467V207.636H343.322ZM335.704 203.716H340.243V218.972C340.243 219.391 340.307 219.717 340.434 219.952C340.562 220.179 340.74 220.339 340.967 220.431C341.202 220.523 341.471 220.57 341.777 220.57C341.99 220.57 342.203 220.552 342.416 220.516C342.629 220.474 342.792 220.442 342.906 220.42L343.62 223.798C343.393 223.869 343.073 223.95 342.661 224.043C342.249 224.142 341.748 224.202 341.159 224.224C340.065 224.266 339.106 224.121 338.282 223.787C337.466 223.453 336.83 222.935 336.376 222.232C335.921 221.528 335.697 220.641 335.704 219.568V203.716ZM356.771 217.033V207.636H361.31V224H356.953V221.028H356.782C356.413 221.987 355.798 222.757 354.939 223.339C354.087 223.922 353.046 224.213 351.818 224.213C350.724 224.213 349.762 223.964 348.931 223.467C348.1 222.97 347.45 222.263 346.981 221.347C346.519 220.431 346.285 219.334 346.278 218.055V207.636H350.816V217.246C350.823 218.212 351.083 218.975 351.594 219.536C352.105 220.097 352.791 220.378 353.65 220.378C354.197 220.378 354.708 220.254 355.184 220.005C355.66 219.749 356.044 219.373 356.335 218.876C356.633 218.379 356.779 217.764 356.771 217.033ZM369.052 219.291L369.063 213.847H369.723L374.965 207.636H380.174L373.132 215.861H372.056L369.052 219.291ZM364.94 224V202.182H369.478V224H364.94ZM375.167 224L370.352 216.873L373.377 213.666L380.483 224H375.167ZM86.617 260V238.182H95.225C96.8798 238.182 98.2896 238.498 99.4544 239.13C100.619 239.755 101.507 240.625 102.118 241.74C102.736 242.848 103.045 244.126 103.045 245.575C103.045 247.024 102.732 248.303 102.107 249.411C101.482 250.518 100.577 251.381 99.3904 251.999C98.2115 252.617 96.7839 252.926 95.1078 252.926H89.6213V249.229H94.362C95.2498 249.229 95.9814 249.077 96.5566 248.771C97.139 248.459 97.5723 248.029 97.8564 247.482C98.1475 246.928 98.2931 246.293 98.2931 245.575C98.2931 244.851 98.1475 244.219 97.8564 243.679C97.5723 243.132 97.139 242.71 96.5566 242.411C95.9743 242.106 95.2356 241.953 94.3407 241.953H91.2299V260H86.617ZM113.149 260.32C111.466 260.32 110.017 259.979 108.803 259.297C107.595 258.608 106.665 257.635 106.012 256.378C105.358 255.114 105.031 253.619 105.031 251.893C105.031 250.21 105.358 248.732 106.012 247.461C106.665 246.19 107.585 245.199 108.771 244.489C109.964 243.778 111.363 243.423 112.968 243.423C114.048 243.423 115.053 243.597 115.983 243.945C116.921 244.286 117.737 244.801 118.433 245.49C119.137 246.179 119.683 247.045 120.074 248.089C120.465 249.126 120.66 250.341 120.66 251.733V252.979H106.843V250.167H116.388C116.388 249.513 116.246 248.935 115.962 248.43C115.678 247.926 115.284 247.532 114.779 247.248C114.282 246.957 113.703 246.811 113.043 246.811C112.354 246.811 111.743 246.971 111.21 247.29C110.685 247.603 110.273 248.026 109.975 248.558C109.676 249.084 109.524 249.67 109.517 250.316V252.99C109.517 253.8 109.666 254.499 109.964 255.089C110.269 255.678 110.699 256.133 111.253 256.452C111.807 256.772 112.464 256.932 113.224 256.932C113.728 256.932 114.19 256.861 114.609 256.719C115.028 256.577 115.387 256.364 115.685 256.08C115.983 255.795 116.21 255.447 116.367 255.036L120.564 255.312C120.351 256.321 119.914 257.202 119.254 257.955C118.6 258.7 117.755 259.283 116.718 259.702C115.688 260.114 114.499 260.32 113.149 260.32ZM123.622 260V243.636H127.947V246.523H128.139C128.48 245.565 129.048 244.808 129.843 244.254C130.639 243.7 131.59 243.423 132.698 243.423C133.82 243.423 134.776 243.704 135.564 244.265C136.352 244.819 136.878 245.572 137.141 246.523H137.311C137.645 245.586 138.249 244.837 139.122 244.276C140.003 243.707 141.044 243.423 142.244 243.423C143.771 243.423 145.01 243.91 145.962 244.883C146.921 245.849 147.4 247.219 147.4 248.995V260H142.872V249.89C142.872 248.981 142.631 248.299 142.148 247.844C141.665 247.39 141.061 247.163 140.337 247.163C139.513 247.163 138.87 247.425 138.409 247.951C137.947 248.469 137.716 249.155 137.716 250.007V260H133.316V249.794C133.316 248.991 133.085 248.352 132.624 247.876C132.169 247.401 131.569 247.163 130.823 247.163C130.319 247.163 129.865 247.29 129.46 247.546C129.062 247.795 128.746 248.146 128.512 248.601C128.277 249.048 128.16 249.574 128.16 250.178V260H123.622ZM151.07 260V238.182H155.608V246.385H155.747C155.946 245.945 156.233 245.497 156.61 245.043C156.993 244.581 157.491 244.197 158.101 243.892C158.719 243.58 159.486 243.423 160.403 243.423C161.596 243.423 162.697 243.736 163.705 244.361C164.714 244.979 165.52 245.913 166.123 247.163C166.727 248.406 167.029 249.964 167.029 251.839C167.029 253.665 166.734 255.206 166.145 256.463C165.562 257.713 164.767 258.661 163.758 259.308C162.757 259.947 161.635 260.266 160.392 260.266C159.511 260.266 158.762 260.121 158.144 259.83C157.533 259.538 157.032 259.173 156.642 258.732C156.251 258.285 155.953 257.834 155.747 257.379H155.545V260H151.07ZM155.513 251.818C155.513 252.791 155.648 253.64 155.917 254.364C156.187 255.089 156.578 255.653 157.089 256.058C157.601 256.456 158.222 256.655 158.954 256.655C159.692 256.655 160.317 256.452 160.829 256.048C161.34 255.636 161.727 255.067 161.99 254.343C162.26 253.612 162.395 252.77 162.395 251.818C162.395 250.874 162.263 250.043 162.001 249.325C161.738 248.608 161.351 248.047 160.839 247.642C160.328 247.237 159.699 247.035 158.954 247.035C158.215 247.035 157.59 247.23 157.079 247.621C156.574 248.011 156.187 248.565 155.917 249.283C155.648 250 155.513 250.845 155.513 251.818ZM177.515 260.32C175.831 260.32 174.382 259.979 173.168 259.297C171.961 258.608 171.03 257.635 170.377 256.378C169.723 255.114 169.397 253.619 169.397 251.893C169.397 250.21 169.723 248.732 170.377 247.461C171.03 246.19 171.95 245.199 173.136 244.489C174.329 243.778 175.728 243.423 177.333 243.423C178.413 243.423 179.418 243.597 180.348 243.945C181.286 244.286 182.103 244.801 182.799 245.49C183.502 246.179 184.049 247.045 184.439 248.089C184.83 249.126 185.025 250.341 185.025 251.733V252.979H171.208V250.167H180.753C180.753 249.513 180.611 248.935 180.327 248.43C180.043 247.926 179.649 247.532 179.145 247.248C178.647 246.957 178.069 246.811 177.408 246.811C176.719 246.811 176.108 246.971 175.576 247.29C175.05 247.603 174.638 248.026 174.34 248.558C174.042 249.084 173.889 249.67 173.882 250.316V252.99C173.882 253.8 174.031 254.499 174.329 255.089C174.635 255.678 175.064 256.133 175.618 256.452C176.172 256.772 176.829 256.932 177.589 256.932C178.093 256.932 178.555 256.861 178.974 256.719C179.393 256.577 179.752 256.364 180.05 256.08C180.348 255.795 180.576 255.447 180.732 255.036L184.929 255.312C184.716 256.321 184.279 257.202 183.619 257.955C182.966 258.7 182.12 259.283 181.083 259.702C180.054 260.114 178.864 260.32 177.515 260.32ZM187.987 260V243.636H192.387V246.491H192.557C192.855 245.476 193.356 244.709 194.059 244.19C194.762 243.665 195.572 243.402 196.488 243.402C196.716 243.402 196.961 243.416 197.223 243.445C197.486 243.473 197.717 243.512 197.916 243.562V247.589C197.703 247.525 197.408 247.468 197.032 247.418C196.655 247.369 196.311 247.344 195.998 247.344C195.331 247.344 194.734 247.489 194.208 247.781C193.69 248.065 193.278 248.462 192.973 248.974C192.674 249.485 192.525 250.075 192.525 250.742V260H187.987ZM205.53 260.266C204.287 260.266 203.162 259.947 202.153 259.308C201.152 258.661 200.356 257.713 199.767 256.463C199.184 255.206 198.893 253.665 198.893 251.839C198.893 249.964 199.195 248.406 199.799 247.163C200.403 245.913 201.205 244.979 202.206 244.361C203.215 243.736 204.319 243.423 205.52 243.423C206.436 243.423 207.199 243.58 207.81 243.892C208.428 244.197 208.925 244.581 209.302 245.043C209.685 245.497 209.976 245.945 210.175 246.385H210.314V238.182H214.841V260H210.367V257.379H210.175C209.962 257.834 209.66 258.285 209.27 258.732C208.886 259.173 208.385 259.538 207.768 259.83C207.157 260.121 206.411 260.266 205.53 260.266ZM206.969 256.655C207.7 256.655 208.318 256.456 208.822 256.058C209.334 255.653 209.724 255.089 209.994 254.364C210.271 253.64 210.41 252.791 210.41 251.818C210.41 250.845 210.275 250 210.005 249.283C209.735 248.565 209.344 248.011 208.833 247.621C208.322 247.23 207.7 247.035 206.969 247.035C206.223 247.035 205.594 247.237 205.083 247.642C204.572 248.047 204.184 248.608 203.922 249.325C203.659 250.043 203.528 250.874 203.528 251.818C203.528 252.77 203.659 253.612 203.922 254.343C204.192 255.067 204.579 255.636 205.083 256.048C205.594 256.452 206.223 256.655 206.969 256.655ZM223.239 260.309C222.195 260.309 221.265 260.128 220.448 259.766C219.631 259.396 218.985 258.853 218.509 258.136C218.04 257.411 217.806 256.509 217.806 255.43C217.806 254.521 217.973 253.757 218.306 253.139C218.64 252.521 219.095 252.024 219.67 251.648C220.245 251.271 220.899 250.987 221.63 250.795C222.369 250.604 223.143 250.469 223.953 250.391C224.904 250.291 225.672 250.199 226.254 250.114C226.836 250.021 227.259 249.886 227.522 249.709C227.784 249.531 227.916 249.268 227.916 248.92V248.857C227.916 248.182 227.703 247.66 227.277 247.29C226.858 246.921 226.261 246.737 225.487 246.737C224.67 246.737 224.02 246.918 223.537 247.28C223.054 247.635 222.735 248.082 222.578 248.622L218.381 248.281C218.594 247.287 219.013 246.428 219.638 245.703C220.263 244.972 221.069 244.411 222.056 244.02C223.051 243.622 224.201 243.423 225.508 243.423C226.417 243.423 227.287 243.53 228.118 243.743C228.956 243.956 229.699 244.286 230.345 244.734C230.998 245.181 231.513 245.756 231.89 246.46C232.266 247.156 232.454 247.99 232.454 248.963V260H228.15V257.731H228.022C227.76 258.242 227.408 258.693 226.968 259.084C226.527 259.467 225.998 259.769 225.38 259.989C224.762 260.202 224.049 260.309 223.239 260.309ZM224.539 257.177C225.206 257.177 225.796 257.045 226.307 256.783C226.819 256.513 227.22 256.151 227.511 255.696C227.802 255.241 227.948 254.727 227.948 254.151V252.415C227.806 252.507 227.61 252.592 227.362 252.67C227.12 252.741 226.847 252.809 226.542 252.873C226.236 252.93 225.931 252.983 225.625 253.033C225.32 253.075 225.043 253.114 224.794 253.15C224.262 253.228 223.797 253.352 223.399 253.523C223.001 253.693 222.692 253.924 222.472 254.215C222.252 254.499 222.142 254.854 222.142 255.281C222.142 255.898 222.365 256.371 222.813 256.697C223.267 257.017 223.843 257.177 224.539 257.177ZM238.191 266.136C237.616 266.136 237.076 266.09 236.572 265.998C236.075 265.913 235.663 265.803 235.336 265.668L236.359 262.28C236.891 262.443 237.371 262.532 237.797 262.546C238.23 262.56 238.603 262.461 238.915 262.248C239.235 262.035 239.494 261.673 239.693 261.161L239.96 260.469L234.089 243.636H238.862L242.25 255.653H242.42L245.84 243.636H250.645L244.285 261.768C243.979 262.649 243.564 263.416 243.038 264.07C242.52 264.73 241.863 265.238 241.067 265.593C240.272 265.955 239.313 266.136 238.191 266.136ZM257.194 260.309C256.15 260.309 255.22 260.128 254.403 259.766C253.586 259.396 252.94 258.853 252.464 258.136C251.995 257.411 251.761 256.509 251.761 255.43C251.761 254.521 251.928 253.757 252.262 253.139C252.595 252.521 253.05 252.024 253.625 251.648C254.2 251.271 254.854 250.987 255.585 250.795C256.324 250.604 257.098 250.469 257.908 250.391C258.86 250.291 259.627 250.199 260.209 250.114C260.791 250.021 261.214 249.886 261.477 249.709C261.74 249.531 261.871 249.268 261.871 248.92V248.857C261.871 248.182 261.658 247.66 261.232 247.29C260.813 246.921 260.216 246.737 259.442 246.737C258.625 246.737 257.975 246.918 257.492 247.28C257.009 247.635 256.69 248.082 256.534 248.622L252.336 248.281C252.549 247.287 252.968 246.428 253.593 245.703C254.218 244.972 255.024 244.411 256.012 244.02C257.006 243.622 258.156 243.423 259.463 243.423C260.372 243.423 261.242 243.53 262.073 243.743C262.911 243.956 263.654 244.286 264.3 244.734C264.953 245.181 265.468 245.756 265.845 246.46C266.221 247.156 266.409 247.99 266.409 248.963V260H262.105V257.731H261.977C261.715 258.242 261.363 258.693 260.923 259.084C260.482 259.467 259.953 259.769 259.335 259.989C258.718 260.202 258.004 260.309 257.194 260.309ZM258.494 257.177C259.161 257.177 259.751 257.045 260.262 256.783C260.774 256.513 261.175 256.151 261.466 255.696C261.757 255.241 261.903 254.727 261.903 254.151V252.415C261.761 252.507 261.566 252.592 261.317 252.67C261.075 252.741 260.802 252.809 260.497 252.873C260.191 252.93 259.886 252.983 259.58 253.033C259.275 253.075 258.998 253.114 258.749 253.15C258.217 253.228 257.752 253.352 257.354 253.523C256.956 253.693 256.647 253.924 256.427 254.215C256.207 254.499 256.097 254.854 256.097 255.281C256.097 255.898 256.32 256.371 256.768 256.697C257.222 257.017 257.798 257.177 258.494 257.177ZM274.596 260.309C273.552 260.309 272.622 260.128 271.805 259.766C270.988 259.396 270.342 258.853 269.866 258.136C269.398 257.411 269.163 256.509 269.163 255.43C269.163 254.521 269.33 253.757 269.664 253.139C269.998 252.521 270.452 252.024 271.028 251.648C271.603 251.271 272.256 250.987 272.988 250.795C273.726 250.604 274.501 250.469 275.31 250.391C276.262 250.291 277.029 250.199 277.611 250.114C278.194 250.021 278.616 249.886 278.879 249.709C279.142 249.531 279.273 249.268 279.273 248.92V248.857C279.273 248.182 279.06 247.66 278.634 247.29C278.215 246.921 277.618 246.737 276.844 246.737C276.028 246.737 275.378 246.918 274.895 247.28C274.412 247.635 274.092 248.082 273.936 248.622L269.738 248.281C269.952 247.287 270.371 246.428 270.996 245.703C271.621 244.972 272.427 244.411 273.414 244.02C274.408 243.622 275.559 243.423 276.866 243.423C277.775 243.423 278.645 243.53 279.476 243.743C280.314 243.956 281.056 244.286 281.702 244.734C282.356 245.181 282.871 245.756 283.247 246.46C283.623 247.156 283.812 247.99 283.812 248.963V260H279.508V257.731H279.38C279.117 258.242 278.765 258.693 278.325 259.084C277.885 259.467 277.356 259.769 276.738 259.989C276.12 260.202 275.406 260.309 274.596 260.309ZM275.896 257.177C276.564 257.177 277.153 257.045 277.665 256.783C278.176 256.513 278.577 256.151 278.868 255.696C279.16 255.241 279.305 254.727 279.305 254.151V252.415C279.163 252.507 278.968 252.592 278.719 252.67C278.478 252.741 278.204 252.809 277.899 252.873C277.594 252.93 277.288 252.983 276.983 253.033C276.677 253.075 276.4 253.114 276.152 253.15C275.619 253.228 275.154 253.352 274.756 253.523C274.358 253.693 274.05 253.924 273.829 254.215C273.609 254.499 273.499 254.854 273.499 255.281C273.499 255.898 273.723 256.371 274.17 256.697C274.625 257.017 275.2 257.177 275.896 257.177ZM291.871 250.54V260H287.333V243.636H291.658V246.523H291.85C292.212 245.572 292.819 244.819 293.671 244.265C294.524 243.704 295.557 243.423 296.771 243.423C297.908 243.423 298.899 243.672 299.744 244.169C300.589 244.666 301.246 245.376 301.715 246.3C302.183 247.216 302.418 248.31 302.418 249.581V260H297.879V250.391C297.887 249.389 297.631 248.608 297.112 248.047C296.594 247.479 295.88 247.195 294.971 247.195C294.36 247.195 293.82 247.326 293.352 247.589C292.89 247.852 292.528 248.235 292.265 248.739C292.009 249.237 291.878 249.837 291.871 250.54ZM313.023 260V238.182H327.725V241.985H317.636V247.184H326.969V250.987H317.636V256.197H327.768V260H313.023ZM335.419 255.291L335.43 249.847H336.091L341.332 243.636H346.542L339.5 251.861H338.424L335.419 255.291ZM331.307 260V238.182H335.846V260H331.307ZM341.534 260L336.719 252.873L339.745 249.666L346.85 260H341.534ZM355.488 260.32C353.833 260.32 352.402 259.968 351.194 259.265C349.994 258.555 349.067 257.567 348.414 256.303C347.76 255.032 347.434 253.558 347.434 251.882C347.434 250.192 347.76 248.714 348.414 247.45C349.067 246.179 349.994 245.192 351.194 244.489C352.402 243.778 353.833 243.423 355.488 243.423C357.143 243.423 358.57 243.778 359.77 244.489C360.978 245.192 361.908 246.179 362.562 247.45C363.215 248.714 363.542 250.192 363.542 251.882C363.542 253.558 363.215 255.032 362.562 256.303C361.908 257.567 360.978 258.555 359.77 259.265C358.57 259.968 357.143 260.32 355.488 260.32ZM355.509 256.804C356.262 256.804 356.89 256.591 357.395 256.165C357.899 255.732 358.279 255.142 358.535 254.396C358.797 253.651 358.929 252.802 358.929 251.85C358.929 250.898 358.797 250.05 358.535 249.304C358.279 248.558 357.899 247.969 357.395 247.536C356.89 247.102 356.262 246.886 355.509 246.886C354.749 246.886 354.11 247.102 353.591 247.536C353.08 247.969 352.693 248.558 352.43 249.304C352.175 250.05 352.047 250.898 352.047 251.85C352.047 252.802 352.175 253.651 352.43 254.396C352.693 255.142 353.08 255.732 353.591 256.165C354.11 256.591 354.749 256.804 355.509 256.804ZM371.031 250.54V260H366.493V243.636H370.818V246.523H371.01C371.372 245.572 371.979 244.819 372.831 244.265C373.684 243.704 374.717 243.423 375.932 243.423C377.068 243.423 378.059 243.672 378.904 244.169C379.749 244.666 380.406 245.376 380.875 246.3C381.344 247.216 381.578 248.31 381.578 249.581V260H377.04V250.391C377.047 249.389 376.791 248.608 376.273 248.047C375.754 247.479 375.04 247.195 374.131 247.195C373.52 247.195 372.981 247.326 372.512 247.589C372.05 247.852 371.688 248.235 371.425 248.739C371.17 249.237 371.038 249.837 371.031 250.54ZM392.548 260.32C390.893 260.32 389.462 259.968 388.255 259.265C387.055 258.555 386.128 257.567 385.474 256.303C384.821 255.032 384.494 253.558 384.494 251.882C384.494 250.192 384.821 248.714 385.474 247.45C386.128 246.179 387.055 245.192 388.255 244.489C389.462 243.778 390.893 243.423 392.548 243.423C394.203 243.423 395.631 243.778 396.831 244.489C398.038 245.192 398.969 246.179 399.622 247.45C400.276 248.714 400.602 250.192 400.602 251.882C400.602 253.558 400.276 255.032 399.622 256.303C398.969 257.567 398.038 258.555 396.831 259.265C395.631 259.968 394.203 260.32 392.548 260.32ZM392.57 256.804C393.322 256.804 393.951 256.591 394.455 256.165C394.96 255.732 395.339 255.142 395.595 254.396C395.858 253.651 395.989 252.802 395.989 251.85C395.989 250.898 395.858 250.05 395.595 249.304C395.339 248.558 394.96 247.969 394.455 247.536C393.951 247.102 393.322 246.886 392.57 246.886C391.81 246.886 391.17 247.102 390.652 247.536C390.141 247.969 389.754 248.558 389.491 249.304C389.235 250.05 389.107 250.898 389.107 251.85C389.107 252.802 389.235 253.651 389.491 254.396C389.754 255.142 390.141 255.732 390.652 256.165C391.17 256.591 391.81 256.804 392.57 256.804ZM403.553 260V243.636H407.879V246.523H408.07C408.411 245.565 408.979 244.808 409.775 244.254C410.57 243.7 411.522 243.423 412.63 243.423C413.752 243.423 414.707 243.704 415.496 244.265C416.284 244.819 416.81 245.572 417.072 246.523H417.243C417.577 245.586 418.18 244.837 419.054 244.276C419.935 243.707 420.975 243.423 422.175 243.423C423.702 243.423 424.942 243.91 425.893 244.883C426.852 245.849 427.332 247.219 427.332 248.995V260H422.804V249.89C422.804 248.981 422.563 248.299 422.08 247.844C421.597 247.39 420.993 247.163 420.268 247.163C419.445 247.163 418.802 247.425 418.34 247.951C417.879 248.469 417.648 249.155 417.648 250.007V260H413.248V249.794C413.248 248.991 413.017 248.352 412.555 247.876C412.101 247.401 411.501 247.163 410.755 247.163C410.251 247.163 409.796 247.29 409.391 247.546C408.994 247.795 408.678 248.146 408.443 248.601C408.209 249.048 408.092 249.574 408.092 250.178V260H403.553ZM430.917 260V243.636H435.455V260H430.917ZM433.196 241.527C432.522 241.527 431.943 241.303 431.46 240.856C430.984 240.401 430.746 239.858 430.746 239.226C430.746 238.601 430.984 238.065 431.46 237.617C431.943 237.163 432.522 236.935 433.196 236.935C433.871 236.935 434.446 237.163 434.922 237.617C435.405 238.065 435.647 238.601 435.647 239.226C435.647 239.858 435.405 240.401 434.922 240.856C434.446 241.303 433.871 241.527 433.196 241.527ZM192.76 296V274.182H201.368C203.022 274.182 204.432 274.498 205.597 275.13C206.762 275.755 207.65 276.625 208.26 277.74C208.878 278.848 209.187 280.126 209.187 281.575C209.187 283.024 208.875 284.303 208.25 285.411C207.625 286.518 206.719 287.381 205.533 287.999C204.354 288.617 202.926 288.926 201.25 288.926H195.764V285.229H200.505C201.392 285.229 202.124 285.077 202.699 284.771C203.282 284.459 203.715 284.029 203.999 283.482C204.29 282.928 204.436 282.293 204.436 281.575C204.436 280.851 204.29 280.219 203.999 279.679C203.715 279.132 203.282 278.71 202.699 278.411C202.117 278.106 201.378 277.953 200.483 277.953H197.373V296H192.76ZM222.592 289.033V279.636H227.13V296H222.773V293.028H222.602C222.233 293.987 221.619 294.757 220.759 295.339C219.907 295.922 218.867 296.213 217.638 296.213C216.544 296.213 215.582 295.964 214.751 295.467C213.92 294.97 213.27 294.263 212.801 293.347C212.34 292.431 212.105 291.334 212.098 290.055V279.636H216.637V289.246C216.644 290.212 216.903 290.975 217.414 291.536C217.926 292.097 218.611 292.378 219.47 292.378C220.017 292.378 220.529 292.254 221.004 292.005C221.48 291.749 221.864 291.373 222.155 290.876C222.453 290.379 222.599 289.764 222.592 289.033ZM235.299 274.182V296H230.76V274.182H235.299ZM243.6 296.309C242.556 296.309 241.626 296.128 240.809 295.766C239.992 295.396 239.346 294.853 238.87 294.136C238.401 293.411 238.167 292.509 238.167 291.43C238.167 290.521 238.334 289.757 238.668 289.139C239.002 288.521 239.456 288.024 240.031 287.648C240.607 287.271 241.26 286.987 241.992 286.795C242.73 286.604 243.504 286.469 244.314 286.391C245.266 286.291 246.033 286.199 246.615 286.114C247.198 286.021 247.62 285.886 247.883 285.709C248.146 285.531 248.277 285.268 248.277 284.92V284.857C248.277 284.182 248.064 283.66 247.638 283.29C247.219 282.921 246.622 282.737 245.848 282.737C245.031 282.737 244.382 282.918 243.899 283.28C243.416 283.635 243.096 284.082 242.94 284.622L238.742 284.281C238.955 283.287 239.374 282.428 239.999 281.703C240.624 280.972 241.431 280.411 242.418 280.02C243.412 279.622 244.563 279.423 245.869 279.423C246.779 279.423 247.649 279.53 248.48 279.743C249.318 279.956 250.06 280.286 250.706 280.734C251.36 281.181 251.874 281.756 252.251 282.46C252.627 283.156 252.816 283.99 252.816 284.963V296H248.512V293.731H248.384C248.121 294.242 247.769 294.693 247.329 295.084C246.889 295.467 246.36 295.769 245.742 295.989C245.124 296.202 244.41 296.309 243.6 296.309ZM244.9 293.177C245.568 293.177 246.157 293.045 246.669 292.783C247.18 292.513 247.581 292.151 247.872 291.696C248.164 291.241 248.309 290.727 248.309 290.151V288.415C248.167 288.507 247.972 288.592 247.723 288.67C247.482 288.741 247.208 288.809 246.903 288.873C246.597 288.93 246.292 288.983 245.987 289.033C245.681 289.075 245.404 289.114 245.156 289.15C244.623 289.228 244.158 289.352 243.76 289.523C243.362 289.693 243.053 289.924 242.833 290.215C242.613 290.499 242.503 290.854 242.503 291.281C242.503 291.898 242.727 292.371 243.174 292.697C243.629 293.017 244.204 293.177 244.9 293.177ZM266.83 289.033V279.636H271.368V296H267.011V293.028H266.841C266.471 293.987 265.857 294.757 264.998 295.339C264.145 295.922 263.105 296.213 261.876 296.213C260.782 296.213 259.82 295.964 258.989 295.467C258.158 294.97 257.508 294.263 257.04 293.347C256.578 292.431 256.344 291.334 256.336 290.055V279.636H260.875V289.246C260.882 290.212 261.141 290.975 261.653 291.536C262.164 292.097 262.849 292.378 263.709 292.378C264.256 292.378 264.767 292.254 265.243 292.005C265.719 291.749 266.102 291.373 266.393 290.876C266.692 290.379 266.837 289.764 266.83 289.033ZM282.027 296V274.182H286.64V283.184H296.004V274.182H300.607V296H296.004V286.987H286.64V296H282.027ZM304.325 296V279.636H308.863V296H304.325ZM306.605 277.527C305.93 277.527 305.351 277.303 304.868 276.856C304.392 276.401 304.154 275.858 304.154 275.226C304.154 274.601 304.392 274.065 304.868 273.617C305.351 273.163 305.93 272.935 306.605 272.935C307.279 272.935 307.855 273.163 308.33 273.617C308.813 274.065 309.055 274.601 309.055 275.226C309.055 275.858 308.813 276.401 308.33 276.856C307.855 277.303 307.279 277.527 306.605 277.527ZM312.499 296V279.636H316.898V282.491H317.069C317.367 281.476 317.868 280.709 318.571 280.19C319.274 279.665 320.084 279.402 321 279.402C321.227 279.402 321.472 279.416 321.735 279.445C321.998 279.473 322.229 279.512 322.428 279.562V283.589C322.214 283.525 321.92 283.468 321.543 283.418C321.167 283.369 320.822 283.344 320.51 283.344C319.842 283.344 319.246 283.489 318.72 283.781C318.202 284.065 317.79 284.462 317.484 284.974C317.186 285.485 317.037 286.075 317.037 286.742V296H312.499ZM324.774 296V279.636H329.312V296H324.774ZM327.054 277.527C326.379 277.527 325.8 277.303 325.317 276.856C324.841 276.401 324.604 275.858 324.604 275.226C324.604 274.601 324.841 274.065 325.317 273.617C325.8 273.163 326.379 272.935 327.054 272.935C327.729 272.935 328.304 273.163 328.78 273.617C329.263 274.065 329.504 274.601 329.504 275.226C329.504 275.858 329.263 276.401 328.78 276.856C328.304 277.303 327.729 277.527 327.054 277.527Z" fill="white"/>
</g>
</g>
<defs>
<filter id="filter0_d_457_346" x="77.9883" y="92.9355" width="366.287" height="211.374" filterUnits="userSpaceOnUse" color-interpolation-filters="sRGB">
<feFlood flood-opacity="0" result="BackgroundImageFix"/>
<feColorMatrix in="SourceAlpha" type="matrix" values="0 0 0 0 0 0 0 0 0 0 0 0 0 0 0 0 0 0 127 0" result="hardAlpha"/>
<feOffset dy="4"/>
<feGaussianBlur stdDeviation="2"/>
<feComposite in2="hardAlpha" operator="out"/>
<feColorMatrix type="matrix" values="0 0 0 0 0 0 0 0 0 0 0 0 0 0 0 0 0 0 0.25 0"/>
<feBlend mode="normal" in2="BackgroundImageFix" result="effect1_dropShadow_457_346"/>
<feBlend mode="normal" in="SourceGraphic" in2="effect1_dropShadow_457_346" result="shape"/>
</filter>
<linearGradient id="paint0_linear_457_346" x1="521" y1="260.5" x2="910" y2="260.5" gradientUnits="userSpaceOnUse">
<stop stop-color="#0E96A0"/>
<stop offset="1" stop-color="#05373A"/>
</linearGradient>
</defs>
</svg>
