<svg width="521" height="389" viewBox="0 0 521 389" fill="none" xmlns="http://www.w3.org/2000/svg">
<mask id="mask0_457_362" style="mask-type:alpha" maskUnits="userSpaceOnUse" x="0" y="0" width="521" height="389">
<rect x="521" width="389" height="521" rx="10" transform="rotate(90 521 0)" fill="#FFDA46"/>
</mask>
<g mask="url(#mask0_457_362)">
<rect x="521" width="389" height="521" rx="10" transform="rotate(90 521 0)" fill="#FFDA46"/>
<rect x="521" width="389" height="521" rx="10" transform="rotate(90 521 0)" fill="url(#paint0_linear_457_362)"/>
<path d="M245.988 341.591C217.826 355.124 185.466 350.638 162.284 329.806C161.649 329.237 160.692 329.229 160.057 329.798L147.613 341.038C147.465 341.17 147.234 341.311 147.25 341.508C147.374 342.91 152.231 348.691 153.658 350.712C169.706 373.415 172.164 403.202 159.357 427.926C159.018 428.577 158.276 428.94 157.559 428.791C128.415 422.837 106.454 392.91 105.126 363.742C102.421 304.555 166.177 266.67 216.819 297.999C230.361 306.377 245.287 323.58 246.936 339.95C247.002 340.634 246.623 341.294 246.005 341.591H245.988Z" fill="#40A6AA" fill-opacity="0.5"/>
<path d="M30.2198 428.725C29.2549 427.661 25.0409 415.365 24.4553 413.065C19.4166 393.281 22.0226 373.439 32.6691 355.94C34.3102 353.235 43.332 343.174 42.0538 341.228C41.3693 340.18 29.3374 328.445 28.3808 328.981C26.0635 330.276 23.2183 333.509 20.5052 335.422C-2.52784 351.676 -31.5315 353.754 -56.6427 341.162C-57.3354 340.815 -57.6982 340.024 -57.5086 339.273C-44.6685 287.773 21.4618 269.737 60.8068 305.709C99.2446 340.848 88.994 406.624 40.6931 426.622C38.384 427.579 31.8939 430.564 30.2198 428.725Z" fill="#40A6AA" fill-opacity="0.5"/>
<path d="M-57.0043 211.598C-28.38 198.164 3.74091 202.354 27.4172 223.152C28.0769 223.729 29.0748 223.713 29.6933 223.086L41.3046 211.474C41.9231 210.856 41.9478 209.875 41.3788 209.207C20.861 185.456 15.8058 153.583 29.9984 125.14C30.3447 124.447 31.1282 124.084 31.8786 124.266C83.5029 136.916 101.695 203.409 65.5087 242.589C34.097 276.599 -21.9558 273.605 -48.1473 235.06C-50.2997 231.893 -58.4969 217.626 -57.9526 212.876C-57.8867 212.316 -57.5156 211.837 -57.0043 211.598Z" fill="#40A6AA" fill-opacity="0.5"/>
<path d="M158.092 124.356C158.81 124.257 159.519 124.653 159.816 125.313C171.79 151.406 169.976 178.438 153.639 202.288C152.221 204.366 147.306 211.714 147.586 211.953C150.778 214.715 159.981 223.399 159.981 223.399C160.575 223.943 170.809 216.274 176.136 213.297C198.122 201.018 223.687 200.746 246.126 211.862C246.786 212.192 247.157 212.926 247.017 213.652C241.681 241.451 212.653 263.816 185.018 266.035C124.965 270.851 84.2845 207.054 115.803 155.051C124.33 140.982 141.418 126.715 158.084 124.348L158.092 124.356Z" fill="#40A6AA" fill-opacity="0.5"/>
<path d="M108.937 130.962C104.146 136.289 99.2474 142.095 96.1384 148.816C95.9405 149.245 95.5694 149.574 95.1158 149.715C94.3159 149.954 93.4665 149.574 93.1284 148.808C90.7368 143.406 86.729 137.534 83.0344 133.065C75.6701 124.142 67.3575 121.783 65.7493 108.63C63.4155 89.5385 81.7892 77.6715 93.4665 65.5159C94.0438 64.9139 94.9756 64.8232 95.6436 65.3262C100.27 68.8146 114.842 83.6669 116.623 85.9512C121.687 92.4496 124.763 100.449 123.839 108.786C122.619 119.771 115.609 123.548 108.937 130.962Z" fill="#40A6AA" fill-opacity="0.5"/>
<path d="M223.861 277.934C222.607 277.25 222.558 275.46 223.762 274.693C228.108 271.931 236.198 266.669 239.876 263.461C246.259 257.895 248.279 251.834 256.806 249.063C279.592 241.657 291.549 261.631 305.709 275.254C306.311 275.831 306.402 276.755 305.899 277.423C302.369 282.107 287.104 297.025 284.68 298.856C279.814 302.543 272.73 305.684 266.512 305.808C250.011 306.13 245.467 293.397 234.128 284.853C231.398 282.792 227.448 279.881 223.869 277.926L223.861 277.934Z" fill="#40A6AA" fill-opacity="0.5"/>
<path d="M94.3802 237.237C95.1636 236.998 95.9883 237.377 96.3512 238.111C101.81 249.186 111.22 260.196 120.902 267.544C124.72 270.438 129.305 272.475 133.082 275.188C133.61 275.568 135.168 275.361 134.385 277.019C134.03 277.761 123.103 283.822 120.902 285.472C116.374 288.869 107.534 297.594 104.128 302.114C102.577 304.167 98.553 311.622 95.9553 314.772C95.2214 315.663 93.8194 315.515 93.2504 314.517C86.8922 303.417 78.8352 293.158 68.5186 285.464C66.4981 283.963 59.5214 280.326 56.4619 277.819C55.5465 277.068 55.6785 275.65 56.7175 275.073C72.1554 266.554 85.1934 253.879 93.2587 238.103C93.4648 237.699 93.8194 237.402 94.2483 237.27L94.372 237.237H94.3802Z" fill="#40A6AA" fill-opacity="0.5"/>
<g filter="url(#filter0_d_457_362)">
<path d="M91.1247 141.091C91.1247 143.47 90.6737 145.494 89.7718 147.163C88.8769 148.832 87.6553 150.107 86.107 150.988C84.5658 151.862 82.8328 152.298 80.9081 152.298C78.9692 152.298 77.2291 151.858 75.6879 150.977C74.1468 150.097 72.9287 148.822 72.0338 147.153C71.1389 145.484 70.6915 143.463 70.6915 141.091C70.6915 138.712 71.1389 136.688 72.0338 135.018C72.9287 133.349 74.1468 132.078 75.6879 131.205C77.2291 130.324 78.9692 129.884 80.9081 129.884C82.8328 129.884 84.5658 130.324 86.107 131.205C87.6553 132.078 88.8769 133.349 89.7718 135.018C90.6737 136.688 91.1247 138.712 91.1247 141.091ZM86.4479 141.091C86.4479 139.55 86.2171 138.25 85.7554 137.192C85.3009 136.134 84.6581 135.331 83.8271 134.784C82.9962 134.237 82.0232 133.964 80.9081 133.964C79.7931 133.964 78.82 134.237 77.9891 134.784C77.1581 135.331 76.5118 136.134 76.0502 137.192C75.5956 138.25 75.3683 139.55 75.3683 141.091C75.3683 142.632 75.5956 143.932 76.0502 144.99C76.5118 146.048 77.1581 146.851 77.9891 147.398C78.82 147.945 79.7931 148.218 80.9081 148.218C82.0232 148.218 82.9962 147.945 83.8271 147.398C84.6581 146.851 85.3009 146.048 85.7554 144.99C86.2171 143.932 86.4479 142.632 86.4479 141.091ZM94.4566 158.136V135.636H98.931V138.385H99.1334C99.3323 137.945 99.6199 137.497 99.9964 137.043C100.38 136.581 100.877 136.197 101.488 135.892C102.106 135.58 102.873 135.423 103.789 135.423C104.982 135.423 106.083 135.736 107.092 136.361C108.1 136.979 108.906 137.913 109.51 139.163C110.114 140.406 110.415 141.964 110.415 143.839C110.415 145.665 110.121 147.206 109.531 148.463C108.949 149.713 108.153 150.661 107.145 151.308C106.143 151.947 105.021 152.266 103.778 152.266C102.898 152.266 102.148 152.121 101.53 151.83C100.92 151.538 100.419 151.173 100.028 150.732C99.6377 150.285 99.3394 149.834 99.1334 149.379H98.9949V158.136H94.4566ZM98.8991 143.818C98.8991 144.791 99.034 145.64 99.3039 146.364C99.5738 147.089 99.9644 147.653 100.476 148.058C100.987 148.456 101.609 148.655 102.34 148.655C103.079 148.655 103.704 148.452 104.215 148.048C104.726 147.636 105.114 147.067 105.376 146.343C105.646 145.612 105.781 144.77 105.781 143.818C105.781 142.874 105.65 142.043 105.387 141.325C105.124 140.608 104.737 140.047 104.226 139.642C103.714 139.237 103.086 139.035 102.34 139.035C101.601 139.035 100.976 139.23 100.465 139.621C99.9608 140.011 99.5738 140.565 99.3039 141.283C99.034 142 98.8991 142.845 98.8991 143.818ZM122.145 135.636V139.045H112.29V135.636H122.145ZM114.528 131.716H119.066V146.972C119.066 147.391 119.13 147.717 119.258 147.952C119.386 148.179 119.563 148.339 119.79 148.431C120.025 148.523 120.295 148.57 120.6 148.57C120.813 148.57 121.026 148.552 121.239 148.516C121.452 148.474 121.616 148.442 121.729 148.42L122.443 151.798C122.216 151.869 121.896 151.95 121.484 152.043C121.072 152.142 120.572 152.202 119.982 152.224C118.888 152.266 117.93 152.121 117.106 151.787C116.289 151.453 115.653 150.935 115.199 150.232C114.744 149.528 114.521 148.641 114.528 147.568V131.716ZM125.101 152V135.636H129.639V152H125.101ZM127.381 133.527C126.706 133.527 126.127 133.303 125.644 132.856C125.169 132.401 124.931 131.858 124.931 131.226C124.931 130.601 125.169 130.065 125.644 129.617C126.127 129.163 126.706 128.935 127.381 128.935C128.056 128.935 128.631 129.163 129.107 129.617C129.59 130.065 129.831 130.601 129.831 131.226C129.831 131.858 129.59 132.401 129.107 132.856C128.631 133.303 128.056 133.527 127.381 133.527ZM133.275 152V135.636H137.6V138.523H137.792C138.133 137.565 138.701 136.808 139.497 136.254C140.292 135.7 141.244 135.423 142.352 135.423C143.474 135.423 144.429 135.704 145.217 136.265C146.006 136.819 146.531 137.572 146.794 138.523H146.965C147.298 137.586 147.902 136.837 148.776 136.276C149.656 135.707 150.697 135.423 151.897 135.423C153.424 135.423 154.663 135.91 155.615 136.883C156.574 137.849 157.053 139.219 157.053 140.995V152H152.526V141.89C152.526 140.981 152.284 140.299 151.801 139.844C151.318 139.39 150.715 139.163 149.99 139.163C149.166 139.163 148.524 139.425 148.062 139.951C147.6 140.469 147.369 141.155 147.369 142.007V152H142.97V141.794C142.97 140.991 142.739 140.352 142.277 139.876C141.823 139.401 141.222 139.163 140.477 139.163C139.972 139.163 139.518 139.29 139.113 139.546C138.715 139.795 138.399 140.146 138.165 140.601C137.93 141.048 137.813 141.574 137.813 142.178V152H133.275ZM165.304 152.309C164.26 152.309 163.33 152.128 162.513 151.766C161.696 151.396 161.05 150.853 160.574 150.136C160.106 149.411 159.871 148.509 159.871 147.43C159.871 146.521 160.038 145.757 160.372 145.139C160.706 144.521 161.16 144.024 161.736 143.648C162.311 143.271 162.964 142.987 163.696 142.795C164.434 142.604 165.209 142.469 166.018 142.391C166.97 142.291 167.737 142.199 168.319 142.114C168.902 142.021 169.324 141.886 169.587 141.709C169.85 141.531 169.981 141.268 169.981 140.92V140.857C169.981 140.182 169.768 139.66 169.342 139.29C168.923 138.921 168.326 138.737 167.552 138.737C166.736 138.737 166.086 138.918 165.603 139.28C165.12 139.635 164.8 140.082 164.644 140.622L160.446 140.281C160.66 139.287 161.079 138.428 161.704 137.703C162.329 136.972 163.135 136.411 164.122 136.02C165.116 135.622 166.267 135.423 167.574 135.423C168.483 135.423 169.353 135.53 170.184 135.743C171.022 135.956 171.764 136.286 172.41 136.734C173.064 137.181 173.579 137.756 173.955 138.46C174.331 139.156 174.52 139.99 174.52 140.963V152H170.216V149.731H170.088C169.825 150.242 169.473 150.693 169.033 151.084C168.593 151.467 168.064 151.769 167.446 151.989C166.828 152.202 166.114 152.309 165.304 152.309ZM166.604 149.177C167.272 149.177 167.861 149.045 168.373 148.783C168.884 148.513 169.285 148.151 169.576 147.696C169.868 147.241 170.013 146.727 170.013 146.151V144.415C169.871 144.507 169.676 144.592 169.427 144.67C169.186 144.741 168.912 144.809 168.607 144.873C168.302 144.93 167.996 144.983 167.691 145.033C167.385 145.075 167.108 145.114 166.86 145.15C166.327 145.228 165.862 145.352 165.464 145.523C165.066 145.693 164.758 145.924 164.537 146.215C164.317 146.499 164.207 146.854 164.207 147.281C164.207 147.898 164.431 148.371 164.878 148.697C165.333 149.017 165.908 149.177 166.604 149.177ZM182.579 130.182V152H178.041V130.182H182.579ZM186.214 152V135.636H190.753V152H186.214ZM188.494 133.527C187.82 133.527 187.241 133.303 186.758 132.856C186.282 132.401 186.044 131.858 186.044 131.226C186.044 130.601 186.282 130.065 186.758 129.617C187.241 129.163 187.82 128.935 188.494 128.935C189.169 128.935 189.744 129.163 190.22 129.617C190.703 130.065 190.945 130.601 190.945 131.226C190.945 131.858 190.703 132.401 190.22 132.856C189.744 133.303 189.169 133.527 188.494 133.527ZM208.003 140.303L203.848 140.558C203.777 140.203 203.625 139.884 203.39 139.599C203.156 139.308 202.847 139.077 202.464 138.907C202.087 138.729 201.636 138.641 201.111 138.641C200.407 138.641 199.814 138.79 199.331 139.088C198.848 139.379 198.607 139.77 198.607 140.26C198.607 140.651 198.763 140.981 199.076 141.251C199.388 141.521 199.924 141.737 200.684 141.901L203.646 142.497C205.237 142.824 206.423 143.349 207.204 144.074C207.986 144.798 208.376 145.75 208.376 146.929C208.376 148.001 208.06 148.942 207.428 149.752C206.803 150.562 205.944 151.194 204.85 151.648C203.763 152.096 202.51 152.32 201.089 152.32C198.923 152.32 197.197 151.869 195.912 150.967C194.633 150.058 193.884 148.822 193.664 147.259L198.128 147.025C198.263 147.685 198.589 148.19 199.108 148.538C199.626 148.879 200.29 149.049 201.1 149.049C201.895 149.049 202.535 148.896 203.017 148.591C203.508 148.278 203.756 147.877 203.763 147.387C203.756 146.975 203.582 146.638 203.241 146.375C202.9 146.105 202.375 145.899 201.665 145.757L198.831 145.192C197.233 144.873 196.043 144.319 195.262 143.531C194.488 142.742 194.101 141.737 194.101 140.516C194.101 139.464 194.385 138.559 194.953 137.799C195.528 137.039 196.334 136.453 197.371 136.041C198.415 135.629 199.637 135.423 201.036 135.423C203.103 135.423 204.729 135.86 205.915 136.734C207.108 137.607 207.804 138.797 208.003 140.303ZM215.9 152.309C214.856 152.309 213.926 152.128 213.109 151.766C212.292 151.396 211.646 150.853 211.17 150.136C210.701 149.411 210.467 148.509 210.467 147.43C210.467 146.521 210.634 145.757 210.968 145.139C211.301 144.521 211.756 144.024 212.331 143.648C212.907 143.271 213.56 142.987 214.291 142.795C215.03 142.604 215.804 142.469 216.614 142.391C217.566 142.291 218.333 142.199 218.915 142.114C219.497 142.021 219.92 141.886 220.183 141.709C220.446 141.531 220.577 141.268 220.577 140.92V140.857C220.577 140.182 220.364 139.66 219.938 139.29C219.519 138.921 218.922 138.737 218.148 138.737C217.331 138.737 216.681 138.918 216.198 139.28C215.715 139.635 215.396 140.082 215.24 140.622L211.042 140.281C211.255 139.287 211.674 138.428 212.299 137.703C212.924 136.972 213.73 136.411 214.718 136.02C215.712 135.622 216.862 135.423 218.169 135.423C219.078 135.423 219.948 135.53 220.779 135.743C221.617 135.956 222.36 136.286 223.006 136.734C223.659 137.181 224.174 137.756 224.551 138.46C224.927 139.156 225.115 139.99 225.115 140.963V152H220.811V149.731H220.684C220.421 150.242 220.069 150.693 219.629 151.084C219.188 151.467 218.659 151.769 218.041 151.989C217.424 152.202 216.71 152.309 215.9 152.309ZM217.2 149.177C217.867 149.177 218.457 149.045 218.968 148.783C219.48 148.513 219.881 148.151 220.172 147.696C220.463 147.241 220.609 146.727 220.609 146.151V144.415C220.467 144.507 220.272 144.592 220.023 144.67C219.782 144.741 219.508 144.809 219.203 144.873C218.897 144.93 218.592 144.983 218.286 145.033C217.981 145.075 217.704 145.114 217.456 145.15C216.923 145.228 216.458 145.352 216.06 145.523C215.662 145.693 215.353 145.924 215.133 146.215C214.913 146.499 214.803 146.854 214.803 147.281C214.803 147.898 215.027 148.371 215.474 148.697C215.929 149.017 216.504 149.177 217.2 149.177ZM242.251 140.303L238.097 140.558C238.025 140.203 237.873 139.884 237.638 139.599C237.404 139.308 237.095 139.077 236.712 138.907C236.335 138.729 235.884 138.641 235.359 138.641C234.655 138.641 234.062 138.79 233.579 139.088C233.097 139.379 232.855 139.77 232.855 140.26C232.855 140.651 233.011 140.981 233.324 141.251C233.636 141.521 234.172 141.737 234.932 141.901L237.894 142.497C239.485 142.824 240.671 143.349 241.452 144.074C242.234 144.798 242.624 145.75 242.624 146.929C242.624 148.001 242.308 148.942 241.676 149.752C241.051 150.562 240.192 151.194 239.098 151.648C238.011 152.096 236.758 152.32 235.337 152.32C233.171 152.32 231.445 151.869 230.16 150.967C228.881 150.058 228.132 148.822 227.912 147.259L232.376 147.025C232.511 147.685 232.837 148.19 233.356 148.538C233.874 148.879 234.538 149.049 235.348 149.049C236.143 149.049 236.783 148.896 237.266 148.591C237.756 148.278 238.004 147.877 238.011 147.387C238.004 146.975 237.83 146.638 237.489 146.375C237.148 146.105 236.623 145.899 235.913 145.757L233.079 145.192C231.481 144.873 230.291 144.319 229.51 143.531C228.736 142.742 228.349 141.737 228.349 140.516C228.349 139.464 228.633 138.559 229.201 137.799C229.776 137.039 230.582 136.453 231.619 136.041C232.663 135.629 233.885 135.423 235.284 135.423C237.351 135.423 238.977 135.86 240.163 136.734C241.356 137.607 242.052 138.797 242.251 140.303ZM245.482 152V135.636H250.02V152H245.482ZM247.762 133.527C247.087 133.527 246.508 133.303 246.025 132.856C245.549 132.401 245.312 131.858 245.312 131.226C245.312 130.601 245.549 130.065 246.025 129.617C246.508 129.163 247.087 128.935 247.762 128.935C248.437 128.935 249.012 129.163 249.488 129.617C249.971 130.065 250.212 130.601 250.212 131.226C250.212 131.858 249.971 132.401 249.488 132.856C249.012 133.303 248.437 133.527 247.762 133.527ZM260.684 152V130.182H269.292C270.947 130.182 272.357 130.498 273.522 131.13C274.687 131.755 275.574 132.625 276.185 133.74C276.803 134.848 277.112 136.126 277.112 137.575C277.112 139.024 276.799 140.303 276.174 141.411C275.549 142.518 274.644 143.381 273.458 143.999C272.279 144.617 270.851 144.926 269.175 144.926H263.689V141.229H268.429C269.317 141.229 270.049 141.077 270.624 140.771C271.206 140.459 271.64 140.029 271.924 139.482C272.215 138.928 272.361 138.293 272.361 137.575C272.361 136.851 272.215 136.219 271.924 135.679C271.64 135.132 271.206 134.71 270.624 134.411C270.042 134.106 269.303 133.953 268.408 133.953H265.297V152H260.684ZM287.217 152.32C285.533 152.32 284.085 151.979 282.87 151.297C281.663 150.608 280.732 149.635 280.079 148.378C279.426 147.114 279.099 145.619 279.099 143.893C279.099 142.21 279.426 140.732 280.079 139.461C280.732 138.19 281.652 137.199 282.838 136.489C284.031 135.778 285.43 135.423 287.036 135.423C288.115 135.423 289.12 135.597 290.051 135.945C290.988 136.286 291.805 136.801 292.501 137.49C293.204 138.179 293.751 139.045 294.141 140.089C294.532 141.126 294.727 142.341 294.727 143.733V144.979H280.91V142.167H290.455C290.455 141.513 290.313 140.935 290.029 140.43C289.745 139.926 289.351 139.532 288.847 139.248C288.35 138.957 287.771 138.811 287.11 138.811C286.421 138.811 285.81 138.971 285.278 139.29C284.752 139.603 284.34 140.026 284.042 140.558C283.744 141.084 283.591 141.67 283.584 142.316V144.99C283.584 145.8 283.733 146.499 284.031 147.089C284.337 147.678 284.766 148.133 285.32 148.452C285.874 148.772 286.531 148.932 287.291 148.932C287.796 148.932 288.257 148.861 288.676 148.719C289.095 148.577 289.454 148.364 289.752 148.08C290.051 147.795 290.278 147.447 290.434 147.036L294.631 147.312C294.418 148.321 293.982 149.202 293.321 149.955C292.668 150.7 291.823 151.283 290.786 151.702C289.756 152.114 288.566 152.32 287.217 152.32ZM297.689 152V135.636H302.014V138.523H302.206C302.547 137.565 303.115 136.808 303.911 136.254C304.706 135.7 305.658 135.423 306.766 135.423C307.888 135.423 308.843 135.704 309.631 136.265C310.42 136.819 310.945 137.572 311.208 138.523H311.379C311.712 137.586 312.316 136.837 313.19 136.276C314.07 135.707 315.111 135.423 316.311 135.423C317.838 135.423 319.078 135.91 320.029 136.883C320.988 137.849 321.467 139.219 321.467 140.995V152H316.94V141.89C316.94 140.981 316.698 140.299 316.215 139.844C315.732 139.39 315.129 139.163 314.404 139.163C313.58 139.163 312.938 139.425 312.476 139.951C312.014 140.469 311.783 141.155 311.783 142.007V152H307.384V141.794C307.384 140.991 307.153 140.352 306.691 139.876C306.237 139.401 305.636 139.163 304.891 139.163C304.386 139.163 303.932 139.29 303.527 139.546C303.129 139.795 302.813 140.146 302.579 140.601C302.345 141.048 302.227 141.574 302.227 142.178V152H297.689ZM329.718 152.309C328.674 152.309 327.744 152.128 326.927 151.766C326.111 151.396 325.464 150.853 324.988 150.136C324.52 149.411 324.285 148.509 324.285 147.43C324.285 146.521 324.452 145.757 324.786 145.139C325.12 144.521 325.574 144.024 326.15 143.648C326.725 143.271 327.378 142.987 328.11 142.795C328.848 142.604 329.623 142.469 330.432 142.391C331.384 142.291 332.151 142.199 332.733 142.114C333.316 142.021 333.738 141.886 334.001 141.709C334.264 141.531 334.395 141.268 334.395 140.92V140.857C334.395 140.182 334.182 139.66 333.756 139.29C333.337 138.921 332.741 138.737 331.966 138.737C331.15 138.737 330.5 138.918 330.017 139.28C329.534 139.635 329.214 140.082 329.058 140.622L324.861 140.281C325.074 139.287 325.493 138.428 326.118 137.703C326.743 136.972 327.549 136.411 328.536 136.02C329.53 135.622 330.681 135.423 331.988 135.423C332.897 135.423 333.767 135.53 334.598 135.743C335.436 135.956 336.178 136.286 336.824 136.734C337.478 137.181 337.993 137.756 338.369 138.46C338.745 139.156 338.934 139.99 338.934 140.963V152H334.63V149.731H334.502C334.239 150.242 333.888 150.693 333.447 151.084C333.007 151.467 332.478 151.769 331.86 151.989C331.242 152.202 330.528 152.309 329.718 152.309ZM331.018 149.177C331.686 149.177 332.275 149.045 332.787 148.783C333.298 148.513 333.699 148.151 333.991 147.696C334.282 147.241 334.427 146.727 334.427 146.151V144.415C334.285 144.507 334.09 144.592 333.841 144.67C333.6 144.741 333.326 144.809 333.021 144.873C332.716 144.93 332.41 144.983 332.105 145.033C331.799 145.075 331.522 145.114 331.274 145.15C330.741 145.228 330.276 145.352 329.878 145.523C329.481 145.693 329.172 145.924 328.951 146.215C328.731 146.499 328.621 146.854 328.621 147.281C328.621 147.898 328.845 148.371 329.292 148.697C329.747 149.017 330.322 149.177 331.018 149.177ZM346.993 142.54V152H342.455V135.636H346.78V138.523H346.972C347.334 137.572 347.941 136.819 348.793 136.265C349.646 135.704 350.679 135.423 351.894 135.423C353.03 135.423 354.021 135.672 354.866 136.169C355.711 136.666 356.368 137.376 356.837 138.3C357.305 139.216 357.54 140.31 357.54 141.581V152H353.002V142.391C353.009 141.389 352.753 140.608 352.234 140.047C351.716 139.479 351.002 139.195 350.093 139.195C349.482 139.195 348.943 139.326 348.474 139.589C348.012 139.852 347.65 140.235 347.387 140.739C347.131 141.237 347 141.837 346.993 142.54ZM369.916 135.636V139.045H359.817V135.636H369.916ZM362.129 152V134.454C362.129 133.268 362.36 132.284 362.821 131.503C363.29 130.722 363.929 130.136 364.739 129.745C365.549 129.354 366.468 129.159 367.498 129.159C368.194 129.159 368.83 129.212 369.405 129.319C369.987 129.425 370.421 129.521 370.705 129.607L369.895 133.016C369.718 132.959 369.497 132.906 369.235 132.856C368.979 132.806 368.716 132.781 368.446 132.781C367.779 132.781 367.313 132.938 367.051 133.25C366.788 133.555 366.657 133.985 366.657 134.539V152H362.129ZM376.769 152.309C375.725 152.309 374.795 152.128 373.978 151.766C373.161 151.396 372.515 150.853 372.039 150.136C371.57 149.411 371.336 148.509 371.336 147.43C371.336 146.521 371.503 145.757 371.837 145.139C372.171 144.521 372.625 144.024 373.2 143.648C373.776 143.271 374.429 142.987 375.161 142.795C375.899 142.604 376.673 142.469 377.483 142.391C378.435 142.291 379.202 142.199 379.784 142.114C380.367 142.021 380.789 141.886 381.052 141.709C381.315 141.531 381.446 141.268 381.446 140.92V140.857C381.446 140.182 381.233 139.66 380.807 139.29C380.388 138.921 379.791 138.737 379.017 138.737C378.2 138.737 377.551 138.918 377.068 139.28C376.585 139.635 376.265 140.082 376.109 140.622L371.911 140.281C372.124 139.287 372.543 138.428 373.168 137.703C373.793 136.972 374.6 136.411 375.587 136.02C376.581 135.622 377.732 135.423 379.038 135.423C379.948 135.423 380.818 135.53 381.649 135.743C382.487 135.956 383.229 136.286 383.875 136.734C384.528 137.181 385.043 137.756 385.42 138.46C385.796 139.156 385.984 139.99 385.984 140.963V152H381.68V149.731H381.553C381.29 150.242 380.938 150.693 380.498 151.084C380.058 151.467 379.528 151.769 378.911 151.989C378.293 152.202 377.579 152.309 376.769 152.309ZM378.069 149.177C378.737 149.177 379.326 149.045 379.837 148.783C380.349 148.513 380.75 148.151 381.041 147.696C381.332 147.241 381.478 146.727 381.478 146.151V144.415C381.336 144.507 381.141 144.592 380.892 144.67C380.651 144.741 380.377 144.809 380.072 144.873C379.766 144.93 379.461 144.983 379.156 145.033C378.85 145.075 378.573 145.114 378.325 145.15C377.792 145.228 377.327 145.352 376.929 145.523C376.531 145.693 376.222 145.924 376.002 146.215C375.782 146.499 375.672 146.854 375.672 147.281C375.672 147.898 375.896 148.371 376.343 148.697C376.798 149.017 377.373 149.177 378.069 149.177ZM394.172 152.309C393.128 152.309 392.197 152.128 391.38 151.766C390.564 151.396 389.917 150.853 389.441 150.136C388.973 149.411 388.738 148.509 388.738 147.43C388.738 146.521 388.905 145.757 389.239 145.139C389.573 144.521 390.027 144.024 390.603 143.648C391.178 143.271 391.831 142.987 392.563 142.795C393.302 142.604 394.076 142.469 394.885 142.391C395.837 142.291 396.604 142.199 397.187 142.114C397.769 142.021 398.191 141.886 398.454 141.709C398.717 141.531 398.848 141.268 398.848 140.92V140.857C398.848 140.182 398.635 139.66 398.209 139.29C397.79 138.921 397.194 138.737 396.419 138.737C395.603 138.737 394.953 138.918 394.47 139.28C393.987 139.635 393.667 140.082 393.511 140.622L389.314 140.281C389.527 139.287 389.946 138.428 390.571 137.703C391.196 136.972 392.002 136.411 392.989 136.02C393.983 135.622 395.134 135.423 396.441 135.423C397.35 135.423 398.22 135.53 399.051 135.743C399.889 135.956 400.631 136.286 401.277 136.734C401.931 137.181 402.446 137.756 402.822 138.46C403.199 139.156 403.387 139.99 403.387 140.963V152H399.083V149.731H398.955C398.692 150.242 398.341 150.693 397.9 151.084C397.46 151.467 396.931 151.769 396.313 151.989C395.695 152.202 394.981 152.309 394.172 152.309ZM395.471 149.177C396.139 149.177 396.728 149.045 397.24 148.783C397.751 148.513 398.152 148.151 398.444 147.696C398.735 147.241 398.88 146.727 398.88 146.151V144.415C398.738 144.507 398.543 144.592 398.294 144.67C398.053 144.741 397.78 144.809 397.474 144.873C397.169 144.93 396.863 144.983 396.558 145.033C396.253 145.075 395.976 145.114 395.727 145.15C395.194 145.228 394.729 145.352 394.331 145.523C393.934 145.693 393.625 145.924 393.405 146.215C393.184 146.499 393.074 146.854 393.074 147.281C393.074 147.898 393.298 148.371 393.745 148.697C394.2 149.017 394.775 149.177 395.471 149.177ZM415.612 135.636V139.045H405.757V135.636H415.612ZM407.994 131.716H412.533V146.972C412.533 147.391 412.597 147.717 412.725 147.952C412.852 148.179 413.03 148.339 413.257 148.431C413.492 148.523 413.761 148.57 414.067 148.57C414.28 148.57 414.493 148.552 414.706 148.516C414.919 148.474 415.082 148.442 415.196 148.42L415.91 151.798C415.683 151.869 415.363 151.95 414.951 152.043C414.539 152.142 414.038 152.202 413.449 152.224C412.355 152.266 411.396 152.121 410.573 151.787C409.756 151.453 409.12 150.935 408.666 150.232C408.211 149.528 407.987 148.641 407.994 147.568V131.716ZM423.234 152.309C422.19 152.309 421.26 152.128 420.443 151.766C419.626 151.396 418.98 150.853 418.504 150.136C418.035 149.411 417.801 148.509 417.801 147.43C417.801 146.521 417.968 145.757 418.302 145.139C418.635 144.521 419.09 144.024 419.665 143.648C420.241 143.271 420.894 142.987 421.625 142.795C422.364 142.604 423.138 142.469 423.948 142.391C424.9 142.291 425.667 142.199 426.249 142.114C426.831 142.021 427.254 141.886 427.517 141.709C427.78 141.531 427.911 141.268 427.911 140.92V140.857C427.911 140.182 427.698 139.66 427.272 139.29C426.853 138.921 426.256 138.737 425.482 138.737C424.665 138.737 424.015 138.918 423.532 139.28C423.049 139.635 422.73 140.082 422.574 140.622L418.376 140.281C418.589 139.287 419.008 138.428 419.633 137.703C420.258 136.972 421.064 136.411 422.052 136.02C423.046 135.622 424.196 135.423 425.503 135.423C426.412 135.423 427.282 135.53 428.113 135.743C428.951 135.956 429.694 136.286 430.34 136.734C430.993 137.181 431.508 137.756 431.885 138.46C432.261 139.156 432.449 139.99 432.449 140.963V152H428.145V149.731H428.017C427.755 150.242 427.403 150.693 426.963 151.084C426.522 151.467 425.993 151.769 425.375 151.989C424.758 152.202 424.044 152.309 423.234 152.309ZM424.534 149.177C425.201 149.177 425.791 149.045 426.302 148.783C426.814 148.513 427.215 148.151 427.506 147.696C427.797 147.241 427.943 146.727 427.943 146.151V144.415C427.801 144.507 427.606 144.592 427.357 144.67C427.116 144.741 426.842 144.809 426.537 144.873C426.231 144.93 425.926 144.983 425.62 145.033C425.315 145.075 425.038 145.114 424.79 145.15C424.257 145.228 423.792 145.352 423.394 145.523C422.996 145.693 422.687 145.924 422.467 146.215C422.247 146.499 422.137 146.854 422.137 147.281C422.137 147.898 422.361 148.371 422.808 148.697C423.263 149.017 423.838 149.177 424.534 149.177ZM440.509 142.54V152H435.97V135.636H440.296V138.523H440.487C440.85 137.572 441.457 136.819 442.309 136.265C443.161 135.704 444.195 135.423 445.409 135.423C446.546 135.423 447.536 135.672 448.381 136.169C449.227 136.666 449.884 137.376 450.352 138.3C450.821 139.216 451.055 140.31 451.055 141.581V152H446.517V142.391C446.524 141.389 446.269 140.608 445.75 140.047C445.232 139.479 444.518 139.195 443.609 139.195C442.998 139.195 442.458 139.326 441.989 139.589C441.528 139.852 441.166 140.235 440.903 140.739C440.647 141.237 440.516 141.837 440.509 142.54ZM105.517 169.985V166.182H123.437V169.985H116.757V188H112.197V169.985H105.517ZM145.441 177.091C145.441 179.47 144.99 181.494 144.088 183.163C143.193 184.832 141.972 186.107 140.423 186.988C138.882 187.862 137.149 188.298 135.225 188.298C133.286 188.298 131.546 187.858 130.004 186.977C128.463 186.097 127.245 184.822 126.35 183.153C125.455 181.484 125.008 179.463 125.008 177.091C125.008 174.712 125.455 172.688 126.35 171.018C127.245 169.349 128.463 168.078 130.004 167.205C131.546 166.324 133.286 165.884 135.225 165.884C137.149 165.884 138.882 166.324 140.423 167.205C141.972 168.078 143.193 169.349 144.088 171.018C144.99 172.688 145.441 174.712 145.441 177.091ZM140.764 177.091C140.764 175.55 140.533 174.25 140.072 173.192C139.617 172.134 138.975 171.331 138.144 170.784C137.313 170.237 136.34 169.964 135.225 169.964C134.109 169.964 133.136 170.237 132.305 170.784C131.475 171.331 130.828 172.134 130.367 173.192C129.912 174.25 129.685 175.55 129.685 177.091C129.685 178.632 129.912 179.932 130.367 180.99C130.828 182.048 131.475 182.851 132.305 183.398C133.136 183.945 134.109 184.218 135.225 184.218C136.34 184.218 137.313 183.945 138.144 183.398C138.975 182.851 139.617 182.048 140.072 180.99C140.533 179.932 140.764 178.632 140.764 177.091ZM163.326 173.234C163.176 172.716 162.967 172.258 162.697 171.86C162.427 171.455 162.097 171.114 161.706 170.837C161.323 170.553 160.882 170.337 160.385 170.188C159.895 170.038 159.352 169.964 158.755 169.964C157.64 169.964 156.66 170.241 155.815 170.795C154.977 171.349 154.323 172.155 153.855 173.213C153.386 174.264 153.152 175.55 153.152 177.07C153.152 178.589 153.382 179.882 153.844 180.947C154.306 182.013 154.959 182.826 155.804 183.387C156.649 183.941 157.647 184.218 158.798 184.218C159.842 184.218 160.733 184.033 161.472 183.664C162.218 183.288 162.786 182.759 163.176 182.077C163.574 181.395 163.773 180.589 163.773 179.658L164.71 179.797H159.085V176.324H168.215V179.072C168.215 180.99 167.811 182.638 167.001 184.016C166.191 185.386 165.076 186.445 163.656 187.19C162.235 187.929 160.609 188.298 158.777 188.298C156.731 188.298 154.934 187.847 153.386 186.945C151.838 186.036 150.63 184.747 149.764 183.078C148.904 181.402 148.475 179.413 148.475 177.112C148.475 175.344 148.73 173.767 149.242 172.382C149.76 170.99 150.485 169.811 151.415 168.845C152.345 167.879 153.429 167.144 154.664 166.64C155.9 166.136 157.239 165.884 158.681 165.884C159.916 165.884 161.067 166.065 162.132 166.427C163.198 166.782 164.142 167.286 164.966 167.94C165.797 168.593 166.475 169.371 167.001 170.273C167.527 171.168 167.864 172.155 168.013 173.234H163.326ZM174.767 188H169.824L177.356 166.182H183.301L190.822 188H185.879L180.414 171.168H180.243L174.767 188ZM174.458 179.424H186.135V183.025H174.458V179.424ZM210.8 181.033V171.636H215.338V188H210.981V185.028H210.81C210.441 185.987 209.827 186.757 208.967 187.339C208.115 187.922 207.075 188.213 205.846 188.213C204.752 188.213 203.79 187.964 202.959 187.467C202.128 186.97 201.478 186.263 201.009 185.347C200.548 184.431 200.313 183.334 200.306 182.055V171.636H204.845V181.246C204.852 182.212 205.111 182.975 205.622 183.536C206.134 184.097 206.819 184.378 207.678 184.378C208.225 184.378 208.737 184.254 209.212 184.005C209.688 183.749 210.072 183.373 210.363 182.876C210.661 182.379 210.807 181.764 210.8 181.033ZM223.507 178.54V188H218.968V171.636H223.294V174.523H223.485C223.848 173.572 224.455 172.819 225.307 172.265C226.159 171.704 227.193 171.423 228.407 171.423C229.544 171.423 230.534 171.672 231.38 172.169C232.225 172.666 232.882 173.376 233.35 174.3C233.819 175.216 234.054 176.31 234.054 177.581V188H229.515V178.391C229.522 177.389 229.267 176.608 228.748 176.047C228.23 175.479 227.516 175.195 226.607 175.195C225.996 175.195 225.456 175.326 224.987 175.589C224.526 175.852 224.164 176.235 223.901 176.739C223.645 177.237 223.514 177.837 223.507 178.54ZM246.334 171.636V175.045H236.48V171.636H246.334ZM238.717 167.716H243.255V182.972C243.255 183.391 243.319 183.717 243.447 183.952C243.575 184.179 243.753 184.339 243.98 184.431C244.214 184.523 244.484 184.57 244.79 184.57C245.003 184.57 245.216 184.552 245.429 184.516C245.642 184.474 245.805 184.442 245.919 184.42L246.633 187.798C246.405 187.869 246.086 187.95 245.674 188.043C245.262 188.142 244.761 188.202 244.172 188.224C243.078 188.266 242.119 188.121 241.295 187.787C240.478 187.453 239.843 186.935 239.388 186.232C238.934 185.528 238.71 184.641 238.717 183.568V167.716ZM259.784 181.033V171.636H264.323V188H259.965V185.028H259.795C259.426 185.987 258.811 186.757 257.952 187.339C257.1 187.922 256.059 188.213 254.83 188.213C253.737 188.213 252.774 187.964 251.943 187.467C251.112 186.97 250.462 186.263 249.994 185.347C249.532 184.431 249.298 183.334 249.291 182.055V171.636H253.829V181.246C253.836 182.212 254.095 182.975 254.607 183.536C255.118 184.097 255.803 184.378 256.663 184.378C257.21 184.378 257.721 184.254 258.197 184.005C258.673 183.749 259.056 183.373 259.347 182.876C259.646 182.379 259.791 181.764 259.784 181.033ZM272.065 183.291L272.076 177.847H272.736L277.978 171.636H283.187L276.145 179.861H275.069L272.065 183.291ZM267.953 188V166.182H272.491V188H267.953ZM278.18 188L273.365 180.873L276.39 177.666L283.496 188H278.18ZM292.442 188V166.182H301.05C302.705 166.182 304.115 166.498 305.28 167.13C306.444 167.755 307.332 168.625 307.943 169.74C308.561 170.848 308.87 172.126 308.87 173.575C308.87 175.024 308.557 176.303 307.932 177.411C307.307 178.518 306.402 179.381 305.216 179.999C304.037 180.617 302.609 180.926 300.933 180.926H295.446V177.229H300.187C301.075 177.229 301.807 177.077 302.382 176.771C302.964 176.459 303.397 176.029 303.682 175.482C303.973 174.928 304.118 174.293 304.118 173.575C304.118 172.851 303.973 172.219 303.682 171.679C303.397 171.132 302.964 170.71 302.382 170.411C301.799 170.106 301.061 169.953 300.166 169.953H297.055V188H292.442ZM318.975 188.32C317.291 188.32 315.842 187.979 314.628 187.297C313.421 186.608 312.49 185.635 311.837 184.378C311.183 183.114 310.857 181.619 310.857 179.893C310.857 178.21 311.183 176.732 311.837 175.461C312.49 174.19 313.41 173.199 314.596 172.489C315.789 171.778 317.188 171.423 318.793 171.423C319.873 171.423 320.878 171.597 321.808 171.945C322.746 172.286 323.563 172.801 324.259 173.49C324.962 174.179 325.509 175.045 325.899 176.089C326.29 177.126 326.485 178.341 326.485 179.733V180.979H312.668V178.167H322.213C322.213 177.513 322.071 176.935 321.787 176.43C321.503 175.926 321.109 175.532 320.604 175.248C320.107 174.957 319.528 174.811 318.868 174.811C318.179 174.811 317.568 174.971 317.036 175.29C316.51 175.603 316.098 176.026 315.8 176.558C315.502 177.084 315.349 177.67 315.342 178.316V180.99C315.342 181.8 315.491 182.499 315.789 183.089C316.095 183.678 316.524 184.133 317.078 184.452C317.632 184.772 318.289 184.932 319.049 184.932C319.553 184.932 320.015 184.861 320.434 184.719C320.853 184.577 321.212 184.364 321.51 184.08C321.808 183.795 322.036 183.447 322.192 183.036L326.389 183.312C326.176 184.321 325.739 185.202 325.079 185.955C324.426 186.7 323.58 187.283 322.543 187.702C321.514 188.114 320.324 188.32 318.975 188.32ZM333.985 178.54V188H329.447V171.636H333.772V174.523H333.964C334.326 173.572 334.933 172.819 335.786 172.265C336.638 171.704 337.671 171.423 338.886 171.423C340.022 171.423 341.013 171.672 341.858 172.169C342.703 172.666 343.36 173.376 343.829 174.3C344.298 175.216 344.532 176.31 344.532 177.581V188H339.994V178.391C340.001 177.389 339.745 176.608 339.227 176.047C338.708 175.479 337.994 175.195 337.085 175.195C336.475 175.195 335.935 175.326 335.466 175.589C335.004 175.852 334.642 176.235 334.379 176.739C334.124 177.237 333.992 177.837 333.985 178.54ZM350.325 194.136C349.75 194.136 349.21 194.09 348.706 193.998C348.208 193.913 347.796 193.803 347.47 193.668L348.492 190.28C349.025 190.443 349.505 190.532 349.931 190.546C350.364 190.56 350.737 190.461 351.049 190.248C351.369 190.035 351.628 189.673 351.827 189.161L352.093 188.469L346.223 171.636H350.996L354.384 183.653H354.554L357.974 171.636H362.779L356.419 189.768C356.113 190.649 355.698 191.416 355.172 192.07C354.654 192.73 353.997 193.238 353.201 193.593C352.406 193.955 351.447 194.136 350.325 194.136ZM369.328 188.309C368.284 188.309 367.353 188.128 366.537 187.766C365.72 187.396 365.074 186.853 364.598 186.136C364.129 185.411 363.895 184.509 363.895 183.43C363.895 182.521 364.062 181.757 364.395 181.139C364.729 180.521 365.184 180.024 365.759 179.648C366.334 179.271 366.988 178.987 367.719 178.795C368.458 178.604 369.232 178.469 370.042 178.391C370.993 178.291 371.76 178.199 372.343 178.114C372.925 178.021 373.348 177.886 373.611 177.709C373.873 177.531 374.005 177.268 374.005 176.92V176.857C374.005 176.182 373.792 175.66 373.366 175.29C372.946 174.921 372.35 174.737 371.576 174.737C370.759 174.737 370.109 174.918 369.626 175.28C369.143 175.635 368.824 176.082 368.667 176.622L364.47 176.281C364.683 175.287 365.102 174.428 365.727 173.703C366.352 172.972 367.158 172.411 368.145 172.02C369.14 171.622 370.29 171.423 371.597 171.423C372.506 171.423 373.376 171.53 374.207 171.743C375.045 171.956 375.787 172.286 376.434 172.734C377.087 173.181 377.602 173.756 377.978 174.46C378.355 175.156 378.543 175.99 378.543 176.963V188H374.239V185.731H374.111C373.848 186.242 373.497 186.693 373.057 187.084C372.616 187.467 372.087 187.769 371.469 187.989C370.851 188.202 370.138 188.309 369.328 188.309ZM370.628 185.177C371.295 185.177 371.885 185.045 372.396 184.783C372.907 184.513 373.309 184.151 373.6 183.696C373.891 183.241 374.037 182.727 374.037 182.151V180.415C373.895 180.507 373.699 180.592 373.451 180.67C373.209 180.741 372.936 180.809 372.63 180.873C372.325 180.93 372.02 180.983 371.714 181.033C371.409 181.075 371.132 181.114 370.883 181.15C370.351 181.228 369.885 181.352 369.488 181.523C369.09 181.693 368.781 181.924 368.561 182.215C368.341 182.499 368.231 182.854 368.231 183.281C368.231 183.898 368.454 184.371 368.902 184.697C369.356 185.017 369.932 185.177 370.628 185.177ZM386.176 183.291L386.187 177.847H386.847L392.089 171.636H397.298L390.256 179.861H389.18L386.176 183.291ZM382.064 188V166.182H386.602V188H382.064ZM392.291 188L387.476 180.873L390.502 177.666L397.607 188H392.291ZM399.525 188V171.636H404.063V188H399.525ZM401.805 169.527C401.13 169.527 400.551 169.303 400.068 168.856C399.592 168.401 399.354 167.858 399.354 167.226C399.354 166.601 399.592 166.065 400.068 165.617C400.551 165.163 401.13 164.935 401.805 164.935C402.479 164.935 403.055 165.163 403.531 165.617C404.014 166.065 404.255 166.601 404.255 167.226C404.255 167.858 404.014 168.401 403.531 168.856C403.055 169.303 402.479 169.527 401.805 169.527ZM416.403 171.636V175.045H406.548V171.636H416.403ZM408.785 167.716H413.324V182.972C413.324 183.391 413.388 183.717 413.516 183.952C413.643 184.179 413.821 184.339 414.048 184.431C414.283 184.523 414.552 184.57 414.858 184.57C415.071 184.57 415.284 184.552 415.497 184.516C415.71 184.474 415.873 184.442 415.987 184.42L416.701 187.798C416.474 187.869 416.154 187.95 415.742 188.043C415.33 188.142 414.829 188.202 414.24 188.224C413.146 188.266 412.187 188.121 411.364 187.787C410.547 187.453 409.911 186.935 409.457 186.232C409.002 185.528 408.778 184.641 408.785 183.568V167.716ZM134.283 202.182H138.896V216.351C138.896 217.942 138.516 219.334 137.756 220.527C137.003 221.72 135.949 222.651 134.592 223.318C133.235 223.979 131.655 224.309 129.851 224.309C128.04 224.309 126.456 223.979 125.1 223.318C123.743 222.651 122.689 221.72 121.936 220.527C121.183 219.334 120.806 217.942 120.806 216.351V202.182H125.419V215.957C125.419 216.788 125.6 217.526 125.963 218.173C126.332 218.819 126.85 219.327 127.518 219.696C128.186 220.065 128.963 220.25 129.851 220.25C130.746 220.25 131.524 220.065 132.184 219.696C132.852 219.327 133.367 218.819 133.729 218.173C134.098 217.526 134.283 216.788 134.283 215.957V202.182ZM142.606 224V207.636H146.931V210.523H147.123C147.464 209.565 148.032 208.808 148.828 208.254C149.623 207.7 150.575 207.423 151.683 207.423C152.805 207.423 153.76 207.704 154.548 208.265C155.337 208.819 155.862 209.572 156.125 210.523H156.296C156.629 209.586 157.233 208.837 158.107 208.276C158.987 207.707 160.028 207.423 161.228 207.423C162.755 207.423 163.994 207.91 164.946 208.883C165.905 209.849 166.384 211.219 166.384 212.995V224H161.857V213.89C161.857 212.981 161.615 212.299 161.132 211.844C160.649 211.39 160.046 211.163 159.321 211.163C158.497 211.163 157.855 211.425 157.393 211.951C156.931 212.469 156.7 213.155 156.7 214.007V224H152.301V213.794C152.301 212.991 152.07 212.352 151.608 211.876C151.154 211.401 150.553 211.163 149.808 211.163C149.303 211.163 148.849 211.29 148.444 211.546C148.046 211.795 147.73 212.146 147.496 212.601C147.262 213.048 147.144 213.574 147.144 214.178V224H142.606ZM180.463 217.033V207.636H185.001V224H180.644V221.028H180.474C180.104 221.987 179.49 222.757 178.631 223.339C177.778 223.922 176.738 224.213 175.509 224.213C174.415 224.213 173.453 223.964 172.622 223.467C171.791 222.97 171.141 222.263 170.672 221.347C170.211 220.431 169.976 219.334 169.969 218.055V207.636H174.508V217.246C174.515 218.212 174.774 218.975 175.285 219.536C175.797 220.097 176.482 220.378 177.341 220.378C177.888 220.378 178.4 220.254 178.876 220.005C179.351 219.749 179.735 219.373 180.026 218.876C180.324 218.379 180.47 217.764 180.463 217.033ZM188.631 224V207.636H192.957V210.523H193.148C193.489 209.565 194.058 208.808 194.853 208.254C195.648 207.7 196.6 207.423 197.708 207.423C198.83 207.423 199.786 207.704 200.574 208.265C201.362 208.819 201.888 209.572 202.151 210.523H202.321C202.655 209.586 203.259 208.837 204.132 208.276C205.013 207.707 206.053 207.423 207.254 207.423C208.781 207.423 210.02 207.91 210.972 208.883C211.93 209.849 212.41 211.219 212.41 212.995V224H207.882V213.89C207.882 212.981 207.641 212.299 207.158 211.844C206.675 211.39 206.071 211.163 205.347 211.163C204.523 211.163 203.88 211.425 203.418 211.951C202.957 212.469 202.726 213.155 202.726 214.007V224H198.326V213.794C198.326 212.991 198.095 212.352 197.634 211.876C197.179 211.401 196.579 211.163 195.833 211.163C195.329 211.163 194.874 211.29 194.469 211.546C194.072 211.795 193.756 212.146 193.521 212.601C193.287 213.048 193.17 213.574 193.17 214.178V224H188.631ZM218.647 224.277C217.944 224.277 217.341 224.028 216.836 223.531C216.339 223.027 216.091 222.423 216.091 221.72C216.091 221.024 216.339 220.428 216.836 219.93C217.341 219.433 217.944 219.185 218.647 219.185C219.329 219.185 219.926 219.433 220.437 219.93C220.949 220.428 221.204 221.024 221.204 221.72C221.204 222.189 221.083 222.619 220.842 223.009C220.608 223.393 220.299 223.702 219.915 223.936C219.532 224.163 219.109 224.277 218.647 224.277ZM218.647 212.814C217.944 212.814 217.341 212.565 216.836 212.068C216.339 211.571 216.091 210.967 216.091 210.257C216.091 209.561 216.339 208.968 216.836 208.478C217.341 207.981 217.944 207.732 218.647 207.732C219.329 207.732 219.926 207.981 220.437 208.478C220.949 208.968 221.204 209.561 221.204 210.257C221.204 210.733 221.083 211.166 220.842 211.557C220.608 211.94 220.299 212.246 219.915 212.473C219.532 212.7 219.109 212.814 218.647 212.814ZM231.959 224V202.182H240.567C242.222 202.182 243.631 202.498 244.796 203.13C245.961 203.755 246.849 204.625 247.46 205.74C248.077 206.848 248.386 208.126 248.386 209.575C248.386 211.024 248.074 212.303 247.449 213.411C246.824 214.518 245.918 215.381 244.732 215.999C243.553 216.617 242.126 216.926 240.45 216.926H234.963V213.229H239.704C240.592 213.229 241.323 213.077 241.898 212.771C242.481 212.459 242.914 212.029 243.198 211.482C243.489 210.928 243.635 210.293 243.635 209.575C243.635 208.851 243.489 208.219 243.198 207.679C242.914 207.132 242.481 206.71 241.898 206.411C241.316 206.106 240.577 205.953 239.683 205.953H236.572V224H231.959ZM258.491 224.32C256.808 224.32 255.359 223.979 254.145 223.297C252.937 222.608 252.007 221.635 251.353 220.378C250.7 219.114 250.373 217.619 250.373 215.893C250.373 214.21 250.7 212.732 251.353 211.461C252.007 210.19 252.926 209.199 254.113 208.489C255.306 207.778 256.705 207.423 258.31 207.423C259.39 207.423 260.395 207.597 261.325 207.945C262.262 208.286 263.079 208.801 263.775 209.49C264.478 210.179 265.025 211.045 265.416 212.089C265.806 213.126 266.002 214.341 266.002 215.733V216.979H252.184V214.167H261.73C261.73 213.513 261.588 212.935 261.304 212.43C261.02 211.926 260.625 211.532 260.121 211.248C259.624 210.957 259.045 210.811 258.385 210.811C257.696 210.811 257.085 210.971 256.552 211.29C256.027 211.603 255.615 212.026 255.316 212.558C255.018 213.084 254.865 213.67 254.858 214.316V216.99C254.858 217.8 255.007 218.499 255.306 219.089C255.611 219.678 256.041 220.133 256.595 220.452C257.149 220.772 257.806 220.932 258.566 220.932C259.07 220.932 259.532 220.861 259.951 220.719C260.37 220.577 260.728 220.364 261.027 220.08C261.325 219.795 261.552 219.447 261.708 219.036L265.906 219.312C265.693 220.321 265.256 221.202 264.596 221.955C263.942 222.7 263.097 223.283 262.06 223.702C261.03 224.114 259.841 224.32 258.491 224.32ZM273.502 214.54V224H268.963V207.636H273.289V210.523H273.48C273.843 209.572 274.45 208.819 275.302 208.265C276.154 207.704 277.188 207.423 278.402 207.423C279.539 207.423 280.529 207.672 281.375 208.169C282.22 208.666 282.877 209.376 283.346 210.3C283.814 211.216 284.049 212.31 284.049 213.581V224H279.51V214.391C279.517 213.389 279.262 212.608 278.743 212.047C278.225 211.479 277.511 211.195 276.602 211.195C275.991 211.195 275.451 211.326 274.983 211.589C274.521 211.852 274.159 212.235 273.896 212.739C273.64 213.237 273.509 213.837 273.502 214.54ZM289.841 230.136C289.266 230.136 288.726 230.09 288.222 229.998C287.725 229.913 287.313 229.803 286.986 229.668L288.009 226.28C288.542 226.443 289.021 226.532 289.447 226.546C289.881 226.56 290.253 226.461 290.566 226.248C290.885 226.035 291.145 225.673 291.344 225.161L291.61 224.469L285.74 207.636H290.513L293.9 219.653H294.071L297.491 207.636H302.295L295.935 225.768C295.63 226.649 295.214 227.416 294.689 228.07C294.17 228.73 293.513 229.238 292.718 229.593C291.922 229.955 290.964 230.136 289.841 230.136ZM315.111 217.033V207.636H319.65V224H315.292V221.028H315.122C314.753 221.987 314.138 222.757 313.279 223.339C312.427 223.922 311.386 224.213 310.157 224.213C309.064 224.213 308.101 223.964 307.27 223.467C306.439 222.97 305.79 222.263 305.321 221.347C304.859 220.431 304.625 219.334 304.618 218.055V207.636H309.156V217.246C309.163 218.212 309.422 218.975 309.934 219.536C310.445 220.097 311.131 220.378 311.99 220.378C312.537 220.378 313.048 220.254 313.524 220.005C314 219.749 314.383 219.373 314.675 218.876C314.973 218.379 315.118 217.764 315.111 217.033ZM327.818 202.182V224H323.28V202.182H327.818ZM341.947 217.033V207.636H346.486V224H342.128V221.028H341.958C341.589 221.987 340.974 222.757 340.115 223.339C339.263 223.922 338.222 224.213 336.993 224.213C335.9 224.213 334.937 223.964 334.106 223.467C333.275 222.97 332.626 222.263 332.157 221.347C331.695 220.431 331.461 219.334 331.454 218.055V207.636H335.992V217.246C335.999 218.212 336.258 218.975 336.77 219.536C337.281 220.097 337.966 220.378 338.826 220.378C339.373 220.378 339.884 220.254 340.36 220.005C340.836 219.749 341.219 219.373 341.51 218.876C341.809 218.379 341.954 217.764 341.947 217.033ZM354.654 214.54V224H350.116V202.182H354.526V210.523H354.718C355.087 209.558 355.684 208.801 356.508 208.254C357.332 207.7 358.365 207.423 359.608 207.423C360.744 207.423 361.735 207.672 362.58 208.169C363.433 208.659 364.093 209.366 364.562 210.289C365.038 211.205 365.272 212.303 365.265 213.581V224H360.727V214.391C360.734 213.382 360.478 212.597 359.96 212.036C359.448 211.475 358.731 211.195 357.808 211.195C357.19 211.195 356.643 211.326 356.167 211.589C355.698 211.852 355.329 212.235 355.059 212.739C354.796 213.237 354.661 213.837 354.654 214.54ZM373.503 224.309C372.459 224.309 371.528 224.128 370.711 223.766C369.895 223.396 369.248 222.853 368.773 222.136C368.304 221.411 368.069 220.509 368.069 219.43C368.069 218.521 368.236 217.757 368.57 217.139C368.904 216.521 369.358 216.024 369.934 215.648C370.509 215.271 371.162 214.987 371.894 214.795C372.633 214.604 373.407 214.469 374.216 214.391C375.168 214.291 375.935 214.199 376.518 214.114C377.1 214.021 377.523 213.886 377.785 213.709C378.048 213.531 378.18 213.268 378.18 212.92V212.857C378.18 212.182 377.966 211.66 377.54 211.29C377.121 210.921 376.525 210.737 375.751 210.737C374.934 210.737 374.284 210.918 373.801 211.28C373.318 211.635 372.998 212.082 372.842 212.622L368.645 212.281C368.858 211.287 369.277 210.428 369.902 209.703C370.527 208.972 371.333 208.411 372.32 208.02C373.314 207.622 374.465 207.423 375.772 207.423C376.681 207.423 377.551 207.53 378.382 207.743C379.22 207.956 379.962 208.286 380.608 208.734C381.262 209.181 381.777 209.756 382.153 210.46C382.53 211.156 382.718 211.99 382.718 212.963V224H378.414V221.731H378.286C378.023 222.242 377.672 222.693 377.231 223.084C376.791 223.467 376.262 223.769 375.644 223.989C375.026 224.202 374.312 224.309 373.503 224.309ZM374.802 221.177C375.47 221.177 376.059 221.045 376.571 220.783C377.082 220.513 377.483 220.151 377.775 219.696C378.066 219.241 378.211 218.727 378.211 218.151V216.415C378.069 216.507 377.874 216.592 377.626 216.67C377.384 216.741 377.111 216.809 376.805 216.873C376.5 216.93 376.194 216.983 375.889 217.033C375.584 217.075 375.307 217.114 375.058 217.15C374.525 217.228 374.06 217.352 373.662 217.523C373.265 217.693 372.956 217.924 372.736 218.215C372.515 218.499 372.405 218.854 372.405 219.281C372.405 219.898 372.629 220.371 373.077 220.697C373.531 221.017 374.106 221.177 374.802 221.177ZM390.777 214.54V224H386.239V207.636H390.564V210.523H390.756C391.118 209.572 391.725 208.819 392.578 208.265C393.43 207.704 394.463 207.423 395.678 207.423C396.814 207.423 397.805 207.672 398.65 208.169C399.495 208.666 400.152 209.376 400.621 210.3C401.09 211.216 401.324 212.31 401.324 213.581V224H396.786V214.391C396.793 213.389 396.537 212.608 396.019 212.047C395.5 211.479 394.786 211.195 393.877 211.195C393.267 211.195 392.727 211.326 392.258 211.589C391.796 211.852 391.434 212.235 391.171 212.739C390.916 213.237 390.784 213.837 390.777 214.54ZM65.1278 260V238.182H69.7407V247.802H70.0283L77.8799 238.182H83.409L75.3124 247.951L83.5049 260H77.9864L72.0099 251.03L69.7407 253.8V260H65.1278ZM91.9823 260.32C90.2991 260.32 88.8502 259.979 87.6357 259.297C86.4284 258.608 85.498 257.635 84.8445 256.378C84.1911 255.114 83.8644 253.619 83.8644 251.893C83.8644 250.21 84.1911 248.732 84.8445 247.461C85.498 246.19 86.4177 245.199 87.6038 244.489C88.797 243.778 90.1961 243.423 91.8012 243.423C92.8808 243.423 93.8857 243.597 94.8161 243.945C95.7536 244.286 96.5704 244.801 97.2664 245.49C97.9695 246.179 98.5164 247.045 98.907 248.089C99.2977 249.126 99.493 250.341 99.493 251.733V252.979H85.6755V250.167H95.221C95.221 249.513 95.0789 248.935 94.7948 248.43C94.5107 247.926 94.1166 247.532 93.6123 247.248C93.1151 246.957 92.5363 246.811 91.8758 246.811C91.1869 246.811 90.5761 246.971 90.0434 247.29C89.5178 247.603 89.1059 248.026 88.8076 248.558C88.5093 249.084 88.3566 249.67 88.3495 250.316V252.99C88.3495 253.8 88.4987 254.499 88.797 255.089C89.1024 255.678 89.532 256.133 90.086 256.452C90.64 256.772 91.297 256.932 92.0569 256.932C92.5612 256.932 93.0228 256.861 93.4419 256.719C93.8609 256.577 94.2195 256.364 94.5178 256.08C94.8161 255.795 95.0434 255.447 95.1997 255.036L99.3971 255.312C99.184 256.321 98.7472 257.202 98.0867 257.955C97.4333 258.7 96.5882 259.283 95.5512 259.702C94.5214 260.114 93.3318 260.32 91.9823 260.32ZM116.07 248.303L111.915 248.558C111.844 248.203 111.691 247.884 111.457 247.599C111.222 247.308 110.913 247.077 110.53 246.907C110.153 246.729 109.703 246.641 109.177 246.641C108.474 246.641 107.881 246.79 107.398 247.088C106.915 247.379 106.673 247.77 106.673 248.26C106.673 248.651 106.83 248.981 107.142 249.251C107.455 249.521 107.991 249.737 108.751 249.901L111.712 250.497C113.303 250.824 114.489 251.349 115.271 252.074C116.052 252.798 116.443 253.75 116.443 254.929C116.443 256.001 116.127 256.942 115.494 257.752C114.869 258.562 114.01 259.194 112.916 259.648C111.83 260.096 110.576 260.32 109.156 260.32C106.989 260.32 105.264 259.869 103.978 258.967C102.7 258.058 101.95 256.822 101.73 255.259L106.194 255.025C106.329 255.685 106.656 256.19 107.174 256.538C107.693 256.879 108.357 257.049 109.166 257.049C109.962 257.049 110.601 256.896 111.084 256.591C111.574 256.278 111.823 255.877 111.83 255.387C111.823 254.975 111.649 254.638 111.308 254.375C110.967 254.105 110.441 253.899 109.731 253.757L106.897 253.192C105.299 252.873 104.109 252.319 103.328 251.531C102.554 250.742 102.167 249.737 102.167 248.516C102.167 247.464 102.451 246.559 103.019 245.799C103.595 245.039 104.401 244.453 105.438 244.041C106.482 243.629 107.703 243.423 109.102 243.423C111.169 243.423 112.796 243.86 113.982 244.734C115.175 245.607 115.871 246.797 116.07 248.303ZM126.758 260.32C125.074 260.32 123.626 259.979 122.411 259.297C121.204 258.608 120.273 257.635 119.62 256.378C118.967 255.114 118.64 253.619 118.64 251.893C118.64 250.21 118.967 248.732 119.62 247.461C120.273 246.19 121.193 245.199 122.379 244.489C123.572 243.778 124.972 243.423 126.577 243.423C127.656 243.423 128.661 243.597 129.592 243.945C130.529 244.286 131.346 244.801 132.042 245.49C132.745 246.179 133.292 247.045 133.682 248.089C134.073 249.126 134.268 250.341 134.268 251.733V252.979H120.451V250.167H129.996C129.996 249.513 129.854 248.935 129.57 248.43C129.286 247.926 128.892 247.532 128.388 247.248C127.891 246.957 127.312 246.811 126.651 246.811C125.962 246.811 125.351 246.971 124.819 247.29C124.293 247.603 123.881 248.026 123.583 248.558C123.285 249.084 123.132 249.67 123.125 250.316V252.99C123.125 253.8 123.274 254.499 123.572 255.089C123.878 255.678 124.307 256.133 124.861 256.452C125.415 256.772 126.072 256.932 126.832 256.932C127.337 256.932 127.798 256.861 128.217 256.719C128.636 256.577 128.995 256.364 129.293 256.08C129.592 255.795 129.819 255.447 129.975 255.036L134.172 255.312C133.959 256.321 133.523 257.202 132.862 257.955C132.209 258.7 131.364 259.283 130.327 259.702C129.297 260.114 128.107 260.32 126.758 260.32ZM141.768 250.54V260H137.23V238.182H141.641V246.523H141.832C142.202 245.558 142.798 244.801 143.622 244.254C144.446 243.7 145.479 243.423 146.722 243.423C147.859 243.423 148.849 243.672 149.695 244.169C150.547 244.659 151.207 245.366 151.676 246.289C152.152 247.205 152.386 248.303 152.379 249.581V260H147.841V250.391C147.848 249.382 147.592 248.597 147.074 248.036C146.562 247.475 145.845 247.195 144.922 247.195C144.304 247.195 143.757 247.326 143.281 247.589C142.812 247.852 142.443 248.235 142.173 248.739C141.91 249.237 141.775 249.837 141.768 250.54ZM160.617 260.309C159.573 260.309 158.642 260.128 157.826 259.766C157.009 259.396 156.363 258.853 155.887 258.136C155.418 257.411 155.184 256.509 155.184 255.43C155.184 254.521 155.351 253.757 155.684 253.139C156.018 252.521 156.473 252.024 157.048 251.648C157.623 251.271 158.277 250.987 159.008 250.795C159.747 250.604 160.521 250.469 161.331 250.391C162.282 250.291 163.049 250.199 163.632 250.114C164.214 250.021 164.637 249.886 164.9 249.709C165.162 249.531 165.294 249.268 165.294 248.92V248.857C165.294 248.182 165.081 247.66 164.655 247.29C164.236 246.921 163.639 246.737 162.865 246.737C162.048 246.737 161.398 246.918 160.915 247.28C160.432 247.635 160.113 248.082 159.956 248.622L155.759 248.281C155.972 247.287 156.391 246.428 157.016 245.703C157.641 244.972 158.447 244.411 159.434 244.02C160.429 243.622 161.579 243.423 162.886 243.423C163.795 243.423 164.665 243.53 165.496 243.743C166.334 243.956 167.076 244.286 167.723 244.734C168.376 245.181 168.891 245.756 169.267 246.46C169.644 247.156 169.832 247.99 169.832 248.963V260H165.528V257.731H165.4C165.138 258.242 164.786 258.693 164.346 259.084C163.905 259.467 163.376 259.769 162.758 259.989C162.14 260.202 161.427 260.309 160.617 260.309ZM161.917 257.177C162.584 257.177 163.174 257.045 163.685 256.783C164.196 256.513 164.598 256.151 164.889 255.696C165.18 255.241 165.326 254.727 165.326 254.151V252.415C165.184 252.507 164.988 252.592 164.74 252.67C164.498 252.741 164.225 252.809 163.919 252.873C163.614 252.93 163.309 252.983 163.003 253.033C162.698 253.075 162.421 253.114 162.172 253.15C161.64 253.228 161.174 253.352 160.777 253.523C160.379 253.693 160.07 253.924 159.85 254.215C159.63 254.499 159.52 254.854 159.52 255.281C159.52 255.898 159.743 256.371 160.191 256.697C160.645 257.017 161.221 257.177 161.917 257.177ZM182.057 243.636V247.045H172.203V243.636H182.057ZM174.44 239.716H178.978V254.972C178.978 255.391 179.042 255.717 179.17 255.952C179.298 256.179 179.475 256.339 179.703 256.431C179.937 256.523 180.207 256.57 180.512 256.57C180.725 256.57 180.938 256.552 181.151 256.516C181.364 256.474 181.528 256.442 181.641 256.42L182.355 259.798C182.128 259.869 181.808 259.95 181.396 260.043C180.984 260.142 180.484 260.202 179.894 260.224C178.801 260.266 177.842 260.121 177.018 259.787C176.201 259.453 175.565 258.935 175.111 258.232C174.656 257.528 174.433 256.641 174.44 255.568V239.716ZM189.679 260.309C188.635 260.309 187.705 260.128 186.888 259.766C186.071 259.396 185.425 258.853 184.949 258.136C184.481 257.411 184.246 256.509 184.246 255.43C184.246 254.521 184.413 253.757 184.747 253.139C185.081 252.521 185.535 252.024 186.111 251.648C186.686 251.271 187.339 250.987 188.071 250.795C188.809 250.604 189.584 250.469 190.393 250.391C191.345 250.291 192.112 250.199 192.694 250.114C193.277 250.021 193.699 249.886 193.962 249.709C194.225 249.531 194.356 249.268 194.356 248.92V248.857C194.356 248.182 194.143 247.66 193.717 247.29C193.298 246.921 192.701 246.737 191.927 246.737C191.111 246.737 190.461 246.918 189.978 247.28C189.495 247.635 189.175 248.082 189.019 248.622L184.821 248.281C185.035 247.287 185.454 246.428 186.079 245.703C186.704 244.972 187.51 244.411 188.497 244.02C189.491 243.622 190.642 243.423 191.949 243.423C192.858 243.423 193.728 243.53 194.559 243.743C195.397 243.956 196.139 244.286 196.785 244.734C197.439 245.181 197.954 245.756 198.33 246.46C198.706 247.156 198.895 247.99 198.895 248.963V260H194.591V257.731H194.463C194.2 258.242 193.848 258.693 193.408 259.084C192.968 259.467 192.439 259.769 191.821 259.989C191.203 260.202 190.489 260.309 189.679 260.309ZM190.979 257.177C191.647 257.177 192.236 257.045 192.748 256.783C193.259 256.513 193.66 256.151 193.951 255.696C194.243 255.241 194.388 254.727 194.388 254.151V252.415C194.246 252.507 194.051 252.592 193.802 252.67C193.561 252.741 193.287 252.809 192.982 252.873C192.677 252.93 192.371 252.983 192.066 253.033C191.76 253.075 191.483 253.114 191.235 253.15C190.702 253.228 190.237 253.352 189.839 253.523C189.441 253.693 189.133 253.924 188.912 254.215C188.692 254.499 188.582 254.854 188.582 255.281C188.582 255.898 188.806 256.371 189.253 256.697C189.708 257.017 190.283 257.177 190.979 257.177ZM206.954 250.54V260H202.416V243.636H206.741V246.523H206.933C207.295 245.572 207.902 244.819 208.754 244.265C209.607 243.704 210.64 243.423 211.854 243.423C212.991 243.423 213.982 243.672 214.827 244.169C215.672 244.666 216.329 245.376 216.798 246.3C217.266 247.216 217.501 248.31 217.501 249.581V260H212.962V250.391C212.97 249.389 212.714 248.608 212.195 248.047C211.677 247.479 210.963 247.195 210.054 247.195C209.443 247.195 208.903 247.326 208.435 247.589C207.973 247.852 207.611 248.235 207.348 248.739C207.092 249.237 206.961 249.837 206.954 250.54ZM228.106 260V238.182H236.842C238.447 238.182 239.786 238.42 240.858 238.896C241.931 239.371 242.737 240.032 243.277 240.877C243.816 241.715 244.086 242.681 244.086 243.775C244.086 244.627 243.916 245.376 243.575 246.023C243.234 246.662 242.765 247.187 242.169 247.599C241.579 248.004 240.905 248.292 240.145 248.462V248.675C240.976 248.711 241.753 248.945 242.478 249.379C243.209 249.812 243.802 250.419 244.257 251.2C244.711 251.974 244.939 252.898 244.939 253.97C244.939 255.128 244.651 256.161 244.076 257.07C243.508 257.972 242.666 258.686 241.551 259.212C240.436 259.737 239.062 260 237.428 260H228.106ZM232.719 256.229H236.48C237.765 256.229 238.703 255.984 239.292 255.494C239.882 254.996 240.177 254.336 240.177 253.512C240.177 252.908 240.031 252.376 239.74 251.914C239.449 251.452 239.033 251.09 238.493 250.827C237.961 250.565 237.325 250.433 236.586 250.433H232.719V256.229ZM232.719 247.312H236.139C236.771 247.312 237.332 247.202 237.822 246.982C238.319 246.754 238.71 246.435 238.994 246.023C239.285 245.611 239.431 245.117 239.431 244.542C239.431 243.754 239.15 243.118 238.589 242.635C238.035 242.152 237.247 241.911 236.224 241.911H232.719V247.312ZM255.312 260.32C253.629 260.32 252.18 259.979 250.966 259.297C249.758 258.608 248.828 257.635 248.175 256.378C247.521 255.114 247.195 253.619 247.195 251.893C247.195 250.21 247.521 248.732 248.175 247.461C248.828 246.19 249.748 245.199 250.934 244.489C252.127 243.778 253.526 243.423 255.131 243.423C256.211 243.423 257.216 243.597 258.146 243.945C259.084 244.286 259.9 244.801 260.597 245.49C261.3 246.179 261.847 247.045 262.237 248.089C262.628 249.126 262.823 250.341 262.823 251.733V252.979H249.006V250.167H258.551C258.551 249.513 258.409 248.935 258.125 248.43C257.841 247.926 257.447 247.532 256.942 247.248C256.445 246.957 255.866 246.811 255.206 246.811C254.517 246.811 253.906 246.971 253.373 247.29C252.848 247.603 252.436 248.026 252.138 248.558C251.839 249.084 251.687 249.67 251.68 250.316V252.99C251.68 253.8 251.829 254.499 252.127 255.089C252.432 255.678 252.862 256.133 253.416 256.452C253.97 256.772 254.627 256.932 255.387 256.932C255.891 256.932 256.353 256.861 256.772 256.719C257.191 256.577 257.55 256.364 257.848 256.08C258.146 255.795 258.373 255.447 258.53 255.036L262.727 255.312C262.514 256.321 262.077 257.202 261.417 257.955C260.763 258.7 259.918 259.283 258.881 259.702C257.851 260.114 256.662 260.32 255.312 260.32ZM265.785 260V243.636H270.185V246.491H270.355C270.653 245.476 271.154 244.709 271.857 244.19C272.56 243.665 273.37 243.402 274.286 243.402C274.513 243.402 274.758 243.416 275.021 243.445C275.284 243.473 275.515 243.512 275.714 243.562V247.589C275.501 247.525 275.206 247.468 274.829 247.418C274.453 247.369 274.109 247.344 273.796 247.344C273.128 247.344 272.532 247.489 272.006 247.781C271.488 248.065 271.076 248.462 270.771 248.974C270.472 249.485 270.323 250.075 270.323 250.742V260H265.785ZM278.145 260V238.182H282.684V246.385H282.822C283.021 245.945 283.309 245.497 283.685 245.043C284.069 244.581 284.566 244.197 285.177 243.892C285.794 243.58 286.562 243.423 287.478 243.423C288.671 243.423 289.772 243.736 290.78 244.361C291.789 244.979 292.595 245.913 293.199 247.163C293.802 248.406 294.104 249.964 294.104 251.839C294.104 253.665 293.809 255.206 293.22 256.463C292.638 257.713 291.842 258.661 290.834 259.308C289.832 259.947 288.71 260.266 287.467 260.266C286.586 260.266 285.837 260.121 285.219 259.83C284.608 259.538 284.108 259.173 283.717 258.732C283.326 258.285 283.028 257.834 282.822 257.379H282.62V260H278.145ZM282.588 251.818C282.588 252.791 282.723 253.64 282.993 254.364C283.263 255.089 283.653 255.653 284.165 256.058C284.676 256.456 285.297 256.655 286.029 256.655C286.767 256.655 287.392 256.452 287.904 256.048C288.415 255.636 288.802 255.067 289.065 254.343C289.335 253.612 289.47 252.77 289.47 251.818C289.47 250.874 289.339 250.043 289.076 249.325C288.813 248.608 288.426 248.047 287.915 247.642C287.403 247.237 286.775 247.035 286.029 247.035C285.29 247.035 284.665 247.23 284.154 247.621C283.65 248.011 283.263 248.565 282.993 249.283C282.723 250 282.588 250.845 282.588 251.818ZM301.799 260.309C300.755 260.309 299.824 260.128 299.007 259.766C298.191 259.396 297.544 258.853 297.068 258.136C296.6 257.411 296.365 256.509 296.365 255.43C296.365 254.521 296.532 253.757 296.866 253.139C297.2 252.521 297.654 252.024 298.23 251.648C298.805 251.271 299.458 250.987 300.19 250.795C300.929 250.604 301.703 250.469 302.512 250.391C303.464 250.291 304.231 250.199 304.813 250.114C305.396 250.021 305.818 249.886 306.081 249.709C306.344 249.531 306.475 249.268 306.475 248.92V248.857C306.475 248.182 306.262 247.66 305.836 247.29C305.417 246.921 304.821 246.737 304.046 246.737C303.23 246.737 302.58 246.918 302.097 247.28C301.614 247.635 301.294 248.082 301.138 248.622L296.941 248.281C297.154 247.287 297.573 246.428 298.198 245.703C298.823 244.972 299.629 244.411 300.616 244.02C301.61 243.622 302.761 243.423 304.068 243.423C304.977 243.423 305.847 243.53 306.678 243.743C307.516 243.956 308.258 244.286 308.904 244.734C309.558 245.181 310.073 245.756 310.449 246.46C310.826 247.156 311.014 247.99 311.014 248.963V260H306.71V257.731H306.582C306.319 258.242 305.968 258.693 305.527 259.084C305.087 259.467 304.558 259.769 303.94 259.989C303.322 260.202 302.608 260.309 301.799 260.309ZM303.098 257.177C303.766 257.177 304.355 257.045 304.867 256.783C305.378 256.513 305.779 256.151 306.071 255.696C306.362 255.241 306.507 254.727 306.507 254.151V252.415C306.365 252.507 306.17 252.592 305.921 252.67C305.68 252.741 305.407 252.809 305.101 252.873C304.796 252.93 304.49 252.983 304.185 253.033C303.88 253.075 303.603 253.114 303.354 253.15C302.821 253.228 302.356 253.352 301.958 253.523C301.561 253.693 301.252 253.924 301.032 254.215C300.811 254.499 300.701 254.854 300.701 255.281C300.701 255.898 300.925 256.371 301.372 256.697C301.827 257.017 302.402 257.177 303.098 257.177ZM328.15 248.303L323.995 248.558C323.924 248.203 323.771 247.884 323.537 247.599C323.302 247.308 322.994 247.077 322.61 246.907C322.234 246.729 321.783 246.641 321.257 246.641C320.554 246.641 319.961 246.79 319.478 247.088C318.995 247.379 318.753 247.77 318.753 248.26C318.753 248.651 318.91 248.981 319.222 249.251C319.535 249.521 320.071 249.737 320.831 249.901L323.793 250.497C325.383 250.824 326.57 251.349 327.351 252.074C328.132 252.798 328.523 253.75 328.523 254.929C328.523 256.001 328.207 256.942 327.574 257.752C326.949 258.562 326.09 259.194 324.996 259.648C323.91 260.096 322.656 260.32 321.236 260.32C319.07 260.32 317.344 259.869 316.058 258.967C314.78 258.058 314.03 256.822 313.81 255.259L318.274 255.025C318.409 255.685 318.736 256.19 319.254 256.538C319.773 256.879 320.437 257.049 321.246 257.049C322.042 257.049 322.681 256.896 323.164 256.591C323.654 256.278 323.903 255.877 323.91 255.387C323.903 254.975 323.729 254.638 323.388 254.375C323.047 254.105 322.521 253.899 321.811 253.757L318.977 253.192C317.379 252.873 316.19 252.319 315.408 251.531C314.634 250.742 314.247 249.737 314.247 248.516C314.247 247.464 314.531 246.559 315.099 245.799C315.675 245.039 316.481 244.453 317.518 244.041C318.562 243.629 319.783 243.423 321.182 243.423C323.249 243.423 324.876 243.86 326.062 244.734C327.255 245.607 327.951 246.797 328.15 248.303ZM331.38 260V243.636H335.919V260H331.38ZM333.66 241.527C332.986 241.527 332.407 241.303 331.924 240.856C331.448 240.401 331.21 239.858 331.21 239.226C331.21 238.601 331.448 238.065 331.924 237.617C332.407 237.163 332.986 236.935 333.66 236.935C334.335 236.935 334.91 237.163 335.386 237.617C335.869 238.065 336.111 238.601 336.111 239.226C336.111 239.858 335.869 240.401 335.386 240.856C334.91 241.303 334.335 241.527 333.66 241.527ZM353.169 248.303L349.014 248.558C348.943 248.203 348.791 247.884 348.556 247.599C348.322 247.308 348.013 247.077 347.63 246.907C347.253 246.729 346.802 246.641 346.277 246.641C345.573 246.641 344.98 246.79 344.497 247.088C344.014 247.379 343.773 247.77 343.773 248.26C343.773 248.651 343.929 248.981 344.242 249.251C344.554 249.521 345.09 249.737 345.85 249.901L348.812 250.497C350.403 250.824 351.589 251.349 352.37 252.074C353.152 252.798 353.542 253.75 353.542 254.929C353.542 256.001 353.226 256.942 352.594 257.752C351.969 258.562 351.11 259.194 350.016 259.648C348.929 260.096 347.676 260.32 346.255 260.32C344.089 260.32 342.363 259.869 341.078 258.967C339.799 258.058 339.05 256.822 338.83 255.259L343.294 255.025C343.429 255.685 343.755 256.19 344.274 256.538C344.792 256.879 345.456 257.049 346.266 257.049C347.061 257.049 347.701 256.896 348.184 256.591C348.674 256.278 348.922 255.877 348.929 255.387C348.922 254.975 348.748 254.638 348.407 254.375C348.066 254.105 347.541 253.899 346.831 253.757L343.997 253.192C342.399 252.873 341.209 252.319 340.428 251.531C339.654 250.742 339.267 249.737 339.267 248.516C339.267 247.464 339.551 246.559 340.119 245.799C340.694 245.039 341.5 244.453 342.537 244.041C343.581 243.629 344.803 243.423 346.202 243.423C348.269 243.423 349.895 243.86 351.081 244.734C352.274 245.607 352.97 246.797 353.169 248.303ZM363.429 260V238.182H368.041V247.184H377.406V238.182H382.008V260H377.406V250.987H368.041V260H363.429ZM393.184 260.32C391.5 260.32 390.051 259.979 388.837 259.297C387.63 258.608 386.699 257.635 386.046 256.378C385.392 255.114 385.066 253.619 385.066 251.893C385.066 250.21 385.392 248.732 386.046 247.461C386.699 246.19 387.619 245.199 388.805 244.489C389.998 243.778 391.397 243.423 393.002 243.423C394.082 243.423 395.087 243.597 396.017 243.945C396.955 244.286 397.772 244.801 398.468 245.49C399.171 246.179 399.718 247.045 400.108 248.089C400.499 249.126 400.694 250.341 400.694 251.733V252.979H386.877V250.167H396.422C396.422 249.513 396.28 248.935 395.996 248.43C395.712 247.926 395.318 247.532 394.813 247.248C394.316 246.957 393.737 246.811 393.077 246.811C392.388 246.811 391.777 246.971 391.245 247.29C390.719 247.603 390.307 248.026 390.009 248.558C389.71 249.084 389.558 249.67 389.551 250.316V252.99C389.551 253.8 389.7 254.499 389.998 255.089C390.304 255.678 390.733 256.133 391.287 256.452C391.841 256.772 392.498 256.932 393.258 256.932C393.762 256.932 394.224 256.861 394.643 256.719C395.062 256.577 395.421 256.364 395.719 256.08C396.017 255.795 396.245 255.447 396.401 255.036L400.598 255.312C400.385 256.321 399.948 257.202 399.288 257.955C398.634 258.7 397.789 259.283 396.752 259.702C395.723 260.114 394.533 260.32 393.184 260.32ZM403.656 260V243.636H408.056V246.491H408.226C408.524 245.476 409.025 244.709 409.728 244.19C410.431 243.665 411.241 243.402 412.157 243.402C412.384 243.402 412.63 243.416 412.892 243.445C413.155 243.473 413.386 243.512 413.585 243.562V247.589C413.372 247.525 413.077 247.468 412.701 247.418C412.324 247.369 411.98 247.344 411.667 247.344C411 247.344 410.403 247.489 409.877 247.781C409.359 248.065 408.947 248.462 408.642 248.974C408.343 249.485 408.194 250.075 408.194 250.742V260H403.656ZM416.016 260V238.182H420.555V246.385H420.693C420.892 245.945 421.18 245.497 421.556 245.043C421.94 244.581 422.437 244.197 423.048 243.892C423.666 243.58 424.433 243.423 425.349 243.423C426.542 243.423 427.643 243.736 428.651 244.361C429.66 244.979 430.466 245.913 431.07 247.163C431.673 248.406 431.975 249.964 431.975 251.839C431.975 253.665 431.68 255.206 431.091 256.463C430.509 257.713 429.713 258.661 428.705 259.308C427.703 259.947 426.581 260.266 425.338 260.266C424.457 260.266 423.708 260.121 423.09 259.83C422.479 259.538 421.979 259.173 421.588 258.732C421.198 258.285 420.899 257.834 420.693 257.379H420.491V260H416.016ZM420.459 251.818C420.459 252.791 420.594 253.64 420.864 254.364C421.134 255.089 421.524 255.653 422.036 256.058C422.547 256.456 423.168 256.655 423.9 256.655C424.639 256.655 425.264 256.452 425.775 256.048C426.286 255.636 426.673 255.067 426.936 254.343C427.206 253.612 427.341 252.77 427.341 251.818C427.341 250.874 427.21 250.043 426.947 249.325C426.684 248.608 426.297 248.047 425.786 247.642C425.274 247.237 424.646 247.035 423.9 247.035C423.161 247.035 422.536 247.23 422.025 247.621C421.521 248.011 421.134 248.565 420.864 249.283C420.594 250 420.459 250.845 420.459 251.818ZM439.67 260.309C438.626 260.309 437.695 260.128 436.878 259.766C436.062 259.396 435.415 258.853 434.94 258.136C434.471 257.411 434.236 256.509 434.236 255.43C434.236 254.521 434.403 253.757 434.737 253.139C435.071 252.521 435.525 252.024 436.101 251.648C436.676 251.271 437.329 250.987 438.061 250.795C438.8 250.604 439.574 250.469 440.383 250.391C441.335 250.291 442.102 250.199 442.685 250.114C443.267 250.021 443.69 249.886 443.952 249.709C444.215 249.531 444.347 249.268 444.347 248.92V248.857C444.347 248.182 444.133 247.66 443.707 247.29C443.288 246.921 442.692 246.737 441.918 246.737C441.101 246.737 440.451 246.918 439.968 247.28C439.485 247.635 439.165 248.082 439.009 248.622L434.812 248.281C435.025 247.287 435.444 246.428 436.069 245.703C436.694 244.972 437.5 244.411 438.487 244.02C439.481 243.622 440.632 243.423 441.939 243.423C442.848 243.423 443.718 243.53 444.549 243.743C445.387 243.956 446.129 244.286 446.775 244.734C447.429 245.181 447.944 245.756 448.32 246.46C448.697 247.156 448.885 247.99 448.885 248.963V260H444.581V257.731H444.453C444.19 258.242 443.839 258.693 443.398 259.084C442.958 259.467 442.429 259.769 441.811 259.989C441.193 260.202 440.479 260.309 439.67 260.309ZM440.969 257.177C441.637 257.177 442.226 257.045 442.738 256.783C443.249 256.513 443.65 256.151 443.942 255.696C444.233 255.241 444.378 254.727 444.378 254.151V252.415C444.236 252.507 444.041 252.592 443.793 252.67C443.551 252.741 443.278 252.809 442.972 252.873C442.667 252.93 442.361 252.983 442.056 253.033C441.751 253.075 441.474 253.114 441.225 253.15C440.692 253.228 440.227 253.352 439.829 253.523C439.432 253.693 439.123 253.924 438.903 254.215C438.682 254.499 438.572 254.854 438.572 255.281C438.572 255.898 438.796 256.371 439.244 256.697C439.698 257.017 440.273 257.177 440.969 257.177ZM456.944 238.182V260H452.406V238.182H456.944Z" fill="white"/>
</g>
</g>
<defs>
<filter id="filter0_d_457_362" x="61.127" y="128.936" width="399.816" height="139.384" filterUnits="userSpaceOnUse" color-interpolation-filters="sRGB">
<feFlood flood-opacity="0" result="BackgroundImageFix"/>
<feColorMatrix in="SourceAlpha" type="matrix" values="0 0 0 0 0 0 0 0 0 0 0 0 0 0 0 0 0 0 127 0" result="hardAlpha"/>
<feOffset dy="4"/>
<feGaussianBlur stdDeviation="2"/>
<feComposite in2="hardAlpha" operator="out"/>
<feColorMatrix type="matrix" values="0 0 0 0 0 0 0 0 0 0 0 0 0 0 0 0 0 0 0.25 0"/>
<feBlend mode="normal" in2="BackgroundImageFix" result="effect1_dropShadow_457_362"/>
<feBlend mode="normal" in="SourceGraphic" in2="effect1_dropShadow_457_362" result="shape"/>
</filter>
<linearGradient id="paint0_linear_457_362" x1="521" y1="260.5" x2="910" y2="260.5" gradientUnits="userSpaceOnUse">
<stop stop-color="#0E96A0"/>
<stop offset="1" stop-color="#05373A"/>
</linearGradient>
</defs>
</svg>
