<svg width="212" height="212" viewBox="0 0 212 212" fill="none" xmlns="http://www.w3.org/2000/svg">
<path d="M148.087 363.725C147.122 362.661 142.908 350.365 142.323 348.065C137.284 328.281 139.89 308.439 150.536 290.94C152.177 288.235 161.199 278.174 159.921 276.228C159.237 275.18 147.205 263.445 146.248 263.981C143.931 265.276 141.086 268.509 138.372 270.422C115.339 286.676 86.3357 288.754 61.2245 276.162C60.5318 275.815 60.1689 275.024 60.3586 274.273C73.1987 222.773 139.329 204.737 178.674 240.709C217.112 275.848 206.861 341.624 158.56 361.622C156.251 362.579 149.761 365.564 148.087 363.725Z" fill="#125881"/>
<path d="M60.8619 146.598C89.4862 133.164 121.607 137.353 145.283 158.152C145.943 158.729 146.941 158.712 147.559 158.086L159.171 146.474C159.789 145.856 159.814 144.874 159.245 144.206C138.727 120.456 133.672 88.5824 147.865 60.1395C148.211 59.4468 148.994 59.084 149.745 59.2654C201.369 71.9158 219.561 138.409 183.375 177.589C151.963 211.598 95.9104 208.605 69.7189 170.06C67.5665 166.893 59.3693 152.626 59.9136 147.876C59.9796 147.315 60.3507 146.837 60.8619 146.598Z" fill="#125881"/>
<path d="M275.959 59.3561C276.676 59.2572 277.385 59.653 277.682 60.3128C289.656 86.4053 287.842 113.438 271.505 137.287C270.087 139.366 265.172 146.713 265.452 146.953C268.644 149.715 277.847 158.399 277.847 158.399C278.441 158.943 288.675 151.274 294.002 148.297C315.988 136.017 341.553 135.745 363.992 146.862C364.652 147.192 365.023 147.926 364.883 148.651C359.547 176.451 330.519 198.816 302.884 201.034C242.832 205.85 202.151 142.054 233.67 90.0504C242.197 75.9815 259.284 61.7147 275.95 59.3479L275.959 59.3561Z" fill="#125881"/>
<path d="M66.9983 197.324C71.031 200.878 79.0715 206.312 83.368 209.149C84.5555 209.933 84.4813 211.681 83.2443 212.382C78.9395 214.84 74.7172 219.103 71.1217 221.973C62.5204 228.851 57.3167 238.664 45.7878 240.487C26.0122 243.612 13.9308 224.472 1.3876 212.539C0.727869 211.904 0.678389 210.84 1.32988 210.205C1.60202 209.933 1.90715 209.685 2.13805 209.38C9.06528 200.35 26.4823 183.931 37.9452 182.529C53.2593 180.657 57.3084 188.772 66.9983 197.315V197.324Z" fill="#125881"/>
<path d="M226.804 65.9617C222.013 71.289 217.115 77.0947 214.006 83.8158C213.808 84.2446 213.437 84.5744 212.983 84.7146C212.183 84.9538 211.334 84.5744 210.996 83.8075C208.604 78.4059 204.596 72.5343 200.902 68.0646C193.537 59.1416 185.225 56.7831 183.617 43.6296C181.283 24.5385 199.656 12.6715 211.334 0.515882C211.911 -0.0861266 212.843 -0.17684 213.511 0.326208C218.137 3.81456 232.709 18.6669 234.49 20.9512C239.554 27.4496 242.63 35.4489 241.706 43.7863C240.486 54.7709 233.476 58.5479 226.804 65.9617Z" fill="#125881"/>
<path d="M212.247 172.237C213.031 171.998 213.856 172.377 214.218 173.111C219.678 184.186 229.087 195.195 238.769 202.543C242.587 205.438 247.172 207.475 250.949 210.188C251.477 210.567 253.036 210.361 252.252 212.019C251.898 212.761 240.971 218.822 238.769 220.472C234.241 223.869 225.401 232.594 221.995 237.113C220.445 239.167 216.42 246.622 213.823 249.772C213.089 250.663 211.687 250.514 211.118 249.516C204.759 238.416 196.702 228.158 186.386 220.463C184.365 218.962 177.389 215.326 174.329 212.819C173.414 212.068 173.546 210.65 174.585 210.073C190.023 201.554 203.061 188.878 211.126 173.103C211.332 172.698 211.687 172.402 212.115 172.27L212.239 172.237H212.247Z" fill="#125881"/>
</svg>
