<svg width="1440" height="613" viewBox="0 0 1440 613" fill="none" xmlns="http://www.w3.org/2000/svg">
<rect y="0.00244141" width="1440" height="612" fill="url(#paint0_linear_352_3)"/>
<path d="M1381.39 676.049C1353.9 689.261 1322.3 684.881 1299.67 664.543C1299.05 663.987 1298.12 663.979 1297.5 664.535L1285.35 675.509C1285.2 675.638 1284.98 675.775 1284.99 675.968C1285.11 677.337 1289.85 682.981 1291.25 684.954C1306.92 707.12 1309.32 736.202 1296.81 760.341C1296.48 760.977 1295.76 761.332 1295.06 761.187C1266.6 755.373 1245.16 726.154 1243.86 697.675C1241.22 639.889 1303.47 602.9 1352.91 633.488C1366.14 641.668 1380.71 658.464 1382.32 674.446C1382.38 675.115 1382.01 675.759 1381.41 676.049H1381.39Z" stroke="white" stroke-opacity="0.5" stroke-width="6.65331" stroke-miterlimit="10"/>
<path d="M1170.73 761.122C1169.79 760.084 1165.67 748.079 1165.1 745.832C1160.18 726.516 1162.73 707.144 1173.12 690.058C1174.72 687.417 1183.53 677.594 1182.28 675.694C1181.62 674.672 1169.87 663.214 1168.93 663.738C1166.67 665.002 1163.89 668.158 1161.24 670.026C1138.76 685.896 1110.44 687.925 1085.92 675.63C1085.25 675.292 1084.89 674.519 1085.08 673.786C1097.61 623.504 1162.18 605.895 1200.59 641.016C1238.12 675.324 1228.11 739.544 1180.96 759.069C1178.7 760.003 1172.36 762.918 1170.73 761.122Z" stroke="white" stroke-opacity="0.5" stroke-width="6.65331" stroke-miterlimit="10"/>
<path d="M1085.58 549.122C1113.53 536.006 1144.89 540.096 1168 560.403C1168.65 560.966 1169.62 560.95 1170.23 560.338L1181.56 549.001C1182.17 548.398 1182.19 547.439 1181.63 546.787C1161.6 523.599 1156.67 492.479 1170.52 464.709C1170.86 464.033 1171.63 463.678 1172.36 463.855C1222.76 476.207 1240.52 541.127 1205.19 579.38C1174.52 612.585 1119.8 609.663 1094.23 572.029C1092.12 568.937 1084.12 555.008 1084.65 550.37C1084.72 549.823 1085.08 549.356 1085.58 549.122Z" stroke="white" stroke-opacity="0.5" stroke-width="6.65331" stroke-miterlimit="10"/>
<path d="M1295.58 463.952C1296.28 463.855 1296.97 464.242 1297.26 464.886C1308.95 490.361 1307.18 516.754 1291.23 540.04C1289.85 542.069 1285.05 549.243 1285.32 549.476C1288.44 552.174 1297.42 560.652 1297.42 560.652C1298 561.183 1308 553.695 1313.2 550.789C1334.66 538.8 1359.62 538.534 1381.53 549.388C1382.18 549.71 1382.54 550.426 1382.4 551.135C1377.19 578.277 1348.85 600.113 1321.87 602.279C1263.24 606.981 1223.52 544.694 1254.29 493.92C1262.62 480.184 1279.3 466.255 1295.57 463.944L1295.58 463.952Z" stroke="white" stroke-opacity="0.5" stroke-width="6.65331" stroke-miterlimit="10"/>
<path d="M1091.57 598.648C1095.51 602.118 1103.36 607.424 1107.55 610.194C1108.71 610.959 1108.64 612.666 1107.43 613.35C1103.23 615.75 1099.1 619.912 1095.59 622.714C1087.2 629.43 1082.12 639.011 1070.86 640.79C1051.55 643.842 1039.76 625.154 1027.51 613.503C1026.86 612.883 1026.82 611.845 1027.45 611.225C1027.72 610.959 1028.02 610.717 1028.24 610.42C1035.01 601.603 1052.01 585.572 1063.2 584.203C1078.15 582.376 1082.11 590.299 1091.57 598.64V598.648Z" stroke="white" stroke-opacity="0.5" stroke-width="6.65331" stroke-miterlimit="10"/>
<path d="M1247.59 470.402C1242.92 475.603 1238.13 481.271 1235.1 487.833C1234.91 488.252 1234.54 488.574 1234.1 488.711C1233.32 488.944 1232.49 488.574 1232.16 487.825C1229.82 482.551 1225.91 476.819 1222.3 472.455C1215.11 463.743 1207 461.44 1205.43 448.598C1203.15 429.958 1221.09 418.372 1232.49 406.504C1233.05 405.916 1233.96 405.827 1234.62 406.318C1239.13 409.724 1253.36 424.225 1255.1 426.456C1260.04 432.8 1263.05 440.61 1262.14 448.751C1260.95 459.475 1254.11 463.163 1247.59 470.402Z" stroke="white" stroke-opacity="0.5" stroke-width="6.65331" stroke-miterlimit="10"/>
<path d="M1359.79 613.898C1358.57 613.229 1358.52 611.482 1359.7 610.733C1363.94 608.036 1371.84 602.899 1375.43 599.767C1381.66 594.332 1383.63 588.414 1391.96 585.709C1414.21 578.479 1425.88 597.98 1439.71 611.281C1440.29 611.845 1440.38 612.746 1439.89 613.399C1436.44 617.972 1421.54 632.537 1419.17 634.325C1414.42 637.924 1407.51 640.992 1401.44 641.112C1385.32 641.426 1380.89 628.995 1369.82 620.653C1367.15 618.64 1363.3 615.798 1359.8 613.89L1359.79 613.898Z" stroke="white" stroke-opacity="0.5" stroke-width="6.65331" stroke-miterlimit="10"/>
<path d="M1233.38 574.163C1234.14 573.929 1234.95 574.3 1235.3 575.016C1240.63 585.83 1249.82 596.579 1259.27 603.753C1263 606.579 1267.48 608.568 1271.17 611.217C1271.68 611.587 1273.2 611.386 1272.44 613.004C1272.09 613.729 1261.42 619.647 1259.27 621.257C1254.85 624.574 1246.22 633.093 1242.9 637.505C1241.38 639.51 1237.45 646.789 1234.92 649.865C1234.2 650.734 1232.83 650.589 1232.28 649.615C1226.07 638.777 1218.2 628.761 1208.13 621.249C1206.16 619.784 1199.34 616.233 1196.36 613.785C1195.46 613.052 1195.59 611.668 1196.61 611.104C1211.68 602.787 1224.41 590.411 1232.28 575.008C1232.49 574.614 1232.83 574.324 1233.25 574.195L1233.37 574.163H1233.38Z" stroke="white" stroke-opacity="0.5" stroke-width="6.65331" stroke-miterlimit="10"/>
<path d="M267.394 409.049C239.897 422.261 208.303 417.881 185.669 397.543C185.049 396.987 184.115 396.979 183.496 397.535L171.346 408.509C171.201 408.638 170.975 408.775 170.991 408.968C171.112 410.337 175.854 415.981 177.247 417.954C192.916 440.12 195.315 469.202 182.811 493.341C182.481 493.977 181.756 494.332 181.056 494.187C152.601 488.373 131.16 459.154 129.864 430.675C127.223 372.889 189.47 335.9 238.915 366.488C252.136 374.668 266.709 391.464 268.32 407.446C268.384 408.115 268.014 408.759 267.41 409.049H267.394Z" stroke="white" stroke-opacity="0.5" stroke-width="6.65331" stroke-miterlimit="10"/>
<path d="M56.7295 494.122C55.7875 493.084 51.6731 481.079 51.1014 478.832C46.1819 459.516 48.7262 440.144 59.1209 423.058C60.7232 420.417 69.5316 410.594 68.2836 408.694C67.6154 407.672 55.868 396.214 54.934 396.738C52.6715 398.002 49.8937 401.158 47.2447 403.026C24.7565 418.896 -3.56114 420.925 -28.0784 408.63C-28.7547 408.292 -29.109 407.519 -28.9238 406.786C-16.3874 356.504 48.1787 338.895 86.5931 374.016C124.122 408.324 114.114 472.544 66.9551 492.069C64.7007 493.003 58.364 495.918 56.7295 494.122Z" stroke="white" stroke-opacity="0.5" stroke-width="6.65331" stroke-miterlimit="10"/>
<path d="M-28.4218 282.122C-0.474592 269.006 30.8866 273.096 54.0028 293.403C54.6469 293.966 55.6212 293.95 56.2251 293.338L67.5618 282.001C68.1656 281.398 68.1898 280.439 67.6342 279.787C47.6018 256.599 42.6661 225.479 56.523 197.709C56.8611 197.033 57.6261 196.678 58.3588 196.855C108.762 209.207 126.524 274.127 91.1933 312.38C60.5246 345.585 5.79764 342.663 -19.7744 305.029C-21.8759 301.937 -29.8792 288.008 -29.3478 283.37C-29.2834 282.823 -28.921 282.356 -28.4218 282.122Z" stroke="white" stroke-opacity="0.5" stroke-width="6.65331" stroke-miterlimit="10"/>
<path d="M181.58 196.952C182.281 196.855 182.973 197.242 183.263 197.886C194.954 223.361 193.183 249.754 177.232 273.04C175.848 275.069 171.049 282.243 171.322 282.476C174.438 285.174 183.424 293.652 183.424 293.652C184.004 294.183 193.996 286.695 199.197 283.789C220.663 271.8 245.623 271.534 267.532 282.388C268.176 282.71 268.538 283.426 268.401 284.135C263.192 311.277 234.85 333.113 207.869 335.279C149.237 339.981 109.518 277.694 140.291 226.92C148.617 213.184 165.3 199.255 181.572 196.944L181.58 196.952Z" stroke="white" stroke-opacity="0.5" stroke-width="6.65331" stroke-miterlimit="10"/>
<path d="M133.595 203.402C128.917 208.603 124.134 214.271 121.098 220.833C120.905 221.252 120.543 221.574 120.1 221.711C119.319 221.944 118.49 221.574 118.16 220.825C115.825 215.551 111.912 209.819 108.304 205.455C101.114 196.743 92.9982 194.44 91.4282 181.598C89.1495 162.958 107.089 151.372 118.49 139.504C119.053 138.916 119.963 138.827 120.615 139.318C125.132 142.724 139.36 157.225 141.099 159.456C146.042 165.8 149.046 173.61 148.144 181.751C146.952 192.475 140.108 196.163 133.595 203.402Z" stroke="white" stroke-opacity="0.5" stroke-width="6.65331" stroke-miterlimit="10"/>
<path d="M245.793 346.898C244.569 346.229 244.52 344.482 245.696 343.733C249.939 341.036 257.838 335.899 261.429 332.767C267.661 327.332 269.634 321.414 277.959 318.709C300.206 311.479 311.881 330.98 325.705 344.281C326.293 344.845 326.382 345.746 325.89 346.399C322.444 350.972 307.541 365.537 305.174 367.325C300.423 370.924 293.507 373.992 287.436 374.112C271.324 374.426 266.888 361.995 255.817 353.653C253.152 351.64 249.295 348.798 245.801 346.89L245.793 346.898Z" stroke="white" stroke-opacity="0.5" stroke-width="6.65331" stroke-miterlimit="10"/>
<path d="M119.371 469.267C120.136 469.041 120.949 469.412 121.295 470.136C123.872 475.515 127.382 481.014 131.11 485.547C134.54 489.71 141.569 494.452 144.009 498.092C158.341 519.453 135.305 538.656 120.49 551.402C119.838 551.965 118.872 551.909 118.276 551.297C104.975 537.561 85.7152 525.902 92.9053 503.768C95.5623 495.604 101.496 493.349 106.963 487.246C111.287 482.423 115.716 476.215 118.308 470.201C118.501 469.758 118.872 469.42 119.331 469.283H119.355L119.371 469.267Z" stroke="white" stroke-opacity="0.5" stroke-width="6.65331" stroke-miterlimit="10"/>
<path d="M119.379 307.163C120.144 306.929 120.949 307.3 121.303 308.016C126.634 318.83 135.82 329.579 145.273 336.753C149.001 339.579 153.478 341.568 157.165 344.217C157.681 344.587 159.202 344.386 158.438 346.004C158.091 346.729 147.423 352.647 145.273 354.257C140.853 357.574 132.221 366.093 128.896 370.505C127.382 372.51 123.453 379.789 120.917 382.865C120.2 383.734 118.832 383.589 118.276 382.615C112.068 371.777 104.202 361.761 94.1291 354.249C92.1564 352.784 85.3447 349.233 82.3576 346.785C81.4638 346.052 81.5927 344.668 82.6072 344.104C97.6798 335.787 110.41 323.411 118.284 308.008C118.485 307.614 118.832 307.324 119.25 307.195L119.371 307.163H119.379Z" stroke="white" stroke-opacity="0.5" stroke-width="6.65331" stroke-miterlimit="10"/>
<defs>
<linearGradient id="paint0_linear_352_3" x1="1440" y1="-5.19438e-05" x2="-7.95721e-05" y2="625.5" gradientUnits="userSpaceOnUse">
<stop stop-color="#125881"/>
<stop offset="0.5" stop-color="#40A6AA"/>
<stop offset="1" stop-color="#125881"/>
</linearGradient>
</defs>
</svg>
