<svg width="777" height="69" viewBox="0 0 777 69" fill="none" xmlns="http://www.w3.org/2000/svg">
<g filter="url(#filter0_d_598_109)">
<mask id="path-1-outside-1_598_109" maskUnits="userSpaceOnUse" x="4" y="0" width="769" height="61" fill="black">
<rect fill="white" x="4" width="769" height="61"/>
<path d="M27.8125 2.125L17.9688 59H5.89844L15.7422 2.125H27.8125ZM40.8203 26.0312L39.0625 36.0312H18.75L20.5078 26.0312H40.8203ZM46.7969 2.125L45.0391 12.2031H22.8516L24.6094 2.125H46.7969ZM77.1875 2.125H89.2578L82.6562 40.9922C82.1094 44.8724 80.9505 48.2448 79.1797 51.1094C77.4349 53.9479 75.0911 56.1354 72.1484 57.6719C69.2057 59.1823 65.7292 59.8984 61.7188 59.8203C57.9167 59.7422 54.7526 58.9219 52.2266 57.3594C49.7266 55.7969 47.9167 53.6094 46.7969 50.7969C45.6771 47.9844 45.3255 44.7161 45.7422 40.9922L52.3438 2.125H64.4531L57.9688 41.0312C57.7865 42.5156 57.7214 43.9089 57.7734 45.2109C57.8255 46.513 58.2031 47.5938 58.9062 48.4531C59.6094 49.2865 60.8464 49.7161 62.6172 49.7422C64.4922 49.8464 65.9766 49.5208 67.0703 48.7656C68.1641 47.9844 68.9714 46.9167 69.4922 45.5625C70.013 44.1823 70.3906 42.6719 70.625 41.0312L77.1875 2.125ZM136.445 2.125L126.562 59H114.805L105.898 22.1641L99.4531 59H87.3828L97.2266 2.125H109.062L117.969 39L124.375 2.125H136.445ZM162.969 2.125L180.625 2.16406C184.01 2.26823 186.888 2.9974 189.258 4.35156C191.654 5.70573 193.438 7.63281 194.609 10.1328C195.807 12.6068 196.263 15.5625 195.977 19C195.768 21.8385 195.195 24.3385 194.258 26.5C193.32 28.6615 191.992 30.5365 190.273 32.125C188.581 33.6875 186.458 35.0677 183.906 36.2656L179.648 38.5312H164.492L166.211 28.4922L175.859 28.6094C177.526 28.5573 178.906 28.1406 180 27.3594C181.12 26.5781 181.979 25.5495 182.578 24.2734C183.203 22.9974 183.607 21.5911 183.789 20.0547C183.945 18.987 184.01 17.8542 183.984 16.6562C183.984 15.4583 183.698 14.4427 183.125 13.6094C182.578 12.776 181.589 12.3203 180.156 12.2422L173.32 12.2031L165.195 59H153.125L162.969 2.125ZM178.125 59L172.539 33.7266L184.766 33.6875L191.055 58.375L191.016 59H178.125ZM230.938 2.125H243.008L236.406 40.9922C235.859 44.8724 234.701 48.2448 232.93 51.1094C231.185 53.9479 228.841 56.1354 225.898 57.6719C222.956 59.1823 219.479 59.8984 215.469 59.8203C211.667 59.7422 208.503 58.9219 205.977 57.3594C203.477 55.7969 201.667 53.6094 200.547 50.7969C199.427 47.9844 199.076 44.7161 199.492 40.9922L206.094 2.125H218.203L211.719 41.0312C211.536 42.5156 211.471 43.9089 211.523 45.2109C211.576 46.513 211.953 47.5938 212.656 48.4531C213.359 49.2865 214.596 49.7161 216.367 49.7422C218.242 49.8464 219.727 49.5208 220.82 48.7656C221.914 47.9844 222.721 46.9167 223.242 45.5625C223.763 44.1823 224.141 42.6719 224.375 41.0312L230.938 2.125ZM290.195 2.125L280.312 59H268.555L259.648 22.1641L253.203 59H241.133L250.977 2.125H262.812L271.719 39L278.125 2.125H290.195ZM290.234 53.375C290.182 51.4479 290.807 49.8724 292.109 48.6484C293.438 47.3984 295.039 46.7604 296.914 46.7344C298.711 46.7083 300.247 47.2682 301.523 48.4141C302.799 49.5599 303.451 51.0573 303.477 52.9062C303.529 54.8073 302.904 56.3698 301.602 57.5938C300.299 58.8177 298.711 59.4427 296.836 59.4688C295.065 59.4948 293.529 58.9479 292.227 57.8281C290.951 56.6823 290.286 55.1979 290.234 53.375ZM295.625 21.7734C295.573 19.8464 296.198 18.2708 297.5 17.0469C298.828 15.7969 300.43 15.1589 302.305 15.1328C304.102 15.1068 305.638 15.6667 306.914 16.8125C308.19 17.9583 308.841 19.4557 308.867 21.3047C308.919 23.2057 308.294 24.7682 306.992 25.9922C305.69 27.2161 304.102 27.8411 302.227 27.8672C300.456 27.8932 298.919 27.3464 297.617 26.2266C296.341 25.0807 295.677 23.5964 295.625 21.7734ZM363.086 48.9609L361.328 59H337.227L338.984 48.9609H363.086ZM351.094 2.125L341.25 59H329.18L339.023 2.125H351.094ZM364.102 24.9375L362.383 34.625H341.445L343.164 24.9375H364.102ZM371.211 2.125L369.453 12.2031H345.312L347.07 2.125H371.211ZM387.188 2.125L391.016 21.2656L400.781 2.125H415L397.656 30.875L405.898 59H392.461L388.633 39.5078L378.594 59H364.18L381.992 29.7812L373.867 2.125H387.188ZM433.906 39.3906L422.07 39.3516L423.828 29.2734L434.453 29.3516C436.094 29.3255 437.461 28.9349 438.555 28.1797C439.674 27.3984 440.547 26.3828 441.172 25.1328C441.823 23.8568 442.253 22.4635 442.461 20.9531C442.617 19.8333 442.669 18.6224 442.617 17.3203C442.565 15.9922 442.24 14.8464 441.641 13.8828C441.068 12.8932 440.052 12.3464 438.594 12.2422L431.016 12.2031L422.891 59H410.82L420.664 2.125L439.062 2.16406C442.604 2.26823 445.586 3.16667 448.008 4.85938C450.43 6.55208 452.214 8.79167 453.359 11.5781C454.505 14.3646 454.935 17.4635 454.648 20.875C454.336 24.6771 453.242 27.9583 451.367 30.7188C449.518 33.4792 447.083 35.6276 444.062 37.1641C441.042 38.6745 437.656 39.4167 433.906 39.3906ZM488.125 48.9609L486.367 59H463.242L464.961 48.9609H488.125ZM477.109 2.125L467.266 59H455.195L465.039 2.125H477.109ZM534.844 26.1094L533.477 35.1719C533.008 38.401 532.174 41.513 530.977 44.5078C529.805 47.4766 528.255 50.1328 526.328 52.4766C524.427 54.7943 522.096 56.6172 519.336 57.9453C516.576 59.2474 513.398 59.8594 509.805 59.7812C506.367 59.7031 503.49 58.9609 501.172 57.5547C498.854 56.1484 497.044 54.2865 495.742 51.9688C494.44 49.651 493.581 47.0469 493.164 44.1562C492.773 41.2656 492.76 38.3099 493.125 35.2891L494.492 26.2266C494.987 22.9974 495.807 19.8854 496.953 16.8906C498.125 13.8958 499.688 11.2135 501.641 8.84375C503.594 6.44792 505.951 4.57292 508.711 3.21875C511.471 1.86458 514.674 1.23958 518.32 1.34375C521.758 1.42188 524.622 2.1901 526.914 3.64844C529.232 5.08073 531.029 6.98177 532.305 9.35156C533.607 11.6953 534.453 14.3255 534.844 17.2422C535.234 20.1589 535.234 23.1146 534.844 26.1094ZM521.328 35.2891L522.695 26.0703C522.852 24.8464 522.995 23.4271 523.125 21.8125C523.255 20.1979 523.203 18.6224 522.969 17.0859C522.76 15.5234 522.227 14.2214 521.367 13.1797C520.534 12.112 519.219 11.5391 517.422 11.4609C515.417 11.3307 513.763 11.7344 512.461 12.6719C511.159 13.5833 510.117 14.8073 509.336 16.3438C508.581 17.8542 507.995 19.4818 507.578 21.2266C507.188 22.9453 506.888 24.5859 506.68 26.1484L505.352 35.3281C505.195 36.5521 505.052 37.9714 504.922 39.5859C504.818 41.1745 504.87 42.737 505.078 44.2734C505.312 45.7839 505.846 47.0469 506.68 48.0625C507.539 49.0781 508.867 49.625 510.664 49.7031C512.617 49.8073 514.232 49.4167 515.508 48.5312C516.81 47.6198 517.852 46.4219 518.633 44.9375C519.414 43.4531 520 41.8646 520.391 40.1719C520.807 38.4531 521.12 36.8255 521.328 35.2891ZM546.562 2.125L564.219 2.16406C567.604 2.26823 570.482 2.9974 572.852 4.35156C575.247 5.70573 577.031 7.63281 578.203 10.1328C579.401 12.6068 579.857 15.5625 579.57 19C579.362 21.8385 578.789 24.3385 577.852 26.5C576.914 28.6615 575.586 30.5365 573.867 32.125C572.174 33.6875 570.052 35.0677 567.5 36.2656L563.242 38.5312H548.086L549.805 28.4922L559.453 28.6094C561.12 28.5573 562.5 28.1406 563.594 27.3594C564.714 26.5781 565.573 25.5495 566.172 24.2734C566.797 22.9974 567.201 21.5911 567.383 20.0547C567.539 18.987 567.604 17.8542 567.578 16.6562C567.578 15.4583 567.292 14.4427 566.719 13.6094C566.172 12.776 565.182 12.3203 563.75 12.2422L556.914 12.2031L548.789 59H536.719L546.562 2.125ZM561.719 59L556.133 33.7266L568.359 33.6875L574.648 58.375L574.609 59H561.719ZM614.023 48.9609L612.266 59H588.164L589.922 48.9609H614.023ZM602.031 2.125L592.188 59H580.117L589.961 2.125H602.031ZM615.039 24.9375L613.32 34.625H592.383L594.102 24.9375H615.039ZM622.148 2.125L620.391 12.2031H596.25L598.008 2.125H622.148ZM673.242 24.9375L671.484 34.9375H648.906L650.664 24.9375H673.242ZM658.359 2.125L648.516 59H636.445L646.289 2.125H658.359ZM685.586 2.125L675.703 59H663.672L673.555 2.125H685.586ZM706.406 2.125L696.523 59H684.453L694.336 2.125H706.406ZM715.156 2.125L732.812 2.16406C736.198 2.26823 739.076 2.9974 741.445 4.35156C743.841 5.70573 745.625 7.63281 746.797 10.1328C747.995 12.6068 748.451 15.5625 748.164 19C747.956 21.8385 747.383 24.3385 746.445 26.5C745.508 28.6615 744.18 30.5365 742.461 32.125C740.768 33.6875 738.646 35.0677 736.094 36.2656L731.836 38.5312H716.68L718.398 28.4922L728.047 28.6094C729.714 28.5573 731.094 28.1406 732.188 27.3594C733.307 26.5781 734.167 25.5495 734.766 24.2734C735.391 22.9974 735.794 21.5911 735.977 20.0547C736.133 18.987 736.198 17.8542 736.172 16.6562C736.172 15.4583 735.885 14.4427 735.312 13.6094C734.766 12.776 733.776 12.3203 732.344 12.2422L725.508 12.2031L717.383 59H705.312L715.156 2.125ZM730.312 59L724.727 33.7266L736.953 33.6875L743.242 58.375L743.203 59H730.312ZM771.172 2.125L761.289 59H749.219L759.102 2.125H771.172Z"/>
</mask>
<path d="M27.8125 2.125L17.9688 59H5.89844L15.7422 2.125H27.8125ZM40.8203 26.0312L39.0625 36.0312H18.75L20.5078 26.0312H40.8203ZM46.7969 2.125L45.0391 12.2031H22.8516L24.6094 2.125H46.7969ZM77.1875 2.125H89.2578L82.6562 40.9922C82.1094 44.8724 80.9505 48.2448 79.1797 51.1094C77.4349 53.9479 75.0911 56.1354 72.1484 57.6719C69.2057 59.1823 65.7292 59.8984 61.7188 59.8203C57.9167 59.7422 54.7526 58.9219 52.2266 57.3594C49.7266 55.7969 47.9167 53.6094 46.7969 50.7969C45.6771 47.9844 45.3255 44.7161 45.7422 40.9922L52.3438 2.125H64.4531L57.9688 41.0312C57.7865 42.5156 57.7214 43.9089 57.7734 45.2109C57.8255 46.513 58.2031 47.5938 58.9062 48.4531C59.6094 49.2865 60.8464 49.7161 62.6172 49.7422C64.4922 49.8464 65.9766 49.5208 67.0703 48.7656C68.1641 47.9844 68.9714 46.9167 69.4922 45.5625C70.013 44.1823 70.3906 42.6719 70.625 41.0312L77.1875 2.125ZM136.445 2.125L126.562 59H114.805L105.898 22.1641L99.4531 59H87.3828L97.2266 2.125H109.062L117.969 39L124.375 2.125H136.445ZM162.969 2.125L180.625 2.16406C184.01 2.26823 186.888 2.9974 189.258 4.35156C191.654 5.70573 193.438 7.63281 194.609 10.1328C195.807 12.6068 196.263 15.5625 195.977 19C195.768 21.8385 195.195 24.3385 194.258 26.5C193.32 28.6615 191.992 30.5365 190.273 32.125C188.581 33.6875 186.458 35.0677 183.906 36.2656L179.648 38.5312H164.492L166.211 28.4922L175.859 28.6094C177.526 28.5573 178.906 28.1406 180 27.3594C181.12 26.5781 181.979 25.5495 182.578 24.2734C183.203 22.9974 183.607 21.5911 183.789 20.0547C183.945 18.987 184.01 17.8542 183.984 16.6562C183.984 15.4583 183.698 14.4427 183.125 13.6094C182.578 12.776 181.589 12.3203 180.156 12.2422L173.32 12.2031L165.195 59H153.125L162.969 2.125ZM178.125 59L172.539 33.7266L184.766 33.6875L191.055 58.375L191.016 59H178.125ZM230.938 2.125H243.008L236.406 40.9922C235.859 44.8724 234.701 48.2448 232.93 51.1094C231.185 53.9479 228.841 56.1354 225.898 57.6719C222.956 59.1823 219.479 59.8984 215.469 59.8203C211.667 59.7422 208.503 58.9219 205.977 57.3594C203.477 55.7969 201.667 53.6094 200.547 50.7969C199.427 47.9844 199.076 44.7161 199.492 40.9922L206.094 2.125H218.203L211.719 41.0312C211.536 42.5156 211.471 43.9089 211.523 45.2109C211.576 46.513 211.953 47.5938 212.656 48.4531C213.359 49.2865 214.596 49.7161 216.367 49.7422C218.242 49.8464 219.727 49.5208 220.82 48.7656C221.914 47.9844 222.721 46.9167 223.242 45.5625C223.763 44.1823 224.141 42.6719 224.375 41.0312L230.938 2.125ZM290.195 2.125L280.312 59H268.555L259.648 22.1641L253.203 59H241.133L250.977 2.125H262.812L271.719 39L278.125 2.125H290.195ZM290.234 53.375C290.182 51.4479 290.807 49.8724 292.109 48.6484C293.438 47.3984 295.039 46.7604 296.914 46.7344C298.711 46.7083 300.247 47.2682 301.523 48.4141C302.799 49.5599 303.451 51.0573 303.477 52.9062C303.529 54.8073 302.904 56.3698 301.602 57.5938C300.299 58.8177 298.711 59.4427 296.836 59.4688C295.065 59.4948 293.529 58.9479 292.227 57.8281C290.951 56.6823 290.286 55.1979 290.234 53.375ZM295.625 21.7734C295.573 19.8464 296.198 18.2708 297.5 17.0469C298.828 15.7969 300.43 15.1589 302.305 15.1328C304.102 15.1068 305.638 15.6667 306.914 16.8125C308.19 17.9583 308.841 19.4557 308.867 21.3047C308.919 23.2057 308.294 24.7682 306.992 25.9922C305.69 27.2161 304.102 27.8411 302.227 27.8672C300.456 27.8932 298.919 27.3464 297.617 26.2266C296.341 25.0807 295.677 23.5964 295.625 21.7734ZM363.086 48.9609L361.328 59H337.227L338.984 48.9609H363.086ZM351.094 2.125L341.25 59H329.18L339.023 2.125H351.094ZM364.102 24.9375L362.383 34.625H341.445L343.164 24.9375H364.102ZM371.211 2.125L369.453 12.2031H345.312L347.07 2.125H371.211ZM387.188 2.125L391.016 21.2656L400.781 2.125H415L397.656 30.875L405.898 59H392.461L388.633 39.5078L378.594 59H364.18L381.992 29.7812L373.867 2.125H387.188ZM433.906 39.3906L422.07 39.3516L423.828 29.2734L434.453 29.3516C436.094 29.3255 437.461 28.9349 438.555 28.1797C439.674 27.3984 440.547 26.3828 441.172 25.1328C441.823 23.8568 442.253 22.4635 442.461 20.9531C442.617 19.8333 442.669 18.6224 442.617 17.3203C442.565 15.9922 442.24 14.8464 441.641 13.8828C441.068 12.8932 440.052 12.3464 438.594 12.2422L431.016 12.2031L422.891 59H410.82L420.664 2.125L439.062 2.16406C442.604 2.26823 445.586 3.16667 448.008 4.85938C450.43 6.55208 452.214 8.79167 453.359 11.5781C454.505 14.3646 454.935 17.4635 454.648 20.875C454.336 24.6771 453.242 27.9583 451.367 30.7188C449.518 33.4792 447.083 35.6276 444.062 37.1641C441.042 38.6745 437.656 39.4167 433.906 39.3906ZM488.125 48.9609L486.367 59H463.242L464.961 48.9609H488.125ZM477.109 2.125L467.266 59H455.195L465.039 2.125H477.109ZM534.844 26.1094L533.477 35.1719C533.008 38.401 532.174 41.513 530.977 44.5078C529.805 47.4766 528.255 50.1328 526.328 52.4766C524.427 54.7943 522.096 56.6172 519.336 57.9453C516.576 59.2474 513.398 59.8594 509.805 59.7812C506.367 59.7031 503.49 58.9609 501.172 57.5547C498.854 56.1484 497.044 54.2865 495.742 51.9688C494.44 49.651 493.581 47.0469 493.164 44.1562C492.773 41.2656 492.76 38.3099 493.125 35.2891L494.492 26.2266C494.987 22.9974 495.807 19.8854 496.953 16.8906C498.125 13.8958 499.688 11.2135 501.641 8.84375C503.594 6.44792 505.951 4.57292 508.711 3.21875C511.471 1.86458 514.674 1.23958 518.32 1.34375C521.758 1.42188 524.622 2.1901 526.914 3.64844C529.232 5.08073 531.029 6.98177 532.305 9.35156C533.607 11.6953 534.453 14.3255 534.844 17.2422C535.234 20.1589 535.234 23.1146 534.844 26.1094ZM521.328 35.2891L522.695 26.0703C522.852 24.8464 522.995 23.4271 523.125 21.8125C523.255 20.1979 523.203 18.6224 522.969 17.0859C522.76 15.5234 522.227 14.2214 521.367 13.1797C520.534 12.112 519.219 11.5391 517.422 11.4609C515.417 11.3307 513.763 11.7344 512.461 12.6719C511.159 13.5833 510.117 14.8073 509.336 16.3438C508.581 17.8542 507.995 19.4818 507.578 21.2266C507.188 22.9453 506.888 24.5859 506.68 26.1484L505.352 35.3281C505.195 36.5521 505.052 37.9714 504.922 39.5859C504.818 41.1745 504.87 42.737 505.078 44.2734C505.312 45.7839 505.846 47.0469 506.68 48.0625C507.539 49.0781 508.867 49.625 510.664 49.7031C512.617 49.8073 514.232 49.4167 515.508 48.5312C516.81 47.6198 517.852 46.4219 518.633 44.9375C519.414 43.4531 520 41.8646 520.391 40.1719C520.807 38.4531 521.12 36.8255 521.328 35.2891ZM546.562 2.125L564.219 2.16406C567.604 2.26823 570.482 2.9974 572.852 4.35156C575.247 5.70573 577.031 7.63281 578.203 10.1328C579.401 12.6068 579.857 15.5625 579.57 19C579.362 21.8385 578.789 24.3385 577.852 26.5C576.914 28.6615 575.586 30.5365 573.867 32.125C572.174 33.6875 570.052 35.0677 567.5 36.2656L563.242 38.5312H548.086L549.805 28.4922L559.453 28.6094C561.12 28.5573 562.5 28.1406 563.594 27.3594C564.714 26.5781 565.573 25.5495 566.172 24.2734C566.797 22.9974 567.201 21.5911 567.383 20.0547C567.539 18.987 567.604 17.8542 567.578 16.6562C567.578 15.4583 567.292 14.4427 566.719 13.6094C566.172 12.776 565.182 12.3203 563.75 12.2422L556.914 12.2031L548.789 59H536.719L546.562 2.125ZM561.719 59L556.133 33.7266L568.359 33.6875L574.648 58.375L574.609 59H561.719ZM614.023 48.9609L612.266 59H588.164L589.922 48.9609H614.023ZM602.031 2.125L592.188 59H580.117L589.961 2.125H602.031ZM615.039 24.9375L613.32 34.625H592.383L594.102 24.9375H615.039ZM622.148 2.125L620.391 12.2031H596.25L598.008 2.125H622.148ZM673.242 24.9375L671.484 34.9375H648.906L650.664 24.9375H673.242ZM658.359 2.125L648.516 59H636.445L646.289 2.125H658.359ZM685.586 2.125L675.703 59H663.672L673.555 2.125H685.586ZM706.406 2.125L696.523 59H684.453L694.336 2.125H706.406ZM715.156 2.125L732.812 2.16406C736.198 2.26823 739.076 2.9974 741.445 4.35156C743.841 5.70573 745.625 7.63281 746.797 10.1328C747.995 12.6068 748.451 15.5625 748.164 19C747.956 21.8385 747.383 24.3385 746.445 26.5C745.508 28.6615 744.18 30.5365 742.461 32.125C740.768 33.6875 738.646 35.0677 736.094 36.2656L731.836 38.5312H716.68L718.398 28.4922L728.047 28.6094C729.714 28.5573 731.094 28.1406 732.188 27.3594C733.307 26.5781 734.167 25.5495 734.766 24.2734C735.391 22.9974 735.794 21.5911 735.977 20.0547C736.133 18.987 736.198 17.8542 736.172 16.6562C736.172 15.4583 735.885 14.4427 735.312 13.6094C734.766 12.776 733.776 12.3203 732.344 12.2422L725.508 12.2031L717.383 59H705.312L715.156 2.125ZM730.312 59L724.727 33.7266L736.953 33.6875L743.242 58.375L743.203 59H730.312ZM771.172 2.125L761.289 59H749.219L759.102 2.125H771.172Z" fill="url(#paint0_linear_598_109)"/>
<path d="M27.8125 2.125L28.7978 2.29554L29.0004 1.125H27.8125V2.125ZM17.9688 59V60H18.8105L18.9541 59.1705L17.9688 59ZM5.89844 59L4.91309 58.8295L4.71049 60H5.89844V59ZM15.7422 2.125V1.125H14.9004L14.7568 1.95446L15.7422 2.125ZM40.8203 26.0312L41.8052 26.2044L42.0114 25.0312H40.8203V26.0312ZM39.0625 36.0312V37.0312H39.9021L40.0474 36.2044L39.0625 36.0312ZM18.75 36.0312L17.7651 35.8581L17.5589 37.0312H18.75V36.0312ZM20.5078 26.0312V25.0312H19.6683L19.5229 25.8581L20.5078 26.0312ZM46.7969 2.125L47.782 2.29683L47.9864 1.125H46.7969V2.125ZM45.0391 12.2031V13.2031H45.8797L46.0242 12.375L45.0391 12.2031ZM22.8516 12.2031L21.8664 12.0313L21.662 13.2031H22.8516V12.2031ZM24.6094 2.125V1.125H23.7687L23.6242 1.95317L24.6094 2.125ZM27.8125 2.125L26.8272 1.95446L16.9834 58.8295L17.9688 59L18.9541 59.1705L28.7978 2.29554L27.8125 2.125ZM17.9688 59V58H5.89844V59V60H17.9688V59ZM5.89844 59L6.88379 59.1705L16.7275 2.29554L15.7422 2.125L14.7568 1.95446L4.91309 58.8295L5.89844 59ZM15.7422 2.125V3.125H27.8125V2.125V1.125H15.7422V2.125ZM40.8203 26.0312L39.8354 25.8581L38.0776 35.8581L39.0625 36.0312L40.0474 36.2044L41.8052 26.2044L40.8203 26.0312ZM39.0625 36.0312V35.0312H18.75V36.0312V37.0312H39.0625V36.0312ZM18.75 36.0312L19.7349 36.2044L21.4927 26.2044L20.5078 26.0312L19.5229 25.8581L17.7651 35.8581L18.75 36.0312ZM20.5078 26.0312V27.0312H40.8203V26.0312V25.0312H20.5078V26.0312ZM46.7969 2.125L45.8117 1.95317L44.0539 12.0313L45.0391 12.2031L46.0242 12.375L47.782 2.29683L46.7969 2.125ZM45.0391 12.2031V11.2031H22.8516V12.2031V13.2031H45.0391V12.2031ZM22.8516 12.2031L23.8367 12.375L25.5945 2.29683L24.6094 2.125L23.6242 1.95317L21.8664 12.0313L22.8516 12.2031ZM24.6094 2.125V3.125H46.7969V2.125V1.125H24.6094V2.125ZM77.1875 2.125V1.125H76.342L76.2014 1.95868L77.1875 2.125ZM89.2578 2.125L90.2437 2.29245L90.442 1.125H89.2578V2.125ZM82.6562 40.9922L81.6704 40.8247L81.668 40.8386L81.666 40.8526L82.6562 40.9922ZM79.1797 51.1094L78.3291 50.5835L78.3278 50.5857L79.1797 51.1094ZM72.1484 57.6719L72.6051 58.5615L72.6113 58.5583L72.1484 57.6719ZM61.7188 59.8203L61.6982 60.8201L61.6993 60.8201L61.7188 59.8203ZM52.2266 57.3594L51.6966 58.2074L51.7005 58.2098L52.2266 57.3594ZM45.7422 40.9922L44.7563 40.8247L44.7515 40.8528L44.7484 40.881L45.7422 40.9922ZM52.3438 2.125V1.125H51.4993L51.3579 1.95755L52.3438 2.125ZM64.4531 2.125L65.4395 2.2894L65.6336 1.125H64.4531V2.125ZM57.9688 41.0312L56.9824 40.8669L56.9788 40.888L56.9762 40.9094L57.9688 41.0312ZM58.9062 48.4531L58.1323 49.0864L58.1371 49.0922L58.142 49.098L58.9062 48.4531ZM62.6172 49.7422L62.6727 48.7437L62.6523 48.7426L62.6319 48.7423L62.6172 49.7422ZM67.0703 48.7656L67.6385 49.5885L67.6451 49.584L67.6516 49.5794L67.0703 48.7656ZM69.4922 45.5625L70.4256 45.9215L70.4278 45.9156L69.4922 45.5625ZM70.625 41.0312L69.6389 40.8649L69.6368 40.8774L69.635 40.8898L70.625 41.0312ZM77.1875 2.125V3.125H89.2578V2.125V1.125H77.1875V2.125ZM89.2578 2.125L88.2719 1.95755L81.6704 40.8247L82.6562 40.9922L83.6421 41.1596L90.2437 2.29245L89.2578 2.125ZM82.6562 40.9922L81.666 40.8526C81.1353 44.618 80.0162 47.8544 78.3291 50.5835L79.1797 51.1094L80.0303 51.6352C81.8848 48.6352 83.0834 45.1268 83.6465 41.1317L82.6562 40.9922ZM79.1797 51.1094L78.3278 50.5857C76.6772 53.271 74.4676 55.3329 71.6856 56.7854L72.1484 57.6719L72.6113 58.5583C75.7147 56.938 78.1926 54.6248 80.0316 51.633L79.1797 51.1094ZM72.1484 57.6719L71.6918 56.7822C68.9244 58.2026 65.6182 58.8961 61.7382 58.8205L61.7188 59.8203L61.6993 60.8201C65.8402 60.9008 69.487 60.1619 72.6051 58.5615L72.1484 57.6719ZM61.7188 59.8203L61.7393 58.8205C58.0668 58.7451 55.0895 57.9544 52.7526 56.5089L52.2266 57.3594L51.7005 58.2098C54.4157 59.8893 57.7665 60.7393 61.6982 60.8201L61.7188 59.8203ZM52.2266 57.3594L52.7566 56.5114C50.4422 55.0649 48.7693 53.0474 47.7259 50.427L46.7969 50.7969L45.8678 51.1668C47.0641 54.1714 49.0109 56.5288 51.6966 58.2074L52.2266 57.3594ZM46.7969 50.7969L47.7259 50.427C46.6797 47.7992 46.3333 44.7023 46.736 41.1034L45.7422 40.9922L44.7484 40.881C44.3177 44.73 44.6745 48.1695 45.8678 51.1668L46.7969 50.7969ZM45.7422 40.9922L46.7281 41.1596L53.3296 2.29245L52.3438 2.125L51.3579 1.95755L44.7563 40.8247L45.7422 40.9922ZM52.3438 2.125V3.125H64.4531V2.125V1.125H52.3438V2.125ZM64.4531 2.125L63.4667 1.9606L56.9824 40.8669L57.9688 41.0312L58.9551 41.1956L65.4395 2.2894L64.4531 2.125ZM57.9688 41.0312L56.9762 40.9094C56.7883 42.4397 56.7197 43.8876 56.7742 45.2509L57.7734 45.2109L58.7726 45.171C58.723 43.9301 58.7847 42.5915 58.9613 41.1531L57.9688 41.0312ZM57.7734 45.2109L56.7742 45.2509C56.8334 46.7309 57.2688 48.031 58.1323 49.0864L58.9062 48.4531L59.6802 47.8199C59.1374 47.1565 58.8176 46.2951 58.7726 45.171L57.7734 45.2109ZM58.9062 48.4531L58.142 49.098C59.1215 50.259 60.7188 50.7144 62.6025 50.7421L62.6172 49.7422L62.6319 48.7423C60.9739 48.7179 60.0972 48.3139 59.6705 47.8083L58.9062 48.4531ZM62.6172 49.7422L62.5617 50.7406C64.569 50.8522 66.3001 50.5127 67.6385 49.5885L67.0703 48.7656L66.5021 47.9427C65.653 48.529 64.4154 48.8405 62.6727 48.7437L62.6172 49.7422ZM67.0703 48.7656L67.6516 49.5794C68.9174 48.6752 69.8402 47.4433 70.4255 45.9215L69.4922 45.5625L68.5588 45.2035C68.1025 46.3901 67.4107 47.2936 66.4891 47.9519L67.0703 48.7656ZM69.4922 45.5625L70.4278 45.9156C70.9773 44.4592 71.3715 42.8769 71.615 41.1727L70.625 41.0312L69.635 40.8898C69.4098 42.4669 69.0487 43.9054 68.5566 45.2094L69.4922 45.5625ZM70.625 41.0312L71.6111 41.1976L78.1736 2.29132L77.1875 2.125L76.2014 1.95868L69.6389 40.8649L70.625 41.0312ZM136.445 2.125L137.431 2.2962L137.634 1.125H136.445V2.125ZM126.562 59V60H127.404L127.548 59.1712L126.562 59ZM114.805 59L113.833 59.235L114.018 60H114.805V59ZM105.898 22.1641L106.87 21.9291L104.913 21.9917L105.898 22.1641ZM99.4531 59V60H100.293L100.438 59.1724L99.4531 59ZM87.3828 59L86.3975 58.8295L86.1949 60H87.3828V59ZM97.2266 2.125V1.125H96.3848L96.2412 1.95446L97.2266 2.125ZM109.062 2.125L110.035 1.89022L109.85 1.125H109.062V2.125ZM117.969 39L116.997 39.2348L118.954 39.1712L117.969 39ZM124.375 2.125V1.125H123.534L123.39 1.95383L124.375 2.125ZM136.445 2.125L135.46 1.9538L125.577 58.8288L126.562 59L127.548 59.1712L137.431 2.2962L136.445 2.125ZM126.562 59V58H114.805V59V60H126.562V59ZM114.805 59L115.777 58.765L106.87 21.9291L105.898 22.1641L104.926 22.3991L113.833 59.235L114.805 59ZM105.898 22.1641L104.913 21.9917L98.4681 58.8276L99.4531 59L100.438 59.1724L106.883 22.3364L105.898 22.1641ZM99.4531 59V58H87.3828V59V60H99.4531V59ZM87.3828 59L88.3682 59.1705L98.2119 2.29554L97.2266 2.125L96.2412 1.95446L86.3975 58.8295L87.3828 59ZM97.2266 2.125V3.125H109.062V2.125V1.125H97.2266V2.125ZM109.062 2.125L108.09 2.35978L116.997 39.2348L117.969 39L118.941 38.7652L110.035 1.89022L109.062 2.125ZM117.969 39L118.954 39.1712L125.36 2.29617L124.375 2.125L123.39 1.95383L116.984 38.8288L117.969 39ZM124.375 2.125V3.125H136.445V2.125V1.125H124.375V2.125ZM162.969 2.125L162.971 1.125L162.127 1.12314L161.983 1.95446L162.969 2.125ZM180.625 2.16406L180.656 1.16454L180.641 1.1641L180.627 1.16406L180.625 2.16406ZM189.258 4.35156L188.762 5.21981L188.766 5.22213L189.258 4.35156ZM194.609 10.1328L193.704 10.5573L193.709 10.5686L194.609 10.1328ZM195.977 19L194.98 18.917L194.979 18.9268L195.977 19ZM190.273 32.125L190.952 32.8598L190.952 32.8594L190.273 32.125ZM183.906 36.2656L183.481 35.3604L183.459 35.371L183.437 35.3828L183.906 36.2656ZM179.648 38.5312V39.5312H179.898L180.118 39.4141L179.648 38.5312ZM164.492 38.5312L163.507 38.3625L163.306 39.5312H164.492V38.5312ZM166.211 28.4922L166.223 27.4923L165.369 27.4819L165.225 28.3234L166.211 28.4922ZM175.859 28.6094L175.847 29.6093L175.869 29.6096L175.891 29.6089L175.859 28.6094ZM180 27.3594L179.428 26.5392L179.419 26.5456L180 27.3594ZM182.578 24.2734L181.68 23.8336L181.676 23.841L181.673 23.8485L182.578 24.2734ZM183.789 20.0547L182.8 19.9099L182.798 19.9234L182.796 19.9369L183.789 20.0547ZM183.984 16.6562H182.984V16.6671L182.985 16.678L183.984 16.6562ZM183.125 13.6094L182.289 14.158L182.295 14.167L182.301 14.1759L183.125 13.6094ZM180.156 12.2422L180.211 11.2437L180.186 11.2423L180.162 11.2422L180.156 12.2422ZM173.32 12.2031L173.326 11.2031L172.48 11.1983L172.335 12.0321L173.32 12.2031ZM165.195 59V60H166.037L166.181 59.1711L165.195 59ZM153.125 59L152.14 58.8295L151.937 60H153.125V59ZM178.125 59L177.149 59.2158L177.322 60H178.125V59ZM172.539 33.7266L172.536 32.7266L171.295 32.7305L171.563 33.9424L172.539 33.7266ZM184.766 33.6875L185.735 33.4406L185.542 32.685L184.762 32.6875L184.766 33.6875ZM191.055 58.375L192.053 58.4374L192.063 58.2805L192.024 58.1281L191.055 58.375ZM191.016 59V60H191.955L192.014 59.0624L191.016 59ZM162.969 2.125L162.967 3.125L180.623 3.16406L180.625 2.16406L180.627 1.16406L162.971 1.125L162.969 2.125ZM180.625 2.16406L180.594 3.16359C183.855 3.26392 186.564 3.96409 188.762 5.2198L189.258 4.35156L189.754 3.48332C187.212 2.0307 184.166 1.27254 180.656 1.16454L180.625 2.16406ZM189.258 4.35156L188.766 5.22213C190.98 6.47375 192.62 8.24461 193.704 10.5572L194.609 10.1328L195.515 9.70838C194.255 7.02101 192.327 4.9377 189.75 3.481L189.258 4.35156ZM194.609 10.1328L193.709 10.5686C194.812 12.8451 195.255 15.6129 194.98 18.917L195.977 19L196.973 19.083C197.271 15.5121 196.803 12.3684 195.509 9.697L194.609 10.1328ZM195.977 19L194.979 18.9268C194.777 21.6759 194.225 24.0625 193.34 26.1021L194.258 26.5L195.175 26.8979C196.166 24.6146 196.759 22.0011 196.974 19.0732L195.977 19ZM194.258 26.5L193.34 26.1021C192.458 28.1369 191.211 29.8971 189.595 31.3906L190.273 32.125L190.952 32.8594C192.774 31.1758 194.183 29.186 195.175 26.8979L194.258 26.5ZM190.273 32.125L189.595 31.3902C187.992 32.8697 185.961 34.1966 183.481 35.3604L183.906 36.2656L184.331 37.1709C186.956 35.9388 189.169 34.5053 190.952 32.8598L190.273 32.125ZM183.906 36.2656L183.437 35.3828L179.179 37.6484L179.648 38.5312L180.118 39.4141L184.376 37.1484L183.906 36.2656ZM179.648 38.5312V37.5312H164.492V38.5312V39.5312H179.648V38.5312ZM164.492 38.5312L165.478 38.7L167.197 28.6609L166.211 28.4922L165.225 28.3234L163.507 38.3625L164.492 38.5312ZM166.211 28.4922L166.199 29.4921L175.847 29.6093L175.859 28.6094L175.872 27.6094L166.223 27.4923L166.211 28.4922ZM175.859 28.6094L175.891 29.6089C177.707 29.5521 179.292 29.0943 180.581 28.1731L180 27.3594L179.419 26.5456C178.521 27.187 177.345 27.5625 175.828 27.6099L175.859 28.6094ZM180 27.3594L180.572 28.1795C181.84 27.2946 182.812 26.1277 183.483 24.6983L182.578 24.2734L181.673 23.8485C181.146 24.9713 180.399 25.8616 179.428 26.5392L180 27.3594ZM182.578 24.2734L183.476 24.7133C184.155 23.3274 184.588 21.811 184.782 20.1725L183.789 20.0547L182.796 19.9369C182.626 21.3713 182.251 22.6674 181.68 23.8336L182.578 24.2734ZM183.789 20.0547L184.779 20.1995C184.944 19.071 185.011 17.8821 184.984 16.6345L183.984 16.6562L182.985 16.678C183.01 17.8262 182.947 18.903 182.8 19.9099L183.789 20.0547ZM183.984 16.6562H184.984C184.984 15.2942 184.656 14.0718 183.949 13.0428L183.125 13.6094L182.301 14.1759C182.739 14.8136 182.984 15.6225 182.984 16.6562H183.984ZM183.125 13.6094L183.961 13.0607C183.172 11.8589 181.813 11.3311 180.211 11.2437L180.156 12.2422L180.102 13.2407C181.364 13.3096 181.984 13.6932 182.289 14.158L183.125 13.6094ZM180.156 12.2422L180.162 11.2422L173.326 11.2031L173.32 12.2031L173.315 13.2031L180.151 13.2422L180.156 12.2422ZM173.32 12.2031L172.335 12.0321L164.21 58.8289L165.195 59L166.181 59.1711L174.306 12.3742L173.32 12.2031ZM165.195 59V58H153.125V59V60H165.195V59ZM153.125 59L154.11 59.1705L163.954 2.29554L162.969 2.125L161.983 1.95446L152.14 58.8295L153.125 59ZM178.125 59L179.101 58.7842L173.516 33.5107L172.539 33.7266L171.563 33.9424L177.149 59.2158L178.125 59ZM172.539 33.7266L172.542 34.7266L184.769 34.6875L184.766 33.6875L184.762 32.6875L172.536 32.7266L172.539 33.7266ZM184.766 33.6875L183.797 33.9344L190.086 58.6219L191.055 58.375L192.024 58.1281L185.735 33.4406L184.766 33.6875ZM191.055 58.375L190.057 58.3126L190.018 58.9376L191.016 59L192.014 59.0624L192.053 58.4374L191.055 58.375ZM191.016 59V58H178.125V59V60H191.016V59ZM230.938 2.125V1.125H230.092L229.951 1.95868L230.938 2.125ZM243.008 2.125L243.994 2.29245L244.192 1.125H243.008V2.125ZM236.406 40.9922L235.42 40.8247L235.418 40.8386L235.416 40.8526L236.406 40.9922ZM232.93 51.1094L232.079 50.5835L232.078 50.5857L232.93 51.1094ZM225.898 57.6719L226.355 58.5615L226.361 58.5583L225.898 57.6719ZM215.469 59.8203L215.448 60.8201L215.449 60.8201L215.469 59.8203ZM205.977 57.3594L205.447 58.2074L205.451 58.2098L205.977 57.3594ZM199.492 40.9922L198.506 40.8247L198.502 40.8528L198.498 40.881L199.492 40.9922ZM206.094 2.125V1.125H205.249L205.108 1.95755L206.094 2.125ZM218.203 2.125L219.19 2.2894L219.384 1.125H218.203V2.125ZM211.719 41.0312L210.732 40.8669L210.729 40.888L210.726 40.9094L211.719 41.0312ZM212.656 48.4531L211.882 49.0864L211.887 49.0922L211.892 49.098L212.656 48.4531ZM216.367 49.7422L216.423 48.7437L216.402 48.7426L216.382 48.7423L216.367 49.7422ZM220.82 48.7656L221.389 49.5885L221.395 49.584L221.402 49.5794L220.82 48.7656ZM223.242 45.5625L224.176 45.9215L224.178 45.9156L223.242 45.5625ZM224.375 41.0312L223.389 40.8649L223.387 40.8774L223.385 40.8898L224.375 41.0312ZM230.938 2.125V3.125H243.008V2.125V1.125H230.938V2.125ZM243.008 2.125L242.022 1.95755L235.42 40.8247L236.406 40.9922L237.392 41.1596L243.994 2.29245L243.008 2.125ZM236.406 40.9922L235.416 40.8526C234.885 44.618 233.766 47.8544 232.079 50.5835L232.93 51.1094L233.78 51.6352C235.635 48.6352 236.833 45.1268 237.396 41.1317L236.406 40.9922ZM232.93 51.1094L232.078 50.5857C230.427 53.271 228.218 55.3329 225.436 56.7854L225.898 57.6719L226.361 58.5583C229.465 56.938 231.943 54.6248 233.782 51.633L232.93 51.1094ZM225.898 57.6719L225.442 56.7822C222.674 58.2026 219.368 58.8961 215.488 58.8205L215.469 59.8203L215.449 60.8201C219.59 60.9008 223.237 60.1619 226.355 58.5615L225.898 57.6719ZM215.469 59.8203L215.489 58.8205C211.817 58.7451 208.84 57.9544 206.503 56.5089L205.977 57.3594L205.451 58.2098C208.166 59.8893 211.517 60.7393 215.448 60.8201L215.469 59.8203ZM205.977 57.3594L206.507 56.5114C204.192 55.0649 202.519 53.0474 201.476 50.427L200.547 50.7969L199.618 51.1668C200.814 54.1714 202.761 56.5288 205.447 58.2074L205.977 57.3594ZM200.547 50.7969L201.476 50.427C200.43 47.7992 200.083 44.7023 200.486 41.1034L199.492 40.9922L198.498 40.881C198.068 44.73 198.424 48.1695 199.618 51.1668L200.547 50.7969ZM199.492 40.9922L200.478 41.1596L207.08 2.29245L206.094 2.125L205.108 1.95755L198.506 40.8247L199.492 40.9922ZM206.094 2.125V3.125H218.203V2.125V1.125H206.094V2.125ZM218.203 2.125L217.217 1.9606L210.732 40.8669L211.719 41.0312L212.705 41.1956L219.19 2.2894L218.203 2.125ZM211.719 41.0312L210.726 40.9094C210.538 42.4397 210.47 43.8876 210.524 45.2509L211.523 45.2109L212.523 45.171C212.473 43.9301 212.535 42.5915 212.711 41.1531L211.719 41.0312ZM211.523 45.2109L210.524 45.2509C210.583 46.7309 211.019 48.031 211.882 49.0864L212.656 48.4531L213.43 47.8199C212.887 47.1565 212.568 46.2951 212.523 45.171L211.523 45.2109ZM212.656 48.4531L211.892 49.098C212.872 50.259 214.469 50.7144 216.352 50.7421L216.367 49.7422L216.382 48.7423C214.724 48.7179 213.847 48.3139 213.421 47.8083L212.656 48.4531ZM216.367 49.7422L216.312 50.7406C218.319 50.8522 220.05 50.5127 221.389 49.5885L220.82 48.7656L220.252 47.9427C219.403 48.529 218.165 48.8405 216.423 48.7437L216.367 49.7422ZM220.82 48.7656L221.402 49.5794C222.667 48.6752 223.59 47.4433 224.176 45.9215L223.242 45.5625L222.309 45.2035C221.852 46.3901 221.161 47.2936 220.239 47.9519L220.82 48.7656ZM223.242 45.5625L224.178 45.9156C224.727 44.4592 225.121 42.8769 225.365 41.1727L224.375 41.0312L223.385 40.8898C223.16 42.4669 222.799 43.9054 222.307 45.2094L223.242 45.5625ZM224.375 41.0312L225.361 41.1976L231.924 2.29132L230.938 2.125L229.951 1.95868L223.389 40.8649L224.375 41.0312ZM290.195 2.125L291.181 2.2962L291.384 1.125H290.195V2.125ZM280.312 59V60H281.154L281.298 59.1712L280.312 59ZM268.555 59L267.583 59.235L267.768 60H268.555V59ZM259.648 22.1641L260.62 21.9291L258.663 21.9917L259.648 22.1641ZM253.203 59V60H254.043L254.188 59.1724L253.203 59ZM241.133 59L240.147 58.8295L239.945 60H241.133V59ZM250.977 2.125V1.125H250.135L249.991 1.95446L250.977 2.125ZM262.812 2.125L263.785 1.89022L263.6 1.125H262.812V2.125ZM271.719 39L270.747 39.2348L272.704 39.1712L271.719 39ZM278.125 2.125V1.125H277.284L277.14 1.95383L278.125 2.125ZM290.195 2.125L289.21 1.9538L279.327 58.8288L280.312 59L281.298 59.1712L291.181 2.2962L290.195 2.125ZM280.312 59V58H268.555V59V60H280.312V59ZM268.555 59L269.527 58.765L260.62 21.9291L259.648 22.1641L258.676 22.3991L267.583 59.235L268.555 59ZM259.648 22.1641L258.663 21.9917L252.218 58.8276L253.203 59L254.188 59.1724L260.633 22.3364L259.648 22.1641ZM253.203 59V58H241.133V59V60H253.203V59ZM241.133 59L242.118 59.1705L251.962 2.29554L250.977 2.125L249.991 1.95446L240.147 58.8295L241.133 59ZM250.977 2.125V3.125H262.812V2.125V1.125H250.977V2.125ZM262.812 2.125L261.84 2.35978L270.747 39.2348L271.719 39L272.691 38.7652L263.785 1.89022L262.812 2.125ZM271.719 39L272.704 39.1712L279.11 2.29617L278.125 2.125L277.14 1.95383L270.734 38.8288L271.719 39ZM278.125 2.125V3.125H290.195V2.125V1.125H278.125V2.125ZM290.234 53.375L289.235 53.402L289.235 53.4036L290.234 53.375ZM292.109 48.6484L292.794 49.3771L292.795 49.3766L292.109 48.6484ZM296.914 46.7344L296.928 47.7343L296.929 47.7343L296.914 46.7344ZM301.523 48.4141L302.192 47.67L301.523 48.4141ZM303.477 52.9062L302.477 52.9203L302.477 52.9336L303.477 52.9062ZM296.836 59.4688L296.822 58.4688L296.821 58.4689L296.836 59.4688ZM292.227 57.8281L291.558 58.5722L291.566 58.5793L291.575 58.5863L292.227 57.8281ZM295.625 21.7734L294.625 21.8005L294.625 21.802L295.625 21.7734ZM297.5 17.0469L298.185 17.7755L298.185 17.7751L297.5 17.0469ZM302.305 15.1328L302.319 16.1327L302.319 16.1327L302.305 15.1328ZM308.867 21.3047L307.867 21.3188L307.868 21.3321L308.867 21.3047ZM302.227 27.8672L302.213 26.8673L302.212 26.8673L302.227 27.8672ZM297.617 26.2266L296.949 26.9706L296.957 26.9778L296.965 26.9847L297.617 26.2266ZM290.234 53.375L291.234 53.348C291.189 51.6809 291.718 50.3889 292.794 49.3771L292.109 48.6484L291.424 47.9198C289.897 49.3559 289.176 51.215 289.235 53.402L290.234 53.375ZM292.109 48.6484L292.795 49.3766C293.935 48.3032 295.295 47.757 296.928 47.7343L296.914 46.7344L296.9 45.7345C294.783 45.7639 292.94 46.4937 291.424 47.9202L292.109 48.6484ZM296.914 46.7344L296.929 47.7343C298.487 47.7117 299.776 48.1891 300.855 49.1581L301.523 48.4141L302.192 47.67C300.719 46.3474 298.935 45.705 296.9 45.7345L296.914 46.7344ZM301.523 48.4141L300.855 49.1581C301.906 50.1018 302.454 51.3259 302.477 52.9203L303.477 52.9062L304.476 52.8922C304.447 50.7887 303.693 49.018 302.192 47.67L301.523 48.4141ZM303.477 52.9062L302.477 52.9336C302.522 54.57 301.996 55.8504 300.917 56.8651L301.602 57.5938L302.286 58.3224C303.811 56.8891 304.536 55.0446 304.476 52.8789L303.477 52.9062ZM301.602 57.5938L300.917 56.8651C299.806 57.909 298.461 58.4461 296.822 58.4688L296.836 59.4688L296.85 60.4687C298.961 60.4393 300.793 59.7264 302.286 58.3224L301.602 57.5938ZM296.836 59.4688L296.821 58.4689C295.286 58.4914 293.989 58.025 292.879 57.0699L292.227 57.8281L291.575 58.5863C293.068 59.8708 294.844 60.4982 296.851 60.4686L296.836 59.4688ZM292.227 57.8281L292.895 57.0841C291.836 56.1338 291.279 54.9149 291.234 53.3464L290.234 53.375L289.235 53.4036C289.294 55.4809 290.065 57.2307 291.558 58.5722L292.227 57.8281ZM295.625 21.7734L296.625 21.7464C296.58 20.0793 297.108 18.7873 298.185 17.7755L297.5 17.0469L296.815 16.3182C295.287 17.7543 294.566 19.6134 294.625 21.8005L295.625 21.7734ZM297.5 17.0469L298.185 17.7751C299.326 16.7016 300.686 16.1554 302.319 16.1327L302.305 15.1328L302.291 14.1329C300.174 14.1623 298.33 14.8921 296.815 16.3187L297.5 17.0469ZM302.305 15.1328L302.319 16.1327C303.878 16.1101 305.167 16.5875 306.246 17.5565L306.914 16.8125L307.582 16.0685C306.109 14.7458 304.325 14.1034 302.29 14.1329L302.305 15.1328ZM306.914 16.8125L306.246 17.5565C307.297 18.5003 307.845 19.7243 307.867 21.3188L308.867 21.3047L309.867 21.2906C309.837 19.1871 309.083 17.4164 307.582 16.0685L306.914 16.8125ZM308.867 21.3047L307.868 21.3321C307.912 22.9684 307.387 24.2489 306.307 25.2636L306.992 25.9922L307.677 26.7208C309.202 25.2876 309.926 23.443 309.867 21.2773L308.867 21.3047ZM306.992 25.9922L306.307 25.2636C305.197 26.3074 303.852 26.8445 302.213 26.8673L302.227 27.8672L302.24 28.8671C304.352 28.8378 306.183 28.1249 307.677 26.7208L306.992 25.9922ZM302.227 27.8672L302.212 26.8673C300.677 26.8899 299.38 26.4235 298.269 25.4684L297.617 26.2266L296.965 26.9847C298.459 28.2692 300.234 28.8966 302.241 28.8671L302.227 27.8672ZM297.617 26.2266L298.285 25.4825C297.227 24.5323 296.669 23.3134 296.625 21.7449L295.625 21.7734L294.625 21.802C294.685 23.8793 295.455 25.6292 296.949 26.9706L297.617 26.2266ZM363.086 48.9609L364.071 49.1334L364.276 47.9609H363.086V48.9609ZM361.328 59V60H362.168L362.313 59.1725L361.328 59ZM337.227 59L336.242 58.8275L336.036 60H337.227V59ZM338.984 48.9609V47.9609H338.144L337.999 48.7885L338.984 48.9609ZM351.094 2.125L352.079 2.29554L352.282 1.125H351.094V2.125ZM341.25 59V60H342.092L342.235 59.1705L341.25 59ZM329.18 59L328.194 58.8295L327.992 60H329.18V59ZM339.023 2.125V1.125H338.182L338.038 1.95446L339.023 2.125ZM364.102 24.9375L365.086 25.1122L365.295 23.9375H364.102V24.9375ZM362.383 34.625V35.625H363.221L363.367 34.7997L362.383 34.625ZM341.445 34.625L340.461 34.4503L340.252 35.625H341.445V34.625ZM343.164 24.9375V23.9375H342.326L342.179 24.7628L343.164 24.9375ZM371.211 2.125L372.196 2.29683L372.4 1.125H371.211V2.125ZM369.453 12.2031V13.2031H370.294L370.438 12.375L369.453 12.2031ZM345.312 12.2031L344.327 12.0313L344.123 13.2031H345.312V12.2031ZM347.07 2.125V1.125H346.23L346.085 1.95317L347.07 2.125ZM363.086 48.9609L362.101 48.7885L360.343 58.8275L361.328 59L362.313 59.1725L364.071 49.1334L363.086 48.9609ZM361.328 59V58H337.227V59V60H361.328V59ZM337.227 59L338.212 59.1725L339.969 49.1334L338.984 48.9609L337.999 48.7885L336.242 58.8275L337.227 59ZM338.984 48.9609V49.9609H363.086V48.9609V47.9609H338.984V48.9609ZM351.094 2.125L350.108 1.95446L340.265 58.8295L341.25 59L342.235 59.1705L352.079 2.29554L351.094 2.125ZM341.25 59V58H329.18V59V60H341.25V59ZM329.18 59L330.165 59.1705L340.009 2.29554L339.023 2.125L338.038 1.95446L328.194 58.8295L329.18 59ZM339.023 2.125V3.125H351.094V2.125V1.125H339.023V2.125ZM364.102 24.9375L363.117 24.7628L361.398 34.4503L362.383 34.625L363.367 34.7997L365.086 25.1122L364.102 24.9375ZM362.383 34.625V33.625H341.445V34.625V35.625H362.383V34.625ZM341.445 34.625L342.43 34.7997L344.149 25.1122L343.164 24.9375L342.179 24.7628L340.461 34.4503L341.445 34.625ZM343.164 24.9375V25.9375H364.102V24.9375V23.9375H343.164V24.9375ZM371.211 2.125L370.226 1.95317L368.468 12.0313L369.453 12.2031L370.438 12.375L372.196 2.29683L371.211 2.125ZM369.453 12.2031V11.2031H345.312V12.2031V13.2031H369.453V12.2031ZM345.312 12.2031L346.298 12.375L348.055 2.29683L347.07 2.125L346.085 1.95317L344.327 12.0313L345.312 12.2031ZM347.07 2.125V3.125H371.211V2.125V1.125H347.07V2.125ZM387.188 2.125L388.168 1.92888L388.007 1.125H387.188V2.125ZM391.016 21.2656L390.035 21.4617L390.599 24.2823L391.906 21.7201L391.016 21.2656ZM400.781 2.125V1.125H400.169L399.891 1.67053L400.781 2.125ZM415 2.125L415.856 2.64155L416.771 1.125H415V2.125ZM397.656 30.875L396.8 30.3585L396.573 30.7346L396.697 31.1562L397.656 30.875ZM405.898 59V60H407.234L406.858 58.7188L405.898 59ZM392.461 59L391.48 59.1927L391.638 60H392.461V59ZM388.633 39.5078L389.614 39.3151L389.06 36.4942L387.744 39.0499L388.633 39.5078ZM378.594 59V60H379.204L379.483 59.4579L378.594 59ZM364.18 59L363.326 58.4795L362.399 60H364.18V59ZM381.992 29.7812L382.846 30.3018L383.076 29.9239L382.952 29.4994L381.992 29.7812ZM373.867 2.125V1.125H372.531L372.908 2.40687L373.867 2.125ZM387.188 2.125L386.207 2.32112L390.035 21.4617L391.016 21.2656L391.996 21.0695L388.168 1.92888L387.188 2.125ZM391.016 21.2656L391.906 21.7201L401.672 2.57947L400.781 2.125L399.891 1.67053L390.125 20.8112L391.016 21.2656ZM400.781 2.125V3.125H415V2.125V1.125H400.781V2.125ZM415 2.125L414.144 1.60845L396.8 30.3585L397.656 30.875L398.513 31.3915L415.856 2.64155L415 2.125ZM397.656 30.875L396.697 31.1562L404.939 59.2812L405.898 59L406.858 58.7188L398.616 30.5938L397.656 30.875ZM405.898 59V58H392.461V59V60H405.898V59ZM392.461 59L393.442 58.8073L389.614 39.3151L388.633 39.5078L387.652 39.7005L391.48 59.1927L392.461 59ZM388.633 39.5078L387.744 39.0499L377.705 58.5421L378.594 59L379.483 59.4579L389.522 39.9657L388.633 39.5078ZM378.594 59V58H364.18V59V60H378.594V59ZM364.18 59L365.034 59.5205L382.846 30.3018L381.992 29.7812L381.138 29.2607L363.326 58.4795L364.18 59ZM381.992 29.7812L382.952 29.4994L374.827 1.84313L373.867 2.125L372.908 2.40687L381.033 30.0631L381.992 29.7812ZM373.867 2.125V3.125H387.188V2.125V1.125H373.867V2.125ZM433.906 39.3906L433.913 38.3906L433.91 38.3906L433.906 39.3906ZM422.07 39.3516L421.085 39.1797L420.881 40.3476L422.067 40.3516L422.07 39.3516ZM423.828 29.2734L423.835 28.2735L422.989 28.2672L422.843 29.1016L423.828 29.2734ZM434.453 29.3516L434.446 30.3515L434.457 30.3516L434.469 30.3514L434.453 29.3516ZM438.555 28.1797L439.123 29.0026L439.127 28.9998L438.555 28.1797ZM441.172 25.1328L440.281 24.6783L440.277 24.6856L441.172 25.1328ZM442.461 20.9531L441.471 20.8149L441.47 20.8165L442.461 20.9531ZM442.617 17.3203L441.618 17.3595L441.618 17.3603L442.617 17.3203ZM441.641 13.8828L440.775 14.3838L440.783 14.3974L440.791 14.4107L441.641 13.8828ZM438.594 12.2422L438.665 11.2447L438.632 11.2424L438.599 11.2422L438.594 12.2422ZM431.016 12.2031L431.021 11.2031L430.175 11.1988L430.03 12.0321L431.016 12.2031ZM422.891 59V60H423.732L423.876 59.1711L422.891 59ZM410.82 59L409.835 58.8295L409.632 60H410.82V59ZM420.664 2.125L420.666 1.125L419.823 1.12321L419.679 1.95446L420.664 2.125ZM439.062 2.16406L439.092 1.1645L439.078 1.16409L439.065 1.16406L439.062 2.16406ZM454.648 20.875L453.652 20.7913L453.652 20.7931L454.648 20.875ZM451.367 30.7188L450.54 30.1569L450.536 30.1622L451.367 30.7188ZM444.062 37.1641L444.51 38.0585L444.516 38.0554L444.062 37.1641ZM433.906 39.3906L433.91 38.3906L422.074 38.3516L422.07 39.3516L422.067 40.3516L433.903 40.3906L433.906 39.3906ZM422.07 39.3516L423.055 39.5234L424.813 29.4453L423.828 29.2734L422.843 29.1016L421.085 39.1797L422.07 39.3516ZM423.828 29.2734L423.821 30.2734L434.446 30.3515L434.453 29.3516L434.46 28.3516L423.835 28.2735L423.828 29.2734ZM434.453 29.3516L434.469 30.3514C436.261 30.323 437.832 29.8939 439.123 29.0026L438.555 28.1797L437.987 27.3568C437.09 27.9759 435.927 28.328 434.437 28.3517L434.453 29.3516ZM438.555 28.1797L439.127 28.9998C440.387 28.1208 441.368 26.9756 442.066 25.58L441.172 25.1328L440.277 24.6856C439.725 25.79 438.962 26.6761 437.983 27.3596L438.555 28.1797ZM441.172 25.1328L442.063 25.5873C442.768 24.2054 443.229 22.7038 443.452 21.0898L442.461 20.9531L441.47 20.8165C441.276 22.2233 440.878 23.5082 440.281 24.6783L441.172 25.1328ZM442.461 20.9531L443.451 21.0913C443.617 19.9044 443.671 18.6332 443.616 17.2803L442.617 17.3203L441.618 17.3603C441.668 18.6116 441.617 19.7623 441.471 20.8149L442.461 20.9531ZM442.617 17.3203L443.616 17.2811C443.559 15.8098 443.195 14.4891 442.49 13.3549L441.641 13.8828L440.791 14.4107C441.284 15.2036 441.572 16.1746 441.618 17.3595L442.617 17.3203ZM441.641 13.8828L442.506 13.3818C441.721 12.026 440.351 11.3651 438.665 11.2447L438.594 12.2422L438.522 13.2396C439.753 13.3276 440.414 13.7604 440.775 14.3838L441.641 13.8828ZM438.594 12.2422L438.599 11.2422L431.021 11.2031L431.016 12.2031L431.01 13.2031L438.589 13.2422L438.594 12.2422ZM431.016 12.2031L430.03 12.0321L421.905 58.8289L422.891 59L423.876 59.1711L432.001 12.3742L431.016 12.2031ZM422.891 59V58H410.82V59V60H422.891V59ZM410.82 59L411.806 59.1705L421.649 2.29554L420.664 2.125L419.679 1.95446L409.835 58.8295L410.82 59ZM420.664 2.125L420.662 3.125L439.06 3.16406L439.062 2.16406L439.065 1.16406L420.666 1.125L420.664 2.125ZM439.062 2.16406L439.033 3.16363C442.419 3.26322 445.202 4.11855 447.435 5.67902L448.008 4.85938L448.581 4.03973C445.97 2.21478 442.789 1.27324 439.092 1.1645L439.062 2.16406ZM448.008 4.85938L447.435 5.67902C449.697 7.25975 451.36 9.34542 452.435 11.9584L453.359 11.5781L454.284 11.1978C453.067 8.23791 451.163 5.84441 448.581 4.03973L448.008 4.85938ZM453.359 11.5781L452.435 11.9584C453.512 14.5792 453.927 17.5163 453.652 20.7913L454.648 20.875L455.645 20.9587C455.943 17.4108 455.498 14.15 454.284 11.1978L453.359 11.5781ZM454.648 20.875L453.652 20.7931C453.351 24.4482 452.305 27.5585 450.54 30.1569L451.367 30.7188L452.194 31.2806C454.18 28.3581 455.32 24.906 455.645 20.9569L454.648 20.875ZM451.367 30.7188L450.536 30.1622C448.785 32.7777 446.481 34.8121 443.609 36.2727L444.062 37.1641L444.516 38.0554C447.686 36.4431 450.252 34.1807 452.198 31.2753L451.367 30.7188ZM444.062 37.1641L443.615 36.2696C440.75 37.7021 437.523 38.4157 433.913 38.3906L433.906 39.3906L433.899 40.3906C437.789 40.4176 441.333 39.6469 444.51 38.0585L444.062 37.1641ZM488.125 48.9609L489.11 49.1334L489.315 47.9609H488.125V48.9609ZM486.367 59V60H487.207L487.352 59.1725L486.367 59ZM463.242 59L462.257 58.8312L462.056 60H463.242V59ZM464.961 48.9609V47.9609H464.118L463.975 48.7922L464.961 48.9609ZM477.109 2.125L478.095 2.29554L478.297 1.125H477.109V2.125ZM467.266 59V60H468.107L468.251 59.1705L467.266 59ZM455.195 59L454.21 58.8295L454.007 60H455.195V59ZM465.039 2.125V1.125H464.197L464.054 1.95446L465.039 2.125ZM488.125 48.9609L487.14 48.7885L485.382 58.8275L486.367 59L487.352 59.1725L489.11 49.1334L488.125 48.9609ZM486.367 59V58H463.242V59V60H486.367V59ZM463.242 59L464.228 59.1688L465.947 49.1297L464.961 48.9609L463.975 48.7922L462.257 58.8312L463.242 59ZM464.961 48.9609V49.9609H488.125V48.9609V47.9609H464.961V48.9609ZM477.109 2.125L476.124 1.95446L466.28 58.8295L467.266 59L468.251 59.1705L478.095 2.29554L477.109 2.125ZM467.266 59V58H455.195V59V60H467.266V59ZM455.195 59L456.181 59.1705L466.024 2.29554L465.039 2.125L464.054 1.95446L454.21 58.8295L455.195 59ZM465.039 2.125V3.125H477.109V2.125V1.125H465.039V2.125ZM534.844 26.1094L535.833 26.2585L535.834 26.2486L535.835 26.2387L534.844 26.1094ZM533.477 35.1719L532.488 35.0227L532.487 35.0282L533.477 35.1719ZM530.977 44.5078L530.048 44.1364L530.046 44.1406L530.977 44.5078ZM526.328 52.4766L525.556 51.8415L525.555 51.8424L526.328 52.4766ZM519.336 57.9453L519.763 58.8498L519.769 58.8464L519.336 57.9453ZM509.805 59.7812L509.782 60.781L509.783 60.781L509.805 59.7812ZM495.742 51.9688L494.87 52.4585L495.742 51.9688ZM493.164 44.1562L492.173 44.2902L492.174 44.2989L493.164 44.1562ZM493.125 35.2891L492.136 35.1399L492.134 35.1545L492.132 35.1692L493.125 35.2891ZM494.492 26.2266L493.504 26.0751L493.503 26.0774L494.492 26.2266ZM496.953 16.8906L496.022 16.5262L496.019 16.5333L496.953 16.8906ZM501.641 8.84375L502.412 9.47976L502.416 9.47561L501.641 8.84375ZM518.32 1.34375L518.292 2.34336L518.298 2.34349L518.32 1.34375ZM526.914 3.64844L526.377 4.49217L526.388 4.49911L526.914 3.64844ZM532.305 9.35156L531.424 9.8257L531.431 9.83721L532.305 9.35156ZM534.844 17.2422L533.853 17.3749L534.844 17.2422ZM521.328 35.2891L520.339 35.1423L520.337 35.1547L521.328 35.2891ZM522.695 26.0703L523.685 26.217L523.686 26.207L523.687 26.1969L522.695 26.0703ZM522.969 17.0859L521.978 17.2181L521.979 17.2274L521.98 17.2367L522.969 17.0859ZM521.367 13.1797L520.579 13.795L520.587 13.8056L520.596 13.8161L521.367 13.1797ZM517.422 11.4609L517.357 12.4588L517.368 12.4595L517.378 12.46L517.422 11.4609ZM512.461 12.6719L513.034 13.4912L513.045 13.4834L512.461 12.6719ZM509.336 16.3438L508.445 15.8905L508.441 15.8965L509.336 16.3438ZM507.578 21.2266L506.605 20.9943L506.603 21.0049L507.578 21.2266ZM506.68 26.1484L507.669 26.2916L507.671 26.2806L506.68 26.1484ZM505.352 35.3281L504.362 35.1849L504.361 35.1932L504.36 35.2015L505.352 35.3281ZM504.922 39.5859L503.925 39.5056L503.924 39.513L503.924 39.5205L504.922 39.5859ZM505.078 44.2734L504.087 44.4078L504.088 44.4173L504.09 44.4268L505.078 44.2734ZM506.68 48.0625L505.907 48.6968L505.911 48.7027L505.916 48.7084L506.68 48.0625ZM510.664 49.7031L510.717 48.7045L510.707 48.7041L510.664 49.7031ZM515.508 48.5312L516.078 49.3528L516.081 49.3505L515.508 48.5312ZM520.391 40.1719L519.419 39.9363L519.416 39.947L520.391 40.1719ZM534.844 26.1094L533.855 25.9602L532.488 35.0227L533.477 35.1719L534.465 35.321L535.833 26.2585L534.844 26.1094ZM533.477 35.1719L532.487 35.0282C532.029 38.1802 531.216 41.2157 530.048 44.1364L530.977 44.5078L531.905 44.8792C533.133 41.8103 533.986 38.6218 534.466 35.3155L533.477 35.1719ZM530.977 44.5078L530.046 44.1406C528.911 47.0175 527.413 49.5823 525.556 51.8415L526.328 52.4766L527.101 53.1117C529.097 50.6833 530.699 47.9357 531.907 44.875L530.977 44.5078ZM526.328 52.4766L525.555 51.8424C523.748 54.0449 521.534 55.7778 518.902 57.0442L519.336 57.9453L519.769 58.8464C522.658 57.4566 525.106 55.5436 527.101 53.1107L526.328 52.4766ZM519.336 57.9453L518.909 57.0409C516.312 58.2661 513.293 58.8568 509.826 58.7815L509.805 59.7812L509.783 60.781C513.504 60.8619 516.839 60.2287 519.763 58.8497L519.336 57.9453ZM509.805 59.7812L509.827 58.7815C506.519 58.7063 503.823 57.9938 501.691 56.6997L501.172 57.5547L500.653 58.4096C503.156 59.9281 506.216 60.6999 509.782 60.781L509.805 59.7812ZM501.172 57.5547L501.691 56.6997C499.517 55.3809 497.83 53.6435 496.614 51.479L495.742 51.9688L494.87 52.4585C496.258 54.9294 498.191 56.9159 500.653 58.4096L501.172 57.5547ZM495.742 51.9688L496.614 51.479C495.378 49.2788 494.555 46.7943 494.154 44.0136L493.164 44.1562L492.174 44.2989C492.607 47.2995 493.502 50.0233 494.87 52.4585L495.742 51.9688ZM493.164 44.1562L494.155 44.0223C493.776 41.2194 493.763 38.349 494.118 35.4089L493.125 35.2891L492.132 35.1692C491.758 38.2707 491.771 41.3118 492.173 44.2902L493.164 44.1562ZM493.125 35.2891L494.114 35.4382L495.481 26.3757L494.492 26.2266L493.503 26.0774L492.136 35.1399L493.125 35.2891ZM494.492 26.2266L495.481 26.378C495.965 23.2179 496.767 20.175 497.887 17.248L496.953 16.8906L496.019 16.5333C494.847 19.5958 494.009 22.7769 493.504 26.0751L494.492 26.2266ZM496.953 16.8906L497.884 17.255C499.02 14.354 500.53 11.7642 502.412 9.47975L501.641 8.84375L500.869 8.20775C498.845 10.6629 497.23 13.4377 496.022 16.5262L496.953 16.8906ZM501.641 8.84375L502.416 9.47561C504.278 7.19089 506.521 5.40687 509.151 4.11654L508.711 3.21875L508.271 2.32096C505.38 3.73896 502.909 5.70494 500.866 8.21189L501.641 8.84375ZM508.711 3.21875L509.151 4.11654C511.741 2.84606 514.778 2.24295 518.292 2.34334L518.32 1.34375L518.349 0.344158C514.571 0.236216 511.202 0.883103 508.271 2.32096L508.711 3.21875ZM518.32 1.34375L518.298 2.34349C521.601 2.41856 524.275 3.1546 526.377 4.4921L526.914 3.64844L527.451 2.80478C524.969 1.22561 521.915 0.42519 518.343 0.344008L518.32 1.34375ZM526.914 3.64844L526.388 4.49911C528.559 5.84036 530.232 7.61232 531.424 9.82566L532.305 9.35156L533.185 8.87746C531.825 6.35122 529.905 4.3211 527.44 2.79777L526.914 3.64844ZM532.305 9.35156L531.431 9.83721C532.666 12.0615 533.477 14.5701 533.853 17.3749L534.844 17.2422L535.835 17.1094C535.429 14.081 534.547 11.3291 533.179 8.86592L532.305 9.35156ZM534.844 17.2422L533.853 17.3749C534.231 20.2024 534.232 23.0699 533.852 25.98L534.844 26.1094L535.835 26.2387C536.237 23.1592 536.237 20.1153 535.835 17.1094L534.844 17.2422ZM521.328 35.2891L522.317 35.4358L523.685 26.217L522.695 26.0703L521.706 25.9236L520.339 35.1424L521.328 35.2891ZM522.695 26.0703L523.687 26.1969C523.846 24.9537 523.991 23.5185 524.122 21.8929L523.125 21.8125L522.128 21.7321C521.999 23.3357 521.857 24.739 521.703 25.9437L522.695 26.0703ZM523.125 21.8125L524.122 21.8929C524.258 20.2044 524.204 18.5512 523.957 16.9351L522.969 17.0859L521.98 17.2367C522.202 18.6936 522.253 20.1914 522.128 21.7321L523.125 21.8125ZM522.969 17.0859L523.96 16.9538C523.731 15.2375 523.136 13.7519 522.139 12.5433L521.367 13.1797L520.596 13.8161C521.318 14.6908 521.79 15.8094 521.978 17.2181L522.969 17.0859ZM521.367 13.1797L522.156 12.5644C521.088 11.1961 519.453 10.5483 517.465 10.4619L517.422 11.4609L517.378 12.46C518.985 12.5298 519.98 13.0279 520.579 13.795L521.367 13.1797ZM517.422 11.4609L517.487 10.463C515.31 10.3217 513.411 10.7559 511.877 11.8603L512.461 12.6719L513.045 13.4834C514.116 12.7128 515.523 12.3398 517.357 12.4588L517.422 11.4609ZM512.461 12.6719L511.887 11.8526C510.44 12.866 509.294 14.2205 508.445 15.8905L509.336 16.3438L510.227 16.797C510.941 15.3941 511.878 14.3007 513.034 13.4911L512.461 12.6719ZM509.336 16.3438L508.441 15.8965C507.65 17.4795 507.039 19.1797 506.605 20.9943L507.578 21.2266L508.551 21.4588C508.951 19.7838 509.511 18.2289 510.23 16.791L509.336 16.3438ZM507.578 21.2266L506.603 21.0049C506.206 22.7499 505.901 24.4205 505.688 26.0163L506.68 26.1484L507.671 26.2806C507.875 24.7514 508.169 23.1408 508.553 21.4482L507.578 21.2266ZM506.68 26.1484L505.69 26.0052L504.362 35.1849L505.352 35.3281L506.341 35.4713L507.669 26.2916L506.68 26.1484ZM505.352 35.3281L504.36 35.2015C504.201 36.4447 504.056 37.88 503.925 39.5056L504.922 39.5859L505.919 39.6663C506.048 38.0627 506.19 36.6595 506.344 35.4548L505.352 35.3281ZM504.922 39.5859L503.924 39.5205C503.816 41.1739 503.87 42.8034 504.087 44.4078L505.078 44.2734L506.069 44.1391C505.87 42.6706 505.82 41.175 505.92 39.6514L504.922 39.5859ZM505.078 44.2734L504.09 44.4268C504.347 46.0846 504.942 47.5218 505.907 48.6968L506.68 48.0625L507.453 47.4282C506.75 46.572 506.278 45.4831 506.066 44.1201L505.078 44.2734ZM506.68 48.0625L505.916 48.7084C507.013 50.0042 508.647 50.6164 510.621 50.7022L510.664 49.7031L510.707 48.7041C509.087 48.6336 508.065 48.152 507.443 47.4166L506.68 48.0625ZM510.664 49.7031L510.611 50.7017C512.727 50.8146 514.577 50.3945 516.078 49.3528L515.508 48.5312L514.938 47.7097C513.887 48.4388 512.507 48.8 510.717 48.7045L510.664 49.7031ZM515.508 48.5312L516.081 49.3505C517.521 48.3426 518.667 47.0205 519.518 45.4032L518.633 44.9375L517.748 44.4718C517.037 45.8232 516.099 46.897 514.934 47.712L515.508 48.5312ZM518.633 44.9375L519.518 45.4032C520.34 43.8401 520.956 42.1703 521.365 40.3967L520.391 40.1719L519.416 39.947C519.044 41.5589 518.488 43.0662 517.748 44.4718L518.633 44.9375ZM520.391 40.1719L521.362 40.4075C521.786 38.6599 522.106 36.9983 522.319 35.4234L521.328 35.2891L520.337 35.1547C520.134 36.6528 519.828 38.2464 519.419 39.9363L520.391 40.1719ZM546.562 2.125L546.565 1.125L545.721 1.12314L545.577 1.95446L546.562 2.125ZM564.219 2.16406L564.25 1.16454L564.235 1.1641L564.221 1.16406L564.219 2.16406ZM572.852 4.35156L572.355 5.21981L572.359 5.22213L572.852 4.35156ZM578.203 10.1328L577.298 10.5573L577.303 10.5686L578.203 10.1328ZM579.57 19L578.574 18.917L578.573 18.9268L579.57 19ZM573.867 32.125L574.545 32.8598L574.546 32.8594L573.867 32.125ZM567.5 36.2656L567.075 35.3604L567.052 35.371L567.03 35.3828L567.5 36.2656ZM563.242 38.5312V39.5312H563.492L563.712 39.4141L563.242 38.5312ZM548.086 38.5312L547.1 38.3625L546.9 39.5312H548.086V38.5312ZM549.805 28.4922L549.817 27.4923L548.963 27.4819L548.819 28.3234L549.805 28.4922ZM559.453 28.6094L559.441 29.6093L559.463 29.6096L559.484 29.6089L559.453 28.6094ZM563.594 27.3594L563.022 26.5392L563.013 26.5456L563.594 27.3594ZM566.172 24.2734L565.274 23.8336L565.27 23.841L565.267 23.8485L566.172 24.2734ZM567.383 20.0547L566.393 19.9099L566.391 19.9234L566.39 19.9369L567.383 20.0547ZM567.578 16.6562H566.578V16.6671L566.578 16.678L567.578 16.6562ZM566.719 13.6094L565.883 14.158L565.889 14.167L565.895 14.1759L566.719 13.6094ZM563.75 12.2422L563.804 11.2437L563.78 11.2423L563.756 11.2422L563.75 12.2422ZM556.914 12.2031L556.92 11.2031L556.074 11.1983L555.929 12.0321L556.914 12.2031ZM548.789 59V60H549.63L549.774 59.1711L548.789 59ZM536.719 59L535.733 58.8295L535.531 60H536.719V59ZM561.719 59L560.742 59.2158L560.916 60H561.719V59ZM556.133 33.7266L556.13 32.7266L554.889 32.7305L555.156 33.9424L556.133 33.7266ZM568.359 33.6875L569.328 33.4406L569.136 32.685L568.356 32.6875L568.359 33.6875ZM574.648 58.375L575.646 58.4374L575.656 58.2805L575.617 58.1281L574.648 58.375ZM574.609 59V60H575.549L575.607 59.0624L574.609 59ZM546.562 2.125L546.56 3.125L564.217 3.16406L564.219 2.16406L564.221 1.16406L546.565 1.125L546.562 2.125ZM564.219 2.16406L564.188 3.16359C567.449 3.26392 570.158 3.96409 572.355 5.2198L572.852 4.35156L573.348 3.48332C570.806 2.0307 567.76 1.27254 564.25 1.16454L564.219 2.16406ZM572.852 4.35156L572.359 5.22213C574.574 6.47375 576.214 8.24461 577.298 10.5572L578.203 10.1328L579.109 9.70838C577.849 7.02101 575.921 4.9377 573.344 3.481L572.852 4.35156ZM578.203 10.1328L577.303 10.5686C578.405 12.8451 578.849 15.6129 578.574 18.917L579.57 19L580.567 19.083C580.864 15.5121 580.397 12.3684 579.103 9.697L578.203 10.1328ZM579.57 19L578.573 18.9268C578.371 21.6759 577.819 24.0625 576.934 26.1021L577.852 26.5L578.769 26.8979C579.759 24.6146 580.353 22.0011 580.568 19.0732L579.57 19ZM577.852 26.5L576.934 26.1021C576.052 28.1369 574.804 29.8971 573.188 31.3906L573.867 32.125L574.546 32.8594C576.367 31.1758 577.777 29.186 578.769 26.8979L577.852 26.5ZM573.867 32.125L573.189 31.3902C571.586 32.8697 569.554 34.1966 567.075 35.3604L567.5 36.2656L567.925 37.1709C570.55 35.9388 572.763 34.5053 574.545 32.8598L573.867 32.125ZM567.5 36.2656L567.03 35.3828L562.772 37.6484L563.242 38.5312L563.712 39.4141L567.97 37.1484L567.5 36.2656ZM563.242 38.5312V37.5312H548.086V38.5312V39.5312H563.242V38.5312ZM548.086 38.5312L549.072 38.7L550.79 28.6609L549.805 28.4922L548.819 28.3234L547.1 38.3625L548.086 38.5312ZM549.805 28.4922L549.793 29.4921L559.441 29.6093L559.453 28.6094L559.465 27.6094L549.817 27.4923L549.805 28.4922ZM559.453 28.6094L559.484 29.6089C561.301 29.5521 562.885 29.0943 564.175 28.1731L563.594 27.3594L563.013 26.5456C562.115 27.187 560.939 27.5625 559.422 27.6099L559.453 28.6094ZM563.594 27.3594L564.166 28.1795C565.434 27.2946 566.406 26.1277 567.077 24.6983L566.172 24.2734L565.267 23.8485C564.74 24.9713 563.993 25.8616 563.022 26.5392L563.594 27.3594ZM566.172 24.2734L567.07 24.7133C567.749 23.3274 568.181 21.811 568.376 20.1725L567.383 20.0547L566.39 19.9369C566.22 21.3713 565.845 22.6674 565.274 23.8336L566.172 24.2734ZM567.383 20.0547L568.372 20.1995C568.537 19.071 568.605 17.8821 568.578 16.6345L567.578 16.6562L566.578 16.678C566.603 17.8262 566.541 18.903 566.393 19.9099L567.383 20.0547ZM567.578 16.6562H568.578C568.578 15.2942 568.25 14.0718 567.543 13.0428L566.719 13.6094L565.895 14.1759C566.333 14.8136 566.578 15.6225 566.578 16.6562H567.578ZM566.719 13.6094L567.555 13.0607C566.766 11.8589 565.407 11.3311 563.804 11.2437L563.75 12.2422L563.696 13.2407C564.958 13.3096 565.578 13.6932 565.883 14.158L566.719 13.6094ZM563.75 12.2422L563.756 11.2422L556.92 11.2031L556.914 12.2031L556.908 13.2031L563.744 13.2422L563.75 12.2422ZM556.914 12.2031L555.929 12.0321L547.804 58.8289L548.789 59L549.774 59.1711L557.899 12.3742L556.914 12.2031ZM548.789 59V58H536.719V59V60H548.789V59ZM536.719 59L537.704 59.1705L547.548 2.29554L546.562 2.125L545.577 1.95446L535.733 58.8295L536.719 59ZM561.719 59L562.695 58.7842L557.109 33.5107L556.133 33.7266L555.156 33.9424L560.742 59.2158L561.719 59ZM556.133 33.7266L556.136 34.7266L568.363 34.6875L568.359 33.6875L568.356 32.6875L556.13 32.7266L556.133 33.7266ZM568.359 33.6875L567.39 33.9344L573.679 58.6219L574.648 58.375L575.617 58.1281L569.328 33.4406L568.359 33.6875ZM574.648 58.375L573.65 58.3126L573.611 58.9376L574.609 59L575.607 59.0624L575.646 58.4374L574.648 58.375ZM574.609 59V58H561.719V59V60H574.609V59ZM614.023 48.9609L615.008 49.1334L615.214 47.9609H614.023V48.9609ZM612.266 59V60H613.106L613.251 59.1725L612.266 59ZM588.164 59L587.179 58.8275L586.974 60H588.164V59ZM589.922 48.9609V47.9609H589.082L588.937 48.7885L589.922 48.9609ZM602.031 2.125L603.017 2.29554L603.219 1.125H602.031V2.125ZM592.188 59V60H593.029L593.173 59.1705L592.188 59ZM580.117 59L579.132 58.8295L578.929 60H580.117V59ZM589.961 2.125V1.125H589.119L588.976 1.95446L589.961 2.125ZM615.039 24.9375L616.024 25.1122L616.232 23.9375H615.039V24.9375ZM613.32 34.625V35.625H614.159L614.305 34.7997L613.32 34.625ZM592.383 34.625L591.398 34.4503L591.19 35.625H592.383V34.625ZM594.102 24.9375V23.9375H593.263L593.117 24.7628L594.102 24.9375ZM622.148 2.125L623.134 2.29683L623.338 1.125H622.148V2.125ZM620.391 12.2031V13.2031H621.231L621.376 12.375L620.391 12.2031ZM596.25 12.2031L595.265 12.0313L595.06 13.2031H596.25V12.2031ZM598.008 2.125V1.125H597.167L597.023 1.95317L598.008 2.125ZM614.023 48.9609L613.038 48.7885L611.281 58.8275L612.266 59L613.251 59.1725L615.008 49.1334L614.023 48.9609ZM612.266 59V58H588.164V59V60H612.266V59ZM588.164 59L589.149 59.1725L590.907 49.1334L589.922 48.9609L588.937 48.7885L587.179 58.8275L588.164 59ZM589.922 48.9609V49.9609H614.023V48.9609V47.9609H589.922V48.9609ZM602.031 2.125L601.046 1.95446L591.202 58.8295L592.188 59L593.173 59.1705L603.017 2.29554L602.031 2.125ZM592.188 59V58H580.117V59V60H592.188V59ZM580.117 59L581.103 59.1705L590.946 2.29554L589.961 2.125L588.976 1.95446L579.132 58.8295L580.117 59ZM589.961 2.125V3.125H602.031V2.125V1.125H589.961V2.125ZM615.039 24.9375L614.054 24.7628L612.336 34.4503L613.32 34.625L614.305 34.7997L616.024 25.1122L615.039 24.9375ZM613.32 34.625V33.625H592.383V34.625V35.625H613.32V34.625ZM592.383 34.625L593.367 34.7997L595.086 25.1122L594.102 24.9375L593.117 24.7628L591.398 34.4503L592.383 34.625ZM594.102 24.9375V25.9375H615.039V24.9375V23.9375H594.102V24.9375ZM622.148 2.125L621.163 1.95317L619.406 12.0313L620.391 12.2031L621.376 12.375L623.134 2.29683L622.148 2.125ZM620.391 12.2031V11.2031H596.25V12.2031V13.2031H620.391V12.2031ZM596.25 12.2031L597.235 12.375L598.993 2.29683L598.008 2.125L597.023 1.95317L595.265 12.0313L596.25 12.2031ZM598.008 2.125V3.125H622.148V2.125V1.125H598.008V2.125ZM673.242 24.9375L674.227 25.1106L674.433 23.9375H673.242V24.9375ZM671.484 34.9375V35.9375H672.324L672.469 35.1106L671.484 34.9375ZM648.906 34.9375L647.921 34.7644L647.715 35.9375H648.906V34.9375ZM650.664 24.9375V23.9375H649.825L649.679 24.7644L650.664 24.9375ZM658.359 2.125L659.345 2.29554L659.547 1.125H658.359V2.125ZM648.516 59V60H649.357L649.501 59.1705L648.516 59ZM636.445 59L635.46 58.8295L635.257 60H636.445V59ZM646.289 2.125V1.125H645.447L645.304 1.95446L646.289 2.125ZM685.586 2.125L686.571 2.2962L686.775 1.125H685.586V2.125ZM675.703 59V60H676.544L676.688 59.1712L675.703 59ZM663.672 59L662.687 58.8288L662.483 60H663.672V59ZM673.555 2.125V1.125H672.713L672.569 1.9538L673.555 2.125ZM673.242 24.9375L672.257 24.7644L670.499 34.7644L671.484 34.9375L672.469 35.1106L674.227 25.1106L673.242 24.9375ZM671.484 34.9375V33.9375H648.906V34.9375V35.9375H671.484V34.9375ZM648.906 34.9375L649.891 35.1106L651.649 25.1106L650.664 24.9375L649.679 24.7644L647.921 34.7644L648.906 34.9375ZM650.664 24.9375V25.9375H673.242V24.9375V23.9375H650.664V24.9375ZM658.359 2.125L657.374 1.95446L647.53 58.8295L648.516 59L649.501 59.1705L659.345 2.29554L658.359 2.125ZM648.516 59V58H636.445V59V60H648.516V59ZM636.445 59L637.431 59.1705L647.274 2.29554L646.289 2.125L645.304 1.95446L635.46 58.8295L636.445 59ZM646.289 2.125V3.125H658.359V2.125V1.125H646.289V2.125ZM685.586 2.125L684.601 1.9538L674.718 58.8288L675.703 59L676.688 59.1712L686.571 2.2962L685.586 2.125ZM675.703 59V58H663.672V59V60H675.703V59ZM663.672 59L664.657 59.1712L674.54 2.2962L673.555 2.125L672.569 1.9538L662.687 58.8288L663.672 59ZM673.555 2.125V3.125H685.586V2.125V1.125H673.555V2.125ZM706.406 2.125L707.391 2.2962L707.595 1.125H706.406V2.125ZM696.523 59V60H697.365L697.509 59.1712L696.523 59ZM684.453 59L683.468 58.8288L683.264 60H684.453V59ZM694.336 2.125V1.125H693.495L693.351 1.9538L694.336 2.125ZM706.406 2.125L705.421 1.9538L695.538 58.8288L696.523 59L697.509 59.1712L707.391 2.2962L706.406 2.125ZM696.523 59V58H684.453V59V60H696.523V59ZM684.453 59L685.438 59.1712L695.321 2.2962L694.336 2.125L693.351 1.9538L683.468 58.8288L684.453 59ZM694.336 2.125V3.125H706.406V2.125V1.125H694.336V2.125ZM715.156 2.125L715.158 1.125L714.315 1.12314L714.171 1.95446L715.156 2.125ZM732.812 2.16406L732.843 1.16454L732.829 1.1641L732.815 1.16406L732.812 2.16406ZM741.445 4.35156L740.949 5.21981L740.953 5.22213L741.445 4.35156ZM746.797 10.1328L745.891 10.5573L745.897 10.5686L746.797 10.1328ZM748.164 19L747.167 18.917L747.167 18.9268L748.164 19ZM742.461 32.125L743.139 32.8598L743.14 32.8594L742.461 32.125ZM736.094 36.2656L735.669 35.3604L735.646 35.371L735.624 35.3828L736.094 36.2656ZM731.836 38.5312V39.5312H732.085L732.306 39.4141L731.836 38.5312ZM716.68 38.5312L715.694 38.3625L715.494 39.5312H716.68V38.5312ZM718.398 28.4922L718.411 27.4923L717.557 27.4819L717.413 28.3234L718.398 28.4922ZM728.047 28.6094L728.035 29.6093L728.056 29.6096L728.078 29.6089L728.047 28.6094ZM732.188 27.3594L731.615 26.5392L731.606 26.5456L732.188 27.3594ZM734.766 24.2734L733.868 23.8336L733.864 23.841L733.86 23.8485L734.766 24.2734ZM735.977 20.0547L734.987 19.9099L734.985 19.9234L734.984 19.9369L735.977 20.0547ZM736.172 16.6562H735.172V16.6671L735.172 16.678L736.172 16.6562ZM735.312 13.6094L734.476 14.158L734.482 14.167L734.488 14.1759L735.312 13.6094ZM732.344 12.2422L732.398 11.2437L732.374 11.2423L732.349 11.2422L732.344 12.2422ZM725.508 12.2031L725.514 11.2031L724.667 11.1983L724.523 12.0321L725.508 12.2031ZM717.383 59V60H718.224L718.368 59.1711L717.383 59ZM705.312 59L704.327 58.8295L704.125 60H705.312V59ZM730.312 59L729.336 59.2158L729.509 60H730.312V59ZM724.727 33.7266L724.723 32.7266L723.482 32.7305L723.75 33.9424L724.727 33.7266ZM736.953 33.6875L737.922 33.4406L737.73 32.685L736.95 32.6875L736.953 33.6875ZM743.242 58.375L744.24 58.4374L744.25 58.2805L744.211 58.1281L743.242 58.375ZM743.203 59V60H744.143L744.201 59.0624L743.203 59ZM715.156 2.125L715.154 3.125L732.81 3.16406L732.812 2.16406L732.815 1.16406L715.158 1.125L715.156 2.125ZM732.812 2.16406L732.782 3.16359C736.042 3.26392 738.752 3.96409 740.949 5.2198L741.445 4.35156L741.941 3.48332C739.399 2.0307 736.353 1.27254 732.843 1.16454L732.812 2.16406ZM741.445 4.35156L740.953 5.22213C743.168 6.47375 744.807 8.24461 745.891 10.5572L746.797 10.1328L747.702 9.70838C746.443 7.02101 744.515 4.9377 741.937 3.481L741.445 4.35156ZM746.797 10.1328L745.897 10.5686C746.999 12.8451 747.443 15.6129 747.168 18.917L748.164 19L749.161 19.083C749.458 15.5121 748.99 12.3684 747.697 9.697L746.797 10.1328ZM748.164 19L747.167 18.9268C746.965 21.6759 746.413 24.0625 745.528 26.1021L746.445 26.5L747.363 26.8979C748.353 24.6146 748.946 22.0011 749.161 19.0732L748.164 19ZM746.445 26.5L745.528 26.1021C744.645 28.1369 743.398 29.8971 741.782 31.3906L742.461 32.125L743.14 32.8594C744.961 31.1758 746.37 29.186 747.363 26.8979L746.445 26.5ZM742.461 32.125L741.783 31.3902C740.18 32.8697 738.148 34.1966 735.669 35.3604L736.094 36.2656L736.519 37.1709C739.143 35.9388 741.357 34.5053 743.139 32.8598L742.461 32.125ZM736.094 36.2656L735.624 35.3828L731.366 37.6484L731.836 38.5312L732.306 39.4141L736.563 37.1484L736.094 36.2656ZM731.836 38.5312V37.5312H716.68V38.5312V39.5312H731.836V38.5312ZM716.68 38.5312L717.665 38.7L719.384 28.6609L718.398 28.4922L717.413 28.3234L715.694 38.3625L716.68 38.5312ZM718.398 28.4922L718.386 29.4921L728.035 29.6093L728.047 28.6094L728.059 27.6094L718.411 27.4923L718.398 28.4922ZM728.047 28.6094L728.078 29.6089C729.895 29.5521 731.479 29.0943 732.769 28.1731L732.188 27.3594L731.606 26.5456C730.708 27.187 729.532 27.5625 728.016 27.6099L728.047 28.6094ZM732.188 27.3594L732.76 28.1795C734.028 27.2946 735 26.1277 735.671 24.6983L734.766 24.2734L733.86 23.8485C733.333 24.9713 732.587 25.8616 731.615 26.5392L732.188 27.3594ZM734.766 24.2734L735.664 24.7133C736.342 23.3274 736.775 21.811 736.97 20.1725L735.977 20.0547L734.984 19.9369C734.813 21.3713 734.439 22.6674 733.868 23.8336L734.766 24.2734ZM735.977 20.0547L736.966 20.1995C737.131 19.071 737.199 17.8821 737.172 16.6345L736.172 16.6562L735.172 16.678C735.197 17.8262 735.134 18.903 734.987 19.9099L735.977 20.0547ZM736.172 16.6562H737.172C737.172 15.2942 736.844 14.0718 736.137 13.0428L735.312 13.6094L734.488 14.1759C734.927 14.8136 735.172 15.6225 735.172 16.6562H736.172ZM735.312 13.6094L736.149 13.0607C735.36 11.8589 734 11.3311 732.398 11.2437L732.344 12.2422L732.289 13.2407C733.552 13.3096 734.171 13.6932 734.476 14.158L735.312 13.6094ZM732.344 12.2422L732.349 11.2422L725.514 11.2031L725.508 12.2031L725.502 13.2031L732.338 13.2422L732.344 12.2422ZM725.508 12.2031L724.523 12.0321L716.398 58.8289L717.383 59L718.368 59.1711L726.493 12.3742L725.508 12.2031ZM717.383 59V58H705.312V59V60H717.383V59ZM705.312 59L706.298 59.1705L716.142 2.29554L715.156 2.125L714.171 1.95446L704.327 58.8295L705.312 59ZM730.312 59L731.289 58.7842L725.703 33.5107L724.727 33.7266L723.75 33.9424L729.336 59.2158L730.312 59ZM724.727 33.7266L724.73 34.7266L736.956 34.6875L736.953 33.6875L736.95 32.6875L724.723 32.7266L724.727 33.7266ZM736.953 33.6875L735.984 33.9344L742.273 58.6219L743.242 58.375L744.211 58.1281L737.922 33.4406L736.953 33.6875ZM743.242 58.375L742.244 58.3126L742.205 58.9376L743.203 59L744.201 59.0624L744.24 58.4374L743.242 58.375ZM743.203 59V58H730.312V59V60H743.203V59ZM771.172 2.125L772.157 2.2962L772.361 1.125H771.172V2.125ZM761.289 59V60H762.13L762.274 59.1712L761.289 59ZM749.219 59L748.234 58.8288L748.03 60H749.219V59ZM759.102 2.125V1.125H758.26L758.116 1.9538L759.102 2.125ZM771.172 2.125L770.187 1.9538L760.304 58.8288L761.289 59L762.274 59.1712L772.157 2.2962L771.172 2.125ZM761.289 59V58H749.219V59V60H761.289V59ZM749.219 59L750.204 59.1712L760.087 2.2962L759.102 2.125L758.116 1.9538L748.234 58.8288L749.219 59ZM759.102 2.125V3.125H771.172V2.125V1.125H759.102V2.125Z" fill="white" mask="url(#path-1-outside-1_598_109)"/>
</g>
<defs>
<filter id="filter0_d_598_109" x="0.710938" y="0.332642" width="775.65" height="68.4934" filterUnits="userSpaceOnUse" color-interpolation-filters="sRGB">
<feFlood flood-opacity="0" result="BackgroundImageFix"/>
<feColorMatrix in="SourceAlpha" type="matrix" values="0 0 0 0 0 0 0 0 0 0 0 0 0 0 0 0 0 0 127 0" result="hardAlpha"/>
<feOffset dy="4"/>
<feGaussianBlur stdDeviation="2"/>
<feComposite in2="hardAlpha" operator="out"/>
<feColorMatrix type="matrix" values="0 0 0 0 0 0 0 0 0 0 0 0 0 0 0 0 0 0 0.25 0"/>
<feBlend mode="normal" in2="BackgroundImageFix" result="effect1_dropShadow_598_109"/>
<feBlend mode="normal" in="SourceGraphic" in2="effect1_dropShadow_598_109" result="shape"/>
</filter>
<linearGradient id="paint0_linear_598_109" x1="5" y1="32" x2="770" y2="32" gradientUnits="userSpaceOnUse">
<stop stop-color="#DB8A05"/>
<stop offset="1" stop-color="#FFDA46"/>
</linearGradient>
</defs>
</svg>
