<svg width="1440" height="576" viewBox="0 0 1440 576" fill="none" xmlns="http://www.w3.org/2000/svg">
<rect width="1440" height="2007" fill="url(#paint0_linear_415_204)"/>
<path d="M1404.59 524.927C1396.77 542.659 1398.17 560.842 1409.23 576.987L1409.24 576.991C1409.75 577.752 1410.91 579.467 1411.91 581.021C1412.41 581.794 1412.89 582.553 1413.23 583.142C1413.4 583.428 1413.57 583.724 1413.69 583.981C1413.75 584.095 1413.84 584.296 1413.91 584.527C1413.94 584.628 1414.02 584.876 1414.03 585.194C1414.04 585.352 1414.11 586.445 1413.15 587.26C1412.04 588.223 1409.85 590.24 1407.91 592.052C1406.94 592.955 1406.04 593.797 1405.39 594.413C1405.06 594.72 1404.79 594.971 1404.61 595.145C1404.52 595.232 1404.44 595.3 1404.39 595.346C1404.37 595.369 1404.35 595.387 1404.34 595.399C1404.33 595.405 1404.33 595.409 1404.33 595.412C1404.32 595.413 1404.32 595.415 1404.32 595.416H1404.32V595.417L1404.31 595.428L1404.29 595.441C1403.67 596.014 1402.97 596.104 1402.64 596.116C1402.28 596.129 1402 596.069 1401.84 596.031C1401.53 595.952 1401.25 595.83 1401.08 595.748C1400.7 595.57 1400.26 595.319 1399.84 595.061C1398.98 594.532 1397.85 593.78 1396.67 592.986C1394.24 591.349 1391.56 589.514 1389.76 588.508L1389.76 588.509C1374.97 580.248 1357.83 579.897 1342.61 587.094C1344.61 596.021 1350.26 604.194 1357.83 610.41C1365.68 616.853 1375.4 621.046 1384.78 621.799C1426.04 625.108 1453.87 581.332 1432.27 545.691C1429.37 540.915 1424.98 536.047 1419.88 532.177C1415.06 528.53 1409.75 525.874 1404.59 524.927Z" stroke="#125881" stroke-opacity="0.5" stroke-width="5"/>
<path d="M1449.53 482.534C1447.81 483.997 1445.06 486.637 1442.37 489.322C1439.12 492.557 1436.31 495.514 1435.79 496.187V496.188C1432.44 500.491 1430.53 505.616 1431.11 510.814C1431.48 514.183 1432.71 516.39 1434.42 518.424C1435.32 519.483 1436.34 520.49 1437.51 521.627C1438.66 522.741 1439.94 523.973 1441.21 525.382L1441.21 525.383C1444.13 528.629 1447.26 532.288 1449.62 536.487C1451.44 533.077 1453.85 529.667 1456.07 526.976H1456.07C1457.51 525.235 1458.97 523.832 1460.33 522.595C1461.72 521.324 1462.89 520.311 1463.96 519.187C1465.96 517.094 1467.46 514.783 1467.96 510.674C1468.68 504.776 1466.26 499.881 1462.33 495.193C1460.36 492.842 1458.06 490.61 1455.68 488.373C1453.63 486.452 1451.48 484.496 1449.53 482.534Z" stroke="#125881" stroke-opacity="0.5" stroke-width="5"/>
<path d="M1266.31 533.78C1267.44 493.711 1224.14 468.323 1189.68 489.642V489.643C1185.08 492.49 1180.18 496.883 1176.3 501.974C1172.64 506.786 1170.02 512.04 1169.29 517.037C1188.46 525.86 1210.25 522.66 1225.95 508.555L1225.95 508.553L1226.08 508.439C1227.47 507.307 1229.51 507.311 1230.89 508.547L1230.9 508.553L1239.85 516.633C1239.85 516.636 1239.85 516.639 1239.86 516.643C1239.9 516.678 1240.02 516.777 1240.15 516.908C1240.36 517.12 1241.03 517.87 1240.94 519.046L1240.93 519.059C1240.88 519.683 1240.63 520.216 1240.5 520.468C1240.34 520.795 1240.14 521.131 1239.93 521.446C1239.53 522.08 1239 522.799 1238.49 523.486C1237.37 524.976 1236.37 526.198 1235.87 526.906L1235.87 526.907C1225.03 542.239 1223.23 562.243 1231.5 579.008C1250.71 574.521 1265.37 554.437 1266.27 534.73V534.729L1266.31 533.78Z" stroke="#125881" stroke-opacity="0.5" stroke-width="5"/>
<path d="M1383.15 516.817C1373.79 482.485 1329.12 470.446 1302.36 494.912C1275.98 519.027 1283.1 564.135 1316.11 577.801C1317.03 578.184 1318.44 578.817 1319.81 579.228C1320.28 579.369 1320.67 579.457 1320.98 579.504C1321.06 579.312 1321.15 579.089 1321.25 578.838C1321.62 577.919 1322.07 576.725 1322.51 575.481C1323.42 572.951 1324.24 570.431 1324.42 569.734V569.733C1327.89 556.111 1326.09 542.523 1318.79 530.527L1318.58 530.211C1318.31 529.832 1317.87 529.256 1317.27 528.486C1316.53 527.528 1315.61 526.363 1314.75 525.218C1313.91 524.087 1313.07 522.877 1312.48 521.812C1312.19 521.291 1311.9 520.686 1311.74 520.073C1311.61 519.598 1311.34 518.391 1312.08 517.264H1312.08C1312.29 516.942 1312.66 516.55 1312.89 516.31C1313.2 515.983 1313.6 515.574 1314.05 515.119C1314.97 514.207 1316.14 513.071 1317.31 511.973C1318.48 510.881 1319.69 509.795 1320.67 508.994C1321.15 508.602 1321.64 508.229 1322.06 507.956C1322.26 507.827 1322.54 507.657 1322.86 507.529C1323.02 507.466 1323.28 507.372 1323.61 507.33C1323.89 507.294 1324.48 507.261 1325.11 507.572L1325.23 507.638C1326.36 508.267 1327.5 509.289 1328.42 510.115C1329.31 510.92 1330.08 511.632 1330.81 512.187L1331.12 512.414C1346.66 523.377 1366.12 524.952 1383.15 516.817ZM1384.1 516.356C1384.1 516.356 1384.1 516.355 1384.1 516.354L1384.1 516.353C1384.1 516.354 1384.1 516.355 1384.1 516.356Z" stroke="#125881" stroke-opacity="0.5" stroke-width="5"/>
<path d="M1321.08 365.14C1286.66 374.384 1274.52 419.294 1299.12 445.932C1320.69 469.282 1359.13 467.164 1377.04 440.803H1377.04C1377.73 439.78 1379.54 436.746 1381.12 433.543C1381.91 431.948 1382.61 430.371 1383.09 429.023C1383.37 428.226 1383.53 427.626 1383.61 427.208C1364.09 418.403 1342.41 421.411 1326.36 435.514L1326.35 435.517C1324.93 436.765 1322.71 436.773 1321.3 435.356L1312.94 426.996C1311.55 425.599 1311.53 423.415 1312.75 421.975L1312.76 421.969L1312.77 421.962L1313.42 421.19C1326.8 405.162 1330.09 384.108 1321.08 365.14Z" stroke="#125881" stroke-opacity="0.5" stroke-width="5"/>
<path d="M1231.26 365.142C1223.45 382.874 1224.85 401.057 1235.91 417.202L1235.91 417.206C1236.43 417.967 1237.58 419.683 1238.58 421.237C1239.08 422.009 1239.56 422.768 1239.9 423.358C1240.07 423.643 1240.24 423.94 1240.36 424.197C1240.42 424.31 1240.51 424.512 1240.58 424.742C1240.61 424.844 1240.69 425.092 1240.7 425.409C1240.71 425.567 1240.78 426.66 1239.82 427.475C1238.71 428.438 1236.53 430.455 1234.58 432.268C1233.61 433.171 1232.71 434.013 1232.06 434.628C1231.73 434.936 1231.47 435.186 1231.28 435.361C1231.19 435.448 1231.12 435.516 1231.07 435.562C1231.04 435.585 1231.02 435.603 1231.01 435.615C1231.01 435.62 1231 435.624 1231 435.627C1231 435.629 1230.99 435.63 1230.99 435.631H1230.99V435.632L1230.98 435.644L1230.97 435.656C1230.34 436.23 1229.64 436.319 1229.31 436.331C1228.96 436.344 1228.67 436.285 1228.52 436.246C1228.2 436.168 1227.92 436.045 1227.75 435.963C1227.37 435.785 1226.94 435.535 1226.51 435.277C1225.65 434.747 1224.52 433.996 1223.34 433.201C1220.91 431.564 1218.23 429.729 1216.43 428.723L1216.43 428.724C1201.64 420.464 1184.5 420.112 1169.28 427.309C1171.28 436.236 1176.93 444.409 1184.5 450.625C1192.35 457.069 1202.08 461.261 1211.45 462.014C1252.71 465.323 1280.54 421.548 1258.94 385.906C1256.05 381.13 1251.66 376.262 1246.55 372.393C1241.73 368.745 1236.42 366.089 1231.26 365.142Z" stroke="#125881" stroke-opacity="0.5" stroke-width="5"/>
<path d="M1401.68 453.666C1396.73 453.061 1393.87 454.06 1391.43 455.75C1390.12 456.653 1388.89 457.791 1387.47 459.171C1386.31 460.302 1385.02 461.607 1383.57 462.94V462.963L1382.72 463.71C1380.1 466.022 1375.35 469.299 1372.13 471.458C1373.33 472.282 1374.48 473.211 1375.54 474.109C1377.13 475.451 1378.39 476.613 1379.66 477.625L1379.66 477.626C1381.33 478.962 1382.81 480.421 1384.18 481.816C1385.58 483.243 1386.81 484.554 1388.13 485.775C1390.7 488.164 1393.27 489.892 1396.73 490.438C1402.84 491.404 1407.86 488.999 1412.67 484.993C1415.08 482.98 1417.37 480.62 1419.67 478.164C1421.64 476.067 1423.64 473.866 1425.65 471.875C1423.27 468.803 1419.09 464.449 1414.52 460.73C1412.2 458.843 1409.82 457.159 1407.57 455.898C1405.29 454.62 1403.28 453.862 1401.68 453.666ZM1370.61 470.504C1370.61 470.505 1370.61 470.506 1370.62 470.507C1370.61 470.505 1370.61 470.502 1370.6 470.5L1370.61 470.504Z" stroke="#125881" stroke-opacity="0.5" stroke-width="5"/>
<path d="M1276.2 322.749C1274.49 324.212 1271.73 326.852 1269.04 329.537C1265.8 332.772 1262.99 335.729 1262.46 336.403V336.404C1259.11 340.706 1257.21 345.832 1257.78 351.03C1258.16 354.399 1259.38 356.605 1261.1 358.639C1261.99 359.699 1263.02 360.705 1264.19 361.842C1265.33 362.957 1266.61 364.188 1267.88 365.597L1267.88 365.598C1270.8 368.844 1273.94 372.503 1276.29 376.702C1278.11 373.292 1280.52 369.883 1282.74 367.192H1282.74C1284.18 365.451 1285.65 364.047 1287 362.811C1288.39 361.539 1289.56 360.527 1290.64 359.403C1292.64 357.31 1294.13 354.998 1294.63 350.889C1295.35 344.991 1292.93 340.097 1289 335.408C1287.03 333.057 1284.74 330.825 1282.35 328.588C1280.3 326.667 1278.15 324.711 1276.2 322.749Z" stroke="#125881" stroke-opacity="0.5" stroke-width="5"/>
<path d="M1158.8 454.666C1151.58 452.317 1146.16 454.231 1141.16 458.03C1138.59 459.976 1136.16 462.4 1133.68 465.026C1131.52 467.317 1129.27 469.811 1126.97 472.099C1128.46 473.839 1131.17 476.662 1133.93 479.419C1137.27 482.742 1140.31 485.608 1141.02 486.139L1141.02 486.142C1144.14 488.505 1148.55 490.439 1152.28 490.626L1152.64 490.639C1157.76 490.738 1160.95 488.879 1163.95 486.143C1165.53 484.705 1166.97 483.103 1168.68 481.312C1170.34 479.566 1172.19 477.72 1174.4 476.057C1175.97 474.87 1178.2 473.218 1180.44 471.834C1177.2 469.742 1172.51 466.625 1170.12 464.538C1167.71 462.434 1165.85 459.97 1164.41 458.415C1162.89 456.769 1161.34 455.489 1158.8 454.666Z" stroke="#125881" stroke-opacity="0.5" stroke-width="5"/>
<path d="M1276.15 567.375C1274.33 570.739 1272.12 574.053 1269.79 576.89L1269.78 576.892C1268.35 578.628 1266.23 580.43 1264.46 581.96C1262.54 583.631 1261.09 584.94 1260.42 585.943L1260.42 585.944C1258.07 589.447 1257.32 592.733 1257.55 595.829C1257.79 598.975 1259.06 602.116 1261.06 605.236C1264.89 611.201 1271.04 616.566 1276.39 621.163C1278.66 618.885 1281.14 616.654 1283.41 614.511C1286.01 612.044 1288.42 609.628 1290.34 607.076C1294.1 602.092 1295.98 596.701 1293.65 589.51C1292.84 587.031 1291.56 585.452 1289.91 583.898C1289.03 583.071 1288.13 582.334 1287.06 581.39C1286.02 580.481 1284.9 579.457 1283.8 578.222L1283.8 578.221C1281.05 575.158 1278.21 571.318 1276.15 567.375Z" stroke="#125881" stroke-opacity="0.5" stroke-width="5"/>
<path d="M1276.21 447.637C1272.01 455.236 1265.56 462.547 1258.92 467.584L1258.92 467.585C1257.41 468.734 1255.76 469.692 1254.27 470.558C1253.35 471.086 1252.49 471.578 1251.69 472.075C1252.2 472.384 1252.76 472.719 1253.34 473.062C1255.43 474.305 1257.98 475.799 1258.91 476.498L1258.91 476.499C1262.13 478.917 1268.08 484.733 1270.95 488.294L1271.48 488.975C1272.14 489.849 1273.26 491.751 1274.28 493.442C1274.94 494.519 1275.58 495.56 1276.16 496.433C1280.7 488.893 1286.4 481.878 1293.62 476.488L1293.63 476.485L1294 476.228C1294.95 475.585 1296.51 474.688 1297.9 473.862C1298.88 473.282 1299.83 472.708 1300.63 472.184C1290.58 466.259 1281.98 457.904 1276.21 447.637Z" stroke="#125881" stroke-opacity="0.5" stroke-width="5"/>
<path d="M1432.86 373.996C1434 333.927 1390.69 308.539 1356.23 329.857V329.858C1351.63 332.706 1346.73 337.099 1342.86 342.189C1339.19 347.001 1336.58 352.256 1335.84 357.253C1355.01 366.076 1376.81 362.876 1392.5 348.77L1392.51 348.768L1392.64 348.655C1394.03 347.522 1396.07 347.526 1397.45 348.762L1397.45 348.768L1406.4 356.848C1406.41 356.851 1406.41 356.855 1406.41 356.858C1406.46 356.894 1406.58 356.992 1406.7 357.124C1406.91 357.336 1407.59 358.086 1407.49 359.261L1407.49 359.274C1407.43 359.899 1407.18 360.432 1407.05 360.683C1406.89 361.011 1406.69 361.347 1406.49 361.662C1406.08 362.296 1405.56 363.015 1405.04 363.702C1403.92 365.192 1402.93 366.414 1402.43 367.122L1402.43 367.123C1391.59 382.455 1389.79 402.459 1398.05 419.223C1417.26 414.737 1431.93 394.653 1432.83 374.946V374.945L1432.86 373.996Z" stroke="#125881" stroke-opacity="0.5" stroke-width="5"/>
<path d="M1549.71 357.033C1540.34 322.7 1495.68 310.661 1468.92 335.128C1442.54 359.243 1449.66 404.35 1482.66 418.016C1483.59 418.4 1485 419.033 1486.37 419.443C1486.84 419.584 1487.23 419.672 1487.53 419.719C1487.62 419.527 1487.71 419.305 1487.81 419.053C1488.18 418.135 1488.63 416.94 1489.07 415.697C1489.97 413.167 1490.8 410.647 1490.97 409.95V409.949C1494.44 396.327 1492.65 382.739 1485.35 370.743L1485.14 370.427C1484.87 370.047 1484.43 369.471 1483.83 368.702C1483.08 367.744 1482.16 366.579 1481.31 365.433C1480.47 364.303 1479.62 363.092 1479.04 362.028C1478.75 361.507 1478.46 360.902 1478.29 360.289C1478.16 359.814 1477.9 358.607 1478.64 357.479H1478.64C1478.85 357.158 1479.22 356.765 1479.45 356.525C1479.75 356.199 1480.15 355.79 1480.61 355.335C1481.52 354.422 1482.69 353.287 1483.87 352.188C1485.04 351.096 1486.25 350.01 1487.23 349.21C1487.71 348.817 1488.19 348.445 1488.62 348.172C1488.82 348.042 1489.1 347.873 1489.42 347.745C1489.57 347.682 1489.84 347.588 1490.17 347.546C1490.45 347.51 1491.03 347.477 1491.67 347.788L1491.79 347.853C1492.92 348.482 1494.06 349.504 1494.97 350.331C1495.87 351.136 1496.64 351.848 1497.37 352.402L1497.68 352.63C1513.22 363.592 1532.67 365.168 1549.71 357.033ZM1550.65 356.572C1550.65 356.571 1550.66 356.571 1550.66 356.57L1550.66 356.568C1550.66 356.569 1550.65 356.571 1550.65 356.572Z" stroke="#125881" stroke-opacity="0.5" stroke-width="5"/>
<path d="M1487.63 205.355C1453.21 214.599 1441.08 259.51 1465.68 286.147C1487.25 309.497 1525.68 307.38 1543.59 281.019H1543.59C1544.29 279.995 1546.1 276.961 1547.68 273.759C1548.46 272.164 1549.17 270.586 1549.64 269.238C1549.92 268.441 1550.08 267.842 1550.16 267.424C1530.64 258.619 1508.97 261.627 1492.91 275.729L1492.91 275.732C1491.48 276.981 1489.27 276.989 1487.86 275.571L1479.5 267.212C1478.1 265.815 1478.08 263.631 1479.31 262.19L1479.32 262.185L1479.32 262.178L1479.98 261.405C1493.36 245.378 1496.65 224.324 1487.63 205.355Z" stroke="#125881" stroke-opacity="0.5" stroke-width="5"/>
<path d="M1397.82 205.357C1390 223.09 1391.4 241.273 1402.46 257.418L1402.46 257.422C1402.98 258.183 1404.14 259.898 1405.14 261.452C1405.64 262.225 1406.11 262.984 1406.46 263.573C1406.63 263.859 1406.79 264.155 1406.92 264.412C1406.97 264.526 1407.07 264.727 1407.14 264.958C1407.17 265.059 1407.24 265.307 1407.26 265.625C1407.27 265.783 1407.33 266.876 1406.38 267.69C1405.27 268.653 1403.08 270.671 1401.14 272.483C1400.17 273.386 1399.27 274.228 1398.62 274.844C1398.29 275.151 1398.02 275.402 1397.84 275.576C1397.74 275.663 1397.67 275.731 1397.62 275.777C1397.6 275.8 1397.58 275.818 1397.57 275.83C1397.56 275.836 1397.56 275.84 1397.55 275.843C1397.55 275.844 1397.55 275.846 1397.55 275.847H1397.55V275.848L1397.54 275.859L1397.52 275.872C1396.9 276.445 1396.2 276.535 1395.87 276.547C1395.51 276.56 1395.23 276.5 1395.07 276.462C1394.76 276.383 1394.48 276.261 1394.3 276.179C1393.93 276.001 1393.49 275.75 1393.07 275.492C1392.21 274.963 1391.08 274.211 1389.9 273.417C1387.47 271.78 1384.79 269.945 1382.99 268.938L1382.98 268.939C1368.19 260.679 1351.05 260.328 1335.84 267.524C1337.83 276.452 1343.49 284.625 1351.06 290.841C1358.91 297.284 1368.63 301.477 1378.01 302.229C1419.27 305.538 1447.1 261.763 1425.5 226.122C1422.6 221.346 1418.21 216.477 1413.11 212.608C1408.29 208.961 1402.97 206.305 1397.82 205.357Z" stroke="#125881" stroke-opacity="0.5" stroke-width="5"/>
<path d="M1442.76 162.965C1441.04 164.427 1438.29 167.067 1435.59 169.753C1432.35 172.988 1429.54 175.945 1429.02 176.618V176.619C1425.66 180.922 1423.76 186.047 1424.34 191.245C1424.71 194.614 1425.94 196.821 1427.65 198.854C1428.55 199.914 1429.57 200.921 1430.74 202.058C1431.89 203.172 1433.17 204.404 1434.44 205.812L1434.44 205.813C1437.36 209.06 1440.49 212.719 1442.85 216.918C1444.66 213.508 1447.07 210.098 1449.3 207.407H1449.3C1450.73 205.666 1452.2 204.263 1453.56 203.026C1454.95 201.755 1456.12 200.742 1457.19 199.618C1459.19 197.525 1460.69 195.214 1461.19 191.104C1461.91 185.207 1459.49 180.312 1455.56 175.624C1453.59 173.273 1451.29 171.041 1448.91 168.804C1446.86 166.883 1444.71 164.927 1442.76 162.965Z" stroke="#125881" stroke-opacity="0.5" stroke-width="5"/>
<path d="M1325.36 294.882C1318.13 292.533 1312.72 294.446 1307.71 298.246C1305.15 300.191 1302.72 302.615 1300.24 305.242C1298.07 307.532 1295.83 310.027 1293.52 312.314C1295.01 314.054 1297.72 316.878 1300.49 319.635C1303.82 322.957 1306.87 325.823 1307.57 326.354L1307.57 326.357C1310.69 328.72 1315.11 330.654 1318.83 330.842L1319.19 330.854C1324.31 330.954 1327.51 329.095 1330.51 326.358C1332.08 324.921 1333.52 323.319 1335.23 321.528C1336.89 319.782 1338.74 317.936 1340.95 316.272C1342.52 315.085 1344.75 313.434 1347 312.05C1343.75 309.957 1339.07 306.84 1336.67 304.754C1334.26 302.65 1332.41 300.185 1330.97 298.631C1329.44 296.985 1327.89 295.705 1325.36 294.882Z" stroke="#125881" stroke-opacity="0.5" stroke-width="5"/>
<path d="M1442.7 407.59C1440.89 410.954 1438.67 414.269 1436.34 417.106L1436.34 417.108C1434.91 418.844 1432.78 420.646 1431.02 422.175C1429.09 423.846 1427.65 425.156 1426.98 426.159L1426.97 426.16C1424.62 429.662 1423.87 432.949 1424.11 436.044C1424.34 439.191 1425.61 442.332 1427.61 445.452C1431.44 451.416 1437.6 456.781 1442.94 461.378C1445.22 459.1 1447.69 456.87 1449.96 454.727C1452.57 452.26 1454.97 449.844 1456.9 447.292C1460.65 442.308 1462.54 436.917 1460.2 429.726C1459.39 427.247 1458.12 425.668 1456.46 424.114C1455.58 423.287 1454.69 422.55 1453.61 421.606C1452.57 420.696 1451.46 419.672 1450.35 418.438L1450.35 418.437C1447.6 415.373 1444.76 411.534 1442.7 407.59Z" stroke="#125881" stroke-opacity="0.5" stroke-width="5"/>
<path d="M1442.77 287.852C1438.57 295.452 1432.11 302.763 1425.48 307.8L1425.48 307.801C1423.96 308.949 1422.32 309.907 1420.82 310.773C1419.91 311.301 1419.05 311.794 1418.24 312.291C1418.76 312.6 1419.31 312.934 1419.89 313.278C1421.98 314.521 1424.53 316.015 1425.46 316.714L1425.47 316.715C1428.69 319.132 1434.63 324.949 1437.5 328.51L1438.04 329.19C1438.7 330.065 1439.81 331.967 1440.84 333.658C1441.49 334.735 1442.14 335.775 1442.72 336.648C1447.25 329.109 1452.95 322.093 1460.18 316.704L1460.18 316.701L1460.55 316.443C1461.5 315.801 1463.07 314.904 1464.46 314.078C1465.44 313.498 1466.38 312.924 1467.18 312.399C1457.13 306.475 1448.53 298.119 1442.77 287.852Z" stroke="#125881" stroke-opacity="0.5" stroke-width="5"/>
<path d="M-1.12891 274.451C6.09716 272.102 11.5096 274.015 16.5186 277.815C19.0835 279.761 21.5107 282.184 23.9912 284.811C26.1542 287.101 28.4027 289.596 30.7061 291.883C29.218 293.623 26.5063 296.447 23.7393 299.204C20.4046 302.526 17.3605 305.392 16.6572 305.923L16.6543 305.926C13.5352 308.289 9.12028 310.223 5.39453 310.411L5.03613 310.423C-0.0845955 310.523 -3.27912 308.664 -6.2793 305.927C-7.85516 304.49 -9.29471 302.888 -11.002 301.097C-12.6664 299.351 -14.5153 297.505 -16.7236 295.841C-18.2953 294.654 -20.523 293.003 -22.7666 291.619C-19.5225 289.526 -14.8386 286.409 -12.4463 284.323C-10.0337 282.219 -8.18018 279.754 -6.74023 278.2C-5.21561 276.554 -3.6624 275.274 -1.12891 274.451Z" stroke="#125881" stroke-opacity="0.5" stroke-width="5"/>
<path d="M64.6943 193.78C63.5559 153.711 106.86 128.323 141.322 149.642V149.643C145.925 152.49 150.823 156.883 154.699 161.974C158.363 166.786 160.978 172.04 161.715 177.037C142.544 185.86 120.747 182.66 105.05 168.555L105.047 168.553L104.915 168.439C103.526 167.307 101.487 167.311 100.107 168.547L100.101 168.553L91.1533 176.633C91.1496 176.636 91.1451 176.639 91.1406 176.643C91.0975 176.678 90.9784 176.777 90.8506 176.908C90.6444 177.12 89.9665 177.87 90.0645 179.046L90.0664 179.059C90.1216 179.683 90.3747 180.216 90.5 180.468C90.663 180.795 90.8642 181.131 91.0664 181.446C91.4737 182.08 91.9962 182.799 92.5127 183.486C93.6327 184.976 94.6272 186.198 95.127 186.906L95.1279 186.907C105.965 202.239 107.765 222.243 99.5 239.008C80.2929 234.521 65.6267 214.437 64.7295 194.73V194.729L64.6943 193.78Z" stroke="#125881" stroke-opacity="0.5" stroke-width="5"/>
<path d="M-52.1523 176.817C-42.7858 142.485 1.8811 130.446 28.6416 154.912C55.0205 179.027 47.8996 224.135 14.8926 237.801C13.9667 238.184 12.5575 238.817 11.1895 239.228C10.719 239.369 10.3279 239.457 10.0234 239.504C9.94055 239.312 9.84751 239.089 9.74609 238.838C9.37549 237.919 8.93006 236.725 8.48633 235.481C7.58315 232.951 6.75943 230.431 6.58203 229.734V229.733C3.11277 216.111 4.91008 202.523 12.208 190.527L12.4189 190.211C12.6861 189.832 13.1261 189.256 13.7266 188.486C14.4741 187.528 15.3942 186.363 16.2451 185.218C17.0852 184.087 17.934 182.877 18.5186 181.812C18.8051 181.291 19.0951 180.686 19.2627 180.073C19.3926 179.598 19.6587 178.391 18.918 177.264H18.917C18.7055 176.942 18.3371 176.55 18.1104 176.31C17.8023 175.983 17.4025 175.574 16.9473 175.119C16.0346 174.207 14.863 173.071 13.6855 171.973C12.5151 170.881 11.3062 169.795 10.3271 168.994C9.84735 168.602 9.36379 168.229 8.93945 167.956C8.73882 167.827 8.45606 167.657 8.13867 167.529C7.98248 167.466 7.71893 167.372 7.39062 167.33C7.11127 167.294 6.5245 167.261 5.89062 167.572L5.7666 167.638C4.64068 168.267 3.49897 169.289 2.58301 170.115C1.69101 170.92 0.917256 171.632 0.186523 172.187L-0.125 172.414C-15.6596 183.377 -35.1175 184.952 -52.1523 176.817ZM-53.0957 176.356C-53.0973 176.356 -53.099 176.355 -53.1006 176.354L-53.1035 176.353C-53.101 176.354 -53.0982 176.355 -53.0957 176.356Z" stroke="#125881" stroke-opacity="0.5" stroke-width="5"/>
<path d="M9.9248 25.1399C44.3422 34.3839 56.4783 79.2943 31.876 105.932C10.3094 129.282 -28.1251 127.164 -46.0381 100.803H-46.0391C-46.7347 99.7795 -48.5404 96.7456 -50.1221 93.5432C-50.9099 91.9481 -51.6119 90.3709 -52.0879 89.0227C-52.3693 88.2256 -52.5266 87.6265 -52.6084 87.2083C-33.0868 78.4032 -11.4127 81.4111 4.6416 95.5139L4.64551 95.5168C6.07218 96.765 8.28609 96.773 9.69727 95.3557L18.0566 86.9963C19.4535 85.5992 19.4719 83.415 18.2451 81.9749L18.2393 81.969L18.2344 81.9622L17.5781 81.1897C4.19938 65.1625 0.906435 44.1079 9.9248 25.1399Z" stroke="#125881" stroke-opacity="0.5" stroke-width="5"/>
<path d="M99.7354 25.1418C107.555 42.874 106.154 61.0572 95.0947 77.2024L95.0928 77.2063C94.5733 77.9673 93.4207 79.6828 92.4189 81.2366C91.9209 82.0091 91.4429 82.7682 91.0967 83.3577C90.9288 83.6434 90.7621 83.9396 90.6377 84.1965C90.5827 84.3101 90.4886 84.5117 90.417 84.7424C90.3856 84.8435 90.3129 85.0918 90.2959 85.4094C90.2875 85.5673 90.2228 86.6601 91.1777 87.4749C92.289 88.4378 94.4739 90.455 96.4189 92.2678C97.3876 93.1707 98.285 94.0125 98.9404 94.6282C99.2678 94.9357 99.5348 95.1865 99.7197 95.3606C99.8122 95.4477 99.8848 95.5158 99.9336 95.5618C99.9579 95.5847 99.9758 95.6028 99.9883 95.6145C99.9945 95.6204 99.9998 95.6243 100.003 95.6272C100.004 95.6287 100.005 95.6304 100.006 95.6311H100.007V95.6321L100.021 95.6438L100.033 95.6565C100.659 96.2298 101.361 96.3191 101.691 96.3313C102.043 96.3442 102.329 96.2847 102.483 96.2463C102.801 96.1677 103.079 96.0452 103.253 95.9631C103.631 95.7851 104.064 95.5348 104.486 95.2766C105.351 94.7474 106.477 93.9956 107.656 93.2014C110.088 91.5639 112.77 89.7294 114.571 88.7229L114.572 88.7239C129.362 80.4636 146.502 80.1121 161.717 87.3088C159.722 96.2359 154.066 104.409 146.496 110.625C138.649 117.069 128.924 121.261 119.547 122.014C78.2874 125.323 50.457 81.5475 72.0586 45.9065C74.9534 41.1304 79.3433 36.2619 84.4512 32.3928C89.2667 28.7452 94.5817 26.089 99.7354 25.1418Z" stroke="#125881" stroke-opacity="0.5" stroke-width="5"/>
<path d="M54.7988 -17.2507C56.5116 -15.7881 59.2689 -13.1481 61.96 -10.4626C65.2014 -7.228 68.0112 -4.27102 68.5371 -3.59741V-3.59644C71.8899 0.706473 73.7944 5.83177 73.2188 11.0295C72.8444 14.3987 71.6186 16.605 69.9014 18.6389C69.0065 19.6988 67.9838 20.7052 66.8135 21.842C65.666 22.9568 64.3857 24.1884 63.1182 25.5969L63.1172 25.5979C60.1974 28.8443 57.0619 32.5031 54.7061 36.7024C52.8903 33.2922 50.481 29.8826 48.2568 27.1917H48.2578C46.8208 25.4506 45.3512 24.0473 43.998 22.8108C42.6066 21.5393 41.4353 20.5268 40.3613 19.4026C38.3617 17.3095 36.8695 14.998 36.3672 10.8889C35.6464 4.9914 38.066 0.0965845 41.9961 -4.59155C43.9671 -6.94271 46.2623 -9.17481 48.6484 -11.4119C50.6972 -13.3326 52.8482 -15.2891 54.7988 -17.2507Z" stroke="#125881" stroke-opacity="0.5" stroke-width="5"/>
<path d="M172.197 114.666C179.423 112.317 184.836 114.231 189.845 118.03C192.41 119.976 194.837 122.4 197.317 125.026C199.48 127.317 201.729 129.811 204.032 132.099C202.544 133.839 199.832 136.662 197.065 139.419C193.731 142.742 190.687 145.608 189.983 146.139L189.98 146.142C186.861 148.505 182.446 150.439 178.721 150.626L178.362 150.639C173.242 150.738 170.047 148.879 167.047 146.143C165.471 144.705 164.031 143.103 162.324 141.312C160.66 139.566 158.811 137.72 156.603 136.057C155.031 134.87 152.803 133.218 150.56 131.834C153.804 129.742 158.488 126.625 160.88 124.538C163.292 122.434 165.146 119.97 166.586 118.415C168.111 116.769 169.664 115.489 172.197 114.666Z" stroke="#125881" stroke-opacity="0.5" stroke-width="5"/>
<path d="M54.8525 227.375C56.666 230.739 58.8818 234.053 61.2148 236.89L61.2158 236.892C62.6462 238.628 64.7727 240.43 66.5361 241.96C68.4626 243.631 69.9067 244.94 70.5791 245.943L70.5801 245.944C72.93 249.447 73.6806 252.733 73.4482 255.829C73.212 258.975 71.9433 262.116 69.9404 265.236C66.111 271.201 59.956 276.566 54.6123 281.163C52.3365 278.885 49.8601 276.654 47.5947 274.511C44.9863 272.044 42.5839 269.628 40.6592 267.076C36.9014 262.092 35.018 256.701 37.3535 249.51C38.1604 247.031 39.439 245.452 41.0938 243.898C41.9746 243.071 42.8669 242.334 43.9443 241.39C44.9826 240.481 46.0984 239.457 47.2041 238.222L47.2031 238.221C49.9497 235.158 52.7924 231.318 54.8525 227.375Z" stroke="#125881" stroke-opacity="0.5" stroke-width="5"/>
<path d="M54.7881 107.637C58.9895 115.236 65.4412 122.547 72.0781 127.584L72.0791 127.585C73.5943 128.734 75.2351 129.692 76.7344 130.558C77.649 131.086 78.5066 131.578 79.3105 132.075C78.7996 132.384 78.2421 132.719 77.6641 133.062C75.574 134.305 73.0238 135.799 72.0908 136.498L72.0889 136.499C68.867 138.917 62.9231 144.733 60.0498 148.294L59.5176 148.975C58.8577 149.849 57.7434 151.751 56.7178 153.442C56.0649 154.519 55.4185 155.56 54.8359 156.433C50.2999 148.893 44.6014 141.878 37.375 136.488L37.3711 136.485L37.0039 136.228C36.0544 135.585 34.4888 134.688 33.0957 133.862C32.1166 133.282 31.1738 132.708 30.3701 132.184C40.4213 126.259 49.0209 117.904 54.7881 107.637Z" stroke="#125881" stroke-opacity="0.5" stroke-width="5"/>
<path d="M1147.4 524.925C1112.98 534.169 1100.85 579.079 1125.45 605.717C1147.02 629.066 1185.45 626.949 1203.36 600.588H1203.37C1204.06 599.564 1205.87 596.53 1207.45 593.328C1208.24 591.733 1208.94 590.156 1209.41 588.807C1209.7 588.01 1209.85 587.411 1209.93 586.993C1190.41 578.188 1168.74 581.196 1152.68 595.299L1152.68 595.302C1151.25 596.55 1149.04 596.558 1147.63 595.14L1139.27 586.781C1137.87 585.384 1137.85 583.2 1139.08 581.76L1139.09 581.754L1139.09 581.747L1139.75 580.974C1153.13 564.947 1156.42 543.893 1147.4 524.925Z" stroke="#125881" stroke-opacity="0.5" stroke-width="5"/>
<path d="M1057.59 524.927C1049.77 542.659 1051.17 560.842 1062.23 576.987L1062.24 576.991C1062.75 577.752 1063.91 579.467 1064.91 581.021C1065.41 581.794 1065.89 582.553 1066.23 583.142C1066.4 583.428 1066.57 583.724 1066.69 583.981C1066.75 584.095 1066.84 584.296 1066.91 584.527C1066.94 584.628 1067.02 584.876 1067.03 585.194C1067.04 585.352 1067.11 586.445 1066.15 587.26C1065.04 588.223 1062.85 590.24 1060.91 592.052C1059.94 592.955 1059.04 593.797 1058.39 594.413C1058.06 594.72 1057.79 594.971 1057.61 595.145C1057.52 595.232 1057.44 595.3 1057.39 595.346C1057.37 595.369 1057.35 595.387 1057.34 595.399C1057.33 595.405 1057.33 595.409 1057.33 595.412C1057.32 595.413 1057.32 595.415 1057.32 595.416H1057.32V595.417L1057.31 595.428L1057.29 595.441C1056.67 596.014 1055.97 596.104 1055.64 596.116C1055.28 596.129 1055 596.069 1054.84 596.031C1054.53 595.952 1054.25 595.83 1054.08 595.748C1053.7 595.57 1053.26 595.319 1052.84 595.061C1051.98 594.532 1050.85 593.78 1049.67 592.986C1047.24 591.349 1044.56 589.514 1042.76 588.508L1042.76 588.509C1027.97 580.248 1010.83 579.897 995.611 587.094C997.606 596.021 1003.26 604.194 1010.83 610.41C1018.68 616.853 1028.4 621.046 1037.78 621.799C1079.04 625.108 1106.87 581.332 1085.27 545.691C1082.37 540.915 1077.98 536.047 1072.88 532.177C1068.06 528.53 1062.75 525.874 1057.59 524.927Z" stroke="#125881" stroke-opacity="0.5" stroke-width="5"/>
<path d="M1102.53 482.534C1100.81 483.997 1098.06 486.637 1095.37 489.322C1092.12 492.557 1089.31 495.514 1088.79 496.187V496.188C1085.44 500.491 1083.53 505.616 1084.11 510.814C1084.48 514.183 1085.71 516.39 1087.42 518.424C1088.32 519.483 1089.34 520.49 1090.51 521.627C1091.66 522.741 1092.94 523.973 1094.21 525.382L1094.21 525.383C1097.13 528.629 1100.26 532.288 1102.62 536.487C1104.44 533.077 1106.85 529.667 1109.07 526.976H1109.07C1110.51 525.235 1111.97 523.832 1113.33 522.595C1114.72 521.324 1115.89 520.311 1116.96 519.187C1118.96 517.094 1120.46 514.783 1120.96 510.674C1121.68 504.776 1119.26 499.881 1115.33 495.193C1113.36 492.842 1111.06 490.61 1108.68 488.373C1106.63 486.452 1104.48 484.496 1102.53 482.534Z" stroke="#125881" stroke-opacity="0.5" stroke-width="5"/>
<path d="M919.306 533.78C920.444 493.711 877.14 468.323 842.678 489.642V489.643C838.075 492.49 833.177 496.883 829.301 501.974C825.637 506.786 823.022 512.04 822.285 517.037C841.456 525.86 863.253 522.66 878.95 508.555L878.953 508.553L879.085 508.439C880.474 507.307 882.513 507.311 883.893 508.547L883.899 508.553L892.847 516.633C892.85 516.636 892.855 516.639 892.859 516.643C892.903 516.678 893.022 516.777 893.149 516.908C893.356 517.12 894.033 517.87 893.936 519.046L893.934 519.059C893.878 519.683 893.625 520.216 893.5 520.468C893.337 520.795 893.136 521.131 892.934 521.446C892.526 522.08 892.004 522.799 891.487 523.486C890.367 524.976 889.373 526.198 888.873 526.906L888.872 526.907C878.035 542.239 876.235 562.243 884.5 579.008C903.707 574.521 918.373 554.437 919.271 534.73V534.729L919.306 533.78Z" stroke="#125881" stroke-opacity="0.5" stroke-width="5"/>
<path d="M1036.15 516.817C1026.79 482.485 982.119 470.446 955.358 494.912C928.98 519.027 936.1 564.135 969.107 577.801C970.033 578.184 971.443 578.817 972.811 579.228C973.281 579.369 973.672 579.457 973.977 579.504C974.059 579.312 974.152 579.089 974.254 578.838C974.625 577.919 975.07 576.725 975.514 575.481C976.417 572.951 977.241 570.431 977.418 569.734V569.733C980.887 556.111 979.09 542.523 971.792 530.527L971.581 530.211C971.314 529.832 970.874 529.256 970.273 528.486C969.526 527.528 968.606 526.363 967.755 525.218C966.915 524.087 966.066 522.877 965.481 521.812C965.195 521.291 964.905 520.686 964.737 520.073C964.607 519.598 964.341 518.391 965.082 517.264H965.083C965.295 516.942 965.663 516.55 965.89 516.31C966.198 515.983 966.597 515.574 967.053 515.119C967.965 514.207 969.137 513.071 970.314 511.973C971.485 510.881 972.694 509.795 973.673 508.994C974.153 508.602 974.636 508.229 975.061 507.956C975.261 507.827 975.544 507.657 975.861 507.529C976.018 507.466 976.281 507.372 976.609 507.33C976.889 507.294 977.475 507.261 978.109 507.572L978.233 507.638C979.359 508.267 980.501 509.289 981.417 510.115C982.309 510.92 983.083 511.632 983.813 512.187L984.125 512.414C999.66 523.377 1019.12 524.952 1036.15 516.817ZM1037.1 516.356C1037.1 516.356 1037.1 516.355 1037.1 516.354L1037.1 516.353C1037.1 516.354 1037.1 516.355 1037.1 516.356Z" stroke="#125881" stroke-opacity="0.5" stroke-width="5"/>
<path d="M974.075 365.14C939.658 374.384 927.522 419.294 952.124 445.932C973.691 469.282 1012.13 467.164 1030.04 440.803H1030.04C1030.73 439.78 1032.54 436.746 1034.12 433.543C1034.91 431.948 1035.61 430.371 1036.09 429.023C1036.37 428.226 1036.53 427.626 1036.61 427.208C1017.09 418.403 995.413 421.411 979.358 435.514L979.354 435.517C977.928 436.765 975.714 436.773 974.303 435.356L965.943 426.996C964.546 425.599 964.528 423.415 965.755 421.975L965.761 421.969L965.766 421.962L966.422 421.19C979.801 405.162 983.094 384.108 974.075 365.14Z" stroke="#125881" stroke-opacity="0.5" stroke-width="5"/>
<path d="M884.265 365.142C876.445 382.874 877.846 401.057 888.905 417.202L888.907 417.206C889.427 417.967 890.579 419.683 891.581 421.237C892.079 422.009 892.557 422.768 892.903 423.358C893.071 423.643 893.238 423.94 893.362 424.197C893.417 424.31 893.511 424.512 893.583 424.742C893.614 424.844 893.687 425.092 893.704 425.409C893.713 425.567 893.777 426.66 892.822 427.475C891.711 428.438 889.526 430.455 887.581 432.268C886.612 433.171 885.715 434.013 885.06 434.628C884.732 434.936 884.465 435.186 884.28 435.361C884.188 435.448 884.115 435.516 884.066 435.562C884.042 435.585 884.024 435.603 884.012 435.615C884.005 435.62 884 435.624 883.997 435.627C883.996 435.629 883.995 435.63 883.994 435.631H883.993V435.632L883.979 435.644L883.967 435.656C883.341 436.23 882.639 436.319 882.309 436.331C881.957 436.344 881.671 436.285 881.517 436.246C881.199 436.168 880.921 436.045 880.747 435.963C880.369 435.785 879.936 435.535 879.514 435.277C878.649 434.747 877.523 433.996 876.344 433.201C873.912 431.564 871.23 429.729 869.429 428.723L869.428 428.724C854.638 420.464 837.498 420.112 822.283 427.309C824.278 436.236 829.934 444.409 837.504 450.625C845.351 457.069 855.076 461.261 864.453 462.014C905.713 465.323 933.543 421.548 911.941 385.906C909.047 381.13 904.657 376.262 899.549 372.393C894.733 368.745 889.418 366.089 884.265 365.142Z" stroke="#125881" stroke-opacity="0.5" stroke-width="5"/>
<path d="M1054.68 453.666C1049.73 453.061 1046.87 454.06 1044.43 455.75C1043.12 456.653 1041.89 457.791 1040.47 459.171C1039.31 460.302 1038.02 461.607 1036.57 462.94V462.963L1035.72 463.71C1033.1 466.022 1028.35 469.299 1025.13 471.458C1026.33 472.282 1027.48 473.211 1028.54 474.109C1030.13 475.451 1031.39 476.613 1032.66 477.625L1032.66 477.626C1034.33 478.962 1035.81 480.421 1037.18 481.816C1038.58 483.243 1039.81 484.554 1041.13 485.775C1043.7 488.164 1046.27 489.892 1049.73 490.438C1055.84 491.404 1060.86 488.999 1065.67 484.993C1068.08 482.98 1070.37 480.62 1072.67 478.164C1074.64 476.067 1076.64 473.866 1078.65 471.875C1076.27 468.803 1072.09 464.449 1067.52 460.73C1065.2 458.843 1062.82 457.159 1060.57 455.898C1058.29 454.62 1056.28 453.862 1054.68 453.666ZM1023.61 470.504C1023.61 470.505 1023.61 470.506 1023.62 470.507C1023.61 470.505 1023.61 470.502 1023.6 470.5L1023.61 470.504Z" stroke="#125881" stroke-opacity="0.5" stroke-width="5"/>
<path d="M929.201 322.749C927.488 324.212 924.731 326.852 922.04 329.537C918.799 332.772 915.989 335.729 915.463 336.403V336.404C912.11 340.706 910.206 345.832 910.781 351.03C911.156 354.399 912.381 356.605 914.099 358.639C914.994 359.699 916.016 360.705 917.187 361.842C918.334 362.957 919.614 364.188 920.882 365.597L920.883 365.598C923.803 368.844 926.938 372.503 929.294 376.702C931.11 373.292 933.519 369.883 935.743 367.192H935.742C937.179 365.451 938.649 364.047 940.002 362.811C941.393 361.539 942.565 360.527 943.639 359.403C945.638 357.31 947.13 354.998 947.633 350.889C948.354 344.991 945.934 340.097 942.004 335.408C940.033 333.057 937.738 330.825 935.352 328.588C933.303 326.667 931.152 324.711 929.201 322.749Z" stroke="#125881" stroke-opacity="0.5" stroke-width="5"/>
<path d="M811.803 454.666C804.577 452.317 799.164 454.231 794.155 458.03C791.59 459.976 789.163 462.4 786.683 465.026C784.52 467.317 782.271 469.811 779.968 472.099C781.456 473.839 784.168 476.662 786.935 479.419C790.269 482.742 793.313 485.608 794.017 486.139L794.02 486.142C797.139 488.505 801.554 490.439 805.279 490.626L805.638 490.639C810.758 490.738 813.953 488.879 816.953 486.143C818.529 484.705 819.969 483.103 821.676 481.312C823.34 479.566 825.189 477.72 827.397 476.057C828.969 474.87 831.197 473.218 833.44 471.834C830.196 469.742 825.512 466.625 823.12 464.538C820.708 462.434 818.854 459.97 817.414 458.415C815.889 456.769 814.336 455.489 811.803 454.666Z" stroke="#125881" stroke-opacity="0.5" stroke-width="5"/>
<path d="M929.147 567.375C927.334 570.739 925.118 574.053 922.785 576.89L922.784 576.892C921.354 578.628 919.227 580.43 917.464 581.96C915.537 583.631 914.093 584.94 913.421 585.943L913.42 585.944C911.07 589.447 910.319 592.733 910.552 595.829C910.788 598.975 912.057 602.116 914.06 605.236C917.889 611.201 924.044 616.566 929.388 621.163C931.664 618.885 934.14 616.654 936.405 614.511C939.014 612.044 941.416 609.628 943.341 607.076C947.099 602.092 948.982 596.701 946.646 589.51C945.84 587.031 944.561 585.452 942.906 583.898C942.025 583.071 941.133 582.334 940.056 581.39C939.017 580.481 937.902 579.457 936.796 578.222L936.797 578.221C934.05 575.158 931.208 571.318 929.147 567.375Z" stroke="#125881" stroke-opacity="0.5" stroke-width="5"/>
<path d="M929.212 447.637C925.011 455.236 918.559 462.547 911.922 467.584L911.921 467.585C910.406 468.734 908.765 469.692 907.266 470.558C906.351 471.086 905.493 471.578 904.689 472.075C905.2 472.384 905.758 472.719 906.336 473.062C908.426 474.305 910.976 475.799 911.909 476.498L911.911 476.499C915.133 478.917 921.077 484.733 923.95 488.294L924.482 488.975C925.142 489.849 926.257 491.751 927.282 493.442C927.935 494.519 928.581 495.56 929.164 496.433C933.7 488.893 939.399 481.878 946.625 476.488L946.629 476.485L946.996 476.228C947.946 475.585 949.511 474.688 950.904 473.862C951.883 473.282 952.826 472.708 953.63 472.184C943.579 466.259 934.979 457.904 929.212 447.637Z" stroke="#125881" stroke-opacity="0.5" stroke-width="5"/>
<path d="M1085.86 373.996C1087 333.927 1043.69 308.539 1009.23 329.857V329.858C1004.63 332.706 999.732 337.099 995.855 342.189C992.191 347.001 989.577 352.256 988.84 357.253C1008.01 366.076 1029.81 362.876 1045.5 348.77L1045.51 348.768L1045.64 348.655C1047.03 347.522 1049.07 347.526 1050.45 348.762L1050.45 348.768L1059.4 356.848C1059.41 356.851 1059.41 356.855 1059.41 356.858C1059.46 356.894 1059.58 356.992 1059.7 357.124C1059.91 357.336 1060.59 358.086 1060.49 359.261L1060.49 359.274C1060.43 359.899 1060.18 360.432 1060.05 360.683C1059.89 361.011 1059.69 361.347 1059.49 361.662C1059.08 362.296 1058.56 363.015 1058.04 363.702C1056.92 365.192 1055.93 366.414 1055.43 367.122L1055.43 367.123C1044.59 382.455 1042.79 402.459 1051.05 419.223C1070.26 414.737 1084.93 394.653 1085.83 374.946V374.945L1085.86 373.996Z" stroke="#125881" stroke-opacity="0.5" stroke-width="5"/>
<path d="M1202.71 357.033C1193.34 322.7 1148.68 310.661 1121.92 335.128C1095.54 359.243 1102.66 404.35 1135.66 418.016C1136.59 418.4 1138 419.033 1139.37 419.443C1139.84 419.584 1140.23 419.672 1140.53 419.719C1140.62 419.527 1140.71 419.305 1140.81 419.053C1141.18 418.135 1141.63 416.94 1142.07 415.697C1142.97 413.167 1143.8 410.647 1143.97 409.95V409.949C1147.44 396.327 1145.65 382.739 1138.35 370.743L1138.14 370.427C1137.87 370.047 1137.43 369.471 1136.83 368.702C1136.08 367.744 1135.16 366.579 1134.31 365.433C1133.47 364.303 1132.62 363.092 1132.04 362.028C1131.75 361.507 1131.46 360.902 1131.29 360.289C1131.16 359.814 1130.9 358.607 1131.64 357.479H1131.64C1131.85 357.158 1132.22 356.765 1132.45 356.525C1132.75 356.199 1133.15 355.79 1133.61 355.335C1134.52 354.422 1135.69 353.287 1136.87 352.188C1138.04 351.096 1139.25 350.01 1140.23 349.21C1140.71 348.817 1141.19 348.445 1141.62 348.172C1141.82 348.042 1142.1 347.873 1142.42 347.745C1142.57 347.682 1142.84 347.588 1143.17 347.546C1143.45 347.51 1144.03 347.477 1144.67 347.788L1144.79 347.853C1145.92 348.482 1147.06 349.504 1147.97 350.331C1148.87 351.136 1149.64 351.848 1150.37 352.402L1150.68 352.63C1166.22 363.592 1185.67 365.168 1202.71 357.033ZM1203.65 356.572C1203.65 356.571 1203.66 356.571 1203.66 356.57L1203.66 356.568C1203.66 356.569 1203.65 356.571 1203.65 356.572Z" stroke="#125881" stroke-opacity="0.5" stroke-width="5"/>
<path d="M1140.63 205.355C1106.21 214.599 1094.08 259.51 1118.68 286.147C1140.25 309.497 1178.68 307.38 1196.59 281.019H1196.59C1197.29 279.995 1199.1 276.961 1200.68 273.759C1201.46 272.164 1202.17 270.586 1202.64 269.238C1202.92 268.441 1203.08 267.842 1203.16 267.424C1183.64 258.619 1161.97 261.627 1145.91 275.729L1145.91 275.732C1144.48 276.981 1142.27 276.989 1140.86 275.571L1132.5 267.212C1131.1 265.815 1131.08 263.631 1132.31 262.19L1132.32 262.185L1132.32 262.178L1132.98 261.405C1146.36 245.378 1149.65 224.324 1140.63 205.355Z" stroke="#125881" stroke-opacity="0.5" stroke-width="5"/>
<path d="M1050.82 205.357C1043 223.09 1044.4 241.273 1055.46 257.418L1055.46 257.422C1055.98 258.183 1057.14 259.898 1058.14 261.452C1058.64 262.225 1059.11 262.984 1059.46 263.573C1059.63 263.859 1059.79 264.155 1059.92 264.412C1059.97 264.526 1060.07 264.727 1060.14 264.958C1060.17 265.059 1060.24 265.307 1060.26 265.625C1060.27 265.783 1060.33 266.876 1059.38 267.69C1058.27 268.653 1056.08 270.671 1054.14 272.483C1053.17 273.386 1052.27 274.228 1051.62 274.844C1051.29 275.151 1051.02 275.402 1050.84 275.576C1050.74 275.663 1050.67 275.731 1050.62 275.777C1050.6 275.8 1050.58 275.818 1050.57 275.83C1050.56 275.836 1050.56 275.84 1050.55 275.843C1050.55 275.844 1050.55 275.846 1050.55 275.847H1050.55V275.848L1050.54 275.859L1050.52 275.872C1049.9 276.445 1049.2 276.535 1048.87 276.547C1048.51 276.56 1048.23 276.5 1048.07 276.462C1047.76 276.383 1047.48 276.261 1047.3 276.179C1046.93 276.001 1046.49 275.75 1046.07 275.492C1045.21 274.963 1044.08 274.211 1042.9 273.417C1040.47 271.78 1037.79 269.945 1035.99 268.938L1035.98 268.939C1021.19 260.679 1004.05 260.328 988.84 267.524C990.834 276.452 996.491 284.625 1004.06 290.841C1011.91 297.284 1021.63 301.477 1031.01 302.229C1072.27 305.538 1100.1 261.763 1078.5 226.122C1075.6 221.346 1071.21 216.477 1066.11 212.608C1061.29 208.961 1055.97 206.305 1050.82 205.357Z" stroke="#125881" stroke-opacity="0.5" stroke-width="5"/>
<path d="M1221.23 293.881C1216.29 293.277 1213.43 294.276 1210.98 295.966C1209.68 296.868 1208.44 298.007 1207.03 299.387C1205.87 300.518 1204.58 301.822 1203.12 303.156V303.179L1202.27 303.926C1199.65 306.237 1194.91 309.514 1191.68 311.674C1192.89 312.497 1194.04 313.426 1195.1 314.324C1196.68 315.666 1197.94 316.828 1199.21 317.841L1199.21 317.842C1200.88 319.178 1202.37 320.637 1203.73 322.031C1205.13 323.459 1206.37 324.77 1207.68 325.99C1210.26 328.379 1212.83 330.108 1216.28 330.654C1222.39 331.62 1227.42 329.215 1232.22 325.208C1234.64 323.196 1236.93 320.836 1239.23 318.379C1241.19 316.282 1243.19 314.082 1245.21 312.091C1242.82 309.019 1238.65 304.664 1234.07 300.946C1231.75 299.059 1229.37 297.375 1227.12 296.114C1224.84 294.836 1222.84 294.077 1221.23 293.881ZM1190.17 310.72C1190.17 310.721 1190.17 310.722 1190.17 310.723C1190.17 310.72 1190.16 310.717 1190.16 310.715L1190.17 310.72Z" stroke="#125881" stroke-opacity="0.5" stroke-width="5"/>
<path d="M1095.76 162.965C1094.04 164.427 1091.29 167.067 1088.59 169.753C1085.35 172.988 1082.54 175.945 1082.02 176.618V176.619C1078.66 180.922 1076.76 186.047 1077.34 191.245C1077.71 194.614 1078.94 196.821 1080.65 198.854C1081.55 199.914 1082.57 200.921 1083.74 202.058C1084.89 203.172 1086.17 204.404 1087.44 205.812L1087.44 205.813C1090.36 209.06 1093.49 212.719 1095.85 216.918C1097.66 213.508 1100.07 210.098 1102.3 207.407H1102.3C1103.73 205.666 1105.2 204.263 1106.56 203.026C1107.95 201.755 1109.12 200.742 1110.19 199.618C1112.19 197.525 1113.69 195.214 1114.19 191.104C1114.91 185.207 1112.49 180.312 1108.56 175.624C1106.59 173.273 1104.29 171.041 1101.91 168.804C1099.86 166.883 1097.71 164.927 1095.76 162.965Z" stroke="#125881" stroke-opacity="0.5" stroke-width="5"/>
<path d="M978.357 294.882C971.131 292.533 965.719 294.446 960.71 298.246C958.145 300.191 955.718 302.615 953.237 305.242C951.074 307.532 948.826 310.027 946.522 312.314C948.01 314.054 950.722 316.878 953.489 319.635C956.824 322.957 959.868 325.823 960.571 326.354L960.574 326.357C963.693 328.72 968.108 330.654 971.834 330.842L972.192 330.854C977.313 330.954 980.508 329.095 983.508 326.358C985.084 324.921 986.523 323.319 988.23 321.528C989.895 319.782 991.744 317.936 993.952 316.272C995.524 315.085 997.751 313.434 999.995 312.05C996.751 309.957 992.067 306.84 989.675 304.754C987.262 302.65 985.409 300.185 983.969 298.631C982.444 296.985 980.891 295.705 978.357 294.882Z" stroke="#125881" stroke-opacity="0.5" stroke-width="5"/>
<path d="M1095.7 407.59C1093.89 410.954 1091.67 414.269 1089.34 417.106L1089.34 417.108C1087.91 418.844 1085.78 420.646 1084.02 422.175C1082.09 423.846 1080.65 425.156 1079.98 426.159L1079.97 426.16C1077.62 429.662 1076.87 432.949 1077.11 436.044C1077.34 439.191 1078.61 442.332 1080.61 445.452C1084.44 451.416 1090.6 456.781 1095.94 461.378C1098.22 459.1 1100.69 456.87 1102.96 454.727C1105.57 452.26 1107.97 449.844 1109.9 447.292C1113.65 442.308 1115.54 436.917 1113.2 429.726C1112.39 427.247 1111.12 425.668 1109.46 424.114C1108.58 423.287 1107.69 422.55 1106.61 421.606C1105.57 420.696 1104.46 419.672 1103.35 418.438L1103.35 418.437C1100.6 415.373 1097.76 411.534 1095.7 407.59Z" stroke="#125881" stroke-opacity="0.5" stroke-width="5"/>
<path d="M1095.77 287.852C1091.57 295.452 1085.11 302.763 1078.48 307.8L1078.48 307.801C1076.96 308.949 1075.32 309.907 1073.82 310.773C1072.91 311.301 1072.05 311.794 1071.24 312.291C1071.76 312.6 1072.31 312.934 1072.89 313.278C1074.98 314.521 1077.53 316.015 1078.46 316.714L1078.47 316.715C1081.69 319.132 1087.63 324.949 1090.5 328.51L1091.04 329.19C1091.7 330.065 1092.81 331.967 1093.84 333.658C1094.49 334.735 1095.14 335.775 1095.72 336.648C1100.25 329.109 1105.95 322.093 1113.18 316.704L1113.18 316.701L1113.55 316.443C1114.5 315.801 1116.07 314.904 1117.46 314.078C1118.44 313.498 1119.38 312.924 1120.18 312.399C1110.13 306.475 1101.53 298.119 1095.77 287.852Z" stroke="#125881" stroke-opacity="0.5" stroke-width="5"/>
<path d="M238.368 353.565C237.23 313.496 280.534 288.108 314.996 309.426V309.427C319.598 312.275 324.497 316.668 328.373 321.758C332.037 326.57 334.652 331.825 335.389 336.822C316.218 345.645 294.421 342.445 278.724 328.339L278.721 328.337L278.589 328.224C277.2 327.091 275.161 327.095 273.781 328.332L273.774 328.337L264.827 336.417C264.823 336.421 264.819 336.424 264.814 336.427C264.771 336.463 264.652 336.561 264.524 336.693C264.318 336.905 263.64 337.655 263.738 338.831L263.74 338.843C263.795 339.468 264.049 340.001 264.174 340.252C264.337 340.58 264.538 340.916 264.74 341.231C265.148 341.865 265.67 342.584 266.187 343.271C267.307 344.761 268.301 345.983 268.801 346.691L268.802 346.692C279.639 362.024 281.439 382.028 273.174 398.792C253.967 394.306 239.301 374.222 238.403 354.515V354.514L238.368 353.565Z" stroke="#125881" stroke-opacity="0.5" stroke-width="5"/>
<path d="M121.52 336.602C130.886 302.269 175.553 290.231 202.313 314.697C228.692 338.812 221.571 383.919 188.564 397.585C187.639 397.969 186.229 398.602 184.861 399.012C184.391 399.153 184 399.241 183.695 399.289C183.612 399.096 183.519 398.874 183.418 398.623C183.047 397.704 182.602 396.509 182.158 395.266C181.255 392.736 180.431 390.216 180.254 389.519V389.518C176.785 375.896 178.582 362.308 185.88 350.312L186.091 349.996C186.358 349.616 186.798 349.04 187.398 348.271C188.146 347.313 189.066 346.148 189.917 345.002C190.757 343.872 191.606 342.661 192.19 341.597C192.477 341.076 192.767 340.471 192.935 339.858C193.064 339.383 193.331 338.176 192.59 337.048H192.589C192.377 336.727 192.009 336.335 191.782 336.094C191.474 335.768 191.074 335.359 190.619 334.904C189.706 333.991 188.535 332.856 187.357 331.757C186.187 330.665 184.978 329.579 183.999 328.779C183.519 328.386 183.036 328.014 182.611 327.741C182.411 327.612 182.128 327.442 181.811 327.314C181.654 327.251 181.391 327.157 181.062 327.115C180.783 327.079 180.196 327.046 179.562 327.357L179.438 327.422C178.313 328.051 177.171 329.073 176.255 329.9C175.363 330.705 174.589 331.417 173.858 331.971L173.547 332.199C158.012 343.161 138.554 344.737 121.52 336.602ZM120.576 336.141C120.575 336.14 120.573 336.14 120.571 336.139L120.568 336.137C120.571 336.138 120.574 336.14 120.576 336.141Z" stroke="#125881" stroke-opacity="0.5" stroke-width="5"/>
<path d="M183.599 184.925C218.016 194.169 230.152 239.079 205.55 265.717C183.983 289.066 145.549 286.949 127.636 260.588H127.635C126.939 259.564 125.133 256.53 123.552 253.328C122.764 251.733 122.062 250.156 121.586 248.807C121.305 248.01 121.147 247.411 121.065 246.993C140.587 238.188 162.261 241.196 178.315 255.299L178.319 255.302C179.746 256.55 181.96 256.558 183.371 255.14L191.73 246.781C193.127 245.384 193.146 243.2 191.919 241.76L191.913 241.754L191.908 241.747L191.252 240.974C177.873 224.947 174.58 203.893 183.599 184.925Z" stroke="#125881" stroke-opacity="0.5" stroke-width="5"/>
<path d="M273.407 184.927C281.227 202.659 279.826 220.842 268.767 236.987L268.765 236.991C268.245 237.752 267.093 239.467 266.091 241.021C265.593 241.794 265.115 242.553 264.769 243.142C264.601 243.428 264.434 243.724 264.31 243.981C264.255 244.095 264.16 244.296 264.089 244.527C264.057 244.628 263.985 244.876 263.968 245.194C263.959 245.352 263.895 246.445 264.85 247.26C265.961 248.223 268.146 250.24 270.091 252.052C271.06 252.955 271.957 253.797 272.612 254.413C272.94 254.72 273.207 254.971 273.392 255.145C273.484 255.232 273.557 255.3 273.605 255.346C273.63 255.369 273.648 255.387 273.66 255.399C273.666 255.405 273.672 255.409 273.675 255.412C273.676 255.413 273.677 255.415 273.678 255.416H273.679V255.417L273.692 255.428L273.705 255.441C274.33 256.014 275.033 256.104 275.363 256.116C275.715 256.129 276.001 256.069 276.155 256.031C276.473 255.952 276.75 255.83 276.925 255.748C277.303 255.57 277.736 255.319 278.158 255.061C279.023 254.532 280.149 253.78 281.328 252.986C283.76 251.349 286.442 249.514 288.243 248.508L288.244 248.509C303.034 240.248 320.174 239.897 335.389 247.094C333.394 256.021 327.738 264.194 320.168 270.41C312.321 276.853 302.596 281.046 293.219 281.799C251.959 285.108 224.129 241.332 245.73 205.691C248.625 200.915 253.015 196.047 258.123 192.177C262.939 188.53 268.254 185.874 273.407 184.927Z" stroke="#125881" stroke-opacity="0.5" stroke-width="5"/>
<path d="M102.996 273.45C107.939 272.846 110.803 273.845 113.246 275.535C114.55 276.438 115.786 277.576 117.201 278.956C118.36 280.087 119.653 281.391 121.107 282.725V282.748L121.954 283.495C124.577 285.807 129.321 289.083 132.548 291.243C131.342 292.066 130.19 292.995 129.131 293.894C127.548 295.235 126.285 296.397 125.017 297.41L125.015 297.411C123.344 298.747 121.863 300.206 120.496 301.601C119.097 303.028 117.863 304.339 116.547 305.56C113.972 307.948 111.402 309.677 107.948 310.223C101.834 311.189 96.8107 308.784 92.0049 304.777C89.5909 302.765 87.3019 300.405 85.002 297.948C83.0387 295.851 81.0374 293.651 79.0234 291.66C81.4084 288.588 85.5823 284.233 90.1562 280.515C92.4769 278.628 94.8539 276.944 97.1064 275.683C99.3884 274.405 101.392 273.646 102.996 273.45ZM134.063 290.289C134.062 290.29 134.06 290.291 134.058 290.292C134.062 290.29 134.066 290.287 134.07 290.284L134.063 290.289Z" stroke="#125881" stroke-opacity="0.5" stroke-width="5"/>
<path d="M228.473 142.534C230.185 143.997 232.943 146.637 235.634 149.322C238.875 152.557 241.685 155.514 242.211 156.187V156.188C245.564 160.491 247.468 165.616 246.893 170.814C246.518 174.183 245.292 176.39 243.575 178.424C242.68 179.483 241.658 180.49 240.487 181.627C239.34 182.741 238.06 183.973 236.792 185.382L236.791 185.383C233.871 188.629 230.736 192.288 228.38 196.487C226.564 193.077 224.155 189.667 221.931 186.976H221.932C220.495 185.235 219.025 183.832 217.672 182.595C216.28 181.324 215.109 180.311 214.035 179.187C212.036 177.094 210.543 174.783 210.041 170.674C209.32 164.776 211.74 159.881 215.67 155.193C217.641 152.842 219.936 150.61 222.322 148.373C224.371 146.452 226.522 144.496 228.473 142.534Z" stroke="#125881" stroke-opacity="0.5" stroke-width="5"/>
<path d="M345.871 274.451C353.097 272.102 358.51 274.015 363.519 277.815C366.083 279.761 368.511 282.184 370.991 284.811C373.154 287.101 375.403 289.596 377.706 291.883C376.218 293.623 373.506 296.447 370.739 299.204C367.405 302.526 364.361 305.392 363.657 305.923L363.654 305.926C360.535 308.289 356.12 310.223 352.395 310.411L352.036 310.423C346.915 310.523 343.721 308.664 340.721 305.927C339.145 304.49 337.705 302.888 335.998 301.097C334.334 299.351 332.485 297.505 330.276 295.841C328.705 294.654 326.477 293.003 324.233 291.619C327.477 289.526 332.161 286.409 334.554 284.323C336.966 282.219 338.82 279.754 340.26 278.2C341.784 276.554 343.338 275.274 345.871 274.451Z" stroke="#125881" stroke-opacity="0.5" stroke-width="5"/>
<path d="M228.526 387.159C230.34 390.523 232.556 393.838 234.889 396.675L234.89 396.677C236.32 398.413 238.447 400.215 240.21 401.744C242.136 403.416 243.581 404.725 244.253 405.728L244.254 405.729C246.604 409.231 247.354 412.518 247.122 415.614C246.886 418.76 245.617 421.901 243.614 425.021C239.785 430.985 233.63 436.35 228.286 440.948C226.01 438.669 223.534 436.439 221.269 434.296C218.66 431.829 216.258 429.413 214.333 426.861C210.575 421.877 208.692 416.486 211.027 409.295C211.834 406.816 213.113 405.237 214.768 403.683C215.648 402.856 216.541 402.119 217.618 401.175C218.656 400.266 219.772 399.241 220.878 398.007L220.877 398.006C223.624 394.942 226.466 391.103 228.526 387.159Z" stroke="#125881" stroke-opacity="0.5" stroke-width="5"/>
<path d="M228.462 267.421C232.663 275.021 239.115 282.332 245.752 287.369L245.753 287.37C247.268 288.518 248.909 289.476 250.408 290.342C251.323 290.87 252.18 291.363 252.984 291.86C252.473 292.169 251.916 292.503 251.338 292.847C249.248 294.09 246.698 295.584 245.765 296.283L245.763 296.284C242.541 298.702 236.597 304.518 233.724 308.079L233.191 308.759C232.532 309.634 231.417 311.536 230.392 313.227C229.739 314.304 229.092 315.344 228.51 316.217C223.974 308.678 218.275 301.662 211.049 296.273L211.045 296.27L210.678 296.012C209.728 295.37 208.163 294.473 206.77 293.647C205.79 293.067 204.848 292.493 204.044 291.968C214.095 286.044 222.695 277.688 228.462 267.421Z" stroke="#125881" stroke-opacity="0.5" stroke-width="5"/>
<path d="M411.694 193.78C410.556 153.711 453.86 128.323 488.322 149.642V149.643C492.925 152.49 497.823 156.883 501.699 161.974C505.363 166.786 507.978 172.04 508.715 177.037C489.544 185.86 467.747 182.66 452.05 168.555L452.047 168.553L451.915 168.439C450.526 167.307 448.487 167.311 447.107 168.547L447.101 168.553L438.153 176.633C438.15 176.636 438.145 176.639 438.141 176.643C438.097 176.678 437.978 176.777 437.851 176.908C437.644 177.12 436.967 177.87 437.064 179.046L437.066 179.059C437.122 179.683 437.375 180.216 437.5 180.468C437.663 180.795 437.864 181.131 438.066 181.446C438.474 182.08 438.996 182.799 439.513 183.486C440.633 184.976 441.627 186.198 442.127 186.906L442.128 186.907C452.965 202.239 454.765 222.243 446.5 239.008C427.293 234.521 412.627 214.437 411.729 194.73V194.729L411.694 193.78Z" stroke="#125881" stroke-opacity="0.5" stroke-width="5"/>
<path d="M294.848 176.817C304.214 142.485 348.881 130.446 375.642 154.912C402.02 179.027 394.9 224.135 361.893 237.801C360.967 238.184 359.557 238.817 358.189 239.228C357.719 239.369 357.328 239.457 357.023 239.504C356.941 239.312 356.848 239.089 356.746 238.838C356.375 237.919 355.93 236.725 355.486 235.481C354.583 232.951 353.759 230.431 353.582 229.734V229.733C350.113 216.111 351.91 202.523 359.208 190.527L359.419 190.211C359.686 189.832 360.126 189.256 360.727 188.486C361.474 187.528 362.394 186.363 363.245 185.218C364.085 184.087 364.934 182.877 365.519 181.812C365.805 181.291 366.095 180.686 366.263 180.073C366.393 179.598 366.659 178.391 365.918 177.264H365.917C365.705 176.942 365.337 176.55 365.11 176.31C364.802 175.983 364.403 175.574 363.947 175.119C363.035 174.207 361.863 173.071 360.686 171.973C359.515 170.881 358.306 169.795 357.327 168.994C356.847 168.602 356.364 168.229 355.939 167.956C355.739 167.827 355.456 167.657 355.139 167.529C354.982 167.466 354.719 167.372 354.391 167.33C354.111 167.294 353.525 167.261 352.891 167.572L352.767 167.638C351.641 168.267 350.499 169.289 349.583 170.115C348.691 170.92 347.917 171.632 347.187 172.187L346.875 172.414C331.34 183.377 311.883 184.952 294.848 176.817ZM293.904 176.356C293.903 176.356 293.901 176.355 293.899 176.354L293.896 176.353C293.899 176.354 293.902 176.355 293.904 176.356Z" stroke="#125881" stroke-opacity="0.5" stroke-width="5"/>
<path d="M356.925 25.1399C391.342 34.3839 403.478 79.2943 378.876 105.932C357.309 129.282 318.875 127.164 300.962 100.803H300.961C300.265 99.7795 298.46 96.7456 296.878 93.5432C296.09 91.9481 295.388 90.3709 294.912 89.0227C294.631 88.2256 294.473 87.6265 294.392 87.2083C313.913 78.4032 335.587 81.4111 351.642 95.5139L351.646 95.5168C353.072 96.765 355.286 96.773 356.697 95.3557L365.057 86.9963C366.454 85.5992 366.472 83.415 365.245 81.9749L365.239 81.969L365.234 81.9622L364.578 81.1897C351.199 65.1625 347.906 44.1079 356.925 25.1399Z" stroke="#125881" stroke-opacity="0.5" stroke-width="5"/>
<path d="M446.735 25.1418C454.555 42.874 453.154 61.0572 442.095 77.2024L442.093 77.2063C441.573 77.9673 440.421 79.6828 439.419 81.2366C438.921 82.0091 438.443 82.7682 438.097 83.3577C437.929 83.6434 437.762 83.9396 437.638 84.1965C437.583 84.3101 437.489 84.5117 437.417 84.7424C437.386 84.8435 437.313 85.0918 437.296 85.4094C437.287 85.5673 437.223 86.6601 438.178 87.4749C439.289 88.4378 441.474 90.455 443.419 92.2678C444.388 93.1707 445.285 94.0125 445.94 94.6282C446.268 94.9357 446.535 95.1865 446.72 95.3606C446.812 95.4477 446.885 95.5158 446.934 95.5618C446.958 95.5847 446.976 95.6028 446.988 95.6145C446.995 95.6204 447 95.6243 447.003 95.6272C447.004 95.6287 447.005 95.6304 447.006 95.6311H447.007V95.6321L447.021 95.6438L447.033 95.6565C447.659 96.2298 448.361 96.3191 448.691 96.3313C449.043 96.3442 449.329 96.2847 449.483 96.2463C449.801 96.1677 450.079 96.0452 450.253 95.9631C450.631 95.7851 451.064 95.5348 451.486 95.2766C452.351 94.7474 453.477 93.9956 454.656 93.2014C457.088 91.5639 459.77 89.7294 461.571 88.7229L461.572 88.7239C476.362 80.4636 493.502 80.1121 508.717 87.3088C506.722 96.2359 501.066 104.409 493.496 110.625C485.649 117.069 475.924 121.261 466.547 122.014C425.287 125.323 397.457 81.5475 419.059 45.9065C421.953 41.1304 426.343 36.2619 431.451 32.3928C436.267 28.7452 441.582 26.089 446.735 25.1418Z" stroke="#125881" stroke-opacity="0.5" stroke-width="5"/>
<path d="M276.322 113.666C281.266 113.061 284.129 114.06 286.572 115.75C287.877 116.653 289.112 117.791 290.527 119.171C291.686 120.302 292.979 121.607 294.434 122.94V122.963L295.28 123.71C297.903 126.022 302.648 129.299 305.874 131.458C304.669 132.282 303.517 133.211 302.457 134.109C300.874 135.451 299.612 136.613 298.343 137.625L298.341 137.626C296.67 138.962 295.189 140.421 293.822 141.816C292.424 143.243 291.189 144.554 289.873 145.775C287.298 148.164 284.728 149.892 281.274 150.438C275.16 151.404 270.137 148.999 265.331 144.993C262.917 142.98 260.628 140.62 258.328 138.164C256.365 136.067 254.364 133.866 252.35 131.875C254.735 128.803 258.908 124.449 263.482 120.73C265.803 118.843 268.18 117.159 270.433 115.898C272.715 114.62 274.718 113.862 276.322 113.666ZM307.39 130.504C307.388 130.505 307.386 130.506 307.384 130.507C307.388 130.505 307.392 130.502 307.396 130.5L307.39 130.504Z" stroke="#125881" stroke-opacity="0.5" stroke-width="5"/>
<path d="M401.799 -17.2507C403.512 -15.7881 406.269 -13.1481 408.96 -10.4626C412.201 -7.228 415.011 -4.27102 415.537 -3.59741V-3.59644C418.89 0.706473 420.794 5.83177 420.219 11.0295C419.844 14.3987 418.619 16.605 416.901 18.6389C416.006 19.6988 414.984 20.7052 413.813 21.842C412.666 22.9568 411.386 24.1884 410.118 25.5969L410.117 25.5979C407.197 28.8443 404.062 32.5031 401.706 36.7024C399.89 33.2922 397.481 29.8826 395.257 27.1917H395.258C393.821 25.4506 392.351 24.0473 390.998 22.8108C389.607 21.5393 388.435 20.5268 387.361 19.4026C385.362 17.3095 383.87 14.998 383.367 10.8889C382.646 4.9914 385.066 0.0965845 388.996 -4.59155C390.967 -6.94271 393.262 -9.17481 395.648 -11.4119C397.697 -13.3326 399.848 -15.2891 401.799 -17.2507Z" stroke="#125881" stroke-opacity="0.5" stroke-width="5"/>
<path d="M519.197 114.666C526.423 112.317 531.836 114.231 536.845 118.03C539.41 119.976 541.837 122.4 544.317 125.026C546.48 127.317 548.729 129.811 551.032 132.099C549.544 133.839 546.832 136.662 544.065 139.419C540.731 142.742 537.687 145.608 536.983 146.139L536.98 146.142C533.861 148.505 529.446 150.439 525.721 150.626L525.362 150.639C520.242 150.738 517.047 148.879 514.047 146.143C512.471 144.705 511.031 143.103 509.324 141.312C507.66 139.566 505.811 137.72 503.603 136.057C502.031 134.87 499.803 133.218 497.56 131.834C500.804 129.742 505.488 126.625 507.88 124.538C510.292 122.434 512.146 119.97 513.586 118.415C515.111 116.769 516.664 115.489 519.197 114.666Z" stroke="#125881" stroke-opacity="0.5" stroke-width="5"/>
<path d="M401.853 227.375C403.666 230.739 405.882 234.053 408.215 236.89L408.216 236.892C409.646 238.628 411.773 240.43 413.536 241.96C415.463 243.631 416.907 244.94 417.579 245.943L417.58 245.944C419.93 249.447 420.681 252.733 420.448 255.829C420.212 258.975 418.943 262.116 416.94 265.236C413.111 271.201 406.956 276.566 401.612 281.163C399.336 278.885 396.86 276.654 394.595 274.511C391.986 272.044 389.584 269.628 387.659 267.076C383.901 262.092 382.018 256.701 384.354 249.51C385.16 247.031 386.439 245.452 388.094 243.898C388.975 243.071 389.867 242.334 390.944 241.39C391.983 240.481 393.098 239.457 394.204 238.222L394.203 238.221C396.95 235.158 399.792 231.318 401.853 227.375Z" stroke="#125881" stroke-opacity="0.5" stroke-width="5"/>
<path d="M401.788 107.637C405.989 115.236 412.441 122.547 419.078 127.584L419.079 127.585C420.594 128.734 422.235 129.692 423.734 130.558C424.649 131.086 425.507 131.578 426.311 132.075C425.8 132.384 425.242 132.719 424.664 133.062C422.574 134.305 420.024 135.799 419.091 136.498L419.089 136.499C415.867 138.917 409.923 144.733 407.05 148.294L406.518 148.975C405.858 149.849 404.743 151.751 403.718 153.442C403.065 154.519 402.419 155.56 401.836 156.433C397.3 148.893 391.601 141.878 384.375 136.488L384.371 136.485L384.004 136.228C383.054 135.585 381.489 134.688 380.096 133.862C379.117 133.282 378.174 132.708 377.37 132.184C387.421 126.259 396.021 117.904 401.788 107.637Z" stroke="#125881" stroke-opacity="0.5" stroke-width="5"/>
<path d="M245.14 33.9958C244.001 -6.07314 287.305 -31.4614 321.768 -10.1428V-10.1418C326.37 -7.29413 331.268 -2.90142 335.145 2.18921C338.809 7.00123 341.423 12.256 342.16 17.2527C322.989 26.0757 301.192 22.876 285.495 8.77026L285.492 8.76831L285.36 8.65503C283.971 7.52208 281.932 7.52632 280.553 8.76245L280.546 8.76831L271.599 16.8484C271.595 16.8514 271.59 16.8545 271.586 16.8582C271.543 16.8937 271.424 16.9924 271.296 17.1238C271.09 17.3357 270.412 18.0855 270.51 19.2615L270.512 19.2742C270.567 19.8986 270.82 20.4317 270.945 20.6833C271.108 21.0108 271.309 21.347 271.512 21.6619C271.919 22.2959 272.441 23.0148 272.958 23.7019C274.078 25.1917 275.072 26.4141 275.572 27.1218L275.573 27.1228C286.411 42.4547 288.211 62.4587 279.945 79.2234C260.738 74.7367 246.072 54.6528 245.175 34.946V34.9451L245.14 33.9958Z" stroke="#125881" stroke-opacity="0.5" stroke-width="5"/>
<path d="M128.291 17.033C137.658 -17.2996 182.324 -29.3386 209.085 -4.87231C235.464 19.2428 228.343 64.3503 195.336 78.0164C194.41 78.3999 193.001 79.0328 191.633 79.4431C191.162 79.5842 190.771 79.6721 190.467 79.7195C190.384 79.5274 190.291 79.3048 190.189 79.0535C189.819 78.1348 189.373 76.9402 188.93 75.697C188.027 73.1666 187.203 70.647 187.025 69.95V69.949C183.556 56.327 185.353 42.7387 192.651 30.7429L192.862 30.4265C193.129 30.0473 193.569 29.4714 194.17 28.7019C194.917 27.744 195.838 26.5786 196.688 25.4333C197.529 24.3027 198.377 23.0921 198.962 22.0281C199.248 21.5065 199.538 20.9019 199.706 20.2888C199.836 19.8137 200.102 18.607 199.361 17.4792H199.36C199.149 17.1576 198.78 16.7654 198.554 16.5251C198.246 16.1987 197.846 15.7899 197.391 15.3347C196.478 14.4221 195.306 13.2867 194.129 12.1882C192.958 11.0963 191.75 10.0103 190.771 9.20972C190.291 8.81737 189.807 8.44486 189.383 8.17163C189.182 8.04246 188.899 7.8728 188.582 7.74487C188.426 7.68192 188.162 7.58773 187.834 7.54565C187.555 7.50987 186.968 7.47704 186.334 7.78784L186.21 7.85327C185.084 8.48234 183.942 9.50434 183.026 10.3308C182.134 11.1357 181.361 11.8481 180.63 12.4021L180.318 12.6296C164.784 23.5923 145.326 25.1679 128.291 17.033ZM127.348 16.572C127.346 16.5712 127.344 16.5709 127.343 16.5701L127.34 16.5681C127.342 16.5694 127.345 16.5707 127.348 16.572Z" stroke="#125881" stroke-opacity="0.5" stroke-width="5"/>
<path d="M235.298 67.5903C237.111 70.9541 239.327 74.269 241.66 77.106L241.661 77.1079C243.092 78.8438 245.218 80.6456 246.981 82.1753C248.908 83.8465 250.352 85.1559 251.024 86.1587L251.025 86.1597C253.375 89.6621 254.126 92.949 253.894 96.0444C253.657 99.1908 252.389 102.332 250.386 105.452C246.556 111.416 240.401 116.781 235.058 121.378C232.782 119.1 230.305 116.87 228.04 114.727C225.432 112.26 223.029 109.844 221.104 107.292C217.347 102.308 215.463 96.917 217.799 89.7261C218.606 87.2468 219.884 85.6679 221.539 84.1138C222.42 83.2865 223.312 82.5498 224.39 81.606C225.428 80.6964 226.544 79.6723 227.649 78.438L227.648 78.437C230.395 75.3731 233.238 71.534 235.298 67.5903Z" stroke="#125881" stroke-opacity="0.5" stroke-width="5"/>
<path d="M235.233 -52.1477C239.435 -44.548 245.887 -37.2375 252.523 -32.2004L252.524 -32.1995C254.04 -31.0508 255.68 -30.0926 257.18 -29.2268C258.094 -28.6987 258.952 -28.2064 259.756 -27.7092C259.245 -27.4003 258.687 -27.0656 258.109 -26.7219C256.019 -25.4792 253.469 -23.9852 252.536 -23.2864L252.534 -23.2854C249.312 -20.8675 243.368 -15.0514 240.495 -11.4905L239.963 -10.8098C239.303 -9.93514 238.189 -8.03343 237.163 -6.34204C236.51 -5.26544 235.864 -4.2248 235.281 -3.35181C230.745 -10.8913 225.047 -17.9066 217.82 -23.2961L217.816 -23.2991L217.449 -23.5569C216.5 -24.1991 214.934 -25.0964 213.541 -25.9221C212.562 -26.5024 211.619 -27.0762 210.815 -27.6008C220.867 -33.525 229.466 -41.8806 235.233 -52.1477Z" stroke="#125881" stroke-opacity="0.5" stroke-width="5"/>
<defs>
<linearGradient id="paint0_linear_415_204" x1="0" y1="1003.5" x2="1440" y2="1003.5" gradientUnits="userSpaceOnUse">
<stop stop-color="#125881"/>
<stop offset="0.5" stop-color="#60CC00"/>
<stop offset="1" stop-color="#60CC00"/>
</linearGradient>
</defs>
</svg>
