<svg width="403" height="256" viewBox="0 0 403 256" fill="none" xmlns="http://www.w3.org/2000/svg">
<g filter="url(#filter0_d_219_3560)">
<path d="M4.00773 110.174C4.00773 110.02 4.64063 109.618 5.9219 108.978C7.19545 108.345 8.4767 106.824 9.75797 104.424C11.0315 102.031 11.6722 98.5962 11.6722 94.1272V16.5253C11.6722 12.5349 11.0315 9.45517 9.75797 7.30171C8.4767 5.14824 7.20317 3.75119 5.9219 3.11056C4.64063 2.47764 4.00773 2.07628 4.00773 1.91419L4.247 0.717821C4.247 0.239274 4.48627 0 4.96481 0H45.4484C74.825 0 89.521 8.06584 89.521 24.1898V24.4291C89.521 34.8105 83.5314 42.0736 71.56 46.2261C81.3008 48.1403 89.0039 51.8143 94.677 57.2404C100.342 62.6743 103.183 69.3739 103.183 77.3626V78.0804C103.183 88.4618 98.0731 96.7669 87.8538 102.988C77.6345 109.217 64.6983 112.327 49.0529 112.327L4.98022 112.088C4.33958 112.088 4.02313 111.849 4.02313 111.37V110.174H4.00773ZM40.1766 39.758C40.1766 40.8772 40.8095 41.4329 42.0908 41.4329C47.8411 41.1165 52.8272 39.6808 57.0647 37.1183C61.2944 34.5635 63.4094 30.8123 63.4094 25.8647V25.6254C63.4094 16.5253 56.3006 11.817 42.0908 11.4929C40.8095 11.4929 40.1766 12.1335 40.1766 13.407V39.758ZM40.1766 58.1975V97.2377C40.1766 98.1948 40.5316 99.0361 41.2572 99.754C41.975 100.472 42.8163 100.835 43.7734 100.835H44.4912C54.3941 100.835 61.9351 98.7197 67.1296 94.4899C72.3165 90.2602 74.9176 84.7878 74.9176 78.0804V77.6018C74.9176 70.578 72.2393 64.9898 66.8904 60.8372C61.5415 56.6847 53.8384 54.6084 43.7734 54.6084C41.3807 54.6084 40.1843 55.8048 40.1843 58.1975H40.1766ZM106.517 44.5512C105.884 44.5512 105.56 44.2347 105.56 43.5941V40.9621C105.56 39.8429 106.039 39.2872 106.996 39.2872C110.191 39.2872 113.425 39.0093 116.698 38.4459C119.97 37.8901 122.525 37.3653 124.362 36.8867C126.199 36.4082 128.515 35.6518 131.309 34.6098C134.103 33.5755 135.739 32.9734 136.218 32.8114C137.175 32.4949 137.893 32.3328 138.371 32.3328C138.85 32.3328 139.29 32.4177 139.691 32.5721C140.085 32.7342 140.37 33.012 140.533 33.4134C140.687 33.8148 140.849 34.2161 141.011 34.6098C141.165 35.0111 141.25 35.5283 141.25 36.1689V81.4379C141.25 81.6 141.212 82.3564 141.127 83.7149C141.042 85.0733 141.042 86.1076 141.127 86.8254C141.204 87.5433 141.328 88.5467 141.49 89.8202C141.644 91.1015 141.968 92.213 142.447 93.1701C142.925 94.1272 143.558 95.0071 144.361 95.8021C145.959 97.2377 147.873 97.9555 150.111 97.9555C155.862 97.9555 164.12 94.2815 174.903 86.9335C185.678 79.5932 195.38 72.168 204.002 64.6579C204.797 64.025 206.04 62.983 207.714 61.5473C209.389 60.1117 210.709 58.9925 211.666 58.1975V51.4901C211.666 49.2518 210.987 47.4997 209.629 46.2184C208.27 44.9448 206.634 44.3042 204.72 44.3042C204.241 44.3042 204.002 44.0649 204.002 43.5864V40.7151C204.002 39.5959 204.48 39.0402 205.438 39.0402C209.59 39.0402 213.58 38.361 217.417 37.0025C221.245 35.6518 224.803 34.0463 228.076 32.2093C231.349 30.3723 233.463 29.2994 234.42 28.9753C235.378 28.6588 236.095 28.4967 236.574 28.4967C237.053 28.4967 237.492 28.6202 237.894 28.8595C238.287 29.0988 238.612 29.4229 238.851 29.8166C239.09 30.2179 239.291 30.6193 239.453 31.0129C239.607 31.4143 239.692 31.9315 239.692 32.5721V37.126C246.075 33.6141 251.826 31.615 256.935 31.1364C267.471 31.1364 275.383 33.6141 280.647 38.5616C282.723 40.9544 284.236 43.1156 285.201 45.0298C289.67 36.2461 297.813 31.6999 309.63 31.3757C317.927 31.3757 324.557 33.8534 329.513 38.8009C335.101 44.0727 337.733 51.0193 337.416 59.6409L337.895 94.1349C337.895 97.6468 338.257 100.564 338.975 102.88C339.693 105.195 340.534 106.708 341.492 107.434C342.449 108.152 343.29 108.754 344.008 109.232C344.726 109.711 345.088 110.112 345.088 110.429V111.386C345.088 112.026 344.849 112.343 344.371 112.343H302.691C302.212 112.343 301.973 112.104 301.973 111.625V110.429C301.973 110.112 302.336 109.711 303.053 109.232C303.771 108.754 304.613 108.198 305.57 107.557C306.527 106.917 307.407 105.566 308.202 103.482C308.997 101.406 309.398 98.8509 309.398 95.8175V63.9632C309.398 56.9394 308.117 52.2234 305.57 49.8307C304.134 48.2329 302.058 47.4379 299.341 47.4379C296.624 47.4379 294.47 48.395 292.873 50.3092C290.156 53.0261 288.72 57.1015 288.558 62.5276V77.1387C288.558 80.01 288.597 82.7269 288.682 85.2818C288.759 87.8366 288.805 89.99 288.805 91.7499V94.1426C288.805 97.6545 289.199 100.572 290.001 102.888C290.796 105.203 291.638 106.716 292.518 107.442C293.39 108.159 294.231 108.723 295.034 109.116C295.829 109.518 296.23 109.873 296.23 110.197V111.393C296.23 111.872 295.906 112.111 295.273 112.111H253.593C253.115 112.111 252.875 111.872 252.875 111.393V110.197C252.875 110.043 253.508 109.641 254.79 109.001C256.063 108.368 257.344 106.963 258.626 104.81C259.899 102.656 260.54 99.5841 260.54 95.586V63.971C260.54 56.9471 259.259 52.1539 256.704 49.5991C254.79 48.0014 252.628 47.2064 250.236 47.2064C247.202 47.2064 243.683 48.7269 239.692 51.7603C235.061 54.7937 225.714 62.296 211.666 74.2752C211.026 74.7537 210.107 75.5178 208.911 76.5521C207.715 77.5941 206.873 78.3505 206.395 78.8291C205.754 79.4697 204.959 80.1104 204.002 80.7433C195.218 87.7748 190.51 91.5183 189.869 91.9968C190.348 99.9855 191.783 104.292 194.184 104.933C194.5 104.933 194.662 105.172 194.662 105.651C194.338 107.411 192.702 108.97 189.753 110.321C186.797 111.679 183.725 112.358 180.53 112.358H180.291C175.181 112.358 170.789 110.521 167.115 106.847C157.374 111.957 148.676 114.512 141.003 114.512C132.698 114.512 125.991 111.841 120.881 106.484C115.772 101.136 113.217 94.2275 113.217 85.768V51.7526C113.217 49.5219 112.538 47.7621 111.179 46.4808C109.828 45.2073 108.269 44.5666 106.509 44.5666L106.517 44.5512ZM154.426 39.0402C154.426 37.9287 154.904 37.3653 155.862 37.3653C159.057 37.3653 162.291 37.0874 165.564 36.524C168.836 35.9682 171.391 35.4434 173.228 34.9648C175.065 34.4863 177.381 33.7299 180.175 32.6879C182.969 31.6536 184.605 31.0515 185.084 30.8895C185.562 30.7351 186.203 30.6502 186.998 30.6502C187.631 30.6502 188.156 30.7351 188.557 30.8895C188.951 31.0515 189.275 31.3294 189.514 31.7308C189.754 32.1321 189.954 32.5335 190.116 32.9271C190.271 33.3285 190.356 33.8456 190.356 34.4863V39.0402C190.356 41.9115 190.232 46.6275 190.001 53.1728C189.761 59.7258 189.638 63.8706 189.638 65.6304C189.638 67.2282 188.997 68.4245 187.724 69.2273C182.452 73.2177 177.504 76.7374 172.873 79.763C171.592 80.5658 170.241 80.9594 168.798 80.9594C166.884 80.9594 165.24 80.2802 163.889 78.9217C162.53 77.5632 161.851 75.9269 161.851 74.0127V50.3015C161.851 47.9088 161.21 46.0332 159.937 44.6747C158.656 43.324 157.143 42.637 155.383 42.637C154.742 42.637 154.426 42.3977 154.426 41.9192V39.0479V39.0402ZM204.002 111.378V110.182C204.002 110.027 204.635 109.626 205.916 108.985C207.19 108.352 208.471 106.948 209.752 104.794C211.026 102.641 211.666 99.5687 211.666 95.5705V86.4704C211.666 83.9156 212.539 81.9165 214.298 80.4808C219.408 76.1662 223.638 72.662 226.995 69.9451C228.269 68.8336 229.867 68.2702 231.788 68.2702C233.865 68.2702 235.702 68.988 237.299 70.4236C238.897 71.8593 239.692 73.6963 239.692 75.9346V94.1349C239.692 97.6468 240.086 100.564 240.889 102.88C241.684 105.195 242.564 106.708 243.521 107.434C244.478 108.152 245.358 108.715 246.153 109.109C246.948 109.51 247.349 109.865 247.349 110.189V111.386C247.349 111.864 247.025 112.104 246.392 112.104H204.712C204.233 112.104 203.994 111.864 203.994 111.386L204.002 111.378ZM390.35 94.1272C390.35 97.6391 390.743 100.557 391.546 102.872C392.341 105.188 393.221 106.701 394.178 107.426C395.135 108.144 396.015 108.746 396.81 109.225C397.605 109.703 398.007 110.104 398.007 110.421V111.378C398.007 112.019 397.682 112.335 397.049 112.335H355.609C355.13 112.335 354.891 112.096 354.891 111.617L354.652 110.421C354.652 110.104 355.285 109.665 356.566 109.101C357.839 108.545 359.121 107.187 360.402 105.026C361.675 102.872 362.316 99.8003 362.316 95.8021V51.7294C362.316 49.3367 361.675 47.5383 360.402 46.3419C359.121 45.1455 357.531 44.5435 355.609 44.5435C354.968 44.5435 354.652 44.227 354.652 43.5864V40.9544C354.652 39.8352 355.13 39.2795 356.087 39.2795C359.283 39.2795 362.517 39.0016 365.789 38.4381C369.062 37.8824 371.656 37.319 373.577 36.7632C375.492 36.2075 377.769 35.4048 380.401 34.3705C383.033 33.3362 384.669 32.7342 385.31 32.5721C385.788 32.4177 386.429 32.3328 387.224 32.3328C387.702 32.3328 388.142 32.4177 388.544 32.5721C388.937 32.7342 389.261 33.012 389.501 33.4134C389.74 33.8148 389.941 34.2161 390.103 34.6098C390.257 35.0111 390.342 35.5283 390.342 36.1689V94.1349L390.35 94.1272ZM374.781 30.8972C370.629 30.8972 367.032 29.5001 364.006 26.706C360.973 23.9119 359.453 20.5235 359.453 16.5253C359.453 12.5271 360.965 9.13871 364.006 6.34461C367.04 3.55051 370.629 2.15346 374.781 2.15346C378.934 2.15346 382.762 3.55051 385.803 6.34461C388.837 9.13871 390.357 12.5349 390.357 16.5253C390.357 20.5158 388.837 23.9119 385.803 26.706C382.77 29.5001 379.096 30.8972 374.781 30.8972ZM4 244.893C4 244.561 4.65607 244.113 5.97594 243.534C7.2958 242.955 8.60795 241.558 9.93553 239.328C11.2554 237.105 11.9115 233.932 11.9115 229.811V149.453C11.9115 145.833 11.4946 142.823 10.6765 140.43C9.8506 138.045 8.94757 136.517 7.9596 135.853C6.97163 135.197 6.06083 134.618 5.24267 134.124C4.41679 133.63 4.00773 133.221 4.00773 132.889V131.655C4.00773 131.161 4.3396 130.914 4.99567 130.914H48.2656C48.7596 130.914 49.0066 131.161 49.0066 131.655V132.889C49.0066 133.059 48.5898 133.383 47.7716 133.877C46.9457 134.371 46.0813 134.95 45.1782 135.606C44.2674 136.27 43.403 137.667 42.5848 139.813C41.7589 141.959 41.3498 144.598 41.3498 147.724V179.123C41.3498 180.281 41.7203 181.223 42.4613 181.964C43.2022 182.705 44.0668 183.075 45.0547 183.075H66.8131C67.8011 183.075 68.6656 182.705 69.4065 181.964C70.1475 181.223 70.5181 180.273 70.5181 179.123V149.453C70.5181 145.833 70.1013 142.823 69.2831 140.43C68.4572 138.045 67.5542 136.517 66.5662 135.853C65.5782 135.197 64.6674 134.618 63.8493 134.124C63.0234 133.63 62.6143 133.221 62.6143 132.889V131.655C62.6143 131.161 62.9462 130.914 63.6023 130.914H107.119C107.775 130.914 108.107 131.161 108.107 131.655V132.889C108.107 133.059 107.443 133.43 106.131 134.001C104.811 134.58 103.492 135.977 102.179 138.208C100.86 140.43 100.203 143.61 100.203 147.724V228.082C100.203 231.709 100.612 234.72 101.438 237.105C102.264 239.497 103.167 241.057 104.155 241.805C105.143 242.546 106.046 243.164 106.872 243.658C107.698 244.152 108.107 244.569 108.107 244.893V245.881C108.107 246.544 107.775 246.869 107.119 246.869H63.6023C63.1083 246.869 62.8613 246.622 62.8613 246.128L62.6143 244.893C62.6143 244.561 63.2703 244.113 64.5902 243.534C65.9101 242.955 67.2222 241.558 68.5498 239.328C69.8697 237.105 70.5258 233.932 70.5258 229.811V200.388C70.5258 199.238 70.1553 198.288 69.4143 197.547C68.6733 196.806 67.8088 196.436 66.8209 196.436H45.0625C44.0745 196.436 43.21 196.806 42.469 197.547C41.728 198.288 41.3575 199.238 41.3575 200.388V228.082C41.3575 231.709 41.7666 234.72 42.5925 237.105C43.4184 239.497 44.3214 241.057 45.3094 241.805C46.2974 242.546 47.2005 243.164 48.0263 243.658C48.8522 244.152 49.2613 244.569 49.2613 244.893V245.881C49.2613 246.544 48.9294 246.869 48.2733 246.869H5.0034C4.50941 246.869 4.2624 246.622 4.2624 246.128L4.0154 244.893H4ZM153.592 228.321C153.592 231.949 154.001 234.959 154.827 237.344C155.653 239.737 156.556 241.296 157.544 242.045C158.532 242.786 159.435 243.403 160.261 243.897C161.087 244.391 161.496 244.808 161.496 245.132V246.12C161.496 246.784 161.164 247.108 160.508 247.108H117.732C117.238 247.108 116.991 246.861 116.991 246.367L116.744 245.132C116.744 244.8 117.4 244.352 118.72 243.773C120.04 243.195 121.352 241.798 122.68 239.567C124 237.344 124.656 234.172 124.656 230.05V184.557C124.656 182.087 123.992 180.227 122.68 178.992C121.36 177.757 119.716 177.14 117.732 177.14C117.068 177.14 116.744 176.808 116.744 176.152V173.435C116.744 172.285 117.238 171.706 118.226 171.706C121.522 171.706 124.856 171.42 128.237 170.841C131.618 170.262 134.296 169.691 136.272 169.112C138.248 168.534 140.602 167.715 143.319 166.643C146.036 165.57 147.726 164.952 148.39 164.79C148.884 164.628 149.54 164.543 150.366 164.543C150.86 164.543 151.315 164.628 151.724 164.79C152.133 164.952 152.465 165.245 152.712 165.655C152.959 166.071 153.16 166.48 153.33 166.889C153.492 167.306 153.577 167.839 153.577 168.495V228.329L153.592 228.321ZM137.522 163.046C133.231 163.046 129.526 161.602 126.392 158.716C123.259 155.837 121.692 152.332 121.692 148.211C121.692 144.089 123.259 140.585 126.392 137.706C129.518 134.827 133.231 133.376 137.522 133.376C141.814 133.376 145.766 134.819 148.9 137.706C152.025 140.593 153.6 144.097 153.6 148.211C153.6 152.325 152.033 155.837 148.9 158.716C145.766 161.602 141.976 163.046 137.522 163.046ZM171.391 245.387C171.391 245.055 171.8 244.646 172.626 244.152C173.452 243.658 174.355 243.079 175.343 242.423C176.331 241.767 177.234 240.362 178.06 238.216C178.886 236.078 179.295 233.354 179.295 230.058V183.824C179.295 181.354 178.631 179.494 177.319 178.259C175.999 177.024 174.355 176.406 172.371 176.406C171.708 176.406 171.383 176.075 171.383 175.418V172.702C171.383 171.551 171.877 170.973 172.865 170.973C177.319 170.973 181.356 170.602 184.984 169.861C188.611 169.12 192.563 167.924 196.854 166.28C201.138 164.636 203.361 163.81 203.531 163.81C204.025 163.648 204.681 163.563 205.507 163.563C206.827 163.563 207.73 164.142 208.224 165.292C209.706 160.514 211.396 156.06 213.295 151.939C215.186 147.825 217.579 143.618 220.465 139.327C223.344 135.043 226.849 131.624 230.97 129.069C235.092 126.514 239.538 125.24 244.323 125.24C249.109 125.24 252.937 126.522 256.318 129.069C259.691 131.624 261.798 135.29 262.624 140.068C263.45 144.189 262.662 148.682 260.277 153.544C257.885 158.407 253.146 161.417 246.06 162.567C245.566 162.737 244.74 162.814 243.59 162.814C238.974 162.814 235.509 162.073 233.209 160.591C232.715 160.097 232.63 159.688 232.962 159.356C233.618 158.036 233.95 157.133 233.95 156.639C233.95 154.995 233.039 154.169 231.233 154.169C227.111 154.663 222.333 160.722 216.892 172.339C211.45 183.963 208.733 197.107 208.733 211.773V228.337C208.733 233.122 209.436 236.742 210.833 239.212C212.23 241.682 213.588 243.295 214.916 244.036C216.236 244.777 216.892 245.232 216.892 245.394V246.382C216.892 247.046 216.56 247.37 215.904 247.37H172.387C171.893 247.37 171.646 247.123 171.646 246.629L171.399 245.394L171.391 245.387ZM225.05 174.176C225.05 173.026 225.544 172.447 226.532 172.447C240.379 172.447 250.267 170.309 256.202 166.017C257.522 165.361 258.51 165.029 259.166 165.029C259.66 165.029 260.115 165.153 260.525 165.4C260.934 165.647 261.265 165.979 261.512 166.388C261.759 166.805 261.968 167.214 262.13 167.623C262.292 168.04 262.377 168.572 262.377 169.228V228.321C262.377 231.949 262.786 234.998 263.612 237.467C264.438 239.937 265.379 241.551 266.452 242.292C267.525 243.033 268.467 243.65 269.293 244.144C270.119 244.638 270.528 245.055 270.528 245.379V246.367C270.528 247.031 270.196 247.355 269.54 247.355H226.023C225.529 247.355 225.282 247.108 225.282 246.614L225.035 245.379C225.035 245.047 225.737 244.599 227.134 244.021C228.531 243.442 229.89 242.006 231.217 239.69C232.537 237.383 233.193 234.172 233.193 230.05V185.298C233.193 182.828 232.491 180.968 231.094 179.733C229.689 178.498 228.006 177.881 226.023 177.881C225.359 177.881 225.035 177.549 225.035 176.893V174.176H225.05ZM108.678 5.06334H111.071V10.2888H111.125L115.309 5.06334H117.971L113.881 10.1035L118.265 16.479H115.409L112.136 11.6627L111.071 12.9825V16.479H108.678V5.05562V5.06334ZM119.268 5.06334H121.661V10.2888H121.715L125.898 5.06334H128.561L124.47 10.1035L128.854 16.479H125.999L122.734 11.6627L121.669 12.9825V16.479H119.276V5.05562L119.268 5.06334ZM129.858 5.06334H131.95L137.113 12.4885H137.16V5.06334H139.545V16.4867H137.468L132.289 9.00749H132.243V16.4867H129.858V5.06334ZM141.497 10.8368H146.622V12.8513H141.497V10.8368ZM148.583 5.06334H153.175C155.584 5.06334 157.189 6.61476 157.189 8.9689V8.98434C157.189 11.3308 155.584 12.8822 153.175 12.8822H150.976V16.4867H148.583V5.06334ZM150.976 6.95437V11.0143H152.589C153.955 11.0143 154.766 10.2888 154.766 8.99206V8.97662C154.766 7.67991 153.955 6.95437 152.589 6.95437H150.976ZM158.594 5.06334H163.186C165.595 5.06334 167.2 6.61476 167.2 8.9689V8.98434C167.2 11.3308 165.595 12.8822 163.186 12.8822H160.987V16.4867H158.594V5.06334ZM160.987 6.95437V11.0143H162.6C163.966 11.0143 164.776 10.2888 164.776 8.99206V8.97662C164.776 7.67991 163.974 6.95437 162.6 6.95437H160.987ZM168.605 5.06334H171.368L174.618 13.2681H174.664L177.913 5.06334H180.677V16.4867H178.546V8.7605H178.477L175.397 16.4867H173.892L170.805 8.7605H170.743V16.4867H168.613V5.06334H168.605ZM185.771 12.4499V5.06334H188.164V12.2338C188.164 13.7158 189.028 14.6574 190.564 14.6574C192.1 14.6574 192.957 13.7158 192.957 12.2338V5.06334H195.349V12.4499C195.349 14.9816 193.512 16.6874 190.572 16.6874C187.631 16.6874 185.786 14.9971 185.786 12.4499H185.771ZM196.885 10.7442C196.885 7.07787 198.985 4.87038 202.327 4.87038C205.075 4.87038 206.943 6.46811 207.321 8.61385L207.344 8.72191H204.944L204.913 8.64472C204.534 7.53326 203.624 6.89262 202.335 6.89262C200.451 6.89262 199.317 8.28196 199.317 10.7056C199.317 13.1909 200.521 14.6574 202.42 14.6574C203.979 14.6574 205.044 13.7312 205.113 12.3265V12.1566H202.512V10.3737H207.452V11.6858C207.452 14.7964 205.569 16.6797 202.389 16.6797C198.977 16.6797 196.885 14.4568 196.885 10.7364V10.7442ZM209.027 5.06334H211.79L215.039 13.2681H215.086L218.335 5.06334H221.098V16.4867H218.968V8.7605H218.899L215.819 16.4867H214.314L211.226 8.7605H211.165V16.4867H209.034V5.06334H209.027ZM226.193 5.06334H230.785C233.193 5.06334 234.799 6.61476 234.799 8.9689V8.98434C234.799 11.3308 233.193 12.8822 230.785 12.8822H228.585V16.4867H226.193V5.06334ZM228.585 6.95437V11.0143H230.198C231.565 11.0143 232.375 10.2888 232.375 8.99206V8.97662C232.375 7.67991 231.572 6.95437 230.198 6.95437H228.585ZM235.424 12.2647C235.424 9.55551 237.014 7.83428 239.499 7.83428C241.985 7.83428 243.544 9.51692 243.544 12.0872V12.7973H237.701C237.724 14.148 238.457 14.943 239.638 14.943C240.588 14.943 241.167 14.4182 241.329 13.9473L241.344 13.901H243.467L243.443 13.9859C243.181 15.2363 242.008 16.672 239.592 16.672C236.999 16.672 235.424 14.9893 235.424 12.2724V12.2647ZM237.724 11.3308H241.329C241.19 10.1576 240.495 9.54779 239.538 9.54779C238.581 9.54779 237.878 10.1807 237.724 11.3308ZM244.732 8.00409H247.04V9.48604H247.087C247.341 8.44404 248.028 7.83428 249.016 7.83428C249.271 7.83428 249.51 7.87287 249.68 7.91919V9.95687C249.487 9.87969 249.171 9.83337 248.839 9.83337C247.696 9.83337 247.032 10.5126 247.032 11.7476V16.4944H244.725V8.01181L244.732 8.00409ZM250.591 5.70397C250.591 5.0479 251.131 4.49989 251.826 4.49989C252.52 4.49989 253.061 5.0479 253.061 5.70397C253.061 6.36005 252.52 6.90806 251.826 6.90806C251.131 6.90806 250.591 6.36005 250.591 5.70397ZM250.676 8.00409H252.984V16.4867H250.676V8.00409ZM254.218 12.2415V12.2261C254.218 9.49376 255.878 7.82656 258.41 7.82656C260.941 7.82656 262.624 9.47832 262.624 12.2261V12.2415C262.624 15.0125 260.988 16.6565 258.425 16.6565C255.862 16.6565 254.218 15.0048 254.218 12.2415ZM260.27 12.2415V12.2261C260.27 10.5898 259.536 9.64041 258.41 9.64041C257.283 9.64041 256.565 10.5898 256.565 12.2261V12.2415C256.565 13.901 257.283 14.8427 258.425 14.8427C259.567 14.8427 260.27 13.8933 260.27 12.2415ZM263.504 12.2415C263.504 9.4706 264.816 7.82656 266.954 7.82656C268.158 7.82656 269.107 8.44404 269.563 9.4706H269.609V5.06334H271.917V16.4867H269.609V15.0356H269.563C269.115 16.0391 268.181 16.6565 266.954 16.6565C264.816 16.6565 263.504 14.9971 263.504 12.2415ZM269.617 12.2415C269.617 10.7056 268.837 9.74075 267.726 9.74075C266.614 9.74075 265.85 10.6824 265.85 12.2338C265.85 13.7852 266.568 14.7423 267.726 14.7423C268.884 14.7423 269.617 13.7775 269.617 12.2415ZM273.16 12.2647C273.16 9.55551 274.75 7.83428 277.235 7.83428C279.72 7.83428 281.279 9.51692 281.279 12.0872V12.7973H275.437C275.46 14.148 276.193 14.943 277.374 14.943C278.323 14.943 278.902 14.4182 279.064 13.9473L279.08 13.901H281.202L281.179 13.9859C280.917 15.2363 279.743 16.672 277.328 16.672C274.734 16.672 273.16 14.9893 273.16 12.2724V12.2647ZM275.46 11.3308H279.064C278.925 10.1576 278.231 9.54779 277.274 9.54779C276.317 9.54779 275.614 10.1807 275.46 11.3308ZM285.864 5.06334H288.257V16.4867H285.864V5.06334ZM290.156 5.06334H292.549V16.4867H290.156V5.06334ZM297.712 10.8368H302.837V12.8513H297.712V10.8368ZM307.862 14.8504L311.899 11.0761C313.373 9.70216 313.682 9.13871 313.682 8.3437V8.32827C313.682 7.39433 312.964 6.73054 311.945 6.73054C310.772 6.73054 309.985 7.49467 309.954 8.52895V8.59841H307.731V8.53667C307.731 6.3832 309.522 4.87038 311.937 4.87038C314.353 4.87038 316.013 6.24427 316.013 8.19705V8.21249C316.013 9.5941 315.357 10.4972 313.389 12.311L310.996 14.4954V14.588H316.175V16.4867H307.87V14.8504H307.862ZM317.456 10.7828V10.7673C317.456 7.1319 319.216 4.87038 322.11 4.87038C325.005 4.87038 326.765 7.1319 326.765 10.7673V10.7828C326.765 14.4182 325.005 16.6874 322.11 16.6874C319.216 16.6874 317.456 14.4182 317.456 10.7828ZM324.349 10.7828V10.7673C324.349 8.2588 323.531 6.78457 322.11 6.78457C320.69 6.78457 319.872 8.2588 319.872 10.7673V10.7828C319.872 13.2913 320.69 14.7732 322.11 14.7732C323.531 14.7732 324.349 13.2913 324.349 10.7828ZM328.146 14.8504L332.183 11.0761C333.657 9.70216 333.966 9.13871 333.966 8.3437V8.32827C333.966 7.39433 333.248 6.73054 332.229 6.73054C331.056 6.73054 330.269 7.49467 330.238 8.52895V8.59841H328.015V8.53667C328.015 6.3832 329.806 4.87038 332.222 4.87038C334.638 4.87038 336.297 6.24427 336.297 8.19705V8.21249C336.297 9.5941 335.641 10.4972 333.673 12.311L331.28 14.4954V14.588H336.459V16.4867H328.154V14.8504H328.146ZM338.034 13.3299V13.2141H340.233L340.249 13.2681C340.411 14.1326 341.214 14.7964 342.317 14.7964C343.568 14.7964 344.448 13.9396 344.448 12.7201V12.7047C344.44 11.5006 343.56 10.6515 342.325 10.6515C341.739 10.6515 341.237 10.8213 340.851 11.1301C340.619 11.3076 340.442 11.5237 340.303 11.763H338.219L338.744 5.05562H346.03V6.95437H340.643L340.365 10.1653H340.411C340.89 9.39342 341.831 8.93031 342.981 8.93031C345.15 8.93031 346.717 10.4894 346.717 12.6429V12.6583C346.717 15.0511 344.911 16.672 342.302 16.672C339.693 16.672 338.173 15.2209 338.026 13.3144L338.034 13.3299ZM363.821 247.772C367.835 242.855 368.452 234.094 367.047 228.12C361.783 205.775 334.066 198.721 318.668 215.593C311.081 223.906 308.904 238.054 315.226 247.625C315.38 247.864 315.681 247.965 315.951 247.88C326.186 244.63 333.634 235.839 335.448 225.272C335.61 224.331 335.865 221.436 336.212 221.019C336.258 220.958 336.367 220.988 336.436 220.988L342.896 221.32C343.228 221.336 343.483 221.598 343.498 221.93C344.139 233.932 351.742 243.982 363.111 247.965C363.358 248.05 363.644 247.98 363.813 247.772H363.821ZM283.958 215.169C302.583 222.887 323.307 207.744 322.411 187.683C321.493 167.152 298.538 154.038 281.002 164.574C280.747 164.728 280.631 165.045 280.724 165.323C284.135 175.604 292.61 182.944 303.324 184.796C304.589 185.013 306.241 184.904 307.229 185.19C307.638 185.306 307.715 191.782 307.615 192.26C307.43 193.14 302.228 193.426 301.047 193.711C293.374 195.579 287.254 200.28 283.232 207.049C282.769 207.836 280.562 212.336 280.531 212.892C280.484 213.849 283.07 214.806 283.958 215.176V215.169ZM315.341 129.995C313.898 131.145 312.238 137.266 311.968 138.717C308.603 156.369 323.067 172.47 340.905 171.76C361.452 170.942 374.627 147.856 363.999 130.327C363.844 130.072 363.528 129.956 363.25 130.049C351.626 133.931 344.317 144.004 343.429 156.076C343.406 156.415 343.128 156.67 342.788 156.67H336.459C336.12 156.67 335.842 156.408 335.818 156.068C335.031 143.942 327.413 134.04 315.951 129.902C315.743 129.825 315.511 129.856 315.341 129.995ZM378.486 161.61C355.717 167.198 349.411 195.687 367.094 210.746C375.237 217.677 389.246 219.499 398.284 213.37C398.524 213.208 398.616 212.907 398.531 212.637C395.444 203.491 388.405 196.59 379.058 193.943C376.788 193.302 371.91 192.6 371.895 192.291C371.895 192.291 371.756 187.413 371.64 185.792C371.632 185.645 374.974 184.982 375.924 184.804C386.876 182.751 394.742 175.874 398.593 165.5C398.693 165.238 398.609 164.937 398.385 164.767C393.19 160.869 384.646 160.097 378.486 161.61ZM299.904 133.453C296.392 130.705 287.169 130.435 282.823 131.014C282.677 131.029 282.53 131.014 282.376 131.014C282.021 131.014 281.743 131.315 281.75 131.67C281.92 138.346 279.991 146.852 286.235 151.398C289.878 154.046 293.969 152.788 298.191 153.259C299.958 153.452 302.266 153.444 304.111 153.946C304.643 154.092 305.137 153.637 305.029 153.097C304.628 151.151 303.918 147.477 303.787 145.409C303.47 140.438 304.582 137.119 299.897 133.453H299.904ZM393.29 151.182C395.814 149.16 397.157 146.142 397.551 142.985C397.69 141.882 397.767 133.854 397.458 131.639C397.412 131.323 397.134 131.091 396.81 131.099C390.311 131.23 382.068 129.455 377.498 135.298C374.349 139.319 375.97 142.229 375.546 146.675C375.329 148.898 374.828 151.591 374.002 153.722C373.886 154.023 374.017 154.362 374.295 154.509C374.457 154.594 374.65 154.609 374.82 154.54C377.498 153.552 380.416 153.305 383.179 153.158C387.015 152.958 389.956 153.838 393.29 151.175V151.182ZM375.353 229.255C376.117 234.681 373.886 239.389 378.471 243.797C380.2 245.456 382.986 246.529 385.317 246.853C386.475 247.015 394.711 247.108 396.949 246.791C397.266 246.745 397.497 246.467 397.489 246.151C397.343 238.571 399.527 229.872 391.299 225.674C388.219 224.107 386.02 225.211 382.755 224.987C380.879 224.855 377.236 224.091 375.299 223.651C374.758 223.528 374.288 224.03 374.442 224.562C374.89 226.067 375.167 227.943 375.353 229.247V229.255ZM304.96 223.435C304.79 223.343 304.597 223.335 304.42 223.404C302.019 224.354 299.048 224.855 296.493 224.994C293.259 225.172 290.974 224.145 287.948 225.681C279.759 229.857 281.882 238.486 281.758 246.043C281.758 246.382 282.005 246.668 282.345 246.691C290.04 247.27 301.834 248.343 303.802 238.371C304.134 236.672 303.501 233.384 303.702 231.27C303.926 228.962 304.481 226.445 305.261 224.223C305.369 223.922 305.245 223.597 304.968 223.443L304.96 223.435ZM350.19 178.151C350.036 178.066 349.858 178.05 349.696 178.104C343.197 180.204 336.189 180.104 329.651 178.22C329.211 178.097 328.787 178.444 328.833 178.899C328.98 180.412 329.898 183.307 330.037 184.272C330.755 189.181 330.153 194.174 328.856 198.937C328.741 199.369 329.08 199.786 329.528 199.747C331.095 199.593 334.221 198.659 335.209 198.52C337.37 198.219 342.155 198.25 344.317 198.559C345.366 198.705 349.997 200.033 350.298 199.932C350.962 199.693 350.484 199.323 350.445 199.076C350.152 197.308 349.457 195.502 349.21 193.673C348.569 189.026 349.009 183.461 350.538 178.954C350.638 178.652 350.515 178.328 350.237 178.182L350.19 178.159V178.151Z" fill="url(#paint0_linear_219_3560)"/>
</g>
<defs>
<filter id="filter0_d_219_3560" x="0" y="0" width="402.635" height="256" filterUnits="userSpaceOnUse" color-interpolation-filters="sRGB">
<feFlood flood-opacity="0" result="BackgroundImageFix"/>
<feColorMatrix in="SourceAlpha" type="matrix" values="0 0 0 0 0 0 0 0 0 0 0 0 0 0 0 0 0 0 127 0" result="hardAlpha"/>
<feOffset dy="4"/>
<feGaussianBlur stdDeviation="2"/>
<feComposite in2="hardAlpha" operator="out"/>
<feColorMatrix type="matrix" values="0 0 0 0 0 0 0 0 0 0 0 0 0 0 0 0 0 0 0.25 0"/>
<feBlend mode="normal" in2="BackgroundImageFix" result="effect1_dropShadow_219_3560"/>
<feBlend mode="normal" in="SourceGraphic" in2="effect1_dropShadow_219_3560" result="shape"/>
</filter>
<linearGradient id="paint0_linear_219_3560" x1="4" y1="124" x2="398.635" y2="124" gradientUnits="userSpaceOnUse">
<stop stop-color="#125881"/>
<stop offset="0.5" stop-color="#40A6AA"/>
<stop offset="1" stop-color="#125881"/>
</linearGradient>
</defs>
</svg>
