<svg width="381" height="41" viewBox="0 0 381 41" fill="none" xmlns="http://www.w3.org/2000/svg">
<path d="M20.6805 23.0754C26.3999 25.955 32.1192 28.8336 37.8395 31.7132C37.2479 32.5477 36.6563 33.3822 36.0656 34.2167C38.2239 34.0745 40.3823 33.9323 42.5406 33.7901C43.0075 32.9434 43.4745 32.0967 43.9414 31.2501C36.4172 27.7353 28.8939 24.2205 21.3697 20.7057C21.14 21.4953 20.9103 22.2858 20.6805 23.0754Z" fill="#FFDA46"/>
<path d="M20.676 17.4373C26.4151 14.598 32.155 11.7586 37.8941 8.91836C37.3081 8.08012 36.723 7.24095 36.137 6.40271C38.2944 6.55988 40.4518 6.71705 42.6092 6.87422C43.0705 7.72368 43.5318 8.57408 43.9922 9.42355C36.4445 12.886 28.8959 16.3493 21.3483 19.8117C21.1242 19.0202 20.9001 18.2288 20.676 17.4373Z" fill="#FFDA46"/>
<path d="M16.3895 25.1649L16.3895 25.1583C14.9306 25.1677 13.5917 24.6784 12.6044 23.8794C11.5243 23.0047 10.8492 21.7604 10.838 20.3553L10.8314 20.3422L10.838 20.3422C10.8305 18.9408 11.484 17.6899 12.5472 16.7993C13.5204 15.9845 14.8556 15.4737 16.3239 15.4615L16.337 15.455L16.337 15.4615C17.7959 15.4521 19.1348 15.9414 20.1221 16.7404C21.2022 17.6151 21.8773 18.8594 21.8885 20.2645C21.9007 21.6706 21.2462 22.9271 20.1792 23.8205C19.206 24.6353 17.8709 25.1461 16.4026 25.1583L16.3895 25.1649ZM16.3895 21.7361L16.3895 21.7427C17.0224 21.7343 17.583 21.5266 17.9778 21.1954C18.2815 20.9409 18.4681 20.6191 18.4653 20.2907C18.4625 19.9614 18.2694 19.6424 17.9609 19.3917C17.5615 19.068 16.9924 18.8706 16.3501 18.8762L16.337 18.8828L16.337 18.8762C15.7041 18.8846 15.1434 19.0923 14.7487 19.4235C14.4449 19.678 14.2583 19.9998 14.2611 20.3281L14.2677 20.3412L14.2611 20.3412C14.2686 20.6659 14.4608 20.9793 14.7656 21.2272C15.165 21.5509 15.7341 21.7483 16.3764 21.7427L16.3895 21.7361Z" fill="#FFDA46"/>
<path d="M29.9423 19.1448L30.9746 20.3105L29.9423 21.4761L27.7708 20.3105L29.9423 19.1448Z" fill="#FFDA46"/>
<path d="M21.2261 34.7951C19.6397 34.9279 18.1564 34.7698 17.0406 34.405C15.5761 33.9269 14.6207 33.0494 14.5232 31.8856C14.4257 30.7246 15.2198 29.703 16.5822 28.9891C17.6238 28.4428 19.063 28.0386 20.6504 27.9058C22.2368 27.773 23.7201 27.9311 24.8358 28.2959C26.3004 28.774 27.2558 29.6515 27.3533 30.8153C27.4508 31.9763 26.6566 32.9979 25.2943 33.7117C24.2526 34.2581 22.8134 34.6622 21.2261 34.7951ZM17.8357 31.9641C18.643 32.228 19.7663 32.3384 21.0142 32.2336C22.2603 32.1288 23.3469 31.8341 24.0961 31.4412C24.5245 31.2167 24.789 31.0604 24.7852 31.0258C24.7824 30.994 24.4974 30.8864 24.0389 30.7367C23.2316 30.4729 22.1084 30.3625 20.8604 30.4673C19.6143 30.5721 18.5277 30.8668 17.7785 31.2597C17.3501 31.4842 17.0857 31.6405 17.0894 31.6751C17.0922 31.7069 17.3772 31.8145 17.8357 31.9641Z" fill="#FFDA46"/>
<path d="M31.6738 27.3934C31.6176 27.6507 31.4188 28.5095 30.8909 29.4918C30.3565 30.4863 29.4874 31.6005 28.0931 32.3414C27.5418 32.6342 27.0121 32.8176 26.533 32.9308C26.0604 33.0431 25.6226 33.0898 25.2625 33.1076L25.1819 31.4003C25.4416 31.3872 25.766 31.3516 26.1364 31.2637C26.5011 31.1767 26.8949 31.0429 27.2868 30.8352C28.321 30.2861 28.9745 29.4441 29.3795 28.6891C29.7911 27.922 29.9496 27.2381 29.9946 27.0332L31.6729 27.3953L31.6738 27.3934Z" fill="#FFDA46"/>
<path d="M21.0142 8.38575C19.7663 8.28097 18.643 8.39136 17.8357 8.65518C17.3772 8.80487 17.0922 8.91339 17.0894 8.94426C17.0866 8.97888 17.3501 9.13511 17.7785 9.35964C18.5277 9.75256 19.6143 10.0473 20.8604 10.152C22.1084 10.2568 23.2316 10.1464 24.0389 9.8826C24.4974 9.73292 24.7824 9.6244 24.7852 9.59352C24.788 9.55891 24.5245 9.40267 24.0961 9.17815C23.3469 8.78522 22.2603 8.49053 21.0142 8.38575ZM17.0406 6.21438C18.1564 5.85045 19.6397 5.69141 21.2261 5.82426C22.8144 5.95711 24.2526 6.36219 25.2943 6.90761C26.6566 7.62142 27.4508 8.64396 27.3533 9.80402C27.2548 10.9678 26.3004 11.8454 24.8358 12.3234C23.7201 12.6873 22.2368 12.8464 20.6504 12.7135C19.0621 12.5807 17.6238 12.1756 16.5822 11.6302C15.2198 10.9164 14.4257 9.89383 14.5232 8.73377C14.6217 7.56996 15.5761 6.69243 17.0406 6.21438Z" fill="#FFDA46"/>
<path d="M29.9946 13.5877C29.9496 13.3828 29.7911 12.698 29.3795 11.9318C28.9745 11.1769 28.321 10.3349 27.2868 9.78572C26.8949 9.57803 26.5011 9.44331 26.1364 9.35724C25.766 9.2693 25.4416 9.23375 25.1819 9.22065L25.2625 7.51331C25.6226 7.53108 26.0604 7.57786 26.533 7.69012C27.0111 7.80332 27.5418 7.98669 28.0931 8.27951C29.4874 9.02045 30.3565 10.1347 30.8909 11.1291C31.4188 12.1115 31.6176 12.9703 31.6738 13.2275L29.9955 13.5896L29.9946 13.5877Z" fill="#FFDA46"/>
<path d="M44.7519 18.5784C42.9592 18.5831 41.3531 18.8871 40.2073 19.3736C39.4001 19.7169 38.9003 20.0622 38.9013 20.3288C38.9022 20.5889 39.4038 20.9285 40.2139 21.2671C41.3662 21.7489 42.9751 22.0455 44.7678 22.0399C46.5605 22.0352 48.1666 21.7311 49.3123 21.2447C50.1196 20.9013 50.6193 20.5561 50.6184 20.2895C50.6175 20.0294 50.1159 19.6898 49.3058 19.3511C48.1535 18.8693 46.5445 18.5728 44.7519 18.5784ZM39.2013 17.0133C40.6377 16.4033 42.601 16.0225 44.7519 16.0169C46.9027 16.0113 48.867 16.3799 50.3024 16.9805C52.0801 17.7243 53.1818 18.8862 53.1855 20.2895C53.1893 21.6862 52.0933 22.851 50.3193 23.605C48.8829 24.215 46.9196 24.5957 44.7687 24.6014C42.6179 24.607 40.6536 24.2384 39.2182 23.6378C37.4405 22.894 36.3388 21.7321 36.335 20.3288C36.3313 18.932 37.4273 17.7673 39.2013 17.0133Z" fill="#FFDA46"/>
<path d="M14.2368 17.2859L13.933 16.24L4.54956 15.2287L3.18817 16.2026L3.96826 17.0708L11.7616 19.2805L11.1831 21.3396L2.79344 18.9615L-0.000600939 15.848L3.96075 13.0143L15.5879 14.2679L16.293 16.6919L14.2368 17.2859Z" fill="#FFDA46"/>
<path d="M16.293 23.928L15.5879 26.352L3.96075 27.6056L-0.000601055 24.7719L2.79344 21.6584L11.1831 19.2803L11.7616 21.3394L3.96826 23.5491L3.18817 24.4173L4.54956 25.3912L13.933 24.3799L14.2368 23.3339L16.293 23.928Z" fill="#FFDA46"/>
<path d="M68.8418 17.544C63.1225 14.6644 57.4031 11.7858 51.6828 8.9062C52.2745 8.0717 52.8661 7.2372 53.4568 6.40271C51.2984 6.54491 49.1401 6.68711 46.9817 6.82931C46.5148 7.67597 46.0479 8.52263 45.581 9.36929C53.1052 12.8841 60.6285 16.3989 68.1527 19.9137C68.3824 19.1241 68.6121 18.3336 68.8418 17.544Z" fill="#FFDA46"/>
<path d="M68.8437 23.1822C63.1047 26.0216 57.3648 28.8609 51.6257 31.7012C52.2117 32.5395 52.7968 33.3786 53.3828 34.2169C51.2254 34.0597 49.068 33.9025 46.9105 33.7454C46.4492 32.8959 45.9879 32.0455 45.5276 31.196C53.0752 27.7336 60.6238 24.2703 68.1715 20.8079C68.3956 21.5993 68.6197 22.3908 68.8437 23.1822Z" fill="#FFDA46"/>
<path d="M73.1333 15.455L73.1333 15.4615C74.5922 15.4521 75.9311 15.9414 76.9184 16.7404C77.9985 17.6151 78.6736 18.8594 78.6848 20.2645L78.6914 20.2776L78.6848 20.2776C78.6923 21.6781 78.0388 22.9299 76.9756 23.8205C76.0024 24.6353 74.6672 25.1461 73.199 25.1583L73.1858 25.1649L73.1858 25.1583C71.7269 25.1677 70.388 24.6784 69.4007 23.8794C68.3206 23.0047 67.6456 21.7604 67.6343 20.3553C67.6221 18.9492 68.2766 17.6928 69.3436 16.7993C70.3168 15.9845 71.6519 15.4737 73.1202 15.4615L73.1333 15.455ZM73.1333 18.8837L73.1333 18.8771C72.5004 18.8856 71.9398 19.0932 71.545 19.4244C71.2413 19.6789 71.0547 20.0007 71.0575 20.3291C71.0603 20.6584 71.2534 20.9774 71.5619 21.2281C71.9613 21.5518 72.5305 21.7492 73.1727 21.7436L73.1858 21.7371L73.1858 21.7436C73.8187 21.7352 74.3794 21.5275 74.7741 21.1963C75.0779 20.9419 75.2645 20.62 75.2617 20.2917L75.2551 20.2786L75.2617 20.2786C75.2542 19.9539 75.062 19.6405 74.7573 19.3926C74.3578 19.0689 73.7887 18.8715 73.1465 18.8771L73.1333 18.8837Z" fill="#FFDA46"/>
<path d="M59.5805 21.4755L58.5482 20.3098L59.5805 19.1442L61.752 20.3098L59.5805 21.4755Z" fill="#FFDA46"/>
<path d="M68.2969 5.82438C69.8833 5.69153 71.3666 5.84964 72.4823 6.2145C73.9468 6.69255 74.9023 7.57008 74.9998 8.73389C75.0973 9.89489 74.3031 10.9165 72.9408 11.6303C71.8991 12.1767 70.4599 12.5808 68.8726 12.7136C67.2861 12.8465 65.8029 12.6884 64.6871 12.3235C63.2226 11.8455 62.2672 10.9679 62.1697 9.80414C62.0722 8.64314 62.8663 7.62154 64.2286 6.90773C65.2703 6.36138 66.7095 5.95722 68.2969 5.82438ZM71.6872 8.6553C70.88 8.39148 69.7567 8.28109 68.5088 8.38587C67.2627 8.49065 66.176 8.78534 65.4269 9.17827C64.9984 9.40279 64.734 9.55903 64.7377 9.59364C64.7406 9.62545 65.0256 9.73304 65.4841 9.88272C66.2914 10.1465 67.4146 10.2569 68.6625 10.1522C69.9086 10.0474 70.9953 9.75268 71.7444 9.35976C72.1729 9.13523 72.4373 8.979 72.4335 8.94438C72.4307 8.91258 72.1457 8.80499 71.6872 8.6553Z" fill="#FFDA46"/>
<path d="M57.8479 13.2267C57.9042 12.9694 58.103 12.1106 58.6308 11.1283C59.1653 10.1338 60.0344 9.0196 61.4286 8.27865C61.9799 7.98583 62.5097 7.80247 62.9888 7.68927C63.4613 7.577 63.8992 7.53023 64.2592 7.51245L64.3398 9.2198C64.0801 9.2329 63.7557 9.26845 63.3854 9.35639C63.0207 9.44339 62.6269 9.57717 62.2349 9.78486C61.2008 10.334 60.5473 11.176 60.1422 11.931C59.7306 12.6981 59.5722 13.382 59.5272 13.5869L57.8489 13.2248L57.8479 13.2267Z" fill="#FFDA46"/>
<path d="M68.5088 32.2335C69.7567 32.3382 70.88 32.2278 71.6872 31.964C72.1457 31.8143 72.4307 31.7058 72.4335 31.6749C72.4364 31.6403 72.1729 31.4841 71.7444 31.2596C70.9953 30.8666 69.9086 30.572 68.6625 30.4672C67.4146 30.3624 66.2914 30.4728 65.4841 30.7366C65.0256 30.8863 64.7406 30.9948 64.7377 31.0257C64.7349 31.0603 64.9984 31.2165 65.4269 31.4411C66.176 31.834 67.2627 32.1287 68.5088 32.2335ZM72.4823 34.4048C71.3666 34.7688 69.8833 34.9278 68.2969 34.7949C66.7086 34.6621 65.2703 34.257 64.2286 33.7116C62.8663 32.9978 62.0722 31.9753 62.1697 30.8152C62.2681 29.6514 63.2226 28.7739 64.6871 28.2958C65.8029 27.9319 67.2861 27.7728 68.8726 27.9057C70.4608 28.0385 71.8991 28.4436 72.9408 28.989C74.3031 29.7028 75.0973 30.7254 74.9998 31.8854C74.9013 33.0492 73.9468 33.9268 72.4823 34.4048Z" fill="#FFDA46"/>
<path d="M59.5252 27.0321C59.5702 27.237 59.7277 27.9218 60.1403 28.688C60.5453 29.443 61.1988 30.285 62.233 30.8342C62.6249 31.0418 63.0187 31.1766 63.3834 31.2626C63.7538 31.3506 64.0782 31.3861 64.3379 31.3992L64.2573 33.1066C63.8972 33.0888 63.4594 33.042 62.9868 32.9297C62.5086 32.8165 61.978 32.6332 61.4267 32.3404C60.0325 31.5994 59.1633 30.4852 58.6289 29.4907C58.101 28.5084 57.9022 27.6496 57.846 27.3923L59.5243 27.0303L59.5252 27.0321Z" fill="#FFDA46"/>
<path d="M75.2831 23.3339L75.5879 24.3799L84.9713 25.3912L86.3327 24.4173L85.5526 23.5491L77.7584 21.3394L78.3378 19.2803L86.7265 21.6584L89.5215 24.7719L85.5601 27.6056L73.933 26.352L73.2279 23.928L75.2831 23.3339Z" fill="#FFDA46"/>
<path d="M73.2279 16.6919L73.933 14.2679L85.5601 13.0143L89.5215 15.848L86.7265 18.9615L78.3378 21.3396L77.7584 19.2805L85.5526 17.0708L86.3327 16.2026L84.9713 15.2287L75.5879 16.24L75.2831 17.2859L73.2279 16.6919Z" fill="#FFDA46"/>
<path d="M214.882 23.0754C220.601 25.955 226.32 28.8336 232.041 31.7132C231.449 32.5477 230.857 33.3822 230.267 34.2167C232.425 34.0745 234.583 33.9323 236.742 33.7901C237.209 32.9434 237.676 32.0967 238.143 31.2501C230.618 27.7353 223.095 24.2205 215.571 20.7057C215.341 21.4953 215.111 22.2858 214.882 23.0754Z" fill="#FFDA46"/>
<path d="M214.879 17.4373C220.618 14.598 226.358 11.7586 232.097 8.91836C231.511 8.08012 230.926 7.24095 230.34 6.40271C232.498 6.55988 234.655 6.71705 236.812 6.87422C237.274 7.72368 237.735 8.57408 238.195 9.42355C230.648 12.886 223.099 16.3493 215.551 19.8117C215.327 19.0202 215.103 18.2288 214.879 17.4373Z" fill="#FFDA46"/>
<path d="M210.589 25.1649L210.589 25.1583C209.13 25.1677 207.791 24.6784 206.804 23.8794C205.724 23.0047 205.048 21.7604 205.037 20.3553L205.031 20.3422L205.037 20.3422C205.03 18.9408 205.683 17.6899 206.746 16.7993C207.72 15.9845 209.055 15.4737 210.523 15.4615L210.536 15.455L210.536 15.4615C211.995 15.4521 213.334 15.9414 214.321 16.7404C215.401 17.6151 216.076 18.8594 216.088 20.2645C216.1 21.6706 215.445 22.9271 214.378 23.8205C213.405 24.6353 212.07 25.1461 210.602 25.1583L210.589 25.1649ZM210.589 21.7361L210.589 21.7427C211.222 21.7343 211.782 21.5266 212.177 21.1954C212.481 20.9409 212.667 20.6191 212.665 20.2907C212.662 19.9614 212.469 19.6424 212.16 19.3917C211.761 19.068 211.192 18.8706 210.549 18.8762L210.536 18.8828L210.536 18.8762C209.903 18.8846 209.343 19.0923 208.948 19.4235C208.644 19.678 208.458 19.9998 208.46 20.3281L208.467 20.3412L208.46 20.3412C208.468 20.6659 208.66 20.9793 208.965 21.2272C209.364 21.5509 209.933 21.7483 210.576 21.7427L210.589 21.7361Z" fill="#FFDA46"/>
<path d="M224.143 19.1448L225.176 20.3105L224.143 21.4761L221.972 20.3105L224.143 19.1448Z" fill="#FFDA46"/>
<path d="M215.427 34.7951C213.841 34.9279 212.358 34.7698 211.242 34.405C209.777 33.9269 208.822 33.0494 208.724 31.8856C208.627 30.7246 209.421 29.703 210.783 28.9891C211.825 28.4428 213.264 28.0386 214.852 27.9058C216.438 27.773 217.921 27.9311 219.037 28.2959C220.502 28.774 221.457 29.6515 221.554 30.8153C221.652 31.9763 220.858 32.9979 219.495 33.7117C218.454 34.2581 217.015 34.6622 215.427 34.7951ZM212.037 31.9641C212.844 32.228 213.967 32.3384 215.215 32.2336C216.461 32.1288 217.548 31.8341 218.297 31.4412C218.726 31.2167 218.99 31.0604 218.986 31.0258C218.984 30.994 218.699 30.8864 218.24 30.7367C217.433 30.4729 216.31 30.3625 215.062 30.4673C213.816 30.5721 212.729 30.8668 211.98 31.2597C211.551 31.4842 211.287 31.6405 211.291 31.6751C211.293 31.7069 211.578 31.8145 212.037 31.9641Z" fill="#FFDA46"/>
<path d="M225.877 27.3934C225.821 27.6507 225.622 28.5095 225.094 29.4918C224.56 30.4863 223.69 31.6005 222.296 32.3414C221.745 32.6342 221.215 32.8176 220.736 32.9308C220.264 33.0431 219.826 33.0898 219.466 33.1076L219.385 31.4003C219.645 31.3872 219.969 31.3516 220.34 31.2637C220.704 31.1767 221.098 31.0429 221.49 30.8352C222.524 30.2861 223.178 29.4441 223.583 28.6891C223.994 27.922 224.153 27.2381 224.198 27.0332L225.876 27.3953L225.877 27.3934Z" fill="#FFDA46"/>
<path d="M215.215 8.38575C213.967 8.28097 212.844 8.39136 212.037 8.65518C211.578 8.80487 211.293 8.91339 211.291 8.94426C211.288 8.97888 211.551 9.13511 211.98 9.35964C212.729 9.75256 213.816 10.0473 215.062 10.152C216.31 10.2568 217.433 10.1464 218.24 9.8826C218.699 9.73292 218.984 9.6244 218.986 9.59352C218.989 9.55891 218.726 9.40267 218.297 9.17815C217.548 8.78522 216.461 8.49053 215.215 8.38575ZM211.242 6.21438C212.358 5.85045 213.841 5.69141 215.427 5.82426C217.016 5.95711 218.454 6.36219 219.495 6.90761C220.858 7.62142 221.652 8.64396 221.554 9.80402C221.456 10.9678 220.502 11.8454 219.037 12.3234C217.921 12.6873 216.438 12.8464 214.852 12.7135C213.263 12.5807 211.825 12.1756 210.783 11.6302C209.421 10.9164 208.627 9.89383 208.724 8.73377C208.823 7.56996 209.777 6.69243 211.242 6.21438Z" fill="#FFDA46"/>
<path d="M224.198 13.5877C224.153 13.3828 223.995 12.698 223.583 11.9318C223.178 11.1769 222.524 10.3349 221.49 9.78572C221.098 9.57803 220.704 9.44331 220.339 9.35724C219.969 9.2693 219.645 9.23375 219.385 9.22065L219.466 7.51331C219.826 7.53108 220.264 7.57786 220.736 7.69012C221.214 7.80332 221.745 7.98669 222.296 8.27951C223.69 9.02045 224.56 10.1347 225.094 11.1291C225.622 12.1115 225.821 12.9703 225.877 13.2275L224.199 13.5896L224.198 13.5877Z" fill="#FFDA46"/>
<path d="M238.953 18.5784C237.16 18.5831 235.554 18.8871 234.408 19.3736C233.601 19.7169 233.101 20.0622 233.102 20.3288C233.103 20.5889 233.605 20.9285 234.415 21.2671C235.567 21.7489 237.176 22.0455 238.969 22.0399C240.762 22.0352 242.368 21.7311 243.513 21.2447C244.321 20.9013 244.821 20.5561 244.82 20.2895C244.819 20.0294 244.317 19.6898 243.507 19.3511C242.355 18.8693 240.746 18.5728 238.953 18.5784ZM233.402 17.0133C234.839 16.4033 236.802 16.0225 238.953 16.0169C241.104 16.0113 243.068 16.3799 244.504 16.9805C246.281 17.7243 247.383 18.8862 247.387 20.2895C247.39 21.6862 246.294 22.851 244.52 23.605C243.084 24.215 241.121 24.5957 238.97 24.6014C236.819 24.607 234.855 24.2384 233.419 23.6378C231.642 22.894 230.54 21.7321 230.536 20.3288C230.532 18.932 231.629 17.7673 233.402 17.0133Z" fill="#FFDA46"/>
<path d="M208.44 17.2859L208.136 16.24L198.753 15.2287L197.391 16.2026L198.171 17.0708L205.965 19.2805L205.386 21.3396L196.997 18.9615L194.202 15.848L198.164 13.0143L209.791 14.2679L210.496 16.6919L208.44 17.2859Z" fill="#FFDA46"/>
<path d="M210.496 23.928L209.791 26.352L198.164 27.6056L194.202 24.7719L196.997 21.6584L205.386 19.2803L205.965 21.3394L198.171 23.5491L197.391 24.4173L198.753 25.3912L208.136 24.3799L208.44 23.3339L210.496 23.928Z" fill="#FFDA46"/>
<path d="M263.043 17.544C257.324 14.6644 251.604 11.7858 245.884 8.9062C246.476 8.0717 247.067 7.2372 247.658 6.40271C245.5 6.54491 243.341 6.68711 241.183 6.82931C240.716 7.67597 240.249 8.52263 239.782 9.36929C247.306 12.8841 254.83 16.3989 262.354 19.9137C262.584 19.1241 262.813 18.3336 263.043 17.544Z" fill="#FFDA46"/>
<path d="M263.045 23.1822C257.306 26.0216 251.566 28.8609 245.827 31.7012C246.413 32.5395 246.998 33.3786 247.584 34.2169C245.427 34.0597 243.269 33.9025 241.112 33.7454C240.65 32.8959 240.189 32.0455 239.729 31.196C247.276 27.7336 254.825 24.2703 262.373 20.8079C262.597 21.5993 262.821 22.3908 263.045 23.1822Z" fill="#FFDA46"/>
<path d="M267.335 15.455L267.335 15.4615C268.793 15.4521 270.132 15.9414 271.12 16.7404C272.2 17.6151 272.875 18.8594 272.886 20.2645L272.893 20.2776L272.886 20.2776C272.894 21.6781 272.24 22.9299 271.177 23.8205C270.204 24.6353 268.868 25.1461 267.4 25.1583L267.387 25.1649L267.387 25.1583C265.928 25.1677 264.589 24.6784 263.602 23.8794C262.522 23.0047 261.847 21.7604 261.835 20.3553C261.823 18.9492 262.478 17.6928 263.545 16.7993C264.518 15.9845 265.853 15.4737 267.321 15.4615L267.335 15.455ZM267.335 18.8837L267.335 18.8771C266.702 18.8856 266.141 19.0932 265.746 19.4244C265.442 19.6789 265.256 20.0007 265.259 20.3291C265.261 20.6584 265.455 20.9774 265.763 21.2281C266.163 21.5518 266.732 21.7492 267.374 21.7436L267.387 21.7371L267.387 21.7436C268.02 21.7352 268.581 21.5275 268.975 21.1963C269.279 20.9419 269.466 20.62 269.463 20.2917L269.456 20.2786L269.463 20.2786C269.455 19.9539 269.263 19.6405 268.958 19.3926C268.559 19.0689 267.99 18.8715 267.348 18.8771L267.335 18.8837Z" fill="#FFDA46"/>
<path d="M253.784 21.4755L252.751 20.3098L253.784 19.1442L255.955 20.3098L253.784 21.4755Z" fill="#FFDA46"/>
<path d="M262.498 5.82438C264.084 5.69153 265.568 5.84964 266.683 6.2145C268.148 6.69255 269.103 7.57008 269.201 8.73389C269.298 9.89489 268.504 10.9165 267.142 11.6303C266.1 12.1767 264.661 12.5808 263.074 12.7136C261.487 12.8465 260.004 12.6884 258.888 12.3235C257.424 11.8455 256.468 10.9679 256.371 9.80414C256.273 8.64314 257.067 7.62154 258.43 6.90773C259.471 6.36138 260.911 5.95722 262.498 5.82438ZM265.888 8.6553C265.081 8.39148 263.958 8.28109 262.71 8.38587C261.464 8.49065 260.377 8.78534 259.628 9.17827C259.2 9.40279 258.935 9.55903 258.939 9.59364C258.942 9.62545 259.227 9.73304 259.685 9.88272C260.493 10.1465 261.616 10.2569 262.864 10.1522C264.11 10.0474 265.196 9.75268 265.946 9.35976C266.374 9.13523 266.638 8.979 266.635 8.94438C266.632 8.91258 266.347 8.80499 265.888 8.6553Z" fill="#FFDA46"/>
<path d="M252.049 13.2267C252.105 12.9694 252.304 12.1106 252.832 11.1283C253.366 10.1338 254.236 9.0196 255.63 8.27865C256.181 7.98583 256.711 7.80247 257.19 7.68927C257.662 7.577 258.1 7.53023 258.46 7.51245L258.541 9.2198C258.281 9.2329 257.957 9.26845 257.587 9.35639C257.222 9.44339 256.828 9.57717 256.436 9.78486C255.402 10.334 254.748 11.176 254.343 11.931C253.932 12.6981 253.773 13.382 253.728 13.5869L252.05 13.2248L252.049 13.2267Z" fill="#FFDA46"/>
<path d="M262.708 32.2335C263.956 32.3382 265.079 32.2278 265.886 31.964C266.345 31.8143 266.63 31.7058 266.633 31.6749C266.636 31.6403 266.372 31.4841 265.944 31.2596C265.195 30.8666 264.108 30.572 262.862 30.4672C261.614 30.3624 260.491 30.4728 259.683 30.7366C259.225 30.8863 258.94 30.9948 258.937 31.0257C258.934 31.0603 259.198 31.2165 259.626 31.4411C260.375 31.834 261.462 32.1287 262.708 32.2335ZM266.682 34.4048C265.566 34.7688 264.083 34.9278 262.496 34.7949C260.908 34.6621 259.47 34.257 258.428 33.7116C257.066 32.9978 256.271 31.9753 256.369 30.8152C256.467 29.6514 257.422 28.7739 258.886 28.2958C260.002 27.9319 261.485 27.7728 263.072 27.9057C264.66 28.0385 266.098 28.4436 267.14 28.989C268.502 29.7028 269.296 30.7254 269.199 31.8854C269.101 33.0492 268.146 33.9268 266.682 34.4048Z" fill="#FFDA46"/>
<path d="M253.726 27.0321C253.771 27.237 253.93 27.9218 254.341 28.688C254.746 29.443 255.4 30.285 256.434 30.8342C256.826 31.0418 257.22 31.1766 257.585 31.2626C257.955 31.3506 258.279 31.3861 258.539 31.3992L258.458 33.1066C258.098 33.0888 257.661 33.042 257.188 32.9297C256.71 32.8165 256.179 32.6332 255.628 32.3404C254.234 31.5994 253.364 30.4852 252.83 29.4907C252.302 28.5084 252.103 27.6496 252.047 27.3923L253.725 27.0303L253.726 27.0321Z" fill="#FFDA46"/>
<path d="M269.486 23.3339L269.791 24.3799L279.174 25.3912L280.536 24.4173L279.756 23.5491L271.962 21.3394L272.541 19.2803L280.93 21.6584L283.725 24.7719L279.763 27.6056L268.135 26.352L267.431 23.928L269.486 23.3339Z" fill="#FFDA46"/>
<path d="M267.431 16.6919L268.135 14.2679L279.763 13.0143L283.725 15.848L280.93 18.9615L272.541 21.3396L271.962 19.2805L279.756 17.0708L280.536 16.2026L279.174 15.2287L269.791 16.24L269.486 17.2859L267.431 16.6919Z" fill="#FFDA46"/>
<path d="M117.78 23.0754C123.5 25.955 129.219 28.8336 134.939 31.7132C134.348 32.5477 133.756 33.3822 133.165 34.2167C135.324 34.0745 137.482 33.9323 139.64 33.7901C140.107 32.9434 140.574 32.0967 141.041 31.2501C133.517 27.7353 125.994 24.2205 118.469 20.7057C118.24 21.4953 118.01 22.2858 117.78 23.0754Z" fill="#FFDA46"/>
<path d="M117.778 17.4373C123.517 14.598 129.257 11.7586 134.996 8.91836C134.41 8.08012 133.825 7.24095 133.239 6.40271C135.396 6.55988 137.553 6.71705 139.711 6.87422C140.172 7.72368 140.633 8.57408 141.094 9.42355C133.546 12.886 125.997 16.3493 118.45 19.8117C118.226 19.0202 118.002 18.2288 117.778 17.4373Z" fill="#FFDA46"/>
<path d="M113.489 25.1649L113.489 25.1583C112.03 25.1677 110.691 24.6784 109.704 23.8794C108.624 23.0047 107.949 21.7604 107.938 20.3553L107.931 20.3422L107.938 20.3422C107.93 18.9408 108.584 17.6899 109.647 16.7993C110.62 15.9845 111.955 15.4737 113.423 15.4615L113.437 15.455L113.437 15.4615C114.896 15.4521 116.234 15.9414 117.222 16.7404C118.302 17.6151 118.977 18.8594 118.988 20.2645C119 21.6706 118.346 22.9271 117.279 23.8205C116.306 24.6353 114.971 25.1461 113.502 25.1583L113.489 25.1649ZM113.489 21.7361L113.489 21.7427C114.122 21.7343 114.683 21.5266 115.077 21.1954C115.381 20.9409 115.568 20.6191 115.565 20.2907C115.562 19.9614 115.369 19.6424 115.061 19.3917C114.661 19.068 114.092 18.8706 113.45 18.8762L113.437 18.8828L113.437 18.8762C112.804 18.8846 112.243 19.0923 111.848 19.4235C111.545 19.678 111.358 19.9998 111.361 20.3281L111.367 20.3412L111.361 20.3412C111.368 20.6659 111.56 20.9793 111.865 21.2272C112.265 21.5509 112.834 21.7483 113.476 21.7427L113.489 21.7361Z" fill="#FFDA46"/>
<path d="M127.042 19.1448L128.074 20.3105L127.042 21.4761L124.87 20.3105L127.042 19.1448Z" fill="#FFDA46"/>
<path d="M118.326 34.7951C116.739 34.9279 115.256 34.7698 114.14 34.405C112.676 33.9269 111.72 33.0494 111.623 31.8856C111.525 30.7246 112.319 29.703 113.682 28.9891C114.723 28.4428 116.163 28.0386 117.75 27.9058C119.336 27.773 120.82 27.9311 121.935 28.2959C123.4 28.774 124.355 29.6515 124.453 30.8153C124.55 31.9763 123.756 32.9979 122.394 33.7117C121.352 34.2581 119.913 34.6622 118.326 34.7951ZM114.935 31.9641C115.743 32.228 116.866 32.3384 118.114 32.2336C119.36 32.1288 120.447 31.8341 121.196 31.4412C121.624 31.2167 121.889 31.0604 121.885 31.0258C121.882 30.994 121.597 30.8864 121.138 30.7367C120.331 30.4729 119.208 30.3625 117.96 30.4673C116.714 30.5721 115.627 30.8668 114.878 31.2597C114.45 31.4842 114.185 31.6405 114.189 31.6751C114.192 31.7069 114.477 31.8145 114.935 31.9641Z" fill="#FFDA46"/>
<path d="M128.773 27.3934C128.717 27.6507 128.518 28.5095 127.991 29.4918C127.456 30.4863 126.587 31.6005 125.193 32.3414C124.641 32.6342 124.112 32.8176 123.633 32.9308C123.16 33.0431 122.722 33.0898 122.362 33.1076L122.282 31.4003C122.541 31.3872 122.866 31.3516 123.236 31.2637C123.601 31.1767 123.994 31.0429 124.386 30.8352C125.421 30.2861 126.074 29.4441 126.479 28.6891C126.891 27.922 127.049 27.2381 127.094 27.0332L128.772 27.3953L128.773 27.3934Z" fill="#FFDA46"/>
<path d="M118.114 8.38575C116.866 8.28097 115.743 8.39136 114.935 8.65518C114.477 8.80487 114.192 8.91339 114.189 8.94426C114.186 8.97888 114.45 9.13511 114.878 9.35964C115.627 9.75256 116.714 10.0473 117.96 10.152C119.208 10.2568 120.331 10.1464 121.138 9.8826C121.597 9.73292 121.882 9.6244 121.885 9.59352C121.888 9.55891 121.624 9.40267 121.196 9.17815C120.447 8.78522 119.36 8.49053 118.114 8.38575ZM114.14 6.21438C115.256 5.85045 116.739 5.69141 118.326 5.82426C119.914 5.95711 121.352 6.36219 122.394 6.90761C123.756 7.62142 124.55 8.64396 124.453 9.80402C124.354 10.9678 123.4 11.8454 121.935 12.3234C120.82 12.6873 119.336 12.8464 117.75 12.7135C116.162 12.5807 114.723 12.1756 113.682 11.6302C112.319 10.9164 111.525 9.89383 111.623 8.73377C111.721 7.56996 112.676 6.69243 114.14 6.21438Z" fill="#FFDA46"/>
<path d="M127.096 13.5877C127.051 13.3828 126.893 12.698 126.481 11.9318C126.076 11.1769 125.423 10.3349 124.388 9.78572C123.996 9.57803 123.603 9.44331 123.238 9.35724C122.868 9.2693 122.543 9.23375 122.283 9.22065L122.364 7.51331C122.724 7.53108 123.162 7.57786 123.635 7.69012C124.113 7.80332 124.643 7.98669 125.195 8.27951C126.589 9.02045 127.458 10.1347 127.992 11.1291C128.52 12.1115 128.719 12.9703 128.775 13.2275L127.097 13.5896L127.096 13.5877Z" fill="#FFDA46"/>
<path d="M141.853 18.5784C140.061 18.5831 138.455 18.8871 137.309 19.3736C136.502 19.7169 136.002 20.0622 136.003 20.3288C136.004 20.5889 136.505 20.9285 137.315 21.2671C138.468 21.7489 140.077 22.0455 141.869 22.0399C143.662 22.0352 145.268 21.7311 146.414 21.2447C147.221 20.9013 147.721 20.5561 147.72 20.2895C147.719 20.0294 147.217 19.6898 146.407 19.3511C145.255 18.8693 143.646 18.5728 141.853 18.5784ZM136.303 17.0133C137.739 16.4033 139.703 16.0225 141.853 16.0169C144.004 16.0113 145.969 16.3799 147.404 16.9805C149.182 17.7243 150.283 18.8862 150.287 20.2895C150.291 21.6862 149.195 22.851 147.421 23.605C145.984 24.215 144.021 24.5957 141.87 24.6014C139.719 24.607 137.755 24.2384 136.32 23.6378C134.542 22.894 133.44 21.7321 133.437 20.3288C133.433 18.932 134.529 17.7673 136.303 17.0133Z" fill="#FFDA46"/>
<path d="M111.339 17.2859L111.035 16.24L101.651 15.2287L100.29 16.2026L101.07 17.0708L108.864 19.2805L108.285 21.3396L99.8959 18.9615L97.101 15.848L101.062 13.0143L112.69 14.2679L113.395 16.6919L111.339 17.2859Z" fill="#FFDA46"/>
<path d="M113.395 23.928L112.69 26.352L101.062 27.6056L97.101 24.7719L99.8959 21.6584L108.285 19.2803L108.864 21.3394L101.07 23.5491L100.29 24.4173L101.651 25.3912L111.035 24.3799L111.339 23.3339L113.395 23.928Z" fill="#FFDA46"/>
<path d="M165.941 17.544C160.222 14.6644 154.503 11.7858 148.782 8.9062C149.374 8.0717 149.966 7.2372 150.556 6.40271C148.398 6.54491 146.24 6.68711 144.081 6.82931C143.614 7.67597 143.147 8.52263 142.681 9.36929C150.205 12.8841 157.728 16.3989 165.252 19.9137C165.482 19.1241 165.712 18.3336 165.941 17.544Z" fill="#FFDA46"/>
<path d="M165.945 23.1822C160.206 26.0216 154.466 28.8609 148.727 31.7012C149.313 32.5395 149.898 33.3786 150.484 34.2169C148.327 34.0597 146.17 33.9025 144.012 33.7454C143.551 32.8959 143.09 32.0455 142.629 31.196C150.177 27.7336 157.725 24.2703 165.273 20.8079C165.497 21.5993 165.721 22.3908 165.945 23.1822Z" fill="#FFDA46"/>
<path d="M170.235 15.455L170.235 15.4615C171.694 15.4521 173.033 15.9414 174.02 16.7404C175.1 17.6151 175.775 18.8594 175.786 20.2645L175.793 20.2776L175.786 20.2776C175.794 21.6781 175.14 22.9299 174.077 23.8205C173.104 24.6353 171.769 25.1461 170.301 25.1583L170.287 25.1649L170.287 25.1583C168.828 25.1677 167.49 24.6784 166.502 23.8794C165.422 23.0047 164.747 21.7604 164.736 20.3553C164.724 18.9492 165.378 17.6928 166.445 16.7993C167.418 15.9845 168.753 15.4737 170.222 15.4615L170.235 15.455ZM170.235 18.8837L170.235 18.8771C169.602 18.8856 169.041 19.0932 168.647 19.4244C168.343 19.6789 168.156 20.0007 168.159 20.3291C168.162 20.6584 168.355 20.9774 168.663 21.2281C169.063 21.5518 169.632 21.7492 170.274 21.7436L170.287 21.7371L170.287 21.7436C170.92 21.7352 171.481 21.5275 171.876 21.1963C172.179 20.9419 172.366 20.62 172.363 20.2917L172.357 20.2786L172.363 20.2786C172.356 19.9539 172.164 19.6405 171.859 19.3926C171.459 19.0689 170.89 18.8715 170.248 18.8771L170.235 18.8837Z" fill="#FFDA46"/>
<path d="M156.68 21.4755L155.648 20.3098L156.68 19.1442L158.852 20.3098L156.68 21.4755Z" fill="#FFDA46"/>
<path d="M165.396 5.82438C166.983 5.69153 168.466 5.84964 169.582 6.2145C171.046 6.69255 172.002 7.57008 172.099 8.73389C172.197 9.89489 171.403 10.9165 170.04 11.6303C168.999 12.1767 167.56 12.5808 165.972 12.7136C164.386 12.8465 162.902 12.6884 161.787 12.3235C160.322 11.8455 159.367 10.9679 159.269 9.80414C159.172 8.64314 159.966 7.62154 161.328 6.90773C162.37 6.36138 163.809 5.95722 165.396 5.82438ZM168.787 8.6553C167.98 8.39148 166.856 8.28109 165.608 8.38587C164.362 8.49065 163.276 8.78534 162.527 9.17827C162.098 9.40279 161.834 9.55903 161.837 9.59364C161.84 9.62545 162.125 9.73304 162.584 9.88272C163.391 10.1465 164.514 10.2569 165.762 10.1522C167.008 10.0474 168.095 9.75268 168.844 9.35976C169.273 9.13523 169.537 8.979 169.533 8.94438C169.53 8.91258 169.245 8.80499 168.787 8.6553Z" fill="#FFDA46"/>
<path d="M154.948 13.2267C155.004 12.9694 155.203 12.1106 155.73 11.1283C156.265 10.1338 157.134 9.0196 158.528 8.27865C159.08 7.98583 159.609 7.80247 160.088 7.68927C160.561 7.577 160.999 7.53023 161.359 7.51245L161.439 9.2198C161.18 9.2329 160.855 9.26845 160.485 9.35639C160.12 9.44339 159.726 9.57717 159.335 9.78486C158.3 10.334 157.647 11.176 157.242 11.931C156.83 12.6981 156.672 13.382 156.627 13.5869L154.948 13.2248L154.948 13.2267Z" fill="#FFDA46"/>
<path d="M165.608 32.2335C166.856 32.3382 167.98 32.2278 168.787 31.964C169.245 31.8143 169.53 31.7058 169.533 31.6749C169.536 31.6403 169.273 31.4841 168.844 31.2596C168.095 30.8666 167.008 30.572 165.762 30.4672C164.514 30.3624 163.391 30.4728 162.584 30.7366C162.125 30.8863 161.84 30.9948 161.837 31.0257C161.835 31.0603 162.098 31.2165 162.527 31.4411C163.276 31.834 164.362 32.1287 165.608 32.2335ZM169.582 34.4048C168.466 34.7688 166.983 34.9278 165.396 34.7949C163.808 34.6621 162.37 34.257 161.328 33.7116C159.966 32.9978 159.172 31.9753 159.269 30.8152C159.368 29.6514 160.322 28.7739 161.787 28.2958C162.902 27.9319 164.386 27.7728 165.972 27.9057C167.56 28.0385 168.999 28.4436 170.04 28.989C171.403 29.7028 172.197 30.7254 172.099 31.8854C172.001 33.0492 171.046 33.9268 169.582 34.4048Z" fill="#FFDA46"/>
<path d="M156.627 27.0321C156.672 27.237 156.829 27.9218 157.242 28.688C157.647 29.443 158.3 30.285 159.335 30.8342C159.726 31.0418 160.12 31.1766 160.485 31.2626C160.855 31.3506 161.18 31.3861 161.439 31.3992L161.359 33.1066C160.999 33.0888 160.561 33.042 160.088 32.9297C159.61 32.8165 159.08 32.6332 158.528 32.3404C157.134 31.5994 156.265 30.4852 155.73 29.4907C155.203 28.5084 155.004 27.6496 154.948 27.3923L156.626 27.0303L156.627 27.0321Z" fill="#FFDA46"/>
<path d="M172.385 23.3339L172.688 24.3799L182.072 25.3912L183.433 24.4173L182.653 23.5491L174.86 21.3394L175.438 19.2803L183.828 21.6584L186.623 24.7719L182.661 27.6056L171.034 26.352L170.329 23.928L172.385 23.3339Z" fill="#FFDA46"/>
<path d="M170.329 16.6919L171.034 14.2679L182.661 13.0143L186.623 15.848L183.828 18.9615L175.438 21.3396L174.86 19.2805L182.653 17.0708L183.433 16.2026L182.072 15.2287L172.688 16.24L172.385 17.2859L170.329 16.6919Z" fill="#FFDA46"/>
<path d="M95.1484 9.20851L93.2911 10.8457L91.4337 9.20851L93.2911 5.76294L95.1484 9.20851Z" fill="#FFDA46"/>
<path d="M95.1484 31.4115L93.2911 29.7743L91.4337 31.4115L93.2911 34.857L95.1484 31.4115Z" fill="#FFDA46"/>
<path d="M93.2901 22.7124L95.7227 20.2852L93.2901 17.8579L90.8575 20.2852L93.2901 22.7124Z" fill="#FFDA46"/>
<path d="M192.289 9.20851L190.432 10.8457L188.574 9.20851L190.432 5.76294L192.289 9.20851Z" fill="#FFDA46"/>
<path d="M192.289 31.4115L190.432 29.7743L188.574 31.4115L190.432 34.857L192.289 31.4115Z" fill="#FFDA46"/>
<path d="M190.431 22.7124L192.863 20.2852L190.431 17.8579L187.998 20.2852L190.431 22.7124Z" fill="#FFDA46"/>
<path d="M312.157 23.0754C317.876 25.955 323.596 28.8336 329.316 31.7132C328.724 32.5477 328.133 33.3822 327.542 34.2167C329.7 34.0745 331.859 33.9323 334.017 33.7901C334.484 32.9434 334.951 32.0967 335.418 31.2501C327.894 27.7353 320.37 24.2205 312.846 20.7057C312.617 21.4953 312.387 22.2858 312.157 23.0754Z" fill="#FFDA46"/>
<path d="M312.155 17.4373C317.894 14.598 323.634 11.7586 329.373 8.91836C328.787 8.08012 328.202 7.24095 327.616 6.40271C329.773 6.55988 331.93 6.71705 334.088 6.87422C334.549 7.72368 335.01 8.57408 335.471 9.42355C327.923 12.886 320.374 16.3493 312.827 19.8117C312.603 19.0202 312.379 18.2288 312.155 17.4373Z" fill="#FFDA46"/>
<path d="M307.866 25.1649L307.866 25.1583C306.407 25.1677 305.068 24.6784 304.081 23.8794C303.001 23.0047 302.326 21.7604 302.315 20.3553L302.308 20.3422L302.315 20.3422C302.307 18.9408 302.961 17.6899 304.024 16.7993C304.997 15.9845 306.332 15.4737 307.8 15.4615L307.814 15.455L307.814 15.4615C309.272 15.4521 310.611 15.9414 311.599 16.7404C312.679 17.6151 313.354 18.8594 313.365 20.2645C313.377 21.6706 312.723 22.9271 311.656 23.8205C310.683 24.6353 309.347 25.1461 307.879 25.1583L307.866 25.1649ZM307.866 21.7361L307.866 21.7427C308.499 21.7343 309.06 21.5266 309.454 21.1954C309.758 20.9409 309.945 20.6191 309.942 20.2907C309.939 19.9614 309.746 19.6424 309.437 19.3917C309.038 19.068 308.469 18.8706 307.827 18.8762L307.814 18.8828L307.814 18.8762C307.181 18.8846 306.62 19.0923 306.225 19.4235C305.921 19.678 305.735 19.9998 305.738 20.3281L305.744 20.3412L305.738 20.3412C305.745 20.6659 305.937 20.9793 306.242 21.2272C306.642 21.5509 307.211 21.7483 307.853 21.7427L307.866 21.7361Z" fill="#FFDA46"/>
<path d="M321.419 19.1448L322.451 20.3105L321.419 21.4761L319.247 20.3105L321.419 19.1448Z" fill="#FFDA46"/>
<path d="M312.703 34.7951C311.116 34.9279 309.633 34.7698 308.517 34.405C307.053 33.9269 306.097 33.0494 306 31.8856C305.902 30.7246 306.696 29.703 308.059 28.9891C309.1 28.4428 310.54 28.0386 312.127 27.9058C313.713 27.773 315.197 27.9311 316.312 28.2959C317.777 28.774 318.732 29.6515 318.83 30.8153C318.927 31.9763 318.133 32.9979 316.771 33.7117C315.729 34.2581 314.29 34.6622 312.703 34.7951ZM309.312 31.9641C310.12 32.228 311.243 32.3384 312.491 32.2336C313.737 32.1288 314.823 31.8341 315.573 31.4412C316.001 31.2167 316.266 31.0604 316.262 31.0258C316.259 30.994 315.974 30.8864 315.515 30.7367C314.708 30.4729 313.585 30.3625 312.337 30.4673C311.091 30.5721 310.004 30.8668 309.255 31.2597C308.827 31.4842 308.562 31.6405 308.566 31.6751C308.569 31.7069 308.854 31.8145 309.312 31.9641Z" fill="#FFDA46"/>
<path d="M323.152 27.3934C323.096 27.6507 322.897 28.5095 322.369 29.4918C321.835 30.4863 320.966 31.6005 319.572 32.3414C319.02 32.6342 318.491 32.8176 318.011 32.9308C317.539 33.0431 317.101 33.0898 316.741 33.1076L316.66 31.4003C316.92 31.3872 317.245 31.3516 317.615 31.2637C317.98 31.1767 318.373 31.0429 318.765 30.8352C319.799 30.2861 320.453 29.4441 320.858 28.6891C321.27 27.922 321.428 27.2381 321.473 27.0332L323.151 27.3953L323.152 27.3934Z" fill="#FFDA46"/>
<path d="M312.491 8.38575C311.243 8.28097 310.12 8.39136 309.312 8.65518C308.854 8.80487 308.569 8.91339 308.566 8.94426C308.563 8.97888 308.827 9.13511 309.255 9.35964C310.004 9.75256 311.091 10.0473 312.337 10.152C313.585 10.2568 314.708 10.1464 315.515 9.8826C315.974 9.73292 316.259 9.6244 316.262 9.59352C316.265 9.55891 316.001 9.40267 315.573 9.17815C314.823 8.78522 313.737 8.49053 312.491 8.38575ZM308.517 6.21438C309.633 5.85045 311.116 5.69141 312.703 5.82426C314.291 5.95711 315.729 6.36219 316.771 6.90761C318.133 7.62142 318.927 8.64396 318.83 9.80402C318.731 10.9678 317.777 11.8454 316.312 12.3234C315.197 12.6873 313.713 12.8464 312.127 12.7135C310.539 12.5807 309.1 12.1756 308.059 11.6302C306.696 10.9164 305.902 9.89383 306 8.73377C306.098 7.56996 307.053 6.69243 308.517 6.21438Z" fill="#FFDA46"/>
<path d="M321.475 13.5877C321.43 13.3828 321.273 12.698 320.86 11.9318C320.455 11.1769 319.801 10.3349 318.767 9.78572C318.375 9.57803 317.982 9.44331 317.617 9.35724C317.246 9.2693 316.922 9.23375 316.662 9.22065L316.743 7.51331C317.103 7.53108 317.541 7.57786 318.013 7.69012C318.492 7.80332 319.022 7.98669 319.574 8.27951C320.968 9.02045 321.837 10.1347 322.371 11.1291C322.899 12.1115 323.098 12.9703 323.154 13.2275L321.476 13.5896L321.475 13.5877Z" fill="#FFDA46"/>
<path d="M336.23 18.5784C334.438 18.5831 332.832 18.8871 331.686 19.3736C330.879 19.7169 330.379 20.0622 330.38 20.3288C330.381 20.5889 330.882 20.9285 331.692 21.2671C332.845 21.7489 334.454 22.0455 336.246 22.0399C338.039 22.0352 339.645 21.7311 340.791 21.2447C341.598 20.9013 342.098 20.5561 342.097 20.2895C342.096 20.0294 341.594 19.6898 340.784 19.3511C339.632 18.8693 338.023 18.5728 336.23 18.5784ZM330.68 17.0133C332.116 16.4033 334.08 16.0225 336.23 16.0169C338.381 16.0113 340.345 16.3799 341.781 16.9805C343.559 17.7243 344.66 18.8862 344.664 20.2895C344.668 21.6862 343.572 22.851 341.798 23.605C340.361 24.215 338.398 24.5957 336.247 24.6014C334.096 24.607 332.132 24.2384 330.697 23.6378C328.919 22.894 327.817 21.7321 327.814 20.3288C327.81 18.932 328.906 17.7673 330.68 17.0133Z" fill="#FFDA46"/>
<path d="M305.715 17.2859L305.412 16.24L296.028 15.2287L294.667 16.2026L295.447 17.0708L303.24 19.2805L302.662 21.3396L294.272 18.9615L291.477 15.848L295.439 13.0143L307.066 14.2679L307.771 16.6919L305.715 17.2859Z" fill="#FFDA46"/>
<path d="M307.771 23.928L307.066 26.352L295.439 27.6056L291.477 24.7719L294.272 21.6584L302.662 19.2803L303.24 21.3394L295.447 23.5491L294.667 24.4173L296.028 25.3912L305.412 24.3799L305.715 23.3339L307.771 23.928Z" fill="#FFDA46"/>
<path d="M360.318 17.544C354.599 14.6644 348.88 11.7858 343.159 8.9062C343.751 8.0717 344.343 7.2372 344.933 6.40271C342.775 6.54491 340.617 6.68711 338.458 6.82931C337.991 7.67597 337.524 8.52263 337.058 9.36929C344.582 12.8841 352.105 16.3989 359.629 19.9137C359.859 19.1241 360.089 18.3336 360.318 17.544Z" fill="#FFDA46"/>
<path d="M360.322 23.1822C354.583 26.0216 348.843 28.8609 343.104 31.7012C343.69 32.5395 344.275 33.3786 344.861 34.2169C342.704 34.0597 340.546 33.9025 338.389 33.7454C337.928 32.8959 337.466 32.0455 337.006 31.196C344.554 27.7336 352.102 24.2703 359.65 20.8079C359.874 21.5993 360.098 22.3908 360.322 23.1822Z" fill="#FFDA46"/>
<path d="M364.612 15.455L364.612 15.4615C366.071 15.4521 367.41 15.9414 368.397 16.7404C369.477 17.6151 370.152 18.8594 370.163 20.2645L370.17 20.2776L370.163 20.2776C370.171 21.6781 369.517 22.9299 368.454 23.8205C367.481 24.6353 366.146 25.1461 364.677 25.1583L364.664 25.1649L364.664 25.1583C363.205 25.1677 361.867 24.6784 360.879 23.8794C359.799 23.0047 359.124 21.7604 359.113 20.3553C359.101 18.9492 359.755 17.6928 360.822 16.7993C361.795 15.9845 363.13 15.4737 364.599 15.4615L364.612 15.455ZM364.612 18.8837L364.612 18.8771C363.979 18.8856 363.418 19.0932 363.024 19.4244C362.72 19.6789 362.533 20.0007 362.536 20.3291C362.539 20.6584 362.732 20.9774 363.04 21.2281C363.44 21.5518 364.009 21.7492 364.651 21.7436L364.664 21.7371L364.664 21.7436C365.297 21.7352 365.858 21.5275 366.253 21.1963C366.556 20.9419 366.743 20.62 366.74 20.2917L366.734 20.2786L366.74 20.2786C366.733 19.9539 366.54 19.6405 366.236 19.3926C365.836 19.0689 365.267 18.8715 364.625 18.8771L364.612 18.8837Z" fill="#FFDA46"/>
<path d="M351.059 21.4755L350.027 20.3098L351.059 19.1442L353.23 20.3098L351.059 21.4755Z" fill="#FFDA46"/>
<path d="M359.775 5.82438C361.362 5.69153 362.845 5.84964 363.961 6.2145C365.425 6.69255 366.381 7.57008 366.478 8.73389C366.576 9.89489 365.782 10.9165 364.419 11.6303C363.378 12.1767 361.938 12.5808 360.351 12.7136C358.765 12.8465 357.281 12.6884 356.166 12.3235C354.701 11.8455 353.746 10.9679 353.648 9.80414C353.551 8.64314 354.345 7.62154 355.707 6.90773C356.749 6.36138 358.188 5.95722 359.775 5.82438ZM363.166 8.6553C362.358 8.39148 361.235 8.28109 359.987 8.38587C358.741 8.49065 357.655 8.78534 356.905 9.17827C356.477 9.40279 356.213 9.55903 356.216 9.59364C356.219 9.62545 356.504 9.73304 356.963 9.88272C357.77 10.1465 358.893 10.2569 360.141 10.1522C361.387 10.0474 362.474 9.75268 363.223 9.35976C363.651 9.13523 363.916 8.979 363.912 8.94438C363.909 8.91258 363.624 8.80499 363.166 8.6553Z" fill="#FFDA46"/>
<path d="M349.326 13.2267C349.383 12.9694 349.581 12.1106 350.109 11.1283C350.644 10.1338 351.513 9.0196 352.907 8.27865C353.458 7.98583 353.988 7.80247 354.467 7.68927C354.94 7.577 355.378 7.53023 355.738 7.51245L355.818 9.2198C355.559 9.2329 355.234 9.26845 354.864 9.35639C354.499 9.44339 354.105 9.57717 353.713 9.78486C352.679 10.334 352.026 11.176 351.621 11.931C351.209 12.6981 351.051 13.382 351.006 13.5869L349.327 13.2248L349.326 13.2267Z" fill="#FFDA46"/>
<path d="M359.985 32.2335C361.233 32.3382 362.357 32.2278 363.164 31.964C363.622 31.8143 363.907 31.7058 363.91 31.6749C363.913 31.6403 363.649 31.4841 363.221 31.2596C362.472 30.8666 361.385 30.572 360.139 30.4672C358.891 30.3624 357.768 30.4728 356.961 30.7366C356.502 30.8863 356.217 30.9948 356.214 31.0257C356.212 31.0603 356.475 31.2165 356.903 31.4411C357.653 31.834 358.739 32.1287 359.985 32.2335ZM363.959 34.4048C362.843 34.7688 361.36 34.9278 359.773 34.7949C358.185 34.6621 356.747 34.257 355.705 33.7116C354.343 32.9978 353.549 31.9753 353.646 30.8152C353.745 29.6514 354.699 28.7739 356.164 28.2958C357.279 27.9319 358.763 27.7728 360.349 27.9057C361.937 28.0385 363.376 28.4436 364.417 28.989C365.78 29.7028 366.574 30.7254 366.476 31.8854C366.378 33.0492 365.423 33.9268 363.959 34.4048Z" fill="#FFDA46"/>
<path d="M351.004 27.0321C351.049 27.237 351.207 27.9218 351.619 28.688C352.024 29.443 352.677 30.285 353.712 30.8342C354.103 31.0418 354.497 31.1766 354.862 31.2626C355.232 31.3506 355.557 31.3861 355.816 31.3992L355.736 33.1066C355.376 33.0888 354.938 33.042 354.465 32.9297C353.987 32.8165 353.456 32.6332 352.905 32.3404C351.511 31.5994 350.642 30.4852 350.107 29.4907C349.58 28.5084 349.381 27.6496 349.324 27.3923L351.003 27.0303L351.004 27.0321Z" fill="#FFDA46"/>
<path d="M366.762 23.3339L367.066 24.3799L376.45 25.3912L377.811 24.4173L377.031 23.5491L369.237 21.3394L369.816 19.2803L378.205 21.6584L381 24.7719L377.039 27.6056L365.411 26.352L364.706 23.928L366.762 23.3339Z" fill="#FFDA46"/>
<path d="M364.706 16.6919L365.411 14.2679L377.039 13.0143L381 15.848L378.205 18.9615L369.816 21.3396L369.237 19.2805L377.031 17.0708L377.811 16.2026L376.45 15.2287L367.066 16.24L366.762 17.2859L364.706 16.6919Z" fill="#FFDA46"/>
<path d="M289.566 9.20851L287.709 10.8457L285.852 9.20851L287.709 5.76294L289.566 9.20851Z" fill="#FFDA46"/>
<path d="M289.566 31.4115L287.709 29.7743L285.852 31.4115L287.709 34.857L289.566 31.4115Z" fill="#FFDA46"/>
<path d="M287.708 22.7124L290.141 20.2852L287.708 17.8579L285.275 20.2852L287.708 22.7124Z" fill="#FFDA46"/>
<rect width="381" height="2.56134" fill="#FFDA46"/>
<rect y="37.7798" width="381" height="2.56134" fill="#FFDA46"/>
</svg>
