<svg width="720" height="448" viewBox="0 0 720 448" fill="none" xmlns="http://www.w3.org/2000/svg">
<mask id="mask0_384_301" style="mask-type:alpha" maskUnits="userSpaceOnUse" x="0" y="0" width="720" height="448">
<rect width="720" height="448" fill="white"/>
</mask>
<g mask="url(#mask0_384_301)">
<rect width="1440" height="448" fill="white"/>
<path d="M5.61523 335.603C4.6693 302.305 40.6497 281.214 69.2852 298.929C73.1024 301.291 77.1759 304.942 80.3994 309.175C83.3751 313.083 85.4959 317.315 86.1592 321.327C70.2883 328.505 52.3091 325.809 39.3369 314.153L39.334 314.151L39.209 314.043C37.8933 312.97 35.9605 312.973 34.6523 314.145L34.6455 314.152L27.1562 320.915C27.1524 320.918 27.1483 320.922 27.1436 320.926C27.1055 320.957 26.9908 321.052 26.8672 321.179C26.6697 321.382 25.9978 322.122 26.0947 323.286L26.0967 323.299C26.15 323.903 26.3928 324.408 26.501 324.625C26.6469 324.918 26.8245 325.214 26.998 325.485C27.3479 326.029 27.7937 326.642 28.2285 327.22C29.1852 328.493 29.997 329.489 30.4141 330.079L30.415 330.08C39.3615 342.737 40.8954 359.219 34.1914 373.087C18.4327 369.226 6.38546 352.666 5.64453 336.393V336.392L5.61523 335.603Z" stroke="#125881" stroke-opacity="0.5" stroke-width="5"/>
<path d="M-40.5117 194.617C-12.1987 202.486 -2.24599 239.591 -22.6143 261.644C-40.5382 281.05 -72.4739 279.28 -87.3496 257.388V257.387L-87.6055 256.996C-88.2942 255.913 -89.5915 253.686 -90.7471 251.346C-91.4044 250.015 -91.986 248.708 -92.3779 247.598C-92.5343 247.155 -92.6508 246.769 -92.7305 246.444C-76.5715 239.284 -58.6973 241.828 -45.4326 253.48L-45.4287 253.483C-44.0745 254.668 -41.9679 254.674 -40.6289 253.317L-33.6279 246.317C-32.3025 244.991 -32.2864 242.921 -33.4473 241.558L-33.4531 241.552L-33.459 241.545L-34.0039 240.903C-45.0618 227.656 -47.8272 210.3 -40.5117 194.617Z" stroke="#125881" stroke-opacity="0.5" stroke-width="5"/>
<path d="M34.3672 194.598C40.7283 209.258 39.5185 224.252 30.3838 237.588L30.3809 237.592C29.9437 238.232 28.9746 239.674 28.1318 240.981C27.7133 241.63 27.3085 242.273 27.0137 242.775C26.8715 243.017 26.7249 243.277 26.6133 243.508C26.5647 243.608 26.4754 243.798 26.4062 244.021C26.3761 244.118 26.304 244.363 26.2871 244.678C26.2789 244.832 26.2143 245.914 27.1543 246.727V246.728C28.0763 247.526 29.9112 249.221 31.5508 250.749C32.363 251.506 33.1164 252.211 33.666 252.727C33.9405 252.985 34.1643 253.196 34.3193 253.342C34.3969 253.415 34.4572 253.472 34.498 253.51C34.5184 253.53 34.5335 253.545 34.5439 253.554C34.5492 253.559 34.554 253.563 34.5566 253.565C34.5578 253.566 34.559 253.568 34.5596 253.568V253.569L34.5732 253.581L34.5859 253.594C35.2092 254.165 35.908 254.253 36.2344 254.265C36.5821 254.278 36.8625 254.219 37.0107 254.182C37.3155 254.107 37.5773 253.991 37.7314 253.919C38.0691 253.76 38.4471 253.539 38.8037 253.321C39.5382 252.872 40.4904 252.236 41.4785 251.571C43.5278 250.191 45.7599 248.666 47.252 247.832L47.251 247.831C59.4459 241.02 73.5635 240.678 86.1396 246.519C84.4288 253.781 79.7887 260.445 73.5811 265.543C67.0538 270.903 58.9714 274.382 51.1963 275.007C16.9008 277.757 -6.21223 241.38 11.7344 211.769C14.1347 207.809 17.7821 203.763 22.0293 200.546C25.9369 197.586 30.2205 195.427 34.3672 194.598Z" stroke="#125881" stroke-opacity="0.5" stroke-width="5"/>
<path d="M-3.06934 159.125C-1.64129 160.373 0.513158 162.44 2.63477 164.557C5.36081 167.277 7.69644 169.738 8.11914 170.279V170.28C10.8846 173.829 12.4322 178.027 11.9639 182.257C11.6603 184.99 10.673 186.768 9.27344 188.425C8.53727 189.297 7.69322 190.129 6.70996 191.084C5.74965 192.017 4.66495 193.06 3.59082 194.253V194.254C1.28517 196.818 -1.20111 199.713 -3.1543 203.018C-4.64647 200.34 -6.52711 197.709 -8.26758 195.603C-9.49063 194.121 -10.7386 192.929 -11.8779 191.888C-13.056 190.812 -14.0207 189.978 -14.9092 189.048C-16.5377 187.344 -17.7422 185.482 -18.1514 182.135C-18.7368 177.345 -16.7825 173.347 -13.5205 169.456C-11.8836 167.503 -9.97278 165.645 -7.97266 163.77C-6.35238 162.251 -4.64264 160.691 -3.06934 159.125Z" stroke="#125881" stroke-opacity="0.5" stroke-width="5"/>
<path d="M95.5225 269.627C101.427 267.708 105.832 269.257 109.959 272.388C112.083 273.999 114.1 276.011 116.179 278.212C117.901 280.036 119.708 282.035 121.556 283.889C120.284 285.341 118.159 287.548 115.976 289.724C113.17 292.519 110.64 294.9 110.077 295.325L110.074 295.328C107.502 297.277 103.874 298.857 100.853 299.01L100.562 299.019C96.3983 299.1 93.8137 297.601 91.3486 295.352C90.0404 294.159 88.8503 292.834 87.4072 291.32C86.007 289.851 84.4372 288.283 82.5576 286.867C81.3646 285.966 79.7078 284.738 77.9932 283.642C80.678 281.9 84.2672 279.488 86.1689 277.829C88.2113 276.048 89.8211 273.921 90.9863 272.663C92.2363 271.313 93.4834 270.289 95.5225 269.627Z" stroke="#125881" stroke-opacity="0.5" stroke-width="5"/>
<path d="M-3.04004 364.64C-1.57713 367.259 0.158751 369.819 1.98145 372.036L1.9834 372.038C3.21006 373.526 5.02568 375.063 6.49316 376.336C8.12411 377.751 9.28707 378.812 9.81445 379.599H9.81543C11.7398 382.467 12.3421 385.136 12.1543 387.637C11.9627 390.189 10.9317 392.761 9.27441 395.342C6.16392 400.187 1.19349 404.566 -3.22656 408.373C-5.07014 406.545 -7.05327 404.753 -8.85645 403.047C-11.0415 400.981 -13.0356 398.973 -14.6289 396.86C-17.7244 392.755 -19.25 388.367 -17.3408 382.49L-17.3418 382.489C-16.6927 380.496 -15.6688 379.227 -14.3115 377.953C-13.579 377.265 -12.8449 376.66 -11.9297 375.858C-11.0538 375.091 -10.1044 374.22 -9.16113 373.167L-9.16211 373.166C-6.99503 370.748 -4.75176 367.753 -3.04004 364.64Z" stroke="#125881" stroke-opacity="0.5" stroke-width="5"/>
<path d="M-3.10156 264.162C0.454165 270.366 5.73455 276.281 11.1631 280.401L11.1641 280.402C12.458 281.383 13.8559 282.199 15.1123 282.925C15.6682 283.246 16.1935 283.55 16.6934 283.848C16.4328 284.004 16.1631 284.167 15.8867 284.331C14.1505 285.363 11.981 286.633 11.1758 287.236L11.1738 287.238C8.26226 289.423 2.75355 294.856 0.547852 297.783C-0.0220557 298.539 -0.97424 300.165 -1.82324 301.565C-2.24475 302.26 -2.66116 302.93 -3.04785 303.53C-6.81813 297.38 -11.5267 291.658 -17.4658 287.228L-17.4697 287.226C-18.2183 286.669 -19.7749 285.781 -21.0908 285.001C-21.6991 284.64 -22.2838 284.284 -22.8154 283.95C-14.7709 279.091 -7.86132 272.369 -3.10156 264.162Z" stroke="#125881" stroke-opacity="0.5" stroke-width="5"/>
<path d="M151.02 201.558C150.074 168.26 186.054 147.169 214.689 164.884C218.507 167.246 222.58 170.897 225.804 175.13C228.779 179.038 230.9 183.269 231.563 187.282C215.693 194.46 197.713 191.764 184.741 180.107L184.738 180.105L184.613 179.998C183.298 178.925 181.365 178.927 180.057 180.1L180.05 180.106L172.561 186.87C172.557 186.873 172.553 186.877 172.548 186.881C172.51 186.912 172.395 187.007 172.271 187.134C172.074 187.337 171.402 188.077 171.499 189.241L171.501 189.254C171.554 189.858 171.797 190.363 171.905 190.58C172.051 190.873 172.229 191.169 172.402 191.439C172.752 191.984 173.198 192.596 173.633 193.175C174.59 194.447 175.401 195.444 175.818 196.034L175.819 196.035C184.766 208.692 186.3 225.174 179.596 239.042C163.837 235.181 151.79 218.621 151.049 202.348V202.347L151.02 201.558Z" stroke="#125881" stroke-opacity="0.5" stroke-width="5"/>
<path d="M53.0713 187.118C61.0387 158.875 97.9426 149.002 120.1 169.259V169.26C142.021 189.3 136.089 226.779 108.684 238.126H108.683C107.891 238.454 106.737 238.973 105.615 239.31C105.381 239.38 105.174 239.431 104.998 239.47C104.965 239.39 104.929 239.306 104.894 239.217C104.586 238.454 104.214 237.458 103.843 236.417C103.084 234.292 102.399 232.196 102.256 231.632V231.631C99.3709 220.303 100.866 209.016 106.93 199.049L106.932 199.046C107.085 198.793 107.499 198.244 108.177 197.375C108.802 196.574 109.578 195.592 110.296 194.626C111.003 193.675 111.728 192.641 112.232 191.723C112.479 191.274 112.739 190.735 112.892 190.176C113.007 189.755 113.272 188.595 112.554 187.497H112.555C112.354 187.19 112.012 186.829 111.83 186.636C111.568 186.358 111.229 186.012 110.846 185.629C110.077 184.86 109.091 183.905 108.1 182.981C107.115 182.062 106.094 181.144 105.263 180.464C104.857 180.132 104.437 179.807 104.062 179.566C103.885 179.452 103.623 179.294 103.322 179.173C103.174 179.113 102.918 179.021 102.596 178.98C102.304 178.942 101.662 178.908 100.984 179.286C99.9929 179.84 99.0017 180.731 98.2412 181.417C97.4851 182.099 96.8512 182.682 96.2588 183.131L96.0068 183.316C83.187 192.362 67.1583 193.717 53.0713 187.118Z" stroke="#125881" stroke-opacity="0.5" stroke-width="5"/>
<path d="M104.894 60.5724C133.207 68.4407 143.159 105.545 122.791 127.599C104.867 147.005 72.9314 145.235 58.0557 123.343V123.342L57.7998 122.951C57.1111 121.868 55.8137 119.641 54.6582 117.301C54.0008 115.97 53.4192 114.663 53.0273 113.553C52.8709 113.11 52.7545 112.724 52.6748 112.399C68.8337 105.239 86.708 107.782 99.9727 119.435L99.9766 119.438C101.331 120.623 103.437 120.628 104.776 119.272L111.777 112.272C113.103 110.946 113.119 108.876 111.958 107.513L111.952 107.507L111.946 107.5L111.401 106.858C100.343 93.6111 97.5781 76.2553 104.894 60.5724Z" stroke="#125881" stroke-opacity="0.5" stroke-width="5"/>
<path d="M179.771 60.5532C186.133 75.2124 184.923 90.2067 175.788 103.542L175.785 103.546C175.348 104.187 174.379 105.629 173.536 106.936C173.118 107.585 172.713 108.228 172.418 108.73C172.276 108.972 172.129 109.232 172.018 109.462C171.969 109.563 171.88 109.753 171.811 109.976C171.78 110.073 171.708 110.318 171.691 110.633C171.683 110.787 171.619 111.869 172.559 112.682V112.683C173.481 113.481 175.315 115.175 176.955 116.704C177.767 117.461 178.521 118.166 179.07 118.682C179.345 118.94 179.569 119.15 179.724 119.296C179.801 119.369 179.861 119.427 179.902 119.465C179.923 119.484 179.938 119.499 179.948 119.509C179.953 119.514 179.958 119.518 179.961 119.52C179.962 119.521 179.963 119.522 179.964 119.523V119.524L179.978 119.536L179.99 119.548C180.613 120.12 181.312 120.208 181.639 120.22C181.986 120.233 182.267 120.174 182.415 120.137C182.72 120.062 182.982 119.946 183.136 119.874C183.473 119.715 183.851 119.494 184.208 119.276C184.943 118.827 185.895 118.191 186.883 117.526C188.932 116.146 191.164 114.62 192.656 113.787L192.655 113.786C204.85 106.975 218.968 106.633 231.544 112.474C229.833 119.736 225.193 126.4 218.985 131.498C212.458 136.858 204.376 140.337 196.601 140.961C162.305 143.712 139.192 107.335 157.139 77.7241C159.539 73.7639 163.186 69.7176 167.434 66.5005C171.341 63.5406 175.625 61.3816 179.771 60.5532Z" stroke="#125881" stroke-opacity="0.5" stroke-width="5"/>
<path d="M37.1016 134.76C41.1569 134.264 43.4584 135.082 45.4219 136.44C46.4863 137.177 47.5033 138.11 48.6885 139.266C49.6198 140.175 50.6685 141.232 51.8438 142.316V142.342L52.6904 143.089C54.7814 144.932 58.4503 147.487 61.1328 149.293C60.2803 149.906 59.4684 150.567 58.7178 151.203C57.3714 152.344 56.3349 153.299 55.2744 154.145L55.2725 154.146C53.8511 155.283 52.5945 156.522 51.4453 157.694C50.2646 158.899 49.241 159.986 48.1465 161.002C46.014 162.98 43.9284 164.37 41.1436 164.81C36.1761 165.595 32.0768 163.655 28.0898 160.331C26.0852 158.66 24.1792 156.695 22.251 154.635C20.6926 152.971 19.0909 151.216 17.4785 149.604C19.4897 147.073 22.8561 143.589 26.5352 140.598C28.47 139.025 30.4448 137.627 32.3086 136.584C34.2017 135.524 35.83 134.915 37.1016 134.76Z" stroke="#125881" stroke-opacity="0.5" stroke-width="5"/>
<path d="M142.336 25.0803C143.764 26.3278 145.918 28.3948 148.04 30.512C150.766 33.2323 153.102 35.6924 153.524 36.2336V36.2346C156.29 39.7838 157.837 43.9814 157.369 48.2122C157.066 50.9444 156.078 52.7224 154.679 54.3801C153.943 55.2521 153.098 56.0841 152.115 57.0393C151.155 57.9722 150.07 59.0146 148.996 60.2083V60.2092C146.69 62.7728 144.204 65.6678 142.251 68.9729C140.759 66.2952 138.878 63.6635 137.138 61.5579C135.915 60.0762 134.667 58.8842 133.527 57.843C132.349 56.7665 131.385 55.9331 130.496 55.0032C128.868 53.2985 127.663 51.4365 127.254 48.0901C126.668 43.2995 128.623 39.3016 131.885 35.4104C133.522 33.4578 135.432 31.6 137.433 29.7249C139.053 28.2058 140.763 26.6455 142.336 25.0803Z" stroke="#125881" stroke-opacity="0.5" stroke-width="5"/>
<path d="M240.928 135.582C246.833 133.663 251.238 135.212 255.364 138.342C257.488 139.953 259.506 141.966 261.584 144.167C263.307 145.991 265.113 147.989 266.961 149.843C265.69 151.296 263.564 153.503 261.381 155.678C258.575 158.474 256.046 160.854 255.482 161.28L255.479 161.283C252.907 163.232 249.279 164.812 246.258 164.965L245.968 164.974C241.804 165.055 239.219 163.556 236.754 161.307C235.446 160.114 234.256 158.789 232.812 157.275C231.412 155.806 229.842 154.238 227.963 152.822C226.77 151.921 225.113 150.693 223.398 149.597C226.083 147.855 229.672 145.443 231.574 143.784C233.617 142.003 235.226 139.876 236.392 138.618C237.642 137.268 238.889 136.244 240.928 135.582Z" stroke="#125881" stroke-opacity="0.5" stroke-width="5"/>
<path d="M142.364 230.595C143.827 233.214 145.563 235.774 147.386 237.99L147.388 237.992C148.614 239.481 150.43 241.018 151.897 242.291C153.528 243.706 154.691 244.767 155.219 245.554H155.22C157.144 248.422 157.746 251.091 157.559 253.592C157.367 256.144 156.336 258.716 154.679 261.297C151.568 266.142 146.598 270.521 142.178 274.327C140.334 272.5 138.351 270.708 136.548 269.002C134.363 266.936 132.369 264.928 130.775 262.815C127.68 258.71 126.154 254.322 128.063 248.445L128.062 248.444C128.712 246.451 129.736 245.182 131.093 243.907C131.825 243.22 132.559 242.614 133.475 241.813C134.351 241.045 135.3 240.174 136.243 239.121L136.242 239.12C138.409 236.703 140.653 233.708 142.364 230.595Z" stroke="#125881" stroke-opacity="0.5" stroke-width="5"/>
<path d="M142.304 130.117C145.859 136.32 151.14 142.236 156.568 146.356L156.569 146.357C157.863 147.338 159.261 148.154 160.518 148.88C161.073 149.201 161.599 149.504 162.099 149.802C161.838 149.958 161.568 150.122 161.292 150.286C159.556 151.318 157.386 152.588 156.581 153.191L156.579 153.193C153.668 155.378 148.159 160.811 145.953 163.738C145.383 164.493 144.431 166.12 143.582 167.52C143.161 168.215 142.744 168.885 142.357 169.485C138.587 163.335 133.879 157.613 127.939 153.183L127.936 153.18C127.187 152.624 125.63 151.736 124.314 150.956C123.706 150.595 123.121 150.239 122.59 149.905C130.634 145.046 137.544 138.324 142.304 130.117Z" stroke="#125881" stroke-opacity="0.5" stroke-width="5"/>
<path d="M11.2949 67.5125C10.349 34.2147 46.3294 13.1241 74.9648 30.8386C78.7821 33.2006 82.8556 36.8514 86.0791 41.0847C89.0548 44.9925 91.1756 49.2243 91.8389 53.2371C75.968 60.4151 57.9888 57.7191 45.0166 46.0623L45.0137 46.0603L44.8887 45.9529C43.573 44.8799 41.6402 44.8822 40.332 46.0544L40.3252 46.0613L32.8359 52.825C32.8321 52.8281 32.828 52.8318 32.8232 52.8357C32.7852 52.867 32.6705 52.9615 32.5469 53.0886C32.3494 53.2916 31.6775 54.0316 31.7744 55.196L31.7764 55.2087C31.8297 55.8129 32.0725 56.3176 32.1807 56.5349C32.3266 56.8281 32.5041 57.1241 32.6777 57.3943C33.0276 57.9389 33.4734 58.5512 33.9082 59.1296C34.8649 60.4022 35.6767 61.3984 36.0938 61.989L36.0947 61.99C45.0412 74.6466 46.5751 91.1286 39.8711 104.997C24.1123 101.136 12.0651 84.5759 11.3242 68.3025V68.3015L11.2949 67.5125Z" stroke="#125881" stroke-opacity="0.5" stroke-width="5"/>
<path d="M-86.6543 53.0731C-78.6869 24.8303 -41.783 14.9567 -19.626 35.2137V35.2147C2.29544 55.2549 -3.63627 92.7339 -31.042 104.081H-31.043C-31.835 104.409 -32.9883 104.928 -34.1104 105.265C-34.345 105.335 -34.5512 105.386 -34.7275 105.425C-34.7605 105.345 -34.7961 105.261 -34.832 105.172C-35.14 104.408 -35.5114 103.412 -35.8828 102.372C-36.6413 100.247 -37.3263 98.1505 -37.4697 97.5868V97.5858C-40.3547 86.2579 -38.8594 74.9704 -32.7959 65.0038L-32.7939 65.0009C-32.6406 64.7483 -32.2265 64.1984 -31.5488 63.33C-30.9238 62.5291 -30.1472 61.5467 -29.4297 60.5809C-28.723 59.6298 -27.9975 58.5957 -27.4932 57.6776C-27.2468 57.2291 -26.9868 56.6897 -26.834 56.1307C-26.719 55.7103 -26.4535 54.5502 -27.1719 53.452H-27.1709C-27.3719 53.1445 -27.7135 52.7836 -27.8955 52.5907C-28.1576 52.3129 -28.4964 51.9673 -28.8799 51.5839C-29.6489 50.815 -30.6349 49.8601 -31.626 48.9354C-32.6101 48.0173 -33.6314 47.0988 -34.4629 46.4188C-34.8689 46.0868 -35.2886 45.7621 -35.6641 45.5204C-35.8402 45.407 -36.1023 45.2492 -36.4033 45.1278C-36.5513 45.0682 -36.8076 44.9758 -37.1299 44.9344C-37.4216 44.8971 -38.0638 44.8624 -38.7412 45.2411C-39.7327 45.7951 -40.7239 46.6858 -41.4844 47.3719C-42.2405 48.0542 -42.8744 48.6365 -43.4668 49.0858L-43.7188 49.2704C-56.5386 58.3172 -72.5673 59.672 -86.6543 53.0731Z" stroke="#125881" stroke-opacity="0.5" stroke-width="5"/>
<path d="M-34.832 -73.4728C-6.51905 -65.6045 3.43369 -28.4997 -16.9346 -6.44641C-34.8585 12.9599 -66.7942 11.1895 -81.6699 -10.7023V-10.7032L-81.9258 -11.0939C-82.6145 -12.1769 -83.9118 -14.4046 -85.0674 -16.7443C-85.7248 -18.0753 -86.3063 -19.3824 -86.6982 -20.4923C-86.8547 -20.9353 -86.9711 -21.3216 -87.0508 -21.6466C-70.8918 -28.806 -53.0176 -26.2627 -39.7529 -14.6105L-39.749 -14.6075C-38.3948 -13.4226 -36.2882 -13.4167 -34.9492 -14.7736L-27.9482 -21.7736C-26.6229 -23.099 -26.6067 -25.1696 -27.7676 -26.5323L-27.7734 -26.5382L-27.7793 -26.545L-28.3242 -27.1876C-39.3822 -40.4341 -42.1475 -57.7899 -34.832 -73.4728Z" stroke="#125881" stroke-opacity="0.5" stroke-width="5"/>
<path d="M40.0469 -73.4919C46.408 -58.8327 45.1982 -43.8385 36.0635 -30.5027L36.0605 -30.4988C35.6234 -29.8582 34.6543 -28.4163 33.8115 -27.1091C33.393 -26.4599 32.9882 -25.8171 32.6934 -25.3152C32.5512 -25.0732 32.4046 -24.8133 32.293 -24.5828C32.2443 -24.4823 32.1551 -24.2919 32.0859 -24.0691C32.0558 -23.972 31.9836 -23.7271 31.9668 -23.4119C31.9586 -23.2579 31.894 -22.176 32.834 -21.363V-21.3621C33.756 -20.5639 35.5909 -18.8697 37.2305 -17.3416C38.0427 -16.5846 38.7961 -15.8793 39.3457 -15.363C39.6202 -15.1052 39.844 -14.8948 39.999 -14.7488C40.0766 -14.6758 40.1369 -14.6184 40.1777 -14.5798C40.198 -14.5607 40.2132 -14.5457 40.2236 -14.5359C40.2288 -14.531 40.2337 -14.5276 40.2363 -14.5251C40.2375 -14.524 40.2387 -14.5228 40.2393 -14.5222V-14.5212L40.2529 -14.5095L40.2656 -14.4968C40.8889 -13.9255 41.5876 -13.837 41.9141 -13.825C42.2618 -13.8122 42.5422 -13.8712 42.6904 -13.908C42.9952 -13.9835 43.2569 -14.099 43.4111 -14.1716C43.7488 -14.3307 44.1268 -14.5511 44.4834 -14.7693C45.2179 -15.2187 46.1701 -15.8539 47.1582 -16.5193C49.2075 -17.8994 51.4396 -19.4247 52.9316 -20.2585L52.9307 -20.2595C65.1256 -27.0704 79.2432 -27.4119 91.8193 -21.571C90.1085 -14.3095 85.4684 -7.64513 79.2607 -2.54761C72.7335 2.81235 64.6511 6.29203 56.876 6.91626C22.5805 9.66668 -0.532542 -26.7106 17.4141 -56.321C19.8144 -60.2813 23.4618 -64.3275 27.709 -67.5447C31.6166 -70.5046 35.9002 -72.6636 40.0469 -73.4919Z" stroke="#125881" stroke-opacity="0.5" stroke-width="5"/>
<path d="M101.202 1.53656C107.107 -0.382557 111.512 1.16712 115.639 4.2973C117.762 5.90826 119.78 7.92081 121.858 10.1215C123.581 11.9455 125.387 13.9443 127.235 15.7983C125.964 17.2508 123.838 19.4581 121.655 21.6332C118.85 24.4285 116.32 26.8093 115.757 27.2348L115.754 27.2377C113.181 29.1868 109.554 30.7669 106.532 30.9194L106.242 30.9291C102.078 31.0101 99.4933 29.5108 97.0283 27.2621C95.7201 26.0687 94.5299 24.7437 93.0869 23.2299C91.6867 21.761 90.1169 20.193 88.2373 18.7768C87.0443 17.8758 85.3875 16.6477 83.6729 15.5522C86.3577 13.8097 89.9469 11.3974 91.8486 9.73871C93.891 7.95754 95.5008 5.83067 96.666 4.57269C97.916 3.22322 99.1631 2.19919 101.202 1.53656Z" stroke="#125881" stroke-opacity="0.5" stroke-width="5"/>
<path d="M2.63965 96.5498C4.10256 99.1689 5.83844 101.729 7.66113 103.945L7.66309 103.947C8.88974 105.436 10.7054 106.973 12.1729 108.246C13.8038 109.661 14.9668 110.722 15.4941 111.509H15.4951C17.4195 114.377 18.0217 117.046 17.834 119.547C17.6424 122.099 16.6114 124.671 14.9541 127.252C11.8436 132.097 6.87318 136.476 2.45312 140.282C0.60955 138.455 -1.37358 136.662 -3.17676 134.957C-5.36183 132.89 -7.35587 130.883 -8.94922 128.77C-12.0447 124.664 -13.5703 120.276 -11.6611 114.399L-11.6621 114.398C-11.0131 112.406 -9.98908 111.137 -8.63184 109.862C-7.89935 109.174 -7.16521 108.569 -6.25 107.768C-5.37411 107 -4.42472 106.129 -3.48145 105.076L-3.48242 105.075C-1.31534 102.658 0.927931 99.6629 2.63965 96.5498Z" stroke="#125881" stroke-opacity="0.5" stroke-width="5"/>
<path d="M2.57812 -3.92828C6.13385 2.27519 11.4142 8.19092 16.8428 12.311L16.8438 12.312C18.1377 13.2929 19.5356 14.1089 20.792 14.8344C21.3479 15.1554 21.8732 15.4593 22.373 15.7573C22.1125 15.9133 21.8427 16.0764 21.5664 16.2407C19.8302 17.273 17.6607 18.5428 16.8555 19.1459L16.8535 19.1479C13.9419 21.333 8.43324 26.7661 6.22754 29.6928C5.65763 30.4483 4.70545 32.075 3.85645 33.475C3.43493 34.1701 3.01852 34.84 2.63184 35.4399C-1.13845 29.29 -5.84701 23.5675 -11.7861 19.1381L-11.79 19.1352C-12.5386 18.5791 -14.0952 17.6906 -15.4111 16.9106C-16.0194 16.55 -16.6042 16.194 -17.1357 15.8598C-9.09125 11.0007 -2.18163 4.27881 2.57812 -3.92828Z" stroke="#125881" stroke-opacity="0.5" stroke-width="5"/>
<path d="M746.401 419.763C711.984 429.007 699.848 473.918 724.45 500.555C746.017 523.905 784.451 521.788 802.364 495.426H802.365C803.061 494.403 804.867 491.369 806.448 488.167C807.236 486.571 807.938 484.994 808.414 483.646C808.695 482.849 808.853 482.25 808.935 481.832C789.413 473.027 767.739 476.034 751.685 490.137L751.681 490.14C750.254 491.388 748.04 491.396 746.629 489.979L738.27 481.62C736.873 480.223 736.854 478.038 738.081 476.598L738.087 476.592L738.092 476.586L738.748 475.813C752.127 459.786 755.42 438.731 746.401 419.763Z" stroke="#125881" stroke-opacity="0.5" stroke-width="5"/>
<path d="M656.592 419.765C648.772 437.497 650.173 455.68 661.232 471.826L661.234 471.83C661.754 472.591 662.906 474.306 663.908 475.86C664.406 476.632 664.884 477.391 665.23 477.981C665.398 478.267 665.565 478.563 665.689 478.82C665.744 478.933 665.839 479.135 665.91 479.366C665.942 479.467 666.014 479.715 666.031 480.033C666.04 480.191 666.104 481.283 665.149 482.098C664.038 483.061 661.853 485.078 659.908 486.891C658.939 487.794 658.042 488.636 657.387 489.251C657.059 489.559 656.792 489.81 656.607 489.984C656.515 490.071 656.442 490.139 656.394 490.185C656.369 490.208 656.351 490.226 656.339 490.238C656.333 490.244 656.327 490.247 656.324 490.25C656.323 490.252 656.322 490.254 656.321 490.254H656.32V490.255L656.307 490.267L656.294 490.28C655.669 490.853 654.966 490.942 654.636 490.955C654.284 490.967 653.998 490.908 653.844 490.87C653.527 490.791 653.249 490.668 653.074 490.586C652.696 490.408 652.263 490.158 651.841 489.9C650.976 489.371 649.85 488.619 648.671 487.825C646.239 486.187 643.557 484.353 641.756 483.346L641.755 483.347C626.965 475.087 609.825 474.735 594.61 481.932C596.605 490.859 602.261 499.032 609.831 505.248C617.678 511.692 627.403 515.884 636.78 516.637C678.04 519.946 705.87 476.171 684.269 440.53C681.374 435.754 676.984 430.885 671.876 427.016C667.06 423.368 661.745 420.712 656.592 419.765Z" stroke="#125881" stroke-opacity="0.5" stroke-width="5"/>
<path d="M701.527 377.373C699.815 378.835 697.057 381.475 694.366 384.161C691.125 387.395 688.315 390.352 687.789 391.026V391.027C684.436 395.33 682.532 400.455 683.107 405.653C683.482 409.022 684.708 411.228 686.425 413.262C687.32 414.322 688.342 415.329 689.513 416.465C690.66 417.58 691.94 418.812 693.208 420.22L693.209 420.221C696.129 423.468 699.264 427.126 701.62 431.326C703.436 427.916 705.845 424.506 708.069 421.815H708.068C709.505 420.074 710.975 418.671 712.328 417.434C713.72 416.163 714.891 415.15 715.965 414.026C717.964 411.933 719.457 409.621 719.959 405.512C720.68 399.615 718.26 394.72 714.33 390.032C712.359 387.681 710.064 385.449 707.678 383.211C705.629 381.291 703.478 379.334 701.527 377.373Z" stroke="#125881" stroke-opacity="0.5" stroke-width="5"/>
<path d="M518.307 428.619C519.445 388.55 476.141 363.162 441.679 384.48V384.481C437.076 387.329 432.178 391.722 428.302 396.812C424.638 401.624 422.023 406.879 421.286 411.876C440.457 420.699 462.254 417.499 477.951 403.393L477.954 403.391L478.086 403.278C479.475 402.145 481.514 402.149 482.894 403.386L482.9 403.391L491.848 411.472C491.851 411.475 491.856 411.478 491.86 411.481C491.903 411.517 492.023 411.616 492.15 411.747C492.357 411.959 493.034 412.709 492.937 413.885L492.935 413.897C492.879 414.522 492.626 415.055 492.501 415.307C492.338 415.634 492.137 415.97 491.935 416.285C491.527 416.919 491.005 417.638 490.488 418.325C489.368 419.815 488.374 421.037 487.874 421.745L487.873 421.746C477.036 437.078 475.236 457.082 483.501 473.847C502.708 469.36 517.374 449.276 518.271 429.569V429.568L518.307 428.619Z" stroke="#125881" stroke-opacity="0.5" stroke-width="5"/>
<path d="M635.154 411.656C625.788 377.324 581.121 365.285 554.36 389.751C527.981 413.866 535.102 458.974 568.109 472.64C569.035 473.023 570.444 473.656 571.812 474.066C572.283 474.208 572.674 474.295 572.979 474.343C573.061 474.151 573.154 473.928 573.256 473.677C573.626 472.758 574.072 471.564 574.516 470.32C575.419 467.79 576.243 465.27 576.42 464.573V464.572C579.889 450.95 578.092 437.362 570.794 425.366L570.583 425.05C570.316 424.671 569.876 424.095 569.275 423.325C568.528 422.367 567.608 421.202 566.757 420.057C565.917 418.926 565.068 417.715 564.483 416.651C564.197 416.13 563.907 415.525 563.739 414.912C563.609 414.437 563.343 413.23 564.084 412.103H564.085C564.296 411.781 564.665 411.389 564.892 411.148C565.2 410.822 565.599 410.413 566.055 409.958C566.967 409.045 568.139 407.91 569.316 406.812C570.487 405.72 571.696 404.634 572.675 403.833C573.155 403.441 573.638 403.068 574.062 402.795C574.263 402.666 574.546 402.496 574.863 402.368C575.019 402.305 575.283 402.211 575.611 402.169C575.891 402.133 576.477 402.1 577.111 402.411L577.235 402.477C578.361 403.106 579.503 404.128 580.419 404.954C581.311 405.759 582.085 406.471 582.815 407.025L583.127 407.253C598.662 418.216 618.119 419.791 635.154 411.656ZM636.098 411.195C636.099 411.195 636.101 411.194 636.103 411.193L636.105 411.191C636.103 411.193 636.1 411.194 636.098 411.195Z" stroke="#125881" stroke-opacity="0.5" stroke-width="5"/>
<path d="M573.075 259.979C538.658 269.223 526.522 314.133 551.124 340.771C572.691 364.121 611.125 362.003 629.038 335.642H629.039C629.735 334.618 631.54 331.584 633.122 328.382C633.91 326.787 634.612 325.21 635.088 323.862C635.369 323.064 635.527 322.465 635.608 322.047C616.087 313.242 594.413 316.25 578.358 330.353L578.354 330.356C576.928 331.604 574.714 331.612 573.303 330.195L564.943 321.835C563.546 320.438 563.528 318.254 564.755 316.814L564.761 316.808L564.766 316.801L565.422 316.029C578.801 300.001 582.094 278.947 573.075 259.979Z" stroke="#125881" stroke-opacity="0.5" stroke-width="5"/>
<path d="M483.267 259.981C475.447 277.713 476.848 295.896 487.907 312.041L487.909 312.045C488.429 312.806 489.581 314.521 490.583 316.075C491.081 316.848 491.559 317.607 491.905 318.196C492.073 318.482 492.24 318.778 492.364 319.035C492.419 319.149 492.513 319.35 492.585 319.581C492.616 319.682 492.689 319.93 492.706 320.248C492.714 320.406 492.779 321.499 491.824 322.314C490.713 323.277 488.528 325.294 486.583 327.107C485.614 328.009 484.717 328.851 484.062 329.467C483.734 329.774 483.467 330.025 483.282 330.199C483.19 330.286 483.117 330.354 483.068 330.4C483.044 330.423 483.026 330.441 483.014 330.453C483.007 330.459 483.002 330.463 482.999 330.466C482.997 330.467 482.997 330.469 482.996 330.47H482.995V330.471L482.981 330.482L482.969 330.495C482.343 331.068 481.641 331.158 481.311 331.17C480.959 331.183 480.673 331.123 480.519 331.085C480.201 331.006 479.923 330.884 479.749 330.802C479.371 330.624 478.938 330.373 478.516 330.115C477.651 329.586 476.525 328.834 475.346 328.04C472.914 326.403 470.232 324.568 468.431 323.562L468.43 323.563C453.64 315.302 436.5 314.951 421.285 322.148C423.28 331.075 428.936 339.248 436.506 345.464C444.353 351.907 454.078 356.1 463.455 356.853C504.715 360.162 532.545 316.386 510.943 280.745C508.049 275.969 503.659 271.101 498.551 267.232C493.735 263.584 488.42 260.928 483.267 259.981Z" stroke="#125881" stroke-opacity="0.5" stroke-width="5"/>
<path d="M653.679 348.504C648.735 347.9 645.872 348.899 643.429 350.589C642.124 351.492 640.889 352.63 639.474 354.01C638.315 355.141 637.022 356.445 635.567 357.779V357.802L634.721 358.549C632.098 360.861 627.353 364.137 624.127 366.297C625.332 367.12 626.484 368.049 627.544 368.948C629.127 370.289 630.389 371.451 631.658 372.464L631.66 372.465C633.331 373.801 634.812 375.26 636.179 376.655C637.577 378.082 638.812 379.393 640.128 380.614C642.703 383.002 645.273 384.731 648.727 385.277C654.841 386.243 659.864 383.838 664.67 379.831C667.084 377.819 669.373 375.459 671.673 373.002C673.636 370.905 675.637 368.705 677.651 366.714C675.266 363.642 671.093 359.287 666.519 355.569C664.198 353.682 661.821 351.998 659.568 350.737C657.286 349.459 655.283 348.7 653.679 348.504ZM622.611 365.343C622.613 365.344 622.615 365.345 622.617 365.346C622.613 365.344 622.609 365.341 622.604 365.338L622.611 365.343Z" stroke="#125881" stroke-opacity="0.5" stroke-width="5"/>
<path d="M528.201 217.588C526.488 219.051 523.731 221.691 521.04 224.376C517.799 227.611 514.989 230.568 514.463 231.241V231.242C511.11 235.545 509.206 240.671 509.781 245.868C510.156 249.238 511.381 251.444 513.099 253.478C513.994 254.538 515.016 255.544 516.187 256.681C517.334 257.796 518.614 259.027 519.882 260.436L519.883 260.437C522.803 263.683 525.938 267.342 528.294 271.541C530.11 268.131 532.519 264.721 534.743 262.03H534.742C536.179 260.289 537.649 258.886 539.002 257.65C540.393 256.378 541.565 255.366 542.639 254.241C544.638 252.148 546.13 249.837 546.633 245.728C547.354 239.83 544.934 234.935 541.004 230.247C539.033 227.896 536.738 225.664 534.352 223.427C532.303 221.506 530.152 219.55 528.201 217.588Z" stroke="#125881" stroke-opacity="0.5" stroke-width="5"/>
<path d="M410.803 349.505C403.577 347.156 398.164 349.069 393.155 352.869C390.59 354.815 388.163 357.238 385.683 359.865C383.52 362.156 381.271 364.65 378.968 366.937C380.456 368.677 383.168 371.501 385.935 374.258C389.269 377.58 392.313 380.446 393.017 380.977L393.02 380.98C396.139 383.343 400.554 385.277 404.279 385.465L404.638 385.477C409.758 385.577 412.953 383.718 415.953 380.981C417.529 379.544 418.969 377.942 420.676 376.151C422.34 374.405 424.189 372.559 426.397 370.895C427.969 369.708 430.197 368.057 432.44 366.673C429.196 364.58 424.512 361.463 422.12 359.377C419.708 357.273 417.854 354.808 416.414 353.254C414.889 351.608 413.336 350.328 410.803 349.505Z" stroke="#125881" stroke-opacity="0.5" stroke-width="5"/>
<path d="M528.213 342.476C524.012 350.075 517.56 357.386 510.923 362.423L510.922 362.424C509.407 363.572 507.766 364.531 506.267 365.396C505.352 365.925 504.494 366.417 503.69 366.914C504.201 367.223 504.759 367.558 505.337 367.901C507.427 369.144 509.977 370.638 510.91 371.337L510.912 371.338C514.134 373.756 520.078 379.572 522.951 383.133L523.483 383.813C524.143 384.688 525.258 386.59 526.283 388.281C526.936 389.358 527.582 390.398 528.165 391.271C532.701 383.732 538.4 376.717 545.626 371.327L545.63 371.324L545.997 371.066C546.947 370.424 548.512 369.527 549.905 368.701C550.884 368.121 551.827 367.547 552.631 367.022C542.58 361.098 533.98 352.743 528.213 342.476Z" stroke="#125881" stroke-opacity="0.5" stroke-width="5"/>
<path d="M684.861 268.834C686 228.765 642.696 203.377 608.233 224.696V224.697C603.631 227.544 598.733 231.937 594.856 237.028C591.192 241.84 588.578 247.095 587.841 252.091C607.012 260.914 628.809 257.715 644.506 243.609L644.509 243.607L644.641 243.494C646.03 242.361 648.069 242.365 649.448 243.601L649.455 243.607L658.402 251.687C658.406 251.69 658.411 251.693 658.415 251.697C658.458 251.732 658.577 251.831 658.705 251.962C658.911 252.174 659.589 252.924 659.491 254.1L659.489 254.113C659.434 254.737 659.181 255.27 659.056 255.522C658.893 255.849 658.692 256.186 658.489 256.5C658.082 257.135 657.559 257.853 657.043 258.541C655.923 260.03 654.928 261.253 654.429 261.96L654.428 261.961C643.59 277.293 641.79 297.297 650.056 314.062C669.263 309.575 683.929 289.491 684.826 269.785V269.784L684.861 268.834Z" stroke="#125881" stroke-opacity="0.5" stroke-width="5"/>
<path d="M801.709 251.872C792.342 217.539 747.676 205.5 720.915 229.966C694.536 254.082 701.657 299.189 734.664 312.855C735.59 313.239 736.999 313.872 738.367 314.282C738.838 314.423 739.229 314.511 739.533 314.558C739.616 314.366 739.709 314.144 739.811 313.892C740.181 312.974 740.627 311.779 741.07 310.536C741.973 308.005 742.797 305.486 742.975 304.789V304.788C746.444 291.166 744.647 277.577 737.349 265.582L737.138 265.265C736.871 264.886 736.431 264.31 735.83 263.541C735.083 262.583 734.162 261.417 733.312 260.272C732.471 259.141 731.623 257.931 731.038 256.867C730.752 256.345 730.462 255.741 730.294 255.128C730.164 254.652 729.898 253.446 730.639 252.318H730.64C730.851 251.996 731.22 251.604 731.446 251.364C731.754 251.037 732.154 250.629 732.609 250.173C733.522 249.261 734.694 248.125 735.871 247.027C737.042 245.935 738.25 244.849 739.229 244.048C739.709 243.656 740.193 243.284 740.617 243.01C740.818 242.881 741.101 242.712 741.418 242.584C741.574 242.521 741.838 242.426 742.166 242.384C742.445 242.349 743.032 242.316 743.666 242.627L743.79 242.692C744.916 243.321 746.058 244.343 746.974 245.17C747.866 245.974 748.639 246.687 749.37 247.241L749.682 247.468C765.216 258.431 784.674 260.007 801.709 251.872ZM802.652 251.411C802.654 251.41 802.656 251.41 802.657 251.409L802.66 251.407C802.658 251.408 802.655 251.409 802.652 251.411Z" stroke="#125881" stroke-opacity="0.5" stroke-width="5"/>
<path d="M739.631 100.194C705.213 109.438 693.077 154.349 717.68 180.986C739.246 204.336 777.681 202.219 795.594 175.857H795.595C796.29 174.834 798.096 171.8 799.678 168.597C800.466 167.002 801.168 165.425 801.644 164.077C801.925 163.28 802.082 162.681 802.164 162.263C782.642 153.457 760.968 156.465 744.914 170.568L744.91 170.571C743.483 171.819 741.27 171.827 739.858 170.41L731.499 162.051C730.102 160.653 730.084 158.469 731.311 157.029L731.316 157.023L731.321 157.016L731.978 156.244C745.356 140.217 748.649 119.162 739.631 100.194Z" stroke="#125881" stroke-opacity="0.5" stroke-width="5"/>
<path d="M649.821 100.196C642.002 117.928 643.403 136.111 654.462 152.257L654.464 152.26C654.983 153.021 656.136 154.737 657.138 156.291C657.636 157.063 658.114 157.822 658.46 158.412C658.628 158.697 658.795 158.994 658.919 159.251C658.974 159.364 659.068 159.566 659.14 159.797C659.171 159.898 659.244 160.146 659.261 160.464C659.269 160.621 659.334 161.714 658.379 162.529C657.268 163.492 655.083 165.509 653.138 167.322C652.169 168.225 651.272 169.067 650.616 169.682C650.289 169.99 650.022 170.241 649.837 170.415C649.744 170.502 649.672 170.57 649.623 170.616C649.599 170.639 649.581 170.657 649.568 170.669C649.562 170.675 649.557 170.678 649.554 170.681C649.552 170.683 649.552 170.685 649.551 170.685H649.55V170.686L649.536 170.698L649.523 170.711C648.898 171.284 648.196 171.373 647.865 171.385C647.513 171.398 647.228 171.339 647.073 171.3C646.756 171.222 646.478 171.099 646.304 171.017C645.926 170.839 645.492 170.589 645.07 170.331C644.205 169.802 643.08 169.05 641.9 168.256C639.469 166.618 636.786 164.784 634.985 163.777L634.984 163.778C620.195 155.518 603.054 155.166 587.84 162.363C589.834 171.29 595.491 179.463 603.061 185.679C610.907 192.123 620.632 196.315 630.01 197.068C671.269 200.377 699.1 156.602 677.498 120.961C674.603 116.185 670.213 111.316 665.105 107.447C660.29 103.799 654.975 101.143 649.821 100.196Z" stroke="#125881" stroke-opacity="0.5" stroke-width="5"/>
<path d="M694.757 57.8035C693.044 59.2662 690.287 61.9062 687.596 64.5916C684.354 67.8263 681.544 70.7832 681.019 71.4568V71.4578C677.666 75.7607 675.761 80.886 676.337 86.0838C676.711 89.453 677.937 91.6592 679.654 93.6932C680.549 94.753 681.572 95.7594 682.742 96.8963C683.89 98.011 685.17 99.2426 686.438 100.651L686.438 100.652C689.358 103.899 692.494 107.557 694.85 111.757C696.665 108.346 699.075 104.937 701.299 102.246H701.298C702.735 100.505 704.204 99.1016 705.558 97.8651C706.949 96.5936 708.12 95.581 709.194 94.4568C711.194 92.3638 712.686 90.0522 713.188 85.9432C713.909 80.0457 711.49 75.1508 707.56 70.4627C705.589 68.1115 703.293 65.8795 700.907 63.6424C698.858 61.7216 696.707 59.7652 694.757 57.8035Z" stroke="#125881" stroke-opacity="0.5" stroke-width="5"/>
<path d="M577.358 189.72C570.132 187.372 564.72 189.285 559.711 193.084C557.146 195.03 554.719 197.454 552.238 200.081C550.075 202.371 547.827 204.866 545.523 207.153C547.011 208.893 549.723 211.716 552.49 214.473C555.825 217.796 558.869 220.662 559.572 221.193L559.575 221.196C562.694 223.559 567.109 225.493 570.835 225.68L571.193 225.693C576.314 225.792 579.509 223.934 582.509 221.197C584.085 219.759 585.524 218.158 587.231 216.367C588.896 214.621 590.745 212.775 592.953 211.111C594.525 209.924 596.752 208.272 598.996 206.888C595.752 204.796 591.068 201.679 588.676 199.592C586.263 197.488 584.41 195.024 582.97 193.469C581.445 191.823 579.892 190.543 577.358 189.72Z" stroke="#125881" stroke-opacity="0.5" stroke-width="5"/>
<path d="M694.704 302.429C692.891 305.793 690.675 309.108 688.342 311.945L688.341 311.947C686.91 313.683 684.784 315.484 683.021 317.014C681.094 318.685 679.65 319.995 678.978 320.997L678.977 320.998C676.627 324.501 675.876 327.788 676.108 330.883C676.345 334.03 677.613 337.171 679.616 340.29C683.446 346.255 689.601 351.62 694.944 356.217C697.22 353.939 699.697 351.708 701.962 349.566C704.57 347.099 706.973 344.683 708.897 342.13C712.655 337.147 714.539 331.756 712.203 324.565C711.396 322.086 710.118 320.507 708.463 318.953C707.582 318.125 706.69 317.389 705.612 316.445C704.574 315.535 703.458 314.511 702.353 313.277L702.354 313.276C699.607 310.212 696.764 306.373 694.704 302.429Z" stroke="#125881" stroke-opacity="0.5" stroke-width="5"/>
<path d="M694.768 182.691C690.566 190.291 684.114 197.601 677.478 202.638L677.477 202.639C675.961 203.788 674.321 204.746 672.821 205.612C671.907 206.14 671.049 206.632 670.245 207.13C670.756 207.438 671.314 207.773 671.892 208.117C673.982 209.36 676.532 210.854 677.465 211.552L677.467 211.553C680.689 213.971 686.633 219.787 689.506 223.348L690.038 224.029C690.698 224.904 691.812 226.805 692.838 228.497C693.491 229.573 694.137 230.614 694.72 231.487C699.256 223.947 704.954 216.932 712.181 211.543L712.185 211.54L712.552 211.282C713.501 210.64 715.067 209.742 716.46 208.917C717.439 208.336 718.382 207.763 719.186 207.238C709.134 201.314 700.535 192.958 694.768 182.691Z" stroke="#125881" stroke-opacity="0.5" stroke-width="5"/>
</g>
</svg>
